<svg xmlns="http://www.w3.org/2000/svg" width="24" height="24" viewBox="0 0 24 24">
    <path fill="#FFF" fill-rule="nonzero" d="M20.782 10.612c1.634-1.736 1.622-4.595-.025-6.32a4.095 4.095 0 0 0-5.886-.087l-2.922 2.89-2.868-2.886a4.007 4.007 0 0 0-5.788.056l-.05.053C1.6 6.038 1.584 8.88 3.2 10.614L12.02 20l8.762-9.388zm-8.82-6.331l1.416-1.407.084-.083a6.084 6.084 0 0 1 8.745.128c2.375 2.498 2.395 6.573.034 9.092L12.026 23 1.739 12.01c-2.337-2.518-2.318-6.57.053-9.065l.05-.053a5.996 5.996 0 0 1 8.66-.086l.052.053 1.407 1.422z" opacity=".404"/>
</svg>
