<?xml version="1.0" encoding="UTF-8"?>
<svg xmlns="http://www.w3.org/2000/svg" xmlns:xlink="http://www.w3.org/1999/xlink" width="60" height="60" viewBox="0 0 60 60">
<path fill-rule="nonzero" fill="rgb(100%, 85.490196%, 26.666667%)" fill-opacity="1" d="M 15 55.984375 C 19.414062 58.539062 24.535156 60 30 60 C 35.464844 60 40.585938 58.539062 45 55.984375 L 45 4.015625 C 40.585938 1.460938 35.464844 0 30 0 C 24.535156 0 19.414062 1.460938 15 4.015625 Z M 15 55.984375 "/>
<path fill-rule="nonzero" fill="rgb(0%, 32.156863%, 70.588235%)" fill-opacity="1" d="M 0 29.988281 C 0.00390625 18.132812 6.886719 7.882812 16.875 3.015625 L 16.875 56.984375 C 6.886719 52.117188 0.00390625 41.867188 0 30.007812 C 0 30.007812 0 30.003906 0 30 C 0 29.996094 0 29.992188 0 29.988281 Z M 0 29.988281 "/>
<path fill-rule="nonzero" fill="rgb(84.705882%, 0%, 15.294118%)" fill-opacity="1" d="M 60 30 C 60 18.136719 53.117188 7.882812 43.125 3.015625 L 43.125 56.984375 C 53.117188 52.117188 60 41.863281 60 30 Z M 60 30 "/>
<path fill-rule="nonzero" fill="rgb(100%, 59.607843%, 6.666667%)" fill-opacity="1" d="M 40.433594 23.605469 L 33.261719 23.605469 C 33.261719 21.804688 31.800781 20.34375 30 20.34375 C 28.199219 20.34375 26.738281 21.804688 26.738281 23.605469 L 19.566406 23.605469 C 19.566406 25.378906 21.109375 26.8125 22.882812 26.8125 L 22.777344 26.8125 C 22.777344 28.585938 24.214844 30.023438 25.988281 30.023438 C 25.988281 31.59375 27.113281 32.898438 28.601562 33.179688 L 26.074219 38.890625 C 27.285156 39.382812 28.609375 39.65625 30 39.65625 C 31.390625 39.65625 32.714844 39.382812 33.925781 38.890625 L 31.394531 33.179688 C 32.886719 32.898438 34.011719 31.59375 34.011719 30.023438 C 35.785156 30.023438 37.222656 28.585938 37.222656 26.8125 L 37.117188 26.8125 C 38.890625 26.8125 40.433594 25.375 40.433594 23.605469 Z M 40.433594 23.605469 "/>
<path fill-rule="nonzero" fill="rgb(0%, 32.156863%, 70.588235%)" fill-opacity="1" d="M 30 28.042969 L 25.761719 30 L 25.761719 33.914062 L 30 36.523438 L 34.238281 33.914062 L 34.238281 30 Z M 30 28.042969 "/>
<path fill-rule="nonzero" fill="rgb(84.705882%, 0%, 15.294118%)" fill-opacity="1" d="M 25.761719 26.085938 L 34.238281 26.085938 L 34.238281 30 L 25.761719 30 Z M 25.761719 26.085938 "/>
</svg>
