<?xml version="1.0" encoding="UTF-8"?>
<svg xmlns="http://www.w3.org/2000/svg" xmlns:xlink="http://www.w3.org/1999/xlink" width="20" height="20" viewBox="0 0 20 20">
<path fill-rule="nonzero" fill="rgb(100%, 85.490196%, 26.666667%)" fill-opacity="1" d="M 5 18.664062 C 6.472656 19.511719 8.179688 20 10 20 C 11.820312 20 13.527344 19.511719 15 18.664062 L 15 1.335938 C 13.527344 0.488281 11.820312 0 10 0 C 8.179688 0 6.472656 0.488281 5 1.335938 Z M 5 18.664062 "/>
<path fill-rule="nonzero" fill="rgb(0%, 32.156863%, 70.588235%)" fill-opacity="1" d="M 0 9.996094 C 0 6.042969 2.296875 2.628906 5.625 1.003906 L 5.625 18.996094 C 2.296875 17.371094 0 13.957031 0 10.003906 C 0 10 0 10 0 10 C 0 10 0 9.996094 0 9.996094 Z M 0 9.996094 "/>
<path fill-rule="nonzero" fill="rgb(84.705882%, 0%, 15.294118%)" fill-opacity="1" d="M 20 10 C 20 6.046875 17.707031 2.628906 14.375 1.003906 L 14.375 18.996094 C 17.707031 17.371094 20 13.953125 20 10 Z M 20 10 "/>
<path fill-rule="nonzero" fill="rgb(100%, 59.607843%, 6.666667%)" fill-opacity="1" d="M 13.476562 7.867188 L 11.085938 7.867188 C 11.085938 7.269531 10.601562 6.78125 10 6.78125 C 9.398438 6.78125 8.914062 7.269531 8.914062 7.867188 L 6.523438 7.867188 C 6.523438 8.460938 7.035156 8.9375 7.628906 8.9375 L 7.59375 8.9375 C 7.59375 9.527344 8.070312 10.007812 8.664062 10.007812 C 8.664062 10.53125 9.039062 10.964844 9.535156 11.058594 L 8.691406 12.964844 C 9.09375 13.128906 9.535156 13.21875 10 13.21875 C 10.464844 13.21875 10.90625 13.128906 11.308594 12.964844 L 10.464844 11.058594 C 10.960938 10.964844 11.335938 10.53125 11.335938 10.007812 C 11.929688 10.007812 12.40625 9.527344 12.40625 8.9375 L 12.371094 8.9375 C 12.964844 8.9375 13.476562 8.460938 13.476562 7.867188 Z M 13.476562 7.867188 "/>
<path fill-rule="nonzero" fill="rgb(0%, 32.156863%, 70.588235%)" fill-opacity="1" d="M 10 9.347656 L 8.585938 10 L 8.585938 11.304688 L 10 12.175781 L 11.414062 11.304688 L 11.414062 10 Z M 10 9.347656 "/>
<path fill-rule="nonzero" fill="rgb(84.705882%, 0%, 15.294118%)" fill-opacity="1" d="M 8.585938 8.695312 L 11.414062 8.695312 L 11.414062 10 L 8.585938 10 Z M 8.585938 8.695312 "/>
</svg>
