<?xml version="1.0" encoding="UTF-8"?>
<svg xmlns="http://www.w3.org/2000/svg" xmlns:xlink="http://www.w3.org/1999/xlink" width="40" height="40" viewBox="0 0 40 40">
<path fill-rule="nonzero" fill="rgb(100%, 85.490196%, 26.666667%)" fill-opacity="1" d="M 10 37.324219 C 12.941406 39.027344 16.355469 40 20 40 C 23.644531 40 27.058594 39.027344 30 37.324219 L 30 2.675781 C 27.058594 0.972656 23.644531 0 20 0 C 16.355469 0 12.941406 0.972656 10 2.675781 Z M 10 37.324219 "/>
<path fill-rule="nonzero" fill="rgb(0%, 32.156863%, 70.588235%)" fill-opacity="1" d="M 0 19.992188 C 0.00390625 12.089844 4.589844 5.253906 11.25 2.011719 L 11.25 37.988281 C 4.589844 34.746094 0.00390625 27.910156 0 20.007812 C 0 20.003906 0 20 0 20 C 0 19.996094 0 19.996094 0 19.992188 Z M 0 19.992188 "/>
<path fill-rule="nonzero" fill="rgb(84.705882%, 0%, 15.294118%)" fill-opacity="1" d="M 40 20 C 40 12.09375 35.410156 5.257812 28.75 2.011719 L 28.75 37.988281 C 35.410156 34.742188 40 27.910156 40 20 Z M 40 20 "/>
<path fill-rule="nonzero" fill="rgb(100%, 59.607843%, 6.666667%)" fill-opacity="1" d="M 26.957031 15.734375 L 22.171875 15.734375 C 22.171875 14.535156 21.199219 13.5625 20 13.5625 C 18.800781 13.5625 17.824219 14.535156 17.824219 15.734375 L 13.042969 15.734375 C 13.042969 16.917969 14.074219 17.875 15.253906 17.875 L 15.183594 17.875 C 15.183594 19.058594 16.140625 20.015625 17.324219 20.015625 C 17.324219 21.0625 18.074219 21.933594 19.070312 22.117188 L 17.382812 25.925781 C 18.191406 26.253906 19.074219 26.4375 20 26.4375 C 20.925781 26.4375 21.808594 26.253906 22.617188 25.925781 L 20.929688 22.117188 C 21.921875 21.933594 22.675781 21.0625 22.675781 20.015625 C 23.859375 20.015625 24.816406 19.058594 24.816406 17.875 L 24.746094 17.875 C 25.925781 17.875 26.957031 16.917969 26.957031 15.734375 Z M 26.957031 15.734375 "/>
<path fill-rule="nonzero" fill="rgb(0%, 32.156863%, 70.588235%)" fill-opacity="1" d="M 20 18.695312 L 17.175781 20 L 17.175781 22.609375 L 20 24.347656 L 22.824219 22.609375 L 22.824219 20 Z M 20 18.695312 "/>
<path fill-rule="nonzero" fill="rgb(84.705882%, 0%, 15.294118%)" fill-opacity="1" d="M 17.175781 17.390625 L 22.828125 17.390625 L 22.828125 20 L 17.175781 20 Z M 17.175781 17.390625 "/>
</svg>
