<?xml version="1.0" encoding="UTF-8"?>
<svg xmlns="http://www.w3.org/2000/svg" xmlns:xlink="http://www.w3.org/1999/xlink" width="60" height="60" viewBox="0 0 60 60">
<path fill-rule="evenodd" fill="rgb(84.705882%, 0%, 15.294118%)" fill-opacity="1" d="M 55.222656 46.25 C 49.882812 54.523438 40.578125 60 30 60 C 19.421875 60 10.117188 54.523438 4.777344 46.25 Z M 55.222656 46.25 "/>
<path fill-rule="evenodd" fill="rgb(100%, 85.490196%, 26.666667%)" fill-opacity="1" d="M 7.640625 50 C 4.214844 46.171875 1.757812 41.460938 0.652344 36.25 L 59.347656 36.25 C 58.242188 41.460938 55.785156 46.171875 52.359375 50 L 7.636719 50 Z M 7.640625 50 "/>
<path fill-rule="evenodd" fill="rgb(20%, 20%, 20%)" fill-opacity="1" d="M 58.292969 40 C 59.398438 36.871094 60 33.507812 60 30 C 60 28.730469 59.921875 27.476562 59.765625 26.25 L 0.230469 26.25 C 0.078125 27.476562 0 28.730469 0 30 C 0 33.507812 0.601562 36.871094 1.707031 40 Z M 58.292969 40 "/>
<path fill-rule="evenodd" fill="rgb(84.705882%, 0%, 15.294118%)" fill-opacity="1" d="M 60 30 C 60 25.042969 58.796875 20.367188 56.671875 16.25 L 3.328125 16.25 C 1.203125 20.371094 0 25.042969 0 30 Z M 60 30 "/>
<path fill-rule="evenodd" fill="rgb(100%, 85.490196%, 26.666667%)" fill-opacity="1" d="M 58.292969 20 L 1.707031 20 C 3.648438 14.507812 7.144531 9.746094 11.667969 6.25 L 48.332031 6.25 C 52.851562 9.746094 56.351562 14.507812 58.292969 20 Z M 58.292969 20 "/>
<path fill-rule="evenodd" fill="rgb(20%, 20%, 20%)" fill-opacity="1" d="M 52.359375 10 L 7.636719 10 C 13.132812 3.863281 21.113281 0 30 0 C 38.882812 0 46.867188 3.863281 52.359375 10 Z M 52.359375 10 "/>
<path fill-rule="nonzero" fill="rgb(93.333333%, 93.333333%, 93.333333%)" fill-opacity="1" d="M 40.011719 30 C 40.011719 35.527344 35.53125 40.011719 30 40.011719 C 24.472656 40.011719 19.988281 35.527344 19.988281 30 C 19.988281 24.472656 24.472656 19.988281 30 19.988281 C 35.53125 19.988281 40.011719 24.472656 40.011719 30 Z M 40.011719 30 "/>
<path fill-rule="nonzero" fill="rgb(20%, 20%, 20%)" fill-opacity="1" d="M 33.667969 30.511719 L 30 28.921875 C 30 28.921875 30.859375 26.074219 30.90625 25.878906 C 30.9375 25.738281 30.957031 25.589844 30.957031 25.433594 C 30.957031 24.894531 30.738281 24.40625 30.382812 24.050781 L 31.304688 23.128906 C 30.714844 22.539062 29.898438 22.175781 29 22.175781 C 28.097656 22.175781 27.28125 22.539062 26.691406 23.128906 L 27.617188 24.050781 C 27.261719 24.40625 27.042969 24.894531 27.042969 25.433594 C 27.042969 25.632812 27.070312 25.824219 27.125 26.003906 L 25.738281 27.390625 L 28.261719 27.390625 C 28.261719 27.390625 27.21875 28.960938 26.648438 30.246094 C 26.078125 31.53125 26.65625 33.105469 27.972656 33.6875 L 28.734375 34.027344 L 30 35.21875 L 30 36.523438 L 28.695312 37.828125 L 31.304688 37.828125 L 31.304688 35.21875 L 32.496094 34.027344 L 34.957031 34.027344 C 34.96875 34.003906 34.980469 33.980469 34.992188 33.953125 C 35.578125 32.636719 34.984375 31.097656 33.667969 30.511719 Z M 33.667969 30.511719 "/>
</svg>
