<?xml version="1.0" encoding="UTF-8"?>
<svg xmlns="http://www.w3.org/2000/svg" xmlns:xlink="http://www.w3.org/1999/xlink" width="20" height="20" viewBox="0 0 20 20">
<path fill-rule="evenodd" fill="rgb(84.705882%, 0%, 15.294118%)" fill-opacity="1" d="M 18.40625 15.417969 C 16.628906 18.175781 13.527344 20 10 20 C 6.472656 20 3.375 18.175781 1.59375 15.417969 Z M 18.40625 15.417969 "/>
<path fill-rule="evenodd" fill="rgb(100%, 85.490196%, 26.666667%)" fill-opacity="1" d="M 2.546875 16.667969 C 1.40625 15.390625 0.585938 13.820312 0.21875 12.082031 L 19.78125 12.082031 C 19.414062 13.820312 18.59375 15.390625 17.453125 16.667969 Z M 2.546875 16.667969 "/>
<path fill-rule="evenodd" fill="rgb(20%, 20%, 20%)" fill-opacity="1" d="M 19.429688 13.332031 C 19.800781 12.289062 20 11.167969 20 10 C 20 9.578125 19.972656 9.160156 19.921875 8.75 L 0.078125 8.75 C 0.0273438 9.160156 0 9.578125 0 10 C 0 11.167969 0.199219 12.289062 0.570312 13.332031 Z M 19.429688 13.332031 "/>
<path fill-rule="evenodd" fill="rgb(84.705882%, 0%, 15.294118%)" fill-opacity="1" d="M 20 10 C 20 8.347656 19.597656 6.789062 18.890625 5.417969 L 1.109375 5.417969 C 0.402344 6.789062 0 8.347656 0 10 Z M 20 10 "/>
<path fill-rule="evenodd" fill="rgb(100%, 85.490196%, 26.666667%)" fill-opacity="1" d="M 19.429688 6.667969 L 0.570312 6.667969 C 1.214844 4.835938 2.382812 3.25 3.890625 2.082031 L 16.109375 2.082031 C 17.617188 3.25 18.785156 4.835938 19.429688 6.667969 Z M 19.429688 6.667969 "/>
<path fill-rule="evenodd" fill="rgb(20%, 20%, 20%)" fill-opacity="1" d="M 17.453125 3.332031 L 2.546875 3.332031 C 4.378906 1.289062 7.039062 0 10 0 C 12.960938 0 15.621094 1.289062 17.453125 3.332031 Z M 17.453125 3.332031 "/>
<path fill-rule="nonzero" fill="rgb(93.333333%, 93.333333%, 93.333333%)" fill-opacity="1" d="M 13.335938 10 C 13.335938 11.84375 11.84375 13.335938 10 13.335938 C 8.15625 13.335938 6.664062 11.84375 6.664062 10 C 6.664062 8.15625 8.15625 6.664062 10 6.664062 C 11.84375 6.664062 13.335938 8.15625 13.335938 10 Z M 13.335938 10 "/>
<path fill-rule="nonzero" fill="rgb(20%, 20%, 20%)" fill-opacity="1" d="M 11.222656 10.171875 L 10 9.640625 C 10 9.640625 10.285156 8.691406 10.300781 8.625 C 10.3125 8.578125 10.320312 8.53125 10.320312 8.476562 C 10.320312 8.296875 10.246094 8.136719 10.128906 8.015625 L 10.433594 7.710938 C 10.238281 7.511719 9.964844 7.390625 9.667969 7.390625 C 9.367188 7.390625 9.09375 7.511719 8.898438 7.710938 L 9.207031 8.015625 C 9.085938 8.136719 9.015625 8.296875 9.015625 8.476562 C 9.015625 8.542969 9.023438 8.609375 9.042969 8.667969 L 8.578125 9.128906 L 9.421875 9.128906 C 9.421875 9.128906 9.074219 9.652344 8.882812 10.082031 C 8.691406 10.511719 8.886719 11.035156 9.324219 11.230469 L 9.578125 11.34375 L 10 11.738281 L 10 12.175781 L 9.566406 12.609375 L 10.433594 12.609375 L 10.433594 11.738281 L 10.832031 11.34375 L 11.652344 11.34375 C 11.65625 11.335938 11.660156 11.328125 11.664062 11.316406 C 11.859375 10.878906 11.660156 10.367188 11.222656 10.171875 Z M 11.222656 10.171875 "/>
</svg>
