<?xml version="1.0" encoding="UTF-8"?>
<svg xmlns="http://www.w3.org/2000/svg" xmlns:xlink="http://www.w3.org/1999/xlink" width="40" height="40" viewBox="0 0 40 40">
<path fill-rule="evenodd" fill="rgb(84.705882%, 0%, 15.294118%)" fill-opacity="1" d="M 36.816406 30.832031 C 33.253906 36.347656 27.054688 40 20 40 C 12.945312 40 6.746094 36.347656 3.183594 30.832031 Z M 36.816406 30.832031 "/>
<path fill-rule="evenodd" fill="rgb(100%, 85.490196%, 26.666667%)" fill-opacity="1" d="M 5.09375 33.332031 C 2.808594 30.78125 1.171875 27.640625 0.433594 24.167969 L 39.566406 24.167969 C 38.828125 27.640625 37.191406 30.78125 34.90625 33.332031 Z M 5.09375 33.332031 "/>
<path fill-rule="evenodd" fill="rgb(20%, 20%, 20%)" fill-opacity="1" d="M 38.863281 26.667969 C 39.597656 24.582031 40 22.335938 40 20 C 40 19.152344 39.945312 18.320312 39.84375 17.5 L 0.152344 17.5 C 0.0507812 18.320312 0 19.152344 0 20 C 0 22.335938 0.402344 24.582031 1.136719 26.667969 Z M 38.863281 26.667969 "/>
<path fill-rule="evenodd" fill="rgb(84.705882%, 0%, 15.294118%)" fill-opacity="1" d="M 40 20 C 40 16.695312 39.199219 13.578125 37.78125 10.832031 L 2.21875 10.832031 C 0.800781 13.578125 0 16.695312 0 20 Z M 40 20 "/>
<path fill-rule="evenodd" fill="rgb(100%, 85.490196%, 26.666667%)" fill-opacity="1" d="M 38.863281 13.332031 L 1.136719 13.332031 C 2.433594 9.671875 4.761719 6.496094 7.777344 4.167969 L 32.21875 4.167969 C 35.234375 6.496094 37.566406 9.671875 38.863281 13.332031 Z M 38.863281 13.332031 "/>
<path fill-rule="evenodd" fill="rgb(20%, 20%, 20%)" fill-opacity="1" d="M 34.90625 6.667969 L 5.09375 6.667969 C 8.753906 2.574219 14.078125 0 20 0 C 25.921875 0 31.246094 2.574219 34.90625 6.667969 Z M 34.90625 6.667969 "/>
<path fill-rule="nonzero" fill="rgb(93.333333%, 93.333333%, 93.333333%)" fill-opacity="1" d="M 26.675781 20 C 26.675781 23.6875 23.6875 26.675781 20 26.675781 C 16.3125 26.675781 13.328125 23.6875 13.328125 20 C 13.328125 16.3125 16.3125 13.324219 20 13.324219 C 23.6875 13.324219 26.675781 16.3125 26.675781 20 Z M 26.675781 20 "/>
<path fill-rule="nonzero" fill="rgb(20%, 20%, 20%)" fill-opacity="1" d="M 22.445312 20.339844 L 20 19.28125 C 20 19.28125 20.574219 17.382812 20.601562 17.253906 C 20.625 17.15625 20.636719 17.058594 20.636719 16.957031 C 20.636719 16.597656 20.492188 16.269531 20.253906 16.035156 L 20.871094 15.417969 C 20.476562 15.027344 19.933594 14.78125 19.332031 14.78125 C 18.730469 14.78125 18.1875 15.027344 17.796875 15.417969 L 18.410156 16.035156 C 18.175781 16.269531 18.027344 16.597656 18.027344 16.957031 C 18.027344 17.089844 18.046875 17.214844 18.085938 17.335938 L 17.160156 18.261719 L 18.839844 18.261719 C 18.839844 18.261719 18.144531 19.304688 17.765625 20.164062 C 17.386719 21.023438 17.769531 22.070312 18.648438 22.460938 L 19.15625 22.683594 L 20 23.480469 L 20 24.347656 L 19.132812 25.21875 L 20.871094 25.21875 L 20.871094 23.476562 L 21.664062 22.683594 L 23.304688 22.683594 C 23.3125 22.667969 23.320312 22.652344 23.328125 22.636719 C 23.71875 21.757812 23.324219 20.730469 22.445312 20.339844 Z M 22.445312 20.339844 "/>
</svg>
