<?xml version="1.0" encoding="UTF-8"?>
<svg xmlns="http://www.w3.org/2000/svg" xmlns:xlink="http://www.w3.org/1999/xlink" width="60" height="60" viewBox="0 0 60 60">
<path fill-rule="nonzero" fill="rgb(28.627451%, 43.137255%, 17.647059%)" fill-opacity="1" d="M 60 30 C 60 46.570312 46.570312 60 30 60 C 13.429688 60 0 46.570312 0 30 C 0 13.429688 13.429688 0 30 0 C 46.570312 0 60 13.429688 60 30 Z M 60 30 "/>
<path fill-rule="evenodd" fill="rgb(84.705882%, 0%, 15.294118%)" fill-opacity="1" d="M 7.5 10.15625 C 11.410156 5.726562 16.601562 2.460938 22.5 0.945312 L 22.5 59.054688 C 16.601562 57.539062 11.410156 54.273438 7.5 49.84375 Z M 7.5 10.15625 "/>
<path fill-rule="evenodd" fill="rgb(93.333333%, 93.333333%, 93.333333%)" fill-opacity="1" d="M 36.285156 12.34375 L 37.566406 10.683594 L 37.503906 12.78125 L 39.476562 13.488281 L 37.464844 14.074219 L 37.398438 16.167969 L 36.21875 14.4375 L 34.207031 15.023438 L 35.492188 13.367188 L 34.3125 11.632812 Z M 42.011719 11.8125 C 45.570312 14.042969 47.230469 18.515625 45.753906 22.628906 C 44.277344 26.742188 40.152344 29.144531 35.988281 28.601562 C 36.535156 28.941406 37.125 29.234375 37.757812 29.460938 C 42.503906 31.164062 47.734375 28.699219 49.4375 23.949219 C 51.136719 19.203125 48.671875 13.976562 43.925781 12.273438 C 43.292969 12.046875 42.652344 11.894531 42.011719 11.8125 Z M 41.03125 16.085938 L 39.746094 17.742188 L 37.773438 17.035156 L 38.953125 18.765625 L 37.671875 20.421875 L 39.683594 19.835938 L 40.863281 21.566406 L 40.925781 19.472656 L 42.9375 18.886719 L 40.964844 18.179688 Z M 30.175781 14.308594 L 31.460938 12.652344 L 31.398438 14.746094 L 33.367188 15.453125 L 31.359375 16.039062 L 31.292969 18.136719 L 30.113281 16.402344 L 28.101562 16.988281 L 29.386719 15.332031 L 28.207031 13.601562 Z M 31.320312 18.835938 L 30.039062 20.492188 L 28.066406 19.785156 L 29.246094 21.519531 L 27.960938 23.175781 L 29.972656 22.589844 L 31.152344 24.320312 L 31.21875 22.226562 L 33.226562 21.640625 L 31.257812 20.929688 Z M 35.921875 22.605469 L 37.207031 20.949219 L 37.140625 23.042969 L 39.113281 23.75 L 37.101562 24.335938 L 37.039062 26.433594 L 35.859375 24.699219 L 33.847656 25.285156 L 35.128906 23.628906 L 33.949219 21.898438 Z M 35.921875 22.605469 "/>
<path fill-rule="nonzero" fill="rgb(93.333333%, 93.333333%, 93.333333%)" fill-opacity="1" d="M 13.148438 13.738281 L 10.527344 11.785156 L 10.527344 9.023438 L 13.148438 7.070312 L 16.851562 7.070312 L 19.472656 9.023438 L 19.472656 11.785156 L 16.851562 13.738281 Z M 13.148438 13.738281 "/>
<path fill-rule="nonzero" fill="rgb(100%, 59.607843%, 6.666667%)" fill-opacity="1" d="M 15 7.070312 L 13.148438 7.070312 L 10.527344 9.023438 L 10.527344 10.375 L 15 10.375 Z M 15 7.070312 "/>
<path fill-rule="nonzero" fill="rgb(100%, 59.607843%, 6.666667%)" fill-opacity="1" d="M 15 13.738281 L 16.851562 13.738281 L 19.472656 11.785156 L 19.472656 10.375 L 15 10.375 Z M 15 13.738281 "/>
<path fill-rule="nonzero" fill="rgb(28.627451%, 43.137255%, 17.647059%)" fill-opacity="1" d="M 19.566406 19.074219 L 18.425781 19.074219 L 18.425781 17.933594 L 16.417969 17.933594 L 15 16.515625 L 13.582031 17.933594 L 11.578125 17.933594 L 11.578125 19.074219 L 10.433594 19.074219 L 10.433594 21.359375 L 11.578125 21.359375 L 11.578125 22.5 L 13.582031 22.5 L 15 23.917969 L 16.417969 22.5 L 18.425781 22.5 L 18.425781 21.359375 L 19.566406 21.359375 Z M 19.566406 19.074219 "/>
<path fill-rule="nonzero" fill="rgb(84.705882%, 0%, 15.294118%)" fill-opacity="1" d="M 15 21.523438 C 15.71875 21.523438 16.304688 20.9375 16.304688 20.21875 C 16.304688 19.5 15.71875 18.914062 15 18.914062 C 14.28125 18.914062 13.695312 19.5 13.695312 20.21875 C 13.695312 20.9375 14.28125 21.523438 15 21.523438 Z M 15 21.523438 "/>
<path fill-rule="nonzero" fill="rgb(28.627451%, 43.137255%, 17.647059%)" fill-opacity="1" d="M 13.148438 33.332031 L 10.527344 31.378906 L 10.527344 28.621094 L 13.148438 26.667969 L 16.851562 26.667969 L 19.472656 28.621094 L 19.472656 31.378906 L 16.851562 33.332031 Z M 13.148438 33.332031 "/>
<path fill-rule="nonzero" fill="rgb(84.705882%, 0%, 15.294118%)" fill-opacity="1" d="M 13.695312 28.695312 L 16.304688 28.695312 L 16.304688 31.304688 L 13.695312 31.304688 Z M 13.695312 28.695312 "/>
<path fill-rule="nonzero" fill="rgb(28.627451%, 43.137255%, 17.647059%)" fill-opacity="1" d="M 19.566406 38.640625 L 18.425781 38.640625 L 18.425781 37.5 L 16.417969 37.5 L 15 36.082031 L 13.582031 37.5 L 11.578125 37.5 L 11.578125 38.640625 L 10.433594 38.640625 L 10.433594 40.925781 L 11.578125 40.925781 L 11.578125 42.066406 L 13.582031 42.066406 L 15 43.484375 L 16.417969 42.066406 L 18.425781 42.066406 L 18.425781 40.925781 L 19.566406 40.925781 Z M 19.566406 38.640625 "/>
<path fill-rule="nonzero" fill="rgb(84.705882%, 0%, 15.294118%)" fill-opacity="1" d="M 15 41.085938 C 15.71875 41.085938 16.304688 40.503906 16.304688 39.78125 C 16.304688 39.0625 15.71875 38.476562 15 38.476562 C 14.28125 38.476562 13.695312 39.0625 13.695312 39.78125 C 13.695312 40.503906 14.28125 41.085938 15 41.085938 Z M 15 41.085938 "/>
<path fill-rule="nonzero" fill="rgb(93.333333%, 93.333333%, 93.333333%)" fill-opacity="1" d="M 13.148438 52.898438 L 10.527344 50.945312 L 10.527344 48.183594 L 13.148438 46.234375 L 16.851562 46.234375 L 19.472656 48.183594 L 19.472656 50.945312 L 16.851562 52.898438 Z M 13.148438 52.898438 "/>
<path fill-rule="nonzero" fill="rgb(100%, 59.607843%, 6.666667%)" fill-opacity="1" d="M 15 46.234375 L 13.148438 46.234375 L 10.527344 48.183594 L 10.527344 49.535156 L 15 49.535156 Z M 15 46.234375 "/>
<path fill-rule="nonzero" fill="rgb(100%, 59.607843%, 6.666667%)" fill-opacity="1" d="M 15 52.898438 L 16.851562 52.898438 L 19.472656 50.945312 L 19.472656 49.535156 L 15 49.535156 Z M 15 52.898438 "/>
</svg>
