<?xml version="1.0" encoding="UTF-8"?>
<svg xmlns="http://www.w3.org/2000/svg" xmlns:xlink="http://www.w3.org/1999/xlink" width="40" height="40" viewBox="0 0 40 40">
<path fill-rule="nonzero" fill="rgb(28.627451%, 43.137255%, 17.647059%)" fill-opacity="1" d="M 40 20 C 40 31.046875 31.046875 40 20 40 C 8.953125 40 0 31.046875 0 20 C 0 8.953125 8.953125 0 20 0 C 31.046875 0 40 8.953125 40 20 Z M 40 20 "/>
<path fill-rule="evenodd" fill="rgb(84.705882%, 0%, 15.294118%)" fill-opacity="1" d="M 5 6.769531 C 7.605469 3.820312 11.070312 1.640625 15 0.628906 L 15 39.371094 C 11.070312 38.359375 7.605469 36.179688 5 33.230469 Z M 5 6.769531 "/>
<path fill-rule="evenodd" fill="rgb(93.333333%, 93.333333%, 93.333333%)" fill-opacity="1" d="M 24.1875 8.226562 L 25.042969 7.125 L 25 8.519531 L 26.316406 8.992188 L 24.976562 9.382812 L 24.933594 10.777344 L 24.148438 9.625 L 22.804688 10.015625 L 23.660156 8.910156 L 22.875 7.757812 Z M 28.007812 7.875 C 30.378906 9.359375 31.484375 12.34375 30.5 15.085938 C 29.519531 17.828125 26.769531 19.429688 23.992188 19.066406 C 24.355469 19.296875 24.75 19.488281 25.171875 19.640625 C 28.335938 20.777344 31.820312 19.132812 32.957031 15.96875 C 34.09375 12.804688 32.449219 9.316406 29.285156 8.183594 C 28.863281 8.03125 28.433594 7.929688 28.007812 7.875 Z M 27.351562 10.722656 L 26.496094 11.828125 L 25.183594 11.355469 L 25.96875 12.511719 L 25.113281 13.617188 L 26.457031 13.222656 L 27.242188 14.378906 L 27.285156 12.980469 L 28.625 12.589844 L 27.3125 12.121094 Z M 20.117188 9.539062 L 20.972656 8.433594 L 20.929688 9.832031 L 22.246094 10.300781 L 20.90625 10.695312 L 20.863281 12.089844 L 20.074219 10.933594 L 18.734375 11.328125 L 19.589844 10.222656 L 18.804688 9.066406 Z M 20.878906 12.558594 L 20.023438 13.664062 L 18.710938 13.191406 L 19.496094 14.34375 L 18.640625 15.449219 L 19.984375 15.058594 L 20.769531 16.214844 L 20.8125 14.816406 L 22.152344 14.425781 L 20.835938 13.953125 Z M 23.949219 15.070312 L 24.804688 13.964844 L 24.761719 15.363281 L 26.078125 15.832031 L 24.734375 16.226562 L 24.691406 17.621094 L 23.90625 16.46875 L 22.566406 16.859375 L 23.421875 15.753906 L 22.632812 14.597656 Z M 23.949219 15.070312 "/>
<path fill-rule="nonzero" fill="rgb(93.333333%, 93.333333%, 93.333333%)" fill-opacity="1" d="M 8.765625 9.15625 L 7.019531 7.855469 L 7.019531 6.015625 L 8.765625 4.714844 L 11.234375 4.714844 L 12.984375 6.015625 L 12.984375 7.855469 L 11.234375 9.15625 Z M 8.765625 9.15625 "/>
<path fill-rule="nonzero" fill="rgb(100%, 59.607843%, 6.666667%)" fill-opacity="1" d="M 10 4.714844 L 8.765625 4.714844 L 7.019531 6.015625 L 7.019531 6.914062 L 10 6.914062 Z M 10 4.714844 "/>
<path fill-rule="nonzero" fill="rgb(100%, 59.607843%, 6.666667%)" fill-opacity="1" d="M 10 9.15625 L 11.234375 9.15625 L 12.980469 7.855469 L 12.980469 6.917969 L 10 6.917969 Z M 10 9.15625 "/>
<path fill-rule="nonzero" fill="rgb(28.627451%, 43.137255%, 17.647059%)" fill-opacity="1" d="M 13.042969 12.71875 L 12.28125 12.71875 L 12.28125 11.957031 L 10.945312 11.957031 L 10 11.011719 L 9.054688 11.957031 L 7.71875 11.957031 L 7.71875 12.71875 L 6.957031 12.71875 L 6.957031 14.238281 L 7.71875 14.238281 L 7.71875 15 L 9.054688 15 L 10 15.945312 L 10.945312 15 L 12.28125 15 L 12.28125 14.238281 L 13.042969 14.238281 Z M 13.042969 12.71875 "/>
<path fill-rule="nonzero" fill="rgb(84.705882%, 0%, 15.294118%)" fill-opacity="1" d="M 10 14.347656 C 10.480469 14.347656 10.871094 13.960938 10.871094 13.480469 C 10.871094 13 10.480469 12.609375 10 12.609375 C 9.519531 12.609375 9.128906 13 9.128906 13.480469 C 9.128906 13.960938 9.519531 14.347656 10 14.347656 Z M 10 14.347656 "/>
<path fill-rule="nonzero" fill="rgb(28.627451%, 43.137255%, 17.647059%)" fill-opacity="1" d="M 8.765625 22.222656 L 7.019531 20.921875 L 7.019531 19.078125 L 8.765625 17.777344 L 11.234375 17.777344 L 12.984375 19.078125 L 12.984375 20.921875 L 11.234375 22.222656 Z M 8.765625 22.222656 "/>
<path fill-rule="nonzero" fill="rgb(84.705882%, 0%, 15.294118%)" fill-opacity="1" d="M 9.128906 19.128906 L 10.871094 19.128906 L 10.871094 20.871094 L 9.128906 20.871094 Z M 9.128906 19.128906 "/>
<path fill-rule="nonzero" fill="rgb(28.627451%, 43.137255%, 17.647059%)" fill-opacity="1" d="M 13.042969 25.761719 L 12.28125 25.761719 L 12.28125 25 L 10.945312 25 L 10 24.054688 L 9.054688 25 L 7.71875 25 L 7.71875 25.761719 L 6.957031 25.761719 L 6.957031 27.28125 L 7.71875 27.28125 L 7.71875 28.042969 L 9.054688 28.042969 L 10 28.988281 L 10.945312 28.042969 L 12.28125 28.042969 L 12.28125 27.28125 L 13.042969 27.28125 Z M 13.042969 25.761719 "/>
<path fill-rule="nonzero" fill="rgb(84.705882%, 0%, 15.294118%)" fill-opacity="1" d="M 10 27.390625 C 10.480469 27.390625 10.871094 27.003906 10.871094 26.523438 C 10.871094 26.042969 10.480469 25.652344 10 25.652344 C 9.519531 25.652344 9.128906 26.042969 9.128906 26.523438 C 9.128906 27.003906 9.519531 27.390625 10 27.390625 Z M 10 27.390625 "/>
<path fill-rule="nonzero" fill="rgb(93.333333%, 93.333333%, 93.333333%)" fill-opacity="1" d="M 8.765625 35.265625 L 7.019531 33.964844 L 7.019531 32.125 L 8.765625 30.820312 L 11.234375 30.820312 L 12.984375 32.125 L 12.984375 33.964844 L 11.234375 35.265625 Z M 8.765625 35.265625 "/>
<path fill-rule="nonzero" fill="rgb(100%, 59.607843%, 6.666667%)" fill-opacity="1" d="M 10 30.820312 L 8.765625 30.820312 L 7.019531 32.125 L 7.019531 33.023438 L 10 33.023438 Z M 10 30.820312 "/>
<path fill-rule="nonzero" fill="rgb(100%, 59.607843%, 6.666667%)" fill-opacity="1" d="M 10 35.265625 L 11.234375 35.265625 L 12.980469 33.964844 L 12.980469 33.023438 L 10 33.023438 Z M 10 35.265625 "/>
</svg>
