<?xml version="1.0" encoding="UTF-8"?>
<svg xmlns="http://www.w3.org/2000/svg" xmlns:xlink="http://www.w3.org/1999/xlink" width="20" height="20" viewBox="0 0 20 20">
<path fill-rule="nonzero" fill="rgb(28.627451%, 43.137255%, 17.647059%)" fill-opacity="1" d="M 20 10 C 20 15.523438 15.523438 20 10 20 C 4.476562 20 0 15.523438 0 10 C 0 4.476562 4.476562 0 10 0 C 15.523438 0 20 4.476562 20 10 Z M 20 10 "/>
<path fill-rule="evenodd" fill="rgb(84.705882%, 0%, 15.294118%)" fill-opacity="1" d="M 2.5 3.386719 C 3.804688 1.910156 5.535156 0.820312 7.5 0.316406 L 7.5 19.683594 C 5.535156 19.179688 3.804688 18.089844 2.5 16.613281 Z M 2.5 3.386719 "/>
<path fill-rule="evenodd" fill="rgb(93.333333%, 93.333333%, 93.333333%)" fill-opacity="1" d="M 12.09375 4.113281 L 12.523438 3.5625 L 12.5 4.261719 L 13.160156 4.496094 L 12.488281 4.691406 L 12.464844 5.390625 L 12.074219 4.8125 L 11.402344 5.007812 L 11.832031 4.457031 L 11.4375 3.878906 Z M 14.003906 3.9375 C 15.191406 4.679688 15.742188 6.171875 15.25 7.542969 C 14.757812 8.914062 13.382812 9.714844 11.996094 9.535156 C 12.179688 9.648438 12.375 9.746094 12.585938 9.820312 C 14.167969 10.386719 15.910156 9.566406 16.480469 7.984375 C 17.046875 6.402344 16.222656 4.660156 14.640625 4.089844 C 14.429688 4.015625 14.21875 3.964844 14.003906 3.9375 Z M 13.675781 5.363281 L 13.25 5.914062 L 12.589844 5.679688 L 12.984375 6.253906 L 12.558594 6.808594 L 13.226562 6.613281 L 13.621094 7.1875 L 13.640625 6.492188 L 14.3125 6.296875 L 13.65625 6.058594 Z M 10.058594 4.769531 L 10.488281 4.21875 L 10.464844 4.914062 L 11.121094 5.152344 L 10.453125 5.347656 L 10.429688 6.046875 L 10.039062 5.46875 L 9.367188 5.664062 L 9.796875 5.109375 L 9.402344 4.535156 Z M 10.441406 6.277344 L 10.011719 6.832031 L 9.355469 6.59375 L 9.75 7.171875 L 9.320312 7.726562 L 9.992188 7.53125 L 10.382812 8.105469 L 10.40625 7.410156 L 11.078125 7.214844 L 10.417969 6.976562 Z M 11.972656 7.535156 L 12.402344 6.984375 L 12.378906 7.679688 L 13.039062 7.917969 L 12.367188 8.113281 L 12.347656 8.8125 L 11.953125 8.234375 L 11.28125 8.429688 L 11.710938 7.875 L 11.316406 7.300781 Z M 11.972656 7.535156 "/>
<path fill-rule="nonzero" fill="rgb(93.333333%, 93.333333%, 93.333333%)" fill-opacity="1" d="M 4.382812 4.578125 L 3.507812 3.929688 L 3.507812 3.007812 L 4.382812 2.355469 L 5.617188 2.355469 L 6.492188 3.007812 L 6.492188 3.929688 L 5.617188 4.578125 Z M 4.382812 4.578125 "/>
<path fill-rule="nonzero" fill="rgb(100%, 59.607843%, 6.666667%)" fill-opacity="1" d="M 5 2.359375 L 4.382812 2.359375 L 3.507812 3.007812 L 3.507812 3.457031 L 5 3.457031 Z M 5 2.359375 "/>
<path fill-rule="nonzero" fill="rgb(100%, 59.607843%, 6.666667%)" fill-opacity="1" d="M 5 4.578125 L 5.617188 4.578125 L 6.492188 3.929688 L 6.492188 3.457031 L 5 3.457031 Z M 5 4.578125 "/>
<path fill-rule="nonzero" fill="rgb(28.627451%, 43.137255%, 17.647059%)" fill-opacity="1" d="M 6.523438 6.359375 L 6.140625 6.359375 L 6.140625 5.976562 L 5.472656 5.976562 L 5 5.503906 L 4.527344 5.976562 L 3.859375 5.976562 L 3.859375 6.359375 L 3.476562 6.359375 L 3.476562 7.121094 L 3.859375 7.121094 L 3.859375 7.5 L 4.527344 7.5 L 5 7.972656 L 5.472656 7.5 L 6.140625 7.5 L 6.140625 7.121094 L 6.523438 7.121094 Z M 6.523438 6.359375 "/>
<path fill-rule="nonzero" fill="rgb(84.705882%, 0%, 15.294118%)" fill-opacity="1" d="M 5 7.175781 C 5.238281 7.175781 5.433594 6.980469 5.433594 6.738281 C 5.433594 6.5 5.238281 6.304688 5 6.304688 C 4.761719 6.304688 4.566406 6.5 4.566406 6.738281 C 4.566406 6.980469 4.761719 7.175781 5 7.175781 Z M 5 7.175781 "/>
<path fill-rule="nonzero" fill="rgb(28.627451%, 43.137255%, 17.647059%)" fill-opacity="1" d="M 4.382812 11.109375 L 3.507812 10.460938 L 3.507812 9.539062 L 4.382812 8.890625 L 5.617188 8.890625 L 6.492188 9.539062 L 6.492188 10.460938 L 5.617188 11.109375 Z M 4.382812 11.109375 "/>
<path fill-rule="nonzero" fill="rgb(84.705882%, 0%, 15.294118%)" fill-opacity="1" d="M 4.566406 9.566406 L 5.433594 9.566406 L 5.433594 10.433594 L 4.566406 10.433594 Z M 4.566406 9.566406 "/>
<path fill-rule="nonzero" fill="rgb(28.627451%, 43.137255%, 17.647059%)" fill-opacity="1" d="M 6.523438 12.878906 L 6.140625 12.878906 L 6.140625 12.5 L 5.472656 12.5 L 5 12.027344 L 4.527344 12.5 L 3.859375 12.5 L 3.859375 12.878906 L 3.476562 12.878906 L 3.476562 13.640625 L 3.859375 13.640625 L 3.859375 14.023438 L 4.527344 14.023438 L 5 14.496094 L 5.472656 14.023438 L 6.140625 14.023438 L 6.140625 13.640625 L 6.523438 13.640625 Z M 6.523438 12.878906 "/>
<path fill-rule="nonzero" fill="rgb(84.705882%, 0%, 15.294118%)" fill-opacity="1" d="M 5 13.695312 C 5.238281 13.695312 5.433594 13.5 5.433594 13.261719 C 5.433594 13.019531 5.238281 12.828125 5 12.828125 C 4.761719 12.828125 4.566406 13.019531 4.566406 13.261719 C 4.566406 13.5 4.761719 13.695312 5 13.695312 Z M 5 13.695312 "/>
<path fill-rule="nonzero" fill="rgb(93.333333%, 93.333333%, 93.333333%)" fill-opacity="1" d="M 4.382812 17.632812 L 3.507812 16.980469 L 3.507812 16.0625 L 4.382812 15.410156 L 5.617188 15.410156 L 6.492188 16.0625 L 6.492188 16.980469 L 5.617188 17.632812 Z M 4.382812 17.632812 "/>
<path fill-rule="nonzero" fill="rgb(100%, 59.607843%, 6.666667%)" fill-opacity="1" d="M 5 15.410156 L 4.382812 15.410156 L 3.507812 16.0625 L 3.507812 16.511719 L 5 16.511719 Z M 5 15.410156 "/>
<path fill-rule="nonzero" fill="rgb(100%, 59.607843%, 6.666667%)" fill-opacity="1" d="M 5 17.632812 L 5.617188 17.632812 L 6.492188 16.980469 L 6.492188 16.511719 L 5 16.511719 Z M 5 17.632812 "/>
</svg>
