<?xml version="1.0" encoding="UTF-8"?>
<svg xmlns="http://www.w3.org/2000/svg" xmlns:xlink="http://www.w3.org/1999/xlink" width="60" height="60" viewBox="0 0 60 60">
<path fill-rule="nonzero" fill="rgb(93.333333%, 93.333333%, 93.333333%)" fill-opacity="1" d="M 55.984375 45 C 58.539062 40.585938 60 35.464844 60 30 C 60 24.535156 58.539062 19.414062 55.984375 15 L 4.015625 15 C 1.460938 19.414062 0 24.535156 0 30 C 0 35.464844 1.460938 40.585938 4.015625 45 Z M 55.984375 45 "/>
<path fill-rule="nonzero" fill="rgb(42.745098%, 64.705882%, 26.666667%)" fill-opacity="1" d="M 29.988281 60 C 18.132812 59.996094 7.882812 53.113281 3.015625 43.125 L 56.984375 43.125 C 52.117188 53.113281 41.867188 59.996094 30.007812 60 Z M 29.988281 60 "/>
<path fill-rule="nonzero" fill="rgb(100%, 59.607843%, 6.666667%)" fill-opacity="1" d="M 30 0 C 18.136719 0 7.882812 6.882812 3.015625 16.875 L 56.984375 16.875 C 52.117188 6.882812 41.863281 0 30 0 Z M 30 0 "/>
<path fill-rule="nonzero" fill="rgb(100%, 59.607843%, 6.666667%)" fill-opacity="1" d="M 30 40.3125 C 35.695312 40.3125 40.3125 35.695312 40.3125 30 C 40.3125 24.304688 35.695312 19.6875 30 19.6875 C 24.304688 19.6875 19.6875 24.304688 19.6875 30 C 19.6875 35.695312 24.304688 40.3125 30 40.3125 Z M 30 40.3125 "/>
</svg>
