<?xml version="1.0" encoding="UTF-8"?>
<svg xmlns="http://www.w3.org/2000/svg" xmlns:xlink="http://www.w3.org/1999/xlink" width="40" height="40" viewBox="0 0 40 40">
<path fill-rule="nonzero" fill="rgb(93.333333%, 93.333333%, 93.333333%)" fill-opacity="1" d="M 40 20 C 40 31.046875 31.046875 40 20 40 C 8.953125 40 0 31.046875 0 20 L 20 0 C 31.046875 0 40 8.953125 40 20 Z M 40 20 "/>
<path fill-rule="nonzero" fill="rgb(0%, 13.333333%, 40%)" fill-opacity="1" d="M 15.59375 4.40625 L 17.421875 2.578125 C 17.949219 2.488281 18.261719 2.199219 18.578125 1.914062 C 18.957031 1.566406 19.335938 1.21875 20.097656 1.21875 C 20.859375 1.21875 21.238281 1.566406 21.621094 1.914062 C 22 2.261719 22.378906 2.609375 23.140625 2.609375 C 23.902344 2.609375 24.28125 2.261719 24.664062 1.914062 C 25.042969 1.566406 25.425781 1.21875 26.183594 1.21875 C 26.945312 1.21875 27.324219 1.566406 27.707031 1.914062 C 28.085938 2.261719 28.46875 2.609375 29.226562 2.609375 C 29.433594 2.609375 29.609375 2.585938 29.765625 2.539062 C 30.417969 2.90625 31.050781 3.308594 31.65625 3.746094 C 31.273438 3.871094 31.011719 4.109375 30.75 4.347656 C 30.371094 4.695312 29.988281 5.042969 29.226562 5.042969 C 28.46875 5.042969 28.085938 4.695312 27.707031 4.347656 C 27.324219 4 26.945312 3.652344 26.183594 3.652344 C 25.425781 3.652344 25.042969 4 24.664062 4.347656 C 24.28125 4.695312 23.902344 5.042969 23.140625 5.042969 C 22.378906 5.042969 22 4.695312 21.621094 4.347656 C 21.238281 4 20.859375 3.652344 20.097656 3.652344 C 19.335938 3.652344 18.957031 4 18.578125 4.347656 C 18.195312 4.695312 17.816406 5.042969 17.054688 5.042969 C 16.335938 5.042969 15.957031 4.734375 15.59375 4.40625 Z M 15.59375 4.40625 "/>
<path fill-rule="nonzero" fill="rgb(0%, 13.333333%, 40%)" fill-opacity="1" d="M 10.222656 9.777344 L 13.90625 6.09375 C 13.941406 6.09375 13.976562 6.089844 14.011719 6.089844 C 14.769531 6.089844 15.152344 6.4375 15.53125 6.789062 C 15.914062 7.136719 16.292969 7.484375 17.054688 7.484375 C 17.816406 7.484375 18.195312 7.136719 18.574219 6.789062 C 18.957031 6.4375 19.335938 6.089844 20.097656 6.089844 C 20.859375 6.089844 21.238281 6.4375 21.621094 6.789062 C 22 7.136719 22.378906 7.484375 23.140625 7.484375 C 23.902344 7.484375 24.28125 7.136719 24.664062 6.789062 C 25.042969 6.4375 25.421875 6.089844 26.183594 6.089844 C 26.945312 6.089844 27.324219 6.4375 27.707031 6.789062 C 28.085938 7.136719 28.46875 7.484375 29.226562 7.484375 C 29.988281 7.484375 30.371094 7.136719 30.75 6.789062 C 31.128906 6.4375 31.511719 6.089844 32.273438 6.089844 C 33.03125 6.089844 33.414062 6.4375 33.792969 6.789062 C 34.171875 7.136719 34.554688 7.484375 35.316406 7.484375 C 35.410156 7.484375 35.5 7.476562 35.585938 7.46875 C 36.035156 8.023438 36.457031 8.609375 36.84375 9.214844 L 36.835938 9.222656 C 36.457031 9.570312 36.074219 9.917969 35.316406 9.917969 C 34.554688 9.917969 34.171875 9.570312 33.792969 9.222656 C 33.414062 8.875 33.03125 8.527344 32.273438 8.527344 C 31.511719 8.527344 31.128906 8.875 30.75 9.222656 C 30.371094 9.570312 29.988281 9.917969 29.226562 9.917969 C 28.46875 9.917969 28.085938 9.570312 27.707031 9.222656 C 27.324219 8.875 26.945312 8.527344 26.183594 8.527344 C 25.421875 8.527344 25.042969 8.875 24.664062 9.222656 C 24.28125 9.570312 23.902344 9.917969 23.140625 9.917969 C 22.378906 9.917969 22 9.570312 21.621094 9.222656 C 21.238281 8.875 20.859375 8.527344 20.097656 8.527344 C 19.335938 8.527344 18.957031 8.875 18.574219 9.222656 C 18.195312 9.570312 17.816406 9.917969 17.054688 9.917969 C 16.292969 9.917969 15.914062 9.570312 15.53125 9.222656 C 15.152344 8.875 14.769531 8.527344 14.011719 8.527344 C 13.25 8.527344 12.867188 8.875 12.488281 9.222656 C 12.109375 9.570312 11.726562 9.917969 10.96875 9.917969 C 10.667969 9.917969 10.425781 9.863281 10.222656 9.777344 Z M 10.222656 9.777344 "/>
<path fill-rule="nonzero" fill="rgb(0%, 13.333333%, 40%)" fill-opacity="1" d="M 5.238281 14.761719 L 8.820312 11.179688 C 9.0625 11.308594 9.253906 11.484375 9.445312 11.660156 C 9.824219 12.007812 10.207031 12.355469 10.96875 12.355469 C 11.726562 12.355469 12.109375 12.007812 12.488281 11.660156 C 12.871094 11.3125 13.25 10.964844 14.011719 10.964844 C 14.769531 10.964844 15.152344 11.3125 15.53125 11.660156 C 15.914062 12.007812 16.292969 12.355469 17.054688 12.355469 C 17.816406 12.355469 18.195312 12.007812 18.574219 11.660156 C 18.957031 11.3125 19.335938 10.964844 20.097656 10.964844 C 20.859375 10.964844 21.238281 11.3125 21.621094 11.660156 C 22 12.007812 22.378906 12.355469 23.140625 12.355469 C 23.902344 12.355469 24.28125 12.007812 24.664062 11.660156 C 25.042969 11.3125 25.421875 10.964844 26.183594 10.964844 C 26.945312 10.964844 27.324219 11.3125 27.707031 11.660156 C 28.085938 12.007812 28.46875 12.355469 29.226562 12.355469 C 29.988281 12.355469 30.371094 12.007812 30.75 11.660156 C 31.128906 11.3125 31.511719 10.964844 32.273438 10.964844 C 33.03125 10.964844 33.414062 11.3125 33.792969 11.660156 C 34.171875 12.007812 34.554688 12.355469 35.316406 12.355469 C 36.074219 12.355469 36.457031 12.007812 36.835938 11.660156 C 37.125 11.394531 37.417969 11.128906 37.875 11.019531 C 38.273438 11.808594 38.617188 12.628906 38.910156 13.472656 C 38.75 13.425781 38.570312 13.398438 38.359375 13.398438 C 37.597656 13.398438 37.21875 13.746094 36.835938 14.09375 C 36.457031 14.441406 36.074219 14.789062 35.316406 14.789062 C 34.554688 14.789062 34.171875 14.441406 33.792969 14.09375 C 33.414062 13.746094 33.03125 13.398438 32.273438 13.398438 C 31.511719 13.398438 31.128906 13.746094 30.75 14.09375 C 30.371094 14.441406 29.988281 14.789062 29.226562 14.789062 C 28.46875 14.789062 28.085938 14.441406 27.707031 14.09375 C 27.324219 13.746094 26.945312 13.398438 26.183594 13.398438 C 25.421875 13.398438 25.042969 13.746094 24.664062 14.09375 C 24.28125 14.441406 23.902344 14.789062 23.140625 14.789062 C 22.378906 14.789062 22 14.441406 21.621094 14.09375 C 21.238281 13.746094 20.859375 13.398438 20.097656 13.398438 C 19.335938 13.398438 18.957031 13.746094 18.574219 14.09375 C 18.195312 14.441406 17.816406 14.789062 17.054688 14.789062 C 16.292969 14.789062 15.914062 14.441406 15.53125 14.09375 C 15.152344 13.746094 14.769531 13.398438 14.011719 13.398438 C 13.25 13.398438 12.871094 13.746094 12.488281 14.09375 C 12.109375 14.441406 11.726562 14.789062 10.96875 14.789062 C 10.207031 14.789062 9.824219 14.441406 9.445312 14.09375 C 9.066406 13.746094 8.683594 13.398438 7.925781 13.398438 C 7.164062 13.398438 6.78125 13.746094 6.402344 14.09375 C 6.085938 14.382812 5.769531 14.671875 5.238281 14.761719 Z M 5.238281 14.761719 "/>
<path fill-rule="nonzero" fill="rgb(0%, 13.333333%, 40%)" fill-opacity="1" d="M 1.722656 18.277344 L 3.414062 16.585938 C 3.777344 16.914062 4.15625 17.230469 4.878906 17.230469 C 5.640625 17.230469 6.023438 16.882812 6.402344 16.535156 C 6.78125 16.1875 7.164062 15.839844 7.925781 15.839844 C 8.683594 15.839844 9.066406 16.1875 9.445312 16.535156 C 9.824219 16.882812 10.207031 17.230469 10.96875 17.230469 C 11.726562 17.230469 12.109375 16.882812 12.488281 16.535156 C 12.871094 16.1875 13.25 15.839844 14.011719 15.839844 C 14.769531 15.839844 15.152344 16.1875 15.53125 16.535156 C 15.914062 16.882812 16.292969 17.230469 17.054688 17.230469 C 17.816406 17.230469 18.195312 16.882812 18.574219 16.535156 C 18.957031 16.1875 19.335938 15.839844 20.097656 15.839844 C 20.859375 15.839844 21.238281 16.1875 21.621094 16.535156 C 22 16.882812 22.378906 17.230469 23.140625 17.230469 C 23.902344 17.230469 24.28125 16.882812 24.664062 16.535156 C 25.042969 16.1875 25.421875 15.839844 26.183594 15.839844 C 26.945312 15.839844 27.324219 16.1875 27.707031 16.535156 C 28.085938 16.882812 28.46875 17.230469 29.226562 17.230469 C 29.988281 17.230469 30.371094 16.882812 30.75 16.535156 C 31.128906 16.1875 31.511719 15.839844 32.273438 15.839844 C 33.03125 15.839844 33.414062 16.1875 33.792969 16.535156 C 34.171875 16.882812 34.554688 17.230469 35.316406 17.230469 C 36.074219 17.230469 36.457031 16.882812 36.835938 16.535156 C 37.21875 16.1875 37.597656 15.839844 38.359375 15.839844 C 38.976562 15.839844 39.347656 16.070312 39.667969 16.34375 C 39.832031 17.230469 39.933594 18.136719 39.976562 19.058594 C 39.945312 19.03125 39.914062 19 39.878906 18.96875 C 39.5 18.621094 39.117188 18.273438 38.359375 18.273438 C 37.597656 18.273438 37.21875 18.621094 36.835938 18.96875 C 36.457031 19.316406 36.074219 19.664062 35.316406 19.664062 C 34.554688 19.664062 34.171875 19.316406 33.792969 18.96875 C 33.414062 18.621094 33.03125 18.273438 32.273438 18.273438 C 31.511719 18.273438 31.128906 18.621094 30.75 18.96875 C 30.371094 19.316406 29.988281 19.664062 29.226562 19.664062 C 28.46875 19.664062 28.085938 19.316406 27.707031 18.96875 C 27.324219 18.621094 26.945312 18.273438 26.183594 18.273438 C 25.421875 18.273438 25.042969 18.621094 24.664062 18.96875 C 24.28125 19.316406 23.902344 19.664062 23.140625 19.664062 C 22.378906 19.664062 22 19.316406 21.621094 18.96875 C 21.238281 18.621094 20.859375 18.273438 20.097656 18.273438 C 19.335938 18.273438 18.957031 18.621094 18.574219 18.96875 C 18.195312 19.316406 17.816406 19.664062 17.054688 19.664062 C 16.292969 19.664062 15.914062 19.316406 15.53125 18.96875 C 15.152344 18.621094 14.769531 18.273438 14.011719 18.273438 C 13.25 18.273438 12.871094 18.621094 12.488281 18.96875 C 12.109375 19.316406 11.726562 19.664062 10.96875 19.664062 C 10.207031 19.664062 9.824219 19.316406 9.445312 18.96875 C 9.066406 18.621094 8.683594 18.273438 7.925781 18.273438 C 7.164062 18.273438 6.78125 18.621094 6.402344 18.96875 C 6.023438 19.316406 5.640625 19.664062 4.878906 19.664062 C 4.121094 19.664062 3.738281 19.316406 3.359375 18.96875 C 2.976562 18.621094 2.597656 18.273438 1.835938 18.273438 C 1.796875 18.273438 1.761719 18.273438 1.722656 18.277344 Z M 1.722656 18.277344 "/>
<path fill-rule="nonzero" fill="rgb(0%, 13.333333%, 40%)" fill-opacity="1" d="M 39.667969 23.652344 C 39.800781 22.9375 39.894531 22.210938 39.945312 21.46875 C 39.925781 21.449219 39.902344 21.429688 39.878906 21.410156 C 39.5 21.0625 39.117188 20.714844 38.359375 20.714844 C 37.597656 20.714844 37.21875 21.0625 36.835938 21.410156 C 36.457031 21.757812 36.074219 22.105469 35.316406 22.105469 C 34.554688 22.105469 34.171875 21.757812 33.792969 21.410156 C 33.414062 21.0625 33.03125 20.714844 32.273438 20.714844 C 31.511719 20.714844 31.128906 21.0625 30.75 21.410156 C 30.371094 21.757812 29.988281 22.105469 29.226562 22.105469 C 28.46875 22.105469 28.085938 21.757812 27.707031 21.410156 C 27.324219 21.0625 26.945312 20.714844 26.183594 20.714844 C 25.421875 20.714844 25.042969 21.0625 24.664062 21.410156 C 24.28125 21.757812 23.902344 22.105469 23.140625 22.105469 C 22.378906 22.105469 22 21.757812 21.621094 21.410156 C 21.238281 21.0625 20.859375 20.714844 20.097656 20.714844 C 19.335938 20.714844 18.957031 21.0625 18.574219 21.410156 C 18.195312 21.757812 17.816406 22.105469 17.054688 22.105469 C 16.292969 22.105469 15.914062 21.757812 15.53125 21.410156 C 15.152344 21.0625 14.769531 20.714844 14.011719 20.714844 C 13.25 20.714844 12.871094 21.0625 12.488281 21.410156 C 12.109375 21.757812 11.726562 22.105469 10.96875 22.105469 C 10.207031 22.105469 9.824219 21.757812 9.445312 21.410156 C 9.066406 21.0625 8.683594 20.714844 7.925781 20.714844 C 7.164062 20.714844 6.78125 21.0625 6.402344 21.410156 C 6.023438 21.757812 5.640625 22.105469 4.878906 22.105469 C 4.121094 22.105469 3.738281 21.757812 3.359375 21.410156 C 2.976562 21.0625 2.597656 20.714844 1.835938 20.714844 C 1.074219 20.714844 0.695312 21.0625 0.316406 21.410156 C 0.234375 21.484375 0.152344 21.558594 0.0664062 21.628906 C 0.125 22.367188 0.222656 23.089844 0.359375 23.800781 C 0.726562 23.46875 1.105469 23.148438 1.835938 23.148438 C 2.597656 23.148438 2.976562 23.496094 3.359375 23.84375 C 3.738281 24.191406 4.121094 24.539062 4.878906 24.539062 C 5.640625 24.539062 6.023438 24.191406 6.402344 23.84375 C 6.78125 23.496094 7.164062 23.148438 7.925781 23.148438 C 8.683594 23.148438 9.066406 23.496094 9.445312 23.84375 C 9.824219 24.191406 10.207031 24.539062 10.96875 24.539062 C 11.726562 24.539062 12.109375 24.191406 12.488281 23.84375 C 12.871094 23.496094 13.25 23.148438 14.011719 23.148438 C 14.769531 23.148438 15.152344 23.496094 15.53125 23.84375 C 15.914062 24.191406 16.292969 24.539062 17.054688 24.539062 C 17.816406 24.539062 18.195312 24.191406 18.574219 23.84375 C 18.957031 23.496094 19.335938 23.148438 20.097656 23.148438 C 20.859375 23.148438 21.238281 23.496094 21.621094 23.84375 C 22 24.191406 22.378906 24.539062 23.140625 24.539062 C 23.902344 24.539062 24.28125 24.191406 24.664062 23.84375 C 25.042969 23.496094 25.421875 23.148438 26.183594 23.148438 C 26.945312 23.148438 27.324219 23.496094 27.707031 23.84375 C 28.085938 24.191406 28.46875 24.539062 29.226562 24.539062 C 29.988281 24.539062 30.371094 24.191406 30.75 23.84375 C 31.128906 23.496094 31.511719 23.148438 32.273438 23.148438 C 33.03125 23.148438 33.414062 23.496094 33.792969 23.84375 C 34.175781 24.191406 34.554688 24.539062 35.316406 24.539062 C 36.074219 24.539062 36.457031 24.191406 36.835938 23.84375 C 37.21875 23.496094 37.597656 23.148438 38.359375 23.148438 C 38.980469 23.148438 39.347656 23.378906 39.667969 23.652344 Z M 39.667969 23.652344 "/>
<path fill-rule="nonzero" fill="rgb(0%, 13.333333%, 40%)" fill-opacity="1" d="M 38.359375 25.585938 C 38.6875 25.585938 38.945312 25.652344 39.160156 25.753906 C 38.925781 26.53125 38.648438 27.289062 38.328125 28.023438 C 37.585938 28.03125 37.210938 28.375 36.835938 28.71875 C 36.457031 29.066406 36.078125 29.414062 35.316406 29.414062 C 34.554688 29.414062 34.175781 29.066406 33.792969 28.71875 C 33.414062 28.371094 33.03125 28.023438 32.273438 28.023438 C 31.511719 28.023438 31.128906 28.371094 30.75 28.71875 C 30.371094 29.066406 29.988281 29.414062 29.226562 29.414062 C 28.46875 29.414062 28.085938 29.066406 27.707031 28.71875 C 27.324219 28.371094 26.945312 28.023438 26.183594 28.023438 C 25.425781 28.023438 25.042969 28.371094 24.664062 28.71875 C 24.28125 29.066406 23.902344 29.414062 23.140625 29.414062 C 22.378906 29.414062 22 29.066406 21.621094 28.71875 C 21.238281 28.371094 20.859375 28.023438 20.097656 28.023438 C 19.335938 28.023438 18.957031 28.371094 18.578125 28.71875 C 18.195312 29.066406 17.816406 29.414062 17.054688 29.414062 C 16.292969 29.414062 15.914062 29.066406 15.53125 28.71875 C 15.152344 28.371094 14.773438 28.023438 14.011719 28.023438 C 13.25 28.023438 12.871094 28.371094 12.488281 28.71875 C 12.109375 29.066406 11.726562 29.414062 10.96875 29.414062 C 10.207031 29.414062 9.828125 29.066406 9.445312 28.71875 C 9.066406 28.371094 8.683594 28.023438 7.925781 28.023438 C 7.164062 28.023438 6.78125 28.371094 6.402344 28.71875 C 6.023438 29.066406 5.640625 29.414062 4.878906 29.414062 C 4.121094 29.414062 3.738281 29.066406 3.359375 28.71875 C 2.976562 28.371094 2.597656 28.023438 1.835938 28.023438 C 1.78125 28.023438 1.726562 28.023438 1.675781 28.027344 C 1.367188 27.320312 1.09375 26.589844 0.867188 25.84375 C 1.117188 25.691406 1.421875 25.585938 1.835938 25.585938 C 2.597656 25.585938 2.976562 25.933594 3.359375 26.28125 C 3.738281 26.628906 4.121094 26.976562 4.878906 26.976562 C 5.640625 26.976562 6.023438 26.628906 6.402344 26.28125 C 6.78125 25.933594 7.164062 25.585938 7.925781 25.585938 C 8.683594 25.585938 9.066406 25.933594 9.445312 26.28125 C 9.824219 26.628906 10.207031 26.976562 10.96875 26.976562 C 11.726562 26.976562 12.109375 26.628906 12.488281 26.28125 C 12.871094 25.933594 13.25 25.585938 14.011719 25.585938 C 14.773438 25.585938 15.152344 25.933594 15.53125 26.28125 C 15.914062 26.628906 16.292969 26.976562 17.054688 26.976562 C 17.816406 26.976562 18.195312 26.628906 18.578125 26.28125 C 18.957031 25.933594 19.335938 25.585938 20.097656 25.585938 C 20.859375 25.585938 21.238281 25.933594 21.621094 26.28125 C 22 26.628906 22.378906 26.976562 23.140625 26.976562 C 23.902344 26.976562 24.28125 26.628906 24.664062 26.28125 C 25.042969 25.933594 25.421875 25.585938 26.183594 25.585938 C 26.945312 25.585938 27.324219 25.933594 27.707031 26.28125 C 28.085938 26.628906 28.46875 26.976562 29.226562 26.976562 C 29.988281 26.976562 30.371094 26.628906 30.75 26.28125 C 31.128906 25.933594 31.511719 25.585938 32.273438 25.585938 C 33.03125 25.585938 33.414062 25.933594 33.792969 26.28125 C 34.175781 26.628906 34.554688 26.976562 35.316406 26.976562 C 36.074219 26.976562 36.457031 26.628906 36.835938 26.28125 C 37.21875 25.933594 37.597656 25.585938 38.359375 25.585938 Z M 38.359375 25.585938 "/>
<path fill-rule="nonzero" fill="rgb(0%, 13.333333%, 40%)" fill-opacity="1" d="M 36.304688 31.582031 C 36.050781 31.742188 35.742188 31.851562 35.316406 31.851562 C 34.554688 31.851562 34.171875 31.503906 33.792969 31.15625 C 33.414062 30.808594 33.03125 30.460938 32.273438 30.460938 C 31.511719 30.460938 31.128906 30.808594 30.75 31.15625 C 30.371094 31.503906 29.988281 31.851562 29.226562 31.851562 C 28.46875 31.851562 28.085938 31.503906 27.707031 31.15625 C 27.324219 30.808594 26.945312 30.460938 26.183594 30.460938 C 25.421875 30.460938 25.042969 30.808594 24.664062 31.15625 C 24.28125 31.503906 23.902344 31.851562 23.140625 31.851562 C 22.378906 31.851562 22 31.503906 21.621094 31.15625 C 21.238281 30.808594 20.859375 30.460938 20.097656 30.460938 C 19.335938 30.460938 18.957031 30.808594 18.574219 31.15625 C 18.195312 31.503906 17.816406 31.851562 17.054688 31.851562 C 16.292969 31.851562 15.914062 31.503906 15.53125 31.15625 C 15.152344 30.808594 14.769531 30.460938 14.011719 30.460938 C 13.25 30.460938 12.867188 30.808594 12.488281 31.15625 C 12.109375 31.503906 11.726562 31.851562 10.96875 31.851562 C 10.207031 31.851562 9.824219 31.503906 9.445312 31.15625 C 9.066406 30.808594 8.683594 30.460938 7.921875 30.460938 C 7.164062 30.460938 6.78125 30.808594 6.402344 31.15625 C 6.023438 31.503906 5.640625 31.851562 4.878906 31.851562 C 4.1875 31.851562 3.8125 31.5625 3.460938 31.25 C 4.148438 32.257812 4.929688 33.203125 5.785156 34.070312 C 6.023438 33.9375 6.210938 33.765625 6.402344 33.589844 C 6.78125 33.242188 7.164062 32.894531 7.921875 32.894531 C 8.683594 32.894531 9.066406 33.242188 9.445312 33.589844 C 9.824219 33.9375 10.207031 34.285156 10.96875 34.285156 C 11.726562 34.285156 12.109375 33.9375 12.488281 33.589844 C 12.867188 33.242188 13.25 32.894531 14.011719 32.894531 C 14.769531 32.894531 15.152344 33.242188 15.53125 33.589844 C 15.914062 33.9375 16.292969 34.285156 17.054688 34.285156 C 17.816406 34.285156 18.195312 33.9375 18.574219 33.589844 C 18.957031 33.242188 19.335938 32.894531 20.097656 32.894531 C 20.859375 32.894531 21.238281 33.242188 21.621094 33.589844 C 22 33.9375 22.378906 34.285156 23.140625 34.285156 C 23.902344 34.285156 24.28125 33.9375 24.664062 33.589844 C 25.042969 33.242188 25.421875 32.894531 26.183594 32.894531 C 26.945312 32.894531 27.324219 33.242188 27.707031 33.589844 C 28.085938 33.9375 28.46875 34.285156 29.226562 34.285156 C 29.988281 34.285156 30.371094 33.9375 30.75 33.589844 C 31.128906 33.242188 31.511719 32.894531 32.273438 32.894531 C 33.03125 32.894531 33.414062 33.242188 33.792969 33.589844 C 33.949219 33.734375 34.105469 33.875 34.289062 33.996094 C 35.019531 33.246094 35.695312 32.4375 36.304688 31.582031 Z M 36.304688 31.582031 "/>
<path fill-rule="nonzero" fill="rgb(0%, 13.333333%, 40%)" fill-opacity="1" d="M 32.273438 35.335938 C 32.460938 35.335938 32.625 35.355469 32.769531 35.390625 C 31.253906 36.652344 29.550781 37.691406 27.703125 38.460938 C 27.324219 38.117188 26.945312 37.769531 26.183594 37.769531 C 25.421875 37.769531 25.042969 38.117188 24.664062 38.464844 C 24.28125 38.8125 23.902344 39.160156 23.140625 39.160156 C 22.378906 39.160156 22 38.8125 21.621094 38.464844 C 21.238281 38.117188 20.859375 37.769531 20.097656 37.769531 C 19.335938 37.769531 18.957031 38.117188 18.574219 38.464844 C 18.195312 38.8125 17.816406 39.160156 17.054688 39.160156 C 16.292969 39.160156 15.914062 38.8125 15.53125 38.464844 C 15.152344 38.117188 14.773438 37.769531 14.011719 37.769531 C 13.25 37.769531 12.871094 38.117188 12.488281 38.464844 L 12.460938 38.488281 C 12.453125 38.5 12.441406 38.507812 12.429688 38.519531 C 10.554688 37.75 8.820312 36.707031 7.28125 35.433594 C 7.464844 35.371094 7.671875 35.335938 7.925781 35.335938 C 8.683594 35.335938 9.066406 35.683594 9.445312 36.03125 C 9.824219 36.378906 10.207031 36.726562 10.96875 36.726562 C 11.726562 36.726562 12.109375 36.378906 12.488281 36.03125 C 12.871094 35.683594 13.25 35.335938 14.011719 35.335938 C 14.773438 35.335938 15.152344 35.683594 15.53125 36.03125 C 15.914062 36.378906 16.292969 36.726562 17.054688 36.726562 C 17.816406 36.726562 18.195312 36.378906 18.578125 36.03125 C 18.957031 35.683594 19.335938 35.335938 20.097656 35.335938 C 20.859375 35.335938 21.238281 35.683594 21.621094 36.03125 C 22 36.378906 22.378906 36.726562 23.140625 36.726562 C 23.902344 36.726562 24.28125 36.378906 24.664062 36.03125 C 25.042969 35.683594 25.421875 35.335938 26.183594 35.335938 C 26.945312 35.335938 27.324219 35.683594 27.707031 36.03125 C 28.085938 36.378906 28.46875 36.726562 29.226562 36.726562 C 29.988281 36.726562 30.371094 36.378906 30.75 36.03125 C 31.128906 35.683594 31.511719 35.335938 32.273438 35.335938 Z M 32.273438 35.335938 "/>
<path fill-rule="nonzero" fill="rgb(0%, 13.333333%, 40%)" fill-opacity="1" d="M 20 0 L 20 20 L 0 20 C 0 8.953125 8.953125 0 20 0 Z M 20 0 "/>
<path fill-rule="nonzero" fill="rgb(93.333333%, 93.333333%, 93.333333%)" fill-opacity="1" d="M 16.996094 20 L 20 20 L 20 16.996094 L 10.992188 7.988281 L 20 7.988281 L 20 0 C 8.953125 0 0 8.953125 0 20 L 7.988281 20 L 7.988281 10.992188 Z M 16.996094 20 "/>
<path fill-rule="nonzero" fill="rgb(84.705882%, 0%, 15.294118%)" fill-opacity="1" d="M 20 5.984375 L 20 1.984375 L 11.308594 1.984375 C 7.246094 3.945312 3.945312 7.246094 1.984375 11.308594 L 1.984375 20 L 5.984375 20 L 5.984375 5.984375 Z M 20 5.984375 "/>
<path fill-rule="nonzero" fill="rgb(84.705882%, 0%, 15.294118%)" fill-opacity="1" d="M 20 18 L 20 20 L 7.988281 7.988281 L 9.992188 7.988281 Z M 20 18 "/>
<path fill-rule="nonzero" fill="rgb(42.745098%, 64.705882%, 26.666667%)" fill-opacity="1" d="M 26.085938 9.78125 L 33.914062 9.78125 L 30 13.695312 Z M 26.085938 9.78125 "/>
<path fill-rule="nonzero" fill="rgb(63.529412%, 0%, 11.372549%)" fill-opacity="1" d="M 29.132812 12.824219 L 30.871094 12.824219 L 30.871094 17.609375 L 29.132812 17.609375 Z M 29.132812 12.824219 "/>
<path fill-rule="nonzero" fill="rgb(63.529412%, 0%, 11.372549%)" fill-opacity="1" d="M 29.132812 25.433594 L 30.871094 25.433594 L 30.871094 30.21875 L 29.132812 30.21875 Z M 29.132812 25.433594 "/>
<path fill-rule="nonzero" fill="rgb(100%, 77.647059%, 20.784314%)" fill-opacity="1" d="M 35.21875 22.828125 C 35.21875 21.386719 34.050781 20.21875 32.609375 20.21875 C 31.941406 20.21875 31.332031 20.46875 30.871094 20.882812 L 30.871094 19.347656 L 31.742188 19.347656 L 31.742188 17.609375 L 30.871094 17.609375 L 30.871094 16.738281 L 29.132812 16.738281 L 29.132812 17.609375 L 28.261719 17.609375 L 28.261719 19.347656 L 29.132812 19.347656 L 29.132812 20.882812 C 28.667969 20.46875 28.058594 20.21875 27.390625 20.21875 C 25.953125 20.21875 24.78125 21.386719 24.78125 22.828125 C 24.78125 23.597656 25.121094 24.292969 25.652344 24.769531 L 25.652344 26.304688 L 34.347656 26.304688 L 34.347656 24.769531 C 34.882812 24.292969 35.21875 23.597656 35.21875 22.828125 Z M 35.21875 22.828125 "/>
<path fill-rule="nonzero" fill="rgb(84.705882%, 0%, 15.294118%)" fill-opacity="1" d="M 32.609375 21.957031 C 32.335938 21.957031 32.144531 22.078125 32.03125 22.179688 L 30.871094 23.21875 L 29.132812 23.21875 L 27.972656 22.179688 C 27.859375 22.078125 27.664062 21.957031 27.390625 21.957031 C 26.914062 21.957031 26.523438 22.347656 26.523438 22.828125 C 26.523438 23.164062 26.703125 23.378906 26.8125 23.476562 L 27.390625 23.992188 L 27.390625 24.566406 L 32.609375 24.566406 L 32.609375 23.992188 L 33.1875 23.476562 C 33.296875 23.378906 33.480469 23.164062 33.480469 22.828125 C 33.480469 22.347656 33.089844 21.957031 32.609375 21.957031 Z M 32.609375 21.957031 "/>
</svg>
