<?xml version="1.0" encoding="UTF-8"?>
<svg xmlns="http://www.w3.org/2000/svg" xmlns:xlink="http://www.w3.org/1999/xlink" width="20" height="20" viewBox="0 0 20 20">
<path fill-rule="nonzero" fill="rgb(93.333333%, 93.333333%, 93.333333%)" fill-opacity="1" d="M 20 10 C 20 15.523438 15.523438 20 10 20 C 4.476562 20 0 15.523438 0 10 L 10 0 C 15.523438 0 20 4.476562 20 10 Z M 20 10 "/>
<path fill-rule="nonzero" fill="rgb(0%, 13.333333%, 40%)" fill-opacity="1" d="M 7.796875 2.203125 L 8.710938 1.289062 C 8.972656 1.242188 9.132812 1.101562 9.289062 0.957031 C 9.476562 0.78125 9.667969 0.609375 10.050781 0.609375 C 10.429688 0.609375 10.621094 0.78125 10.808594 0.957031 C 11 1.128906 11.191406 1.304688 11.570312 1.304688 C 11.949219 1.304688 12.140625 1.128906 12.332031 0.957031 C 12.523438 0.78125 12.710938 0.609375 13.09375 0.609375 C 13.472656 0.609375 13.664062 0.78125 13.851562 0.957031 C 14.042969 1.128906 14.234375 1.304688 14.613281 1.304688 C 14.714844 1.304688 14.804688 1.292969 14.882812 1.269531 C 15.207031 1.453125 15.523438 1.65625 15.828125 1.871094 C 15.636719 1.9375 15.503906 2.054688 15.375 2.175781 C 15.183594 2.347656 14.996094 2.523438 14.613281 2.523438 C 14.234375 2.523438 14.042969 2.347656 13.851562 2.175781 C 13.664062 2 13.472656 1.824219 13.09375 1.824219 C 12.710938 1.824219 12.523438 2 12.332031 2.175781 C 12.140625 2.347656 11.953125 2.523438 11.570312 2.523438 C 11.191406 2.523438 11 2.347656 10.808594 2.175781 C 10.621094 2 10.429688 1.824219 10.050781 1.824219 C 9.667969 1.824219 9.476562 2 9.289062 2.175781 C 9.097656 2.347656 8.90625 2.523438 8.527344 2.523438 C 8.167969 2.523438 7.976562 2.367188 7.796875 2.203125 Z M 7.796875 2.203125 "/>
<path fill-rule="nonzero" fill="rgb(0%, 13.333333%, 40%)" fill-opacity="1" d="M 5.109375 4.890625 L 6.953125 3.046875 C 6.96875 3.046875 6.988281 3.046875 7.003906 3.046875 C 7.386719 3.046875 7.574219 3.21875 7.765625 3.394531 C 7.957031 3.566406 8.148438 3.742188 8.527344 3.742188 C 8.90625 3.742188 9.097656 3.566406 9.289062 3.394531 C 9.476562 3.21875 9.667969 3.046875 10.046875 3.046875 C 10.429688 3.046875 10.621094 3.21875 10.808594 3.394531 C 11 3.566406 11.191406 3.742188 11.570312 3.742188 C 11.949219 3.742188 12.140625 3.566406 12.332031 3.394531 C 12.519531 3.21875 12.710938 3.046875 13.09375 3.046875 C 13.472656 3.046875 13.664062 3.21875 13.851562 3.394531 C 14.042969 3.566406 14.234375 3.742188 14.613281 3.742188 C 14.996094 3.742188 15.183594 3.566406 15.375 3.394531 C 15.566406 3.21875 15.753906 3.046875 16.136719 3.046875 C 16.515625 3.046875 16.707031 3.21875 16.898438 3.394531 C 17.085938 3.566406 17.277344 3.742188 17.65625 3.742188 C 17.707031 3.742188 17.75 3.738281 17.792969 3.734375 C 18.019531 4.011719 18.226562 4.304688 18.421875 4.605469 L 18.417969 4.609375 C 18.226562 4.785156 18.039062 4.957031 17.65625 4.957031 C 17.277344 4.957031 17.085938 4.785156 16.898438 4.609375 C 16.707031 4.4375 16.515625 4.261719 16.136719 4.261719 C 15.753906 4.261719 15.566406 4.4375 15.375 4.609375 C 15.183594 4.785156 14.996094 4.957031 14.613281 4.957031 C 14.234375 4.957031 14.042969 4.785156 13.851562 4.609375 C 13.664062 4.4375 13.472656 4.261719 13.09375 4.261719 C 12.710938 4.261719 12.519531 4.4375 12.332031 4.609375 C 12.140625 4.785156 11.949219 4.957031 11.570312 4.957031 C 11.191406 4.957031 11 4.785156 10.808594 4.609375 C 10.621094 4.4375 10.429688 4.261719 10.046875 4.261719 C 9.667969 4.261719 9.476562 4.4375 9.289062 4.609375 C 9.097656 4.785156 8.90625 4.957031 8.527344 4.957031 C 8.148438 4.957031 7.957031 4.785156 7.765625 4.609375 C 7.574219 4.4375 7.386719 4.261719 7.003906 4.261719 C 6.625 4.261719 6.433594 4.4375 6.246094 4.609375 C 6.054688 4.785156 5.863281 4.957031 5.484375 4.957031 C 5.332031 4.957031 5.214844 4.933594 5.109375 4.890625 Z M 5.109375 4.890625 "/>
<path fill-rule="nonzero" fill="rgb(0%, 13.333333%, 40%)" fill-opacity="1" d="M 2.617188 7.382812 L 4.410156 5.589844 C 4.53125 5.65625 4.625 5.742188 4.722656 5.832031 C 4.914062 6.003906 5.101562 6.179688 5.484375 6.179688 C 5.863281 6.179688 6.054688 6.003906 6.246094 5.832031 C 6.433594 5.65625 6.625 5.484375 7.003906 5.484375 C 7.386719 5.484375 7.574219 5.65625 7.765625 5.832031 C 7.957031 6.003906 8.148438 6.179688 8.527344 6.179688 C 8.90625 6.179688 9.097656 6.003906 9.289062 5.832031 C 9.476562 5.65625 9.667969 5.484375 10.050781 5.484375 C 10.429688 5.484375 10.621094 5.65625 10.808594 5.832031 C 11 6.003906 11.191406 6.179688 11.570312 6.179688 C 11.949219 6.179688 12.140625 6.003906 12.332031 5.832031 C 12.523438 5.65625 12.710938 5.484375 13.09375 5.484375 C 13.472656 5.484375 13.664062 5.65625 13.851562 5.832031 C 14.042969 6.003906 14.234375 6.179688 14.613281 6.179688 C 14.996094 6.179688 15.183594 6.003906 15.375 5.832031 C 15.566406 5.65625 15.753906 5.484375 16.136719 5.484375 C 16.515625 5.484375 16.707031 5.65625 16.898438 5.832031 C 17.085938 6.003906 17.277344 6.179688 17.65625 6.179688 C 18.039062 6.179688 18.226562 6.003906 18.417969 5.832031 C 18.5625 5.699219 18.707031 5.566406 18.9375 5.507812 C 19.136719 5.902344 19.308594 6.3125 19.457031 6.734375 C 19.375 6.714844 19.285156 6.699219 19.179688 6.699219 C 18.796875 6.699219 18.609375 6.875 18.417969 7.046875 C 18.226562 7.222656 18.039062 7.394531 17.65625 7.394531 C 17.277344 7.394531 17.085938 7.222656 16.898438 7.046875 C 16.707031 6.875 16.515625 6.699219 16.136719 6.699219 C 15.753906 6.699219 15.566406 6.875 15.375 7.046875 C 15.183594 7.222656 14.996094 7.394531 14.613281 7.394531 C 14.234375 7.394531 14.042969 7.222656 13.851562 7.046875 C 13.664062 6.875 13.472656 6.699219 13.09375 6.699219 C 12.710938 6.699219 12.523438 6.875 12.332031 7.046875 C 12.140625 7.222656 11.949219 7.394531 11.570312 7.394531 C 11.191406 7.394531 11 7.222656 10.808594 7.046875 C 10.621094 6.875 10.429688 6.699219 10.050781 6.699219 C 9.667969 6.699219 9.476562 6.875 9.289062 7.046875 C 9.097656 7.222656 8.90625 7.394531 8.527344 7.394531 C 8.148438 7.394531 7.957031 7.222656 7.765625 7.046875 C 7.574219 6.875 7.386719 6.699219 7.003906 6.699219 C 6.625 6.699219 6.433594 6.875 6.246094 7.046875 C 6.054688 7.222656 5.863281 7.394531 5.484375 7.394531 C 5.101562 7.394531 4.914062 7.222656 4.722656 7.046875 C 4.53125 6.875 4.34375 6.699219 3.960938 6.699219 C 3.582031 6.699219 3.390625 6.875 3.199219 7.046875 C 3.042969 7.191406 2.886719 7.335938 2.617188 7.382812 Z M 2.617188 7.382812 "/>
<path fill-rule="nonzero" fill="rgb(0%, 13.333333%, 40%)" fill-opacity="1" d="M 0.863281 9.136719 L 1.707031 8.292969 C 1.886719 8.457031 2.078125 8.617188 2.441406 8.617188 C 2.820312 8.617188 3.011719 8.441406 3.199219 8.265625 C 3.390625 8.09375 3.582031 7.917969 3.960938 7.917969 C 4.34375 7.917969 4.53125 8.09375 4.722656 8.265625 C 4.914062 8.441406 5.101562 8.617188 5.484375 8.617188 C 5.863281 8.617188 6.054688 8.441406 6.246094 8.265625 C 6.433594 8.09375 6.625 7.917969 7.003906 7.917969 C 7.386719 7.917969 7.574219 8.09375 7.765625 8.265625 C 7.957031 8.441406 8.148438 8.617188 8.527344 8.617188 C 8.90625 8.617188 9.097656 8.441406 9.289062 8.265625 C 9.476562 8.09375 9.667969 7.917969 10.050781 7.917969 C 10.429688 7.917969 10.621094 8.09375 10.808594 8.265625 C 11 8.441406 11.191406 8.617188 11.570312 8.617188 C 11.949219 8.617188 12.140625 8.441406 12.332031 8.265625 C 12.523438 8.09375 12.710938 7.917969 13.09375 7.917969 C 13.472656 7.917969 13.664062 8.09375 13.851562 8.265625 C 14.042969 8.441406 14.234375 8.617188 14.613281 8.617188 C 14.996094 8.617188 15.183594 8.441406 15.375 8.265625 C 15.566406 8.09375 15.753906 7.917969 16.136719 7.917969 C 16.515625 7.917969 16.707031 8.09375 16.898438 8.265625 C 17.085938 8.441406 17.277344 8.617188 17.65625 8.617188 C 18.039062 8.617188 18.226562 8.441406 18.417969 8.265625 C 18.609375 8.09375 18.796875 7.917969 19.179688 7.917969 C 19.488281 7.917969 19.671875 8.035156 19.832031 8.171875 C 19.914062 8.613281 19.96875 9.066406 19.988281 9.53125 C 19.972656 9.515625 19.957031 9.5 19.941406 9.484375 C 19.75 9.3125 19.558594 9.136719 19.179688 9.136719 C 18.796875 9.136719 18.609375 9.3125 18.417969 9.484375 C 18.226562 9.660156 18.039062 9.832031 17.65625 9.832031 C 17.277344 9.832031 17.085938 9.660156 16.898438 9.484375 C 16.707031 9.3125 16.515625 9.136719 16.136719 9.136719 C 15.753906 9.136719 15.566406 9.3125 15.375 9.484375 C 15.183594 9.660156 14.996094 9.832031 14.613281 9.832031 C 14.234375 9.832031 14.042969 9.660156 13.851562 9.484375 C 13.664062 9.3125 13.472656 9.136719 13.09375 9.136719 C 12.710938 9.136719 12.523438 9.3125 12.332031 9.484375 C 12.140625 9.660156 11.949219 9.832031 11.570312 9.832031 C 11.191406 9.832031 11 9.660156 10.808594 9.484375 C 10.621094 9.3125 10.429688 9.136719 10.050781 9.136719 C 9.667969 9.136719 9.476562 9.3125 9.289062 9.484375 C 9.097656 9.660156 8.90625 9.832031 8.527344 9.832031 C 8.148438 9.832031 7.957031 9.660156 7.765625 9.484375 C 7.574219 9.3125 7.386719 9.136719 7.003906 9.136719 C 6.625 9.136719 6.433594 9.3125 6.246094 9.484375 C 6.054688 9.660156 5.863281 9.832031 5.484375 9.832031 C 5.101562 9.832031 4.914062 9.660156 4.722656 9.484375 C 4.53125 9.3125 4.34375 9.136719 3.960938 9.136719 C 3.582031 9.136719 3.390625 9.3125 3.199219 9.484375 C 3.011719 9.660156 2.820312 9.832031 2.441406 9.832031 C 2.058594 9.832031 1.871094 9.660156 1.679688 9.484375 C 1.488281 9.3125 1.296875 9.136719 0.917969 9.136719 C 0.898438 9.136719 0.878906 9.136719 0.863281 9.136719 Z M 0.863281 9.136719 "/>
<path fill-rule="nonzero" fill="rgb(0%, 13.333333%, 40%)" fill-opacity="1" d="M 19.832031 11.828125 C 19.898438 11.46875 19.945312 11.105469 19.972656 10.734375 C 19.960938 10.726562 19.953125 10.714844 19.941406 10.703125 C 19.75 10.53125 19.558594 10.355469 19.179688 10.355469 C 18.796875 10.355469 18.609375 10.53125 18.417969 10.703125 C 18.226562 10.878906 18.039062 11.050781 17.65625 11.050781 C 17.277344 11.050781 17.085938 10.878906 16.898438 10.703125 C 16.707031 10.53125 16.515625 10.355469 16.136719 10.355469 C 15.753906 10.355469 15.566406 10.53125 15.375 10.703125 C 15.183594 10.878906 14.996094 11.050781 14.613281 11.050781 C 14.234375 11.050781 14.042969 10.878906 13.851562 10.703125 C 13.664062 10.53125 13.472656 10.355469 13.09375 10.355469 C 12.710938 10.355469 12.523438 10.53125 12.332031 10.703125 C 12.140625 10.878906 11.949219 11.050781 11.570312 11.050781 C 11.191406 11.050781 11 10.878906 10.808594 10.703125 C 10.621094 10.53125 10.429688 10.355469 10.050781 10.355469 C 9.667969 10.355469 9.476562 10.53125 9.289062 10.703125 C 9.097656 10.878906 8.90625 11.050781 8.527344 11.050781 C 8.148438 11.050781 7.957031 10.878906 7.765625 10.703125 C 7.574219 10.53125 7.386719 10.355469 7.003906 10.355469 C 6.625 10.355469 6.433594 10.53125 6.246094 10.703125 C 6.054688 10.878906 5.863281 11.050781 5.484375 11.050781 C 5.101562 11.050781 4.914062 10.878906 4.722656 10.703125 C 4.53125 10.53125 4.34375 10.355469 3.960938 10.355469 C 3.582031 10.355469 3.390625 10.53125 3.199219 10.703125 C 3.011719 10.878906 2.820312 11.050781 2.441406 11.050781 C 2.058594 11.050781 1.871094 10.878906 1.679688 10.703125 C 1.488281 10.53125 1.296875 10.355469 0.917969 10.355469 C 0.539062 10.355469 0.347656 10.53125 0.15625 10.703125 C 0.117188 10.742188 0.0742188 10.777344 0.03125 10.816406 C 0.0625 11.183594 0.113281 11.546875 0.179688 11.902344 C 0.363281 11.734375 0.554688 11.574219 0.917969 11.574219 C 1.296875 11.574219 1.488281 11.746094 1.679688 11.921875 C 1.871094 12.09375 2.058594 12.269531 2.441406 12.269531 C 2.820312 12.269531 3.011719 12.09375 3.199219 11.921875 C 3.390625 11.746094 3.582031 11.574219 3.960938 11.574219 C 4.34375 11.574219 4.53125 11.746094 4.722656 11.921875 C 4.914062 12.09375 5.101562 12.269531 5.484375 12.269531 C 5.863281 12.269531 6.054688 12.09375 6.246094 11.921875 C 6.433594 11.746094 6.625 11.574219 7.003906 11.574219 C 7.386719 11.574219 7.574219 11.746094 7.765625 11.921875 C 7.957031 12.09375 8.148438 12.269531 8.527344 12.269531 C 8.90625 12.269531 9.097656 12.09375 9.289062 11.921875 C 9.476562 11.746094 9.667969 11.574219 10.050781 11.574219 C 10.429688 11.574219 10.621094 11.746094 10.808594 11.921875 C 11 12.09375 11.191406 12.269531 11.570312 12.269531 C 11.949219 12.269531 12.140625 12.09375 12.332031 11.921875 C 12.523438 11.746094 12.710938 11.574219 13.09375 11.574219 C 13.472656 11.574219 13.664062 11.746094 13.851562 11.921875 C 14.042969 12.09375 14.234375 12.269531 14.613281 12.269531 C 14.996094 12.269531 15.183594 12.09375 15.375 11.921875 C 15.566406 11.746094 15.753906 11.574219 16.136719 11.574219 C 16.515625 11.574219 16.707031 11.746094 16.898438 11.921875 C 17.085938 12.09375 17.277344 12.269531 17.65625 12.269531 C 18.039062 12.269531 18.226562 12.09375 18.417969 11.921875 C 18.609375 11.746094 18.796875 11.574219 19.179688 11.574219 C 19.488281 11.574219 19.671875 11.691406 19.832031 11.828125 Z M 19.832031 11.828125 "/>
<path fill-rule="nonzero" fill="rgb(0%, 13.333333%, 40%)" fill-opacity="1" d="M 19.179688 12.792969 C 19.34375 12.792969 19.472656 12.824219 19.582031 12.875 C 19.464844 13.265625 19.324219 13.644531 19.164062 14.011719 C 18.792969 14.015625 18.605469 14.1875 18.417969 14.359375 C 18.226562 14.53125 18.039062 14.707031 17.65625 14.707031 C 17.277344 14.707031 17.085938 14.53125 16.898438 14.359375 C 16.707031 14.183594 16.515625 14.011719 16.136719 14.011719 C 15.753906 14.011719 15.566406 14.183594 15.375 14.359375 C 15.183594 14.53125 14.996094 14.707031 14.613281 14.707031 C 14.234375 14.707031 14.042969 14.53125 13.851562 14.359375 C 13.664062 14.183594 13.472656 14.011719 13.09375 14.011719 C 12.710938 14.011719 12.523438 14.183594 12.332031 14.359375 C 12.140625 14.53125 11.949219 14.707031 11.570312 14.707031 C 11.191406 14.707031 11 14.53125 10.808594 14.359375 C 10.621094 14.183594 10.429688 14.011719 10.050781 14.011719 C 9.667969 14.011719 9.476562 14.183594 9.289062 14.359375 C 9.097656 14.53125 8.90625 14.707031 8.527344 14.707031 C 8.148438 14.707031 7.957031 14.53125 7.765625 14.359375 C 7.574219 14.183594 7.386719 14.011719 7.003906 14.011719 C 6.625 14.011719 6.433594 14.183594 6.246094 14.359375 C 6.054688 14.53125 5.863281 14.707031 5.484375 14.707031 C 5.101562 14.707031 4.914062 14.53125 4.722656 14.359375 C 4.53125 14.183594 4.34375 14.011719 3.960938 14.011719 C 3.582031 14.011719 3.390625 14.183594 3.203125 14.359375 C 3.011719 14.53125 2.820312 14.707031 2.441406 14.707031 C 2.058594 14.707031 1.871094 14.53125 1.679688 14.359375 C 1.488281 14.183594 1.300781 14.011719 0.917969 14.011719 C 0.890625 14.011719 0.863281 14.011719 0.839844 14.011719 C 0.683594 13.660156 0.546875 13.296875 0.433594 12.921875 C 0.558594 12.84375 0.710938 12.792969 0.917969 12.792969 C 1.296875 12.792969 1.488281 12.96875 1.679688 13.140625 C 1.871094 13.316406 2.058594 13.488281 2.441406 13.488281 C 2.820312 13.488281 3.011719 13.316406 3.199219 13.140625 C 3.390625 12.96875 3.582031 12.792969 3.960938 12.792969 C 4.34375 12.792969 4.53125 12.96875 4.722656 13.140625 C 4.914062 13.316406 5.101562 13.488281 5.484375 13.488281 C 5.863281 13.488281 6.054688 13.316406 6.246094 13.140625 C 6.433594 12.96875 6.625 12.792969 7.003906 12.792969 C 7.386719 12.792969 7.574219 12.96875 7.765625 13.140625 C 7.957031 13.316406 8.148438 13.488281 8.527344 13.488281 C 8.90625 13.488281 9.097656 13.316406 9.289062 13.140625 C 9.476562 12.96875 9.667969 12.792969 10.050781 12.792969 C 10.429688 12.792969 10.621094 12.96875 10.808594 13.140625 C 11 13.316406 11.191406 13.488281 11.570312 13.488281 C 11.949219 13.488281 12.140625 13.316406 12.332031 13.140625 C 12.523438 12.96875 12.710938 12.792969 13.09375 12.792969 C 13.472656 12.792969 13.664062 12.96875 13.851562 13.140625 C 14.042969 13.316406 14.234375 13.488281 14.613281 13.488281 C 14.996094 13.488281 15.183594 13.316406 15.375 13.140625 C 15.566406 12.96875 15.753906 12.792969 16.136719 12.792969 C 16.515625 12.792969 16.707031 12.96875 16.898438 13.140625 C 17.085938 13.316406 17.277344 13.488281 17.65625 13.488281 C 18.039062 13.488281 18.226562 13.316406 18.417969 13.140625 C 18.609375 12.96875 18.796875 12.792969 19.179688 12.792969 Z M 19.179688 12.792969 "/>
<path fill-rule="nonzero" fill="rgb(0%, 13.333333%, 40%)" fill-opacity="1" d="M 18.152344 15.792969 C 18.027344 15.871094 17.871094 15.925781 17.65625 15.925781 C 17.277344 15.925781 17.085938 15.75 16.898438 15.578125 C 16.707031 15.402344 16.515625 15.230469 16.136719 15.230469 C 15.753906 15.230469 15.566406 15.402344 15.375 15.578125 C 15.183594 15.75 14.996094 15.925781 14.613281 15.925781 C 14.234375 15.925781 14.042969 15.75 13.851562 15.578125 C 13.664062 15.402344 13.472656 15.230469 13.09375 15.230469 C 12.710938 15.230469 12.523438 15.402344 12.332031 15.578125 C 12.140625 15.75 11.949219 15.925781 11.570312 15.925781 C 11.191406 15.925781 11 15.75 10.808594 15.578125 C 10.621094 15.402344 10.429688 15.230469 10.050781 15.230469 C 9.667969 15.230469 9.476562 15.402344 9.289062 15.578125 C 9.097656 15.75 8.90625 15.925781 8.527344 15.925781 C 8.148438 15.925781 7.957031 15.75 7.765625 15.578125 C 7.574219 15.402344 7.386719 15.230469 7.003906 15.230469 C 6.625 15.230469 6.433594 15.402344 6.246094 15.578125 C 6.054688 15.75 5.863281 15.925781 5.484375 15.925781 C 5.101562 15.925781 4.914062 15.75 4.722656 15.578125 C 4.53125 15.402344 4.34375 15.230469 3.960938 15.230469 C 3.582031 15.230469 3.390625 15.402344 3.199219 15.578125 C 3.011719 15.75 2.820312 15.925781 2.441406 15.925781 C 2.09375 15.925781 1.90625 15.78125 1.730469 15.625 C 2.074219 16.128906 2.464844 16.601562 2.890625 17.035156 C 3.011719 16.96875 3.105469 16.882812 3.199219 16.796875 C 3.390625 16.621094 3.582031 16.449219 3.960938 16.449219 C 4.34375 16.449219 4.53125 16.621094 4.722656 16.796875 C 4.914062 16.96875 5.101562 17.144531 5.484375 17.144531 C 5.863281 17.144531 6.054688 16.96875 6.246094 16.796875 C 6.433594 16.621094 6.625 16.449219 7.003906 16.449219 C 7.386719 16.449219 7.574219 16.621094 7.765625 16.796875 C 7.957031 16.96875 8.148438 17.144531 8.527344 17.144531 C 8.90625 17.144531 9.097656 16.96875 9.289062 16.796875 C 9.476562 16.621094 9.667969 16.449219 10.050781 16.449219 C 10.429688 16.449219 10.621094 16.621094 10.808594 16.796875 C 11 16.96875 11.191406 17.144531 11.570312 17.144531 C 11.949219 17.144531 12.140625 16.96875 12.332031 16.796875 C 12.523438 16.621094 12.710938 16.449219 13.09375 16.449219 C 13.472656 16.449219 13.664062 16.621094 13.851562 16.796875 C 14.042969 16.96875 14.234375 17.144531 14.613281 17.144531 C 14.996094 17.144531 15.183594 16.96875 15.375 16.796875 C 15.566406 16.621094 15.753906 16.449219 16.136719 16.449219 C 16.515625 16.449219 16.707031 16.621094 16.898438 16.796875 C 16.976562 16.867188 17.050781 16.9375 17.144531 16.996094 C 17.511719 16.621094 17.847656 16.21875 18.152344 15.792969 Z M 18.152344 15.792969 "/>
<path fill-rule="nonzero" fill="rgb(0%, 13.333333%, 40%)" fill-opacity="1" d="M 16.136719 17.667969 C 16.230469 17.667969 16.3125 17.679688 16.386719 17.695312 C 15.628906 18.324219 14.773438 18.847656 13.851562 19.230469 C 13.664062 19.058594 13.472656 18.882812 13.09375 18.882812 C 12.710938 18.882812 12.523438 19.058594 12.332031 19.234375 C 12.140625 19.40625 11.949219 19.582031 11.570312 19.582031 C 11.191406 19.582031 11 19.40625 10.808594 19.234375 C 10.621094 19.058594 10.429688 18.882812 10.050781 18.882812 C 9.667969 18.882812 9.476562 19.058594 9.289062 19.234375 C 9.097656 19.40625 8.90625 19.582031 8.527344 19.582031 C 8.148438 19.582031 7.957031 19.40625 7.765625 19.234375 C 7.574219 19.058594 7.386719 18.882812 7.003906 18.882812 C 6.625 18.882812 6.433594 19.058594 6.246094 19.234375 L 6.230469 19.246094 C 6.226562 19.25 6.21875 19.253906 6.214844 19.257812 C 5.277344 18.875 4.410156 18.351562 3.640625 17.71875 C 3.730469 17.6875 3.835938 17.667969 3.960938 17.667969 C 4.34375 17.667969 4.53125 17.839844 4.722656 18.015625 C 4.914062 18.1875 5.101562 18.363281 5.484375 18.363281 C 5.863281 18.363281 6.054688 18.1875 6.246094 18.015625 C 6.433594 17.839844 6.625 17.667969 7.003906 17.667969 C 7.386719 17.667969 7.574219 17.839844 7.765625 18.015625 C 7.957031 18.1875 8.148438 18.363281 8.527344 18.363281 C 8.90625 18.363281 9.097656 18.1875 9.289062 18.015625 C 9.476562 17.839844 9.667969 17.667969 10.050781 17.667969 C 10.429688 17.667969 10.621094 17.839844 10.808594 18.015625 C 11 18.1875 11.191406 18.363281 11.570312 18.363281 C 11.949219 18.363281 12.140625 18.1875 12.332031 18.015625 C 12.523438 17.839844 12.710938 17.667969 13.09375 17.667969 C 13.472656 17.667969 13.664062 17.839844 13.851562 18.015625 C 14.042969 18.1875 14.234375 18.363281 14.613281 18.363281 C 14.996094 18.363281 15.183594 18.1875 15.375 18.015625 C 15.566406 17.839844 15.753906 17.667969 16.136719 17.667969 Z M 16.136719 17.667969 "/>
<path fill-rule="nonzero" fill="rgb(0%, 13.333333%, 40%)" fill-opacity="1" d="M 10 0 L 10 10 L 0 10 C 0 4.476562 4.476562 0 10 0 Z M 10 0 "/>
<path fill-rule="nonzero" fill="rgb(93.333333%, 93.333333%, 93.333333%)" fill-opacity="1" d="M 8.5 10 L 10 10 L 10 8.5 L 5.496094 3.992188 L 10 3.992188 L 10 0 C 4.476562 0 0 4.476562 0 10 L 3.992188 10 L 3.992188 5.496094 Z M 8.5 10 "/>
<path fill-rule="nonzero" fill="rgb(84.705882%, 0%, 15.294118%)" fill-opacity="1" d="M 10 2.992188 L 10 0.992188 L 5.652344 0.992188 C 3.621094 1.972656 1.972656 3.621094 0.992188 5.652344 L 0.992188 10 L 2.992188 10 L 2.992188 2.992188 Z M 10 2.992188 "/>
<path fill-rule="nonzero" fill="rgb(84.705882%, 0%, 15.294118%)" fill-opacity="1" d="M 10 9 L 10 10 L 3.992188 3.992188 L 4.996094 3.992188 Z M 10 9 "/>
<path fill-rule="nonzero" fill="rgb(42.745098%, 64.705882%, 26.666667%)" fill-opacity="1" d="M 13.042969 4.890625 L 16.957031 4.890625 L 15 6.847656 Z M 13.042969 4.890625 "/>
<path fill-rule="nonzero" fill="rgb(63.529412%, 0%, 11.372549%)" fill-opacity="1" d="M 14.566406 6.414062 L 15.433594 6.414062 L 15.433594 8.804688 L 14.566406 8.804688 Z M 14.566406 6.414062 "/>
<path fill-rule="nonzero" fill="rgb(63.529412%, 0%, 11.372549%)" fill-opacity="1" d="M 14.566406 12.71875 L 15.433594 12.71875 L 15.433594 15.109375 L 14.566406 15.109375 Z M 14.566406 12.71875 "/>
<path fill-rule="nonzero" fill="rgb(100%, 77.647059%, 20.784314%)" fill-opacity="1" d="M 17.609375 11.414062 C 17.609375 10.691406 17.023438 10.109375 16.304688 10.109375 C 15.972656 10.109375 15.667969 10.234375 15.433594 10.441406 L 15.433594 9.675781 L 15.871094 9.675781 L 15.871094 8.804688 L 15.433594 8.804688 L 15.433594 8.371094 L 14.566406 8.371094 L 14.566406 8.804688 L 14.132812 8.804688 L 14.132812 9.675781 L 14.566406 9.675781 L 14.566406 10.441406 C 14.335938 10.234375 14.03125 10.109375 13.695312 10.109375 C 12.976562 10.109375 12.390625 10.691406 12.390625 11.414062 C 12.390625 11.800781 12.558594 12.144531 12.828125 12.386719 L 12.828125 13.152344 L 17.175781 13.152344 L 17.175781 12.386719 C 17.441406 12.144531 17.609375 11.800781 17.609375 11.414062 Z M 17.609375 11.414062 "/>
<path fill-rule="nonzero" fill="rgb(84.705882%, 0%, 15.294118%)" fill-opacity="1" d="M 16.304688 10.976562 C 16.167969 10.976562 16.070312 11.039062 16.015625 11.089844 L 15.433594 11.609375 L 14.566406 11.609375 L 13.984375 11.089844 C 13.929688 11.039062 13.832031 10.976562 13.695312 10.976562 C 13.457031 10.976562 13.261719 11.171875 13.261719 11.414062 C 13.261719 11.582031 13.351562 11.6875 13.40625 11.738281 L 13.695312 11.996094 L 13.695312 12.28125 L 16.304688 12.28125 L 16.304688 11.996094 L 16.59375 11.738281 C 16.648438 11.6875 16.738281 11.582031 16.738281 11.414062 C 16.738281 11.171875 16.542969 10.980469 16.304688 10.980469 Z M 16.304688 10.976562 "/>
</svg>
