<?xml version="1.0" encoding="UTF-8"?>
<svg xmlns="http://www.w3.org/2000/svg" xmlns:xlink="http://www.w3.org/1999/xlink" width="60" height="60" viewBox="0 0 60 60">
<path fill-rule="nonzero" fill="rgb(93.333333%, 93.333333%, 93.333333%)" fill-opacity="1" d="M 60 30 C 60 46.566406 46.566406 60 30 60 C 13.433594 60 0 46.566406 0 30 L 30 0 C 46.566406 0 60 13.433594 60 30 Z M 60 30 "/>
<path fill-rule="nonzero" fill="rgb(0%, 13.333333%, 40%)" fill-opacity="1" d="M 23.394531 6.609375 L 26.132812 3.867188 C 26.921875 3.730469 27.394531 3.300781 27.863281 2.871094 C 28.433594 2.347656 29.007812 1.828125 30.148438 1.828125 C 31.289062 1.828125 31.859375 2.347656 32.429688 2.871094 C 33 3.390625 33.570312 3.914062 34.710938 3.914062 C 35.851562 3.914062 36.425781 3.390625 36.996094 2.871094 C 37.566406 2.347656 38.136719 1.828125 39.277344 1.828125 C 40.417969 1.828125 40.988281 2.347656 41.558594 2.871094 C 42.128906 3.390625 42.703125 3.914062 43.84375 3.914062 C 44.148438 3.914062 44.410156 3.875 44.644531 3.8125 C 45.625 4.359375 46.574219 4.964844 47.480469 5.617188 C 46.90625 5.808594 46.515625 6.164062 46.125 6.523438 C 45.554688 7.042969 44.984375 7.566406 43.84375 7.566406 C 42.703125 7.566406 42.128906 7.042969 41.558594 6.523438 C 40.988281 6 40.417969 5.476562 39.277344 5.476562 C 38.136719 5.476562 37.566406 6 36.996094 6.523438 C 36.425781 7.042969 35.851562 7.566406 34.710938 7.566406 C 33.570312 7.566406 33 7.042969 32.429688 6.523438 C 31.859375 6 31.289062 5.476562 30.148438 5.476562 C 29.007812 5.476562 28.433594 6 27.863281 6.523438 C 27.292969 7.042969 26.722656 7.566406 25.582031 7.566406 C 24.503906 7.566406 23.933594 7.097656 23.394531 6.609375 Z M 23.394531 6.609375 "/>
<path fill-rule="nonzero" fill="rgb(0%, 13.333333%, 40%)" fill-opacity="1" d="M 15.335938 14.664062 L 20.859375 9.140625 C 20.910156 9.136719 20.960938 9.136719 21.015625 9.136719 C 22.15625 9.136719 22.726562 9.660156 23.296875 10.179688 C 23.867188 10.703125 24.441406 11.222656 25.582031 11.222656 C 26.722656 11.222656 27.292969 10.703125 27.863281 10.179688 C 28.433594 9.660156 29.003906 9.136719 30.144531 9.136719 C 31.289062 9.136719 31.859375 9.660156 32.429688 10.179688 C 33 10.703125 33.570312 11.222656 34.710938 11.222656 C 35.851562 11.222656 36.421875 10.703125 36.992188 10.179688 C 37.5625 9.660156 38.136719 9.136719 39.277344 9.136719 C 40.417969 9.136719 40.988281 9.660156 41.558594 10.179688 C 42.128906 10.703125 42.699219 11.222656 43.84375 11.222656 C 44.984375 11.222656 45.554688 10.703125 46.125 10.179688 C 46.695312 9.660156 47.265625 9.136719 48.40625 9.136719 C 49.546875 9.136719 50.121094 9.660156 50.691406 10.179688 C 51.261719 10.703125 51.832031 11.222656 52.972656 11.222656 C 53.117188 11.222656 53.253906 11.214844 53.378906 11.199219 C 54.054688 12.039062 54.683594 12.914062 55.265625 13.820312 L 55.253906 13.832031 C 54.683594 14.355469 54.113281 14.875 52.972656 14.875 C 51.832031 14.875 51.261719 14.355469 50.691406 13.832031 C 50.121094 13.3125 49.546875 12.789062 48.40625 12.789062 C 47.265625 12.789062 46.695312 13.3125 46.125 13.832031 C 45.554688 14.355469 44.984375 14.875 43.84375 14.875 C 42.699219 14.875 42.128906 14.355469 41.558594 13.832031 C 40.988281 13.3125 40.417969 12.789062 39.277344 12.789062 C 38.136719 12.789062 37.5625 13.3125 36.992188 13.832031 C 36.421875 14.355469 35.851562 14.875 34.710938 14.875 C 33.570312 14.875 33 14.355469 32.429688 13.832031 C 31.859375 13.3125 31.289062 12.789062 30.144531 12.789062 C 29.003906 12.789062 28.433594 13.3125 27.863281 13.832031 C 27.292969 14.355469 26.722656 14.875 25.582031 14.875 C 24.441406 14.875 23.867188 14.355469 23.296875 13.832031 C 22.726562 13.3125 22.15625 12.789062 21.015625 12.789062 C 19.875 12.789062 19.304688 13.3125 18.734375 13.832031 C 18.164062 14.355469 17.589844 14.875 16.449219 14.875 C 16 14.875 15.640625 14.796875 15.332031 14.664062 Z M 15.335938 14.664062 "/>
<path fill-rule="nonzero" fill="rgb(0%, 13.333333%, 40%)" fill-opacity="1" d="M 7.855469 22.144531 L 13.230469 16.769531 C 13.59375 16.964844 13.878906 17.226562 14.167969 17.492188 C 14.738281 18.011719 15.308594 18.535156 16.449219 18.535156 C 17.59375 18.535156 18.164062 18.011719 18.734375 17.492188 C 19.304688 16.96875 19.875 16.449219 21.015625 16.449219 C 22.15625 16.449219 22.726562 16.96875 23.296875 17.492188 C 23.867188 18.011719 24.441406 18.535156 25.582031 18.535156 C 26.722656 18.535156 27.292969 18.011719 27.863281 17.492188 C 28.433594 16.96875 29.003906 16.449219 30.148438 16.449219 C 31.289062 16.449219 31.859375 16.96875 32.429688 17.492188 C 33 18.011719 33.570312 18.535156 34.710938 18.535156 C 35.851562 18.535156 36.421875 18.011719 36.992188 17.492188 C 37.566406 16.96875 38.136719 16.449219 39.277344 16.449219 C 40.417969 16.449219 40.988281 16.96875 41.558594 17.492188 C 42.128906 18.011719 42.699219 18.535156 43.84375 18.535156 C 44.984375 18.535156 45.554688 18.011719 46.125 17.492188 C 46.695312 16.96875 47.265625 16.449219 48.40625 16.449219 C 49.550781 16.449219 50.121094 16.96875 50.691406 17.492188 C 51.261719 18.011719 51.832031 18.535156 52.972656 18.535156 C 54.113281 18.535156 54.683594 18.011719 55.253906 17.492188 C 55.691406 17.09375 56.125 16.695312 56.8125 16.527344 C 57.410156 17.710938 57.929688 18.941406 58.367188 20.207031 C 58.125 20.140625 57.851562 20.097656 57.539062 20.097656 C 56.394531 20.097656 55.824219 20.621094 55.253906 21.144531 C 54.683594 21.664062 54.113281 22.1875 52.972656 22.1875 C 51.832031 22.1875 51.261719 21.664062 50.691406 21.144531 C 50.121094 20.621094 49.550781 20.097656 48.40625 20.097656 C 47.265625 20.097656 46.695312 20.621094 46.125 21.144531 C 45.554688 21.664062 44.984375 22.1875 43.84375 22.1875 C 42.699219 22.1875 42.128906 21.664062 41.558594 21.144531 C 40.988281 20.621094 40.417969 20.097656 39.277344 20.097656 C 38.136719 20.097656 37.566406 20.621094 36.992188 21.144531 C 36.421875 21.664062 35.851562 22.1875 34.710938 22.1875 C 33.570312 22.1875 33 21.664062 32.429688 21.144531 C 31.859375 20.621094 31.289062 20.097656 30.148438 20.097656 C 29.003906 20.097656 28.433594 20.621094 27.863281 21.144531 C 27.292969 21.664062 26.722656 22.1875 25.582031 22.1875 C 24.441406 22.1875 23.867188 21.664062 23.296875 21.144531 C 22.726562 20.621094 22.15625 20.097656 21.015625 20.097656 C 19.875 20.097656 19.304688 20.621094 18.734375 21.144531 C 18.164062 21.664062 17.59375 22.1875 16.449219 22.1875 C 15.308594 22.1875 14.738281 21.664062 14.167969 21.144531 C 13.597656 20.621094 13.027344 20.097656 11.886719 20.097656 C 10.746094 20.097656 10.171875 20.621094 9.601562 21.144531 C 9.128906 21.574219 8.65625 22.007812 7.855469 22.144531 Z M 7.855469 22.144531 "/>
<path fill-rule="nonzero" fill="rgb(0%, 13.333333%, 40%)" fill-opacity="1" d="M 2.585938 27.414062 L 5.121094 24.878906 C 5.664062 25.375 6.234375 25.84375 7.320312 25.84375 C 8.460938 25.84375 9.03125 25.324219 9.601562 24.800781 C 10.175781 24.28125 10.746094 23.757812 11.886719 23.757812 C 13.027344 23.757812 13.597656 24.28125 14.167969 24.800781 C 14.738281 25.324219 15.308594 25.84375 16.449219 25.84375 C 17.59375 25.84375 18.164062 25.324219 18.734375 24.800781 C 19.304688 24.28125 19.875 23.757812 21.015625 23.757812 C 22.15625 23.757812 22.726562 24.28125 23.296875 24.800781 C 23.867188 25.324219 24.441406 25.84375 25.582031 25.84375 C 26.722656 25.84375 27.292969 25.324219 27.863281 24.800781 C 28.433594 24.28125 29.003906 23.757812 30.148438 23.757812 C 31.289062 23.757812 31.859375 24.28125 32.429688 24.800781 C 33 25.324219 33.570312 25.84375 34.710938 25.84375 C 35.851562 25.84375 36.421875 25.324219 36.992188 24.800781 C 37.566406 24.28125 38.136719 23.757812 39.277344 23.757812 C 40.417969 23.757812 40.988281 24.28125 41.558594 24.800781 C 42.128906 25.324219 42.699219 25.84375 43.84375 25.84375 C 44.984375 25.84375 45.554688 25.324219 46.125 24.800781 C 46.695312 24.28125 47.265625 23.757812 48.40625 23.757812 C 49.550781 23.757812 50.121094 24.28125 50.691406 24.800781 C 51.261719 25.324219 51.832031 25.84375 52.972656 25.84375 C 54.113281 25.84375 54.683594 25.324219 55.253906 24.800781 C 55.824219 24.28125 56.394531 23.757812 57.539062 23.757812 C 58.46875 23.757812 59.019531 24.105469 59.5 24.515625 C 59.746094 25.84375 59.902344 27.203125 59.96875 28.589844 C 59.917969 28.542969 59.871094 28.5 59.820312 28.457031 L 59.820312 28.453125 C 59.25 27.933594 58.679688 27.410156 57.539062 27.410156 C 56.394531 27.410156 55.824219 27.933594 55.253906 28.453125 C 54.683594 28.976562 54.113281 29.496094 52.972656 29.496094 C 51.832031 29.496094 51.261719 28.976562 50.691406 28.453125 C 50.121094 27.933594 49.550781 27.410156 48.40625 27.410156 C 47.265625 27.410156 46.695312 27.933594 46.125 28.453125 C 45.554688 28.976562 44.984375 29.496094 43.84375 29.496094 C 42.699219 29.496094 42.128906 28.976562 41.558594 28.453125 C 40.988281 27.933594 40.417969 27.410156 39.277344 27.410156 C 38.136719 27.410156 37.566406 27.933594 36.992188 28.453125 C 36.421875 28.976562 35.851562 29.496094 34.710938 29.496094 C 33.570312 29.496094 33 28.976562 32.429688 28.453125 C 31.859375 27.933594 31.289062 27.410156 30.148438 27.410156 C 29.003906 27.410156 28.433594 27.933594 27.863281 28.453125 C 27.292969 28.976562 26.722656 29.496094 25.582031 29.496094 C 24.441406 29.496094 23.867188 28.976562 23.296875 28.453125 C 22.726562 27.933594 22.15625 27.410156 21.015625 27.410156 C 19.875 27.410156 19.304688 27.933594 18.734375 28.453125 C 18.164062 28.976562 17.59375 29.496094 16.449219 29.496094 C 15.308594 29.496094 14.738281 28.976562 14.167969 28.453125 C 13.597656 27.933594 13.027344 27.410156 11.886719 27.410156 C 10.746094 27.410156 10.171875 27.933594 9.601562 28.453125 C 9.03125 28.976562 8.460938 29.496094 7.320312 29.496094 C 6.179688 29.496094 5.609375 28.976562 5.039062 28.453125 C 4.464844 27.933594 3.894531 27.410156 2.753906 27.410156 C 2.695312 27.410156 2.640625 27.414062 2.585938 27.414062 Z M 2.585938 27.414062 "/>
<path fill-rule="nonzero" fill="rgb(0%, 13.333333%, 40%)" fill-opacity="1" d="M 59.5 35.480469 C 59.699219 34.40625 59.839844 33.3125 59.921875 32.203125 C 59.886719 32.175781 59.851562 32.144531 59.820312 32.113281 C 59.25 31.589844 58.679688 31.070312 57.539062 31.070312 C 56.394531 31.070312 55.824219 31.589844 55.253906 32.113281 C 54.683594 32.632812 54.113281 33.15625 52.972656 33.15625 C 51.832031 33.15625 51.261719 32.632812 50.691406 32.113281 C 50.121094 31.589844 49.550781 31.070312 48.40625 31.070312 C 47.265625 31.070312 46.695312 31.589844 46.125 32.113281 C 45.554688 32.632812 44.984375 33.15625 43.84375 33.15625 C 42.699219 33.15625 42.128906 32.632812 41.558594 32.113281 C 40.988281 31.589844 40.417969 31.070312 39.277344 31.070312 C 38.136719 31.070312 37.566406 31.589844 36.992188 32.113281 C 36.421875 32.632812 35.851562 33.15625 34.710938 33.15625 C 33.570312 33.15625 33 32.632812 32.429688 32.113281 C 31.859375 31.589844 31.289062 31.070312 30.148438 31.070312 C 29.003906 31.070312 28.433594 31.589844 27.863281 32.113281 C 27.292969 32.632812 26.722656 33.15625 25.582031 33.15625 C 24.441406 33.15625 23.867188 32.632812 23.296875 32.113281 C 22.726562 31.589844 22.15625 31.070312 21.015625 31.070312 C 19.875 31.070312 19.304688 31.589844 18.734375 32.113281 C 18.164062 32.632812 17.59375 33.15625 16.449219 33.15625 C 15.308594 33.15625 14.738281 32.632812 14.167969 32.113281 C 13.597656 31.589844 13.027344 31.070312 11.886719 31.070312 C 10.746094 31.070312 10.175781 31.589844 9.601562 32.113281 C 9.03125 32.632812 8.460938 33.15625 7.320312 33.15625 C 6.179688 33.15625 5.609375 32.632812 5.039062 32.113281 C 4.46875 31.589844 3.894531 31.070312 2.753906 31.070312 C 1.613281 31.070312 1.042969 31.589844 0.472656 32.113281 C 0.347656 32.226562 0.226562 32.335938 0.0976562 32.445312 C 0.1875 33.546875 0.335938 34.636719 0.542969 35.703125 C 1.089844 35.203125 1.660156 34.722656 2.753906 34.722656 C 3.894531 34.722656 4.46875 35.242188 5.039062 35.765625 C 5.609375 36.285156 6.179688 36.808594 7.320312 36.808594 C 8.460938 36.808594 9.03125 36.285156 9.601562 35.765625 C 10.175781 35.242188 10.746094 34.722656 11.886719 34.722656 C 13.027344 34.722656 13.597656 35.242188 14.167969 35.765625 C 14.738281 36.285156 15.308594 36.808594 16.449219 36.808594 C 17.59375 36.808594 18.164062 36.285156 18.734375 35.765625 C 19.304688 35.242188 19.875 34.722656 21.015625 34.722656 C 22.15625 34.722656 22.726562 35.242188 23.296875 35.765625 C 23.871094 36.285156 24.441406 36.808594 25.582031 36.808594 C 26.722656 36.808594 27.292969 36.285156 27.863281 35.765625 C 28.433594 35.242188 29.003906 34.722656 30.148438 34.722656 C 31.289062 34.722656 31.859375 35.242188 32.429688 35.765625 C 33 36.285156 33.570312 36.808594 34.710938 36.808594 C 35.851562 36.808594 36.421875 36.285156 36.996094 35.765625 C 37.566406 35.242188 38.136719 34.722656 39.277344 34.722656 C 40.417969 34.722656 40.988281 35.242188 41.558594 35.765625 C 42.128906 36.285156 42.699219 36.808594 43.84375 36.808594 C 44.984375 36.808594 45.554688 36.285156 46.125 35.765625 C 46.695312 35.242188 47.265625 34.722656 48.40625 34.722656 C 49.550781 34.722656 50.121094 35.242188 50.691406 35.765625 C 51.261719 36.285156 51.832031 36.808594 52.972656 36.808594 C 54.113281 36.808594 54.683594 36.285156 55.253906 35.765625 C 55.824219 35.242188 56.394531 34.722656 57.539062 34.722656 C 58.46875 34.722656 59.019531 35.070312 59.5 35.480469 Z M 59.5 35.480469 "/>
<path fill-rule="nonzero" fill="rgb(0%, 13.333333%, 40%)" fill-opacity="1" d="M 57.539062 38.378906 C 58.03125 38.378906 58.414062 38.476562 58.742188 38.628906 C 58.390625 39.792969 57.972656 40.929688 57.488281 42.03125 C 56.378906 42.046875 55.816406 42.5625 55.253906 43.074219 C 54.683594 43.597656 54.113281 44.121094 52.972656 44.121094 C 51.832031 44.121094 51.261719 43.597656 50.691406 43.074219 C 50.121094 42.554688 49.550781 42.03125 48.40625 42.03125 C 47.265625 42.03125 46.695312 42.554688 46.125 43.074219 C 45.554688 43.597656 44.984375 44.121094 43.84375 44.121094 C 42.699219 44.121094 42.128906 43.597656 41.558594 43.074219 C 40.988281 42.554688 40.417969 42.03125 39.277344 42.03125 C 38.136719 42.03125 37.566406 42.554688 36.996094 43.074219 C 36.425781 43.597656 35.851562 44.121094 34.710938 44.121094 C 33.570312 44.121094 33 43.597656 32.429688 43.074219 C 31.859375 42.554688 31.289062 42.03125 30.148438 42.03125 C 29.003906 42.03125 28.433594 42.554688 27.863281 43.074219 C 27.292969 43.597656 26.722656 44.121094 25.582031 44.121094 C 24.441406 44.121094 23.871094 43.597656 23.300781 43.074219 C 22.726562 42.554688 22.15625 42.03125 21.015625 42.03125 C 19.875 42.03125 19.304688 42.554688 18.734375 43.074219 C 18.164062 43.597656 17.59375 44.121094 16.453125 44.121094 C 15.308594 44.121094 14.738281 43.597656 14.167969 43.074219 C 13.597656 42.554688 13.027344 42.03125 11.886719 42.03125 C 10.746094 42.03125 10.175781 42.554688 9.605469 43.074219 C 9.03125 43.597656 8.460938 44.121094 7.320312 44.121094 C 6.179688 44.121094 5.609375 43.597656 5.039062 43.074219 C 4.46875 42.554688 3.898438 42.03125 2.753906 42.03125 C 2.671875 42.03125 2.589844 42.035156 2.515625 42.039062 C 2.046875 40.980469 1.640625 39.886719 1.300781 38.761719 C 1.675781 38.535156 2.128906 38.378906 2.753906 38.378906 C 3.894531 38.378906 4.46875 38.902344 5.039062 39.421875 C 5.609375 39.945312 6.179688 40.46875 7.320312 40.46875 C 8.460938 40.46875 9.03125 39.945312 9.601562 39.421875 C 10.175781 38.902344 10.746094 38.378906 11.886719 38.378906 C 13.027344 38.378906 13.597656 38.902344 14.167969 39.421875 C 14.738281 39.945312 15.308594 40.46875 16.449219 40.46875 C 17.59375 40.46875 18.164062 39.945312 18.734375 39.421875 C 19.304688 38.902344 19.875 38.378906 21.015625 38.378906 C 22.15625 38.378906 22.726562 38.902344 23.296875 39.421875 C 23.871094 39.945312 24.441406 40.46875 25.582031 40.46875 C 26.722656 40.46875 27.292969 39.945312 27.863281 39.421875 C 28.433594 38.902344 29.003906 38.378906 30.148438 38.378906 C 31.289062 38.378906 31.859375 38.902344 32.429688 39.421875 C 33 39.945312 33.570312 40.46875 34.710938 40.46875 C 35.851562 40.46875 36.425781 39.945312 36.996094 39.421875 C 37.566406 38.902344 38.136719 38.378906 39.277344 38.378906 C 40.417969 38.378906 40.988281 38.902344 41.558594 39.421875 C 42.128906 39.945312 42.699219 40.46875 43.84375 40.46875 C 44.984375 40.46875 45.554688 39.945312 46.125 39.421875 C 46.695312 38.902344 47.265625 38.378906 48.40625 38.378906 C 49.550781 38.378906 50.121094 38.902344 50.691406 39.421875 C 51.261719 39.945312 51.832031 40.46875 52.972656 40.46875 C 54.113281 40.46875 54.683594 39.945312 55.253906 39.421875 C 55.824219 38.902344 56.394531 38.378906 57.539062 38.378906 Z M 57.539062 38.378906 "/>
<path fill-rule="nonzero" fill="rgb(0%, 13.333333%, 40%)" fill-opacity="1" d="M 54.460938 47.375 C 54.078125 47.613281 53.613281 47.777344 52.972656 47.777344 C 51.832031 47.777344 51.261719 47.253906 50.691406 46.734375 C 50.121094 46.210938 49.546875 45.691406 48.40625 45.691406 C 47.265625 45.691406 46.695312 46.210938 46.125 46.734375 C 45.554688 47.253906 44.984375 47.777344 43.84375 47.777344 C 42.699219 47.777344 42.128906 47.253906 41.558594 46.734375 C 40.988281 46.210938 40.417969 45.691406 39.277344 45.691406 C 38.136719 45.691406 37.566406 46.210938 36.992188 46.734375 C 36.421875 47.253906 35.851562 47.777344 34.710938 47.777344 C 33.570312 47.777344 33 47.253906 32.429688 46.734375 C 31.859375 46.210938 31.289062 45.691406 30.148438 45.691406 C 29.003906 45.691406 28.433594 46.210938 27.863281 46.734375 C 27.292969 47.253906 26.722656 47.777344 25.582031 47.777344 C 24.441406 47.777344 23.867188 47.253906 23.296875 46.734375 C 22.726562 46.210938 22.15625 45.691406 21.015625 45.691406 C 19.875 45.691406 19.304688 46.210938 18.734375 46.734375 C 18.164062 47.253906 17.589844 47.777344 16.449219 47.777344 C 15.308594 47.777344 14.738281 47.253906 14.167969 46.734375 C 13.597656 46.210938 13.027344 45.691406 11.886719 45.691406 C 10.746094 45.691406 10.171875 46.210938 9.601562 46.734375 C 9.03125 47.253906 8.460938 47.777344 7.320312 47.777344 C 6.28125 47.777344 5.714844 47.347656 5.191406 46.875 C 6.226562 48.390625 7.390625 49.804688 8.675781 51.101562 C 9.03125 50.90625 9.316406 50.648438 9.601562 50.386719 C 10.171875 49.863281 10.746094 49.34375 11.886719 49.34375 C 13.027344 49.34375 13.597656 49.863281 14.167969 50.386719 C 14.738281 50.90625 15.308594 51.429688 16.449219 51.429688 C 17.589844 51.429688 18.164062 50.90625 18.734375 50.386719 C 19.304688 49.863281 19.875 49.34375 21.015625 49.34375 C 22.15625 49.34375 22.726562 49.863281 23.296875 50.386719 C 23.867188 50.90625 24.441406 51.429688 25.582031 51.429688 C 26.722656 51.429688 27.292969 50.90625 27.863281 50.386719 C 28.433594 49.863281 29.003906 49.34375 30.148438 49.34375 C 31.289062 49.34375 31.859375 49.863281 32.429688 50.386719 C 33 50.90625 33.570312 51.429688 34.710938 51.429688 C 35.851562 51.429688 36.421875 50.90625 36.992188 50.386719 C 37.566406 49.863281 38.136719 49.34375 39.277344 49.34375 C 40.417969 49.34375 40.988281 49.863281 41.558594 50.386719 C 42.128906 50.90625 42.699219 51.429688 43.84375 51.429688 C 44.984375 51.429688 45.554688 50.90625 46.125 50.386719 C 46.695312 49.863281 47.265625 49.34375 48.40625 49.34375 C 49.546875 49.34375 50.121094 49.863281 50.691406 50.386719 C 50.925781 50.601562 51.15625 50.8125 51.429688 50.992188 C 52.53125 49.867188 53.546875 48.660156 54.460938 47.375 Z M 54.460938 47.375 "/>
<path fill-rule="nonzero" fill="rgb(0%, 13.333333%, 40%)" fill-opacity="1" d="M 48.40625 53 C 48.6875 53 48.9375 53.035156 49.15625 53.089844 C 46.882812 54.976562 44.324219 56.539062 41.554688 57.695312 C 40.984375 57.171875 40.414062 56.652344 39.277344 56.652344 C 38.136719 56.652344 37.566406 57.175781 36.996094 57.695312 C 36.421875 58.21875 35.851562 58.742188 34.710938 58.742188 C 33.570312 58.742188 33 58.21875 32.429688 57.695312 C 31.859375 57.175781 31.289062 56.652344 30.148438 56.652344 C 29.003906 56.652344 28.433594 57.175781 27.863281 57.695312 C 27.292969 58.21875 26.722656 58.742188 25.582031 58.742188 C 24.441406 58.742188 23.871094 58.21875 23.296875 57.695312 C 22.726562 57.175781 22.15625 56.652344 21.015625 56.652344 C 19.875 56.652344 19.304688 57.175781 18.734375 57.695312 L 18.691406 57.734375 C 18.675781 57.75 18.660156 57.761719 18.644531 57.777344 C 15.832031 56.625 13.230469 55.058594 10.921875 53.152344 C 11.195312 53.058594 11.507812 53 11.886719 53 C 13.027344 53 13.597656 53.523438 14.167969 54.046875 C 14.738281 54.566406 15.308594 55.089844 16.449219 55.089844 C 17.59375 55.089844 18.164062 54.566406 18.734375 54.046875 C 19.304688 53.523438 19.875 53 21.015625 53 C 22.15625 53 22.726562 53.523438 23.296875 54.046875 C 23.871094 54.566406 24.441406 55.089844 25.582031 55.089844 C 26.722656 55.089844 27.292969 54.566406 27.863281 54.046875 C 28.433594 53.523438 29.003906 53 30.148438 53 C 31.289062 53 31.859375 53.523438 32.429688 54.046875 C 33 54.566406 33.570312 55.089844 34.710938 55.089844 C 35.851562 55.089844 36.421875 54.566406 36.996094 54.046875 C 37.566406 53.523438 38.136719 53 39.277344 53 C 40.417969 53 40.988281 53.523438 41.558594 54.046875 C 42.128906 54.566406 42.699219 55.089844 43.84375 55.089844 C 44.984375 55.089844 45.554688 54.566406 46.125 54.046875 C 46.695312 53.523438 47.265625 53 48.40625 53 Z M 48.40625 53 "/>
<path fill-rule="nonzero" fill="rgb(0%, 13.333333%, 40%)" fill-opacity="1" d="M 30 0 L 30 30 L 0 30 C 0 13.429688 13.429688 0 30 0 Z M 30 0 "/>
<path fill-rule="nonzero" fill="rgb(93.333333%, 93.333333%, 93.333333%)" fill-opacity="1" d="M 25.496094 30 L 30 30 L 30 25.496094 L 16.488281 11.984375 L 30 11.984375 L 30 0 C 13.429688 0 0 13.429688 0 30 L 11.984375 30 L 11.984375 16.488281 Z M 25.496094 30 "/>
<path fill-rule="nonzero" fill="rgb(84.705882%, 0%, 15.294118%)" fill-opacity="1" d="M 30 8.980469 L 30 2.972656 L 16.960938 2.972656 C 10.867188 5.917969 5.917969 10.867188 2.972656 16.960938 L 2.972656 30 L 8.980469 30 L 8.980469 8.980469 Z M 30 8.980469 "/>
<path fill-rule="nonzero" fill="rgb(84.705882%, 0%, 15.294118%)" fill-opacity="1" d="M 30 26.996094 L 30 30 L 11.984375 11.984375 L 14.984375 11.984375 Z M 30 26.996094 "/>
<path fill-rule="nonzero" fill="rgb(42.745098%, 64.705882%, 26.666667%)" fill-opacity="1" d="M 39.132812 14.671875 L 50.871094 14.671875 L 45 20.542969 Z M 39.132812 14.671875 "/>
<path fill-rule="nonzero" fill="rgb(63.529412%, 0%, 11.372549%)" fill-opacity="1" d="M 43.695312 19.238281 L 46.304688 19.238281 L 46.304688 26.414062 L 43.695312 26.414062 Z M 43.695312 19.238281 "/>
<path fill-rule="nonzero" fill="rgb(63.529412%, 0%, 11.372549%)" fill-opacity="1" d="M 43.695312 38.152344 L 46.304688 38.152344 L 46.304688 45.328125 L 43.695312 45.328125 Z M 43.695312 38.152344 "/>
<path fill-rule="nonzero" fill="rgb(100%, 77.647059%, 20.784314%)" fill-opacity="1" d="M 52.828125 34.238281 C 52.828125 32.078125 51.074219 30.328125 48.914062 30.328125 C 47.914062 30.328125 47 30.703125 46.304688 31.324219 L 46.304688 29.023438 L 47.609375 29.023438 L 47.609375 26.414062 L 46.304688 26.414062 L 46.304688 25.109375 L 43.695312 25.109375 L 43.695312 26.414062 L 42.390625 26.414062 L 42.390625 29.023438 L 43.695312 29.023438 L 43.695312 31.324219 C 43.003906 30.703125 42.089844 30.328125 41.089844 30.328125 C 38.925781 30.328125 37.175781 32.078125 37.175781 34.238281 C 37.175781 35.398438 37.679688 36.4375 38.480469 37.15625 L 38.480469 39.457031 L 51.523438 39.457031 L 51.523438 37.15625 C 52.324219 36.4375 52.828125 35.398438 52.828125 34.238281 Z M 52.828125 34.238281 "/>
<path fill-rule="nonzero" fill="rgb(84.705882%, 0%, 15.294118%)" fill-opacity="1" d="M 48.914062 32.9375 C 48.503906 32.9375 48.214844 33.117188 48.046875 33.269531 L 46.304688 34.824219 L 43.695312 34.824219 L 41.957031 33.269531 C 41.785156 33.117188 41.5 32.9375 41.085938 32.9375 C 40.367188 32.9375 39.78125 33.519531 39.78125 34.238281 C 39.78125 34.746094 40.054688 35.066406 40.21875 35.210938 L 41.085938 35.992188 L 41.085938 36.847656 L 48.914062 36.847656 L 48.914062 35.992188 L 49.78125 35.210938 C 49.945312 35.066406 50.21875 34.746094 50.21875 34.238281 C 50.21875 33.519531 49.632812 32.9375 48.914062 32.9375 Z M 48.914062 32.9375 "/>
</svg>
