<?xml version="1.0" encoding="UTF-8"?>
<svg xmlns="http://www.w3.org/2000/svg" xmlns:xlink="http://www.w3.org/1999/xlink" width="40" height="40" viewBox="0 0 40 40">
<path fill-rule="nonzero" fill="rgb(100%, 85.490196%, 26.666667%)" fill-opacity="1" d="M 40 20 C 40 31.046875 31.046875 40 20 40 C 8.953125 40 0 31.046875 0 20 C 0 8.953125 8.953125 0 20 0 C 31.046875 0 40 8.953125 40 20 Z M 40 20 "/>
<path fill-rule="evenodd" fill="rgb(93.333333%, 93.333333%, 93.333333%)" fill-opacity="1" d="M 5.671875 6.046875 L 38.828125 26.765625 C 38.339844 28.117188 37.714844 29.402344 36.960938 30.601562 L 3.039062 9.398438 C 3.796875 8.1875 4.679688 7.0625 5.671875 6.046875 Z M 5.671875 6.046875 "/>
<path fill-rule="evenodd" fill="rgb(20%, 20%, 20%)" fill-opacity="1" d="M 3.039062 9.398438 L 36.960938 30.601562 C 36.203125 31.8125 35.320312 32.9375 34.328125 33.953125 L 1.171875 13.234375 C 1.660156 11.882812 2.285156 10.597656 3.039062 9.398438 Z M 3.039062 9.398438 "/>
<path fill-rule="evenodd" fill="rgb(84.705882%, 0%, 15.294118%)" fill-opacity="1" d="M 21.304688 11.304688 L 18.695312 11.304688 L 18.695312 13.914062 L 15.652344 13.914062 C 15.652344 14.515625 16.175781 15 16.777344 15 L 16.738281 15 C 16.738281 15.601562 17.226562 16.085938 17.828125 16.085938 C 17.828125 16.613281 18.199219 17.050781 18.695312 17.152344 L 18.695312 23.328125 C 16.203125 22.738281 14.347656 20.5 14.347656 17.828125 C 14.347656 16.851562 14.59375 15.9375 15.027344 15.136719 C 13.800781 16.390625 13.042969 18.105469 13.042969 20 C 13.042969 22.078125 13.957031 23.941406 15.398438 25.214844 L 13.914062 25.214844 L 13.914062 26.085938 L 12.175781 26.085938 L 12.175781 28.695312 L 17.390625 28.695312 L 17.390625 27.824219 L 22.609375 27.824219 L 22.609375 28.695312 L 27.824219 28.695312 L 27.824219 26.085938 L 26.085938 26.085938 L 26.085938 25.214844 L 24.601562 25.214844 C 26.046875 23.941406 26.957031 22.078125 26.957031 20 C 26.957031 18.105469 26.199219 16.390625 24.972656 15.136719 C 25.40625 15.9375 25.652344 16.851562 25.652344 17.828125 C 25.652344 20.5 23.796875 22.738281 21.304688 23.328125 L 21.304688 17.152344 C 21.800781 17.050781 22.175781 16.613281 22.175781 16.085938 C 22.773438 16.085938 23.261719 15.601562 23.261719 15 L 23.226562 15 C 23.824219 15 24.347656 14.515625 24.347656 13.914062 L 21.304688 13.914062 Z M 21.304688 11.304688 "/>
</svg>
