<?xml version="1.0" encoding="UTF-8"?>
<svg xmlns="http://www.w3.org/2000/svg" xmlns:xlink="http://www.w3.org/1999/xlink" width="20" height="20" viewBox="0 0 20 20">
<path fill-rule="nonzero" fill="rgb(100%, 85.490196%, 26.666667%)" fill-opacity="1" d="M 20 10 C 20 15.523438 15.523438 20 10 20 C 4.476562 20 0 15.523438 0 10 C 0 4.476562 4.476562 0 10 0 C 15.523438 0 20 4.476562 20 10 Z M 20 10 "/>
<path fill-rule="evenodd" fill="rgb(93.333333%, 93.333333%, 93.333333%)" fill-opacity="1" d="M 2.835938 3.023438 L 19.414062 13.382812 C 19.171875 14.058594 18.855469 14.703125 18.480469 15.300781 L 1.519531 4.699219 C 1.898438 4.09375 2.339844 3.53125 2.835938 3.023438 Z M 2.835938 3.023438 "/>
<path fill-rule="evenodd" fill="rgb(20%, 20%, 20%)" fill-opacity="1" d="M 1.519531 4.699219 L 18.480469 15.300781 C 18.101562 15.90625 17.660156 16.46875 17.164062 16.976562 L 0.585938 6.617188 C 0.828125 5.941406 1.144531 5.296875 1.519531 4.699219 Z M 1.519531 4.699219 "/>
<path fill-rule="evenodd" fill="rgb(84.705882%, 0%, 15.294118%)" fill-opacity="1" d="M 10.652344 5.652344 L 9.347656 5.652344 L 9.347656 6.957031 L 7.828125 6.957031 C 7.828125 7.257812 8.089844 7.5 8.386719 7.5 L 8.371094 7.5 C 8.371094 7.800781 8.613281 8.042969 8.914062 8.042969 C 8.914062 8.304688 9.101562 8.527344 9.347656 8.578125 L 9.347656 11.664062 C 8.101562 11.367188 7.175781 10.25 7.175781 8.914062 C 7.175781 8.425781 7.296875 7.96875 7.515625 7.570312 C 6.902344 8.195312 6.523438 9.054688 6.523438 10 C 6.523438 11.039062 6.976562 11.972656 7.699219 12.609375 L 6.957031 12.609375 L 6.957031 13.042969 L 6.085938 13.042969 L 6.085938 14.347656 L 8.695312 14.347656 L 8.695312 13.914062 L 11.304688 13.914062 L 11.304688 14.347656 L 13.914062 14.347656 L 13.914062 13.042969 L 13.042969 13.042969 L 13.042969 12.609375 L 12.300781 12.609375 C 13.023438 11.972656 13.476562 11.039062 13.476562 10 C 13.476562 9.054688 13.097656 8.195312 12.484375 7.570312 C 12.703125 7.96875 12.824219 8.425781 12.824219 8.914062 C 12.824219 10.25 11.898438 11.367188 10.652344 11.664062 L 10.652344 8.578125 C 10.898438 8.527344 11.085938 8.304688 11.085938 8.042969 C 11.386719 8.042969 11.628906 7.800781 11.628906 7.5 L 11.613281 7.5 C 11.914062 7.5 12.171875 7.257812 12.171875 6.957031 L 10.652344 6.957031 Z M 10.652344 5.652344 "/>
</svg>
