<?xml version="1.0" encoding="UTF-8"?>
<svg xmlns="http://www.w3.org/2000/svg" xmlns:xlink="http://www.w3.org/1999/xlink" width="60" height="60" viewBox="0 0 60 60">
<path fill-rule="nonzero" fill="rgb(100%, 85.490196%, 26.666667%)" fill-opacity="1" d="M 60 30 C 60 46.570312 46.570312 60 30 60 C 13.429688 60 0 46.570312 0 30 C 0 13.429688 13.429688 0 30 0 C 46.570312 0 60 13.429688 60 30 Z M 60 30 "/>
<path fill-rule="evenodd" fill="rgb(93.333333%, 93.333333%, 93.333333%)" fill-opacity="1" d="M 8.507812 9.066406 L 58.238281 40.148438 C 57.511719 42.175781 56.570312 44.105469 55.445312 45.902344 L 4.558594 14.097656 C 5.695312 12.28125 7.023438 10.59375 8.511719 9.066406 Z M 8.507812 9.066406 "/>
<path fill-rule="evenodd" fill="rgb(20%, 20%, 20%)" fill-opacity="1" d="M 4.558594 14.097656 L 55.441406 45.902344 C 54.304688 47.71875 52.980469 49.40625 51.492188 50.933594 L 1.757812 19.851562 C 2.488281 17.824219 3.429688 15.894531 4.554688 14.097656 Z M 4.558594 14.097656 "/>
<path fill-rule="evenodd" fill="rgb(84.705882%, 0%, 15.294118%)" fill-opacity="1" d="M 31.957031 16.957031 L 28.042969 16.957031 L 28.042969 20.871094 L 23.480469 20.871094 C 23.480469 21.769531 24.265625 22.5 25.164062 22.5 L 25.109375 22.5 C 25.109375 23.402344 25.839844 24.132812 26.742188 24.132812 C 26.742188 24.917969 27.300781 25.578125 28.042969 25.730469 L 28.042969 34.988281 C 24.304688 34.105469 21.523438 30.746094 21.523438 26.738281 C 21.523438 25.28125 21.890625 23.90625 22.542969 22.707031 C 20.703125 24.589844 19.566406 27.160156 19.566406 30 C 19.566406 33.117188 20.933594 35.914062 23.097656 37.824219 L 20.871094 37.824219 L 20.871094 39.128906 L 18.261719 39.128906 L 18.261719 43.042969 L 26.089844 43.042969 L 26.089844 41.738281 L 33.914062 41.738281 L 33.914062 43.042969 L 41.738281 43.042969 L 41.738281 39.128906 L 39.128906 39.128906 L 39.128906 37.824219 L 36.902344 37.824219 C 39.066406 35.914062 40.433594 33.117188 40.433594 30 C 40.433594 27.160156 39.296875 24.589844 37.457031 22.707031 C 38.109375 23.90625 38.476562 25.28125 38.476562 26.738281 C 38.476562 30.746094 35.695312 34.105469 31.957031 34.988281 L 31.957031 25.730469 C 32.703125 25.578125 33.261719 24.917969 33.261719 24.132812 C 34.160156 24.132812 34.890625 23.402344 34.890625 22.5 L 34.835938 22.5 C 35.738281 22.5 36.519531 21.769531 36.519531 20.871094 L 31.957031 20.871094 Z M 31.957031 16.957031 "/>
</svg>
