<?xml version="1.0" encoding="UTF-8"?>
<svg xmlns="http://www.w3.org/2000/svg" xmlns:xlink="http://www.w3.org/1999/xlink" width="60" height="60" viewBox="0 0 60 60">
<path fill-rule="nonzero" fill="rgb(84.705882%, 0%, 15.294118%)" fill-opacity="1" d="M 56.507812 44.0625 C 58.738281 39.867188 60 35.082031 60 30 C 60 24.917969 58.738281 20.132812 56.507812 15.9375 L 3.492188 15.9375 C 1.261719 20.132812 0 24.917969 0 30 C 0 35.082031 1.261719 39.867188 3.492188 44.0625 Z M 56.507812 44.0625 "/>
<path fill-rule="nonzero" fill="rgb(42.745098%, 64.705882%, 26.666667%)" fill-opacity="1" d="M 58.179688 40.3125 C 53.976562 51.800781 42.945312 60 30 60 C 17.054688 60 6.023438 51.800781 1.820312 40.3125 Z M 58.179688 40.3125 "/>
<path fill-rule="nonzero" fill="rgb(93.333333%, 93.333333%, 93.333333%)" fill-opacity="1" d="M 58.179688 19.6875 L 1.820312 19.6875 C 6.023438 8.199219 17.054688 0 30 0 C 42.945312 0 53.972656 8.199219 58.179688 19.6875 Z M 58.179688 19.6875 "/>
<path fill-rule="nonzero" fill="rgb(84.705882%, 0%, 15.294118%)" fill-opacity="1" d="M 19.6875 1.820312 L 19.6875 58.179688 C 8.199219 53.976562 0 42.945312 0 30 C 0 17.054688 8.199219 6.023438 19.6875 1.820312 Z M 19.6875 1.820312 "/>
<path fill-rule="nonzero" fill="rgb(93.333333%, 93.333333%, 93.333333%)" fill-opacity="1" d="M 15.125 19.089844 L 13.125 15.625 L 11.125 19.089844 L 9.5 18.152344 L 11.5 14.6875 L 7.5 14.6875 L 7.5 12.8125 L 11.5 12.8125 L 9.5 9.347656 L 11.125 8.410156 L 13.125 11.875 L 15.125 8.410156 L 16.75 9.347656 L 14.75 12.8125 L 18.75 12.8125 L 18.75 14.6875 L 14.75 14.6875 L 16.75 18.152344 Z M 15.125 19.089844 "/>
</svg>
