<?xml version="1.0" encoding="UTF-8"?>
<svg xmlns="http://www.w3.org/2000/svg" xmlns:xlink="http://www.w3.org/1999/xlink" width="40" height="40" viewBox="0 0 40 40">
<path fill-rule="nonzero" fill="rgb(84.705882%, 0%, 15.294118%)" fill-opacity="1" d="M 37.671875 29.375 C 39.15625 26.578125 40 23.386719 40 20 C 40 16.613281 39.15625 13.421875 37.671875 10.625 L 2.328125 10.625 C 0.84375 13.421875 0 16.613281 0 20 C 0 23.386719 0.84375 26.578125 2.328125 29.375 Z M 37.671875 29.375 "/>
<path fill-rule="nonzero" fill="rgb(42.745098%, 64.705882%, 26.666667%)" fill-opacity="1" d="M 38.785156 26.875 C 35.984375 34.535156 28.628906 40 20 40 C 11.371094 40 4.015625 34.535156 1.214844 26.875 L 38.789062 26.875 Z M 38.785156 26.875 "/>
<path fill-rule="nonzero" fill="rgb(93.333333%, 93.333333%, 93.333333%)" fill-opacity="1" d="M 38.785156 13.125 L 1.210938 13.125 C 4.015625 5.464844 11.371094 0 20 0 C 28.628906 0 35.984375 5.464844 38.785156 13.125 Z M 38.785156 13.125 "/>
<path fill-rule="nonzero" fill="rgb(84.705882%, 0%, 15.294118%)" fill-opacity="1" d="M 13.125 1.214844 L 13.125 38.789062 C 5.464844 35.984375 0 28.628906 0 20 C 0 11.371094 5.464844 4.015625 13.125 1.214844 Z M 13.125 1.214844 "/>
<path fill-rule="nonzero" fill="rgb(93.333333%, 93.333333%, 93.333333%)" fill-opacity="1" d="M 10.082031 12.726562 L 8.75 10.417969 L 7.417969 12.726562 L 6.332031 12.101562 L 7.667969 9.792969 L 5 9.792969 L 5 8.542969 L 7.667969 8.542969 L 6.332031 6.230469 L 7.417969 5.605469 L 8.75 7.917969 L 10.082031 5.605469 L 11.167969 6.230469 L 9.832031 8.542969 L 12.5 8.542969 L 12.5 9.792969 L 9.832031 9.792969 L 11.167969 12.101562 Z M 10.082031 12.726562 "/>
</svg>
