<svg width="24" height="25" viewBox="0 0 24 25" fill="none" xmlns="http://www.w3.org/2000/svg">
<g id="FAVS">
<path id="fav_icon" d="M11.9709 6.88591L11.2711 7.60024L11.9648 8.27993L12.6645 7.60626L11.9709 6.88591ZM13.0962 5.80239L12.4025 5.08204V5.08204L13.0962 5.80239ZM19.6549 5.89541L18.9409 6.59559L19.6549 5.89541ZM19.6803 12.5079L18.9614 11.8128L18.9504 11.8241L18.9399 11.8358L19.6803 12.5079ZM11.9709 21L11.2286 21.6701L11.9688 22.49L12.7113 21.6722L11.9709 21ZM4.30453 12.5079L5.0468 11.8378L5.03707 11.827L5.02702 11.8166L4.30453 12.5079ZM4.34421 5.91472L3.63025 5.21454L3.63025 5.21454L4.34421 5.91472ZM4.38209 5.87609L5.09606 6.57628L5.09606 6.57627L4.38209 5.87609ZM10.8765 5.8138L11.5763 5.09947V5.09947L10.8765 5.8138ZM12.6645 7.60626L13.7898 6.52273L12.4025 5.08204L11.2772 6.16556L12.6645 7.60626ZM13.7898 6.52273C15.2376 5.12867 17.5392 5.16631 18.9409 6.59559L20.3688 5.19523C18.2002 2.98388 14.6423 2.92538 12.4025 5.08204L13.7898 6.52273ZM18.9409 6.59559C20.3439 8.02618 20.3549 10.3716 18.9614 11.8128L20.3992 13.2031C22.5479 10.9808 22.5289 7.39785 20.3688 5.19523L18.9409 6.59559ZM18.9399 11.8358L11.2305 20.3278L12.7113 21.6722L20.4207 13.1801L18.9399 11.8358ZM12.7131 20.3299L5.0468 11.8378L3.56225 13.178L11.2286 21.6701L12.7131 20.3299ZM5.02702 11.8166C3.64686 10.3743 3.65824 8.04241 5.05818 6.6149L3.63025 5.21454C1.47285 7.41441 1.45663 10.9782 3.58203 13.1993L5.02702 11.8166ZM5.05818 6.6149L5.09606 6.57628L3.66813 5.17591L3.63025 5.21454L5.05818 6.6149ZM5.09606 6.57627C6.48358 5.16144 8.75892 5.13916 10.1767 6.52813L11.5763 5.09947C9.37108 2.93905 5.83001 2.97146 3.66813 5.17591L5.09606 6.57627ZM10.1767 6.52813L11.2711 7.60024L12.6707 6.17158L11.5763 5.09947L10.1767 6.52813Z" fill="white"/>
</g>
</svg>
