<?xml version="1.0" encoding="UTF-8"?>
<svg xmlns="http://www.w3.org/2000/svg" xmlns:xlink="http://www.w3.org/1999/xlink" width="60" height="60" viewBox="0 0 60 60">
<path fill-rule="nonzero" fill="rgb(0%, 32.156863%, 70.588235%)" fill-opacity="1" d="M 0 28.777344 C 0.640625 12.777344 13.816406 0 29.976562 0 C 29.984375 0 29.992188 0 30 0 L 30 30 L 0 30 Z M 0 28.777344 "/>
<path fill-rule="nonzero" fill="rgb(84.705882%, 0%, 15.294118%)" fill-opacity="1" d="M 31.222656 0 C 47.222656 0.640625 60 13.816406 60 29.976562 L 60 30 L 30 30 L 30 0 Z M 31.222656 0 "/>
<path fill-rule="nonzero" fill="rgb(0%, 32.156863%, 70.588235%)" fill-opacity="1" d="M 60 31.222656 C 59.359375 47.222656 46.183594 60 30.023438 60 L 30 60 L 30 30 L 60 30 Z M 60 31.222656 "/>
<path fill-rule="nonzero" fill="rgb(84.705882%, 0%, 15.294118%)" fill-opacity="1" d="M 28.777344 60 C 12.777344 59.359375 0 46.183594 0 30.023438 C 0 30.015625 0 30.007812 0 30 L 30 30 L 30 60 Z M 28.777344 60 "/>
<path fill-rule="nonzero" fill="rgb(93.333333%, 93.333333%, 93.333333%)" fill-opacity="1" d="M 33.75 0.230469 C 35.027344 0.390625 36.277344 0.628906 37.5 0.945312 L 37.5 22.5 L 59.054688 22.5 C 59.371094 23.722656 59.609375 24.972656 59.769531 26.25 L 56.25 30 L 59.769531 33.75 C 59.609375 35.027344 59.371094 36.277344 59.054688 37.5 L 37.5 37.5 L 37.5 59.054688 C 36.277344 59.371094 35.027344 59.609375 33.75 59.769531 L 30 56.25 L 26.25 59.769531 C 24.972656 59.609375 23.722656 59.371094 22.5 59.054688 L 22.5 37.5 L 0.945312 37.5 C 0.632812 36.277344 0.390625 35.027344 0.234375 33.75 L 3.75 30 L 0.234375 26.25 C 0.390625 24.972656 0.632812 23.722656 0.945312 22.5 L 22.5 22.5 L 22.5 0.945312 C 23.722656 0.628906 24.972656 0.390625 26.25 0.230469 L 30 3.75 Z M 33.75 0.230469 "/>
<path fill-rule="nonzero" fill="rgb(93.333333%, 93.333333%, 93.333333%)" fill-opacity="1" d="M 33.75 0.230469 C 32.539062 0.0820312 31.308594 0.00390625 30.058594 0 L 29.941406 0 C 28.691406 0.00390625 27.460938 0.0820312 26.25 0.230469 L 26.25 26.25 L 0.230469 26.25 C 0.078125 27.476562 0 28.730469 0 30 C 0 31.269531 0.078125 32.523438 0.230469 33.75 L 26.25 33.75 L 26.25 59.769531 C 27.476562 59.921875 28.730469 60 30 60 C 31.269531 60 32.523438 59.921875 33.75 59.769531 L 33.75 33.75 L 59.769531 33.75 C 59.921875 32.523438 60 31.269531 60 30 C 60 28.730469 59.921875 27.476562 59.769531 26.25 L 33.75 26.25 Z M 33.75 0.230469 "/>
<path fill-rule="nonzero" fill="rgb(84.705882%, 0%, 15.294118%)" fill-opacity="1" d="M 24.378906 24.066406 L 24.378906 30.3125 C 24.378906 33.417969 26.894531 35.933594 30 35.933594 C 33.105469 35.933594 35.621094 33.417969 35.621094 30.3125 L 35.621094 24.066406 Z M 24.378906 24.066406 "/>
<path fill-rule="evenodd" fill="rgb(0%, 32.156863%, 70.588235%)" fill-opacity="1" d="M 24.378906 30 L 30 30 L 30 24.066406 L 24.378906 24.066406 Z M 35.621094 30 L 30 30 L 30 35.933594 L 30.011719 35.933594 C 33.113281 35.925781 35.621094 33.414062 35.621094 30.3125 Z M 35.621094 30 "/>
<path fill-rule="evenodd" fill="rgb(42.745098%, 64.705882%, 26.666667%)" fill-opacity="1" d="M 28.230469 28.808594 L 28.050781 29.367188 C 27.949219 29.675781 27.921875 30 27.972656 30.320312 C 28.023438 30.640625 28.152344 30.945312 28.339844 31.207031 C 28.53125 31.46875 28.78125 31.679688 29.070312 31.828125 C 29.355469 31.972656 29.675781 32.050781 30 32.050781 C 30.324219 32.050781 30.640625 31.972656 30.929688 31.828125 C 31.21875 31.679688 31.46875 31.46875 31.660156 31.207031 C 31.847656 30.945312 31.976562 30.640625 32.023438 30.320312 C 32.074219 30 32.050781 29.675781 31.949219 29.367188 L 31.769531 28.808594 L 32.882812 28.445312 L 33.066406 29.003906 C 33.222656 29.488281 33.261719 30.003906 33.183594 30.503906 C 33.101562 31.007812 32.90625 31.484375 32.605469 31.894531 C 32.308594 32.304688 31.917969 32.640625 31.460938 32.871094 C 31.007812 33.101562 30.507812 33.222656 30 33.222656 C 29.492188 33.222656 28.988281 33.101562 28.535156 32.871094 C 28.082031 32.640625 27.691406 32.304688 27.394531 31.894531 C 27.09375 31.484375 26.894531 31.007812 26.816406 30.503906 C 26.738281 30.003906 26.777344 29.488281 26.933594 29.003906 L 27.117188 28.445312 Z M 28.230469 28.808594 "/>
</svg>
