<?xml version="1.0" encoding="UTF-8"?>
<svg xmlns="http://www.w3.org/2000/svg" xmlns:xlink="http://www.w3.org/1999/xlink" width="20" height="20" viewBox="0 0 20 20">
<path fill-rule="nonzero" fill="rgb(0%, 32.156863%, 70.588235%)" fill-opacity="1" d="M 0 9.59375 C 0.214844 4.257812 4.605469 0 9.992188 0 C 9.996094 0 9.996094 0 10 0 L 10 10 L 0 10 Z M 0 9.59375 "/>
<path fill-rule="nonzero" fill="rgb(84.705882%, 0%, 15.294118%)" fill-opacity="1" d="M 10.40625 0 C 15.742188 0.214844 20 4.605469 20 9.992188 L 20 10 L 10 10 L 10 0 Z M 10.40625 0 "/>
<path fill-rule="nonzero" fill="rgb(0%, 32.156863%, 70.588235%)" fill-opacity="1" d="M 20 10.40625 C 19.785156 15.742188 15.394531 20 10.007812 20 L 10 20 L 10 10 L 20 10 Z M 20 10.40625 "/>
<path fill-rule="nonzero" fill="rgb(84.705882%, 0%, 15.294118%)" fill-opacity="1" d="M 9.59375 20 C 4.257812 19.785156 0 15.394531 0 10.007812 C 0 10.003906 0 10.003906 0 10 L 10 10 L 10 20 Z M 9.59375 20 "/>
<path fill-rule="nonzero" fill="rgb(93.333333%, 93.333333%, 93.333333%)" fill-opacity="1" d="M 11.25 0.078125 C 11.675781 0.128906 12.09375 0.210938 12.5 0.316406 L 12.5 7.5 L 19.683594 7.5 C 19.789062 7.90625 19.871094 8.324219 19.921875 8.75 L 18.75 10 L 19.921875 11.25 C 19.871094 11.675781 19.789062 12.09375 19.683594 12.5 L 12.5 12.5 L 12.5 19.683594 C 12.09375 19.789062 11.675781 19.871094 11.25 19.921875 L 10 18.75 L 8.75 19.921875 C 8.324219 19.871094 7.90625 19.789062 7.5 19.683594 L 7.5 12.5 L 0.316406 12.5 C 0.210938 12.09375 0.128906 11.675781 0.078125 11.25 L 1.25 10 L 0.078125 8.75 C 0.128906 8.324219 0.210938 7.90625 0.316406 7.5 L 7.5 7.5 L 7.5 0.316406 C 7.90625 0.210938 8.324219 0.128906 8.75 0.078125 L 10 1.25 Z M 11.25 0.078125 "/>
<path fill-rule="nonzero" fill="rgb(93.333333%, 93.333333%, 93.333333%)" fill-opacity="1" d="M 11.25 0.078125 C 10.847656 0.0273438 10.4375 0 10.019531 0 L 9.980469 0 C 9.5625 0 9.152344 0.0273438 8.75 0.078125 L 8.75 8.75 L 0.078125 8.75 C 0.0273438 9.160156 0 9.578125 0 10 C 0 10.421875 0.0273438 10.839844 0.078125 11.25 L 8.75 11.25 L 8.75 19.921875 C 9.160156 19.972656 9.578125 20 10 20 C 10.421875 20 10.839844 19.972656 11.25 19.921875 L 11.25 11.25 L 19.921875 11.25 C 19.972656 10.839844 20 10.421875 20 10 C 20 9.578125 19.972656 9.160156 19.921875 8.75 L 11.25 8.75 Z M 11.25 0.078125 "/>
<path fill-rule="nonzero" fill="rgb(84.705882%, 0%, 15.294118%)" fill-opacity="1" d="M 8.125 8.023438 L 8.125 10.105469 C 8.125 11.140625 8.964844 11.976562 10 11.976562 C 11.035156 11.976562 11.875 11.140625 11.875 10.105469 L 11.875 8.023438 Z M 8.125 8.023438 "/>
<path fill-rule="evenodd" fill="rgb(0%, 32.156863%, 70.588235%)" fill-opacity="1" d="M 8.125 10 L 10 10 L 10 8.023438 L 8.125 8.023438 Z M 11.875 10 L 10 10 L 10 11.976562 L 10.003906 11.976562 C 11.039062 11.976562 11.875 11.136719 11.875 10.105469 Z M 11.875 10 "/>
<path fill-rule="evenodd" fill="rgb(42.745098%, 64.705882%, 26.666667%)" fill-opacity="1" d="M 9.410156 9.601562 L 9.351562 9.789062 C 9.316406 9.890625 9.308594 10 9.324219 10.105469 C 9.339844 10.214844 9.382812 10.316406 9.445312 10.402344 C 9.511719 10.488281 9.59375 10.558594 9.691406 10.609375 C 9.785156 10.65625 9.890625 10.683594 10 10.683594 C 10.109375 10.683594 10.214844 10.65625 10.308594 10.609375 C 10.40625 10.558594 10.488281 10.488281 10.554688 10.402344 C 10.617188 10.316406 10.660156 10.214844 10.675781 10.105469 C 10.691406 10 10.683594 9.890625 10.648438 9.789062 L 10.589844 9.601562 L 10.960938 9.484375 L 11.023438 9.667969 C 11.074219 9.828125 11.085938 10 11.0625 10.167969 C 11.035156 10.335938 10.96875 10.496094 10.867188 10.632812 C 10.769531 10.769531 10.640625 10.878906 10.488281 10.957031 C 10.335938 11.035156 10.167969 11.074219 10 11.074219 C 9.832031 11.074219 9.664062 11.035156 9.511719 10.957031 C 9.359375 10.878906 9.230469 10.769531 9.132812 10.632812 C 9.03125 10.496094 8.964844 10.335938 8.9375 10.167969 C 8.914062 10 8.925781 9.828125 8.976562 9.667969 L 9.039062 9.484375 Z M 9.410156 9.601562 "/>
</svg>
