<?xml version="1.0" encoding="UTF-8"?>
<svg xmlns="http://www.w3.org/2000/svg" xmlns:xlink="http://www.w3.org/1999/xlink" width="40" height="40" viewBox="0 0 40 40">
<path fill-rule="nonzero" fill="rgb(0%, 32.156863%, 70.588235%)" fill-opacity="1" d="M 0 19.1875 C 0.425781 8.515625 9.210938 0 19.984375 0 C 19.988281 0 19.996094 0 20 0 L 20 20 L 0 20 Z M 0 19.1875 "/>
<path fill-rule="nonzero" fill="rgb(84.705882%, 0%, 15.294118%)" fill-opacity="1" d="M 20.8125 0 C 31.484375 0.425781 40 9.210938 40 19.984375 L 40 20 L 20 20 L 20 0 Z M 20.8125 0 "/>
<path fill-rule="nonzero" fill="rgb(0%, 32.156863%, 70.588235%)" fill-opacity="1" d="M 40 20.8125 C 39.574219 31.484375 30.789062 40 20.015625 40 L 20 40 L 20 20 L 40 20 Z M 40 20.8125 "/>
<path fill-rule="nonzero" fill="rgb(84.705882%, 0%, 15.294118%)" fill-opacity="1" d="M 19.1875 40 C 8.515625 39.574219 0 30.789062 0 20.015625 C 0 20.011719 0 20.003906 0 20 L 20 20 L 20 40 Z M 19.1875 40 "/>
<path fill-rule="nonzero" fill="rgb(93.333333%, 93.333333%, 93.333333%)" fill-opacity="1" d="M 22.5 0.15625 C 23.351562 0.261719 24.1875 0.421875 25 0.628906 L 25 15 L 39.371094 15 C 39.578125 15.816406 39.738281 16.648438 39.84375 17.5 L 37.5 20 L 39.84375 22.5 C 39.738281 23.351562 39.578125 24.1875 39.371094 25 L 25 25 L 25 39.371094 C 24.1875 39.578125 23.351562 39.738281 22.5 39.84375 L 20 37.5 L 17.5 39.84375 C 16.648438 39.738281 15.8125 39.578125 15 39.371094 L 15 25 L 0.628906 25 C 0.421875 24.1875 0.261719 23.351562 0.15625 22.5 L 2.5 20 L 0.15625 17.5 C 0.261719 16.648438 0.421875 15.816406 0.628906 15 L 15 15 L 15 0.628906 C 15.816406 0.421875 16.648438 0.261719 17.5 0.15625 L 20 2.5 Z M 22.5 0.15625 "/>
<path fill-rule="nonzero" fill="rgb(93.333333%, 93.333333%, 93.333333%)" fill-opacity="1" d="M 22.5 0.15625 C 21.695312 0.0546875 20.871094 0 20.039062 0 L 19.960938 0 C 19.128906 0 18.304688 0.0546875 17.5 0.15625 L 17.5 17.5 L 0.15625 17.5 C 0.0507812 18.320312 0 19.152344 0 20 C 0 20.847656 0.0507812 21.679688 0.15625 22.5 L 17.5 22.5 L 17.5 39.84375 C 18.320312 39.949219 19.152344 40 20 40 C 20.847656 40 21.679688 39.949219 22.5 39.84375 L 22.5 22.5 L 39.84375 22.5 C 39.949219 21.679688 40 20.847656 40 20 C 40 19.152344 39.949219 18.320312 39.84375 17.5 L 22.5 17.5 Z M 22.5 0.15625 "/>
<path fill-rule="nonzero" fill="rgb(84.705882%, 0%, 15.294118%)" fill-opacity="1" d="M 16.25 16.042969 L 16.25 20.207031 C 16.25 22.277344 17.929688 23.957031 20 23.957031 C 22.070312 23.957031 23.746094 22.277344 23.746094 20.207031 L 23.746094 16.042969 Z M 16.25 16.042969 "/>
<path fill-rule="evenodd" fill="rgb(0%, 32.156863%, 70.588235%)" fill-opacity="1" d="M 16.25 20 L 20 20 L 20 16.042969 L 16.25 16.042969 Z M 23.746094 20 L 20 20 L 20 23.957031 L 20.007812 23.957031 C 22.074219 23.953125 23.746094 22.273438 23.746094 20.207031 Z M 23.746094 20 "/>
<path fill-rule="evenodd" fill="rgb(42.745098%, 64.705882%, 26.666667%)" fill-opacity="1" d="M 18.820312 19.207031 L 18.699219 19.578125 C 18.632812 19.78125 18.617188 20 18.648438 20.214844 C 18.683594 20.425781 18.765625 20.628906 18.894531 20.804688 C 19.019531 20.976562 19.1875 21.121094 19.378906 21.21875 C 19.570312 21.316406 19.785156 21.367188 20 21.367188 C 20.214844 21.367188 20.429688 21.316406 20.621094 21.21875 C 20.8125 21.121094 20.980469 20.976562 21.105469 20.804688 C 21.234375 20.628906 21.316406 20.425781 21.351562 20.214844 C 21.382812 20 21.367188 19.78125 21.300781 19.578125 L 21.179688 19.207031 L 21.921875 18.964844 L 22.042969 19.335938 C 22.148438 19.660156 22.175781 20 22.121094 20.335938 C 22.070312 20.671875 21.9375 20.988281 21.738281 21.261719 C 21.539062 21.539062 21.277344 21.761719 20.976562 21.914062 C 20.671875 22.070312 20.339844 22.148438 20 22.148438 C 19.660156 22.148438 19.328125 22.070312 19.023438 21.914062 C 18.722656 21.761719 18.460938 21.539062 18.261719 21.261719 C 18.0625 20.988281 17.929688 20.671875 17.878906 20.335938 C 17.824219 20 17.851562 19.660156 17.957031 19.335938 L 18.078125 18.964844 Z M 18.820312 19.207031 "/>
</svg>
