<?xml version="1.0" encoding="UTF-8"?>
<svg xmlns="http://www.w3.org/2000/svg" xmlns:xlink="http://www.w3.org/1999/xlink" width="20" height="20" viewBox="0 0 20 20">
<path fill-rule="nonzero" fill="rgb(93.333333%, 93.333333%, 93.333333%)" fill-opacity="1" d="M 18.835938 14.6875 C 19.578125 13.289062 20 11.695312 20 10 C 20 8.304688 19.578125 6.710938 18.835938 5.3125 L 1.164062 5.3125 C 0.421875 6.710938 0 8.304688 0 10 C 0 11.695312 0.421875 13.289062 1.164062 14.6875 Z M 18.835938 14.6875 "/>
<path fill-rule="nonzero" fill="rgb(20%, 20%, 20%)" fill-opacity="1" d="M 19.394531 13.4375 C 17.992188 17.265625 14.316406 20 10 20 C 5.683594 20 2.007812 17.265625 0.605469 13.4375 Z M 19.394531 13.4375 "/>
<path fill-rule="nonzero" fill="rgb(84.705882%, 0%, 15.294118%)" fill-opacity="1" d="M 19.394531 6.5625 L 0.605469 6.5625 C 2.007812 2.734375 5.683594 0 10 0 C 14.316406 0 17.992188 2.734375 19.394531 6.5625 Z M 19.394531 6.5625 "/>
<path fill-rule="evenodd" fill="rgb(52.156863%, 41.176471%, 23.921569%)" fill-opacity="1" d="M 10.644531 8.757812 C 10.574219 8.230469 10.101562 7.824219 9.535156 7.824219 C 9.25 7.824219 8.992188 7.925781 8.796875 8.09375 C 9.136719 8.132812 9.402344 8.410156 9.402344 8.75 C 9.402344 8.753906 9.402344 8.757812 9.402344 8.761719 L 7.613281 8.515625 C 7.496094 8.5 7.390625 8.59375 7.390625 8.710938 L 7.390625 11.816406 C 7.871094 11.816406 8.261719 11.414062 8.261719 10.953125 L 8.261719 10.984375 C 8.515625 10.984375 8.742188 10.878906 8.902344 10.710938 L 9.03125 10.882812 L 8.261719 12.171875 L 11.738281 12.171875 L 10.96875 10.882812 L 11.097656 10.710938 C 11.257812 10.878906 11.484375 10.984375 11.738281 10.984375 L 11.738281 10.953125 C 11.738281 11.414062 12.128906 11.816406 12.609375 11.816406 L 12.609375 8.710938 C 12.609375 8.59375 12.503906 8.5 12.386719 8.515625 Z M 10.644531 8.757812 "/>
</svg>
