<?xml version="1.0" encoding="UTF-8"?>
<svg xmlns="http://www.w3.org/2000/svg" xmlns:xlink="http://www.w3.org/1999/xlink" width="60" height="60" viewBox="0 0 60 60">
<path fill-rule="nonzero" fill="rgb(93.333333%, 93.333333%, 93.333333%)" fill-opacity="1" d="M 56.507812 44.0625 C 58.738281 39.867188 60 35.082031 60 30 C 60 24.917969 58.738281 20.132812 56.507812 15.9375 L 3.492188 15.9375 C 1.261719 20.132812 0 24.917969 0 30 C 0 35.082031 1.261719 39.867188 3.492188 44.0625 Z M 56.507812 44.0625 "/>
<path fill-rule="nonzero" fill="rgb(20%, 20%, 20%)" fill-opacity="1" d="M 58.179688 40.3125 C 53.976562 51.800781 42.945312 60 30 60 C 17.054688 60 6.023438 51.800781 1.820312 40.3125 Z M 58.179688 40.3125 "/>
<path fill-rule="nonzero" fill="rgb(84.705882%, 0%, 15.294118%)" fill-opacity="1" d="M 58.179688 19.6875 L 1.820312 19.6875 C 6.023438 8.199219 17.054688 0 30 0 C 42.945312 0 53.972656 8.199219 58.179688 19.6875 Z M 58.179688 19.6875 "/>
<path fill-rule="evenodd" fill="rgb(52.156863%, 41.176471%, 23.921569%)" fill-opacity="1" d="M 31.9375 26.269531 C 31.71875 24.695312 30.308594 23.476562 28.601562 23.476562 C 27.753906 23.476562 26.976562 23.78125 26.386719 24.277344 C 27.414062 24.394531 28.207031 25.230469 28.207031 26.246094 C 28.207031 26.257812 28.207031 26.273438 28.207031 26.289062 L 22.839844 25.550781 C 22.488281 25.5 22.171875 25.777344 22.171875 26.128906 L 22.171875 35.445312 C 23.613281 35.445312 24.78125 34.242188 24.78125 32.863281 L 24.78125 32.949219 C 25.542969 32.949219 26.230469 32.636719 26.707031 32.136719 L 27.09375 32.652344 L 24.785156 36.519531 L 35.214844 36.519531 L 32.90625 32.652344 L 33.292969 32.136719 C 33.769531 32.636719 34.453125 32.949219 35.21875 32.949219 L 35.21875 32.863281 C 35.21875 34.242188 36.382812 35.445312 37.824219 35.445312 L 37.824219 26.128906 C 37.824219 25.777344 37.511719 25.5 37.160156 25.550781 Z M 31.9375 26.269531 "/>
</svg>
