<?xml version="1.0" encoding="UTF-8"?>
<svg xmlns="http://www.w3.org/2000/svg" xmlns:xlink="http://www.w3.org/1999/xlink" width="40" height="40" viewBox="0 0 40 40">
<path fill-rule="nonzero" fill="rgb(93.333333%, 93.333333%, 93.333333%)" fill-opacity="1" d="M 37.671875 29.375 C 39.15625 26.578125 40 23.386719 40 20 C 40 16.613281 39.15625 13.421875 37.671875 10.625 L 2.328125 10.625 C 0.84375 13.421875 0 16.613281 0 20 C 0 23.386719 0.84375 26.578125 2.328125 29.375 Z M 37.671875 29.375 "/>
<path fill-rule="nonzero" fill="rgb(20%, 20%, 20%)" fill-opacity="1" d="M 38.785156 26.875 C 35.984375 34.535156 28.628906 40 20 40 C 11.371094 40 4.015625 34.535156 1.214844 26.875 L 38.789062 26.875 Z M 38.785156 26.875 "/>
<path fill-rule="nonzero" fill="rgb(84.705882%, 0%, 15.294118%)" fill-opacity="1" d="M 38.785156 13.125 L 1.210938 13.125 C 4.015625 5.464844 11.371094 0 20 0 C 28.628906 0 35.984375 5.464844 38.785156 13.125 Z M 38.785156 13.125 "/>
<path fill-rule="evenodd" fill="rgb(52.156863%, 41.176471%, 23.921569%)" fill-opacity="1" d="M 21.292969 17.511719 C 21.144531 16.460938 20.207031 15.652344 19.070312 15.652344 C 18.503906 15.652344 17.984375 15.851562 17.589844 16.183594 C 18.273438 16.261719 18.804688 16.820312 18.804688 17.496094 C 18.804688 17.507812 18.804688 17.515625 18.804688 17.527344 L 15.226562 17.035156 C 14.992188 17 14.78125 17.183594 14.78125 17.421875 L 14.78125 23.628906 C 15.742188 23.628906 16.519531 22.828125 16.519531 21.910156 L 16.519531 21.964844 C 17.03125 21.964844 17.488281 21.757812 17.804688 21.425781 L 18.0625 21.765625 L 16.523438 24.347656 L 23.476562 24.347656 L 21.9375 21.765625 L 22.195312 21.425781 C 22.511719 21.757812 22.96875 21.964844 23.476562 21.964844 L 23.476562 21.910156 C 23.476562 22.828125 24.257812 23.628906 25.21875 23.628906 L 25.21875 17.421875 C 25.21875 17.183594 25.007812 17 24.773438 17.035156 Z M 21.292969 17.511719 "/>
</svg>
