<?xml version="1.0" encoding="UTF-8"?>
<svg xmlns="http://www.w3.org/2000/svg" xmlns:xlink="http://www.w3.org/1999/xlink" width="60" height="60" viewBox="0 0 60 60">
<path fill-rule="nonzero" fill="rgb(28.627451%, 43.137255%, 17.647059%)" fill-opacity="1" d="M 60 30 C 60 46.570312 46.570312 60 30 60 C 13.429688 60 0 46.570312 0 30 C 0 13.429688 13.429688 0 30 0 C 46.570312 0 60 13.429688 60 30 Z M 60 30 "/>
<path fill-rule="evenodd" fill="rgb(93.333333%, 93.333333%, 93.333333%)" fill-opacity="1" d="M 35.21875 28.75 C 34.480469 28.75 33.78125 28.894531 33.132812 29.128906 C 33.488281 28.335938 33.726562 27.453125 33.726562 26.511719 C 33.726562 22.785156 30 19.992188 30 19.992188 C 30 19.992188 26.273438 22.785156 26.273438 26.511719 C 26.273438 27.453125 26.511719 28.335938 26.867188 29.128906 C 26.21875 28.894531 25.519531 28.75 24.78125 28.75 C 21.054688 28.75 18.261719 32.476562 18.261719 32.476562 C 18.261719 32.476562 21.054688 36.203125 24.78125 36.203125 C 26.96875 36.203125 28.832031 34.921875 30 33.859375 C 31.167969 34.921875 33.03125 36.203125 35.21875 36.203125 C 38.945312 36.203125 41.738281 32.476562 41.738281 32.476562 C 41.738281 32.476562 38.945312 28.75 35.21875 28.75 Z M 30 46.636719 C 32.960938 46.636719 35.6875 45.648438 37.878906 43.988281 L 22.121094 43.988281 C 24.3125 45.648438 27.039062 46.636719 30 46.636719 Z M 19.597656 41.460938 C 18.980469 40.644531 18.457031 39.757812 18.042969 38.8125 L 41.957031 38.8125 C 41.542969 39.757812 41.019531 40.644531 40.402344 41.460938 Z M 19.597656 41.460938 "/>
<path fill-rule="nonzero" fill="rgb(100%, 85.490196%, 26.666667%)" fill-opacity="1" d="M 30 11.738281 L 30.769531 14.109375 L 33.261719 14.109375 L 31.246094 15.570312 L 32.015625 17.941406 L 30 16.476562 L 27.984375 17.941406 L 28.753906 15.570312 L 26.738281 14.109375 L 29.230469 14.109375 Z M 30 11.738281 "/>
<path fill-rule="nonzero" fill="rgb(100%, 85.490196%, 26.666667%)" fill-opacity="1" d="M 20.527344 15.882812 L 22.007812 17.214844 L 23.734375 16.21875 L 22.925781 18.039062 L 24.40625 19.375 L 22.421875 19.164062 L 21.613281 20.984375 L 21.199219 19.035156 L 19.214844 18.828125 L 20.941406 17.832031 Z M 20.527344 15.882812 "/>
<path fill-rule="nonzero" fill="rgb(100%, 85.490196%, 26.666667%)" fill-opacity="1" d="M 13.59375 22.816406 L 15.542969 23.230469 L 16.539062 21.507812 L 16.746094 23.488281 L 18.695312 23.902344 L 16.875 24.714844 L 17.082031 26.695312 L 15.75 25.214844 L 13.929688 26.023438 L 14.925781 24.296875 Z M 13.59375 22.816406 "/>
<path fill-rule="nonzero" fill="rgb(100%, 85.490196%, 26.666667%)" fill-opacity="1" d="M 39.472656 15.882812 L 37.992188 17.214844 L 36.265625 16.21875 L 37.074219 18.039062 L 35.59375 19.375 L 37.578125 19.164062 L 38.386719 20.984375 L 38.800781 19.035156 L 40.785156 18.828125 L 39.058594 17.832031 Z M 39.472656 15.882812 "/>
<path fill-rule="nonzero" fill="rgb(100%, 85.490196%, 26.666667%)" fill-opacity="1" d="M 46.40625 22.816406 L 44.457031 23.230469 L 43.460938 21.507812 L 43.253906 23.488281 L 41.304688 23.902344 L 43.125 24.714844 L 42.917969 26.695312 L 44.25 25.214844 L 46.070312 26.023438 L 45.074219 24.296875 Z M 46.40625 22.816406 "/>
</svg>
