<?xml version="1.0" encoding="UTF-8"?>
<svg xmlns="http://www.w3.org/2000/svg" xmlns:xlink="http://www.w3.org/1999/xlink" width="40" height="40" viewBox="0 0 40 40">
<path fill-rule="nonzero" fill="rgb(28.627451%, 43.137255%, 17.647059%)" fill-opacity="1" d="M 40 20 C 40 31.046875 31.046875 40 20 40 C 8.953125 40 0 31.046875 0 20 C 0 8.953125 8.953125 0 20 0 C 31.046875 0 40 8.953125 40 20 Z M 40 20 "/>
<path fill-rule="evenodd" fill="rgb(93.333333%, 93.333333%, 93.333333%)" fill-opacity="1" d="M 23.476562 19.164062 C 22.988281 19.164062 22.519531 19.261719 22.089844 19.417969 C 22.324219 18.890625 22.484375 18.304688 22.484375 17.675781 C 22.484375 15.191406 20 13.328125 20 13.328125 C 20 13.328125 17.515625 15.191406 17.515625 17.675781 C 17.515625 18.304688 17.675781 18.890625 17.910156 19.417969 C 17.480469 19.265625 17.011719 19.164062 16.523438 19.164062 C 14.039062 19.164062 12.175781 21.648438 12.175781 21.648438 C 12.175781 21.648438 14.039062 24.132812 16.523438 24.132812 C 17.976562 24.132812 19.21875 23.28125 20 22.574219 C 20.777344 23.28125 22.023438 24.132812 23.476562 24.132812 C 25.960938 24.132812 27.824219 21.648438 27.824219 21.648438 C 27.824219 21.648438 25.960938 19.164062 23.476562 19.164062 Z M 20 31.089844 C 21.972656 31.089844 23.792969 30.433594 25.25 29.324219 L 14.75 29.324219 C 16.207031 30.433594 18.027344 31.089844 20 31.089844 Z M 13.066406 27.640625 C 12.65625 27.097656 12.304688 26.503906 12.027344 25.875 L 27.972656 25.875 C 27.695312 26.503906 27.34375 27.097656 26.933594 27.640625 Z M 13.066406 27.640625 "/>
<path fill-rule="nonzero" fill="rgb(100%, 85.490196%, 26.666667%)" fill-opacity="1" d="M 20 7.824219 L 20.511719 9.40625 L 22.175781 9.40625 L 20.832031 10.382812 L 21.34375 11.960938 L 20 10.984375 L 18.65625 11.960938 L 19.167969 10.382812 L 17.824219 9.40625 L 19.488281 9.40625 Z M 20 7.824219 "/>
<path fill-rule="nonzero" fill="rgb(100%, 85.490196%, 26.666667%)" fill-opacity="1" d="M 13.683594 10.589844 L 14.671875 11.476562 L 15.824219 10.8125 L 15.28125 12.027344 L 16.269531 12.914062 L 14.949219 12.777344 L 14.410156 13.992188 L 14.132812 12.691406 L 12.8125 12.550781 L 13.960938 11.886719 Z M 13.683594 10.589844 "/>
<path fill-rule="nonzero" fill="rgb(100%, 85.490196%, 26.666667%)" fill-opacity="1" d="M 9.0625 15.210938 L 10.359375 15.488281 L 11.027344 14.335938 L 11.164062 15.660156 L 12.464844 15.933594 L 11.25 16.476562 L 11.390625 17.796875 L 10.5 16.808594 L 9.285156 17.351562 L 9.949219 16.199219 Z M 9.0625 15.210938 "/>
<path fill-rule="nonzero" fill="rgb(100%, 85.490196%, 26.666667%)" fill-opacity="1" d="M 26.316406 10.589844 L 25.328125 11.476562 L 24.175781 10.8125 L 24.71875 12.027344 L 23.730469 12.914062 L 25.050781 12.777344 L 25.589844 13.992188 L 25.867188 12.691406 L 27.1875 12.550781 L 26.039062 11.886719 Z M 26.316406 10.589844 "/>
<path fill-rule="nonzero" fill="rgb(100%, 85.490196%, 26.666667%)" fill-opacity="1" d="M 30.9375 15.210938 L 29.640625 15.488281 L 28.972656 14.335938 L 28.835938 15.660156 L 27.535156 15.933594 L 28.75 16.476562 L 28.609375 17.796875 L 29.5 16.808594 L 30.714844 17.351562 L 30.050781 16.199219 Z M 30.9375 15.210938 "/>
</svg>
