<?xml version="1.0" encoding="UTF-8"?>
<svg xmlns="http://www.w3.org/2000/svg" xmlns:xlink="http://www.w3.org/1999/xlink" width="20" height="20" viewBox="0 0 20 20">
<path fill-rule="nonzero" fill="rgb(28.627451%, 43.137255%, 17.647059%)" fill-opacity="1" d="M 20 10 C 20 15.523438 15.523438 20 10 20 C 4.476562 20 0 15.523438 0 10 C 0 4.476562 4.476562 0 10 0 C 15.523438 0 20 4.476562 20 10 Z M 20 10 "/>
<path fill-rule="evenodd" fill="rgb(93.333333%, 93.333333%, 93.333333%)" fill-opacity="1" d="M 11.738281 9.582031 C 11.492188 9.582031 11.261719 9.632812 11.042969 9.710938 C 11.164062 9.445312 11.242188 9.152344 11.242188 8.835938 C 11.242188 7.59375 10 6.664062 10 6.664062 C 10 6.664062 8.757812 7.59375 8.757812 8.835938 C 8.757812 9.152344 8.835938 9.445312 8.957031 9.710938 C 8.738281 9.632812 8.507812 9.582031 8.261719 9.582031 C 7.019531 9.582031 6.085938 10.824219 6.085938 10.824219 C 6.085938 10.824219 7.019531 12.066406 8.261719 12.066406 C 8.988281 12.066406 9.609375 11.640625 10 11.285156 C 10.390625 11.640625 11.011719 12.066406 11.738281 12.066406 C 12.980469 12.066406 13.914062 10.824219 13.914062 10.824219 C 13.914062 10.824219 12.980469 9.582031 11.738281 9.582031 Z M 10 15.546875 C 10.988281 15.546875 11.894531 15.214844 12.625 14.664062 L 7.375 14.664062 C 8.105469 15.214844 9.011719 15.546875 10 15.546875 Z M 6.53125 13.820312 C 6.328125 13.546875 6.152344 13.253906 6.015625 12.9375 L 13.984375 12.9375 C 13.847656 13.253906 13.671875 13.546875 13.46875 13.820312 Z M 6.53125 13.820312 "/>
<path fill-rule="nonzero" fill="rgb(100%, 85.490196%, 26.666667%)" fill-opacity="1" d="M 10 3.914062 L 10.257812 4.703125 L 11.085938 4.703125 L 10.414062 5.191406 L 10.671875 5.980469 L 10 5.492188 L 9.328125 5.980469 L 9.585938 5.191406 L 8.914062 4.703125 L 9.742188 4.703125 Z M 10 3.914062 "/>
<path fill-rule="nonzero" fill="rgb(100%, 85.490196%, 26.666667%)" fill-opacity="1" d="M 6.84375 5.292969 L 7.335938 5.738281 L 7.910156 5.40625 L 7.640625 6.011719 L 8.136719 6.457031 L 7.472656 6.386719 L 7.203125 6.996094 L 7.066406 6.34375 L 6.40625 6.277344 L 6.980469 5.945312 Z M 6.84375 5.292969 "/>
<path fill-rule="nonzero" fill="rgb(100%, 85.490196%, 26.666667%)" fill-opacity="1" d="M 4.53125 7.605469 L 5.179688 7.742188 L 5.511719 7.167969 L 5.582031 7.828125 L 6.230469 7.96875 L 5.625 8.238281 L 5.695312 8.898438 L 5.25 8.40625 L 4.644531 8.675781 L 4.976562 8.097656 Z M 4.53125 7.605469 "/>
<path fill-rule="nonzero" fill="rgb(100%, 85.490196%, 26.666667%)" fill-opacity="1" d="M 13.15625 5.292969 L 12.664062 5.738281 L 12.089844 5.40625 L 12.359375 6.011719 L 11.863281 6.457031 L 12.527344 6.386719 L 12.796875 6.996094 L 12.933594 6.34375 L 13.59375 6.277344 L 13.019531 5.945312 Z M 13.15625 5.292969 "/>
<path fill-rule="nonzero" fill="rgb(100%, 85.490196%, 26.666667%)" fill-opacity="1" d="M 15.46875 7.605469 L 14.820312 7.742188 L 14.488281 7.167969 L 14.417969 7.828125 L 13.769531 7.96875 L 14.375 8.238281 L 14.304688 8.898438 L 14.75 8.40625 L 15.355469 8.675781 L 15.023438 8.097656 Z M 15.46875 7.605469 "/>
</svg>
