<?xml version="1.0" encoding="UTF-8"?>
<svg xmlns="http://www.w3.org/2000/svg" xmlns:xlink="http://www.w3.org/1999/xlink" width="20" height="20" viewBox="0 0 20 20">
<path fill-rule="nonzero" fill="rgb(93.333333%, 93.333333%, 93.333333%)" fill-opacity="1" d="M 18.835938 14.6875 C 19.578125 13.289062 20 11.695312 20 10 C 20 8.304688 19.578125 6.710938 18.835938 5.3125 L 1.164062 5.3125 C 0.421875 6.710938 0 8.304688 0 10 C 0 11.695312 0.421875 13.289062 1.164062 14.6875 Z M 18.835938 14.6875 "/>
<path fill-rule="nonzero" fill="rgb(20%, 20%, 20%)" fill-opacity="1" d="M 19.394531 13.4375 C 17.992188 17.265625 14.316406 20 10 20 C 5.683594 20 2.007812 17.265625 0.605469 13.4375 Z M 19.394531 13.4375 "/>
<path fill-rule="nonzero" fill="rgb(28.627451%, 43.137255%, 17.647059%)" fill-opacity="1" d="M 19.394531 6.5625 L 0.605469 6.5625 C 2.007812 2.734375 5.683594 0 10 0 C 14.316406 0 17.992188 2.734375 19.394531 6.5625 Z M 19.394531 6.5625 "/>
<path fill-rule="nonzero" fill="rgb(84.705882%, 0%, 15.294118%)" fill-opacity="1" d="M 3.511719 7.113281 L 4.160156 9.109375 L 6.257812 9.109375 L 4.5625 10.339844 L 5.210938 12.335938 L 3.511719 11.101562 L 1.816406 12.335938 L 2.464844 10.339844 L 0.765625 9.109375 L 2.863281 9.109375 Z M 3.511719 7.113281 "/>
<path fill-rule="nonzero" fill="rgb(84.705882%, 0%, 15.294118%)" fill-opacity="1" d="M 10 7.113281 L 10.648438 9.109375 L 12.746094 9.109375 L 11.050781 10.339844 L 11.695312 12.335938 L 10 11.101562 L 8.304688 12.335938 L 8.949219 10.339844 L 7.253906 9.109375 L 9.351562 9.109375 Z M 10 7.113281 "/>
<path fill-rule="nonzero" fill="rgb(84.705882%, 0%, 15.294118%)" fill-opacity="1" d="M 16.488281 7.113281 L 17.136719 9.109375 L 19.234375 9.109375 L 17.535156 10.339844 L 18.183594 12.335938 L 16.488281 11.101562 L 14.789062 12.335938 L 15.4375 10.339844 L 13.742188 9.109375 L 15.839844 9.109375 Z M 16.488281 7.113281 "/>
</svg>
