<?xml version="1.0" encoding="UTF-8"?>
<svg xmlns="http://www.w3.org/2000/svg" xmlns:xlink="http://www.w3.org/1999/xlink" width="40" height="40" viewBox="0 0 40 40">
<path fill-rule="nonzero" fill="rgb(93.333333%, 93.333333%, 93.333333%)" fill-opacity="1" d="M 37.671875 29.375 C 39.15625 26.578125 40 23.386719 40 20 C 40 16.613281 39.15625 13.421875 37.671875 10.625 L 2.328125 10.625 C 0.84375 13.421875 0 16.613281 0 20 C 0 23.386719 0.84375 26.578125 2.328125 29.375 Z M 37.671875 29.375 "/>
<path fill-rule="nonzero" fill="rgb(20%, 20%, 20%)" fill-opacity="1" d="M 38.785156 26.875 C 35.984375 34.535156 28.628906 40 20 40 C 11.371094 40 4.015625 34.535156 1.214844 26.875 L 38.789062 26.875 Z M 38.785156 26.875 "/>
<path fill-rule="nonzero" fill="rgb(28.627451%, 43.137255%, 17.647059%)" fill-opacity="1" d="M 38.785156 13.125 L 1.210938 13.125 C 4.015625 5.464844 11.371094 0 20 0 C 28.628906 0 35.984375 5.464844 38.785156 13.125 Z M 38.785156 13.125 "/>
<path fill-rule="nonzero" fill="rgb(84.705882%, 0%, 15.294118%)" fill-opacity="1" d="M 7.023438 14.226562 L 8.320312 18.214844 L 12.515625 18.214844 L 9.121094 20.679688 L 10.417969 24.671875 L 7.023438 22.207031 L 3.628906 24.671875 L 4.925781 20.679688 L 1.53125 18.214844 L 5.726562 18.214844 Z M 7.023438 14.226562 "/>
<path fill-rule="nonzero" fill="rgb(84.705882%, 0%, 15.294118%)" fill-opacity="1" d="M 20 14.226562 L 21.296875 18.214844 L 25.492188 18.214844 L 22.097656 20.679688 L 23.394531 24.671875 L 20 22.207031 L 16.605469 24.671875 L 17.902344 20.679688 L 14.507812 18.214844 L 18.703125 18.214844 Z M 20 14.226562 "/>
<path fill-rule="nonzero" fill="rgb(84.705882%, 0%, 15.294118%)" fill-opacity="1" d="M 32.976562 14.226562 L 34.273438 18.214844 L 38.46875 18.214844 L 35.074219 20.679688 L 36.371094 24.671875 L 32.976562 22.207031 L 29.582031 24.671875 L 30.878906 20.679688 L 27.484375 18.214844 L 31.679688 18.214844 Z M 32.976562 14.226562 "/>
</svg>
