<?xml version="1.0" encoding="UTF-8"?>
<svg xmlns="http://www.w3.org/2000/svg" xmlns:xlink="http://www.w3.org/1999/xlink" width="60" height="60" viewBox="0 0 60 60">
<path fill-rule="nonzero" fill="rgb(93.333333%, 93.333333%, 93.333333%)" fill-opacity="1" d="M 56.507812 44.0625 C 58.738281 39.867188 60 35.082031 60 30 C 60 24.917969 58.738281 20.132812 56.507812 15.9375 L 3.492188 15.9375 C 1.261719 20.132812 0 24.917969 0 30 C 0 35.082031 1.261719 39.867188 3.492188 44.0625 Z M 56.507812 44.0625 "/>
<path fill-rule="nonzero" fill="rgb(20%, 20%, 20%)" fill-opacity="1" d="M 58.179688 40.3125 C 53.976562 51.800781 42.945312 60 30 60 C 17.054688 60 6.023438 51.800781 1.820312 40.3125 Z M 58.179688 40.3125 "/>
<path fill-rule="nonzero" fill="rgb(28.627451%, 43.137255%, 17.647059%)" fill-opacity="1" d="M 58.179688 19.6875 L 1.820312 19.6875 C 6.023438 8.199219 17.054688 0 30 0 C 42.945312 0 53.972656 8.199219 58.179688 19.6875 Z M 58.179688 19.6875 "/>
<path fill-rule="nonzero" fill="rgb(84.705882%, 0%, 15.294118%)" fill-opacity="1" d="M 10.539062 21.335938 L 12.480469 27.324219 L 18.777344 27.324219 L 13.683594 31.023438 L 15.628906 37.007812 L 10.539062 33.308594 L 5.445312 37.007812 L 7.390625 31.023438 L 2.300781 27.324219 L 8.59375 27.324219 Z M 10.539062 21.335938 "/>
<path fill-rule="nonzero" fill="rgb(84.705882%, 0%, 15.294118%)" fill-opacity="1" d="M 30 21.335938 L 31.945312 27.324219 L 38.238281 27.324219 L 33.148438 31.023438 L 35.089844 37.007812 L 30 33.308594 L 24.910156 37.007812 L 26.851562 31.023438 L 21.761719 27.324219 L 28.054688 27.324219 Z M 30 21.335938 "/>
<path fill-rule="nonzero" fill="rgb(84.705882%, 0%, 15.294118%)" fill-opacity="1" d="M 49.460938 21.335938 L 51.40625 27.324219 L 57.699219 27.324219 L 52.609375 31.023438 L 54.554688 37.007812 L 49.460938 33.308594 L 44.371094 37.007812 L 46.316406 31.023438 L 41.222656 27.324219 L 47.519531 27.324219 Z M 49.460938 21.335938 "/>
</svg>
