<?xml version="1.0" encoding="UTF-8"?>
<svg xmlns="http://www.w3.org/2000/svg" xmlns:xlink="http://www.w3.org/1999/xlink" width="60" height="60" viewBox="0 0 60 60">
<path fill-rule="nonzero" fill="rgb(93.333333%, 93.333333%, 93.333333%)" fill-opacity="1" d="M 55.984375 45 C 58.539062 40.585938 60 35.464844 60 30 C 60 24.535156 58.539062 19.414062 55.984375 15 L 4.015625 15 C 1.460938 19.414062 0 24.535156 0 30 C 0 35.464844 1.460938 40.585938 4.015625 45 Z M 55.984375 45 "/>
<path fill-rule="nonzero" fill="rgb(20%, 54.117647%, 95.294118%)" fill-opacity="1" d="M 29.988281 60 C 18.132812 59.996094 7.882812 53.113281 3.015625 43.125 L 56.984375 43.125 C 52.117188 53.113281 41.867188 59.996094 30.007812 60 Z M 29.988281 60 "/>
<path fill-rule="nonzero" fill="rgb(20%, 54.117647%, 95.294118%)" fill-opacity="1" d="M 30 0 C 18.136719 0 7.882812 6.882812 3.015625 16.875 L 56.984375 16.875 C 52.117188 6.882812 41.863281 0 30 0 Z M 30 0 "/>
<path fill-rule="nonzero" fill="rgb(20%, 54.117647%, 95.294118%)" fill-opacity="1" d="M 18.671875 32.164062 L 19.644531 35.152344 L 22.789062 35.152344 L 20.246094 37 L 21.214844 39.988281 L 18.675781 38.140625 L 16.132812 39.988281 L 17.101562 37 L 14.558594 35.152344 L 17.703125 35.152344 L 18.675781 32.164062 Z M 18.671875 32.164062 "/>
<path fill-rule="nonzero" fill="rgb(20%, 54.117647%, 95.294118%)" fill-opacity="1" d="M 18.671875 19.1875 L 19.644531 22.175781 L 22.789062 22.175781 L 20.246094 24.023438 L 21.214844 27.011719 L 18.675781 25.164062 L 16.132812 27.011719 L 17.101562 24.023438 L 14.558594 22.175781 L 17.703125 22.175781 L 18.675781 19.1875 Z M 18.671875 19.1875 "/>
<path fill-rule="nonzero" fill="rgb(20%, 54.117647%, 95.294118%)" fill-opacity="1" d="M 41.328125 32.164062 L 42.296875 35.152344 L 45.441406 35.152344 L 42.898438 37 L 43.867188 39.988281 L 41.324219 38.140625 L 38.785156 39.988281 L 39.753906 37 L 37.210938 35.152344 L 40.355469 35.152344 L 41.324219 32.164062 Z M 41.328125 32.164062 "/>
<path fill-rule="nonzero" fill="rgb(20%, 54.117647%, 95.294118%)" fill-opacity="1" d="M 41.328125 19.1875 L 42.296875 22.175781 L 45.441406 22.175781 L 42.898438 24.023438 L 43.867188 27.011719 L 41.324219 25.164062 L 38.785156 27.011719 L 39.753906 24.023438 L 37.210938 22.175781 L 40.355469 22.175781 L 41.324219 19.1875 Z M 41.328125 19.1875 "/>
<path fill-rule="nonzero" fill="rgb(20%, 54.117647%, 95.294118%)" fill-opacity="1" d="M 30 25.675781 L 30.972656 28.664062 L 34.113281 28.664062 L 31.570312 30.511719 L 32.542969 33.5 L 30 31.652344 L 27.457031 33.5 L 28.429688 30.511719 L 25.886719 28.664062 L 29.027344 28.664062 Z M 30 25.675781 "/>
</svg>
