<?xml version="1.0" encoding="UTF-8"?>
<svg xmlns="http://www.w3.org/2000/svg" xmlns:xlink="http://www.w3.org/1999/xlink" width="20" height="20" viewBox="0 0 20 20">
<path fill-rule="nonzero" fill="rgb(93.333333%, 93.333333%, 93.333333%)" fill-opacity="1" d="M 18.664062 15 C 19.511719 13.527344 20 11.820312 20 10 C 20 8.179688 19.511719 6.472656 18.664062 5 L 1.335938 5 C 0.488281 6.472656 0 8.179688 0 10 C 0 11.820312 0.488281 13.527344 1.335938 15 Z M 18.664062 15 "/>
<path fill-rule="nonzero" fill="rgb(20%, 54.117647%, 95.294118%)" fill-opacity="1" d="M 9.996094 20 C 6.042969 20 2.628906 17.703125 1.003906 14.375 L 18.996094 14.375 C 17.371094 17.703125 13.957031 20 10.003906 20 Z M 9.996094 20 "/>
<path fill-rule="nonzero" fill="rgb(20%, 54.117647%, 95.294118%)" fill-opacity="1" d="M 10 0 C 6.046875 0 2.628906 2.292969 1.003906 5.625 L 18.996094 5.625 C 17.371094 2.292969 13.953125 0 10 0 Z M 10 0 "/>
<path fill-rule="nonzero" fill="rgb(20%, 54.117647%, 95.294118%)" fill-opacity="1" d="M 6.226562 10.722656 L 6.546875 11.71875 L 7.597656 11.71875 L 6.75 12.332031 L 7.070312 13.328125 L 6.226562 12.714844 L 5.378906 13.328125 L 5.699219 12.332031 L 4.851562 11.71875 L 5.902344 11.71875 Z M 6.226562 10.722656 "/>
<path fill-rule="nonzero" fill="rgb(20%, 54.117647%, 95.294118%)" fill-opacity="1" d="M 6.226562 6.394531 L 6.546875 7.390625 L 7.597656 7.390625 L 6.75 8.007812 L 7.070312 9.003906 L 6.226562 8.386719 L 5.378906 9.003906 L 5.699219 8.007812 L 4.851562 7.390625 L 5.902344 7.390625 Z M 6.226562 6.394531 "/>
<path fill-rule="nonzero" fill="rgb(20%, 54.117647%, 95.294118%)" fill-opacity="1" d="M 13.773438 10.722656 L 14.097656 11.71875 L 15.148438 11.71875 L 14.300781 12.332031 L 14.621094 13.328125 L 13.773438 12.714844 L 12.929688 13.328125 L 13.25 12.332031 L 12.402344 11.71875 L 13.453125 11.71875 Z M 13.773438 10.722656 "/>
<path fill-rule="nonzero" fill="rgb(20%, 54.117647%, 95.294118%)" fill-opacity="1" d="M 13.773438 6.394531 L 14.097656 7.390625 L 15.148438 7.390625 L 14.300781 8.007812 L 14.621094 9.003906 L 13.773438 8.386719 L 12.929688 9.003906 L 13.25 8.007812 L 12.402344 7.390625 L 13.453125 7.390625 Z M 13.773438 6.394531 "/>
<path fill-rule="nonzero" fill="rgb(20%, 54.117647%, 95.294118%)" fill-opacity="1" d="M 10 8.558594 L 10.324219 9.554688 L 11.371094 9.554688 L 10.523438 10.171875 L 10.847656 11.167969 L 10 10.550781 L 9.152344 11.167969 L 9.476562 10.171875 L 8.628906 9.554688 L 9.675781 9.554688 Z M 10 8.558594 "/>
</svg>
