<?xml version="1.0" encoding="UTF-8"?>
<svg xmlns="http://www.w3.org/2000/svg" xmlns:xlink="http://www.w3.org/1999/xlink" width="40" height="40" viewBox="0 0 40 40">
<path fill-rule="nonzero" fill="rgb(93.333333%, 93.333333%, 93.333333%)" fill-opacity="1" d="M 37.324219 30 C 39.027344 27.058594 40 23.644531 40 20 C 40 16.355469 39.027344 12.941406 37.324219 10 L 2.675781 10 C 0.972656 12.941406 0 16.355469 0 20 C 0 23.644531 0.972656 27.058594 2.675781 30 Z M 37.324219 30 "/>
<path fill-rule="nonzero" fill="rgb(20%, 54.117647%, 95.294118%)" fill-opacity="1" d="M 19.992188 40 C 12.089844 39.996094 5.253906 35.410156 2.011719 28.75 L 37.988281 28.75 C 34.746094 35.410156 27.910156 39.996094 20.007812 40 Z M 19.992188 40 "/>
<path fill-rule="nonzero" fill="rgb(20%, 54.117647%, 95.294118%)" fill-opacity="1" d="M 20 0 C 12.09375 0 5.257812 4.589844 2.011719 11.25 L 37.988281 11.25 C 34.742188 4.589844 27.910156 0 20 0 Z M 20 0 "/>
<path fill-rule="nonzero" fill="rgb(20%, 54.117647%, 95.294118%)" fill-opacity="1" d="M 12.449219 21.441406 L 13.097656 23.433594 L 15.191406 23.433594 L 13.496094 24.667969 L 14.144531 26.660156 L 12.449219 25.425781 L 10.753906 26.660156 L 11.402344 24.667969 L 9.707031 23.433594 L 11.800781 23.433594 Z M 12.449219 21.441406 "/>
<path fill-rule="nonzero" fill="rgb(20%, 54.117647%, 95.294118%)" fill-opacity="1" d="M 12.449219 12.789062 L 13.097656 14.785156 L 15.191406 14.785156 L 13.496094 16.015625 L 14.144531 18.007812 L 12.449219 16.777344 L 10.753906 18.007812 L 11.402344 16.015625 L 9.707031 14.785156 L 11.800781 14.785156 Z M 12.449219 12.789062 "/>
<path fill-rule="nonzero" fill="rgb(20%, 54.117647%, 95.294118%)" fill-opacity="1" d="M 27.550781 21.441406 L 28.199219 23.433594 L 30.292969 23.433594 L 28.597656 24.667969 L 29.246094 26.660156 L 27.550781 25.425781 L 25.855469 26.660156 L 26.503906 24.667969 L 24.808594 23.433594 L 26.902344 23.433594 Z M 27.550781 21.441406 "/>
<path fill-rule="nonzero" fill="rgb(20%, 54.117647%, 95.294118%)" fill-opacity="1" d="M 27.550781 12.789062 L 28.199219 14.785156 L 30.292969 14.785156 L 28.597656 16.015625 L 29.246094 18.007812 L 27.550781 16.777344 L 25.855469 18.007812 L 26.503906 16.015625 L 24.808594 14.785156 L 26.902344 14.785156 Z M 27.550781 12.789062 "/>
<path fill-rule="nonzero" fill="rgb(20%, 54.117647%, 95.294118%)" fill-opacity="1" d="M 20 17.117188 L 20.648438 19.109375 L 22.742188 19.109375 L 21.046875 20.339844 L 21.695312 22.332031 L 20 21.101562 L 18.304688 22.332031 L 18.953125 20.339844 L 17.257812 19.109375 L 19.351562 19.109375 Z M 20 17.117188 "/>
</svg>
