<?xml version="1.0" encoding="UTF-8"?>
<svg xmlns="http://www.w3.org/2000/svg" xmlns:xlink="http://www.w3.org/1999/xlink" width="40" height="40" viewBox="0 0 40 40">
<path fill-rule="nonzero" fill="rgb(84.705882%, 0%, 15.294118%)" fill-opacity="1" d="M 40 20 C 40 31.046875 31.046875 40 20 40 C 8.953125 40 0 31.046875 0 20 C 0 8.953125 8.953125 0 20 0 C 31.046875 0 40 8.953125 40 20 Z M 40 20 "/>
<path fill-rule="evenodd" fill="rgb(93.333333%, 93.333333%, 93.333333%)" fill-opacity="1" d="M 16.433594 27.972656 C 17.640625 28.574219 18.964844 28.894531 20.3125 28.90625 C 21.796875 28.90625 23.203125 28.59375 24.53125 27.890625 C 22.980469 29.402344 21.015625 30.421875 18.886719 30.824219 C 16.757812 31.226562 14.558594 30.992188 12.5625 30.148438 C 10.566406 29.308594 8.863281 27.894531 7.664062 26.089844 C 6.46875 24.285156 5.828125 22.167969 5.828125 20 C 5.828125 17.832031 6.46875 15.714844 7.664062 13.910156 C 8.863281 12.105469 10.566406 10.691406 12.5625 9.851562 C 14.558594 9.007812 16.757812 8.773438 18.886719 9.175781 C 21.015625 9.578125 22.980469 10.597656 24.53125 12.109375 C 23.339844 11.484375 22.019531 11.140625 20.671875 11.097656 C 19.328125 11.058594 17.988281 11.324219 16.761719 11.875 C 15.53125 12.425781 14.441406 13.246094 13.578125 14.277344 C 12.710938 15.308594 12.09375 16.523438 11.765625 17.832031 C 11.4375 19.136719 11.410156 20.5 11.683594 21.820312 C 11.957031 23.136719 12.527344 24.375 13.351562 25.441406 C 14.175781 26.507812 15.230469 27.375 16.433594 27.972656 Z M 27.429688 18.703125 L 23.4375 20 L 27.429688 21.296875 L 27.429688 25.492188 L 29.894531 22.097656 L 33.882812 23.394531 L 31.417969 20 L 33.882812 16.605469 L 29.894531 17.902344 L 27.429688 14.507812 Z M 27.429688 18.703125 "/>
</svg>
