<?xml version="1.0" encoding="UTF-8"?>
<svg xmlns="http://www.w3.org/2000/svg" xmlns:xlink="http://www.w3.org/1999/xlink" width="60" height="60" viewBox="0 0 60 60">
<path fill-rule="nonzero" fill="rgb(84.705882%, 0%, 15.294118%)" fill-opacity="1" d="M 60 30 C 60 46.570312 46.570312 60 30 60 C 13.429688 60 0 46.570312 0 30 C 0 13.429688 13.429688 0 30 0 C 46.570312 0 60 13.429688 60 30 Z M 60 30 "/>
<path fill-rule="evenodd" fill="rgb(93.333333%, 93.333333%, 93.333333%)" fill-opacity="1" d="M 24.652344 41.960938 C 26.460938 42.859375 28.449219 43.339844 30.46875 43.359375 C 32.695312 43.359375 34.804688 42.890625 36.796875 41.835938 C 34.46875 44.105469 31.523438 45.632812 28.332031 46.238281 C 25.136719 46.839844 21.839844 46.488281 18.84375 45.222656 C 15.851562 43.960938 13.296875 41.84375 11.5 39.136719 C 9.703125 36.425781 8.746094 33.25 8.746094 30 C 8.746094 26.75 9.703125 23.574219 11.5 20.867188 C 13.296875 18.15625 15.851562 16.039062 18.84375 14.777344 C 21.839844 13.511719 25.136719 13.160156 28.332031 13.761719 C 31.523438 14.367188 34.46875 15.898438 36.796875 18.164062 C 35.007812 17.226562 33.027344 16.710938 31.007812 16.648438 C 28.988281 16.585938 26.984375 16.984375 25.140625 17.808594 C 23.296875 18.636719 21.664062 19.871094 20.367188 21.417969 C 19.070312 22.964844 18.136719 24.789062 17.644531 26.746094 C 17.152344 28.707031 17.113281 30.75 17.523438 32.730469 C 17.9375 34.707031 18.792969 36.566406 20.027344 38.164062 C 21.261719 39.761719 22.84375 41.0625 24.652344 41.960938 Z M 41.140625 28.054688 L 35.15625 30 L 41.140625 31.945312 L 41.140625 38.238281 L 44.839844 33.148438 L 50.828125 35.09375 L 47.128906 30 L 50.828125 24.910156 L 44.839844 26.855469 L 41.140625 21.761719 Z M 41.140625 28.054688 "/>
</svg>
