<?xml version="1.0" encoding="UTF-8"?>
<svg xmlns="http://www.w3.org/2000/svg" xmlns:xlink="http://www.w3.org/1999/xlink" width="20" height="20" viewBox="0 0 20 20">
<path fill-rule="nonzero" fill="rgb(84.705882%, 0%, 15.294118%)" fill-opacity="1" d="M 20 10 C 20 15.523438 15.523438 20 10 20 C 4.476562 20 0 15.523438 0 10 C 0 4.476562 4.476562 0 10 0 C 15.523438 0 20 4.476562 20 10 Z M 20 10 "/>
<path fill-rule="evenodd" fill="rgb(93.333333%, 93.333333%, 93.333333%)" fill-opacity="1" d="M 8.21875 13.988281 C 8.820312 14.285156 9.484375 14.445312 10.15625 14.453125 C 10.898438 14.453125 11.601562 14.296875 12.265625 13.945312 C 11.488281 14.703125 10.507812 15.210938 9.445312 15.414062 C 8.378906 15.613281 7.28125 15.496094 6.28125 15.074219 C 5.285156 14.652344 4.433594 13.949219 3.832031 13.046875 C 3.234375 12.140625 2.914062 11.082031 2.914062 10 C 2.914062 8.917969 3.234375 7.859375 3.832031 6.957031 C 4.433594 6.050781 5.285156 5.347656 6.28125 4.925781 C 7.28125 4.503906 8.378906 4.386719 9.445312 4.585938 C 10.507812 4.789062 11.488281 5.300781 12.265625 6.054688 C 11.667969 5.742188 11.007812 5.570312 10.335938 5.550781 C 9.664062 5.527344 8.996094 5.660156 8.378906 5.9375 C 7.765625 6.210938 7.222656 6.625 6.789062 7.140625 C 6.355469 7.65625 6.046875 8.261719 5.882812 8.914062 C 5.71875 9.570312 5.703125 10.25 5.839844 10.910156 C 5.980469 11.570312 6.265625 12.1875 6.675781 12.722656 C 7.085938 13.253906 7.613281 13.6875 8.21875 13.988281 Z M 13.714844 9.351562 L 11.71875 10 L 13.714844 10.648438 L 13.714844 12.746094 L 14.945312 11.050781 L 16.941406 11.699219 L 15.710938 10 L 16.941406 8.304688 L 14.945312 8.953125 L 13.714844 7.253906 Z M 13.714844 9.351562 "/>
</svg>
