<?xml version="1.0" encoding="UTF-8"?>
<svg xmlns="http://www.w3.org/2000/svg" xmlns:xlink="http://www.w3.org/1999/xlink" width="20" height="20" viewBox="0 0 20 20">
<path fill-rule="nonzero" fill="rgb(20%, 54.117647%, 95.294118%)" fill-opacity="1" d="M 20 10 C 20 15.523438 15.523438 20 10 20 C 4.476562 20 0 15.523438 0 10 L 10 0 C 15.523438 0 20 4.476562 20 10 Z M 20 10 "/>
<path fill-rule="nonzero" fill="rgb(0%, 32.156863%, 70.588235%)" fill-opacity="1" d="M 10 0 L 10 10 L 0 10 C 0 4.476562 4.476562 0 10 0 Z M 10 0 "/>
<path fill-rule="nonzero" fill="rgb(93.333333%, 93.333333%, 93.333333%)" fill-opacity="1" d="M 8.5 10 L 10 10 L 10 8.5 L 5.496094 3.992188 L 10 3.992188 L 10 0 C 4.476562 0 0 4.476562 0 10 L 3.992188 10 L 3.992188 5.496094 Z M 8.5 10 "/>
<path fill-rule="nonzero" fill="rgb(84.705882%, 0%, 15.294118%)" fill-opacity="1" d="M 10 2.992188 L 10 0.992188 L 5.652344 0.992188 C 3.621094 1.972656 1.972656 3.621094 0.992188 5.652344 L 0.992188 10 L 2.992188 10 L 2.992188 2.992188 Z M 10 2.992188 "/>
<path fill-rule="nonzero" fill="rgb(84.705882%, 0%, 15.294118%)" fill-opacity="1" d="M 10 9 L 10 10 L 3.992188 3.992188 L 4.996094 3.992188 Z M 10 9 "/>
<path fill-rule="nonzero" fill="rgb(100%, 85.490196%, 26.666667%)" fill-opacity="1" d="M 10.914062 16.523438 L 11.128906 17.1875 L 11.828125 17.1875 L 11.265625 17.597656 L 11.480469 18.261719 L 10.914062 17.851562 L 10.347656 18.261719 L 10.566406 17.597656 L 10 17.1875 L 10.699219 17.1875 Z M 10.914062 16.523438 "/>
<path fill-rule="nonzero" fill="rgb(100%, 85.490196%, 26.666667%)" fill-opacity="1" d="M 16.476562 12.171875 L 16.691406 12.839844 L 17.390625 12.839844 L 16.828125 13.25 L 17.042969 13.914062 L 16.476562 13.503906 L 15.910156 13.914062 L 16.128906 13.25 L 15.5625 12.839844 L 16.261719 12.839844 Z M 16.476562 12.171875 "/>
<path fill-rule="nonzero" fill="rgb(100%, 85.490196%, 26.666667%)" fill-opacity="1" d="M 17.871094 5.652344 L 18.085938 6.316406 L 18.785156 6.316406 L 18.21875 6.726562 L 18.4375 7.390625 L 17.871094 6.980469 L 17.304688 7.390625 L 17.523438 6.726562 L 16.957031 6.316406 L 17.65625 6.316406 Z M 17.871094 5.652344 "/>
<path fill-rule="nonzero" fill="rgb(100%, 85.490196%, 26.666667%)" fill-opacity="1" d="M 18.214844 10.433594 L 18.433594 11.097656 L 19.128906 11.097656 L 18.566406 11.507812 L 18.78125 12.175781 L 18.214844 11.761719 L 17.652344 12.175781 L 17.867188 11.507812 L 17.300781 11.097656 L 18 11.097656 Z M 18.214844 10.433594 "/>
<path fill-rule="nonzero" fill="rgb(100%, 85.490196%, 26.666667%)" fill-opacity="1" d="M 11.914062 14.960938 L 12.539062 15.277344 L 13.03125 14.78125 L 12.921875 15.472656 L 13.546875 15.789062 L 12.855469 15.898438 L 12.746094 16.589844 L 12.429688 15.964844 L 11.738281 16.074219 L 12.234375 15.582031 L 11.917969 14.960938 Z M 11.914062 14.960938 "/>
<path fill-rule="nonzero" fill="rgb(100%, 85.490196%, 26.666667%)" fill-opacity="1" d="M 11.914062 12.351562 L 12.539062 12.667969 L 13.03125 12.175781 L 12.921875 12.863281 L 13.546875 13.179688 L 12.855469 13.289062 L 12.746094 13.980469 L 12.429688 13.359375 L 11.738281 13.46875 L 12.234375 12.972656 L 11.917969 12.351562 Z M 11.914062 12.351562 "/>
<path fill-rule="nonzero" fill="rgb(100%, 85.490196%, 26.666667%)" fill-opacity="1" d="M 14.089844 14.023438 L 14.710938 14.339844 L 15.207031 13.847656 L 15.097656 14.535156 L 15.71875 14.851562 L 15.03125 14.960938 L 14.921875 15.652344 L 14.601562 15.03125 L 13.914062 15.140625 L 14.40625 14.644531 Z M 14.089844 14.023438 "/>
<path fill-rule="nonzero" fill="rgb(100%, 85.490196%, 26.666667%)" fill-opacity="1" d="M 14.089844 8.4375 L 14.710938 8.753906 L 15.207031 8.261719 L 15.097656 8.949219 L 15.71875 9.269531 L 15.03125 9.375 L 14.921875 10.066406 L 14.601562 9.445312 L 13.914062 9.554688 L 14.40625 9.058594 Z M 14.089844 8.4375 "/>
<path fill-rule="nonzero" fill="rgb(100%, 85.490196%, 26.666667%)" fill-opacity="1" d="M 16.195312 8.371094 L 16.820312 8.6875 L 17.3125 8.195312 L 17.203125 8.882812 L 17.828125 9.199219 L 17.136719 9.308594 L 17.027344 10 L 16.710938 9.378906 L 16.019531 9.488281 L 16.515625 8.992188 Z M 16.195312 8.371094 "/>
</svg>
