<?xml version="1.0" encoding="UTF-8"?>
<svg xmlns="http://www.w3.org/2000/svg" xmlns:xlink="http://www.w3.org/1999/xlink" width="40" height="40" viewBox="0 0 40 40">
<path fill-rule="nonzero" fill="rgb(20%, 54.117647%, 95.294118%)" fill-opacity="1" d="M 40 20 C 40 31.046875 31.046875 40 20 40 C 8.953125 40 0 31.046875 0 20 L 20 0 C 31.046875 0 40 8.953125 40 20 Z M 40 20 "/>
<path fill-rule="nonzero" fill="rgb(0%, 32.156863%, 70.588235%)" fill-opacity="1" d="M 20 0 L 20 20 L 0 20 C 0 8.953125 8.953125 0 20 0 Z M 20 0 "/>
<path fill-rule="nonzero" fill="rgb(93.333333%, 93.333333%, 93.333333%)" fill-opacity="1" d="M 16.996094 20 L 20 20 L 20 16.996094 L 10.992188 7.988281 L 20 7.988281 L 20 0 C 8.953125 0 0 8.953125 0 20 L 7.988281 20 L 7.988281 10.992188 Z M 16.996094 20 "/>
<path fill-rule="nonzero" fill="rgb(84.705882%, 0%, 15.294118%)" fill-opacity="1" d="M 20 5.984375 L 20 1.984375 L 11.308594 1.984375 C 7.246094 3.945312 3.945312 7.246094 1.984375 11.308594 L 1.984375 20 L 5.984375 20 L 5.984375 5.984375 Z M 20 5.984375 "/>
<path fill-rule="nonzero" fill="rgb(84.705882%, 0%, 15.294118%)" fill-opacity="1" d="M 20 18 L 20 20 L 7.988281 7.988281 L 9.992188 7.988281 Z M 20 18 "/>
<path fill-rule="nonzero" fill="rgb(100%, 85.490196%, 26.666667%)" fill-opacity="1" d="M 21.828125 33.042969 L 22.261719 34.371094 L 23.65625 34.371094 L 22.527344 35.195312 L 22.960938 36.523438 L 21.828125 35.699219 L 20.699219 36.523438 L 21.128906 35.195312 L 20 34.371094 L 21.398438 34.371094 Z M 21.828125 33.042969 "/>
<path fill-rule="nonzero" fill="rgb(100%, 85.490196%, 26.666667%)" fill-opacity="1" d="M 32.953125 24.347656 L 33.386719 25.675781 L 34.78125 25.675781 L 33.652344 26.496094 L 34.085938 27.824219 L 32.953125 27.003906 L 31.824219 27.824219 L 32.253906 26.496094 L 31.125 25.675781 L 32.523438 25.675781 Z M 32.953125 24.347656 "/>
<path fill-rule="nonzero" fill="rgb(100%, 85.490196%, 26.666667%)" fill-opacity="1" d="M 35.742188 11.304688 L 36.171875 12.632812 L 37.570312 12.632812 L 36.441406 13.453125 L 36.871094 14.78125 L 35.742188 13.960938 L 34.613281 14.78125 L 35.042969 13.453125 L 33.914062 12.632812 L 35.308594 12.632812 Z M 35.742188 11.304688 "/>
<path fill-rule="nonzero" fill="rgb(100%, 85.490196%, 26.666667%)" fill-opacity="1" d="M 36.433594 20.871094 L 36.863281 22.199219 L 38.261719 22.199219 L 37.128906 23.019531 L 37.5625 24.347656 L 36.433594 23.527344 L 35.300781 24.347656 L 35.734375 23.019531 L 34.601562 22.199219 L 36 22.199219 Z M 36.433594 20.871094 "/>
<path fill-rule="nonzero" fill="rgb(100%, 85.490196%, 26.666667%)" fill-opacity="1" d="M 23.832031 29.917969 L 25.078125 30.554688 L 26.066406 29.566406 L 25.847656 30.945312 L 27.089844 31.578125 L 25.710938 31.796875 L 25.492188 33.175781 L 24.859375 31.933594 L 23.480469 32.152344 L 24.464844 31.164062 Z M 23.832031 29.917969 "/>
<path fill-rule="nonzero" fill="rgb(100%, 85.490196%, 26.666667%)" fill-opacity="1" d="M 23.832031 24.703125 L 25.078125 25.335938 L 26.066406 24.347656 L 25.847656 25.726562 L 27.089844 26.363281 L 25.710938 26.582031 L 25.492188 27.960938 L 24.859375 26.714844 L 23.480469 26.933594 L 24.464844 25.945312 Z M 23.832031 24.703125 "/>
<path fill-rule="nonzero" fill="rgb(100%, 85.490196%, 26.666667%)" fill-opacity="1" d="M 28.179688 28.046875 L 29.425781 28.679688 L 30.414062 27.691406 L 30.195312 29.070312 L 31.4375 29.707031 L 30.058594 29.925781 L 29.839844 31.304688 L 29.207031 30.058594 L 27.828125 30.277344 L 28.8125 29.289062 Z M 28.179688 28.046875 "/>
<path fill-rule="nonzero" fill="rgb(100%, 85.490196%, 26.666667%)" fill-opacity="1" d="M 28.179688 16.875 L 29.425781 17.507812 L 30.414062 16.523438 L 30.195312 17.902344 L 31.4375 18.535156 L 30.058594 18.753906 L 29.839844 20.132812 L 29.207031 18.890625 L 27.828125 19.109375 L 28.8125 18.121094 Z M 28.179688 16.875 "/>
<path fill-rule="nonzero" fill="rgb(100%, 85.490196%, 26.666667%)" fill-opacity="1" d="M 32.394531 16.742188 L 33.640625 17.375 L 34.625 16.386719 L 34.40625 17.765625 L 35.652344 18.402344 L 34.273438 18.621094 L 34.054688 20 L 33.421875 18.753906 L 32.039062 18.972656 L 33.027344 17.984375 Z M 32.394531 16.742188 "/>
</svg>
