<?xml version="1.0" encoding="UTF-8"?>
<svg xmlns="http://www.w3.org/2000/svg" xmlns:xlink="http://www.w3.org/1999/xlink" width="60" height="60" viewBox="0 0 60 60">
<path fill-rule="nonzero" fill="rgb(20%, 54.117647%, 95.294118%)" fill-opacity="1" d="M 60 30 C 60 46.566406 46.566406 60 30 60 C 13.433594 60 0 46.566406 0 30 L 30 0 C 46.566406 0 60 13.433594 60 30 Z M 60 30 "/>
<path fill-rule="nonzero" fill="rgb(0%, 32.156863%, 70.588235%)" fill-opacity="1" d="M 30 0 L 30 30 L 0 30 C 0 13.429688 13.429688 0 30 0 Z M 30 0 "/>
<path fill-rule="nonzero" fill="rgb(93.333333%, 93.333333%, 93.333333%)" fill-opacity="1" d="M 25.496094 30 L 30 30 L 30 25.496094 L 16.488281 11.984375 L 30 11.984375 L 30 0 C 13.429688 0 0 13.429688 0 30 L 11.984375 30 L 11.984375 16.488281 Z M 25.496094 30 "/>
<path fill-rule="nonzero" fill="rgb(84.705882%, 0%, 15.294118%)" fill-opacity="1" d="M 30 8.980469 L 30 2.972656 L 16.960938 2.972656 C 10.867188 5.917969 5.917969 10.867188 2.972656 16.960938 L 2.972656 30 L 8.980469 30 L 8.980469 8.980469 Z M 30 8.980469 "/>
<path fill-rule="nonzero" fill="rgb(84.705882%, 0%, 15.294118%)" fill-opacity="1" d="M 30 26.996094 L 30 30 L 11.984375 11.984375 L 14.984375 11.984375 Z M 30 26.996094 "/>
<path fill-rule="nonzero" fill="rgb(100%, 85.490196%, 26.666667%)" fill-opacity="1" d="M 32.742188 49.566406 L 33.390625 51.558594 L 35.488281 51.558594 L 33.792969 52.789062 L 34.4375 54.78125 L 32.742188 53.550781 L 31.046875 54.78125 L 31.695312 52.789062 L 30 51.558594 L 32.097656 51.558594 Z M 32.742188 49.566406 "/>
<path fill-rule="nonzero" fill="rgb(100%, 85.490196%, 26.666667%)" fill-opacity="1" d="M 49.429688 36.523438 L 50.078125 38.515625 L 52.171875 38.515625 L 50.480469 39.746094 L 51.125 41.738281 L 49.429688 40.507812 L 47.734375 41.738281 L 48.382812 39.746094 L 46.6875 38.515625 L 48.785156 38.515625 Z M 49.429688 36.523438 "/>
<path fill-rule="nonzero" fill="rgb(100%, 85.490196%, 26.666667%)" fill-opacity="1" d="M 53.613281 16.957031 L 54.257812 18.949219 L 56.355469 18.949219 L 54.660156 20.179688 L 55.308594 22.175781 L 53.613281 20.941406 L 51.917969 22.175781 L 52.566406 20.179688 L 50.871094 18.949219 L 52.964844 18.949219 Z M 53.613281 16.957031 "/>
<path fill-rule="nonzero" fill="rgb(100%, 85.490196%, 26.666667%)" fill-opacity="1" d="M 54.648438 31.304688 L 55.296875 33.296875 L 57.390625 33.296875 L 55.695312 34.527344 L 56.34375 36.523438 L 54.648438 35.289062 L 52.953125 36.523438 L 53.601562 34.527344 L 51.90625 33.296875 L 54 33.296875 Z M 54.648438 31.304688 "/>
<path fill-rule="nonzero" fill="rgb(100%, 85.490196%, 26.666667%)" fill-opacity="1" d="M 35.75 44.878906 L 37.617188 45.828125 L 39.097656 44.347656 L 38.769531 46.417969 L 40.636719 47.367188 L 38.566406 47.695312 L 38.238281 49.765625 L 37.289062 47.898438 L 35.21875 48.226562 L 36.699219 46.746094 Z M 35.75 44.878906 "/>
<path fill-rule="nonzero" fill="rgb(100%, 85.490196%, 26.666667%)" fill-opacity="1" d="M 35.75 37.050781 L 37.617188 38.003906 L 39.097656 36.523438 L 38.769531 38.589844 L 40.636719 39.542969 L 38.566406 39.871094 L 38.238281 41.941406 L 37.289062 40.074219 L 35.21875 40.402344 L 36.699219 38.917969 Z M 35.75 37.050781 "/>
<path fill-rule="nonzero" fill="rgb(100%, 85.490196%, 26.666667%)" fill-opacity="1" d="M 42.269531 42.066406 L 44.136719 43.019531 L 45.617188 41.539062 L 45.289062 43.605469 L 47.15625 44.558594 L 45.089844 44.886719 L 44.761719 46.957031 L 43.808594 45.089844 L 41.738281 45.417969 L 43.222656 43.933594 Z M 42.269531 42.066406 "/>
<path fill-rule="nonzero" fill="rgb(100%, 85.490196%, 26.666667%)" fill-opacity="1" d="M 42.269531 25.3125 L 44.136719 26.265625 L 45.617188 24.78125 L 45.289062 26.851562 L 47.15625 27.804688 L 45.089844 28.128906 L 44.761719 30.199219 L 43.808594 28.332031 L 41.738281 28.660156 L 43.222656 27.179688 Z M 42.269531 25.3125 "/>
<path fill-rule="nonzero" fill="rgb(100%, 85.490196%, 26.666667%)" fill-opacity="1" d="M 48.589844 25.113281 L 50.457031 26.0625 L 51.941406 24.582031 L 51.613281 26.652344 L 53.480469 27.601562 L 51.410156 27.929688 L 51.082031 30 L 50.128906 28.132812 L 48.058594 28.460938 L 49.542969 26.980469 Z M 48.589844 25.113281 "/>
</svg>
