<?xml version="1.0" encoding="UTF-8"?>
<svg xmlns="http://www.w3.org/2000/svg" xmlns:xlink="http://www.w3.org/1999/xlink" width="60" height="60" viewBox="0 0 60 60">
<path fill-rule="nonzero" fill="rgb(0%, 13.333333%, 40%)" fill-opacity="1" d="M 60 30 C 60 46.566406 46.566406 60 30 60 C 13.433594 60 0 46.566406 0 30 L 30 0 C 46.566406 0 60 13.433594 60 30 Z M 60 30 "/>
<path fill-rule="nonzero" fill="rgb(0%, 13.333333%, 40%)" fill-opacity="1" d="M 30 0 L 30 30 L 0 30 C 0 13.429688 13.429688 0 30 0 Z M 30 0 "/>
<path fill-rule="nonzero" fill="rgb(93.333333%, 93.333333%, 93.333333%)" fill-opacity="1" d="M 25.496094 30 L 30 30 L 30 25.496094 L 16.488281 11.984375 L 30 11.984375 L 30 0 C 13.429688 0 0 13.429688 0 30 L 11.984375 30 L 11.984375 16.488281 Z M 25.496094 30 "/>
<path fill-rule="nonzero" fill="rgb(84.705882%, 0%, 15.294118%)" fill-opacity="1" d="M 30 8.980469 L 30 2.972656 L 16.960938 2.972656 C 10.867188 5.917969 5.917969 10.867188 2.972656 16.960938 L 2.972656 30 L 8.980469 30 L 8.980469 8.980469 Z M 30 8.980469 "/>
<path fill-rule="nonzero" fill="rgb(84.705882%, 0%, 15.294118%)" fill-opacity="1" d="M 30 26.996094 L 30 30 L 11.984375 11.984375 L 14.984375 11.984375 Z M 30 26.996094 "/>
<path fill-rule="evenodd" fill="rgb(100%, 77.647059%, 20.784314%)" fill-opacity="1" d="M 34.765625 42.207031 C 35.203125 42.453125 35.652344 42.6875 36.101562 42.902344 L 36.167969 42.9375 L 36.015625 43.277344 L 35.867188 43.609375 L 36.199219 43.757812 C 37.582031 44.382812 39.039062 44.859375 40.523438 45.179688 C 41.992188 45.492188 43.5 45.652344 45.003906 45.652344 C 46.507812 45.652344 48.015625 45.492188 49.484375 45.179688 C 50.96875 44.859375 52.425781 44.382812 53.808594 43.757812 L 54.140625 43.609375 L 53.992188 43.277344 L 53.839844 42.9375 L 53.90625 42.902344 C 54.359375 42.6875 54.808594 42.453125 55.242188 42.207031 L 55.78125 41.898438 L 55.246094 41.578125 C 54.867188 41.351562 54.492188 41.113281 54.125 40.863281 C 54.113281 40.390625 54.085938 39.917969 54.042969 39.449219 L 53.992188 38.886719 L 53.5 39.167969 C 53.058594 39.417969 52.601562 39.652344 52.140625 39.867188 L 51.414062 40.199219 L 51.621094 40.765625 C 49.511719 41.613281 47.289062 42.042969 45.003906 42.042969 C 42.71875 42.042969 40.476562 41.609375 38.359375 40.753906 L 38.59375 40.195312 L 37.867188 39.863281 C 37.40625 39.652344 36.949219 39.417969 36.503906 39.164062 L 36.007812 38.882812 L 35.964844 39.453125 C 35.925781 39.921875 35.902344 40.398438 35.894531 40.871094 C 35.527344 41.117188 35.148438 41.355469 34.765625 41.578125 L 34.21875 41.894531 Z M 34.765625 42.207031 "/>
<path fill-rule="nonzero" fill="rgb(42.745098%, 64.705882%, 26.666667%)" fill-opacity="1" d="M 45 24.78125 C 47.882812 24.78125 50.21875 22.445312 50.21875 19.566406 C 50.21875 16.683594 47.882812 14.347656 45 14.347656 C 42.121094 14.347656 39.785156 16.683594 39.785156 19.566406 C 39.785156 22.445312 42.121094 24.78125 45 24.78125 Z M 45 24.78125 "/>
<path fill-rule="nonzero" fill="rgb(20%, 54.117647%, 95.294118%)" fill-opacity="1" d="M 35.871094 24.78125 L 35.871094 32.609375 C 35.871094 39.597656 45 41.738281 45 41.738281 C 45 41.738281 54.132812 39.597656 54.132812 32.609375 L 54.132812 24.78125 Z M 35.871094 24.78125 "/>
<path fill-rule="nonzero" fill="rgb(95.294118%, 95.294118%, 95.294118%)" fill-opacity="1" d="M 45 28.960938 C 42.71875 28.960938 42.71875 31.050781 40.433594 31.050781 C 38.152344 31.050781 38.152344 28.960938 35.871094 28.960938 L 35.871094 32.617188 C 38.152344 32.617188 38.152344 34.703125 40.433594 34.703125 C 42.71875 34.703125 42.71875 32.617188 45 32.617188 C 47.28125 32.617188 47.28125 34.703125 49.566406 34.703125 C 51.847656 34.703125 51.847656 32.617188 54.132812 32.617188 L 54.132812 28.960938 C 51.847656 28.960938 51.847656 31.050781 49.566406 31.050781 C 47.28125 31.050781 47.28125 28.960938 45 28.960938 Z M 45 28.960938 "/>
<path fill-rule="nonzero" fill="rgb(95.294118%, 95.294118%, 95.294118%)" fill-opacity="1" d="M 45 21.652344 C 42.71875 21.652344 42.71875 23.738281 40.433594 23.738281 C 38.152344 23.738281 38.152344 21.652344 35.871094 21.652344 L 35.871094 25.304688 C 38.152344 25.304688 38.152344 27.390625 40.433594 27.390625 C 42.71875 27.390625 42.71875 25.304688 45 25.304688 C 47.28125 25.304688 47.28125 27.390625 49.566406 27.390625 C 51.847656 27.390625 51.847656 25.304688 54.132812 25.304688 L 54.132812 21.652344 C 51.847656 21.652344 51.847656 23.738281 49.566406 23.738281 C 47.28125 23.738281 47.28125 21.652344 45 21.652344 Z M 45 21.652344 "/>
</svg>
