<?xml version="1.0" encoding="UTF-8"?>
<svg xmlns="http://www.w3.org/2000/svg" xmlns:xlink="http://www.w3.org/1999/xlink" width="40" height="40" viewBox="0 0 40 40">
<path fill-rule="nonzero" fill="rgb(0%, 13.333333%, 40%)" fill-opacity="1" d="M 40 20 C 40 31.046875 31.046875 40 20 40 C 8.953125 40 0 31.046875 0 20 L 20 0 C 31.046875 0 40 8.953125 40 20 Z M 40 20 "/>
<path fill-rule="nonzero" fill="rgb(0%, 13.333333%, 40%)" fill-opacity="1" d="M 20 0 L 20 20 L 0 20 C 0 8.953125 8.953125 0 20 0 Z M 20 0 "/>
<path fill-rule="nonzero" fill="rgb(93.333333%, 93.333333%, 93.333333%)" fill-opacity="1" d="M 16.996094 20 L 20 20 L 20 16.996094 L 10.992188 7.988281 L 20 7.988281 L 20 0 C 8.953125 0 0 8.953125 0 20 L 7.988281 20 L 7.988281 10.992188 Z M 16.996094 20 "/>
<path fill-rule="nonzero" fill="rgb(84.705882%, 0%, 15.294118%)" fill-opacity="1" d="M 20 5.984375 L 20 1.984375 L 11.308594 1.984375 C 7.246094 3.945312 3.945312 7.246094 1.984375 11.308594 L 1.984375 20 L 5.984375 20 L 5.984375 5.984375 Z M 20 5.984375 "/>
<path fill-rule="nonzero" fill="rgb(84.705882%, 0%, 15.294118%)" fill-opacity="1" d="M 20 18 L 20 20 L 7.988281 7.988281 L 9.992188 7.988281 Z M 20 18 "/>
<path fill-rule="evenodd" fill="rgb(100%, 77.647059%, 20.784314%)" fill-opacity="1" d="M 23.179688 28.136719 C 23.46875 28.300781 23.765625 28.457031 24.066406 28.601562 L 24.113281 28.625 L 24.011719 28.851562 L 23.910156 29.070312 L 24.132812 29.171875 C 25.054688 29.589844 26.023438 29.90625 27.015625 30.121094 C 27.996094 30.328125 29 30.433594 30.003906 30.433594 C 31.003906 30.433594 32.011719 30.328125 32.988281 30.121094 C 33.980469 29.90625 34.949219 29.589844 35.875 29.171875 L 36.09375 29.070312 L 35.996094 28.851562 L 35.890625 28.625 L 35.9375 28.601562 C 36.238281 28.457031 36.539062 28.300781 36.828125 28.136719 L 37.1875 27.933594 L 36.832031 27.71875 C 36.578125 27.570312 36.328125 27.410156 36.085938 27.242188 C 36.074219 26.925781 36.054688 26.609375 36.027344 26.300781 L 35.996094 25.925781 L 35.667969 26.109375 C 35.375 26.277344 35.066406 26.4375 34.757812 26.578125 L 34.273438 26.796875 L 34.414062 27.179688 C 33.007812 27.742188 31.527344 28.027344 30.003906 28.027344 C 28.476562 28.027344 26.984375 27.742188 25.570312 27.171875 L 25.730469 26.796875 L 25.246094 26.578125 C 24.9375 26.4375 24.632812 26.277344 24.335938 26.109375 L 24.003906 25.921875 L 23.976562 26.300781 C 23.953125 26.613281 23.9375 26.933594 23.929688 27.25 C 23.683594 27.410156 23.433594 27.570312 23.175781 27.71875 L 22.8125 27.929688 Z M 23.179688 28.136719 "/>
<path fill-rule="nonzero" fill="rgb(42.745098%, 64.705882%, 26.666667%)" fill-opacity="1" d="M 30 16.523438 C 31.921875 16.523438 33.480469 14.964844 33.480469 13.042969 C 33.480469 11.121094 31.921875 9.566406 30 9.566406 C 28.078125 9.566406 26.523438 11.121094 26.523438 13.042969 C 26.523438 14.964844 28.078125 16.523438 30 16.523438 Z M 30 16.523438 "/>
<path fill-rule="nonzero" fill="rgb(20%, 54.117647%, 95.294118%)" fill-opacity="1" d="M 23.914062 16.519531 L 23.914062 21.738281 C 23.914062 26.398438 30 27.828125 30 27.828125 C 30 27.828125 36.089844 26.398438 36.089844 21.738281 L 36.089844 16.519531 Z M 23.914062 16.519531 "/>
<path fill-rule="nonzero" fill="rgb(95.294118%, 95.294118%, 95.294118%)" fill-opacity="1" d="M 30 19.308594 C 28.476562 19.308594 28.476562 20.699219 26.957031 20.699219 C 25.433594 20.699219 25.433594 19.308594 23.914062 19.308594 L 23.914062 21.742188 C 25.433594 21.742188 25.433594 23.136719 26.957031 23.136719 C 28.476562 23.136719 28.476562 21.742188 30 21.742188 C 31.523438 21.742188 31.523438 23.136719 33.042969 23.136719 C 34.566406 23.136719 34.566406 21.742188 36.085938 21.742188 L 36.085938 19.308594 C 34.566406 19.308594 34.566406 20.699219 33.042969 20.699219 C 31.523438 20.699219 31.523438 19.308594 30 19.308594 Z M 30 19.308594 "/>
<path fill-rule="nonzero" fill="rgb(95.294118%, 95.294118%, 95.294118%)" fill-opacity="1" d="M 30 14.433594 C 28.476562 14.433594 28.476562 15.824219 26.957031 15.824219 C 25.433594 15.824219 25.433594 14.433594 23.914062 14.433594 L 23.914062 16.871094 C 25.433594 16.871094 25.433594 18.261719 26.957031 18.261719 C 28.476562 18.261719 28.476562 16.871094 30 16.871094 C 31.523438 16.871094 31.523438 18.261719 33.042969 18.261719 C 34.566406 18.261719 34.566406 16.871094 36.085938 16.871094 L 36.085938 14.433594 C 34.566406 14.433594 34.566406 15.824219 33.042969 15.824219 C 31.523438 15.824219 31.523438 14.433594 30 14.433594 Z M 30 14.433594 "/>
</svg>
