<?xml version="1.0" encoding="UTF-8"?>
<svg xmlns="http://www.w3.org/2000/svg" xmlns:xlink="http://www.w3.org/1999/xlink" width="20" height="20" viewBox="0 0 20 20">
<path fill-rule="nonzero" fill="rgb(0%, 13.333333%, 40%)" fill-opacity="1" d="M 20 10 C 20 15.523438 15.523438 20 10 20 C 4.476562 20 0 15.523438 0 10 L 10 0 C 15.523438 0 20 4.476562 20 10 Z M 20 10 "/>
<path fill-rule="nonzero" fill="rgb(0%, 13.333333%, 40%)" fill-opacity="1" d="M 10 0 L 10 10 L 0 10 C 0 4.476562 4.476562 0 10 0 Z M 10 0 "/>
<path fill-rule="nonzero" fill="rgb(93.333333%, 93.333333%, 93.333333%)" fill-opacity="1" d="M 8.5 10 L 10 10 L 10 8.5 L 5.496094 3.992188 L 10 3.992188 L 10 0 C 4.476562 0 0 4.476562 0 10 L 3.992188 10 L 3.992188 5.496094 Z M 8.5 10 "/>
<path fill-rule="nonzero" fill="rgb(84.705882%, 0%, 15.294118%)" fill-opacity="1" d="M 10 2.992188 L 10 0.992188 L 5.652344 0.992188 C 3.621094 1.972656 1.972656 3.621094 0.992188 5.652344 L 0.992188 10 L 2.992188 10 L 2.992188 2.992188 Z M 10 2.992188 "/>
<path fill-rule="nonzero" fill="rgb(84.705882%, 0%, 15.294118%)" fill-opacity="1" d="M 10 9 L 10 10 L 3.992188 3.992188 L 4.996094 3.992188 Z M 10 9 "/>
<path fill-rule="evenodd" fill="rgb(100%, 77.647059%, 20.784314%)" fill-opacity="1" d="M 11.589844 14.070312 C 11.734375 14.152344 11.882812 14.230469 12.035156 14.300781 L 12.054688 14.3125 L 12.003906 14.425781 L 11.957031 14.535156 L 12.066406 14.585938 C 12.527344 14.792969 13.011719 14.953125 13.507812 15.058594 C 13.996094 15.164062 14.5 15.21875 15 15.21875 C 15.503906 15.21875 16.003906 15.164062 16.496094 15.058594 C 16.988281 14.953125 17.476562 14.792969 17.9375 14.585938 L 18.046875 14.535156 L 17.996094 14.425781 L 17.945312 14.3125 L 17.96875 14.300781 C 18.121094 14.230469 18.269531 14.152344 18.414062 14.070312 L 18.59375 13.964844 L 18.414062 13.859375 C 18.289062 13.785156 18.164062 13.703125 18.042969 13.621094 C 18.039062 13.464844 18.027344 13.304688 18.015625 13.148438 L 17.996094 12.960938 L 17.835938 13.054688 C 17.6875 13.140625 17.535156 13.21875 17.378906 13.289062 L 17.136719 13.398438 L 17.207031 13.589844 C 16.503906 13.871094 15.761719 14.015625 15 14.015625 C 14.238281 14.015625 13.492188 13.871094 12.785156 13.585938 L 12.863281 13.398438 L 12.621094 13.289062 C 12.46875 13.21875 12.316406 13.140625 12.167969 13.054688 L 12.003906 12.960938 L 11.988281 13.152344 C 11.976562 13.308594 11.96875 13.464844 11.964844 13.625 C 11.84375 13.707031 11.714844 13.785156 11.589844 13.859375 L 11.40625 13.964844 Z M 11.589844 14.070312 "/>
<path fill-rule="nonzero" fill="rgb(42.745098%, 64.705882%, 26.666667%)" fill-opacity="1" d="M 15 8.261719 C 15.960938 8.261719 16.738281 7.480469 16.738281 6.523438 C 16.738281 5.5625 15.960938 4.78125 15 4.78125 C 14.039062 4.78125 13.261719 5.5625 13.261719 6.523438 C 13.261719 7.480469 14.039062 8.261719 15 8.261719 Z M 15 8.261719 "/>
<path fill-rule="nonzero" fill="rgb(20%, 54.117647%, 95.294118%)" fill-opacity="1" d="M 11.957031 8.261719 L 11.957031 10.871094 C 11.957031 13.199219 15 13.914062 15 13.914062 C 15 13.914062 18.042969 13.199219 18.042969 10.871094 L 18.042969 8.261719 Z M 11.957031 8.261719 "/>
<path fill-rule="nonzero" fill="rgb(95.294118%, 95.294118%, 95.294118%)" fill-opacity="1" d="M 15 9.65625 C 14.238281 9.65625 14.238281 10.351562 13.476562 10.351562 C 12.71875 10.351562 12.71875 9.65625 11.957031 9.65625 L 11.957031 10.871094 C 12.71875 10.871094 12.71875 11.566406 13.476562 11.566406 C 14.238281 11.566406 14.238281 10.871094 15 10.871094 C 15.761719 10.871094 15.761719 11.566406 16.523438 11.566406 C 17.28125 11.566406 17.28125 10.871094 18.042969 10.871094 L 18.042969 9.65625 C 17.28125 9.65625 17.28125 10.351562 16.523438 10.351562 C 15.761719 10.351562 15.761719 9.65625 15 9.65625 Z M 15 9.65625 "/>
<path fill-rule="nonzero" fill="rgb(95.294118%, 95.294118%, 95.294118%)" fill-opacity="1" d="M 15 7.21875 C 14.238281 7.21875 14.238281 7.914062 13.476562 7.914062 C 12.71875 7.914062 12.71875 7.21875 11.957031 7.21875 L 11.957031 8.433594 C 12.71875 8.433594 12.71875 9.128906 13.476562 9.128906 C 14.238281 9.128906 14.238281 8.433594 15 8.433594 C 15.761719 8.433594 15.761719 9.128906 16.523438 9.128906 C 17.28125 9.128906 17.28125 8.433594 18.042969 8.433594 L 18.042969 7.21875 C 17.28125 7.21875 17.28125 7.914062 16.523438 7.914062 C 15.761719 7.914062 15.761719 7.21875 15 7.21875 Z M 15 7.21875 "/>
</svg>
