<?xml version="1.0" encoding="UTF-8"?>
<svg width="16px" height="16px" viewBox="0 0 16 16" version="1.1" xmlns="http://www.w3.org/2000/svg" xmlns:xlink="http://www.w3.org/1999/xlink">
    <!-- Generator: Sketch 56.3 (81716) - https://sketch.com -->
    <title>social-dark</title>
    <desc>Created with Sketch.</desc>
    <g id="Page-1" stroke="none" stroke-width="1" fill="none" fill-rule="evenodd">
        <g id="socialsicon" fill="#020D1C" fill-rule="nonzero">
            <path d="M13,0 C14.6568542,0 16,1.34314575 16,3 C16,4.30588222 15.1656226,5.41688515 14.0009007,5.82897577 L14.0009007,10.1710242 C15.1656226,10.5831148 16,11.6941178 16,13 C16,14.6568542 14.6568542,16 13,16 C11.3431458,16 10,14.6568542 10,13 C10,12.8747324 10.0076777,12.751258 10.0225882,12.6300218 L5.08219177,10.1597445 C4.54266838,10.680013 3.80870267,11 3,11 C1.34314575,11 0,9.65685425 0,8 C0,6.34314575 1.34314575,5 3,5 C3.80870267,5 4.54266838,5.31998696 5.08219177,5.84025553 L10.0225882,3.3699782 C10.0076777,3.24874196 10,3.12526759 10,3 C10,1.34314575 11.3431458,0 13,0 Z M13,12 C12.4477153,12 12,12.4477153 12,13 C12,13.5522847 12.4477153,14 13,14 C13.5522847,14 14,13.5522847 14,13 C14,12.4477153 13.5522847,12 13,12 Z M10.9178082,5.15974447 L5.97728802,7.62901713 C5.99227981,7.75057587 6,7.87438636 6,8 C6,8.12561364 5.99227981,8.24942413 5.97728802,8.37098287 L10.9178082,10.8402555 C11.2231818,10.5457803 11.5908474,10.315468 11.9990993,10.1710242 L11.9990993,5.82897577 C11.5908474,5.68453204 11.2231818,5.45421965 10.9178082,5.15974447 Z M3,7 C2.44771525,7 2,7.44771525 2,8 C2,8.55228475 2.44771525,9 3,9 C3.55228475,9 4,8.55228475 4,8 C4,7.44771525 3.55228475,7 3,7 Z M13,2 C12.4477153,2 12,2.44771525 12,3 C12,3.55228475 12.4477153,4 13,4 C13.5522847,4 14,3.55228475 14,3 C14,2.44771525 13.5522847,2 13,2 Z" id="Combined-Shape"></path>
        </g>
    </g>
</svg>