<?xml version="1.0" encoding="UTF-8"?>
<svg xmlns="http://www.w3.org/2000/svg" xmlns:xlink="http://www.w3.org/1999/xlink" width="60" height="60" viewBox="0 0 60 60">
<path fill-rule="nonzero" fill="rgb(20%, 54.117647%, 95.294118%)" fill-opacity="1" d="M 60 30 C 60 46.570312 46.570312 60 30 60 C 13.429688 60 0 46.570312 0 30 C 0 13.429688 13.429688 0 30 0 C 46.570312 0 60 13.429688 60 30 Z M 60 30 "/>
<path fill-rule="evenodd" fill="rgb(100%, 85.490196%, 26.666667%)" fill-opacity="1" d="M 3.015625 43.125 C 2.484375 42.035156 2.019531 40.910156 1.621094 39.75 L 58.378906 39.75 C 57.980469 40.910156 57.515625 42.035156 56.984375 43.125 Z M 7.527344 49.875 C 6.589844 48.8125 5.722656 47.6875 4.941406 46.5 L 55.058594 46.5 C 54.277344 47.6875 53.410156 48.8125 52.472656 49.875 Z M 7.527344 49.875 "/>
<path fill-rule="nonzero" fill="rgb(93.333333%, 93.333333%, 93.333333%)" fill-opacity="1" d="M 14.523438 20.726562 L 7.5 17.625 L 14.523438 14.523438 L 17.625 7.5 L 20.726562 14.523438 L 27.75 17.625 L 20.726562 20.726562 L 17.625 27.75 L 14.527344 20.726562 Z M 14.523438 20.726562 "/>
<path fill-rule="nonzero" fill="rgb(84.705882%, 0%, 15.294118%)" fill-opacity="1" d="M 17.625 11.371094 L 19.539062 15.710938 L 23.878906 17.625 L 19.539062 19.539062 L 17.625 23.878906 L 15.710938 19.539062 L 11.371094 17.625 L 15.710938 15.710938 Z M 17.625 11.371094 "/>
</svg>
