<?xml version="1.0" encoding="UTF-8"?>
<svg xmlns="http://www.w3.org/2000/svg" xmlns:xlink="http://www.w3.org/1999/xlink" width="20" height="20" viewBox="0 0 20 20">
<path fill-rule="nonzero" fill="rgb(20%, 54.117647%, 95.294118%)" fill-opacity="1" d="M 20 10 C 20 15.523438 15.523438 20 10 20 C 4.476562 20 0 15.523438 0 10 C 0 4.476562 4.476562 0 10 0 C 15.523438 0 20 4.476562 20 10 Z M 20 10 "/>
<path fill-rule="evenodd" fill="rgb(100%, 85.490196%, 26.666667%)" fill-opacity="1" d="M 1.003906 14.375 C 0.828125 14.011719 0.671875 13.636719 0.539062 13.25 L 19.460938 13.25 C 19.328125 13.636719 19.171875 14.011719 18.996094 14.375 Z M 2.507812 16.625 C 2.195312 16.269531 1.90625 15.894531 1.648438 15.5 L 18.351562 15.5 C 18.09375 15.894531 17.804688 16.269531 17.492188 16.625 Z M 2.507812 16.625 "/>
<path fill-rule="nonzero" fill="rgb(93.333333%, 93.333333%, 93.333333%)" fill-opacity="1" d="M 4.84375 6.910156 L 2.5 5.875 L 4.84375 4.839844 L 5.875 2.5 L 6.910156 4.839844 L 9.25 5.875 L 6.910156 6.910156 L 5.875 9.25 Z M 4.84375 6.910156 "/>
<path fill-rule="nonzero" fill="rgb(84.705882%, 0%, 15.294118%)" fill-opacity="1" d="M 5.875 3.789062 L 6.511719 5.238281 L 7.960938 5.875 L 6.511719 6.511719 L 5.875 7.960938 L 5.238281 6.511719 L 3.789062 5.875 L 5.238281 5.238281 Z M 5.875 3.789062 "/>
</svg>
