<?xml version="1.0" encoding="UTF-8"?>
<svg xmlns="http://www.w3.org/2000/svg" xmlns:xlink="http://www.w3.org/1999/xlink" width="40" height="40" viewBox="0 0 40 40">
<path fill-rule="nonzero" fill="rgb(20%, 54.117647%, 95.294118%)" fill-opacity="1" d="M 40 20 C 40 31.046875 31.046875 40 20 40 C 8.953125 40 0 31.046875 0 20 C 0 8.953125 8.953125 0 20 0 C 31.046875 0 40 8.953125 40 20 Z M 40 20 "/>
<path fill-rule="evenodd" fill="rgb(100%, 85.490196%, 26.666667%)" fill-opacity="1" d="M 2.011719 28.75 C 1.65625 28.023438 1.34375 27.273438 1.078125 26.5 L 38.917969 26.5 C 38.65625 27.273438 38.34375 28.023438 37.988281 28.75 Z M 5.019531 33.25 C 4.390625 32.542969 3.816406 31.792969 3.292969 31 L 36.707031 31 C 36.183594 31.792969 35.605469 32.542969 34.980469 33.25 Z M 5.019531 33.25 "/>
<path fill-rule="nonzero" fill="rgb(93.333333%, 93.333333%, 93.333333%)" fill-opacity="1" d="M 9.683594 13.816406 L 5 11.75 L 9.683594 9.683594 L 11.75 5 L 13.816406 9.683594 L 18.5 11.75 L 13.816406 13.816406 L 11.75 18.5 Z M 9.683594 13.816406 "/>
<path fill-rule="nonzero" fill="rgb(84.705882%, 0%, 15.294118%)" fill-opacity="1" d="M 11.75 7.582031 L 13.027344 10.472656 L 15.917969 11.75 L 13.027344 13.027344 L 11.75 15.917969 L 10.472656 13.027344 L 7.582031 11.75 L 10.472656 10.472656 Z M 11.75 7.582031 "/>
</svg>
