<?xml version="1.0" encoding="UTF-8"?>
<svg xmlns="http://www.w3.org/2000/svg" xmlns:xlink="http://www.w3.org/1999/xlink" width="60" height="60" viewBox="0 0 60 60">
<path fill-rule="nonzero" fill="rgb(93.333333%, 93.333333%, 93.333333%)" fill-opacity="1" d="M 60 30 C 60 46.570312 46.570312 60 30 60 C 13.429688 60 0 46.570312 0 30 C 0 13.429688 13.429688 0 30 0 C 46.570312 0 60 13.429688 60 30 Z M 60 30 "/>
<path fill-rule="nonzero" fill="rgb(84.705882%, 0%, 15.294118%)" fill-opacity="1" d="M 39.960938 1.691406 L 39.960938 58.304688 C 36.84375 59.402344 33.492188 60 30 60 C 26.507812 60 23.15625 59.402344 20.039062 58.304688 L 20.039062 1.691406 C 23.15625 0.597656 26.507812 0 30 0 C 33.492188 0 36.84375 0.597656 39.960938 1.691406 Z M 39.960938 1.691406 "/>
<path fill-rule="nonzero" fill="rgb(0%, 32.156863%, 70.588235%)" fill-opacity="1" d="M 58.304688 39.960938 C 59.402344 36.84375 60 33.492188 60 30 C 60 26.507812 59.402344 23.15625 58.304688 20.039062 L 1.691406 20.039062 C 0.597656 23.15625 0 26.507812 0 30 C 0 33.492188 0.597656 36.84375 1.691406 39.960938 Z M 58.304688 39.960938 "/>
<path fill-rule="nonzero" fill="rgb(93.333333%, 93.333333%, 93.333333%)" fill-opacity="1" d="M 30 21.210938 L 30.972656 24.199219 L 34.113281 24.199219 L 31.570312 26.046875 L 32.542969 29.035156 L 30 27.1875 L 27.457031 29.035156 L 28.429688 26.046875 L 25.886719 24.199219 L 29.027344 24.199219 Z M 30 21.210938 "/>
<path fill-rule="nonzero" fill="rgb(93.333333%, 93.333333%, 93.333333%)" fill-opacity="1" d="M 35.496094 30.136719 L 36.46875 33.128906 L 39.609375 33.128906 L 37.070312 34.972656 L 38.039062 37.964844 L 35.496094 36.117188 L 32.953125 37.964844 L 33.925781 34.972656 L 31.382812 33.128906 L 34.527344 33.128906 Z M 35.496094 30.136719 "/>
<path fill-rule="nonzero" fill="rgb(93.333333%, 93.333333%, 93.333333%)" fill-opacity="1" d="M 24.503906 30.136719 L 25.472656 33.128906 L 28.617188 33.128906 L 26.074219 34.972656 L 27.046875 37.964844 L 24.503906 36.117188 L 21.960938 37.964844 L 22.929688 34.972656 L 20.390625 33.128906 L 23.53125 33.128906 Z M 24.503906 30.136719 "/>
<path fill-rule="nonzero" fill="rgb(93.333333%, 93.333333%, 93.333333%)" fill-opacity="1" d="M 15.851562 25.675781 L 16.820312 28.664062 L 19.964844 28.664062 L 17.421875 30.511719 L 18.394531 33.5 L 15.851562 31.652344 L 13.308594 33.5 L 14.28125 30.511719 L 11.738281 28.664062 L 14.878906 28.664062 Z M 15.851562 25.675781 "/>
<path fill-rule="nonzero" fill="rgb(93.333333%, 93.333333%, 93.333333%)" fill-opacity="1" d="M 44.148438 25.675781 L 45.121094 28.664062 L 48.261719 28.664062 L 45.71875 30.511719 L 46.691406 33.5 L 44.148438 31.652344 L 41.605469 33.5 L 42.578125 30.511719 L 40.035156 28.664062 L 43.179688 28.664062 Z M 44.148438 25.675781 "/>
</svg>
