<?xml version="1.0" encoding="UTF-8"?>
<svg xmlns="http://www.w3.org/2000/svg" xmlns:xlink="http://www.w3.org/1999/xlink" width="20" height="20" viewBox="0 0 20 20">
<path fill-rule="nonzero" fill="rgb(93.333333%, 93.333333%, 93.333333%)" fill-opacity="1" d="M 20 10 C 20 15.523438 15.523438 20 10 20 C 4.476562 20 0 15.523438 0 10 C 0 4.476562 4.476562 0 10 0 C 15.523438 0 20 4.476562 20 10 Z M 20 10 "/>
<path fill-rule="nonzero" fill="rgb(84.705882%, 0%, 15.294118%)" fill-opacity="1" d="M 13.320312 0.5625 L 13.320312 19.433594 C 12.28125 19.800781 11.164062 20 10 20 C 8.835938 20 7.71875 19.800781 6.679688 19.433594 L 6.679688 0.5625 C 7.71875 0.199219 8.835938 0 10 0 C 11.164062 0 12.28125 0.199219 13.320312 0.5625 Z M 13.320312 0.5625 "/>
<path fill-rule="nonzero" fill="rgb(0%, 32.156863%, 70.588235%)" fill-opacity="1" d="M 19.4375 13.320312 C 19.800781 12.28125 20 11.164062 20 10 C 20 8.835938 19.800781 7.71875 19.4375 6.679688 L 0.5625 6.679688 C 0.199219 7.71875 0 8.835938 0 10 C 0 11.164062 0.199219 12.28125 0.5625 13.320312 Z M 19.4375 13.320312 "/>
<path fill-rule="nonzero" fill="rgb(93.333333%, 93.333333%, 93.333333%)" fill-opacity="1" d="M 10 7.070312 L 10.324219 8.066406 L 11.371094 8.066406 L 10.523438 8.683594 L 10.847656 9.679688 L 10 9.0625 L 9.152344 9.679688 L 9.476562 8.683594 L 8.628906 8.066406 L 9.675781 8.066406 Z M 10 7.070312 "/>
<path fill-rule="nonzero" fill="rgb(93.333333%, 93.333333%, 93.333333%)" fill-opacity="1" d="M 11.832031 10.046875 L 12.15625 11.042969 L 13.203125 11.042969 L 12.355469 11.65625 L 12.679688 12.65625 L 11.832031 12.039062 L 10.984375 12.65625 L 11.308594 11.65625 L 10.460938 11.042969 L 11.507812 11.042969 Z M 11.832031 10.046875 "/>
<path fill-rule="nonzero" fill="rgb(93.333333%, 93.333333%, 93.333333%)" fill-opacity="1" d="M 8.167969 10.046875 L 8.492188 11.042969 L 9.539062 11.042969 L 8.691406 11.65625 L 9.015625 12.65625 L 8.167969 12.039062 L 7.320312 12.65625 L 7.644531 11.65625 L 6.796875 11.042969 L 7.84375 11.042969 Z M 8.167969 10.046875 "/>
<path fill-rule="nonzero" fill="rgb(93.333333%, 93.333333%, 93.333333%)" fill-opacity="1" d="M 5.285156 8.558594 L 5.605469 9.554688 L 6.65625 9.554688 L 5.808594 10.171875 L 6.132812 11.167969 L 5.285156 10.550781 L 4.4375 11.167969 L 4.761719 10.171875 L 3.914062 9.554688 L 4.960938 9.554688 Z M 5.285156 8.558594 "/>
<path fill-rule="nonzero" fill="rgb(93.333333%, 93.333333%, 93.333333%)" fill-opacity="1" d="M 14.714844 8.558594 L 15.039062 9.554688 L 16.085938 9.554688 L 15.238281 10.171875 L 15.5625 11.167969 L 14.714844 10.550781 L 13.867188 11.167969 L 14.191406 10.171875 L 13.34375 9.554688 L 14.394531 9.554688 Z M 14.714844 8.558594 "/>
</svg>
