<?xml version="1.0" encoding="UTF-8"?>
<svg xmlns="http://www.w3.org/2000/svg" xmlns:xlink="http://www.w3.org/1999/xlink" width="40" height="40" viewBox="0 0 40 40">
<path fill-rule="nonzero" fill="rgb(93.333333%, 93.333333%, 93.333333%)" fill-opacity="1" d="M 40 20 C 40 31.046875 31.046875 40 20 40 C 8.953125 40 0 31.046875 0 20 C 0 8.953125 8.953125 0 20 0 C 31.046875 0 40 8.953125 40 20 Z M 40 20 "/>
<path fill-rule="nonzero" fill="rgb(84.705882%, 0%, 15.294118%)" fill-opacity="1" d="M 26.640625 1.128906 L 26.640625 38.871094 C 24.5625 39.601562 22.328125 40 20 40 C 17.671875 40 15.4375 39.601562 13.359375 38.871094 L 13.359375 1.128906 C 15.4375 0.398438 17.671875 0 20 0 C 22.328125 0 24.5625 0.398438 26.640625 1.128906 Z M 26.640625 1.128906 "/>
<path fill-rule="nonzero" fill="rgb(0%, 32.156863%, 70.588235%)" fill-opacity="1" d="M 38.871094 26.640625 C 39.601562 24.5625 40 22.328125 40 20 C 40 17.671875 39.601562 15.4375 38.871094 13.359375 L 1.128906 13.359375 C 0.398438 15.4375 0 17.671875 0 20 C 0 22.328125 0.398438 24.5625 1.128906 26.640625 Z M 38.871094 26.640625 "/>
<path fill-rule="nonzero" fill="rgb(93.333333%, 93.333333%, 93.333333%)" fill-opacity="1" d="M 20 14.140625 L 20.648438 16.132812 L 22.742188 16.132812 L 21.046875 17.363281 L 21.695312 19.355469 L 20 18.125 L 18.304688 19.355469 L 18.953125 17.363281 L 17.257812 16.132812 L 19.351562 16.132812 Z M 20 14.140625 "/>
<path fill-rule="nonzero" fill="rgb(93.333333%, 93.333333%, 93.333333%)" fill-opacity="1" d="M 23.664062 20.09375 L 24.3125 22.085938 L 26.40625 22.085938 L 24.710938 23.316406 L 25.359375 25.308594 L 23.664062 24.078125 L 21.96875 25.308594 L 22.617188 23.316406 L 20.921875 22.085938 L 23.015625 22.085938 Z M 23.664062 20.09375 "/>
<path fill-rule="nonzero" fill="rgb(93.333333%, 93.333333%, 93.333333%)" fill-opacity="1" d="M 16.335938 20.09375 L 16.984375 22.085938 L 19.078125 22.085938 L 17.382812 23.316406 L 18.03125 25.308594 L 16.335938 24.078125 L 14.640625 25.308594 L 15.289062 23.316406 L 13.59375 22.085938 L 15.6875 22.085938 Z M 16.335938 20.09375 "/>
<path fill-rule="nonzero" fill="rgb(93.333333%, 93.333333%, 93.333333%)" fill-opacity="1" d="M 10.566406 17.117188 L 11.214844 19.109375 L 13.308594 19.109375 L 11.613281 20.339844 L 12.261719 22.332031 L 10.566406 21.101562 L 8.871094 22.332031 L 9.519531 20.339844 L 7.824219 19.109375 L 9.917969 19.109375 Z M 10.566406 17.117188 "/>
<path fill-rule="nonzero" fill="rgb(93.333333%, 93.333333%, 93.333333%)" fill-opacity="1" d="M 29.433594 17.117188 L 30.082031 19.109375 L 32.175781 19.109375 L 30.480469 20.339844 L 31.128906 22.332031 L 29.433594 21.101562 L 27.738281 22.332031 L 28.386719 20.339844 L 26.691406 19.109375 L 28.785156 19.109375 Z M 29.433594 17.117188 "/>
</svg>
