<?xml version="1.0" encoding="UTF-8"?>
<svg xmlns="http://www.w3.org/2000/svg" xmlns:xlink="http://www.w3.org/1999/xlink" width="20" height="20" viewBox="0 0 20 20">
<path fill-rule="nonzero" fill="rgb(0%, 13.333333%, 40%)" fill-opacity="1" d="M 20 10 C 20 15.523438 15.523438 20 10 20 C 4.476562 20 0 15.523438 0 10 L 10 0 C 15.523438 0 20 4.476562 20 10 Z M 20 10 "/>
<path fill-rule="nonzero" fill="rgb(0%, 13.333333%, 40%)" fill-opacity="1" d="M 10 0 L 10 10 L 0 10 C 0 4.476562 4.476562 0 10 0 Z M 10 0 "/>
<path fill-rule="nonzero" fill="rgb(93.333333%, 93.333333%, 93.333333%)" fill-opacity="1" d="M 8.5 10 L 10 10 L 10 8.5 L 5.496094 3.992188 L 10 3.992188 L 10 0 C 4.476562 0 0 4.476562 0 10 L 3.992188 10 L 3.992188 5.496094 Z M 8.5 10 "/>
<path fill-rule="nonzero" fill="rgb(84.705882%, 0%, 15.294118%)" fill-opacity="1" d="M 10 2.992188 L 10 0.992188 L 5.652344 0.992188 C 3.621094 1.972656 1.972656 3.621094 0.992188 5.652344 L 0.992188 10 L 2.992188 10 L 2.992188 2.992188 Z M 10 2.992188 "/>
<path fill-rule="nonzero" fill="rgb(84.705882%, 0%, 15.294118%)" fill-opacity="1" d="M 10 9 L 10 10 L 3.992188 3.992188 L 4.996094 3.992188 Z M 10 9 "/>
<path fill-rule="nonzero" fill="rgb(67.45098%, 67.058824%, 69.411765%)" fill-opacity="1" d="M 16.304688 7.171875 L 15 7.609375 L 13.695312 7.171875 L 13.261719 6.085938 L 13.695312 5 L 16.304688 5 L 15.871094 6.085938 Z M 16.304688 7.171875 "/>
<path fill-rule="nonzero" fill="rgb(20%, 54.117647%, 95.294118%)" fill-opacity="1" d="M 11.957031 7.171875 L 11.957031 11.957031 C 11.957031 14.285156 15 15 15 15 C 15 15 18.042969 14.285156 18.042969 11.957031 L 18.042969 7.175781 L 11.957031 7.175781 Z M 11.957031 7.171875 "/>
<path fill-rule="nonzero" fill="rgb(42.745098%, 64.705882%, 26.666667%)" fill-opacity="1" d="M 12.230469 13.089844 C 12.980469 14.527344 15 15 15 15 C 15 15 17.023438 14.527344 17.769531 13.089844 L 15 8.476562 Z M 12.230469 13.089844 "/>
<path fill-rule="nonzero" fill="rgb(100%, 85.490196%, 26.666667%)" fill-opacity="1" d="M 18.042969 11.90625 L 15 7.171875 L 11.957031 11.90625 L 11.957031 11.957031 C 11.957031 12.386719 12.0625 12.761719 12.230469 13.089844 L 15 8.78125 L 17.769531 13.089844 C 17.941406 12.761719 18.042969 12.386719 18.042969 11.957031 Z M 18.042969 11.90625 "/>
</svg>
