<?xml version="1.0" encoding="UTF-8"?>
<svg xmlns="http://www.w3.org/2000/svg" xmlns:xlink="http://www.w3.org/1999/xlink" width="60" height="60" viewBox="0 0 60 60">
<path fill-rule="nonzero" fill="rgb(0%, 32.156863%, 70.588235%)" fill-opacity="1" d="M 60 30 C 60 46.570312 46.570312 60 30 60 C 13.429688 60 0 46.570312 0 30 C 0 13.429688 13.429688 0 30 0 C 46.570312 0 60 13.429688 60 30 Z M 60 30 "/>
<path fill-rule="nonzero" fill="rgb(93.333333%, 93.333333%, 93.333333%)" fill-opacity="1" d="M 53.839844 11.785156 L 35.625 30 L 53.839844 48.214844 C 52.222656 50.328125 50.328125 52.222656 48.214844 53.839844 L 30 35.625 L 11.785156 53.839844 C 9.671875 52.222656 7.777344 50.328125 6.160156 48.214844 L 24.375 30 L 6.160156 11.785156 C 7.777344 9.671875 9.671875 7.777344 11.785156 6.160156 L 30 24.375 L 48.214844 6.160156 C 50.328125 7.777344 52.222656 9.671875 53.839844 11.785156 Z M 53.839844 11.785156 "/>
<path fill-rule="nonzero" fill="rgb(93.333333%, 93.333333%, 93.333333%)" fill-opacity="1" d="M 33.75 0.230469 C 35.027344 0.390625 36.277344 0.628906 37.5 0.945312 L 37.5 22.5 L 59.054688 22.5 C 59.371094 23.722656 59.609375 24.972656 59.769531 26.25 L 56.25 30 L 59.769531 33.75 C 59.609375 35.027344 59.371094 36.277344 59.054688 37.5 L 37.5 37.5 L 37.5 59.054688 C 36.277344 59.371094 35.027344 59.609375 33.75 59.769531 L 30 56.25 L 26.25 59.769531 C 24.972656 59.609375 23.722656 59.371094 22.5 59.054688 L 22.5 37.5 L 0.945312 37.5 C 0.632812 36.277344 0.390625 35.027344 0.234375 33.75 L 3.75 30 L 0.234375 26.25 C 0.390625 24.972656 0.632812 23.722656 0.945312 22.5 L 22.5 22.5 L 22.5 0.945312 C 23.722656 0.628906 24.972656 0.390625 26.25 0.230469 L 30 3.75 Z M 33.75 0.230469 "/>
<path fill-rule="nonzero" fill="rgb(84.705882%, 0%, 15.294118%)" fill-opacity="1" d="M 33.75 0.230469 C 32.539062 0.0820312 31.308594 0.00390625 30.058594 0 L 29.941406 0 C 28.691406 0.00390625 27.460938 0.0820312 26.25 0.230469 L 26.25 26.25 L 0.230469 26.25 C 0.078125 27.476562 0 28.730469 0 30 C 0 31.269531 0.078125 32.523438 0.230469 33.75 L 26.25 33.75 L 26.25 59.769531 C 27.476562 59.921875 28.730469 60 30 60 C 31.269531 60 32.523438 59.921875 33.75 59.769531 L 33.75 33.75 L 59.769531 33.75 C 59.921875 32.523438 60 31.269531 60 30 C 60 28.730469 59.921875 27.476562 59.769531 26.25 L 33.75 26.25 Z M 33.75 0.230469 "/>
<path fill-rule="evenodd" fill="rgb(84.705882%, 0%, 15.294118%)" fill-opacity="1" d="M 49.257812 6.996094 C 49.933594 7.5625 50.589844 8.160156 51.214844 8.785156 L 37.5 22.5 L 37.5 18.75 L 49.257812 6.992188 Z M 6.996094 10.746094 C 7.5625 10.066406 8.160156 9.414062 8.789062 8.785156 L 22.5 22.5 L 18.75 22.5 L 6.996094 10.742188 Z M 51.214844 51.210938 C 51.839844 50.585938 52.4375 49.933594 53.003906 49.253906 L 41.25 37.5 L 37.5 37.5 L 51.210938 51.210938 Z M 10.746094 53.003906 L 22.5 41.25 L 22.5 37.5 L 8.785156 51.210938 C 9.414062 51.835938 10.066406 52.4375 10.746094 53.003906 Z M 10.746094 53.003906 "/>
</svg>
