<?xml version="1.0" encoding="UTF-8"?>
<svg xmlns="http://www.w3.org/2000/svg" xmlns:xlink="http://www.w3.org/1999/xlink" width="40" height="40" viewBox="0 0 40 40">
<path fill-rule="nonzero" fill="rgb(0%, 32.156863%, 70.588235%)" fill-opacity="1" d="M 40 20 C 40 31.046875 31.046875 40 20 40 C 8.953125 40 0 31.046875 0 20 C 0 8.953125 8.953125 0 20 0 C 31.046875 0 40 8.953125 40 20 Z M 40 20 "/>
<path fill-rule="nonzero" fill="rgb(93.333333%, 93.333333%, 93.333333%)" fill-opacity="1" d="M 35.894531 7.855469 L 23.75 20 L 35.894531 32.144531 C 34.8125 33.550781 33.550781 34.8125 32.144531 35.894531 L 20 23.75 L 7.855469 35.894531 C 6.449219 34.8125 5.1875 33.550781 4.105469 32.144531 L 16.25 20 L 4.105469 7.855469 C 5.1875 6.449219 6.449219 5.1875 7.855469 4.105469 L 20 16.25 L 32.144531 4.105469 C 33.550781 5.1875 34.8125 6.449219 35.894531 7.855469 Z M 35.894531 7.855469 "/>
<path fill-rule="nonzero" fill="rgb(93.333333%, 93.333333%, 93.333333%)" fill-opacity="1" d="M 22.5 0.15625 C 23.351562 0.261719 24.1875 0.421875 25 0.628906 L 25 15 L 39.371094 15 C 39.578125 15.816406 39.738281 16.648438 39.84375 17.5 L 37.5 20 L 39.84375 22.5 C 39.738281 23.351562 39.578125 24.1875 39.371094 25 L 25 25 L 25 39.371094 C 24.1875 39.578125 23.351562 39.738281 22.5 39.84375 L 20 37.5 L 17.5 39.84375 C 16.648438 39.738281 15.8125 39.578125 15 39.371094 L 15 25 L 0.628906 25 C 0.421875 24.1875 0.261719 23.351562 0.15625 22.5 L 2.5 20 L 0.15625 17.5 C 0.261719 16.648438 0.421875 15.816406 0.628906 15 L 15 15 L 15 0.628906 C 15.816406 0.421875 16.648438 0.261719 17.5 0.15625 L 20 2.5 Z M 22.5 0.15625 "/>
<path fill-rule="nonzero" fill="rgb(84.705882%, 0%, 15.294118%)" fill-opacity="1" d="M 22.5 0.15625 C 21.695312 0.0546875 20.871094 0 20.039062 0 L 19.960938 0 C 19.128906 0 18.304688 0.0546875 17.5 0.15625 L 17.5 17.5 L 0.15625 17.5 C 0.0507812 18.320312 0 19.152344 0 20 C 0 20.847656 0.0507812 21.679688 0.15625 22.5 L 17.5 22.5 L 17.5 39.84375 C 18.320312 39.949219 19.152344 40 20 40 C 20.847656 40 21.679688 39.949219 22.5 39.84375 L 22.5 22.5 L 39.84375 22.5 C 39.949219 21.679688 40 20.847656 40 20 C 40 19.152344 39.949219 18.320312 39.84375 17.5 L 22.5 17.5 Z M 22.5 0.15625 "/>
<path fill-rule="evenodd" fill="rgb(84.705882%, 0%, 15.294118%)" fill-opacity="1" d="M 32.835938 4.664062 C 33.289062 5.042969 33.726562 5.441406 34.140625 5.859375 L 25 15 L 25 12.5 Z M 4.664062 7.164062 C 5.042969 6.710938 5.441406 6.273438 5.859375 5.859375 L 15 15 L 12.5 15 Z M 34.140625 34.140625 C 34.558594 33.726562 34.957031 33.289062 35.335938 32.835938 L 27.5 25 L 25 25 Z M 7.164062 35.335938 L 15 27.5 L 15 25 L 5.859375 34.140625 C 6.273438 34.558594 6.710938 34.957031 7.164062 35.335938 Z M 7.164062 35.335938 "/>
</svg>
