<?xml version="1.0" encoding="UTF-8"?>
<svg xmlns="http://www.w3.org/2000/svg" xmlns:xlink="http://www.w3.org/1999/xlink" width="20" height="20" viewBox="0 0 20 20">
<path fill-rule="nonzero" fill="rgb(0%, 32.156863%, 70.588235%)" fill-opacity="1" d="M 20 10 C 20 15.523438 15.523438 20 10 20 C 4.476562 20 0 15.523438 0 10 C 0 4.476562 4.476562 0 10 0 C 15.523438 0 20 4.476562 20 10 Z M 20 10 "/>
<path fill-rule="nonzero" fill="rgb(93.333333%, 93.333333%, 93.333333%)" fill-opacity="1" d="M 17.945312 3.929688 L 11.875 10 L 17.945312 16.070312 C 17.40625 16.777344 16.777344 17.40625 16.070312 17.945312 L 10 11.875 L 3.929688 17.945312 C 3.222656 17.40625 2.59375 16.777344 2.054688 16.070312 L 8.125 10 L 2.054688 3.929688 C 2.59375 3.222656 3.222656 2.59375 3.929688 2.054688 L 10 8.125 L 16.070312 2.054688 C 16.777344 2.59375 17.40625 3.222656 17.945312 3.929688 Z M 17.945312 3.929688 "/>
<path fill-rule="nonzero" fill="rgb(93.333333%, 93.333333%, 93.333333%)" fill-opacity="1" d="M 11.25 0.078125 C 11.675781 0.128906 12.09375 0.210938 12.5 0.316406 L 12.5 7.5 L 19.683594 7.5 C 19.789062 7.90625 19.871094 8.324219 19.921875 8.75 L 18.75 10 L 19.921875 11.25 C 19.871094 11.675781 19.789062 12.09375 19.683594 12.5 L 12.5 12.5 L 12.5 19.683594 C 12.09375 19.789062 11.675781 19.871094 11.25 19.921875 L 10 18.75 L 8.75 19.921875 C 8.324219 19.871094 7.90625 19.789062 7.5 19.683594 L 7.5 12.5 L 0.316406 12.5 C 0.210938 12.09375 0.128906 11.675781 0.078125 11.25 L 1.25 10 L 0.078125 8.75 C 0.128906 8.324219 0.210938 7.90625 0.316406 7.5 L 7.5 7.5 L 7.5 0.316406 C 7.90625 0.210938 8.324219 0.128906 8.75 0.078125 L 10 1.25 Z M 11.25 0.078125 "/>
<path fill-rule="nonzero" fill="rgb(84.705882%, 0%, 15.294118%)" fill-opacity="1" d="M 11.25 0.078125 C 10.847656 0.0273438 10.4375 0 10.019531 0 L 9.980469 0 C 9.5625 0 9.152344 0.0273438 8.75 0.078125 L 8.75 8.75 L 0.078125 8.75 C 0.0273438 9.160156 0 9.578125 0 10 C 0 10.421875 0.0273438 10.839844 0.078125 11.25 L 8.75 11.25 L 8.75 19.921875 C 9.160156 19.972656 9.578125 20 10 20 C 10.421875 20 10.839844 19.972656 11.25 19.921875 L 11.25 11.25 L 19.921875 11.25 C 19.972656 10.839844 20 10.421875 20 10 C 20 9.578125 19.972656 9.160156 19.921875 8.75 L 11.25 8.75 Z M 11.25 0.078125 "/>
<path fill-rule="evenodd" fill="rgb(84.705882%, 0%, 15.294118%)" fill-opacity="1" d="M 16.417969 2.332031 C 16.644531 2.519531 16.863281 2.71875 17.070312 2.929688 L 12.5 7.5 L 12.5 6.25 Z M 2.332031 3.582031 C 2.519531 3.355469 2.71875 3.136719 2.929688 2.929688 L 7.5 7.5 L 6.25 7.5 Z M 17.070312 17.070312 C 17.28125 16.863281 17.480469 16.644531 17.667969 16.417969 L 13.75 12.5 L 12.5 12.5 Z M 3.582031 17.667969 L 7.5 13.75 L 7.5 12.5 L 2.929688 17.070312 C 3.136719 17.28125 3.355469 17.480469 3.582031 17.667969 Z M 3.582031 17.667969 "/>
</svg>
