<?xml version="1.0" encoding="UTF-8"?>
<svg xmlns="http://www.w3.org/2000/svg" xmlns:xlink="http://www.w3.org/1999/xlink" width="60" height="60" viewBox="0 0 60 60">
<path fill-rule="nonzero" fill="rgb(0%, 32.156863%, 70.588235%)" fill-opacity="1" d="M 60 30 C 60 46.570312 46.570312 60 30 60 C 13.429688 60 0 46.570312 0 30 C 0 13.429688 13.429688 0 30 0 C 46.570312 0 60 13.429688 60 30 Z M 60 30 "/>
<path fill-rule="nonzero" fill="rgb(84.705882%, 0%, 15.294118%)" fill-opacity="1" d="M 28.777344 60 C 20.972656 59.6875 13.9375 56.394531 8.773438 51.226562 L 30 30 L 51.222656 51.226562 C 46.0625 56.394531 39.023438 59.6875 31.21875 60 Z M 28.777344 60 "/>
<path fill-rule="evenodd" fill="rgb(100%, 85.490196%, 26.666667%)" fill-opacity="1" d="M 59.773438 33.722656 C 59.921875 32.503906 60 31.261719 60 30 C 60 28.742188 59.921875 27.5 59.773438 26.277344 L 30 30 L 54 12 C 52.292969 9.726562 50.273438 7.707031 48 6 L 30 30 L 33.722656 0.230469 C 32.5 0.078125 31.257812 0 30 0 C 28.738281 0 27.496094 0.078125 26.277344 0.230469 L 30 30 L 12 6 C 9.726562 7.707031 7.703125 9.726562 6 12 L 30 30 L 0.226562 26.277344 C 0.078125 27.5 0 28.742188 0 30 C 0 31.261719 0.078125 32.503906 0.226562 33.722656 L 30 30 L 59.769531 33.722656 Z M 59.773438 33.722656 "/>
</svg>
