<?xml version="1.0" encoding="UTF-8"?>
<svg xmlns="http://www.w3.org/2000/svg" xmlns:xlink="http://www.w3.org/1999/xlink" width="40" height="40" viewBox="0 0 40 40">
<path fill-rule="nonzero" fill="rgb(0%, 32.156863%, 70.588235%)" fill-opacity="1" d="M 40 20 C 40 31.046875 31.046875 40 20 40 C 8.953125 40 0 31.046875 0 20 C 0 8.953125 8.953125 0 20 0 C 31.046875 0 40 8.953125 40 20 Z M 40 20 "/>
<path fill-rule="nonzero" fill="rgb(84.705882%, 0%, 15.294118%)" fill-opacity="1" d="M 19.1875 40 C 13.984375 39.792969 9.289062 37.59375 5.847656 34.148438 L 20 20 L 34.148438 34.148438 C 30.707031 37.59375 26.015625 39.792969 20.8125 40 L 19.183594 40 Z M 19.1875 40 "/>
<path fill-rule="evenodd" fill="rgb(100%, 85.490196%, 26.666667%)" fill-opacity="1" d="M 39.847656 22.480469 C 39.949219 21.667969 40 20.839844 40 20 C 40 19.160156 39.949219 18.332031 39.847656 17.519531 L 20 20 L 36 8 C 34.863281 6.484375 33.515625 5.136719 32 4 L 20 20 L 22.480469 0.152344 C 21.667969 0.0507812 20.839844 0 20 0 C 19.160156 0 18.332031 0.0507812 17.519531 0.152344 L 20 20 L 8 4 C 6.484375 5.136719 5.136719 6.484375 4 8 L 20 20 L 0.152344 17.519531 C 0.0507812 18.332031 0 19.160156 0 20 C 0 20.839844 0.0507812 21.667969 0.152344 22.480469 L 20 20 Z M 39.847656 22.480469 "/>
</svg>
