<?xml version="1.0" encoding="UTF-8"?>
<svg xmlns="http://www.w3.org/2000/svg" xmlns:xlink="http://www.w3.org/1999/xlink" width="20" height="20" viewBox="0 0 20 20">
<path fill-rule="nonzero" fill="rgb(0%, 32.156863%, 70.588235%)" fill-opacity="1" d="M 20 10 C 20 15.523438 15.523438 20 10 20 C 4.476562 20 0 15.523438 0 10 C 0 4.476562 4.476562 0 10 0 C 15.523438 0 20 4.476562 20 10 Z M 20 10 "/>
<path fill-rule="nonzero" fill="rgb(84.705882%, 0%, 15.294118%)" fill-opacity="1" d="M 9.59375 20 C 6.992188 19.894531 4.644531 18.796875 2.925781 17.074219 L 10 10 L 17.074219 17.074219 C 15.355469 18.796875 13.007812 19.894531 10.40625 20 Z M 9.59375 20 "/>
<path fill-rule="evenodd" fill="rgb(100%, 85.490196%, 26.666667%)" fill-opacity="1" d="M 19.921875 11.242188 C 19.972656 10.835938 20 10.421875 20 10 C 20 9.582031 19.972656 9.167969 19.921875 8.757812 L 10 10 L 18 4 C 17.429688 3.242188 16.757812 2.570312 16 2 L 10 10 L 11.242188 0.078125 C 10.832031 0.0273438 10.417969 0 10 0 C 9.578125 0 9.164062 0.0273438 8.757812 0.078125 L 10 10 L 4 2 C 3.242188 2.570312 2.566406 3.242188 2 4 L 10 10 L 0.0742188 8.757812 C 0.0273438 9.167969 0 9.582031 0 10 C 0 10.421875 0.0273438 10.835938 0.0742188 11.242188 L 10 10 Z M 19.921875 11.242188 "/>
</svg>
