<?xml version="1.0" encoding="UTF-8"?>
<svg xmlns="http://www.w3.org/2000/svg" xmlns:xlink="http://www.w3.org/1999/xlink" width="40" height="40" viewBox="0 0 40 40">
<path fill-rule="nonzero" fill="rgb(98.823529%, 98.823529%, 98.823529%)" fill-opacity="1" d="M 37.671875 29.375 C 39.15625 26.578125 40 23.386719 40 20 C 40 16.613281 39.15625 13.421875 37.671875 10.625 L 2.328125 10.625 C 0.84375 13.421875 0 16.613281 0 20 C 0 23.386719 0.84375 26.578125 2.328125 29.375 Z M 37.671875 29.375 "/>
<path fill-rule="nonzero" fill="rgb(84.705882%, 0%, 15.294118%)" fill-opacity="1" d="M 38.785156 26.875 C 35.984375 34.535156 28.628906 40 20 40 C 11.371094 40 4.015625 34.535156 1.214844 26.875 L 38.789062 26.875 Z M 38.785156 26.875 "/>
<path fill-rule="nonzero" fill="rgb(98.823529%, 98.823529%, 98.823529%)" fill-opacity="1" d="M 38.785156 13.125 L 1.210938 13.125 C 4.015625 5.464844 11.371094 0 20 0 C 28.628906 0 35.984375 5.464844 38.785156 13.125 Z M 38.785156 13.125 "/>
<path fill-rule="nonzero" fill="rgb(84.705882%, 0%, 15.294118%)" fill-opacity="1" d="M 27.824219 16.523438 L 27.824219 13.914062 L 28.695312 13.914062 L 28.695312 12.175781 L 26.957031 12.175781 L 26.957031 13.042969 L 25.21875 13.042969 L 25.21875 12.175781 L 23.476562 12.175781 L 23.476562 13.914062 L 24.347656 13.914062 L 24.347656 16.523438 L 22.609375 16.523438 L 22.609375 10.433594 L 23.476562 10.433594 L 23.476562 8.695312 L 21.738281 8.695312 L 21.738281 9.566406 L 20.871094 9.566406 L 20.871094 8.695312 L 19.128906 8.695312 L 19.128906 9.566406 L 18.261719 9.566406 L 18.261719 8.695312 L 16.519531 8.695312 L 16.519531 10.433594 L 17.390625 10.433594 L 17.390625 16.523438 L 15.652344 16.523438 L 15.652344 13.914062 L 16.519531 13.914062 L 16.519531 12.175781 L 14.78125 12.175781 L 14.78125 13.042969 L 13.042969 13.042969 L 13.042969 12.175781 L 11.304688 12.175781 L 11.304688 13.914062 L 12.171875 13.914062 L 12.171875 16.523438 L 10.433594 16.523438 L 10.433594 23.476562 L 29.566406 23.476562 L 29.566406 16.523438 Z M 27.824219 16.523438 "/>
<path fill-rule="nonzero" fill="rgb(100%, 77.647059%, 20.784314%)" fill-opacity="1" d="M 20 22.609375 C 18.558594 22.609375 17.390625 23.777344 17.390625 25.21875 C 17.390625 26.351562 18.117188 27.320312 19.128906 27.675781 L 19.128906 31.304688 L 16.523438 31.304688 L 16.523438 34.78125 L 20.871094 34.78125 L 20.871094 27.675781 C 21.882812 27.320312 22.609375 26.351562 22.609375 25.21875 C 22.609375 23.777344 21.441406 22.609375 20 22.609375 Z M 20 26.085938 C 19.519531 26.085938 19.128906 25.699219 19.128906 25.21875 C 19.128906 24.738281 19.519531 24.347656 20 24.347656 C 20.480469 24.347656 20.871094 24.738281 20.871094 25.21875 C 20.871094 25.699219 20.480469 26.085938 20 26.085938 Z M 20 26.085938 "/>
</svg>
