<?xml version="1.0" encoding="UTF-8"?>
<svg xmlns="http://www.w3.org/2000/svg" xmlns:xlink="http://www.w3.org/1999/xlink" width="20" height="20" viewBox="0 0 20 20">
<path fill-rule="nonzero" fill="rgb(98.823529%, 98.823529%, 98.823529%)" fill-opacity="1" d="M 18.835938 14.6875 C 19.578125 13.289062 20 11.695312 20 10 C 20 8.304688 19.578125 6.710938 18.835938 5.3125 L 1.164062 5.3125 C 0.421875 6.710938 0 8.304688 0 10 C 0 11.695312 0.421875 13.289062 1.164062 14.6875 Z M 18.835938 14.6875 "/>
<path fill-rule="nonzero" fill="rgb(84.705882%, 0%, 15.294118%)" fill-opacity="1" d="M 19.394531 13.4375 C 17.992188 17.265625 14.316406 20 10 20 C 5.683594 20 2.007812 17.265625 0.605469 13.4375 Z M 19.394531 13.4375 "/>
<path fill-rule="nonzero" fill="rgb(98.823529%, 98.823529%, 98.823529%)" fill-opacity="1" d="M 19.394531 6.5625 L 0.605469 6.5625 C 2.007812 2.734375 5.683594 0 10 0 C 14.316406 0 17.992188 2.734375 19.394531 6.5625 Z M 19.394531 6.5625 "/>
<path fill-rule="nonzero" fill="rgb(84.705882%, 0%, 15.294118%)" fill-opacity="1" d="M 13.914062 8.261719 L 13.914062 6.957031 L 14.347656 6.957031 L 14.347656 6.085938 L 13.476562 6.085938 L 13.476562 6.523438 L 12.609375 6.523438 L 12.609375 6.085938 L 11.738281 6.085938 L 11.738281 6.957031 L 12.171875 6.957031 L 12.171875 8.261719 L 11.304688 8.261719 L 11.304688 5.21875 L 11.738281 5.21875 L 11.738281 4.347656 L 10.871094 4.347656 L 10.871094 4.78125 L 10.433594 4.78125 L 10.433594 4.347656 L 9.566406 4.347656 L 9.566406 4.78125 L 9.128906 4.78125 L 9.128906 4.347656 L 8.261719 4.347656 L 8.261719 5.21875 L 8.695312 5.21875 L 8.695312 8.261719 L 7.824219 8.261719 L 7.824219 6.957031 L 8.261719 6.957031 L 8.261719 6.085938 L 7.390625 6.085938 L 7.390625 6.523438 L 6.523438 6.523438 L 6.523438 6.085938 L 5.652344 6.085938 L 5.652344 6.957031 L 6.085938 6.957031 L 6.085938 8.261719 L 5.21875 8.261719 L 5.21875 11.738281 L 14.78125 11.738281 L 14.78125 8.261719 Z M 13.914062 8.261719 "/>
<path fill-rule="nonzero" fill="rgb(100%, 77.647059%, 20.784314%)" fill-opacity="1" d="M 10 11.304688 C 9.28125 11.304688 8.695312 11.886719 8.695312 12.609375 C 8.695312 13.175781 9.058594 13.660156 9.566406 13.839844 L 9.566406 15.652344 L 8.261719 15.652344 L 8.261719 17.390625 L 10.433594 17.390625 L 10.433594 13.839844 C 10.941406 13.660156 11.304688 13.175781 11.304688 12.609375 C 11.304688 11.886719 10.71875 11.304688 10 11.304688 Z M 10 13.042969 C 9.761719 13.042969 9.566406 12.847656 9.566406 12.609375 C 9.566406 12.367188 9.761719 12.175781 10 12.175781 C 10.238281 12.175781 10.433594 12.367188 10.433594 12.609375 C 10.433594 12.847656 10.238281 13.042969 10 13.042969 Z M 10 13.042969 "/>
</svg>
