<?xml version="1.0" encoding="UTF-8"?>
<svg xmlns="http://www.w3.org/2000/svg" xmlns:xlink="http://www.w3.org/1999/xlink" width="60" height="60" viewBox="0 0 60 60">
<path fill-rule="nonzero" fill="rgb(98.823529%, 98.823529%, 98.823529%)" fill-opacity="1" d="M 56.507812 44.0625 C 58.738281 39.867188 60 35.082031 60 30 C 60 24.917969 58.738281 20.132812 56.507812 15.9375 L 3.492188 15.9375 C 1.261719 20.132812 0 24.917969 0 30 C 0 35.082031 1.261719 39.867188 3.492188 44.0625 Z M 56.507812 44.0625 "/>
<path fill-rule="nonzero" fill="rgb(84.705882%, 0%, 15.294118%)" fill-opacity="1" d="M 58.179688 40.3125 C 53.976562 51.800781 42.945312 60 30 60 C 17.054688 60 6.023438 51.800781 1.820312 40.3125 Z M 58.179688 40.3125 "/>
<path fill-rule="nonzero" fill="rgb(98.823529%, 98.823529%, 98.823529%)" fill-opacity="1" d="M 58.179688 19.6875 L 1.820312 19.6875 C 6.023438 8.199219 17.054688 0 30 0 C 42.945312 0 53.972656 8.199219 58.179688 19.6875 Z M 58.179688 19.6875 "/>
<path fill-rule="nonzero" fill="rgb(84.705882%, 0%, 15.294118%)" fill-opacity="1" d="M 41.738281 24.78125 L 41.738281 20.871094 L 43.042969 20.871094 L 43.042969 18.261719 L 40.433594 18.261719 L 40.433594 19.566406 L 37.824219 19.566406 L 37.824219 18.261719 L 35.21875 18.261719 L 35.21875 20.871094 L 36.519531 20.871094 L 36.519531 24.78125 L 33.914062 24.78125 L 33.914062 15.652344 L 35.21875 15.652344 L 35.21875 13.042969 L 32.609375 13.042969 L 32.609375 14.347656 L 31.304688 14.347656 L 31.304688 13.042969 L 28.695312 13.042969 L 28.695312 14.347656 L 27.390625 14.347656 L 27.390625 13.042969 L 24.78125 13.042969 L 24.78125 15.652344 L 26.085938 15.652344 L 26.085938 24.78125 L 23.476562 24.78125 L 23.476562 20.871094 L 24.78125 20.871094 L 24.78125 18.261719 L 22.171875 18.261719 L 22.171875 19.566406 L 19.566406 19.566406 L 19.566406 18.261719 L 16.957031 18.261719 L 16.957031 20.871094 L 18.261719 20.871094 L 18.261719 24.78125 L 15.652344 24.78125 L 15.652344 35.21875 L 44.347656 35.21875 L 44.347656 24.78125 Z M 41.738281 24.78125 "/>
<path fill-rule="nonzero" fill="rgb(100%, 77.647059%, 20.784314%)" fill-opacity="1" d="M 30 33.914062 C 27.839844 33.914062 26.085938 35.664062 26.085938 37.824219 C 26.085938 39.53125 27.175781 40.976562 28.695312 41.515625 L 28.695312 46.957031 L 24.78125 46.957031 L 24.78125 52.175781 L 31.304688 52.175781 L 31.304688 41.515625 C 32.824219 40.976562 33.914062 39.53125 33.914062 37.824219 C 33.914062 35.664062 32.160156 33.914062 30 33.914062 Z M 30 39.128906 C 29.28125 39.128906 28.695312 38.546875 28.695312 37.824219 C 28.695312 37.105469 29.28125 36.523438 30 36.523438 C 30.71875 36.523438 31.304688 37.105469 31.304688 37.824219 C 31.304688 38.546875 30.71875 39.128906 30 39.128906 Z M 30 39.128906 "/>
</svg>
