<?xml version="1.0" encoding="UTF-8"?>
<svg xmlns="http://www.w3.org/2000/svg" xmlns:xlink="http://www.w3.org/1999/xlink" width="20" height="20" viewBox="0 0 20 20">
<path fill-rule="nonzero" fill="rgb(98.823529%, 98.823529%, 98.823529%)" fill-opacity="1" d="M 20 10 C 20 15.523438 15.523438 20 10 20 C 4.476562 20 0 15.523438 0 10 C 0 4.476562 4.476562 0 10 0 C 15.523438 0 20 4.476562 20 10 Z M 20 10 "/>
<path fill-rule="nonzero" fill="rgb(100%, 77.647059%, 20.784314%)" fill-opacity="1" d="M 11.699219 6.984375 C 11.699219 6.046875 10.9375 5.289062 10 5.289062 C 9.0625 5.289062 8.300781 6.046875 8.300781 6.984375 L 4.566406 6.984375 C 4.566406 7.910156 5.371094 8.660156 6.292969 8.660156 L 6.238281 8.660156 C 6.238281 9.582031 6.984375 10.332031 7.910156 10.332031 C 7.910156 11.148438 8.496094 11.828125 9.273438 11.972656 L 9.269531 11.984375 L 10.730469 11.984375 L 10.726562 11.972656 C 11.503906 11.828125 12.089844 11.148438 12.089844 10.332031 C 13.015625 10.332031 13.761719 9.582031 13.761719 8.660156 L 13.707031 8.660156 C 14.628906 8.660156 15.433594 7.910156 15.433594 6.984375 Z M 11.699219 6.984375 "/>
<path fill-rule="nonzero" fill="rgb(100%, 77.647059%, 20.784314%)" fill-opacity="1" d="M 9.253906 11.808594 L 8.199219 14.1875 C 8.757812 14.414062 9.363281 14.539062 10 14.539062 C 10.636719 14.539062 11.246094 14.414062 11.800781 14.1875 L 10.746094 11.808594 Z M 9.253906 11.808594 "/>
<path fill-rule="nonzero" fill="rgb(93.333333%, 93.333333%, 93.333333%)" fill-opacity="1" d="M 7.828125 7.820312 L 7.828125 10.746094 C 7.828125 12.410156 10 12.921875 10 12.921875 C 10 12.921875 12.175781 12.410156 12.175781 10.746094 L 12.175781 7.820312 Z M 7.828125 7.820312 "/>
<path fill-rule="nonzero" fill="rgb(20%, 54.117647%, 95.294118%)" fill-opacity="1" d="M 2.425781 10.070312 L 3.601562 13.359375 L 4.765625 10.070312 L 5.652344 10.070312 L 3.957031 14.417969 L 3.246094 14.417969 L 1.535156 10.070312 Z M 2.425781 10.070312 "/>
<path fill-rule="nonzero" fill="rgb(20%, 54.117647%, 95.294118%)" fill-opacity="1" d="M 16.085938 14.417969 L 16.085938 10.070312 L 16.933594 10.070312 L 16.933594 14.417969 Z M 16.085938 14.417969 "/>
<path fill-rule="nonzero" fill="rgb(84.705882%, 0%, 15.294118%)" fill-opacity="1" d="M 8.695312 8.765625 L 8.695312 12.3125 C 8.996094 12.53125 9.316406 12.683594 9.566406 12.777344 L 9.566406 8.765625 Z M 8.695312 8.765625 "/>
<path fill-rule="nonzero" fill="rgb(84.705882%, 0%, 15.294118%)" fill-opacity="1" d="M 11.304688 8.765625 L 11.304688 12.3125 C 11.003906 12.53125 10.683594 12.683594 10.433594 12.777344 L 10.433594 8.765625 Z M 11.304688 8.765625 "/>
<path fill-rule="nonzero" fill="rgb(0%, 32.156863%, 70.588235%)" fill-opacity="1" d="M 7.828125 7.820312 L 12.171875 7.820312 L 12.171875 9.199219 L 7.824219 9.199219 L 7.824219 7.820312 Z M 7.828125 7.820312 "/>
</svg>
