<?xml version="1.0" encoding="UTF-8"?>
<svg xmlns="http://www.w3.org/2000/svg" xmlns:xlink="http://www.w3.org/1999/xlink" width="40" height="40" viewBox="0 0 40 40">
<path fill-rule="nonzero" fill="rgb(98.823529%, 98.823529%, 98.823529%)" fill-opacity="1" d="M 40 20 C 40 31.046875 31.046875 40 20 40 C 8.953125 40 0 31.046875 0 20 C 0 8.953125 8.953125 0 20 0 C 31.046875 0 40 8.953125 40 20 Z M 40 20 "/>
<path fill-rule="nonzero" fill="rgb(100%, 77.647059%, 20.784314%)" fill-opacity="1" d="M 23.398438 13.972656 C 23.398438 12.097656 21.875 10.574219 20 10.574219 C 18.125 10.574219 16.601562 12.097656 16.601562 13.972656 L 9.128906 13.972656 C 9.128906 15.820312 10.738281 17.316406 12.585938 17.316406 L 12.476562 17.316406 C 12.476562 19.164062 13.972656 20.660156 15.820312 20.660156 C 15.820312 22.296875 16.996094 23.65625 18.546875 23.945312 L 18.535156 23.964844 L 21.464844 23.964844 L 21.453125 23.945312 C 23.007812 23.65625 24.179688 22.296875 24.179688 20.660156 C 26.027344 20.660156 27.523438 19.164062 27.523438 17.316406 L 27.414062 17.316406 C 29.261719 17.316406 30.871094 15.820312 30.871094 13.972656 Z M 23.398438 13.972656 "/>
<path fill-rule="nonzero" fill="rgb(100%, 77.647059%, 20.784314%)" fill-opacity="1" d="M 18.507812 23.617188 L 16.402344 28.375 C 17.511719 28.824219 18.726562 29.078125 20 29.078125 C 21.273438 29.078125 22.488281 28.824219 23.601562 28.375 L 21.492188 23.617188 Z M 18.507812 23.617188 "/>
<path fill-rule="nonzero" fill="rgb(93.333333%, 93.333333%, 93.333333%)" fill-opacity="1" d="M 15.652344 15.644531 L 15.652344 21.492188 C 15.652344 24.820312 20 25.839844 20 25.839844 C 20 25.839844 24.347656 24.820312 24.347656 21.492188 L 24.347656 15.644531 Z M 15.652344 15.644531 "/>
<path fill-rule="nonzero" fill="rgb(20%, 54.117647%, 95.294118%)" fill-opacity="1" d="M 4.851562 20.140625 L 7.203125 26.71875 L 9.527344 20.140625 L 11.304688 20.140625 L 7.910156 28.835938 L 6.492188 28.835938 L 3.074219 20.140625 Z M 4.851562 20.140625 "/>
<path fill-rule="nonzero" fill="rgb(20%, 54.117647%, 95.294118%)" fill-opacity="1" d="M 32.171875 28.835938 L 32.171875 20.140625 L 33.863281 20.140625 L 33.863281 28.835938 Z M 32.171875 28.835938 "/>
<path fill-rule="nonzero" fill="rgb(84.705882%, 0%, 15.294118%)" fill-opacity="1" d="M 17.390625 17.53125 L 17.390625 24.621094 C 17.988281 25.0625 18.632812 25.363281 19.128906 25.558594 L 19.128906 17.53125 Z M 17.390625 17.53125 "/>
<path fill-rule="nonzero" fill="rgb(84.705882%, 0%, 15.294118%)" fill-opacity="1" d="M 22.609375 17.53125 L 22.609375 24.621094 C 22.011719 25.0625 21.367188 25.363281 20.871094 25.558594 L 20.871094 17.53125 Z M 22.609375 17.53125 "/>
<path fill-rule="nonzero" fill="rgb(0%, 32.156863%, 70.588235%)" fill-opacity="1" d="M 15.652344 15.644531 L 24.347656 15.644531 L 24.347656 18.402344 L 15.652344 18.402344 Z M 15.652344 15.644531 "/>
</svg>
