<?xml version="1.0" encoding="UTF-8"?>
<svg xmlns="http://www.w3.org/2000/svg" xmlns:xlink="http://www.w3.org/1999/xlink" width="60" height="60" viewBox="0 0 60 60">
<path fill-rule="nonzero" fill="rgb(98.823529%, 98.823529%, 98.823529%)" fill-opacity="1" d="M 60 30 C 60 46.570312 46.570312 60 30 60 C 13.429688 60 0 46.570312 0 30 C 0 13.429688 13.429688 0 30 0 C 46.570312 0 60 13.429688 60 30 Z M 60 30 "/>
<path fill-rule="nonzero" fill="rgb(100%, 77.647059%, 20.784314%)" fill-opacity="1" d="M 35.09375 20.960938 C 35.09375 18.144531 32.8125 15.863281 30 15.863281 C 27.1875 15.863281 24.90625 18.144531 24.90625 20.960938 L 13.695312 20.960938 C 13.695312 23.730469 16.109375 25.976562 18.878906 25.976562 L 18.710938 25.976562 C 18.710938 28.746094 20.957031 30.992188 23.730469 30.992188 C 23.730469 33.445312 25.492188 35.484375 27.816406 35.917969 L 27.804688 35.949219 L 32.195312 35.949219 L 32.183594 35.917969 C 34.507812 35.484375 36.269531 33.445312 36.269531 30.992188 C 39.042969 30.992188 41.289062 28.746094 41.289062 25.976562 L 41.121094 25.976562 C 43.890625 25.976562 46.304688 23.730469 46.304688 20.960938 Z M 35.09375 20.960938 "/>
<path fill-rule="nonzero" fill="rgb(100%, 77.647059%, 20.784314%)" fill-opacity="1" d="M 27.761719 35.429688 L 24.601562 42.558594 C 26.269531 43.238281 28.089844 43.613281 30 43.613281 C 31.910156 43.613281 33.734375 43.238281 35.398438 42.558594 L 32.242188 35.429688 Z M 27.761719 35.429688 "/>
<path fill-rule="nonzero" fill="rgb(93.333333%, 93.333333%, 93.333333%)" fill-opacity="1" d="M 23.476562 23.464844 L 23.476562 32.242188 C 23.476562 37.234375 30 38.761719 30 38.761719 C 30 38.761719 36.523438 37.234375 36.523438 32.242188 L 36.523438 23.464844 Z M 23.476562 23.464844 "/>
<path fill-rule="nonzero" fill="rgb(20%, 54.117647%, 95.294118%)" fill-opacity="1" d="M 7.273438 30.210938 L 10.800781 40.078125 L 14.292969 30.210938 L 16.957031 30.210938 L 11.867188 43.253906 L 9.738281 43.253906 L 4.609375 30.210938 Z M 7.273438 30.210938 "/>
<path fill-rule="nonzero" fill="rgb(20%, 54.117647%, 95.294118%)" fill-opacity="1" d="M 48.261719 43.253906 L 48.261719 30.210938 L 50.796875 30.210938 L 50.796875 43.253906 Z M 48.261719 43.253906 "/>
<path fill-rule="nonzero" fill="rgb(84.705882%, 0%, 15.294118%)" fill-opacity="1" d="M 26.085938 26.296875 L 26.085938 36.933594 C 26.984375 37.59375 27.949219 38.046875 28.695312 38.335938 L 28.695312 26.296875 Z M 26.085938 26.296875 "/>
<path fill-rule="nonzero" fill="rgb(84.705882%, 0%, 15.294118%)" fill-opacity="1" d="M 33.914062 26.296875 L 33.914062 36.933594 C 33.015625 37.59375 32.050781 38.046875 31.304688 38.335938 L 31.304688 26.296875 Z M 33.914062 26.296875 "/>
<path fill-rule="nonzero" fill="rgb(0%, 32.156863%, 70.588235%)" fill-opacity="1" d="M 23.476562 23.464844 L 36.523438 23.464844 L 36.523438 27.601562 L 23.476562 27.601562 Z M 23.476562 23.464844 "/>
</svg>
