<?xml version="1.0" encoding="UTF-8"?>
<svg xmlns="http://www.w3.org/2000/svg" xmlns:xlink="http://www.w3.org/1999/xlink" width="828px" height="414px" viewBox="0 0 828 414" version="1.1">
<g id="surface1">
<rect x="0" y="0" width="828" height="414" style="fill:rgb(100%,100%,100%);fill-opacity:1;stroke:none;"/>
<path style=" stroke:none;fill-rule:nonzero;fill:rgb(0%,21.960784%,65.882355%);fill-opacity:1;" d="M 341.730469 42.3125 L 842.273438 42.3125 L 842.273438 89.417969 L 341.730469 89.417969 Z M 341.730469 136.433594 L 842.273438 136.433594 L 842.273438 183.449219 L 341.730469 183.449219 Z M -14.277344 230.550781 L 842.273438 230.550781 L 842.273438 277.570312 L -14.277344 277.570312 Z M -14.277344 324.582031 L 842.273438 324.582031 L 842.273438 371.6875 L -14.277344 371.6875 Z M -14.277344 324.582031 "/>
<path style=" stroke:none;fill-rule:nonzero;fill:rgb(98.823529%,81.960785%,8.627451%);fill-opacity:1;" d="M 165.984375 103.988281 L 173.839844 115.617188 C 141.570312 138.773438 161.269531 152.464844 138.402344 159.875 C 152.625 146.113281 136.164062 144.953125 148.144531 116.265625 "/>
<path style=" stroke:none;fill-rule:evenodd;fill:rgb(0%,0%,0%);fill-opacity:1;" d="M 166.191406 102.910156 L 174.902344 115.804688 L 174.289062 116.246094 C 166.28125 121.988281 161.539062 127.121094 158.550781 131.679688 C 155.570312 136.234375 154.316406 140.257812 153.34375 143.851562 C 153.234375 144.25 153.128906 144.648438 153.023438 145.039062 C 152.199219 148.144531 151.433594 151.023438 149.683594 153.53125 C 147.683594 156.402344 144.457031 158.726562 138.636719 160.613281 L 135.441406 161.648438 L 137.847656 159.320312 C 141.351562 155.929688 142.878906 153.398438 143.472656 151.097656 C 144.070312 148.78125 143.753906 146.605469 143.332031 143.78125 L 143.328125 143.769531 C 142.910156 140.96875 142.410156 137.628906 142.78125 133.183594 C 143.152344 128.730469 144.394531 123.203125 147.414062 115.96875 L 147.714844 115.253906 L 149.160156 115.847656 L 148.859375 116.5625 C 145.890625 123.675781 144.695312 129.046875 144.339844 133.3125 C 143.984375 137.574219 144.460938 140.761719 144.878906 143.554688 L 144.890625 143.628906 C 145.304688 146.371094 145.671875 148.835938 144.988281 151.480469 C 144.46875 153.503906 143.347656 155.578125 141.28125 157.972656 C 144.90625 156.414062 147.011719 154.636719 148.398438 152.648438 C 149.976562 150.378906 150.671875 147.777344 151.511719 144.636719 C 151.617188 144.246094 151.722656 143.851562 151.832031 143.449219 C 152.820312 139.796875 154.125 135.589844 157.238281 130.835938 C 160.273438 126.203125 164.996094 121.085938 172.761719 115.429688 L 164.890625 103.773438 Z M 166.191406 102.910156 "/>
<path style=" stroke:none;fill-rule:evenodd;fill:rgb(0%,0%,0%);fill-opacity:1;" d="M 147.957031 140.976562 C 149.234375 132.453125 150.910156 121.234375 159.695312 106.882812 L 161.03125 107.6875 C 152.414062 121.773438 150.773438 132.738281 149.503906 141.210938 C 149.476562 141.40625 149.445312 141.601562 149.417969 141.792969 C 148.777344 146.054688 148.183594 149.785156 146.714844 152.914062 C 145.222656 156.09375 142.847656 158.628906 138.730469 160.578125 L 138.058594 159.175781 C 141.863281 157.375 143.964844 155.097656 145.296875 152.261719 C 146.652344 149.371094 147.222656 145.875 147.867188 141.566406 C 147.898438 141.371094 147.925781 141.175781 147.957031 140.976562 Z M 147.957031 140.976562 "/>
<path style=" stroke:none;fill-rule:nonzero;fill:rgb(98.823529%,81.960785%,8.627451%);fill-opacity:1;" d="M 171.347656 80.988281 L 187.007812 80.988281 L 171.347656 166.375 L 155.691406 80.988281 L 171.347656 80.988281 L 171.347656 166.375 Z M 171.347656 80.988281 "/>
<path style=" stroke:none;fill-rule:evenodd;fill:rgb(0%,0%,0%);fill-opacity:1;" d="M 154.757812 80.210938 L 187.949219 80.210938 L 171.351562 170.714844 Z M 156.632812 81.765625 L 170.570312 157.765625 L 170.570312 81.765625 Z M 172.136719 81.765625 L 172.136719 157.765625 L 186.070312 81.765625 Z M 172.136719 81.765625 "/>
<path style=" stroke:none;fill-rule:nonzero;fill:rgb(98.823529%,81.960785%,8.627451%);fill-opacity:1;" d="M 171.347656 109.453125 C 187.199219 109.453125 200.050781 96.707031 200.050781 80.988281 C 200.050781 65.269531 187.199219 52.527344 171.347656 52.527344 C 155.492188 52.527344 142.640625 65.269531 142.640625 80.988281 C 142.640625 96.707031 155.492188 109.453125 171.347656 109.453125 Z M 171.347656 109.453125 "/>
<path style=" stroke:none;fill-rule:evenodd;fill:rgb(0%,0%,0%);fill-opacity:1;" d="M 171.34375 53.300781 C 155.925781 53.300781 143.421875 65.699219 143.421875 80.988281 C 143.421875 96.28125 155.925781 108.675781 171.34375 108.675781 C 186.765625 108.675781 199.265625 96.28125 199.265625 80.988281 C 199.265625 65.699219 186.765625 53.300781 171.34375 53.300781 Z M 141.859375 80.988281 C 141.859375 64.839844 155.058594 51.75 171.34375 51.75 C 187.632812 51.75 200.832031 64.839844 200.832031 80.988281 C 200.832031 97.136719 187.632812 110.226562 171.34375 110.226562 C 155.058594 110.226562 141.859375 97.136719 141.859375 80.988281 Z M 141.859375 80.988281 "/>
<path style=" stroke:none;fill-rule:nonzero;fill:rgb(0%,0%,0%);fill-opacity:1;" d="M 192.472656 69.605469 C 190.644531 71.675781 189.601562 68.050781 183.078125 68.050781 C 176.554688 68.050781 175.507812 71.933594 174.464844 71.15625 C 173.421875 70.378906 179.945312 65.722656 182.03125 65.464844 C 184.121094 65.207031 190.121094 67.277344 192.472656 69.605469 Z M 184.902344 71.933594 C 186.730469 73.484375 185.164062 76.847656 183.335938 76.847656 C 181.511719 76.847656 178.117188 73.746094 179.683594 71.675781 "/>
<path style=" stroke:none;fill-rule:nonzero;fill:rgb(0%,0%,0%);fill-opacity:1;" d="M 176.296875 74.261719 C 176.558594 71.15625 179.167969 70.636719 183.34375 70.636719 C 187.519531 70.636719 189.347656 73.742188 190.910156 74.519531 C 189.085938 74.519531 187.519531 71.933594 183.34375 71.933594 C 179.167969 71.933594 179.167969 71.933594 176.296875 74.519531 M 177.082031 75.035156 C 178.125 73.484375 179.429688 76.589844 182.300781 76.589844 C 185.171875 76.589844 186.738281 75.8125 188.5625 74.519531 C 190.390625 73.226562 185.953125 77.625 183.082031 77.625 C 180.214844 77.625 176.296875 76.070312 177.082031 75.035156 Z M 177.082031 75.035156 "/>
<path style=" stroke:none;fill-rule:nonzero;fill:rgb(0%,0%,0%);fill-opacity:1;" d="M 185.949219 76.589844 C 189.34375 74.777344 187.253906 72.191406 185.949219 71.675781 C 186.472656 72.191406 188.558594 74.777344 185.949219 76.589844 Z M 171.335938 92.117188 C 172.902344 92.117188 173.425781 91.597656 175.511719 91.597656 C 177.601562 91.597656 182.558594 94.445312 185.429688 93.410156 C 179.425781 95.738281 181.773438 94.183594 171.335938 94.183594 L 170.03125 94.183594 M 186.472656 95.738281 C 185.429688 93.925781 185.6875 94.445312 183.601562 91.597656 C 185.6875 93.148438 186.210938 93.925781 186.472656 95.738281 Z M 171.335938 98.324219 C 177.859375 98.324219 176.816406 97.03125 185.429688 93.410156 C 179.164062 94.183594 177.859375 96.253906 171.335938 96.253906 L 170.03125 96.253906 M 171.335938 88.75 C 173.164062 88.75 173.683594 87.457031 175.773438 87.457031 C 177.859375 87.457031 180.730469 88.234375 182.035156 89.269531 C 182.296875 89.527344 181.253906 87.199219 179.164062 86.941406 C 177.078125 86.679688 177.859375 83.316406 175.511719 82.800781 C 175.511719 83.835938 176.292969 83.578125 176.554688 85.128906 C 176.554688 86.421875 174.207031 86.421875 173.683594 85.128906 C 174.207031 87.199219 172.640625 87.199219 171.335938 87.199219 "/>
<path style=" stroke:none;fill-rule:nonzero;fill:rgb(0%,0%,0%);fill-opacity:1;" d="M 171.339844 100.652344 C 170.035156 100.652344 166.644531 101.429688 171.339844 101.429688 C 176.039062 101.429688 172.648438 100.652344 171.339844 100.652344 Z M 171.339844 100.652344 "/>
</g>
</svg>
