<?xml version="1.0" encoding="UTF-8"?>
<svg xmlns="http://www.w3.org/2000/svg" xmlns:xlink="http://www.w3.org/1999/xlink" width="40" height="40" viewBox="0 0 40 40">
<path fill-rule="evenodd" fill="rgb(93.333333%, 93.333333%, 93.333333%)" fill-opacity="1" d="M 22.261719 0.125 L 22.261719 39.875 C 21.519531 39.957031 20.765625 40 20 40 C 8.953125 40 0 31.046875 0 20 C 0 8.953125 8.953125 0 20 0 C 20.765625 0 21.519531 0.0429688 22.261719 0.125 Z M 22.261719 0.125 "/>
<path fill-rule="evenodd" fill="rgb(84.705882%, 0%, 15.294118%)" fill-opacity="1" d="M 20 40 C 31.039062 40 39.988281 31.058594 40 20.023438 L 40 19.976562 C 39.988281 8.941406 31.039062 0 20 0 C 17.15625 0 14.449219 0.59375 11.996094 1.664062 L 17.832031 4 L 7.832031 8 L 17.832031 12 L 7.832031 16 L 17.832031 20 L 7.832031 24 L 17.832031 28 L 7.832031 32 L 17.832031 36 L 11.996094 38.335938 C 14.449219 39.40625 17.15625 40 20 40 Z M 20 40 "/>
</svg>
