<?xml version="1.0" encoding="UTF-8"?>
<svg xmlns="http://www.w3.org/2000/svg" xmlns:xlink="http://www.w3.org/1999/xlink" width="60" height="60" viewBox="0 0 60 60">
<path fill-rule="evenodd" fill="rgb(93.333333%, 93.333333%, 93.333333%)" fill-opacity="1" d="M 33.390625 0.191406 L 33.390625 59.808594 C 32.277344 59.933594 31.148438 60 30 60 C 13.433594 60 0 46.566406 0 30 C 0 13.429688 13.433594 0 30 0 C 31.148438 0 32.277344 0.0625 33.390625 0.1875 Z M 33.390625 0.191406 "/>
<path fill-rule="evenodd" fill="rgb(84.705882%, 0%, 15.294118%)" fill-opacity="1" d="M 30 60 C 46.554688 60 59.980469 46.585938 60 30.035156 L 60 29.964844 C 59.980469 13.410156 46.554688 0 30 0 C 25.730469 0 21.671875 0.890625 17.996094 2.5 L 26.75 6 L 11.75 12 L 26.75 18 L 11.75 24 L 26.75 30 L 11.75 36 L 26.75 42 L 11.75 48 L 26.75 54 L 17.996094 57.5 C 21.671875 59.109375 25.730469 60 30 60 Z M 30 60 "/>
</svg>
