<?xml version="1.0" encoding="UTF-8"?>
<svg xmlns="http://www.w3.org/2000/svg" xmlns:xlink="http://www.w3.org/1999/xlink" width="20" height="20" viewBox="0 0 20 20">
<path fill-rule="evenodd" fill="rgb(93.333333%, 93.333333%, 93.333333%)" fill-opacity="1" d="M 11.128906 0.0625 L 11.128906 19.9375 C 10.757812 19.976562 10.382812 20 10 20 C 4.476562 20 0 15.523438 0 10 C 0 4.476562 4.476562 0 10 0 C 10.382812 0 10.757812 0.0195312 11.128906 0.0625 Z M 11.128906 0.0625 "/>
<path fill-rule="evenodd" fill="rgb(84.705882%, 0%, 15.294118%)" fill-opacity="1" d="M 10 20 C 15.519531 20 19.992188 15.53125 20 10.011719 L 20 9.988281 C 19.992188 4.46875 15.519531 0 10 0 C 8.578125 0 7.222656 0.296875 6 0.832031 L 8.917969 2 L 3.917969 4 L 8.917969 6 L 3.917969 8 L 8.917969 10 L 3.917969 12 L 8.917969 14 L 3.917969 16 L 8.917969 18 L 6 19.167969 C 7.222656 19.703125 8.578125 20 10 20 Z M 10 20 "/>
</svg>
