<?xml version="1.0" encoding="UTF-8"?>
<svg width="16px" height="16px" viewBox="0 0 16 16" version="1.1" xmlns="http://www.w3.org/2000/svg" xmlns:xlink="http://www.w3.org/1999/xlink">
    <!-- Generator: Sketch 56.3 (81716) - https://sketch.com -->
    <title>gambling-dark</title>
    <desc>Created with Sketch.</desc>
    <g id="Page-1" stroke="none" stroke-width="1" fill="none" fill-rule="evenodd">
        <g id="gamblingicon" fill="#020D1C" fill-rule="nonzero">
            <path d="M8,16 C3.581722,16 0,14.432997 0,12.5 L0,3.5 C0,1.567003 3.581722,0 8,0 C12.320094,0 15.840399,1.498133 15.994724,3.371689 L16,3.5 L16,12.5 C16,14.432997 12.418278,16 8,16 Z M8,7 C5.610312,7 3.465344,6.541598 1.999442,5.81482 L2,8 L2.055424,8.052245 C2.238414,8.214596 2.512556,8.389837 2.86632,8.55873 L3.049783,8.642559 C4.271664,9.177132 6.111454,9.5 8,9.5 C9.888546,9.5 11.729336,9.177132 12.951217,8.642559 C13.394531,8.448609 13.732087,8.241654 13.945576,8.052245 L14,8 L14.001562,5.814322 C12.535635,6.541389 10.390234,7 8,7 Z M8,2 C6.111454,2 4.366664,2.322868 3.144783,2.857441 C2.701469,3.051391 2.363913,3.258346 2.150424,3.447755 L2.095,3.5 L2.150424,3.552245 C2.333414,3.714596 2.607556,3.889837 2.96132,4.05873 L3.144783,4.142559 C4.366664,4.677132 6.111454,5 8,5 C9.888546,5 11.633336,4.677132 12.855217,4.142559 C13.298531,3.948609 13.636087,3.741654 13.849576,3.552245 L13.904,3.5 L13.849576,3.447755 C13.666586,3.285404 13.392444,3.110163 13.03868,2.94127 L12.855217,2.857441 C11.633336,2.322868 9.888546,2 8,2 Z M8,11.5 C5.610312,11.5 3.465344,11.041598 1.999442,10.31482 L2,12.5 L2.055424,12.552245 C2.238414,12.714596 2.512556,12.889837 2.86632,13.05873 L3.049783,13.142559 C4.271664,13.677132 6.111454,14 8,14 C9.888546,14 11.729336,13.677132 12.951217,13.142559 C13.394531,12.948609 13.732087,12.741654 13.945576,12.552245 L14,12.5 L14.001562,10.314322 C12.535635,11.041389 10.390234,11.5 8,11.5 Z"></path>
        </g>
    </g>
</svg>