<svg width="18" height="22" viewBox="0 0 18 22" fill="none" xmlns="http://www.w3.org/2000/svg">
<g id="Component 3">
<g id="Subtract">
<path fill-rule="evenodd" clip-rule="evenodd" d="M9 20C9 20 17 13.5 17 9C17 4.5 13.5 1 9 1C4.5 1 1 4.5 1 9C1 13.5 9 20 9 20ZM9 12C11.2091 12 13 10.2091 13 8C13 5.79086 11.2091 4 9 4C6.79086 4 5 5.79086 5 8C5 10.2091 6.79086 12 9 12Z" fill="white"/>
<path d="M9 20L8.36941 20.7761L9 21.2885L9.63059 20.7761L9 20ZM16 9C16 9.85453 15.6093 10.9155 14.8939 12.1003C14.1909 13.2648 13.2383 14.4449 12.262 15.5127C11.2891 16.5768 10.313 17.5074 9.57848 18.1731C9.21186 18.5053 8.90701 18.7701 8.69492 18.951C8.58891 19.0414 8.50618 19.1107 8.45061 19.1569C8.42282 19.18 8.40184 19.1973 8.38814 19.2085C8.38129 19.2142 8.37627 19.2183 8.37313 19.2209C8.37155 19.2221 8.37045 19.223 8.36983 19.2235C8.36952 19.2238 8.36933 19.2239 8.36926 19.224C8.36922 19.224 8.36926 19.224 8.36924 19.224C8.36931 19.224 8.36941 19.2239 9 20C9.63059 20.7761 9.63075 20.776 9.63094 20.7758C9.63105 20.7757 9.63127 20.7756 9.63147 20.7754C9.63189 20.7751 9.63243 20.7746 9.63308 20.7741C9.6344 20.773 9.6362 20.7715 9.63847 20.7697C9.64302 20.766 9.64947 20.7607 9.65775 20.7539C9.67433 20.7403 9.69827 20.7205 9.72908 20.6949C9.7907 20.6437 9.87984 20.569 9.99258 20.4728C10.218 20.2806 10.5381 20.0025 10.9215 19.6551C11.687 18.9614 12.7109 17.9857 13.738 16.8623C14.7617 15.7426 15.8091 14.454 16.6061 13.1341C17.3907 11.8345 18 10.3955 18 9H16ZM9 2C12.9477 2 16 5.05228 16 9H18C18 3.94772 14.0523 0 9 0V2ZM2 9C2 5.05228 5.05228 2 9 2V0C3.94772 0 0 3.94772 0 9H2ZM9 20C9.63059 19.2239 9.63069 19.224 9.63076 19.224C9.63074 19.224 9.63078 19.224 9.63074 19.224C9.63067 19.2239 9.63048 19.2238 9.63017 19.2235C9.62955 19.223 9.62845 19.2221 9.62687 19.2209C9.62373 19.2183 9.6187 19.2142 9.61186 19.2085C9.59816 19.1973 9.57718 19.18 9.54939 19.1569C9.49382 19.1107 9.41109 19.0414 9.30508 18.951C9.09299 18.7701 8.78814 18.5053 8.42152 18.1731C7.68697 17.5074 6.71087 16.5768 5.73803 15.5127C4.76169 14.4449 3.80912 13.2648 3.10606 12.1003C2.3907 10.9155 2 9.85453 2 9H0C0 10.3955 0.609296 11.8345 1.39394 13.1341C2.19088 14.454 3.23831 15.7426 4.26197 16.8623C5.28913 17.9857 6.31303 18.9614 7.07848 19.6551C7.46186 20.0025 7.78201 20.2806 8.00742 20.4728C8.12016 20.569 8.2093 20.6437 8.27092 20.6949C8.30173 20.7205 8.32567 20.7403 8.34225 20.7539C8.35053 20.7607 8.35698 20.766 8.36153 20.7697C8.3638 20.7715 8.3656 20.773 8.36692 20.7741C8.36757 20.7746 8.36811 20.7751 8.36853 20.7754C8.36873 20.7756 8.36895 20.7757 8.36906 20.7758C8.36925 20.776 8.36941 20.7761 9 20ZM12 8C12 9.65685 10.6569 11 9 11V13C11.7614 13 14 10.7614 14 8H12ZM9 5C10.6569 5 12 6.34315 12 8H14C14 5.23858 11.7614 3 9 3V5ZM6 8C6 6.34315 7.34315 5 9 5V3C6.23858 3 4 5.23858 4 8H6ZM9 11C7.34315 11 6 9.65685 6 8H4C4 10.7614 6.23858 13 9 13V11Z" fill="white"/>
</g>
</g>
</svg>
