<?xml version="1.0" encoding="UTF-8"?>
<svg xmlns="http://www.w3.org/2000/svg" xmlns:xlink="http://www.w3.org/1999/xlink" width="20" height="20" viewBox="0 0 20 20">
<path fill-rule="nonzero" fill="rgb(28.627451%, 43.137255%, 17.647059%)" fill-opacity="1" d="M 17.070312 2.929688 L 8.75 8.75 L 2.929688 17.070312 C 4.738281 18.878906 7.238281 20 10 20 C 15.484375 20 19.941406 15.582031 20 10.113281 L 20 9.886719 C 19.96875 7.171875 18.855469 4.714844 17.070312 2.929688 Z M 17.070312 2.929688 "/>
<path fill-rule="nonzero" fill="rgb(0%, 32.156863%, 70.588235%)" fill-opacity="1" d="M 17.070312 2.929688 L 2.929688 17.070312 C 1.117188 15.261719 0 12.761719 0 10 C 0 4.476562 4.476562 0.00390625 9.996094 0 C 9.996094 0 10 0 10 0 C 10 0 10.003906 0 10.003906 0 C 12.761719 0 15.261719 1.121094 17.070312 2.929688 Z M 17.070312 2.929688 "/>
<path fill-rule="nonzero" fill="rgb(93.333333%, 93.333333%, 93.333333%)" fill-opacity="1" d="M 14.539062 1.085938 C 16.417969 2.046875 17.953125 3.582031 18.914062 5.460938 L 5.460938 18.914062 C 3.582031 17.953125 2.046875 16.417969 1.085938 14.539062 Z M 14.539062 1.085938 "/>
<path fill-rule="nonzero" fill="rgb(63.529412%, 0%, 11.372549%)" fill-opacity="1" d="M 15.710938 1.789062 C 16.683594 2.46875 17.53125 3.316406 18.210938 4.289062 L 4.289062 18.210938 C 3.316406 17.53125 2.46875 16.683594 1.789062 15.710938 Z M 15.710938 1.789062 "/>
<path fill-rule="evenodd" fill="rgb(100%, 85.490196%, 26.666667%)" fill-opacity="1" d="M 5.222656 2.410156 L 5.660156 3.59375 C 5.519531 3.554688 5.371094 3.535156 5.222656 3.535156 C 5.070312 3.535156 4.925781 3.554688 4.785156 3.59375 Z M 6.414062 4.03125 C 6.207031 3.824219 5.949219 3.671875 5.660156 3.59375 L 6.628906 2.789062 Z M 6.851562 4.785156 C 6.773438 4.496094 6.621094 4.234375 6.414062 4.03125 L 7.65625 3.816406 Z M 6.910156 5.222656 C 6.910156 5.070312 6.890625 4.925781 6.851562 4.785156 L 8.035156 5.222656 L 6.851562 5.660156 C 6.890625 5.519531 6.910156 5.375 6.910156 5.222656 Z M 6.414062 6.417969 C 6.621094 6.210938 6.773438 5.949219 6.851562 5.660156 L 7.65625 6.628906 Z M 5.660156 6.851562 C 5.949219 6.777344 6.207031 6.621094 6.414062 6.417969 L 6.628906 7.660156 Z M 5.222656 6.910156 C 5.371094 6.910156 5.519531 6.890625 5.660156 6.851562 L 5.222656 8.035156 L 4.785156 6.851562 C 4.925781 6.890625 5.070312 6.910156 5.222656 6.910156 Z M 3.589844 5.660156 C 3.746094 6.242188 4.203125 6.699219 4.785156 6.851562 L 3.816406 7.660156 L 4.027344 6.417969 L 2.785156 6.628906 Z M 3.535156 5.222656 C 3.535156 5.375 3.554688 5.519531 3.589844 5.660156 L 2.410156 5.222656 L 3.589844 4.785156 C 3.554688 4.925781 3.535156 5.070312 3.535156 5.222656 Z M 2.785156 3.816406 L 3.589844 4.785156 C 3.746094 4.207031 4.203125 3.75 4.785156 3.59375 L 3.816406 2.789062 L 4.027344 4.03125 Z M 5.222656 6.628906 C 6 6.628906 6.628906 6 6.628906 5.222656 C 6.628906 4.445312 6 3.816406 5.222656 3.816406 C 4.445312 3.816406 3.816406 4.445312 3.816406 5.222656 C 3.816406 6 4.445312 6.628906 5.222656 6.628906 Z M 5.222656 6.628906 "/>
</svg>
