<?xml version="1.0" encoding="UTF-8"?>
<svg xmlns="http://www.w3.org/2000/svg" xmlns:xlink="http://www.w3.org/1999/xlink" width="60" height="60" viewBox="0 0 60 60">
<path fill-rule="nonzero" fill="rgb(28.627451%, 43.137255%, 17.647059%)" fill-opacity="1" d="M 51.210938 8.785156 L 26.25 26.25 L 8.785156 51.210938 C 14.214844 56.640625 21.714844 60 30 60 C 46.457031 60 59.820312 46.75 59.996094 30.335938 L 59.996094 29.664062 C 59.910156 21.511719 56.566406 14.140625 51.210938 8.785156 Z M 51.210938 8.785156 "/>
<path fill-rule="nonzero" fill="rgb(0%, 32.156863%, 70.588235%)" fill-opacity="1" d="M 51.210938 8.785156 L 8.785156 51.210938 C 3.355469 45.785156 0 38.285156 0 30 C 0 13.433594 13.425781 0.0078125 29.988281 0 C 29.992188 0 29.996094 0 30 0 C 30.003906 0 30.007812 0 30.007812 0 C 38.289062 0.00390625 45.785156 3.359375 51.210938 8.785156 Z M 51.210938 8.785156 "/>
<path fill-rule="nonzero" fill="rgb(93.333333%, 93.333333%, 93.333333%)" fill-opacity="1" d="M 43.613281 3.261719 C 49.253906 6.136719 53.863281 10.746094 56.738281 16.386719 L 16.386719 56.738281 C 10.746094 53.863281 6.136719 49.253906 3.261719 43.613281 Z M 43.613281 3.261719 "/>
<path fill-rule="nonzero" fill="rgb(63.529412%, 0%, 11.372549%)" fill-opacity="1" d="M 47.128906 5.367188 C 50.050781 7.40625 52.59375 9.945312 54.628906 12.867188 L 12.867188 54.632812 C 9.945312 52.59375 7.402344 50.054688 5.367188 47.132812 Z M 47.128906 5.367188 "/>
<path fill-rule="evenodd" fill="rgb(100%, 85.490196%, 26.666667%)" fill-opacity="1" d="M 15.664062 7.230469 L 16.976562 10.777344 C 16.558594 10.667969 16.117188 10.605469 15.664062 10.605469 C 15.210938 10.605469 14.773438 10.667969 14.355469 10.777344 Z M 19.246094 12.089844 C 18.625 11.46875 17.847656 11.011719 16.976562 10.777344 L 19.882812 8.363281 Z M 20.558594 14.359375 C 20.324219 13.488281 19.863281 12.707031 19.246094 12.089844 L 22.972656 11.449219 Z M 20.726562 15.667969 C 20.726562 15.214844 20.667969 14.777344 20.558594 14.359375 L 24.101562 15.667969 L 20.558594 16.980469 C 20.667969 16.5625 20.726562 16.121094 20.726562 15.667969 Z M 19.246094 19.25 C 19.863281 18.628906 20.324219 17.851562 20.558594 16.980469 L 22.972656 19.886719 Z M 16.976562 20.558594 C 17.847656 20.328125 18.625 19.867188 19.246094 19.25 L 19.882812 22.976562 Z M 15.664062 20.730469 C 16.117188 20.730469 16.558594 20.671875 16.976562 20.5625 L 15.664062 24.105469 L 14.355469 20.5625 C 14.773438 20.671875 15.210938 20.730469 15.664062 20.730469 Z M 10.773438 16.980469 C 11.242188 18.722656 12.613281 20.09375 14.355469 20.558594 L 11.445312 22.976562 L 12.085938 19.25 L 8.359375 19.886719 Z M 10.601562 15.667969 C 10.601562 16.121094 10.664062 16.5625 10.773438 16.980469 L 7.226562 15.667969 L 10.773438 14.359375 C 10.664062 14.777344 10.601562 15.214844 10.601562 15.667969 Z M 8.359375 11.449219 L 10.773438 14.359375 C 11.242188 12.617188 12.613281 11.246094 14.355469 10.777344 L 11.445312 8.363281 L 12.085938 12.089844 Z M 15.664062 19.886719 C 17.996094 19.886719 19.882812 18 19.882812 15.667969 C 19.882812 13.339844 17.996094 11.449219 15.664062 11.449219 C 13.335938 11.449219 11.445312 13.339844 11.445312 15.667969 C 11.445312 18 13.335938 19.886719 15.664062 19.886719 Z M 15.664062 19.886719 "/>
</svg>
