<?xml version="1.0" encoding="UTF-8"?>
<svg xmlns="http://www.w3.org/2000/svg" xmlns:xlink="http://www.w3.org/1999/xlink" width="40" height="40" viewBox="0 0 40 40">
<path fill-rule="nonzero" fill="rgb(28.627451%, 43.137255%, 17.647059%)" fill-opacity="1" d="M 34.140625 5.855469 L 17.5 17.5 L 5.855469 34.140625 C 9.476562 37.761719 14.476562 40 20 40 C 30.972656 40 39.878906 31.164062 40 20.222656 L 40 19.777344 C 39.9375 14.34375 37.710938 9.429688 34.140625 5.855469 Z M 34.140625 5.855469 "/>
<path fill-rule="nonzero" fill="rgb(0%, 32.156863%, 70.588235%)" fill-opacity="1" d="M 34.140625 5.855469 L 5.855469 34.140625 C 2.238281 30.523438 0 25.523438 0 20 C 0 8.957031 8.949219 0.00390625 19.992188 0 C 19.996094 0 19.996094 0 20 0 C 20 0 20.003906 0 20.007812 0 C 25.527344 0.00390625 30.523438 2.238281 34.140625 5.859375 Z M 34.140625 5.855469 "/>
<path fill-rule="nonzero" fill="rgb(93.333333%, 93.333333%, 93.333333%)" fill-opacity="1" d="M 29.078125 2.171875 C 32.835938 4.089844 35.910156 7.164062 37.828125 10.921875 L 10.921875 37.828125 C 7.164062 35.910156 4.089844 32.835938 2.171875 29.078125 Z M 29.078125 2.171875 "/>
<path fill-rule="nonzero" fill="rgb(63.529412%, 0%, 11.372549%)" fill-opacity="1" d="M 31.421875 3.578125 C 33.367188 4.9375 35.0625 6.632812 36.421875 8.578125 L 8.578125 36.421875 C 6.632812 35.0625 4.9375 33.367188 3.578125 31.421875 Z M 31.421875 3.578125 "/>
<path fill-rule="evenodd" fill="rgb(100%, 85.490196%, 26.666667%)" fill-opacity="1" d="M 10.445312 4.820312 L 11.316406 7.183594 C 11.039062 7.109375 10.746094 7.070312 10.445312 7.070312 C 10.140625 7.070312 9.847656 7.109375 9.570312 7.183594 Z M 12.832031 8.058594 C 12.417969 7.648438 11.898438 7.339844 11.316406 7.183594 L 13.257812 5.574219 Z M 13.703125 9.570312 C 13.550781 8.992188 13.242188 8.472656 12.832031 8.058594 L 15.316406 7.632812 Z M 13.820312 10.445312 C 13.820312 10.144531 13.777344 9.851562 13.703125 9.574219 L 16.070312 10.445312 L 13.703125 11.320312 C 13.777344 11.039062 13.820312 10.75 13.820312 10.445312 Z M 12.832031 12.832031 C 13.242188 12.421875 13.550781 11.902344 13.703125 11.320312 L 15.316406 13.257812 Z M 11.316406 13.707031 C 11.898438 13.550781 12.417969 13.246094 12.832031 12.832031 L 13.257812 15.316406 Z M 10.445312 13.820312 C 10.746094 13.820312 11.039062 13.78125 11.316406 13.707031 L 10.445312 16.070312 L 9.570312 13.707031 C 9.847656 13.78125 10.140625 13.820312 10.445312 13.820312 Z M 7.183594 11.320312 C 7.492188 12.480469 8.410156 13.394531 9.570312 13.707031 L 7.632812 15.316406 L 8.058594 12.832031 L 5.574219 13.257812 Z M 7.070312 10.445312 C 7.070312 10.75 7.109375 11.039062 7.183594 11.320312 L 4.820312 10.445312 L 7.183594 9.574219 C 7.109375 9.851562 7.070312 10.144531 7.070312 10.445312 Z M 5.574219 7.632812 L 7.183594 9.570312 C 7.492188 8.410156 8.40625 7.496094 9.570312 7.183594 L 7.632812 5.574219 L 8.058594 8.058594 Z M 10.445312 13.257812 C 11.996094 13.257812 13.257812 12 13.257812 10.445312 C 13.257812 8.894531 11.996094 7.632812 10.445312 7.632812 C 8.890625 7.632812 7.632812 8.894531 7.632812 10.445312 C 7.632812 12 8.890625 13.257812 10.445312 13.257812 Z M 10.445312 13.257812 "/>
</svg>
