<?xml version="1.0" encoding="UTF-8"?>
<svg xmlns="http://www.w3.org/2000/svg" xmlns:xlink="http://www.w3.org/1999/xlink" width="40" height="40" viewBox="0 0 40 40">
<path fill-rule="nonzero" fill="rgb(84.705882%, 0%, 15.294118%)" fill-opacity="1" d="M 40 20 C 40 31.046875 31.046875 40 20 40 C 8.953125 40 0 31.046875 0 20 C 0 8.953125 8.953125 0 20 0 C 31.046875 0 40 8.953125 40 20 Z M 40 20 "/>
<path fill-rule="evenodd" fill="rgb(100%, 85.490196%, 26.666667%)" fill-opacity="1" d="M 23.609375 11.0625 L 23.765625 8.976562 L 22.414062 10.578125 L 20.46875 9.789062 L 21.578125 11.5625 L 20.226562 13.164062 L 22.265625 12.664062 L 23.367188 14.445312 L 23.515625 12.351562 L 25.554688 11.851562 Z M 10.945312 12.171875 L 12.671875 17.484375 L 18.257812 17.484375 L 13.742188 20.773438 L 15.46875 26.085938 L 10.945312 22.804688 L 6.421875 26.085938 L 8.15625 20.773438 L 3.632812 17.484375 L 9.21875 17.484375 Z M 23.710938 30.976562 L 22.390625 29.351562 L 20.4375 30.109375 L 21.570312 28.351562 L 20.25 26.71875 L 22.273438 27.257812 L 23.414062 25.5 L 23.523438 27.59375 L 25.554688 28.132812 L 23.59375 28.882812 Z M 26.960938 24.210938 L 26.335938 26.210938 L 28.015625 24.953125 L 29.726562 26.164062 L 29.054688 24.179688 L 30.734375 22.929688 L 28.640625 22.953125 L 27.960938 20.96875 L 27.34375 22.96875 L 25.25 23 Z M 29.875 14.679688 L 28.953125 16.5625 L 30.453125 18.023438 L 28.382812 17.726562 L 27.460938 19.601562 L 27.101562 17.539062 L 25.023438 17.242188 L 26.882812 16.265625 L 26.523438 14.195312 L 28.023438 15.65625 Z M 29.875 14.679688 "/>
</svg>
