<?xml version="1.0" encoding="UTF-8"?>
<svg xmlns="http://www.w3.org/2000/svg" xmlns:xlink="http://www.w3.org/1999/xlink" width="60" height="60" viewBox="0 0 60 60">
<path fill-rule="nonzero" fill="rgb(84.705882%, 0%, 15.294118%)" fill-opacity="1" d="M 60 30 C 60 46.570312 46.570312 60 30 60 C 13.429688 60 0 46.570312 0 30 C 0 13.429688 13.429688 0 30 0 C 46.570312 0 60 13.429688 60 30 Z M 60 30 "/>
<path fill-rule="evenodd" fill="rgb(100%, 85.490196%, 26.666667%)" fill-opacity="1" d="M 35.414062 16.59375 L 35.648438 13.464844 L 33.621094 15.867188 L 30.703125 14.683594 L 32.367188 17.34375 L 30.339844 19.746094 L 33.398438 18.996094 L 35.050781 21.667969 L 35.273438 18.527344 L 38.332031 17.777344 Z M 16.417969 18.257812 L 19.007812 26.226562 L 27.386719 26.226562 L 20.613281 31.160156 L 23.203125 39.128906 L 16.417969 34.207031 L 9.632812 39.128906 L 12.234375 31.160156 L 5.449219 26.226562 L 13.828125 26.226562 Z M 35.566406 46.464844 L 33.585938 44.027344 L 30.65625 45.164062 L 32.355469 42.527344 L 30.375 40.078125 L 33.410156 40.886719 L 35.121094 38.25 L 35.285156 41.390625 L 38.332031 42.199219 L 35.390625 43.324219 Z M 40.441406 36.316406 L 39.503906 39.316406 L 42.023438 37.429688 L 44.589844 39.246094 L 43.582031 36.269531 L 46.101562 34.394531 L 42.960938 34.429688 L 41.941406 31.453125 L 41.015625 34.453125 L 37.875 34.5 Z M 44.8125 22.019531 L 43.429688 24.84375 L 45.679688 27.035156 L 42.574219 26.589844 L 41.191406 29.402344 L 40.652344 26.308594 L 37.535156 25.863281 L 40.324219 24.398438 L 39.785156 21.292969 L 42.035156 23.484375 Z M 44.8125 22.019531 "/>
</svg>
