<?xml version="1.0" encoding="UTF-8"?>
<svg xmlns="http://www.w3.org/2000/svg" xmlns:xlink="http://www.w3.org/1999/xlink" width="20" height="20" viewBox="0 0 20 20">
<path fill-rule="nonzero" fill="rgb(84.705882%, 0%, 15.294118%)" fill-opacity="1" d="M 20 10 C 20 15.523438 15.523438 20 10 20 C 4.476562 20 0 15.523438 0 10 C 0 4.476562 4.476562 0 10 0 C 15.523438 0 20 4.476562 20 10 Z M 20 10 "/>
<path fill-rule="evenodd" fill="rgb(100%, 85.490196%, 26.666667%)" fill-opacity="1" d="M 11.804688 5.53125 L 11.882812 4.488281 L 11.207031 5.289062 L 10.234375 4.894531 L 10.789062 5.78125 L 10.113281 6.582031 L 11.132812 6.332031 L 11.683594 7.222656 L 11.757812 6.175781 L 12.777344 5.925781 Z M 5.472656 6.085938 L 6.335938 8.742188 L 9.128906 8.742188 L 6.871094 10.386719 L 7.734375 13.042969 L 5.472656 11.402344 L 3.210938 13.042969 L 4.078125 10.386719 L 1.816406 8.742188 L 4.609375 8.742188 Z M 11.855469 15.488281 L 11.195312 14.675781 L 10.21875 15.054688 L 10.785156 14.175781 L 10.125 13.359375 L 11.136719 13.628906 L 11.707031 12.75 L 11.761719 13.796875 L 12.777344 14.066406 L 11.796875 14.441406 Z M 13.480469 12.105469 L 13.167969 13.105469 L 14.007812 12.476562 L 14.863281 13.082031 L 14.527344 12.089844 L 15.367188 11.464844 L 14.320312 11.476562 L 13.980469 10.484375 L 13.671875 11.484375 L 12.625 11.5 Z M 14.9375 7.339844 L 14.476562 8.28125 L 15.226562 9.011719 L 14.191406 8.863281 L 13.730469 9.800781 L 13.550781 8.769531 L 12.511719 8.621094 L 13.441406 8.132812 L 13.261719 7.097656 L 14.011719 7.828125 Z M 14.9375 7.339844 "/>
</svg>
