<?xml version="1.0" encoding="UTF-8"?>
<svg xmlns="http://www.w3.org/2000/svg" xmlns:xlink="http://www.w3.org/1999/xlink" width="40" height="40" viewBox="0 0 40 40">
<path fill-rule="nonzero" fill="rgb(93.333333%, 93.333333%, 93.333333%)" fill-opacity="1" d="M 39.3125 25.21875 C 39.761719 23.554688 40 21.804688 40 20 L 39.3125 14.78125 C 38.8125 12.921875 38.046875 11.167969 37.066406 9.566406 L 32.453125 4.347656 C 29.035156 1.628906 24.710938 0 20.007812 0 L 19.992188 0 C 15.285156 0 10.960938 1.628906 7.546875 4.347656 L 2.933594 9.566406 C 1.953125 11.167969 1.1875 12.921875 0.6875 14.78125 L 0 20 L 0 20.007812 C 0 21.808594 0.238281 23.554688 0.6875 25.21875 L 2.933594 30.433594 C 4.15625 32.433594 5.722656 34.199219 7.546875 35.652344 L 20 40 L 32.453125 35.652344 C 34.277344 34.199219 35.839844 32.433594 37.066406 30.433594 Z M 39.3125 25.21875 "/>
<path fill-rule="nonzero" fill="rgb(84.705882%, 0%, 15.294118%)" fill-opacity="1" d="M 39.3125 14.78125 C 39.761719 16.445312 40 18.195312 40 20 L 0 20 C 0 18.195312 0.238281 16.445312 0.6875 14.78125 Z M 39.3125 14.78125 "/>
<path fill-rule="nonzero" fill="rgb(84.705882%, 0%, 15.294118%)" fill-opacity="1" d="M 32.453125 4.347656 C 34.277344 5.800781 35.839844 7.566406 37.066406 9.566406 L 2.933594 9.566406 C 4.160156 7.566406 5.722656 5.800781 7.546875 4.347656 Z M 32.453125 4.347656 "/>
<path fill-rule="nonzero" fill="rgb(84.705882%, 0%, 15.294118%)" fill-opacity="1" d="M 37.066406 30.433594 C 38.046875 28.832031 38.8125 27.078125 39.3125 25.21875 L 0.6875 25.21875 C 1.1875 27.078125 1.953125 28.832031 2.933594 30.433594 Z M 37.066406 30.433594 "/>
<path fill-rule="nonzero" fill="rgb(84.705882%, 0%, 15.294118%)" fill-opacity="1" d="M 32.453125 35.652344 L 7.546875 35.652344 C 10.960938 38.371094 15.28125 39.996094 19.984375 40 L 20.015625 40 C 24.71875 39.996094 29.039062 38.371094 32.453125 35.652344 Z M 32.453125 35.652344 "/>
<path fill-rule="nonzero" fill="rgb(0%, 32.156863%, 70.588235%)" fill-opacity="1" d="M 0 19.1875 C 0.425781 8.515625 9.210938 0 19.984375 0 C 19.988281 0 19.996094 0 20 0 L 20 20 L 0 20 Z M 0 19.1875 "/>
<path fill-rule="evenodd" fill="rgb(93.333333%, 93.333333%, 93.333333%)" fill-opacity="1" d="M 8.554688 3.597656 C 9.210938 3.140625 9.890625 2.71875 10.597656 2.34375 L 10.671875 2.574219 L 12.851562 2.574219 L 11.089844 3.855469 L 11.765625 5.925781 L 10 4.644531 L 8.238281 5.925781 L 8.910156 3.855469 Z M 2.3125 10.65625 C 2.773438 9.785156 3.296875 8.953125 3.878906 8.164062 L 4.175781 9.074219 L 6.351562 9.074219 L 4.589844 10.355469 L 5.261719 12.425781 L 3.5 11.144531 L 1.738281 12.425781 Z M 16.5 0.5 L 17.171875 2.574219 L 19.351562 2.574219 L 17.589844 3.855469 L 18.261719 5.925781 L 16.5 4.644531 L 14.738281 5.925781 L 15.410156 3.855469 L 13.648438 2.574219 L 15.828125 2.574219 Z M 10 7 L 10.671875 9.074219 L 12.851562 9.074219 L 11.089844 10.355469 L 11.761719 12.425781 L 10 11.144531 L 8.238281 12.425781 L 8.910156 10.355469 L 7.148438 9.074219 L 9.328125 9.074219 Z M 17.171875 9.074219 L 16.5 7 L 15.828125 9.074219 L 13.648438 9.074219 L 15.410156 10.355469 L 14.738281 12.425781 L 16.5 11.144531 L 18.261719 12.425781 L 17.589844 10.355469 L 19.351562 9.074219 Z M 3.5 13.5 L 4.171875 15.574219 L 6.351562 15.574219 L 4.589844 16.855469 L 5.261719 18.925781 L 3.5 17.644531 L 1.738281 18.925781 L 2.410156 16.855469 L 0.648438 15.574219 L 2.828125 15.574219 Z M 10.671875 15.574219 L 10 13.5 L 9.328125 15.574219 L 7.148438 15.574219 L 8.910156 16.855469 L 8.238281 18.925781 L 10 17.644531 L 11.761719 18.925781 L 11.089844 16.855469 L 12.851562 15.574219 Z M 16.5 13.5 L 17.171875 15.574219 L 19.351562 15.574219 L 17.589844 16.855469 L 18.261719 18.925781 L 16.5 17.644531 L 14.738281 18.925781 L 15.410156 16.855469 L 13.648438 15.574219 L 15.828125 15.574219 Z M 16.5 13.5 "/>
</svg>
