<?xml version="1.0" encoding="UTF-8"?>
<svg xmlns="http://www.w3.org/2000/svg" xmlns:xlink="http://www.w3.org/1999/xlink" width="60" height="60" viewBox="0 0 60 60">
<path fill-rule="nonzero" fill="rgb(93.333333%, 93.333333%, 93.333333%)" fill-opacity="1" d="M 58.96875 37.824219 C 59.640625 35.332031 60 32.707031 60 30 L 58.96875 22.171875 C 58.214844 19.382812 57.070312 16.753906 55.597656 14.347656 L 48.675781 6.519531 C 43.554688 2.441406 37.070312 0.00390625 30.011719 0 L 29.988281 0 C 22.929688 0.00390625 16.445312 2.441406 11.320312 6.519531 L 4.402344 14.347656 C 2.925781 16.753906 1.78125 19.382812 1.03125 22.171875 L 0 30 L 0 30.011719 C 0 32.714844 0.359375 35.335938 1.03125 37.824219 L 4.402344 45.652344 C 6.238281 48.648438 8.585938 51.296875 11.320312 53.476562 L 30 60 L 48.675781 53.476562 C 51.414062 51.296875 53.761719 48.648438 55.597656 45.652344 Z M 58.96875 37.824219 "/>
<path fill-rule="nonzero" fill="rgb(84.705882%, 0%, 15.294118%)" fill-opacity="1" d="M 58.96875 22.175781 C 59.640625 24.667969 60 27.292969 60 30 L 0 30 C 0 27.292969 0.359375 24.667969 1.03125 22.175781 Z M 58.96875 22.175781 "/>
<path fill-rule="nonzero" fill="rgb(84.705882%, 0%, 15.294118%)" fill-opacity="1" d="M 48.675781 6.523438 C 51.414062 8.703125 53.761719 11.351562 55.597656 14.347656 L 4.402344 14.347656 C 6.238281 11.351562 8.585938 8.703125 11.324219 6.523438 Z M 48.675781 6.523438 "/>
<path fill-rule="nonzero" fill="rgb(84.705882%, 0%, 15.294118%)" fill-opacity="1" d="M 55.597656 45.652344 C 57.074219 43.246094 58.21875 40.617188 58.96875 37.824219 L 1.03125 37.824219 C 1.785156 40.617188 2.929688 43.246094 4.402344 45.652344 Z M 55.597656 45.652344 "/>
<path fill-rule="nonzero" fill="rgb(84.705882%, 0%, 15.294118%)" fill-opacity="1" d="M 48.675781 53.476562 L 11.324219 53.476562 C 16.441406 57.554688 22.921875 59.996094 29.972656 60 L 30.027344 60 C 37.078125 59.996094 43.558594 57.554688 48.675781 53.480469 Z M 48.675781 53.476562 "/>
<path fill-rule="nonzero" fill="rgb(0%, 32.156863%, 70.588235%)" fill-opacity="1" d="M 0 28.777344 C 0.640625 12.777344 13.816406 0 29.976562 0 C 29.984375 0 29.992188 0 30 0 L 30 30 L 0 30 Z M 0 28.777344 "/>
<path fill-rule="evenodd" fill="rgb(93.333333%, 93.333333%, 93.333333%)" fill-opacity="1" d="M 12.832031 5.394531 C 13.8125 4.707031 14.835938 4.082031 15.898438 3.515625 L 16.011719 3.859375 L 19.28125 3.859375 L 16.636719 5.78125 L 17.644531 8.890625 L 15 6.96875 L 12.355469 8.890625 L 13.367188 5.78125 Z M 3.46875 15.988281 C 4.160156 14.679688 4.945312 13.429688 5.816406 12.242188 L 6.261719 13.609375 L 9.53125 13.609375 L 6.886719 15.53125 L 7.894531 18.640625 L 5.25 16.71875 L 2.605469 18.640625 Z M 24.75 0.75 L 25.761719 3.859375 L 29.03125 3.859375 L 26.386719 5.78125 L 27.394531 8.890625 L 24.75 6.96875 L 22.105469 8.890625 L 23.117188 5.78125 L 20.46875 3.859375 L 23.738281 3.859375 Z M 15 10.5 L 16.011719 13.609375 L 19.28125 13.609375 L 16.636719 15.53125 L 17.644531 18.640625 L 15 16.71875 L 12.355469 18.640625 L 13.367188 15.53125 L 10.71875 13.609375 L 13.988281 13.609375 Z M 25.761719 13.609375 L 24.75 10.5 L 23.738281 13.609375 L 20.46875 13.609375 L 23.117188 15.53125 L 22.105469 18.640625 L 24.75 16.71875 L 27.394531 18.640625 L 26.386719 15.53125 L 29.03125 13.609375 Z M 5.25 20.25 L 6.261719 23.359375 L 9.53125 23.359375 L 6.886719 25.28125 L 7.894531 28.390625 L 5.25 26.46875 L 2.605469 28.390625 L 3.617188 25.28125 L 0.96875 23.359375 L 4.238281 23.359375 Z M 16.011719 23.359375 L 15 20.25 L 13.988281 23.359375 L 10.71875 23.359375 L 13.367188 25.28125 L 12.355469 28.390625 L 15 26.46875 L 17.644531 28.390625 L 16.636719 25.28125 L 19.28125 23.359375 Z M 24.75 20.25 L 25.761719 23.359375 L 29.03125 23.359375 L 26.386719 25.28125 L 27.394531 28.390625 L 24.75 26.46875 L 22.105469 28.390625 L 23.117188 25.28125 L 20.46875 23.359375 L 23.738281 23.359375 Z M 24.75 20.25 "/>
</svg>
