<?xml version="1.0" encoding="UTF-8"?>
<svg xmlns="http://www.w3.org/2000/svg" xmlns:xlink="http://www.w3.org/1999/xlink" width="20" height="20" viewBox="0 0 20 20">
<path fill-rule="nonzero" fill="rgb(93.333333%, 93.333333%, 93.333333%)" fill-opacity="1" d="M 19.65625 12.609375 C 19.878906 11.777344 20 10.902344 20 10 L 19.65625 7.390625 C 19.40625 6.460938 19.023438 5.585938 18.53125 4.78125 L 16.226562 2.171875 C 14.519531 0.8125 12.355469 0 10.003906 0 L 9.996094 0 C 7.644531 0 5.480469 0.8125 3.773438 2.171875 L 1.46875 4.78125 C 0.976562 5.585938 0.59375 6.460938 0.34375 7.390625 L 0 10 L 0 10.003906 C 0 10.90625 0.121094 11.777344 0.34375 12.609375 L 1.46875 15.21875 C 2.078125 16.214844 2.863281 17.097656 3.773438 17.824219 L 10 20 L 16.226562 17.824219 C 17.136719 17.097656 17.921875 16.214844 18.53125 15.21875 Z M 19.65625 12.609375 "/>
<path fill-rule="nonzero" fill="rgb(84.705882%, 0%, 15.294118%)" fill-opacity="1" d="M 19.65625 7.390625 C 19.878906 8.222656 20 9.097656 20 10 L 0 10 C 0 9.097656 0.121094 8.222656 0.34375 7.390625 Z M 19.65625 7.390625 "/>
<path fill-rule="nonzero" fill="rgb(84.705882%, 0%, 15.294118%)" fill-opacity="1" d="M 16.226562 2.175781 C 17.136719 2.902344 17.921875 3.785156 18.53125 4.78125 L 1.46875 4.78125 C 2.078125 3.785156 2.863281 2.902344 3.773438 2.175781 Z M 16.226562 2.175781 "/>
<path fill-rule="nonzero" fill="rgb(84.705882%, 0%, 15.294118%)" fill-opacity="1" d="M 18.53125 15.21875 C 19.023438 14.414062 19.40625 13.539062 19.65625 12.609375 L 0.34375 12.609375 C 0.59375 13.539062 0.976562 14.414062 1.46875 15.21875 Z M 18.53125 15.21875 "/>
<path fill-rule="nonzero" fill="rgb(84.705882%, 0%, 15.294118%)" fill-opacity="1" d="M 16.226562 17.828125 L 3.773438 17.828125 C 5.480469 19.183594 7.640625 20 9.992188 20 L 10.007812 20 C 12.359375 20 14.519531 19.183594 16.226562 17.828125 Z M 16.226562 17.828125 "/>
<path fill-rule="nonzero" fill="rgb(0%, 32.156863%, 70.588235%)" fill-opacity="1" d="M 0 9.59375 C 0.214844 4.257812 4.605469 0 9.992188 0 C 9.996094 0 9.996094 0 10 0 L 10 10 L 0 10 Z M 0 9.59375 "/>
<path fill-rule="evenodd" fill="rgb(93.333333%, 93.333333%, 93.333333%)" fill-opacity="1" d="M 4.277344 1.796875 C 4.605469 1.570312 4.945312 1.359375 5.300781 1.171875 L 5.335938 1.285156 L 6.425781 1.285156 L 5.546875 1.925781 L 5.882812 2.964844 L 5 2.324219 L 4.117188 2.964844 L 4.457031 1.925781 Z M 1.15625 5.328125 C 1.386719 4.894531 1.648438 4.476562 1.9375 4.082031 L 2.085938 4.535156 L 3.175781 4.535156 L 2.296875 5.175781 L 2.632812 6.214844 L 1.75 5.574219 L 0.867188 6.214844 Z M 8.25 0.25 L 8.585938 1.285156 L 9.675781 1.285156 L 8.796875 1.925781 L 9.132812 2.964844 L 8.25 2.324219 L 7.367188 2.964844 L 7.707031 1.925781 L 6.824219 1.285156 L 7.914062 1.285156 Z M 5 3.5 L 5.335938 4.535156 L 6.425781 4.535156 L 5.546875 5.175781 L 5.882812 6.214844 L 5 5.574219 L 4.117188 6.214844 L 4.457031 5.175781 L 3.574219 4.535156 L 4.664062 4.535156 Z M 8.585938 4.535156 L 8.25 3.5 L 7.914062 4.535156 L 6.824219 4.535156 L 7.707031 5.175781 L 7.367188 6.214844 L 8.25 5.574219 L 9.132812 6.214844 L 8.796875 5.175781 L 9.675781 4.535156 Z M 1.75 6.75 L 2.085938 7.785156 L 3.175781 7.785156 L 2.296875 8.425781 L 2.632812 9.464844 L 1.75 8.824219 L 0.867188 9.464844 L 1.207031 8.425781 L 0.324219 7.785156 L 1.414062 7.785156 Z M 5.335938 7.785156 L 5 6.75 L 4.664062 7.785156 L 3.574219 7.785156 L 4.457031 8.425781 L 4.117188 9.464844 L 5 8.824219 L 5.882812 9.464844 L 5.546875 8.425781 L 6.425781 7.785156 Z M 8.25 6.75 L 8.585938 7.785156 L 9.675781 7.785156 L 8.796875 8.425781 L 9.132812 9.464844 L 8.25 8.824219 L 7.367188 9.464844 L 7.707031 8.425781 L 6.824219 7.785156 L 7.914062 7.785156 Z M 8.25 6.75 "/>
</svg>
