<svg width="24" height="24" viewBox="0 0 24 24" fill="none" xmlns="http://www.w3.org/2000/svg">
<g id="CONFIGS">
<path id="configfile_icon" d="M4.22222 4H19.7778V2H4.22222V4ZM19.7778 4C20.0037 4 20.3165 4.12475 20.5941 4.40583C20.8709 4.68613 21 5.00837 21 5.25H23C23 4.36663 22.5735 3.56387 22.017 3.00042C21.4613 2.43775 20.663 2 19.7778 2V4ZM21 5.25V18.75H23V5.25H21ZM21 18.75C21 18.9916 20.8709 19.3139 20.5941 19.5942C20.3165 19.8752 20.0037 20 19.7778 20V22C20.663 22 21.4613 21.5623 22.017 20.9996C22.5735 20.4361 23 19.6334 23 18.75H21ZM19.7778 20H4.22222V22H19.7778V20ZM4.22222 20C3.64154 20 3 19.4187 3 18.75H1C1 20.5665 2.58069 22 4.22222 22V20ZM3 18.75V5.25H1V18.75H3ZM3 5.25C3 5.00837 3.12909 4.68613 3.40593 4.40583C3.68353 4.12475 3.99632 4 4.22222 4V2C3.33702 2 2.53869 2.43775 1.98296 3.00042C1.42646 3.56387 1 4.36663 1 5.25H3Z" fill="white"/>
<path id="Vector 3" d="M7.5 8.5L11 12L7.5 15.5" stroke="white" stroke-width="2" stroke-linecap="round"/>
<path id="Vector 4" d="M14 15H17" stroke="white" stroke-width="2" stroke-linecap="round"/>
</g>
</svg>
