<?xml version="1.0" encoding="UTF-8"?>
<svg xmlns="http://www.w3.org/2000/svg" xmlns:xlink="http://www.w3.org/1999/xlink" width="20" height="20" viewBox="0 0 20 20">
<path fill-rule="nonzero" fill="rgb(42.745098%, 64.705882%, 26.666667%)" fill-opacity="1" d="M 20 10 C 20 15.523438 15.523438 20 10 20 C 4.476562 20 0 15.523438 0 10 C 0 4.476562 4.476562 0 10 0 C 15.523438 0 20 4.476562 20 10 Z M 20 10 "/>
<path fill-rule="evenodd" fill="rgb(100%, 85.490196%, 26.666667%)" fill-opacity="1" d="M 4 2 C 1.570312 3.824219 0 6.730469 0 10 C 0 13.273438 1.570312 16.175781 4 18 L 20 10 Z M 4 2 "/>
<path fill-rule="evenodd" fill="rgb(93.333333%, 93.333333%, 93.333333%)" fill-opacity="1" d="M 4 2 L 20 10 L 4 18 C 3.707031 17.78125 3.429688 17.546875 3.164062 17.300781 L 17.761719 10 L 3.164062 2.699219 C 3.429688 2.453125 3.707031 2.21875 4 2 Z M 4 2 "/>
<path fill-rule="evenodd" fill="rgb(84.705882%, 0%, 15.294118%)" fill-opacity="1" d="M 2.929688 2.929688 C 1.121094 4.738281 0 7.238281 0 10 C 0 12.761719 1.121094 15.261719 2.929688 17.070312 L 10 10 Z M 2.929688 2.929688 "/>
<path fill-rule="evenodd" fill="rgb(20%, 20%, 20%)" fill-opacity="1" d="M 2.929688 2.929688 C 2.691406 3.164062 2.46875 3.414062 2.257812 3.671875 L 8.585938 10 L 2.257812 16.328125 C 2.46875 16.585938 2.691406 16.835938 2.929688 17.070312 L 10 10 Z M 2.929688 2.929688 "/>
</svg>
