<?xml version="1.0" encoding="UTF-8"?>
<svg xmlns="http://www.w3.org/2000/svg" xmlns:xlink="http://www.w3.org/1999/xlink" width="40" height="40" viewBox="0 0 40 40">
<path fill-rule="nonzero" fill="rgb(42.745098%, 64.705882%, 26.666667%)" fill-opacity="1" d="M 40 20 C 40 31.046875 31.046875 40 20 40 C 8.953125 40 0 31.046875 0 20 C 0 8.953125 8.953125 0 20 0 C 31.046875 0 40 8.953125 40 20 Z M 40 20 "/>
<path fill-rule="evenodd" fill="rgb(100%, 85.490196%, 26.666667%)" fill-opacity="1" d="M 8 4 C 3.140625 7.648438 0 13.457031 0 20 C 0 26.542969 3.140625 32.351562 8 36 L 40 20 Z M 8 4 "/>
<path fill-rule="evenodd" fill="rgb(93.333333%, 93.333333%, 93.333333%)" fill-opacity="1" d="M 8 4 L 40 20 L 8 36 C 7.417969 35.5625 6.859375 35.097656 6.328125 34.597656 L 35.527344 20 L 6.328125 5.402344 C 6.859375 4.90625 7.417969 4.4375 8 4 Z M 8 4 "/>
<path fill-rule="evenodd" fill="rgb(84.705882%, 0%, 15.294118%)" fill-opacity="1" d="M 5.859375 5.859375 C 2.238281 9.476562 0 14.476562 0 20 C 0 25.523438 2.238281 30.523438 5.859375 34.140625 L 20 20 Z M 5.859375 5.859375 "/>
<path fill-rule="evenodd" fill="rgb(20%, 20%, 20%)" fill-opacity="1" d="M 5.859375 5.859375 C 5.386719 6.328125 4.9375 6.824219 4.515625 7.34375 L 17.171875 20 L 4.515625 32.65625 C 4.9375 33.175781 5.386719 33.671875 5.859375 34.144531 L 20 20 Z M 5.859375 5.859375 "/>
</svg>
