<?xml version="1.0" encoding="UTF-8"?>
<svg xmlns="http://www.w3.org/2000/svg" xmlns:xlink="http://www.w3.org/1999/xlink" width="60" height="60" viewBox="0 0 60 60">
<path fill-rule="nonzero" fill="rgb(42.745098%, 64.705882%, 26.666667%)" fill-opacity="1" d="M 60 30 C 60 46.570312 46.570312 60 30 60 C 13.429688 60 0 46.570312 0 30 C 0 13.429688 13.429688 0 30 0 C 46.570312 0 60 13.429688 60 30 Z M 60 30 "/>
<path fill-rule="evenodd" fill="rgb(100%, 85.490196%, 26.666667%)" fill-opacity="1" d="M 11.996094 6 C 4.710938 11.472656 0 20.1875 0 30 C 0 39.816406 4.710938 48.527344 11.996094 54 L 60 30 Z M 11.996094 6 "/>
<path fill-rule="evenodd" fill="rgb(93.333333%, 93.333333%, 93.333333%)" fill-opacity="1" d="M 11.996094 6 L 60 30 L 11.996094 54 C 11.125 53.347656 10.289062 52.644531 9.496094 51.898438 L 53.289062 30 L 9.496094 8.101562 C 10.289062 7.355469 11.125 6.65625 11.996094 6 Z M 11.996094 6 "/>
<path fill-rule="evenodd" fill="rgb(84.705882%, 0%, 15.294118%)" fill-opacity="1" d="M 8.785156 8.785156 C 3.359375 14.214844 0 21.714844 0 30 C 0 38.285156 3.359375 45.785156 8.785156 51.214844 L 30 30 Z M 8.785156 8.785156 "/>
<path fill-rule="evenodd" fill="rgb(20%, 20%, 20%)" fill-opacity="1" d="M 8.785156 8.785156 C 8.078125 9.496094 7.40625 10.238281 6.769531 11.015625 L 25.757812 30 L 6.769531 48.988281 C 7.40625 49.761719 8.078125 50.507812 8.785156 51.214844 L 30 30 L 8.785156 8.789062 Z M 8.785156 8.785156 "/>
</svg>
