<?xml version="1.0" encoding="UTF-8"?>
<svg xmlns="http://www.w3.org/2000/svg" xmlns:xlink="http://www.w3.org/1999/xlink" width="20" height="20" viewBox="0 0 20 20">
<path fill-rule="nonzero" fill="rgb(93.333333%, 93.333333%, 93.333333%)" fill-opacity="1" d="M 20 10 C 20 15.523438 15.523438 20 10 20 C 4.476562 20 0 15.523438 0 10 C 0 4.476562 4.476562 0 10 0 C 15.523438 0 20 4.476562 20 10 Z M 20 10 "/>
<path fill-rule="nonzero" fill="rgb(28.627451%, 43.137255%, 17.647059%)" fill-opacity="1" d="M 15.652344 8.695312 L 14.347656 8.695312 C 14.347656 11.097656 12.402344 13.042969 10 13.042969 C 7.597656 13.042969 5.652344 11.097656 5.652344 8.695312 L 4.347656 8.695312 C 4.347656 11.28125 6.085938 13.464844 8.457031 14.132812 C 8.199219 14.628906 8.238281 15.25 8.609375 15.714844 C 9.097656 15.324219 9.601562 14.917969 10.03125 14.574219 C 10.457031 14.917969 10.964844 15.324219 11.449219 15.714844 C 11.824219 15.246094 11.863281 14.617188 11.59375 14.121094 C 13.941406 13.433594 15.652344 11.265625 15.652344 8.695312 Z M 15.652344 8.695312 "/>
<path fill-rule="nonzero" fill="rgb(100%, 59.607843%, 6.666667%)" fill-opacity="1" d="M 6.523438 8.261719 C 6.523438 8.261719 6.523438 10.433594 8.695312 10.433594 L 9.128906 10.871094 L 10 10.871094 C 10 10.871094 10.433594 9.566406 11.304688 9.566406 C 11.304688 9.566406 11.304688 8.695312 12.175781 8.695312 L 13.476562 8.695312 C 13.476562 8.695312 13.042969 6.957031 15.21875 5.652344 L 14.347656 5.21875 C 14.347656 5.21875 11.304688 7.390625 9.128906 6.957031 L 9.128906 7.828125 L 8.261719 7.828125 L 7.828125 7.390625 Z M 6.523438 8.261719 "/>
</svg>
