<?xml version="1.0" encoding="UTF-8"?>
<svg xmlns="http://www.w3.org/2000/svg" xmlns:xlink="http://www.w3.org/1999/xlink" width="60" height="60" viewBox="0 0 60 60">
<path fill-rule="nonzero" fill="rgb(93.333333%, 93.333333%, 93.333333%)" fill-opacity="1" d="M 60 30 C 60 46.570312 46.570312 60 30 60 C 13.429688 60 0 46.570312 0 30 C 0 13.429688 13.429688 0 30 0 C 46.570312 0 60 13.429688 60 30 Z M 60 30 "/>
<path fill-rule="nonzero" fill="rgb(28.627451%, 43.137255%, 17.647059%)" fill-opacity="1" d="M 46.957031 26.085938 L 43.042969 26.085938 C 43.042969 33.289062 37.203125 39.128906 30 39.128906 C 22.796875 39.128906 16.957031 33.289062 16.957031 26.085938 L 13.046875 26.085938 C 13.046875 33.847656 18.257812 40.390625 25.371094 42.40625 C 24.59375 43.886719 24.710938 45.75 25.824219 47.140625 C 27.289062 45.96875 28.804688 44.753906 30.089844 43.726562 C 31.375 44.753906 32.890625 45.96875 34.351562 47.140625 C 35.476562 45.738281 35.589844 43.847656 34.78125 42.359375 C 41.820312 40.296875 46.957031 33.792969 46.957031 26.089844 Z M 46.957031 26.085938 "/>
<path fill-rule="nonzero" fill="rgb(100%, 59.607843%, 6.666667%)" fill-opacity="1" d="M 19.566406 24.78125 C 19.566406 24.78125 19.566406 31.304688 26.085938 31.304688 L 27.390625 32.609375 L 30 32.609375 C 30 32.609375 31.304688 28.695312 33.914062 28.695312 C 33.914062 28.695312 33.914062 26.085938 36.523438 26.085938 L 40.433594 26.085938 C 40.433594 26.085938 39.128906 20.871094 45.652344 16.957031 L 43.042969 15.652344 C 43.042969 15.652344 33.914062 22.175781 27.390625 20.871094 L 27.390625 23.476562 L 24.785156 23.476562 L 23.480469 22.175781 Z M 19.566406 24.78125 "/>
</svg>
