<?xml version="1.0" encoding="UTF-8"?>
<svg xmlns="http://www.w3.org/2000/svg" xmlns:xlink="http://www.w3.org/1999/xlink" width="40" height="40" viewBox="0 0 40 40">
<path fill-rule="nonzero" fill="rgb(93.333333%, 93.333333%, 93.333333%)" fill-opacity="1" d="M 40 20 C 40 31.046875 31.046875 40 20 40 C 8.953125 40 0 31.046875 0 20 C 0 8.953125 8.953125 0 20 0 C 31.046875 0 40 8.953125 40 20 Z M 40 20 "/>
<path fill-rule="nonzero" fill="rgb(28.627451%, 43.137255%, 17.647059%)" fill-opacity="1" d="M 31.304688 17.390625 L 28.695312 17.390625 C 28.695312 22.195312 24.800781 26.085938 20 26.085938 C 15.199219 26.085938 11.304688 22.195312 11.304688 17.390625 L 8.695312 17.390625 C 8.695312 22.566406 12.171875 26.925781 16.914062 28.269531 C 16.394531 29.257812 16.472656 30.5 17.214844 31.429688 C 18.191406 30.644531 19.203125 29.835938 20.058594 29.148438 C 20.917969 29.835938 21.925781 30.644531 22.902344 31.429688 C 23.652344 30.492188 23.726562 29.230469 23.1875 28.238281 C 27.878906 26.863281 31.304688 22.527344 31.304688 17.390625 Z M 31.304688 17.390625 "/>
<path fill-rule="nonzero" fill="rgb(100%, 59.607843%, 6.666667%)" fill-opacity="1" d="M 13.042969 16.523438 C 13.042969 16.523438 13.042969 20.871094 17.390625 20.871094 L 18.261719 21.738281 L 20 21.738281 C 20 21.738281 20.871094 19.128906 22.609375 19.128906 C 22.609375 19.128906 22.609375 17.390625 24.347656 17.390625 L 26.957031 17.390625 C 26.957031 17.390625 26.085938 13.914062 30.433594 11.304688 L 28.695312 10.433594 C 28.695312 10.433594 22.609375 14.78125 18.261719 13.914062 L 18.261719 15.652344 L 16.523438 15.652344 L 15.652344 14.78125 Z M 13.042969 16.523438 "/>
</svg>
