<?xml version="1.0" encoding="UTF-8"?>
<svg xmlns="http://www.w3.org/2000/svg" xmlns:xlink="http://www.w3.org/1999/xlink" width="60" height="60" viewBox="0 0 60 60">
<path fill-rule="nonzero" fill="rgb(28.627451%, 43.137255%, 17.647059%)" fill-opacity="1" d="M 60 30 C 60 46.570312 46.570312 60 30 60 C 13.429688 60 0 46.570312 0 30 C 0 13.429688 13.429688 0 30 0 C 46.570312 0 60 13.429688 60 30 Z M 60 30 "/>
<path fill-rule="nonzero" fill="rgb(100%, 85.490196%, 26.666667%)" fill-opacity="1" d="M 46.054688 43.042969 L 46.875 44.765625 L 48.738281 44.332031 L 47.90625 46.054688 L 49.394531 47.226562 L 47.53125 47.660156 L 47.53125 49.570312 L 46.054688 48.375 L 44.566406 49.570312 L 44.566406 47.660156 L 42.703125 47.238281 L 44.203125 46.054688 L 43.371094 44.332031 L 45.234375 44.765625 Z M 38.390625 24.785156 L 39.210938 26.507812 L 41.085938 26.074219 L 40.242188 27.796875 L 41.742188 28.96875 L 39.867188 29.390625 L 39.878906 31.300781 L 38.390625 30.105469 L 36.902344 31.300781 L 36.902344 29.390625 L 35.050781 28.980469 L 36.539062 27.796875 L 35.71875 26.074219 L 37.570312 26.507812 Z M 46.054688 14.355469 L 46.875 16.066406 L 48.738281 15.644531 L 47.90625 17.355469 L 49.394531 18.539062 L 47.53125 18.960938 L 47.53125 20.871094 L 46.054688 19.675781 L 44.566406 20.871094 L 44.566406 18.960938 L 42.703125 18.539062 L 44.203125 17.367188 L 43.371094 15.644531 L 45.234375 16.054688 Z M 52.734375 22.171875 L 53.554688 23.894531 L 55.429688 23.460938 L 54.597656 25.183594 L 56.085938 26.367188 L 54.222656 26.789062 L 54.222656 28.699219 L 52.746094 27.503906 L 51.257812 28.699219 L 51.257812 26.789062 L 49.394531 26.367188 L 50.894531 25.183594 L 50.0625 23.460938 L 51.914062 23.90625 Z M 47.953125 31.3125 L 48.609375 33.304688 L 50.707031 33.304688 L 49.007812 34.523438 L 49.652344 36.515625 L 47.953125 35.285156 L 46.265625 36.527344 L 46.910156 34.535156 L 45.210938 33.292969 L 47.320312 33.292969 Z M 47.953125 31.3125 "/>
<path fill-rule="nonzero" fill="rgb(100%, 85.490196%, 26.666667%)" fill-opacity="1" d="M 33.257812 38.472656 C 31.96875 38.46875 30.699219 38.171875 29.542969 37.605469 C 28.390625 37.035156 27.378906 36.210938 26.589844 35.195312 C 25.800781 34.179688 25.25 32.996094 24.988281 31.734375 C 24.722656 30.472656 24.75 29.171875 25.066406 27.921875 C 25.382812 26.675781 25.980469 25.515625 26.808594 24.53125 C 27.640625 23.546875 28.6875 22.765625 29.863281 22.246094 C 31.042969 21.726562 32.324219 21.484375 33.609375 21.535156 C 34.894531 21.582031 36.15625 21.925781 37.289062 22.535156 C 35.820312 21.101562 33.960938 20.128906 31.945312 19.746094 C 29.929688 19.363281 27.84375 19.585938 25.953125 20.382812 C 24.0625 21.179688 22.445312 22.515625 21.3125 24.222656 C 20.175781 25.933594 19.570312 27.941406 19.570312 29.996094 C 19.570312 32.046875 20.175781 34.054688 21.3125 35.761719 C 22.445312 37.472656 24.0625 38.808594 25.953125 39.605469 C 27.84375 40.402344 29.929688 40.625 31.945312 40.242188 C 33.960938 39.855469 35.820312 38.886719 37.289062 37.453125 C 36.050781 38.125 34.664062 38.472656 33.257812 38.472656 Z M 18.867188 11.742188 C 18.410156 10.949219 17.75 10.289062 16.957031 9.832031 C 16.164062 9.375 15.265625 9.132812 14.351562 9.132812 C 13.433594 9.132812 12.535156 9.375 11.742188 9.832031 C 10.949219 10.289062 10.289062 10.949219 9.832031 11.742188 Z M 18.878906 11.765625 L 14.34375 16.300781 L 9.808594 11.765625 C 9.363281 12.550781 9.128906 13.441406 9.128906 14.34375 C 9.128906 15.027344 9.265625 15.707031 9.527344 16.339844 C 9.789062 16.972656 10.171875 17.546875 10.65625 18.03125 C 11.140625 18.515625 11.714844 18.898438 12.347656 19.160156 C 12.980469 19.421875 13.660156 19.558594 14.34375 19.558594 C 15.027344 19.558594 15.707031 19.421875 16.339844 19.160156 C 16.972656 18.898438 17.546875 18.515625 18.03125 18.03125 C 18.515625 17.546875 18.898438 16.972656 19.160156 16.339844 C 19.421875 15.707031 19.558594 15.027344 19.558594 14.34375 C 19.558594 13.441406 19.324219 12.550781 18.878906 11.765625 Z M 18.878906 11.765625 "/>
<path fill-rule="nonzero" fill="rgb(63.529412%, 0%, 11.372549%)" fill-opacity="1" d="M 13.042969 15 L 13.042969 19.40625 C 13.46875 19.515625 13.90625 19.570312 14.34375 19.570312 C 14.800781 19.570312 15.234375 19.511719 15.65625 19.40625 L 15.65625 15 Z M 13.042969 15 "/>
</svg>
