<?xml version="1.0" encoding="UTF-8"?>
<svg xmlns="http://www.w3.org/2000/svg" xmlns:xlink="http://www.w3.org/1999/xlink" width="40" height="40" viewBox="0 0 40 40">
<path fill-rule="nonzero" fill="rgb(28.627451%, 43.137255%, 17.647059%)" fill-opacity="1" d="M 40 20 C 40 31.046875 31.046875 40 20 40 C 8.953125 40 0 31.046875 0 20 C 0 8.953125 8.953125 0 20 0 C 31.046875 0 40 8.953125 40 20 Z M 40 20 "/>
<path fill-rule="nonzero" fill="rgb(100%, 85.490196%, 26.666667%)" fill-opacity="1" d="M 30.703125 28.695312 L 31.25 29.84375 L 32.492188 29.554688 L 31.9375 30.703125 L 32.929688 31.484375 L 31.6875 31.773438 L 31.6875 33.046875 L 30.703125 32.25 L 29.710938 33.046875 L 29.710938 31.773438 L 28.46875 31.492188 L 29.46875 30.703125 L 28.914062 29.554688 L 30.15625 29.84375 Z M 25.59375 16.523438 L 26.140625 17.671875 L 27.390625 17.382812 L 26.828125 18.53125 L 27.828125 19.3125 L 26.578125 19.59375 L 26.585938 20.867188 L 25.59375 20.070312 L 24.601562 20.867188 L 24.601562 19.59375 L 23.367188 19.320312 L 24.359375 18.53125 L 23.8125 17.382812 L 25.046875 17.671875 Z M 30.703125 9.570312 L 31.25 10.710938 L 32.492188 10.429688 L 31.9375 11.570312 L 32.929688 12.359375 L 31.6875 12.640625 L 31.6875 13.914062 L 30.703125 13.117188 L 29.710938 13.914062 L 29.710938 12.640625 L 28.46875 12.359375 L 29.46875 11.578125 L 28.914062 10.429688 L 30.15625 10.703125 Z M 35.15625 14.78125 L 35.703125 15.929688 L 36.953125 15.640625 L 36.398438 16.789062 L 37.390625 17.578125 L 36.148438 17.859375 L 36.148438 19.132812 L 35.164062 18.335938 L 34.171875 19.132812 L 34.171875 17.859375 L 32.929688 17.578125 L 33.929688 16.789062 L 33.375 15.640625 L 34.609375 15.9375 Z M 31.96875 20.875 L 32.40625 22.203125 L 33.804688 22.203125 L 32.671875 23.015625 L 33.101562 24.34375 L 31.96875 23.523438 L 30.84375 24.351562 L 31.273438 23.023438 L 30.140625 22.195312 L 31.546875 22.195312 Z M 31.96875 20.875 "/>
<path fill-rule="nonzero" fill="rgb(100%, 85.490196%, 26.666667%)" fill-opacity="1" d="M 22.171875 25.648438 C 21.3125 25.644531 20.46875 25.449219 19.695312 25.070312 C 18.925781 24.691406 18.253906 24.140625 17.726562 23.464844 C 17.199219 22.785156 16.835938 21.996094 16.660156 21.15625 C 16.484375 20.316406 16.5 19.445312 16.710938 18.613281 C 16.921875 17.78125 17.320312 17.007812 17.875 16.355469 C 18.425781 15.699219 19.125 15.175781 19.910156 14.832031 C 20.695312 14.484375 21.546875 14.324219 22.40625 14.355469 C 23.265625 14.390625 24.101562 14.617188 24.859375 15.023438 C 23.878906 14.066406 22.640625 13.421875 21.296875 13.164062 C 19.953125 12.910156 18.5625 13.058594 17.300781 13.585938 C 16.039062 14.117188 14.964844 15.011719 14.207031 16.148438 C 13.449219 17.289062 13.046875 18.628906 13.046875 19.996094 C 13.046875 21.363281 13.449219 22.703125 14.207031 23.84375 C 14.964844 24.984375 16.039062 25.875 17.300781 26.40625 C 18.5625 26.933594 19.953125 27.082031 21.296875 26.828125 C 22.640625 26.570312 23.878906 25.925781 24.859375 24.96875 C 24.035156 25.414062 23.109375 25.648438 22.171875 25.648438 Z M 12.578125 7.828125 C 12.273438 7.300781 11.835938 6.859375 11.304688 6.554688 C 10.777344 6.25 10.175781 6.089844 9.566406 6.089844 C 8.957031 6.089844 8.355469 6.25 7.828125 6.554688 C 7.296875 6.859375 6.859375 7.300781 6.554688 7.828125 Z M 12.585938 7.84375 L 9.5625 10.867188 L 6.539062 7.84375 C 6.242188 8.367188 6.085938 8.960938 6.085938 9.5625 C 6.085938 10.019531 6.175781 10.472656 6.351562 10.894531 C 6.523438 11.316406 6.78125 11.699219 7.105469 12.019531 C 7.425781 12.34375 7.808594 12.601562 8.230469 12.773438 C 8.652344 12.949219 9.105469 13.039062 9.5625 13.039062 C 10.019531 13.039062 10.472656 12.949219 10.894531 12.773438 C 11.316406 12.601562 11.699219 12.34375 12.019531 12.019531 C 12.34375 11.699219 12.601562 11.316406 12.773438 10.894531 C 12.949219 10.472656 13.039062 10.019531 13.039062 9.5625 C 13.039062 8.960938 12.882812 8.367188 12.585938 7.84375 Z M 12.585938 7.84375 "/>
<path fill-rule="nonzero" fill="rgb(63.529412%, 0%, 11.372549%)" fill-opacity="1" d="M 8.695312 10 L 8.695312 12.9375 C 8.980469 13.011719 9.269531 13.046875 9.5625 13.046875 C 9.867188 13.046875 10.15625 13.007812 10.4375 12.9375 L 10.4375 10 Z M 8.695312 10 "/>
</svg>
