<?xml version="1.0" encoding="UTF-8"?>
<svg xmlns="http://www.w3.org/2000/svg" xmlns:xlink="http://www.w3.org/1999/xlink" width="20" height="20" viewBox="0 0 20 20">
<path fill-rule="nonzero" fill="rgb(28.627451%, 43.137255%, 17.647059%)" fill-opacity="1" d="M 20 10 C 20 15.523438 15.523438 20 10 20 C 4.476562 20 0 15.523438 0 10 C 0 4.476562 4.476562 0 10 0 C 15.523438 0 20 4.476562 20 10 Z M 20 10 "/>
<path fill-rule="nonzero" fill="rgb(100%, 85.490196%, 26.666667%)" fill-opacity="1" d="M 15.351562 14.347656 L 15.625 14.921875 L 16.246094 14.777344 L 15.96875 15.351562 L 16.464844 15.742188 L 15.84375 15.886719 L 15.84375 16.523438 L 15.351562 16.125 L 14.855469 16.523438 L 14.855469 15.886719 L 14.234375 15.746094 L 14.734375 15.351562 L 14.457031 14.777344 L 15.078125 14.921875 Z M 12.796875 8.261719 L 13.070312 8.835938 L 13.695312 8.691406 L 13.414062 9.265625 L 13.914062 9.65625 L 13.289062 9.796875 L 13.292969 10.433594 L 12.796875 10.035156 L 12.300781 10.433594 L 12.300781 9.796875 L 11.683594 9.660156 L 12.179688 9.265625 L 11.90625 8.691406 L 12.523438 8.835938 Z M 15.351562 4.785156 L 15.625 5.355469 L 16.246094 5.214844 L 15.96875 5.785156 L 16.464844 6.179688 L 15.84375 6.320312 L 15.84375 6.957031 L 15.351562 6.558594 L 14.855469 6.957031 L 14.855469 6.320312 L 14.234375 6.179688 L 14.734375 5.789062 L 14.457031 5.214844 L 15.078125 5.351562 Z M 17.578125 7.390625 L 17.851562 7.964844 L 18.476562 7.820312 L 18.199219 8.394531 L 18.695312 8.789062 L 18.074219 8.929688 L 18.074219 9.566406 L 17.582031 9.167969 L 17.085938 9.566406 L 17.085938 8.929688 L 16.464844 8.789062 L 16.964844 8.394531 L 16.6875 7.820312 L 17.304688 7.96875 Z M 15.984375 10.4375 L 16.203125 11.101562 L 16.902344 11.101562 L 16.335938 11.507812 L 16.550781 12.171875 L 15.984375 11.761719 L 15.421875 12.175781 L 15.636719 11.511719 L 15.070312 11.097656 L 15.773438 11.097656 Z M 15.984375 10.4375 "/>
<path fill-rule="nonzero" fill="rgb(100%, 85.490196%, 26.666667%)" fill-opacity="1" d="M 11.085938 12.824219 C 10.65625 12.824219 10.234375 12.722656 9.847656 12.535156 C 9.464844 12.34375 9.125 12.070312 8.863281 11.730469 C 8.601562 11.394531 8.417969 11 8.328125 10.578125 C 8.242188 10.15625 8.25 9.722656 8.355469 9.308594 C 8.460938 8.890625 8.660156 8.503906 8.9375 8.175781 C 9.214844 7.847656 9.5625 7.589844 9.953125 7.414062 C 10.347656 7.242188 10.773438 7.160156 11.203125 7.179688 C 11.632812 7.195312 12.050781 7.308594 12.429688 7.511719 C 11.941406 7.035156 11.320312 6.710938 10.648438 6.582031 C 9.976562 6.453125 9.28125 6.527344 8.652344 6.792969 C 8.019531 7.058594 7.480469 7.503906 7.105469 8.074219 C 6.726562 8.644531 6.523438 9.3125 6.523438 10 C 6.523438 10.683594 6.726562 11.351562 7.105469 11.921875 C 7.480469 12.492188 8.019531 12.9375 8.652344 13.203125 C 9.28125 13.46875 9.976562 13.542969 10.648438 13.414062 C 11.320312 13.285156 11.941406 12.960938 12.429688 12.484375 C 12.015625 12.707031 11.554688 12.824219 11.085938 12.824219 Z M 6.289062 3.914062 C 6.136719 3.648438 5.917969 3.429688 5.652344 3.277344 C 5.386719 3.125 5.089844 3.042969 4.78125 3.042969 C 4.476562 3.042969 4.179688 3.125 3.914062 3.277344 C 3.648438 3.429688 3.429688 3.648438 3.277344 3.914062 Z M 6.292969 3.921875 L 4.78125 5.433594 L 3.269531 3.921875 C 3.121094 4.183594 3.042969 4.480469 3.042969 4.78125 C 3.042969 5.007812 3.089844 5.234375 3.175781 5.445312 C 3.261719 5.65625 3.390625 5.847656 3.550781 6.011719 C 3.714844 6.171875 3.90625 6.300781 4.117188 6.386719 C 4.328125 6.472656 4.554688 6.519531 4.78125 6.519531 C 5.007812 6.519531 5.234375 6.472656 5.445312 6.386719 C 5.65625 6.300781 5.847656 6.171875 6.011719 6.011719 C 6.171875 5.847656 6.300781 5.65625 6.386719 5.445312 C 6.472656 5.234375 6.519531 5.007812 6.519531 4.78125 C 6.519531 4.480469 6.441406 4.183594 6.292969 3.921875 Z M 6.292969 3.921875 "/>
<path fill-rule="nonzero" fill="rgb(63.529412%, 0%, 11.372549%)" fill-opacity="1" d="M 4.347656 5 L 4.347656 6.46875 C 4.488281 6.503906 4.636719 6.523438 4.78125 6.523438 C 4.933594 6.523438 5.078125 6.503906 5.21875 6.46875 L 5.21875 5 Z M 4.347656 5 "/>
</svg>
