<?xml version="1.0" encoding="UTF-8"?>
<svg xmlns="http://www.w3.org/2000/svg" xmlns:xlink="http://www.w3.org/1999/xlink" width="40" height="40" viewBox="0 0 40 40">
<path fill-rule="nonzero" fill="rgb(93.333333%, 93.333333%, 93.333333%)" fill-opacity="1" d="M 20 0 C 24.28125 0 28.25 1.347656 31.503906 3.636719 L 35.429688 7.273438 C 36.351562 8.390625 37.15625 9.609375 37.820312 10.910156 L 39.246094 14.542969 C 39.578125 15.714844 39.804688 16.933594 39.917969 18.183594 L 39.917969 21.816406 C 39.804688 23.066406 39.578125 24.28125 39.246094 25.453125 L 37.820312 29.089844 C 37.15625 30.390625 36.351562 31.609375 35.429688 32.726562 L 31.503906 36.363281 C 28.25 38.65625 24.28125 40 20 40 C 15.71875 40 11.75 38.65625 8.496094 36.363281 L 4.570312 32.726562 C 3.648438 31.609375 2.84375 30.390625 2.179688 29.089844 L 0.753906 25.453125 C 0.421875 24.28125 0.191406 23.066406 0.0820312 21.816406 L 0.0820312 18.183594 C 0.195312 16.933594 0.421875 15.714844 0.753906 14.542969 L 2.179688 10.910156 C 2.84375 9.609375 3.648438 8.390625 4.570312 7.273438 L 8.496094 3.636719 C 11.75 1.347656 15.71875 0 20 0 Z M 20 0 "/>
<path fill-rule="nonzero" fill="rgb(84.705882%, 0%, 15.294118%)" fill-opacity="1" d="M 39.917969 21.816406 C 39.972656 21.230469 40 20.636719 40 20.039062 L 40 19.960938 C 40 19.359375 39.972656 18.765625 39.917969 18.179688 L 0.0820312 18.179688 C 0.0273438 18.78125 0 19.386719 0 20 C 0 20.613281 0.0273438 21.21875 0.0820312 21.816406 Z M 39.917969 21.816406 "/>
<path fill-rule="nonzero" fill="rgb(84.705882%, 0%, 15.294118%)" fill-opacity="1" d="M 39.246094 25.453125 L 0.753906 25.453125 C 1.109375 26.722656 1.589844 27.9375 2.179688 29.089844 L 37.820312 29.089844 C 38.410156 27.9375 38.890625 26.722656 39.246094 25.453125 Z M 39.246094 25.453125 "/>
<path fill-rule="nonzero" fill="rgb(84.705882%, 0%, 15.294118%)" fill-opacity="1" d="M 35.429688 32.726562 L 4.570312 32.726562 C 5.710938 34.105469 7.03125 35.332031 8.5 36.363281 L 31.503906 36.363281 C 32.96875 35.332031 34.289062 34.105469 35.429688 32.726562 Z M 35.429688 32.726562 "/>
<path fill-rule="nonzero" fill="rgb(84.705882%, 0%, 15.294118%)" fill-opacity="1" d="M 0.753906 14.542969 L 39.246094 14.542969 C 38.886719 13.277344 38.410156 12.0625 37.820312 10.910156 L 2.179688 10.910156 C 1.589844 12.0625 1.113281 13.277344 0.753906 14.542969 Z M 0.753906 14.542969 "/>
<path fill-rule="nonzero" fill="rgb(84.705882%, 0%, 15.294118%)" fill-opacity="1" d="M 4.570312 7.273438 L 35.429688 7.273438 C 34.289062 5.894531 32.96875 4.667969 31.503906 3.636719 L 8.496094 3.636719 C 7.03125 4.667969 5.710938 5.894531 4.570312 7.273438 Z M 4.570312 7.273438 "/>
<path fill-rule="nonzero" fill="rgb(0%, 32.156863%, 70.588235%)" fill-opacity="1" d="M 20 0 L 20 18.183594 L 0.0820312 18.183594 C 1 7.988281 9.566406 0 20 0 Z M 20 0 "/>
<path fill-rule="nonzero" fill="rgb(93.333333%, 93.333333%, 93.333333%)" fill-opacity="1" d="M 11.25 4.566406 L 12.546875 8.554688 L 16.742188 8.554688 L 13.347656 11.023438 L 14.644531 15.011719 L 11.25 12.546875 L 7.855469 15.011719 L 9.152344 11.023438 L 5.757812 8.554688 L 9.953125 8.554688 Z M 11.25 4.566406 "/>
</svg>
