<?xml version="1.0" encoding="UTF-8"?>
<svg xmlns="http://www.w3.org/2000/svg" xmlns:xlink="http://www.w3.org/1999/xlink" width="60" height="60" viewBox="0 0 60 60">
<path fill-rule="nonzero" fill="rgb(93.333333%, 93.333333%, 93.333333%)" fill-opacity="1" d="M 30 0 C 36.421875 0 42.375 2.019531 47.257812 5.457031 L 53.144531 10.910156 C 54.527344 12.585938 55.730469 14.414062 56.730469 16.367188 L 58.871094 21.816406 C 59.367188 23.574219 59.710938 25.398438 59.878906 27.273438 L 59.878906 32.722656 C 59.710938 34.597656 59.367188 36.421875 58.871094 38.179688 L 56.730469 43.632812 C 55.730469 45.585938 54.527344 47.414062 53.144531 49.089844 L 47.253906 54.546875 C 42.375 57.980469 36.421875 60 30 60 C 23.578125 60 17.628906 57.980469 12.746094 54.546875 L 6.855469 49.089844 C 5.472656 47.414062 4.265625 45.585938 3.269531 43.632812 L 1.128906 38.179688 C 0.632812 36.421875 0.289062 34.597656 0.121094 32.722656 L 0.121094 27.273438 C 0.289062 25.398438 0.632812 23.574219 1.128906 21.816406 L 3.269531 16.367188 C 4.265625 14.414062 5.472656 12.585938 6.855469 10.910156 L 12.742188 5.457031 C 17.625 2.019531 23.574219 0 30 0 Z M 30 0 "/>
<path fill-rule="nonzero" fill="rgb(84.705882%, 0%, 15.294118%)" fill-opacity="1" d="M 59.878906 32.722656 C 59.957031 31.84375 60 30.957031 60 30.058594 L 60 29.941406 C 60 29.042969 59.957031 28.152344 59.878906 27.273438 L 0.121094 27.273438 C 0.0429688 28.171875 0 29.082031 0 30 C 0 30.917969 0.0429688 31.828125 0.121094 32.722656 Z M 59.878906 32.722656 "/>
<path fill-rule="nonzero" fill="rgb(84.705882%, 0%, 15.294118%)" fill-opacity="1" d="M 58.871094 38.179688 L 1.128906 38.179688 C 1.667969 40.082031 2.386719 41.90625 3.269531 43.632812 L 56.730469 43.632812 C 57.613281 41.90625 58.332031 40.082031 58.871094 38.179688 Z M 58.871094 38.179688 "/>
<path fill-rule="nonzero" fill="rgb(84.705882%, 0%, 15.294118%)" fill-opacity="1" d="M 53.144531 49.089844 L 6.859375 49.089844 C 8.566406 51.160156 10.546875 52.996094 12.746094 54.546875 L 47.253906 54.546875 C 49.453125 52.996094 51.433594 51.160156 53.144531 49.089844 Z M 53.144531 49.089844 "/>
<path fill-rule="nonzero" fill="rgb(84.705882%, 0%, 15.294118%)" fill-opacity="1" d="M 1.128906 21.816406 L 58.871094 21.816406 C 58.332031 19.917969 57.613281 18.09375 56.730469 16.367188 L 3.269531 16.367188 C 2.386719 18.09375 1.667969 19.917969 1.128906 21.816406 Z M 1.128906 21.816406 "/>
<path fill-rule="nonzero" fill="rgb(84.705882%, 0%, 15.294118%)" fill-opacity="1" d="M 6.855469 10.910156 L 53.144531 10.910156 C 51.433594 8.839844 49.453125 7.003906 47.253906 5.457031 L 12.742188 5.457031 C 10.546875 7.003906 8.566406 8.839844 6.855469 10.910156 Z M 6.855469 10.910156 "/>
<path fill-rule="nonzero" fill="rgb(0%, 32.156863%, 70.588235%)" fill-opacity="1" d="M 30 0 L 30 27.273438 L 0.121094 27.273438 C 1.5 11.984375 14.351562 0 30 0 Z M 30 0 "/>
<path fill-rule="nonzero" fill="rgb(93.333333%, 93.333333%, 93.333333%)" fill-opacity="1" d="M 16.875 6.847656 L 18.820312 12.835938 L 25.113281 12.835938 L 20.023438 16.535156 L 21.964844 22.519531 L 16.875 18.820312 L 11.785156 22.519531 L 13.726562 16.535156 L 8.636719 12.835938 L 14.929688 12.835938 Z M 16.875 6.847656 "/>
</svg>
