<?xml version="1.0" encoding="UTF-8"?>
<svg xmlns="http://www.w3.org/2000/svg" xmlns:xlink="http://www.w3.org/1999/xlink" width="20" height="20" viewBox="0 0 20 20">
<path fill-rule="nonzero" fill="rgb(93.333333%, 93.333333%, 93.333333%)" fill-opacity="1" d="M 10 0 C 12.140625 0 14.125 0.671875 15.75 1.820312 L 17.714844 3.636719 C 18.175781 4.195312 18.578125 4.804688 18.910156 5.457031 L 19.625 7.273438 C 19.789062 7.859375 19.902344 8.464844 19.960938 9.089844 L 19.960938 10.90625 C 19.902344 11.53125 19.789062 12.140625 19.625 12.726562 L 18.910156 14.542969 C 18.578125 15.195312 18.175781 15.804688 17.714844 16.363281 L 15.75 18.183594 C 14.125 19.328125 12.140625 20 10 20 C 7.859375 20 5.875 19.328125 4.25 18.183594 L 2.285156 16.363281 C 1.824219 15.804688 1.421875 15.195312 1.089844 14.542969 L 0.375 12.726562 C 0.210938 12.140625 0.0976562 11.53125 0.0390625 10.90625 L 0.0390625 9.089844 C 0.0976562 8.464844 0.210938 7.859375 0.375 7.273438 L 1.089844 5.457031 C 1.421875 4.804688 1.824219 4.195312 2.285156 3.636719 L 4.246094 1.820312 C 5.875 0.671875 7.859375 0 10 0 Z M 10 0 "/>
<path fill-rule="nonzero" fill="rgb(84.705882%, 0%, 15.294118%)" fill-opacity="1" d="M 19.960938 10.90625 C 19.984375 10.613281 20 10.320312 20 10.019531 L 20 9.980469 C 20 9.679688 19.984375 9.382812 19.960938 9.089844 L 0.0390625 9.089844 C 0.015625 9.390625 0 9.695312 0 10 C 0 10.304688 0.015625 10.609375 0.0390625 10.90625 Z M 19.960938 10.90625 "/>
<path fill-rule="nonzero" fill="rgb(84.705882%, 0%, 15.294118%)" fill-opacity="1" d="M 19.625 12.726562 L 0.375 12.726562 C 0.554688 13.359375 0.796875 13.96875 1.089844 14.542969 L 18.910156 14.542969 C 19.203125 13.96875 19.445312 13.359375 19.625 12.726562 Z M 19.625 12.726562 "/>
<path fill-rule="nonzero" fill="rgb(84.705882%, 0%, 15.294118%)" fill-opacity="1" d="M 17.714844 16.363281 L 2.285156 16.363281 C 2.855469 17.054688 3.515625 17.664062 4.25 18.183594 L 15.75 18.183594 C 16.484375 17.664062 17.144531 17.054688 17.714844 16.363281 Z M 17.714844 16.363281 "/>
<path fill-rule="nonzero" fill="rgb(84.705882%, 0%, 15.294118%)" fill-opacity="1" d="M 0.375 7.273438 L 19.625 7.273438 C 19.445312 6.640625 19.203125 6.03125 18.910156 5.457031 L 1.089844 5.457031 C 0.796875 6.03125 0.554688 6.640625 0.375 7.273438 Z M 0.375 7.273438 "/>
<path fill-rule="nonzero" fill="rgb(84.705882%, 0%, 15.294118%)" fill-opacity="1" d="M 2.285156 3.636719 L 17.714844 3.636719 C 17.144531 2.945312 16.484375 2.335938 15.75 1.820312 L 4.246094 1.820312 C 3.515625 2.335938 2.855469 2.945312 2.285156 3.636719 Z M 2.285156 3.636719 "/>
<path fill-rule="nonzero" fill="rgb(0%, 32.156863%, 70.588235%)" fill-opacity="1" d="M 10 0 L 10 9.089844 L 0.0390625 9.089844 C 0.5 3.992188 4.785156 0 10 0 Z M 10 0 "/>
<path fill-rule="nonzero" fill="rgb(93.333333%, 93.333333%, 93.333333%)" fill-opacity="1" d="M 5.625 2.28125 L 6.273438 4.277344 L 8.371094 4.277344 L 6.675781 5.511719 L 7.320312 7.507812 L 5.625 6.273438 L 3.929688 7.507812 L 4.574219 5.511719 L 2.878906 4.277344 L 4.976562 4.277344 Z M 5.625 2.28125 "/>
</svg>
