<?xml version="1.0" encoding="UTF-8"?>
<svg xmlns="http://www.w3.org/2000/svg" xmlns:xlink="http://www.w3.org/1999/xlink" width="60" height="60" viewBox="0 0 60 60">
<path fill-rule="nonzero" fill="rgb(20%, 54.117647%, 95.294118%)" fill-opacity="1" d="M 60 30 C 60 46.570312 46.570312 60 30 60 C 13.429688 60 0 46.570312 0 30 C 0 13.429688 13.429688 0 30 0 C 46.570312 0 60 13.429688 60 30 Z M 60 30 "/>
<path fill-rule="nonzero" fill="rgb(93.333333%, 93.333333%, 93.333333%)" fill-opacity="1" d="M 30 13.042969 L 31.296875 17.027344 L 35.484375 17.027344 L 32.09375 19.492188 L 33.390625 23.476562 L 30 21.015625 L 26.609375 23.476562 L 27.90625 19.492188 L 24.515625 17.027344 L 28.707031 17.027344 Z M 30 13.042969 "/>
<path fill-rule="nonzero" fill="rgb(93.333333%, 93.333333%, 93.333333%)" fill-opacity="1" d="M 13.042969 30 L 17.027344 28.703125 L 17.027344 24.515625 L 19.492188 27.90625 L 23.476562 26.609375 L 21.015625 30 L 23.476562 33.390625 L 19.492188 32.09375 L 17.027344 35.484375 L 17.027344 31.292969 Z M 13.042969 30 "/>
<path fill-rule="nonzero" fill="rgb(93.333333%, 93.333333%, 93.333333%)" fill-opacity="1" d="M 30 46.957031 L 28.703125 42.972656 L 24.515625 42.972656 L 27.90625 40.507812 L 26.609375 36.523438 L 30 38.984375 L 33.390625 36.523438 L 32.09375 40.507812 L 35.484375 42.972656 L 31.292969 42.972656 Z M 30 46.957031 "/>
<path fill-rule="nonzero" fill="rgb(93.333333%, 93.333333%, 93.333333%)" fill-opacity="1" d="M 46.957031 30 L 42.972656 31.296875 L 42.972656 35.484375 L 40.507812 32.09375 L 36.523438 33.390625 L 38.984375 30 L 36.523438 26.609375 L 40.507812 27.90625 L 42.972656 24.515625 L 42.972656 28.703125 Z M 46.957031 30 "/>
</svg>
