<?xml version="1.0" encoding="UTF-8"?>
<svg xmlns="http://www.w3.org/2000/svg" xmlns:xlink="http://www.w3.org/1999/xlink" width="40" height="40" viewBox="0 0 40 40">
<path fill-rule="nonzero" fill="rgb(20%, 54.117647%, 95.294118%)" fill-opacity="1" d="M 40 20 C 40 31.046875 31.046875 40 20 40 C 8.953125 40 0 31.046875 0 20 C 0 8.953125 8.953125 0 20 0 C 31.046875 0 40 8.953125 40 20 Z M 40 20 "/>
<path fill-rule="nonzero" fill="rgb(93.333333%, 93.333333%, 93.333333%)" fill-opacity="1" d="M 20 8.695312 L 20.863281 11.351562 L 23.65625 11.351562 L 21.398438 12.996094 L 22.261719 15.652344 L 20 14.007812 L 17.738281 15.652344 L 18.601562 12.996094 L 16.34375 11.351562 L 19.136719 11.351562 Z M 20 8.695312 "/>
<path fill-rule="nonzero" fill="rgb(93.333333%, 93.333333%, 93.333333%)" fill-opacity="1" d="M 8.695312 20 L 11.351562 19.136719 L 11.351562 16.34375 L 12.996094 18.601562 L 15.652344 17.738281 L 14.007812 20 L 15.652344 22.261719 L 12.996094 21.398438 L 11.351562 23.65625 L 11.351562 20.863281 Z M 8.695312 20 "/>
<path fill-rule="nonzero" fill="rgb(93.333333%, 93.333333%, 93.333333%)" fill-opacity="1" d="M 20 31.304688 L 19.136719 28.648438 L 16.34375 28.648438 L 18.601562 27.003906 L 17.738281 24.347656 L 20 25.992188 L 22.261719 24.347656 L 21.398438 27.003906 L 23.65625 28.648438 L 20.863281 28.648438 Z M 20 31.304688 "/>
<path fill-rule="nonzero" fill="rgb(93.333333%, 93.333333%, 93.333333%)" fill-opacity="1" d="M 31.304688 20 L 28.648438 20.863281 L 28.648438 23.65625 L 27.003906 21.398438 L 24.347656 22.261719 L 25.992188 20 L 24.347656 17.738281 L 27.003906 18.601562 L 28.648438 16.34375 L 28.648438 19.136719 Z M 31.304688 20 "/>
</svg>
