<?xml version="1.0" encoding="UTF-8"?>
<svg xmlns="http://www.w3.org/2000/svg" xmlns:xlink="http://www.w3.org/1999/xlink" width="20" height="20" viewBox="0 0 20 20">
<path fill-rule="nonzero" fill="rgb(20%, 54.117647%, 95.294118%)" fill-opacity="1" d="M 20 10 C 20 15.523438 15.523438 20 10 20 C 4.476562 20 0 15.523438 0 10 C 0 4.476562 4.476562 0 10 0 C 15.523438 0 20 4.476562 20 10 Z M 20 10 "/>
<path fill-rule="nonzero" fill="rgb(93.333333%, 93.333333%, 93.333333%)" fill-opacity="1" d="M 10 4.347656 L 10.429688 5.675781 L 11.828125 5.675781 L 10.699219 6.496094 L 11.128906 7.824219 L 10 7.003906 L 8.871094 7.824219 L 9.300781 6.496094 L 8.171875 5.675781 L 9.570312 5.675781 Z M 10 4.347656 "/>
<path fill-rule="nonzero" fill="rgb(93.333333%, 93.333333%, 93.333333%)" fill-opacity="1" d="M 4.347656 10 L 5.675781 9.566406 L 5.675781 8.171875 L 6.496094 9.300781 L 7.824219 8.871094 L 7.003906 10 L 7.824219 11.128906 L 6.496094 10.699219 L 5.675781 11.828125 L 5.675781 10.429688 Z M 4.347656 10 "/>
<path fill-rule="nonzero" fill="rgb(93.333333%, 93.333333%, 93.333333%)" fill-opacity="1" d="M 10 15.652344 L 9.566406 14.324219 L 8.171875 14.324219 L 9.300781 13.503906 L 8.871094 12.175781 L 10 12.996094 L 11.128906 12.175781 L 10.699219 13.503906 L 11.828125 14.324219 L 10.429688 14.324219 Z M 10 15.652344 "/>
<path fill-rule="nonzero" fill="rgb(93.333333%, 93.333333%, 93.333333%)" fill-opacity="1" d="M 15.652344 10 L 14.324219 10.433594 L 14.324219 11.828125 L 13.503906 10.699219 L 12.175781 11.128906 L 12.996094 10 L 12.175781 8.871094 L 13.503906 9.300781 L 14.324219 8.171875 L 14.324219 9.566406 Z M 15.652344 10 "/>
</svg>
