<?xml version="1.0" encoding="UTF-8"?>
<svg xmlns="http://www.w3.org/2000/svg" xmlns:xlink="http://www.w3.org/1999/xlink" width="60" height="60" viewBox="0 0 60 60">
<path fill-rule="nonzero" fill="rgb(63.529412%, 0%, 11.372549%)" fill-opacity="1" d="M 56.507812 44.0625 C 58.738281 39.867188 60 35.082031 60 30 C 60 24.917969 58.738281 20.132812 56.507812 15.9375 L 3.492188 15.9375 C 1.261719 20.132812 0 24.917969 0 30 C 0 35.082031 1.261719 39.867188 3.492188 44.0625 Z M 56.507812 44.0625 "/>
<path fill-rule="nonzero" fill="rgb(28.627451%, 43.137255%, 17.647059%)" fill-opacity="1" d="M 58.179688 40.3125 C 53.976562 51.800781 42.945312 60 30 60 C 17.054688 60 6.023438 51.800781 1.820312 40.3125 Z M 58.179688 40.3125 "/>
<path fill-rule="nonzero" fill="rgb(20%, 20%, 20%)" fill-opacity="1" d="M 58.179688 19.6875 L 1.820312 19.6875 C 6.023438 8.199219 17.054688 0 30 0 C 42.945312 0 53.972656 8.199219 58.179688 19.6875 Z M 58.179688 19.6875 "/>
<path fill-rule="evenodd" fill="rgb(93.333333%, 93.333333%, 93.333333%)" fill-opacity="1" d="M 57.820312 18.75 C 58.308594 19.960938 58.722656 21.214844 59.054688 22.5 L 0.945312 22.5 C 1.277344 21.214844 1.691406 19.960938 2.179688 18.75 Z M 57.820312 41.25 C 58.308594 40.039062 58.722656 38.785156 59.054688 37.5 L 0.945312 37.5 C 1.277344 38.785156 1.691406 40.039062 2.179688 41.25 Z M 57.820312 41.25 "/>
<path fill-rule="nonzero" fill="rgb(93.333333%, 93.333333%, 93.333333%)" fill-opacity="1" d="M 39.34375 13.863281 L 35.789062 12.222656 L 30 25.332031 L 24.210938 12.222656 L 20.660156 13.863281 L 27.847656 30 L 20.660156 46.136719 L 24.210938 47.777344 L 30 34.667969 L 35.789062 47.777344 L 39.34375 46.136719 L 32.15625 30 Z M 39.34375 13.863281 "/>
<path fill-rule="nonzero" fill="rgb(93.333333%, 93.333333%, 93.333333%)" fill-opacity="1" d="M 32.414062 15.410156 C 31.039062 13.90625 30 13.042969 30 13.042969 C 30 13.042969 28.960938 13.90625 27.585938 15.410156 L 27.585938 44.589844 C 28.960938 46.09375 30 46.957031 30 46.957031 C 30 46.957031 31.039062 46.09375 32.414062 44.589844 Z M 32.414062 15.410156 "/>
<path fill-rule="nonzero" fill="rgb(63.529412%, 0%, 11.372549%)" fill-opacity="1" d="M 23.476562 21.003906 L 23.476562 38.992188 C 24.933594 41.570312 26.710938 43.679688 28.042969 45.078125 L 28.042969 14.917969 C 26.710938 16.316406 24.933594 18.429688 23.476562 21.003906 Z M 23.476562 21.003906 "/>
<path fill-rule="nonzero" fill="rgb(63.529412%, 0%, 11.372549%)" fill-opacity="1" d="M 36.523438 21.003906 C 35.066406 18.429688 33.289062 16.320312 31.957031 14.917969 L 31.957031 45.078125 C 33.289062 43.679688 35.066406 41.570312 36.523438 38.996094 Z M 36.523438 21.003906 "/>
<path fill-rule="nonzero" fill="rgb(20%, 20%, 20%)" fill-opacity="1" d="M 36.523438 21.003906 L 36.523438 38.992188 C 37.992188 36.386719 39.128906 33.304688 39.128906 30 C 39.128906 26.695312 37.992188 23.613281 36.523438 21.003906 Z M 36.523438 21.003906 "/>
<path fill-rule="nonzero" fill="rgb(20%, 20%, 20%)" fill-opacity="1" d="M 23.476562 21.003906 L 23.476562 38.992188 C 22.007812 36.386719 20.871094 33.304688 20.871094 30 C 20.871094 26.695312 22.007812 23.613281 23.476562 21.003906 Z M 23.476562 21.003906 "/>
</svg>
