<?xml version="1.0" encoding="UTF-8"?>
<svg xmlns="http://www.w3.org/2000/svg" xmlns:xlink="http://www.w3.org/1999/xlink" width="40" height="40" viewBox="0 0 40 40">
<path fill-rule="nonzero" fill="rgb(63.529412%, 0%, 11.372549%)" fill-opacity="1" d="M 37.671875 29.375 C 39.15625 26.578125 40 23.386719 40 20 C 40 16.613281 39.15625 13.421875 37.671875 10.625 L 2.328125 10.625 C 0.84375 13.421875 0 16.613281 0 20 C 0 23.386719 0.84375 26.578125 2.328125 29.375 Z M 37.671875 29.375 "/>
<path fill-rule="nonzero" fill="rgb(28.627451%, 43.137255%, 17.647059%)" fill-opacity="1" d="M 38.785156 26.875 C 35.984375 34.535156 28.628906 40 20 40 C 11.371094 40 4.015625 34.535156 1.214844 26.875 L 38.789062 26.875 Z M 38.785156 26.875 "/>
<path fill-rule="nonzero" fill="rgb(20%, 20%, 20%)" fill-opacity="1" d="M 38.785156 13.125 L 1.210938 13.125 C 4.015625 5.464844 11.371094 0 20 0 C 28.628906 0 35.984375 5.464844 38.785156 13.125 Z M 38.785156 13.125 "/>
<path fill-rule="evenodd" fill="rgb(93.333333%, 93.333333%, 93.333333%)" fill-opacity="1" d="M 38.546875 12.5 C 38.875 13.308594 39.148438 14.144531 39.371094 15 L 0.628906 15 C 0.851562 14.144531 1.125 13.308594 1.453125 12.5 Z M 38.546875 27.5 C 38.875 26.691406 39.148438 25.855469 39.371094 25 L 0.628906 25 C 0.851562 25.855469 1.125 26.691406 1.453125 27.5 Z M 38.546875 27.5 "/>
<path fill-rule="nonzero" fill="rgb(93.333333%, 93.333333%, 93.333333%)" fill-opacity="1" d="M 26.226562 9.242188 L 23.859375 8.148438 L 20 16.886719 L 16.140625 8.148438 L 13.773438 9.242188 L 18.5625 20 L 13.773438 30.757812 L 16.140625 31.851562 L 20 23.113281 L 23.859375 31.851562 L 26.226562 30.757812 L 21.4375 20 Z M 26.226562 9.242188 "/>
<path fill-rule="nonzero" fill="rgb(93.333333%, 93.333333%, 93.333333%)" fill-opacity="1" d="M 21.609375 10.273438 C 20.691406 9.269531 20 8.695312 20 8.695312 C 20 8.695312 19.308594 9.269531 18.390625 10.273438 L 18.390625 29.726562 C 19.308594 30.730469 20 31.304688 20 31.304688 C 20 31.304688 20.691406 30.730469 21.609375 29.726562 Z M 21.609375 10.273438 "/>
<path fill-rule="nonzero" fill="rgb(63.529412%, 0%, 11.372549%)" fill-opacity="1" d="M 15.652344 14.003906 L 15.652344 25.996094 C 16.621094 27.710938 17.808594 29.121094 18.695312 30.054688 L 18.695312 9.945312 C 17.808594 10.878906 16.621094 12.285156 15.652344 14.003906 Z M 15.652344 14.003906 "/>
<path fill-rule="nonzero" fill="rgb(63.529412%, 0%, 11.372549%)" fill-opacity="1" d="M 24.347656 14.003906 C 23.378906 12.285156 22.191406 10.878906 21.304688 9.945312 L 21.304688 30.054688 C 22.191406 29.121094 23.378906 27.714844 24.347656 25.996094 Z M 24.347656 14.003906 "/>
<path fill-rule="nonzero" fill="rgb(20%, 20%, 20%)" fill-opacity="1" d="M 24.347656 14.003906 L 24.347656 25.996094 C 25.328125 24.257812 26.085938 22.203125 26.085938 20 C 26.085938 17.796875 25.328125 15.742188 24.347656 14.003906 Z M 24.347656 14.003906 "/>
<path fill-rule="nonzero" fill="rgb(20%, 20%, 20%)" fill-opacity="1" d="M 15.652344 14.003906 L 15.652344 25.996094 C 14.671875 24.257812 13.914062 22.203125 13.914062 20 C 13.914062 17.796875 14.671875 15.742188 15.652344 14.003906 Z M 15.652344 14.003906 "/>
</svg>
