<?xml version="1.0" encoding="UTF-8"?>
<svg xmlns="http://www.w3.org/2000/svg" xmlns:xlink="http://www.w3.org/1999/xlink" width="20" height="20" viewBox="0 0 20 20">
<path fill-rule="nonzero" fill="rgb(63.529412%, 0%, 11.372549%)" fill-opacity="1" d="M 18.835938 14.6875 C 19.578125 13.289062 20 11.695312 20 10 C 20 8.304688 19.578125 6.710938 18.835938 5.3125 L 1.164062 5.3125 C 0.421875 6.710938 0 8.304688 0 10 C 0 11.695312 0.421875 13.289062 1.164062 14.6875 Z M 18.835938 14.6875 "/>
<path fill-rule="nonzero" fill="rgb(28.627451%, 43.137255%, 17.647059%)" fill-opacity="1" d="M 19.394531 13.4375 C 17.992188 17.265625 14.316406 20 10 20 C 5.683594 20 2.007812 17.265625 0.605469 13.4375 Z M 19.394531 13.4375 "/>
<path fill-rule="nonzero" fill="rgb(20%, 20%, 20%)" fill-opacity="1" d="M 19.394531 6.5625 L 0.605469 6.5625 C 2.007812 2.734375 5.683594 0 10 0 C 14.316406 0 17.992188 2.734375 19.394531 6.5625 Z M 19.394531 6.5625 "/>
<path fill-rule="evenodd" fill="rgb(93.333333%, 93.333333%, 93.333333%)" fill-opacity="1" d="M 19.273438 6.25 C 19.4375 6.652344 19.574219 7.070312 19.683594 7.5 L 0.316406 7.5 C 0.425781 7.070312 0.5625 6.652344 0.726562 6.25 Z M 19.273438 13.75 C 19.4375 13.347656 19.574219 12.929688 19.683594 12.5 L 0.316406 12.5 C 0.425781 12.929688 0.5625 13.347656 0.726562 13.75 Z M 19.273438 13.75 "/>
<path fill-rule="nonzero" fill="rgb(93.333333%, 93.333333%, 93.333333%)" fill-opacity="1" d="M 13.113281 4.621094 L 11.929688 4.074219 L 10 8.445312 L 8.070312 4.074219 L 6.886719 4.621094 L 9.28125 10 L 6.886719 15.378906 L 8.070312 15.925781 L 10 11.554688 L 11.929688 15.925781 L 13.113281 15.378906 L 10.71875 10 Z M 13.113281 4.621094 "/>
<path fill-rule="nonzero" fill="rgb(93.333333%, 93.333333%, 93.333333%)" fill-opacity="1" d="M 10.804688 5.136719 C 10.347656 4.636719 10 4.347656 10 4.347656 C 10 4.347656 9.652344 4.636719 9.195312 5.136719 L 9.195312 14.863281 C 9.652344 15.363281 10 15.652344 10 15.652344 C 10 15.652344 10.347656 15.363281 10.804688 14.863281 Z M 10.804688 5.136719 "/>
<path fill-rule="nonzero" fill="rgb(63.529412%, 0%, 11.372549%)" fill-opacity="1" d="M 7.828125 7 L 7.828125 13 C 8.3125 13.855469 8.902344 14.558594 9.347656 15.027344 L 9.347656 4.972656 C 8.902344 5.4375 8.3125 6.144531 7.828125 7 Z M 7.828125 7 "/>
<path fill-rule="nonzero" fill="rgb(63.529412%, 0%, 11.372549%)" fill-opacity="1" d="M 12.171875 7 C 11.6875 6.144531 11.097656 5.441406 10.652344 4.972656 L 10.652344 15.027344 C 11.097656 14.558594 11.6875 13.855469 12.171875 13 Z M 12.171875 7 "/>
<path fill-rule="nonzero" fill="rgb(20%, 20%, 20%)" fill-opacity="1" d="M 12.171875 7 L 12.171875 13 C 12.664062 12.128906 13.042969 11.101562 13.042969 10 C 13.042969 8.898438 12.664062 7.871094 12.171875 7 Z M 12.171875 7 "/>
<path fill-rule="nonzero" fill="rgb(20%, 20%, 20%)" fill-opacity="1" d="M 7.828125 7 L 7.828125 13 C 7.335938 12.128906 6.957031 11.101562 6.957031 10 C 6.957031 8.898438 7.335938 7.871094 7.828125 7 Z M 7.828125 7 "/>
</svg>
