<?xml version="1.0" encoding="UTF-8"?>
<svg xmlns="http://www.w3.org/2000/svg" xmlns:xlink="http://www.w3.org/1999/xlink" width="60" height="60" viewBox="0 0 60 60">
<path fill-rule="nonzero" fill="rgb(100%, 85.490196%, 26.666667%)" fill-opacity="1" d="M 8.785156 8.789062 L 26.25 33.75 L 51.210938 51.214844 C 56.640625 45.785156 60 38.285156 60 30 C 60 13.542969 46.75 0.179688 30.335938 0.00390625 L 29.664062 0.00390625 C 21.511719 0.0898438 14.140625 3.429688 8.785156 8.789062 Z M 8.785156 8.789062 "/>
<path fill-rule="nonzero" fill="rgb(0%, 32.156863%, 70.588235%)" fill-opacity="1" d="M 8.785156 8.789062 L 51.210938 51.214844 C 45.785156 56.640625 38.285156 60 30 60 C 13.433594 60 0.0078125 46.574219 0 30.011719 C 0 30.007812 0 30.003906 0 30 C 0 29.996094 0 29.992188 0 29.988281 C 0.00390625 21.710938 3.359375 14.214844 8.785156 8.789062 Z M 8.785156 8.789062 "/>
<path fill-rule="evenodd" fill="rgb(93.333333%, 93.333333%, 93.333333%)" fill-opacity="1" d="M 1.476562 20.675781 C 2.253906 18.296875 3.320312 16.046875 4.636719 13.972656 L 5.011719 15.136719 L 9.101562 15.136719 L 5.792969 17.539062 L 7.054688 21.425781 L 3.75 19.023438 Z M 42.371094 57.339844 C 42.859375 57.117188 43.339844 56.882812 43.8125 56.636719 L 43.292969 55.039062 L 46.601562 52.636719 L 42.511719 52.636719 L 41.25 48.75 L 39.988281 52.636719 L 35.898438 52.636719 L 39.207031 55.039062 L 37.945312 58.925781 L 41.25 56.523438 Z M 11.25 18.75 L 12.511719 22.636719 L 16.601562 22.636719 L 13.292969 25.039062 L 14.554688 28.925781 L 11.25 26.523438 L 7.945312 28.925781 L 9.207031 25.039062 L 5.898438 22.636719 L 9.988281 22.636719 Z M 20.011719 30.136719 L 18.75 26.25 L 17.488281 30.136719 L 13.398438 30.136719 L 16.707031 32.539062 L 15.445312 36.425781 L 18.75 34.023438 L 22.054688 36.425781 L 20.792969 32.539062 L 24.101562 30.136719 Z M 26.25 33.75 L 27.511719 37.636719 L 31.601562 37.636719 L 28.292969 40.039062 L 29.554688 43.925781 L 26.25 41.523438 L 22.945312 43.925781 L 24.207031 40.039062 L 20.898438 37.636719 L 24.988281 37.636719 Z M 35.011719 45.136719 L 33.75 41.25 L 32.488281 45.136719 L 28.398438 45.136719 L 31.707031 47.539062 L 30.445312 51.425781 L 33.75 49.023438 L 37.054688 51.425781 L 35.792969 47.539062 L 39.101562 45.136719 Z M 35.011719 45.136719 "/>
</svg>
