<?xml version="1.0" encoding="UTF-8"?>
<svg xmlns="http://www.w3.org/2000/svg" xmlns:xlink="http://www.w3.org/1999/xlink" width="20" height="20" viewBox="0 0 20 20">
<path fill-rule="nonzero" fill="rgb(100%, 85.490196%, 26.666667%)" fill-opacity="1" d="M 2.929688 2.929688 L 8.75 11.25 L 17.070312 17.070312 C 18.878906 15.261719 20 12.761719 20 10 C 20 4.515625 15.582031 0.0585938 10.113281 0 L 9.886719 0 C 7.171875 0.03125 4.714844 1.144531 2.929688 2.929688 Z M 2.929688 2.929688 "/>
<path fill-rule="nonzero" fill="rgb(0%, 32.156863%, 70.588235%)" fill-opacity="1" d="M 2.929688 2.929688 L 17.070312 17.070312 C 15.261719 18.882812 12.761719 20 10 20 C 4.476562 20 0.00390625 15.523438 0 10.003906 C 0 10.003906 0 10 0 10 C 0 10 0 9.996094 0 9.996094 C 0 7.238281 1.121094 4.738281 2.929688 2.929688 Z M 2.929688 2.929688 "/>
<path fill-rule="evenodd" fill="rgb(93.333333%, 93.333333%, 93.333333%)" fill-opacity="1" d="M 0.492188 6.890625 C 0.75 6.097656 1.105469 5.347656 1.546875 4.65625 L 1.671875 5.046875 L 3.035156 5.046875 L 1.929688 5.847656 L 2.351562 7.140625 L 1.25 6.339844 Z M 14.125 19.113281 C 14.285156 19.039062 14.445312 18.960938 14.605469 18.878906 L 14.429688 18.347656 L 15.535156 17.546875 L 14.171875 17.546875 L 13.75 16.25 L 13.328125 17.546875 L 11.964844 17.546875 L 13.070312 18.347656 L 12.648438 19.640625 L 13.75 18.839844 Z M 3.75 6.25 L 4.171875 7.546875 L 5.535156 7.546875 L 4.429688 8.347656 L 4.851562 9.640625 L 3.75 8.839844 L 2.648438 9.640625 L 3.070312 8.347656 L 1.964844 7.546875 L 3.328125 7.546875 Z M 6.671875 10.046875 L 6.25 8.75 L 5.828125 10.046875 L 4.464844 10.046875 L 5.570312 10.847656 L 5.148438 12.140625 L 6.25 11.339844 L 7.351562 12.140625 L 6.929688 10.847656 L 8.035156 10.046875 Z M 8.75 11.25 L 9.171875 12.546875 L 10.535156 12.546875 L 9.429688 13.347656 L 9.851562 14.640625 L 8.75 13.839844 L 7.648438 14.640625 L 8.070312 13.347656 L 6.964844 12.546875 L 8.328125 12.546875 Z M 11.671875 15.046875 L 11.25 13.75 L 10.828125 15.046875 L 9.464844 15.046875 L 10.570312 15.847656 L 10.148438 17.140625 L 11.25 16.339844 L 12.351562 17.140625 L 11.929688 15.847656 L 13.035156 15.046875 Z M 11.671875 15.046875 "/>
</svg>
