<?xml version="1.0" encoding="UTF-8"?>
<svg xmlns="http://www.w3.org/2000/svg" xmlns:xlink="http://www.w3.org/1999/xlink" width="40" height="40" viewBox="0 0 40 40">
<path fill-rule="nonzero" fill="rgb(100%, 85.490196%, 26.666667%)" fill-opacity="1" d="M 5.855469 5.859375 L 17.5 22.5 L 34.140625 34.144531 C 37.761719 30.523438 40 25.523438 40 20 C 40 9.027344 31.164062 0.121094 20.222656 0 L 19.777344 0 C 14.34375 0.0625 9.429688 2.289062 5.855469 5.859375 Z M 5.855469 5.859375 "/>
<path fill-rule="nonzero" fill="rgb(0%, 32.156863%, 70.588235%)" fill-opacity="1" d="M 5.855469 5.859375 L 34.140625 34.144531 C 30.523438 37.761719 25.523438 40 20 40 C 8.957031 40 0.00390625 31.050781 0 20.007812 C 0 20.003906 0 20.003906 0 20 C 0 19.996094 0 19.996094 0 19.992188 C 0.00390625 14.472656 2.238281 9.476562 5.859375 5.859375 Z M 5.855469 5.859375 "/>
<path fill-rule="evenodd" fill="rgb(93.333333%, 93.333333%, 93.333333%)" fill-opacity="1" d="M 0.984375 13.78125 C 1.503906 12.199219 2.214844 10.699219 3.089844 9.316406 L 3.34375 10.089844 L 6.066406 10.089844 L 3.863281 11.691406 L 4.703125 14.285156 L 2.5 12.683594 Z M 28.246094 38.226562 C 28.574219 38.078125 28.894531 37.921875 29.207031 37.757812 L 28.863281 36.691406 L 31.066406 35.089844 L 28.34375 35.089844 L 27.5 32.5 L 26.65625 35.089844 L 23.933594 35.089844 L 26.136719 36.691406 L 25.296875 39.285156 L 27.5 37.683594 Z M 7.5 12.5 L 8.34375 15.089844 L 11.066406 15.089844 L 8.863281 16.691406 L 9.703125 19.285156 L 7.5 17.683594 L 5.296875 19.285156 L 6.136719 16.691406 L 3.933594 15.089844 L 6.65625 15.089844 Z M 13.34375 20.089844 L 12.5 17.5 L 11.65625 20.089844 L 8.933594 20.089844 L 11.136719 21.691406 L 10.296875 24.285156 L 12.5 22.683594 L 14.703125 24.285156 L 13.863281 21.691406 L 16.066406 20.089844 Z M 17.5 22.5 L 18.34375 25.089844 L 21.066406 25.089844 L 18.863281 26.691406 L 19.703125 29.285156 L 17.5 27.683594 L 15.296875 29.285156 L 16.136719 26.691406 L 13.933594 25.089844 L 16.65625 25.089844 Z M 23.34375 30.089844 L 22.5 27.5 L 21.65625 30.089844 L 18.933594 30.089844 L 21.136719 31.691406 L 20.296875 34.285156 L 22.5 32.683594 L 24.703125 34.285156 L 23.863281 31.691406 L 26.066406 30.089844 Z M 23.34375 30.089844 "/>
</svg>
