<?xml version="1.0" encoding="UTF-8"?>
<svg width="16px" height="16px" viewBox="0 0 16 16" version="1.1" xmlns="http://www.w3.org/2000/svg" xmlns:xlink="http://www.w3.org/1999/xlink">
    <title>1892D543-EB5C-4CE2-9C85-3FF841630A2F</title>
    <g id="Connection" stroke="none" stroke-width="1" fill="none" fill-rule="evenodd">
        <g id="Connection-AndroidMob" transform="translate(-130.000000, -279.000000)" fill="#FFFFFF" fill-rule="nonzero">
            <g id="alwaysonicon" transform="translate(130.000000, 279.000000)">
                <path d="M9,16 L5,13 L9,10 L9.00076134,11.8737865 C10.7256022,11.429479 12,9.86356525 12,8 C12,7.15885794 11.7403702,6.37835566 11.2968772,5.73425972 L12.9453603,4.60145414 C13.6105727,5.56758564 14,6.73831501 14,8 C14,10.9727145 11.8381232,13.4404956 9.00080686,13.9169061 L9,16 Z M8,-1.50990331e-14 L12,3 L8,6 L8,4 C5.790861,4 4,5.790861 4,8 C4,9.18446205 4.51482318,10.2486807 5.33290985,10.9810963 L3.7672415,12.2525001 C2.67564918,11.1659437 2,9.66187502 2,8 C2,4.6862915 4.6862915,2 8,2 L8,-1.50990331e-14 Z" id="Combined-Shape"></path>
            </g>
        </g>
    </g>
</svg>