<?xml version="1.0" encoding="UTF-8"?>
<svg xmlns="http://www.w3.org/2000/svg" xmlns:xlink="http://www.w3.org/1999/xlink" width="1242px" height="621px" viewBox="0 0 1242 621" version="1.1">
<g id="surface1">
<path style=" stroke:none;fill-rule:evenodd;fill:rgb(69.803923%,0%,0%);fill-opacity:1;" d="M -21.414062 -7.054688 L 1906.03125 -7.054688 L 1906.03125 414.824219 L -21.414062 414.824219 Z M -21.414062 -7.054688 "/>
<path style=" stroke:none;fill-rule:evenodd;fill:rgb(25.882354%,62.352943%,0%);fill-opacity:1;" d="M -21.414062 414.824219 L 1906.03125 414.824219 L 1906.03125 628.054688 L -21.414062 628.054688 Z M -21.414062 414.824219 "/>
<path style=" stroke:none;fill-rule:evenodd;fill:rgb(100%,100%,100%);fill-opacity:1;" d="M -21.414062 -7.054688 L 192.035156 -7.054688 L 192.035156 628.058594 L -21.414062 628.058594 Z M -21.414062 -7.054688 "/>
<path style=" stroke:none;fill-rule:evenodd;fill:rgb(69.803923%,0%,0%);fill-opacity:1;" d="M -11.257812 3.738281 L -1.09375 3.738281 L -1.09375 14.527344 L -11.257812 14.527344 Z M 19.234375 3.738281 L 49.726562 3.738281 L 49.726562 14.527344 L 19.234375 14.527344 Z M 29.398438 -7.054688 L 39.5625 -7.054688 L 39.5625 3.738281 L 29.398438 3.738281 Z M 80.222656 -7.054688 L 90.386719 -7.054688 L 90.386719 3.738281 L 80.222656 3.738281 Z M 120.878906 3.738281 L 151.371094 3.738281 L 151.371094 14.527344 L 120.878906 14.527344 Z M 131.042969 -7.054688 L 141.207031 -7.054688 L 141.207031 3.738281 L 131.042969 3.738281 Z M 9.070312 14.527344 L 29.398438 14.527344 L 29.398438 25.195312 L 9.070312 25.195312 Z M 39.5625 14.527344 L 59.894531 14.527344 L 59.894531 25.195312 L 39.5625 25.195312 Z M 110.714844 14.527344 L 131.042969 14.527344 L 131.042969 25.195312 L 110.714844 25.195312 Z M 141.207031 14.527344 L 161.535156 14.527344 L 161.535156 25.195312 L 141.207031 25.195312 Z M -1.09375 25.195312 L 19.234375 25.195312 L 19.234375 35.988281 L -1.09375 35.988281 Z M 49.726562 25.195312 L 70.058594 25.195312 L 70.058594 35.988281 L 49.726562 35.988281 Z M 100.550781 25.195312 L 120.878906 25.195312 L 120.878906 35.988281 L 100.550781 35.988281 Z M 151.371094 25.195312 L 171.699219 25.195312 L 171.699219 35.988281 L 151.371094 35.988281 Z M 171.699219 3.738281 L 181.863281 3.738281 L 181.863281 14.527344 L 171.699219 14.527344 Z M -11.257812 35.988281 L 9.070312 35.988281 L 9.070312 46.78125 L -11.257812 46.78125 Z M 59.894531 35.988281 L 80.222656 35.988281 L 80.222656 46.78125 L 59.894531 46.78125 Z M 161.535156 35.988281 L 181.863281 35.988281 L 181.863281 46.78125 L 161.535156 46.78125 Z M -1.09375 68.242188 L 19.234375 68.242188 L 19.234375 79.03125 L -1.09375 79.03125 Z M 9.070312 79.03125 L 29.398438 79.03125 L 29.398438 89.824219 L 9.070312 89.824219 Z M 49.726562 68.363281 L 70.058594 68.363281 L 70.058594 79.03125 L 49.726562 79.03125 Z M 39.5625 79.03125 L 59.894531 79.03125 L 59.894531 89.824219 L 39.5625 89.824219 Z M 19.234375 89.824219 L 49.726562 89.824219 L 49.726562 100.617188 L 19.234375 100.617188 Z M 19.234375 89.824219 "/>
<path style=" stroke:none;fill-rule:evenodd;fill:rgb(69.803923%,0%,0%);fill-opacity:1;" d="M 29.40625 100.617188 L 39.570312 100.617188 L 39.570312 111.410156 L 29.40625 111.410156 Z M 100.554688 68.367188 L 120.882812 68.367188 L 120.882812 79.035156 L 100.554688 79.035156 Z M 110.71875 79.035156 L 131.050781 79.035156 L 131.050781 89.828125 L 110.71875 89.828125 Z M 151.378906 68.367188 L 171.707031 68.367188 L 171.707031 79.035156 L 151.378906 79.035156 Z M 141.214844 79.035156 L 161.542969 79.035156 L 161.542969 89.828125 L 141.214844 89.828125 Z M 120.882812 89.828125 L 151.378906 89.828125 L 151.378906 100.617188 L 120.882812 100.617188 Z M 131.050781 100.617188 L 141.214844 100.617188 L 141.214844 111.410156 L 131.050781 111.410156 Z M 80.226562 89.703125 L 90.390625 89.703125 L 90.390625 100.496094 L 80.226562 100.496094 Z M -21.414062 89.703125 L -11.25 89.703125 L -11.25 100.496094 L -21.414062 100.496094 Z M 181.871094 89.703125 L 192.035156 89.703125 L 192.035156 100.496094 L 181.871094 100.496094 Z M 29.40625 143.539062 L 39.570312 143.539062 L 39.570312 154.332031 L 29.40625 154.332031 Z M 19.242188 154.453125 L 49.734375 154.453125 L 49.734375 165.121094 L 19.242188 165.121094 Z M 9.078125 165.121094 L 59.898438 165.121094 L 59.898438 175.914062 L 9.078125 175.914062 Z M 131.050781 143.664062 L 141.214844 143.664062 L 141.214844 154.453125 L 131.050781 154.453125 Z M 120.882812 154.453125 L 151.378906 154.453125 L 151.378906 165.121094 L 120.882812 165.121094 Z M 110.71875 165.121094 L 161.542969 165.121094 L 161.542969 175.914062 L 110.71875 175.914062 Z M 120.882812 218.957031 L 171.707031 218.957031 L 171.707031 229.75 L 120.882812 229.75 Z M 100.554688 175.914062 L 171.707031 175.914062 L 171.707031 186.707031 L 100.554688 186.707031 Z M -1.085938 175.914062 L 70.0625 175.914062 L 70.0625 186.707031 L -1.085938 186.707031 Z M 9.078125 229.75 L 39.570312 229.75 L 39.570312 240.542969 L 9.078125 240.542969 Z M -1.085938 218.957031 L 49.734375 218.957031 L 49.734375 229.75 L -1.085938 229.75 Z M 141.214844 197.621094 L 192.035156 197.621094 L 192.035156 208.414062 L 141.214844 208.414062 Z M 131.050781 229.875 L 161.542969 229.875 L 161.542969 240.667969 L 131.050781 240.667969 Z M 131.050781 229.875 "/>
<path style=" stroke:none;fill-rule:evenodd;fill:rgb(69.803923%,0%,0%);fill-opacity:1;" d="M 19.242188 240.539062 L 29.40625 240.539062 L 29.40625 251.332031 L 19.242188 251.332031 Z M 141.214844 240.539062 L 151.378906 240.539062 L 151.378906 251.332031 L 141.214844 251.332031 Z M -21.414062 197.496094 L 29.40625 197.496094 L 29.40625 208.289062 L -21.414062 208.289062 Z M 70.0625 218.957031 L 100.554688 218.957031 L 100.554688 229.746094 L 70.0625 229.746094 Z M 80.226562 229.871094 L 90.390625 229.871094 L 90.390625 240.664062 L 80.226562 240.664062 Z M 49.734375 197.621094 L 120.882812 197.621094 L 120.882812 208.414062 L 49.734375 208.414062 Z M 90.390625 35.988281 L 110.71875 35.988281 L 110.71875 46.78125 L 90.390625 46.78125 Z M 70.0625 46.78125 L 100.554688 46.78125 L 100.554688 57.574219 L 70.0625 57.574219 Z M 59.898438 57.574219 L 80.226562 57.574219 L 80.226562 68.242188 L 59.898438 68.242188 Z M 90.390625 57.574219 L 110.71875 57.574219 L 110.71875 68.242188 L 90.390625 68.242188 Z M -21.414062 46.78125 L -1.085938 46.78125 L -1.085938 57.574219 L -21.414062 57.574219 Z M -11.25 57.574219 L 9.078125 57.574219 L 9.078125 68.242188 L -11.25 68.242188 Z M 171.707031 46.78125 L 192.035156 46.78125 L 192.035156 57.449219 L 171.707031 57.449219 Z M 161.542969 57.449219 L 181.871094 57.449219 L 181.871094 68.117188 L 161.542969 68.117188 Z M -21.414062 154.203125 L -11.25 154.203125 L -11.25 164.996094 L -21.414062 164.996094 Z M 181.871094 154.203125 L 192.035156 154.203125 L 192.035156 164.996094 L 181.871094 164.996094 Z M 70.0625 240.414062 L 100.554688 240.414062 L 100.554688 251.207031 L 70.0625 251.207031 Z M 59.898438 251.207031 L 80.226562 251.207031 L 80.226562 261.875 L 59.898438 261.875 Z M 90.390625 251.207031 L 110.71875 251.207031 L 110.71875 261.875 L 90.390625 261.875 Z M 49.734375 261.875 L 70.0625 261.875 L 70.0625 272.667969 L 49.734375 272.667969 Z M 100.554688 261.875 L 120.882812 261.875 L 120.882812 272.667969 L 100.554688 272.667969 Z M 39.570312 272.667969 L 59.898438 272.667969 L 59.898438 283.460938 L 39.570312 283.460938 Z M 110.71875 272.667969 L 131.050781 272.667969 L 131.050781 283.460938 L 110.71875 283.460938 Z M 29.40625 283.582031 L 49.734375 283.582031 L 49.734375 294.375 L 29.40625 294.375 Z M 120.882812 283.582031 L 141.214844 283.582031 L 141.214844 294.375 L 120.882812 294.375 Z M 9.078125 294.375 L 39.570312 294.375 L 39.570312 305.167969 L 9.078125 305.167969 Z M 131.050781 294.375 L 161.542969 294.375 L 161.542969 305.167969 L 131.050781 305.167969 Z M 151.378906 283.582031 L 171.707031 283.582031 L 171.707031 294.375 L 151.378906 294.375 Z M 161.542969 272.792969 L 181.871094 272.792969 L 181.871094 283.582031 L 161.542969 283.582031 Z M 171.707031 262 L 192.035156 262 L 192.035156 272.792969 L 171.707031 272.792969 Z M -1.085938 283.582031 L 19.242188 283.582031 L 19.242188 294.375 L -1.085938 294.375 Z M -11.25 272.792969 L 9.078125 272.792969 L 9.078125 283.582031 L -11.25 283.582031 Z M -21.414062 262.125 L -1.085938 262.125 L -1.085938 272.914062 L -21.414062 272.914062 Z M 19.242188 305.292969 L 29.40625 305.292969 L 29.40625 315.960938 L 19.242188 315.960938 Z M 141.214844 305.292969 L 151.378906 305.292969 L 151.378906 315.960938 L 141.214844 315.960938 Z M 80.226562 273.039062 L 90.390625 273.039062 L 90.390625 283.707031 L 80.226562 283.707031 Z M 49.734375 305.292969 L 59.898438 305.292969 L 59.898438 315.960938 L 49.734375 315.960938 Z M 110.71875 305.292969 L 120.882812 305.292969 L 120.882812 315.960938 L 110.71875 315.960938 Z M 80.226562 305.292969 L 90.390625 305.292969 L 90.390625 315.960938 L 80.226562 315.960938 Z M -21.414062 305.292969 L -11.25 305.292969 L -11.25 315.960938 L -21.414062 315.960938 Z M 181.871094 305.292969 L 192.035156 305.292969 L 192.035156 315.960938 L 181.871094 315.960938 Z M 80.226562 154.453125 L 90.390625 154.453125 L 90.390625 165.121094 L 80.226562 165.121094 Z M 29.40625 46.78125 L 39.570312 46.78125 L 39.570312 57.574219 L 29.40625 57.574219 Z M 131.050781 46.78125 L 141.214844 46.78125 L 141.214844 57.574219 L 131.050781 57.574219 Z M 70.0625 122.078125 L 100.554688 122.078125 L 100.554688 132.867188 L 70.0625 132.867188 Z M 49.734375 132.867188 L 80.226562 132.867188 L 80.226562 143.660156 L 49.734375 143.660156 Z M 59.898438 143.660156 L 70.0625 143.660156 L 70.0625 154.453125 L 59.898438 154.453125 Z M 39.570312 122.078125 L 59.898438 122.078125 L 59.898438 132.867188 L 39.570312 132.867188 Z M 49.734375 111.410156 L 80.226562 111.410156 L 80.226562 122.078125 L 49.734375 122.078125 Z M 59.898438 100.617188 L 70.0625 100.617188 L 70.0625 111.410156 L 59.898438 111.410156 Z M 90.390625 111.410156 L 120.882812 111.410156 L 120.882812 122.078125 L 90.390625 122.078125 Z M 100.554688 100.617188 L 110.71875 100.617188 L 110.71875 111.410156 L 100.554688 111.410156 Z M 110.71875 122.078125 L 131.050781 122.078125 L 131.050781 132.867188 L 110.71875 132.867188 Z M 90.390625 132.867188 L 120.882812 132.867188 L 120.882812 143.660156 L 90.390625 143.660156 Z M 100.554688 143.660156 L 110.71875 143.660156 L 110.71875 154.453125 L 100.554688 154.453125 Z M 141.214844 122.078125 L 161.542969 122.078125 L 161.542969 132.867188 L 141.214844 132.867188 Z M 151.378906 111.410156 L 181.871094 111.410156 L 181.871094 122.078125 L 151.378906 122.078125 Z M 171.707031 122.078125 L 192.035156 122.078125 L 192.035156 132.867188 L 171.707031 132.867188 Z M 151.378906 132.867188 L 181.871094 132.867188 L 181.871094 143.660156 L 151.378906 143.660156 Z M 161.542969 143.660156 L 171.707031 143.660156 L 171.707031 154.453125 L 161.542969 154.453125 Z M 161.542969 100.617188 L 171.707031 100.617188 L 171.707031 111.410156 L 161.542969 111.410156 Z M -21.414062 121.953125 L -1.085938 121.953125 L -1.085938 132.746094 L -21.414062 132.746094 Z M -11.25 111.285156 L 19.242188 111.285156 L 19.242188 121.953125 L -11.25 121.953125 Z M 9.078125 121.953125 L 29.40625 121.953125 L 29.40625 132.746094 L 9.078125 132.746094 Z M -11.25 132.746094 L 19.242188 132.746094 L 19.242188 143.535156 L -11.25 143.535156 Z M -11.25 132.746094 "/>
<path style=" stroke:none;fill-rule:evenodd;fill:rgb(69.803923%,0%,0%);fill-opacity:1;" d="M -1.085938 143.660156 L 9.078125 143.660156 L 9.078125 154.453125 L -1.085938 154.453125 Z M -1.085938 100.617188 L 9.078125 100.617188 L 9.078125 111.410156 L -1.085938 111.410156 Z M -11.25 186.707031 L 29.40625 186.707031 L 29.40625 197.496094 L -11.25 197.496094 Z M 39.570312 186.707031 L 80.226562 186.707031 L 80.226562 197.496094 L 39.570312 197.496094 Z M 90.390625 186.707031 L 131.050781 186.707031 L 131.050781 197.496094 L 90.390625 197.496094 Z M 141.214844 186.707031 L 181.871094 186.707031 L 181.871094 197.496094 L 141.214844 197.496094 Z M 59.898438 208.289062 L 110.71875 208.289062 L 110.71875 218.957031 L 59.898438 218.957031 Z M -11.25 208.289062 L 39.570312 208.289062 L 39.570312 218.957031 L -11.25 218.957031 Z M 131.050781 208.289062 L 181.871094 208.289062 L 181.871094 218.957031 L 131.050781 218.957031 Z M 181.871094 251.332031 L 192.035156 251.332031 L 192.035156 262 L 181.871094 262 Z M -21.414062 251.332031 L -11.25 251.332031 L -11.25 262 L -21.414062 262 Z M -11.25 617.265625 L -1.085938 617.265625 L -1.085938 606.601562 L -11.25 606.601562 Z M 19.242188 617.265625 L 49.734375 617.265625 L 49.734375 606.601562 L 19.242188 606.601562 Z M 29.40625 628.058594 L 39.570312 628.058594 L 39.570312 617.265625 L 29.40625 617.265625 Z M 80.226562 628.058594 L 90.390625 628.058594 L 90.390625 617.265625 L 80.226562 617.265625 Z M 120.882812 617.265625 L 151.378906 617.265625 L 151.378906 606.476562 L 120.882812 606.476562 Z M 131.050781 628.058594 L 141.214844 628.058594 L 141.214844 617.265625 L 131.050781 617.265625 Z M 9.078125 606.476562 L 29.40625 606.476562 L 29.40625 595.808594 L 9.078125 595.808594 Z M 39.570312 606.476562 L 59.898438 606.476562 L 59.898438 595.808594 L 39.570312 595.808594 Z M 110.71875 606.476562 L 131.050781 606.476562 L 131.050781 595.808594 L 110.71875 595.808594 Z M 141.214844 606.476562 L 161.542969 606.476562 L 161.542969 595.808594 L 141.214844 595.808594 Z M 49.734375 595.808594 L 70.0625 595.808594 L 70.0625 585.015625 L 49.734375 585.015625 Z M 100.554688 595.808594 L 120.882812 595.808594 L 120.882812 585.015625 L 100.554688 585.015625 Z M 151.378906 595.808594 L 171.707031 595.808594 L 171.707031 585.015625 L 151.378906 585.015625 Z M 171.707031 617.265625 L 181.871094 617.265625 L 181.871094 606.476562 L 171.707031 606.476562 Z M -11.25 585.015625 L 9.078125 585.015625 L 9.078125 574.222656 L -11.25 574.222656 Z M 59.898438 585.015625 L 80.226562 585.015625 L 80.226562 574.222656 L 59.898438 574.222656 Z M 161.542969 585.015625 L 181.871094 585.015625 L 181.871094 574.222656 L 161.542969 574.222656 Z M -1.085938 552.765625 L 19.242188 552.765625 L 19.242188 541.972656 L -1.085938 541.972656 Z M 9.078125 541.972656 L 29.40625 541.972656 L 29.40625 531.179688 L 9.078125 531.179688 Z M 49.734375 552.765625 L 70.0625 552.765625 L 70.0625 541.972656 L 49.734375 541.972656 Z M 39.570312 541.972656 L 59.898438 541.972656 L 59.898438 531.179688 L 39.570312 531.179688 Z M 19.242188 531.179688 L 49.734375 531.179688 L 49.734375 520.386719 L 19.242188 520.386719 Z M 29.40625 520.386719 L 39.570312 520.386719 L 39.570312 509.71875 L 29.40625 509.71875 Z M 100.554688 552.640625 L 120.882812 552.640625 L 120.882812 541.972656 L 100.554688 541.972656 Z M 110.71875 541.972656 L 131.050781 541.972656 L 131.050781 531.179688 L 110.71875 531.179688 Z M 151.378906 552.765625 L 171.707031 552.765625 L 171.707031 541.972656 L 151.378906 541.972656 Z M 141.214844 541.972656 L 161.542969 541.972656 L 161.542969 531.179688 L 141.214844 531.179688 Z M 120.882812 531.179688 L 151.378906 531.179688 L 151.378906 520.386719 L 120.882812 520.386719 Z M 131.050781 520.386719 L 141.214844 520.386719 L 141.214844 509.71875 L 131.050781 509.71875 Z M 80.226562 531.304688 L 90.390625 531.304688 L 90.390625 520.511719 L 80.226562 520.511719 Z M -21.414062 531.304688 L -11.25 531.304688 L -11.25 520.511719 L -21.414062 520.511719 Z M 181.871094 531.304688 L 192.035156 531.304688 L 192.035156 520.511719 L 181.871094 520.511719 Z M 29.40625 477.46875 L 39.570312 477.46875 L 39.570312 466.675781 L 29.40625 466.675781 Z M 19.242188 466.554688 L 49.734375 466.554688 L 49.734375 455.882812 L 19.242188 455.882812 Z M 9.078125 455.882812 L 59.898438 455.882812 L 59.898438 445.09375 L 9.078125 445.09375 Z M 131.050781 477.34375 L 141.214844 477.34375 L 141.214844 466.554688 L 131.050781 466.554688 Z M 131.050781 477.34375 "/>
<path style=" stroke:none;fill-rule:evenodd;fill:rgb(69.803923%,0%,0%);fill-opacity:1;" d="M 120.882812 466.550781 L 151.378906 466.550781 L 151.378906 455.878906 L 120.882812 455.878906 Z M 110.71875 455.878906 L 161.542969 455.878906 L 161.542969 445.089844 L 110.71875 445.089844 Z M 120.882812 402.046875 L 171.707031 402.046875 L 171.707031 391.128906 L 120.882812 391.128906 Z M 100.554688 445.089844 L 171.707031 445.089844 L 171.707031 434.296875 L 100.554688 434.296875 Z M -1.085938 445.089844 L 70.0625 445.089844 L 70.0625 434.296875 L -1.085938 434.296875 Z M 9.078125 391.253906 L 39.570312 391.253906 L 39.570312 380.460938 L 9.078125 380.460938 Z M -1.085938 402.046875 L 49.734375 402.046875 L 49.734375 391.128906 L -1.085938 391.128906 Z M 141.214844 423.382812 L 192.035156 423.382812 L 192.035156 412.589844 L 141.214844 412.589844 Z M 131.050781 391.128906 L 161.542969 391.128906 L 161.542969 380.335938 L 131.050781 380.335938 Z M -21.414062 423.382812 L 29.40625 423.382812 L 29.40625 412.589844 L -21.414062 412.589844 Z M 70.0625 401.921875 L 100.554688 401.921875 L 100.554688 391.128906 L 70.0625 391.128906 Z M 80.226562 391.128906 L 90.390625 391.128906 L 90.390625 380.335938 L 80.226562 380.335938 Z M 49.734375 423.382812 L 120.882812 423.382812 L 120.882812 412.589844 L 49.734375 412.589844 Z M 90.390625 584.890625 L 110.71875 584.890625 L 110.71875 574.09375 L 90.390625 574.09375 Z M 70.0625 574.09375 L 100.554688 574.09375 L 100.554688 563.554688 L 70.0625 563.554688 Z M 59.898438 563.304688 L 80.226562 563.304688 L 80.226562 552.511719 L 59.898438 552.511719 Z M 90.390625 563.304688 L 110.71875 563.304688 L 110.71875 552.511719 L 90.390625 552.511719 Z M -21.414062 574.21875 L -1.085938 574.21875 L -1.085938 563.554688 L -21.414062 563.554688 Z M -11.25 563.429688 L 9.078125 563.429688 L 9.078125 552.761719 L -11.25 552.761719 Z M 171.707031 574.21875 L 192.035156 574.21875 L 192.035156 563.554688 L 171.707031 563.554688 Z M 161.542969 563.429688 L 181.871094 563.429688 L 181.871094 552.761719 L 161.542969 552.761719 Z M -21.414062 466.796875 L -11.25 466.796875 L -11.25 456.003906 L -21.414062 456.003906 Z M 181.871094 466.796875 L 192.035156 466.796875 L 192.035156 456.003906 L 181.871094 456.003906 Z M 59.898438 369.792969 L 80.226562 369.792969 L 80.226562 359.125 L 59.898438 359.125 Z M 90.390625 369.792969 L 110.71875 369.792969 L 110.71875 359.125 L 90.390625 359.125 Z M 49.734375 359.125 L 70.0625 359.125 L 70.0625 348.335938 L 49.734375 348.335938 Z M 100.554688 359.125 L 120.882812 359.125 L 120.882812 348.335938 L 100.554688 348.335938 Z M 39.570312 348.335938 L 59.898438 348.335938 L 59.898438 337.542969 L 39.570312 337.542969 Z M 110.71875 348.335938 L 131.050781 348.335938 L 131.050781 337.542969 L 110.71875 337.542969 Z M 29.40625 337.417969 L 49.734375 337.417969 L 49.734375 326.625 L 29.40625 326.625 Z M 120.882812 337.417969 L 141.214844 337.417969 L 141.214844 326.625 L 120.882812 326.625 Z M 9.078125 326.625 L 39.570312 326.625 L 39.570312 315.835938 L 9.078125 315.835938 Z M 131.050781 326.625 L 161.542969 326.625 L 161.542969 315.835938 L 131.050781 315.835938 Z M 151.378906 337.417969 L 171.707031 337.417969 L 171.707031 326.625 L 151.378906 326.625 Z M 161.542969 348.210938 L 181.871094 348.210938 L 181.871094 337.417969 L 161.542969 337.417969 Z M 171.707031 359 L 192.035156 359 L 192.035156 348.210938 L 171.707031 348.210938 Z M -1.085938 337.417969 L 19.242188 337.417969 L 19.242188 326.625 L -1.085938 326.625 Z M -11.25 348.210938 L 9.078125 348.210938 L 9.078125 337.417969 L -11.25 337.417969 Z M -21.414062 358.878906 L -1.085938 358.878906 L -1.085938 348.085938 L -21.414062 348.085938 Z M 19.242188 315.710938 L 29.40625 315.710938 L 29.40625 305.042969 L 19.242188 305.042969 Z M 80.226562 347.960938 L 90.390625 347.960938 L 90.390625 337.292969 L 80.226562 337.292969 Z M 80.226562 466.425781 L 90.390625 466.425781 L 90.390625 455.753906 L 80.226562 455.753906 Z M 29.40625 574.09375 L 39.570312 574.09375 L 39.570312 563.554688 L 29.40625 563.554688 Z M 131.050781 574.09375 L 141.214844 574.09375 L 141.214844 563.554688 L 131.050781 563.554688 Z M 70.0625 499.050781 L 100.554688 499.050781 L 100.554688 488.257812 L 70.0625 488.257812 Z M 49.734375 488.257812 L 80.226562 488.257812 L 80.226562 477.464844 L 49.734375 477.464844 Z M 59.898438 477.464844 L 70.0625 477.464844 L 70.0625 466.671875 L 59.898438 466.671875 Z M 39.570312 499.050781 L 59.898438 499.050781 L 59.898438 488.257812 L 39.570312 488.257812 Z M 49.734375 509.59375 L 80.226562 509.59375 L 80.226562 499.050781 L 49.734375 499.050781 Z M 59.898438 520.386719 L 70.0625 520.386719 L 70.0625 509.71875 L 59.898438 509.71875 Z M 90.390625 509.59375 L 120.882812 509.59375 L 120.882812 499.050781 L 90.390625 499.050781 Z M 100.554688 520.386719 L 110.71875 520.386719 L 110.71875 509.71875 L 100.554688 509.71875 Z M 110.71875 498.925781 L 131.050781 498.925781 L 131.050781 488.132812 L 110.71875 488.132812 Z M 90.390625 488.132812 L 120.882812 488.132812 L 120.882812 477.34375 L 90.390625 477.34375 Z M 100.554688 477.34375 L 110.71875 477.34375 L 110.71875 466.550781 L 100.554688 466.550781 Z M 141.214844 499.050781 L 161.542969 499.050781 L 161.542969 488.257812 L 141.214844 488.257812 Z M 151.378906 509.59375 L 181.871094 509.59375 L 181.871094 499.050781 L 151.378906 499.050781 Z M 171.707031 498.925781 L 192.035156 498.925781 L 192.035156 488.132812 L 171.707031 488.132812 Z M 151.378906 488.132812 L 181.871094 488.132812 L 181.871094 477.34375 L 151.378906 477.34375 Z M 161.542969 477.34375 L 171.707031 477.34375 L 171.707031 466.550781 L 161.542969 466.550781 Z M 161.542969 520.386719 L 171.707031 520.386719 L 171.707031 509.71875 L 161.542969 509.71875 Z M -21.414062 499.050781 L -1.085938 499.050781 L -1.085938 488.257812 L -21.414062 488.257812 Z M -11.25 509.59375 L 19.242188 509.59375 L 19.242188 499.050781 L -11.25 499.050781 Z M -11.25 509.59375 "/>
<path style=" stroke:none;fill-rule:evenodd;fill:rgb(69.803923%,0%,0%);fill-opacity:1;" d="M 9.078125 498.925781 L 29.40625 498.925781 L 29.40625 488.136719 L 9.078125 488.136719 Z M -11.25 488.136719 L 19.242188 488.136719 L 19.242188 477.34375 L -11.25 477.34375 Z M -1.085938 477.34375 L 9.078125 477.34375 L 9.078125 466.554688 L -1.085938 466.554688 Z M -1.085938 520.386719 L 9.078125 520.386719 L 9.078125 509.71875 L -1.085938 509.71875 Z M -11.25 434.300781 L 29.40625 434.300781 L 29.40625 423.511719 L -11.25 423.511719 Z M 39.570312 434.300781 L 80.226562 434.300781 L 80.226562 423.511719 L 39.570312 423.511719 Z M 90.390625 434.300781 L 131.050781 434.300781 L 131.050781 423.511719 L 90.390625 423.511719 Z M 141.214844 434.300781 L 181.871094 434.300781 L 181.871094 423.511719 L 141.214844 423.511719 Z M 59.898438 412.714844 L 110.71875 412.714844 L 110.71875 402.046875 L 59.898438 402.046875 Z M -11.25 412.714844 L 39.570312 412.714844 L 39.570312 402.046875 L -11.25 402.046875 Z M 131.050781 412.714844 L 181.871094 412.714844 L 181.871094 402.046875 L 131.050781 402.046875 Z M 181.871094 369.796875 L 192.035156 369.796875 L 192.035156 358.882812 L 181.871094 358.882812 Z M -21.414062 369.796875 L -11.25 369.796875 L -11.25 358.882812 L -21.414062 358.882812 Z M 70.0625 315.835938 L 80.226562 315.835938 L 80.226562 326.628906 L 70.0625 326.628906 Z M 90.390625 315.835938 L 100.554688 315.835938 L 100.554688 326.628906 L 90.390625 326.628906 Z M 90.390625 294.375 L 100.554688 294.375 L 100.554688 305.167969 L 90.390625 305.167969 Z M 70.0625 294.375 L 80.226562 294.375 L 80.226562 305.167969 L 70.0625 305.167969 Z M -1.085938 585.015625 L 19.242188 585.015625 L 19.242188 595.808594 L -1.085938 595.808594 Z M 141.214844 380.464844 L 151.378906 380.464844 L 151.378906 369.671875 L 141.214844 369.671875 Z M 19.242188 380.464844 L 29.40625 380.464844 L 29.40625 369.671875 L 19.242188 369.671875 Z M 70.0625 369.671875 L 100.554688 369.671875 L 100.554688 380.464844 L 70.0625 380.464844 Z M 70.0625 369.671875 "/>
</g>
</svg>
