<?xml version="1.0" encoding="UTF-8"?>
<svg xmlns="http://www.w3.org/2000/svg" xmlns:xlink="http://www.w3.org/1999/xlink" width="20" height="20" viewBox="0 0 20 20">
<path fill-rule="nonzero" fill="rgb(93.333333%, 93.333333%, 93.333333%)" fill-opacity="1" d="M 18.835938 14.6875 C 19.578125 13.289062 20 11.695312 20 10 C 20 8.304688 19.578125 6.710938 18.835938 5.3125 L 1.164062 5.3125 C 0.421875 6.710938 0 8.304688 0 10 C 0 11.695312 0.421875 13.289062 1.164062 14.6875 Z M 18.835938 14.6875 "/>
<path fill-rule="nonzero" fill="rgb(84.705882%, 0%, 15.294118%)" fill-opacity="1" d="M 19.394531 13.4375 C 17.992188 17.265625 14.316406 20 10 20 C 5.683594 20 2.007812 17.265625 0.605469 13.4375 Z M 19.394531 13.4375 "/>
<path fill-rule="nonzero" fill="rgb(42.745098%, 64.705882%, 26.666667%)" fill-opacity="1" d="M 19.394531 6.5625 L 0.605469 6.5625 C 2.007812 2.734375 5.683594 0 10 0 C 14.316406 0 17.992188 2.734375 19.394531 6.5625 Z M 19.394531 6.5625 "/>
<path fill-rule="nonzero" fill="rgb(0%, 32.156863%, 70.588235%)" fill-opacity="1" d="M 0 9.59375 C 0.105469 6.992188 1.203125 4.644531 2.925781 2.925781 L 10 10 L 2.925781 17.074219 C 1.203125 15.355469 0.105469 13.007812 0 10.40625 Z M 0 9.59375 "/>
<path fill-rule="nonzero" fill="rgb(74.117647%, 73.72549%, 75.686275%)" fill-opacity="1" d="M 11.738281 8.261719 L 11.738281 10.433594 C 11.738281 11.765625 13.476562 12.175781 13.476562 12.175781 C 13.476562 12.175781 15.21875 11.765625 15.21875 10.433594 L 15.21875 8.261719 Z M 11.738281 8.261719 "/>
<path fill-rule="nonzero" fill="rgb(52.156863%, 41.176471%, 23.921569%)" fill-opacity="1" d="M 13.042969 10.042969 L 13.914062 10.042969 L 13.914062 11.304688 L 13.042969 11.304688 Z M 13.042969 10.042969 "/>
<path fill-rule="nonzero" fill="rgb(42.745098%, 64.705882%, 26.666667%)" fill-opacity="1" d="M 14.347656 9.566406 C 14.347656 9.085938 13.957031 8.695312 13.476562 8.695312 C 12.996094 8.695312 12.609375 9.085938 12.609375 9.566406 C 12.367188 9.566406 12.171875 9.761719 12.171875 10 C 12.171875 10.238281 12.367188 10.433594 12.609375 10.433594 L 14.347656 10.433594 C 14.585938 10.433594 14.78125 10.238281 14.78125 10 C 14.78125 9.761719 14.585938 9.566406 14.347656 9.566406 Z M 14.347656 9.566406 "/>
</svg>
