<?xml version="1.0" encoding="UTF-8"?>
<svg xmlns="http://www.w3.org/2000/svg" xmlns:xlink="http://www.w3.org/1999/xlink" width="40" height="40" viewBox="0 0 40 40">
<path fill-rule="nonzero" fill="rgb(93.333333%, 93.333333%, 93.333333%)" fill-opacity="1" d="M 37.671875 29.375 C 39.15625 26.578125 40 23.386719 40 20 C 40 16.613281 39.15625 13.421875 37.671875 10.625 L 2.328125 10.625 C 0.84375 13.421875 0 16.613281 0 20 C 0 23.386719 0.84375 26.578125 2.328125 29.375 Z M 37.671875 29.375 "/>
<path fill-rule="nonzero" fill="rgb(84.705882%, 0%, 15.294118%)" fill-opacity="1" d="M 38.785156 26.875 C 35.984375 34.535156 28.628906 40 20 40 C 11.371094 40 4.015625 34.535156 1.214844 26.875 L 38.789062 26.875 Z M 38.785156 26.875 "/>
<path fill-rule="nonzero" fill="rgb(42.745098%, 64.705882%, 26.666667%)" fill-opacity="1" d="M 38.785156 13.125 L 1.210938 13.125 C 4.015625 5.464844 11.371094 0 20 0 C 28.628906 0 35.984375 5.464844 38.785156 13.125 Z M 38.785156 13.125 "/>
<path fill-rule="nonzero" fill="rgb(0%, 32.156863%, 70.588235%)" fill-opacity="1" d="M 0 19.1875 C 0.207031 13.984375 2.40625 9.289062 5.851562 5.847656 L 20 20 L 5.851562 34.148438 C 2.40625 30.707031 0.207031 26.015625 0 20.8125 L 0 19.183594 Z M 0 19.1875 "/>
<path fill-rule="nonzero" fill="rgb(74.117647%, 73.72549%, 75.686275%)" fill-opacity="1" d="M 23.476562 16.523438 L 23.476562 20.871094 C 23.476562 23.53125 26.957031 24.347656 26.957031 24.347656 C 26.957031 24.347656 30.433594 23.53125 30.433594 20.871094 L 30.433594 16.523438 Z M 23.476562 16.523438 "/>
<path fill-rule="nonzero" fill="rgb(52.156863%, 41.176471%, 23.921569%)" fill-opacity="1" d="M 26.085938 20.085938 L 27.824219 20.085938 L 27.824219 22.609375 L 26.085938 22.609375 Z M 26.085938 20.085938 "/>
<path fill-rule="nonzero" fill="rgb(42.745098%, 64.705882%, 26.666667%)" fill-opacity="1" d="M 28.695312 19.128906 C 28.695312 18.171875 27.917969 17.390625 26.957031 17.390625 C 25.996094 17.390625 25.21875 18.171875 25.21875 19.128906 C 24.738281 19.128906 24.347656 19.519531 24.347656 20 C 24.347656 20.480469 24.738281 20.871094 25.21875 20.871094 L 28.695312 20.871094 C 29.175781 20.871094 29.566406 20.480469 29.566406 20 C 29.566406 19.519531 29.175781 19.128906 28.695312 19.128906 Z M 28.695312 19.128906 "/>
</svg>
