<?xml version="1.0" encoding="UTF-8"?>
<svg xmlns="http://www.w3.org/2000/svg" xmlns:xlink="http://www.w3.org/1999/xlink" width="60" height="60" viewBox="0 0 60 60">
<path fill-rule="nonzero" fill="rgb(93.333333%, 93.333333%, 93.333333%)" fill-opacity="1" d="M 56.507812 44.0625 C 58.738281 39.867188 60 35.082031 60 30 C 60 24.917969 58.738281 20.132812 56.507812 15.9375 L 3.492188 15.9375 C 1.261719 20.132812 0 24.917969 0 30 C 0 35.082031 1.261719 39.867188 3.492188 44.0625 Z M 56.507812 44.0625 "/>
<path fill-rule="nonzero" fill="rgb(84.705882%, 0%, 15.294118%)" fill-opacity="1" d="M 58.179688 40.3125 C 53.976562 51.800781 42.945312 60 30 60 C 17.054688 60 6.023438 51.800781 1.820312 40.3125 Z M 58.179688 40.3125 "/>
<path fill-rule="nonzero" fill="rgb(42.745098%, 64.705882%, 26.666667%)" fill-opacity="1" d="M 58.179688 19.6875 L 1.820312 19.6875 C 6.023438 8.199219 17.054688 0 30 0 C 42.945312 0 53.972656 8.199219 58.179688 19.6875 Z M 58.179688 19.6875 "/>
<path fill-rule="nonzero" fill="rgb(0%, 32.156863%, 70.588235%)" fill-opacity="1" d="M 0 28.777344 C 0.3125 20.972656 3.605469 13.9375 8.773438 8.773438 L 30 30 L 8.773438 51.222656 C 3.605469 46.0625 0.3125 39.023438 0 31.21875 Z M 0 28.777344 "/>
<path fill-rule="nonzero" fill="rgb(74.117647%, 73.72549%, 75.686275%)" fill-opacity="1" d="M 35.21875 24.78125 L 35.21875 31.304688 C 35.21875 35.296875 40.433594 36.523438 40.433594 36.523438 C 40.433594 36.523438 45.652344 35.296875 45.652344 31.304688 L 45.652344 24.78125 Z M 35.21875 24.78125 "/>
<path fill-rule="nonzero" fill="rgb(52.156863%, 41.176471%, 23.921569%)" fill-opacity="1" d="M 39.128906 30.128906 L 41.738281 30.128906 L 41.738281 33.914062 L 39.128906 33.914062 Z M 39.128906 30.128906 "/>
<path fill-rule="nonzero" fill="rgb(42.745098%, 64.705882%, 26.666667%)" fill-opacity="1" d="M 43.042969 28.695312 C 43.042969 27.253906 41.875 26.085938 40.433594 26.085938 C 38.992188 26.085938 37.824219 27.253906 37.824219 28.695312 C 37.105469 28.695312 36.519531 29.28125 36.519531 30 C 36.519531 30.71875 37.105469 31.304688 37.824219 31.304688 L 43.042969 31.304688 C 43.761719 31.304688 44.347656 30.71875 44.347656 30 C 44.347656 29.28125 43.761719 28.695312 43.042969 28.695312 Z M 43.042969 28.695312 "/>
</svg>
