<?xml version="1.0" encoding="UTF-8"?>
<svg xmlns="http://www.w3.org/2000/svg" xmlns:xlink="http://www.w3.org/1999/xlink" width="60" height="60" viewBox="0 0 60 60">
<path fill-rule="nonzero" fill="rgb(100%, 85.490196%, 26.666667%)" fill-opacity="1" d="M 60 30 C 60 46.570312 46.570312 60 30 60 C 13.429688 60 0 46.570312 0 30 C 0 13.429688 13.429688 0 30 0 C 46.570312 0 60 13.429688 60 30 Z M 60 30 "/>
<path fill-rule="nonzero" fill="rgb(0%, 13.333333%, 40%)" fill-opacity="1" d="M 30 0 L 30 30 L 0 30 C 0 13.429688 13.429688 0 30 0 Z M 30 0 "/>
<path fill-rule="nonzero" fill="rgb(93.333333%, 93.333333%, 93.333333%)" fill-opacity="1" d="M 25.496094 30 L 30 30 L 30 25.496094 L 16.488281 11.984375 L 30 11.984375 L 30 0 C 13.429688 0 0 13.429688 0 30 L 11.984375 30 L 11.984375 16.488281 Z M 25.496094 30 "/>
<path fill-rule="nonzero" fill="rgb(84.705882%, 0%, 15.294118%)" fill-opacity="1" d="M 30 8.980469 L 30 2.972656 L 16.960938 2.972656 C 10.867188 5.917969 5.917969 10.867188 2.972656 16.960938 L 2.972656 30 L 8.980469 30 L 8.980469 8.980469 Z M 30 8.980469 "/>
<path fill-rule="nonzero" fill="rgb(84.705882%, 0%, 15.294118%)" fill-opacity="1" d="M 30 26.996094 L 30 30 L 11.984375 11.984375 L 14.984375 11.984375 Z M 30 26.996094 "/>
<path fill-rule="evenodd" fill="rgb(0%, 13.333333%, 40%)" fill-opacity="1" d="M 5.976562 12.914062 C 9.808594 12.914062 12.914062 9.808594 12.914062 5.976562 C 12.914062 5.765625 12.902344 5.5625 12.886719 5.355469 C 9.953125 7.398438 7.398438 9.949219 5.355469 12.886719 C 5.5625 12.902344 5.769531 12.914062 5.976562 12.914062 Z M 5.976562 12.914062 "/>
<path fill-rule="evenodd" fill="rgb(100%, 85.490196%, 26.666667%)" fill-opacity="1" d="M 9.058594 8.519531 L 10.054688 11.589844 L 7.730469 9.898438 C 8.15625 9.425781 8.601562 8.964844 9.058594 8.519531 Z M 9.058594 8.519531 "/>
<path fill-rule="nonzero" fill="rgb(100%, 85.490196%, 26.666667%)" fill-opacity="1" d="M 21.125 2.839844 L 21.828125 5.007812 L 24.105469 5.007812 L 22.261719 6.347656 L 22.964844 8.511719 L 21.125 7.175781 L 19.28125 8.511719 L 19.984375 6.347656 L 18.140625 5.007812 L 20.417969 5.007812 Z M 21.125 2.839844 "/>
<path fill-rule="nonzero" fill="rgb(100%, 85.490196%, 26.666667%)" fill-opacity="1" d="M 5.976562 17.988281 L 6.679688 20.15625 L 8.957031 20.15625 L 7.117188 21.492188 L 7.820312 23.660156 L 5.976562 22.320312 L 4.132812 23.660156 L 4.835938 21.492188 L 2.996094 20.15625 L 5.273438 20.15625 Z M 5.976562 17.988281 "/>
</svg>
