<?xml version="1.0" encoding="UTF-8"?>
<svg xmlns="http://www.w3.org/2000/svg" xmlns:xlink="http://www.w3.org/1999/xlink" width="40" height="40" viewBox="0 0 40 40">
<path fill-rule="nonzero" fill="rgb(100%, 85.490196%, 26.666667%)" fill-opacity="1" d="M 40 20 C 40 31.046875 31.046875 40 20 40 C 8.953125 40 0 31.046875 0 20 C 0 8.953125 8.953125 0 20 0 C 31.046875 0 40 8.953125 40 20 Z M 40 20 "/>
<path fill-rule="nonzero" fill="rgb(0%, 13.333333%, 40%)" fill-opacity="1" d="M 20 0 L 20 20 L 0 20 C 0 8.953125 8.953125 0 20 0 Z M 20 0 "/>
<path fill-rule="nonzero" fill="rgb(93.333333%, 93.333333%, 93.333333%)" fill-opacity="1" d="M 16.996094 20 L 20 20 L 20 16.996094 L 10.992188 7.988281 L 20 7.988281 L 20 0 C 8.953125 0 0 8.953125 0 20 L 7.988281 20 L 7.988281 10.992188 Z M 16.996094 20 "/>
<path fill-rule="nonzero" fill="rgb(84.705882%, 0%, 15.294118%)" fill-opacity="1" d="M 20 5.984375 L 20 1.984375 L 11.308594 1.984375 C 7.246094 3.945312 3.945312 7.246094 1.984375 11.308594 L 1.984375 20 L 5.984375 20 L 5.984375 5.984375 Z M 20 5.984375 "/>
<path fill-rule="nonzero" fill="rgb(84.705882%, 0%, 15.294118%)" fill-opacity="1" d="M 20 18 L 20 20 L 7.988281 7.988281 L 9.992188 7.988281 Z M 20 18 "/>
<path fill-rule="evenodd" fill="rgb(0%, 13.333333%, 40%)" fill-opacity="1" d="M 3.984375 8.609375 C 6.539062 8.609375 8.609375 6.539062 8.609375 3.984375 C 8.609375 3.84375 8.601562 3.707031 8.589844 3.570312 C 6.632812 4.933594 4.933594 6.632812 3.570312 8.589844 C 3.707031 8.601562 3.84375 8.609375 3.984375 8.609375 Z M 3.984375 8.609375 "/>
<path fill-rule="evenodd" fill="rgb(100%, 85.490196%, 26.666667%)" fill-opacity="1" d="M 6.039062 5.679688 L 6.703125 7.726562 L 5.152344 6.601562 C 5.4375 6.285156 5.734375 5.976562 6.039062 5.679688 Z M 6.039062 5.679688 "/>
<path fill-rule="nonzero" fill="rgb(100%, 85.490196%, 26.666667%)" fill-opacity="1" d="M 14.082031 1.894531 L 14.550781 3.339844 L 16.070312 3.339844 L 14.839844 4.230469 L 15.3125 5.675781 L 14.082031 4.78125 L 12.855469 5.675781 L 13.324219 4.230469 L 12.09375 3.339844 L 13.613281 3.339844 Z M 14.082031 1.894531 "/>
<path fill-rule="nonzero" fill="rgb(100%, 85.490196%, 26.666667%)" fill-opacity="1" d="M 3.984375 11.992188 L 4.453125 13.4375 L 5.972656 13.4375 L 4.742188 14.328125 L 5.210938 15.773438 L 3.984375 14.878906 L 2.753906 15.773438 L 3.226562 14.328125 L 1.996094 13.4375 L 3.515625 13.4375 Z M 3.984375 11.992188 "/>
</svg>
