<?xml version="1.0" encoding="UTF-8"?>
<svg xmlns="http://www.w3.org/2000/svg" xmlns:xlink="http://www.w3.org/1999/xlink" width="20" height="20" viewBox="0 0 20 20">
<path fill-rule="nonzero" fill="rgb(100%, 85.490196%, 26.666667%)" fill-opacity="1" d="M 20 10 C 20 15.523438 15.523438 20 10 20 C 4.476562 20 0 15.523438 0 10 C 0 4.476562 4.476562 0 10 0 C 15.523438 0 20 4.476562 20 10 Z M 20 10 "/>
<path fill-rule="nonzero" fill="rgb(0%, 13.333333%, 40%)" fill-opacity="1" d="M 10 0 L 10 10 L 0 10 C 0 4.476562 4.476562 0 10 0 Z M 10 0 "/>
<path fill-rule="nonzero" fill="rgb(93.333333%, 93.333333%, 93.333333%)" fill-opacity="1" d="M 8.5 10 L 10 10 L 10 8.5 L 5.496094 3.992188 L 10 3.992188 L 10 0 C 4.476562 0 0 4.476562 0 10 L 3.992188 10 L 3.992188 5.496094 Z M 8.5 10 "/>
<path fill-rule="nonzero" fill="rgb(84.705882%, 0%, 15.294118%)" fill-opacity="1" d="M 10 2.992188 L 10 0.992188 L 5.652344 0.992188 C 3.621094 1.972656 1.972656 3.621094 0.992188 5.652344 L 0.992188 10 L 2.992188 10 L 2.992188 2.992188 Z M 10 2.992188 "/>
<path fill-rule="nonzero" fill="rgb(84.705882%, 0%, 15.294118%)" fill-opacity="1" d="M 10 9 L 10 10 L 3.992188 3.992188 L 4.996094 3.992188 Z M 10 9 "/>
<path fill-rule="evenodd" fill="rgb(0%, 13.333333%, 40%)" fill-opacity="1" d="M 1.992188 4.304688 C 3.269531 4.304688 4.304688 3.269531 4.304688 1.992188 C 4.304688 1.921875 4.300781 1.855469 4.296875 1.785156 C 3.316406 2.464844 2.464844 3.316406 1.785156 4.296875 C 1.855469 4.300781 1.921875 4.304688 1.992188 4.304688 Z M 1.992188 4.304688 "/>
<path fill-rule="evenodd" fill="rgb(100%, 85.490196%, 26.666667%)" fill-opacity="1" d="M 3.019531 2.839844 L 3.351562 3.863281 L 2.578125 3.300781 C 2.71875 3.140625 2.867188 2.988281 3.019531 2.839844 Z M 3.019531 2.839844 "/>
<path fill-rule="nonzero" fill="rgb(100%, 85.490196%, 26.666667%)" fill-opacity="1" d="M 7.039062 0.945312 L 7.277344 1.667969 L 8.035156 1.667969 L 7.421875 2.117188 L 7.65625 2.835938 L 7.042969 2.390625 L 6.425781 2.835938 L 6.660156 2.117188 L 6.046875 1.667969 L 6.804688 1.667969 L 7.042969 0.945312 Z M 7.039062 0.945312 "/>
<path fill-rule="nonzero" fill="rgb(100%, 85.490196%, 26.666667%)" fill-opacity="1" d="M 1.992188 5.996094 L 2.226562 6.71875 L 2.984375 6.71875 L 2.371094 7.164062 L 2.605469 7.886719 L 1.992188 7.441406 L 1.378906 7.886719 L 1.613281 7.164062 L 1 6.71875 L 1.757812 6.71875 Z M 1.992188 5.996094 "/>
</svg>
