<?xml version="1.0" encoding="UTF-8"?>
<svg xmlns="http://www.w3.org/2000/svg" xmlns:xlink="http://www.w3.org/1999/xlink" width="20" height="20" viewBox="0 0 20 20">
<path fill-rule="nonzero" fill="rgb(84.705882%, 0%, 15.294118%)" fill-opacity="1" d="M 20 10 C 20 15.523438 15.523438 20 10 20 C 4.476562 20 0 15.523438 0 10 C 0 4.476562 4.476562 0 10 0 C 15.523438 0 20 4.476562 20 10 Z M 20 10 "/>
<path fill-rule="nonzero" fill="rgb(93.333333%, 93.333333%, 93.333333%)" fill-opacity="1" d="M 15.757812 6.25 L 14.28125 7.566406 L 15.125 11.253906 C 15.171875 11.460938 15.164062 11.675781 15.097656 11.875 C 15.035156 12.074219 14.914062 12.253906 14.757812 12.394531 C 14.597656 12.53125 14.40625 12.625 14.195312 12.664062 C 13.988281 12.699219 13.773438 12.679688 13.578125 12.605469 L 13.554688 12.59375 L 10 11.226562 L 7.664062 12.210938 L 7.417969 12.3125 L 7.671875 12.441406 L 10.84375 13.996094 L 10.609375 16.574219 L 10.605469 16.652344 C 10.597656 16.679688 10.585938 16.707031 10.566406 16.730469 C 10.546875 16.753906 10.527344 16.773438 10.5 16.789062 C 10.476562 16.800781 10.449219 16.8125 10.417969 16.816406 C 10.390625 16.820312 10.359375 16.816406 10.332031 16.808594 C 10.304688 16.800781 10.277344 16.789062 10.253906 16.769531 C 10.230469 16.75 10.210938 16.730469 10.195312 16.703125 C 10.183594 16.679688 10.171875 16.652344 10.167969 16.621094 C 10.164062 16.59375 10.167969 16.5625 10.175781 16.535156 L 9.785156 14.601562 L 6.167969 13.488281 C 5.964844 13.429688 5.78125 13.3125 5.640625 13.15625 C 5.496094 13 5.402344 12.808594 5.359375 12.601562 C 5.320312 12.394531 5.335938 12.179688 5.40625 11.980469 C 5.480469 11.78125 5.605469 11.605469 5.769531 11.472656 L 5.789062 11.457031 L 8.75 9.0625 L 9.066406 6.546875 L 9.101562 6.28125 L 8.863281 6.4375 L 5.933594 8.410156 L 3.808594 6.914062 L 3.75 6.875 C 3.726562 6.855469 3.703125 6.832031 3.691406 6.804688 C 3.675781 6.773438 3.667969 6.746094 3.664062 6.714844 C 3.664062 6.683594 3.667969 6.648438 3.679688 6.621094 C 3.691406 6.589844 3.707031 6.5625 3.730469 6.542969 C 3.75 6.519531 3.777344 6.503906 3.808594 6.492188 C 3.835938 6.480469 3.867188 6.476562 3.902344 6.476562 C 3.933594 6.480469 3.960938 6.488281 3.992188 6.503906 C 4.019531 6.515625 4.042969 6.539062 4.0625 6.5625 L 5.9375 7.1875 L 8.710938 4.613281 C 8.863281 4.46875 9.054688 4.367188 9.261719 4.324219 C 9.46875 4.28125 9.683594 4.292969 9.882812 4.359375 C 10.082031 4.429688 10.257812 4.550781 10.394531 4.710938 C 10.53125 4.875 10.621094 5.070312 10.652344 5.277344 L 10.652344 5.300781 L 11.25 9.0625 L 13.269531 10.59375 L 13.484375 10.757812 L 13.464844 10.472656 L 13.226562 6.945312 L 15.578125 5.855469 L 15.644531 5.828125 C 15.671875 5.816406 15.707031 5.808594 15.738281 5.8125 C 15.769531 5.8125 15.800781 5.820312 15.828125 5.832031 C 15.855469 5.847656 15.882812 5.867188 15.902344 5.890625 C 15.921875 5.914062 15.9375 5.945312 15.945312 5.972656 C 15.953125 6.003906 15.957031 6.035156 15.949219 6.066406 C 15.945312 6.097656 15.933594 6.128906 15.917969 6.15625 C 15.898438 6.183594 15.875 6.203125 15.851562 6.222656 C 15.824219 6.238281 15.792969 6.25 15.761719 6.253906 Z M 15.757812 6.25 "/>
</svg>
