<?xml version="1.0" encoding="UTF-8"?>
<svg xmlns="http://www.w3.org/2000/svg" xmlns:xlink="http://www.w3.org/1999/xlink" width="40" height="40" viewBox="0 0 40 40">
<path fill-rule="nonzero" fill="rgb(84.705882%, 0%, 15.294118%)" fill-opacity="1" d="M 40 20 C 40 31.046875 31.046875 40 20 40 C 8.953125 40 0 31.046875 0 20 C 0 8.953125 8.953125 0 20 0 C 31.046875 0 40 8.953125 40 20 Z M 40 20 "/>
<path fill-rule="nonzero" fill="rgb(93.333333%, 93.333333%, 93.333333%)" fill-opacity="1" d="M 31.515625 12.5 L 28.5625 15.132812 L 30.25 22.507812 C 30.34375 22.917969 30.328125 23.347656 30.199219 23.75 C 30.066406 24.152344 29.832031 24.511719 29.515625 24.789062 C 29.195312 25.066406 28.808594 25.25 28.394531 25.324219 C 27.976562 25.398438 27.550781 25.359375 27.15625 25.210938 L 27.109375 25.1875 L 20 22.453125 L 15.328125 24.421875 L 14.835938 24.625 L 15.34375 24.882812 L 21.6875 27.992188 L 21.21875 33.148438 L 21.210938 33.304688 C 21.195312 33.359375 21.167969 33.414062 21.132812 33.460938 C 21.097656 33.507812 21.054688 33.546875 21.003906 33.574219 C 20.953125 33.601562 20.894531 33.621094 20.835938 33.628906 C 20.78125 33.636719 20.71875 33.632812 20.664062 33.617188 C 20.609375 33.601562 20.554688 33.574219 20.507812 33.539062 C 20.460938 33.503906 20.421875 33.460938 20.394531 33.410156 C 20.367188 33.359375 20.347656 33.300781 20.339844 33.242188 C 20.332031 33.1875 20.335938 33.125 20.351562 33.070312 L 19.570312 29.203125 L 12.335938 26.976562 C 11.929688 26.855469 11.566406 26.628906 11.28125 26.316406 C 10.996094 26 10.800781 25.617188 10.71875 25.203125 C 10.636719 24.785156 10.667969 24.355469 10.8125 23.960938 C 10.960938 23.5625 11.210938 23.210938 11.539062 22.945312 L 11.578125 22.914062 L 17.5 18.125 L 18.132812 13.09375 L 18.203125 12.5625 L 17.726562 12.875 L 11.867188 16.820312 L 7.617188 13.828125 L 7.5 13.75 C 7.449219 13.710938 7.410156 13.664062 7.378906 13.605469 C 7.351562 13.550781 7.332031 13.488281 7.328125 13.425781 C 7.324219 13.363281 7.335938 13.300781 7.355469 13.242188 C 7.378906 13.183594 7.414062 13.128906 7.457031 13.085938 C 7.503906 13.039062 7.558594 13.003906 7.617188 12.980469 C 7.675781 12.960938 7.738281 12.949219 7.800781 12.953125 C 7.863281 12.957031 7.925781 12.976562 7.980469 13.003906 C 8.039062 13.035156 8.085938 13.074219 8.125 13.125 L 11.875 14.375 L 17.421875 9.226562 C 17.730469 8.9375 18.109375 8.738281 18.523438 8.648438 C 18.933594 8.558594 19.363281 8.582031 19.761719 8.71875 C 20.164062 8.855469 20.519531 9.101562 20.789062 9.421875 C 21.0625 9.746094 21.238281 10.136719 21.304688 10.554688 L 21.304688 10.601562 L 22.5 18.125 L 26.539062 21.1875 L 26.96875 21.515625 L 26.929688 20.945312 L 26.453125 13.890625 L 31.15625 11.710938 L 31.289062 11.65625 C 31.347656 11.632812 31.410156 11.621094 31.472656 11.621094 C 31.535156 11.625 31.597656 11.636719 31.65625 11.667969 C 31.714844 11.695312 31.761719 11.734375 31.804688 11.78125 C 31.84375 11.832031 31.875 11.886719 31.890625 11.949219 C 31.90625 12.007812 31.910156 12.074219 31.902344 12.136719 C 31.890625 12.199219 31.867188 12.257812 31.832031 12.3125 C 31.800781 12.363281 31.753906 12.410156 31.699219 12.441406 C 31.644531 12.476562 31.585938 12.5 31.523438 12.507812 Z M 31.515625 12.5 "/>
</svg>
