<?xml version="1.0" encoding="UTF-8"?>
<svg xmlns="http://www.w3.org/2000/svg" xmlns:xlink="http://www.w3.org/1999/xlink" width="60" height="60" viewBox="0 0 60 60">
<path fill-rule="nonzero" fill="rgb(84.705882%, 0%, 15.294118%)" fill-opacity="1" d="M 60 30 C 60 46.570312 46.570312 60 30 60 C 13.429688 60 0 46.570312 0 30 C 0 13.429688 13.429688 0 30 0 C 46.570312 0 60 13.429688 60 30 Z M 60 30 "/>
<path fill-rule="nonzero" fill="rgb(93.333333%, 93.333333%, 93.333333%)" fill-opacity="1" d="M 47.273438 18.75 L 42.84375 22.699219 L 45.375 33.761719 C 45.519531 34.378906 45.492188 35.023438 45.296875 35.625 C 45.101562 36.226562 44.746094 36.765625 44.269531 37.179688 C 43.792969 37.597656 43.214844 37.875 42.589844 37.988281 C 41.96875 38.101562 41.324219 38.039062 40.734375 37.816406 L 40.664062 37.78125 L 30 33.679688 L 22.992188 36.632812 L 22.253906 36.9375 L 23.015625 37.324219 L 32.53125 41.988281 L 31.828125 49.722656 L 31.816406 49.957031 C 31.792969 50.042969 31.753906 50.121094 31.699219 50.191406 C 31.644531 50.257812 31.578125 50.316406 31.503906 50.363281 C 31.425781 50.40625 31.34375 50.433594 31.257812 50.445312 C 31.167969 50.457031 31.082031 50.449219 30.996094 50.425781 C 30.910156 50.402344 30.832031 50.363281 30.761719 50.308594 C 30.695312 50.253906 30.636719 50.1875 30.59375 50.113281 C 30.546875 50.035156 30.519531 49.953125 30.507812 49.867188 C 30.5 49.777344 30.503906 49.691406 30.527344 49.605469 L 29.355469 43.804688 L 18.503906 40.464844 C 17.894531 40.285156 17.347656 39.941406 16.921875 39.472656 C 16.492188 39.003906 16.203125 38.425781 16.078125 37.800781 C 15.957031 37.179688 16.003906 36.535156 16.222656 35.9375 C 16.4375 35.34375 16.8125 34.816406 17.308594 34.417969 L 17.367188 34.371094 L 26.25 27.1875 L 27.199219 19.640625 L 27.304688 18.84375 L 26.589844 19.3125 L 17.800781 25.230469 L 11.425781 20.742188 L 11.25 20.625 C 11.175781 20.566406 11.113281 20.492188 11.070312 20.410156 C 11.027344 20.324219 11 20.234375 10.992188 20.140625 C 10.988281 20.046875 11.003906 19.949219 11.035156 19.863281 C 11.070312 19.773438 11.121094 19.691406 11.1875 19.625 C 11.253906 19.558594 11.335938 19.507812 11.425781 19.472656 C 11.511719 19.441406 11.605469 19.425781 11.703125 19.429688 C 11.796875 19.4375 11.886719 19.464844 11.972656 19.507812 C 12.054688 19.550781 12.128906 19.613281 12.1875 19.6875 L 17.8125 21.5625 L 26.132812 13.839844 C 26.59375 13.40625 27.164062 13.105469 27.785156 12.972656 C 28.402344 12.839844 29.046875 12.875 29.644531 13.082031 C 30.246094 13.285156 30.777344 13.648438 31.183594 14.136719 C 31.589844 14.621094 31.859375 15.207031 31.957031 15.832031 L 31.957031 15.902344 L 33.75 27.1875 L 39.808594 31.78125 L 40.453125 32.273438 L 40.394531 31.417969 L 39.679688 20.835938 L 46.734375 17.566406 L 46.933594 17.484375 C 47.019531 17.449219 47.117188 17.429688 47.210938 17.433594 C 47.304688 17.433594 47.398438 17.457031 47.484375 17.5 C 47.570312 17.539062 47.644531 17.601562 47.707031 17.671875 C 47.765625 17.746094 47.8125 17.832031 47.835938 17.921875 C 47.863281 18.015625 47.867188 18.109375 47.851562 18.203125 C 47.835938 18.296875 47.800781 18.386719 47.75 18.46875 C 47.699219 18.546875 47.628906 18.613281 47.550781 18.664062 C 47.46875 18.714844 47.378906 18.75 47.285156 18.761719 Z M 47.273438 18.75 "/>
</svg>
