<svg width="16" height="16" viewBox="0 0 16 16" fill="none" xmlns="http://www.w3.org/2000/svg">
<path d="M8.7719 2.1963L8.81608 2.54816L9.16276 2.6228C9.80891 2.76192 10.4245 3.01709 10.9796 3.37591L11.2776 3.56854L11.5578 3.35084L12.9084 2.3015L13.6985 3.09161L12.6492 4.44224L12.4317 4.72212L12.6238 5.01998C12.977 5.5676 13.2362 6.18156 13.3771 6.838L13.4517 7.18506L13.8039 7.22913L15.5 7.44134V8.55887L13.8037 8.7719L13.4518 8.81608L13.3772 9.16276C13.2381 9.80891 12.9829 10.4245 12.6241 10.9796L12.4315 11.2776L12.6492 11.5578L13.6985 12.9084L12.9084 13.6985L11.5578 12.6492L11.2776 12.4315L10.9796 12.6241C10.4245 12.9829 9.80891 13.2381 9.16276 13.3772L8.81608 13.4518L8.7719 13.8037L8.55887 15.5H7.44134L7.22913 13.8039L7.18507 13.4518L6.83812 13.3772C6.19164 13.2382 5.57576 12.983 5.02039 12.6241L4.72241 12.4315L4.44224 12.6492L3.09161 13.6985L2.3015 12.9084L3.35084 11.5578L3.56854 11.2776L3.37591 10.9796C3.01709 10.4245 2.76192 9.80891 2.6228 9.16276L2.54816 8.81608L2.1963 8.7719L0.5 8.55887V7.44134L2.19607 7.22913L2.54822 7.18507L2.62283 6.83812C2.76185 6.19164 3.01701 5.57576 3.37594 5.02039L3.56851 4.72241L3.35084 4.44224L2.3015 3.09161L3.09161 2.3015L4.44224 3.35084L4.72241 3.56851L5.02039 3.37594C5.57576 3.01701 6.19164 2.76185 6.83812 2.62283L7.18507 2.54822L7.22913 2.19607L7.44134 0.5H8.55887L8.7719 2.1963ZM8 3.5C6.80653 3.5 5.66193 3.97411 4.81802 4.81802C3.97411 5.66193 3.5 6.80653 3.5 8C3.5 9.19347 3.97411 10.3381 4.81802 11.182C5.66193 12.0259 6.80653 12.5 8 12.5C9.19347 12.5 10.3381 12.0259 11.182 11.182C12.0259 10.3381 12.5 9.19347 12.5 8C12.5 6.80653 12.0259 5.66193 11.182 4.81802C10.3381 3.97411 9.19347 3.5 8 3.5Z" fill="black" stroke="black"/>
</svg>
