<?xml version="1.0" encoding="UTF-8"?>
<svg xmlns="http://www.w3.org/2000/svg" xmlns:xlink="http://www.w3.org/1999/xlink" width="20" height="20" viewBox="0 0 20 20">
<path fill-rule="nonzero" fill="rgb(42.745098%, 64.705882%, 26.666667%)" fill-opacity="1" d="M 10 20 C 15.515625 20 19.988281 15.535156 20 10.019531 L 20 10 L 10 8.75 L 0 10 C 0 15.523438 4.476562 20 10 20 Z M 10 20 "/>
<path fill-rule="nonzero" fill="rgb(20%, 54.117647%, 95.294118%)" fill-opacity="1" d="M 20 9.980469 L 20 10 L 0 10 C 0 4.476562 4.476562 0 10 0 C 15.515625 0 19.988281 4.464844 20 9.980469 Z M 20 9.980469 "/>
<path fill-rule="nonzero" fill="rgb(93.333333%, 93.333333%, 93.333333%)" fill-opacity="1" d="M 0 9.59375 C 0.105469 6.992188 1.203125 4.644531 2.925781 2.925781 L 10 10 L 2.925781 17.074219 C 1.203125 15.355469 0.105469 13.007812 0 10.40625 Z M 0 9.59375 "/>
<path fill-rule="nonzero" fill="rgb(84.705882%, 0%, 15.294118%)" fill-opacity="1" d="M 4.144531 7.113281 L 4.792969 9.109375 L 6.890625 9.109375 L 5.191406 10.339844 L 5.839844 12.335938 L 4.144531 11.101562 L 2.445312 12.335938 L 3.09375 10.339844 L 1.398438 9.109375 L 3.496094 9.109375 Z M 4.144531 7.113281 "/>
</svg>
