<?xml version="1.0" encoding="UTF-8"?>
<svg xmlns="http://www.w3.org/2000/svg" xmlns:xlink="http://www.w3.org/1999/xlink" width="40" height="40" viewBox="0 0 40 40">
<path fill-rule="nonzero" fill="rgb(42.745098%, 64.705882%, 26.666667%)" fill-opacity="1" d="M 20 40 C 31.03125 40 39.980469 31.066406 40 20.039062 L 40 20 L 20 17.5 L 0 20 C 0 31.046875 8.953125 40 20 40 Z M 20 40 "/>
<path fill-rule="nonzero" fill="rgb(20%, 54.117647%, 95.294118%)" fill-opacity="1" d="M 40 19.960938 L 40 20 L 0 20 C 0 8.953125 8.953125 0 20 0 C 31.03125 0 39.980469 8.933594 40 19.960938 Z M 40 19.960938 "/>
<path fill-rule="nonzero" fill="rgb(93.333333%, 93.333333%, 93.333333%)" fill-opacity="1" d="M 0 19.1875 C 0.207031 13.984375 2.40625 9.289062 5.851562 5.847656 L 20 20 L 5.851562 34.148438 C 2.40625 30.707031 0.207031 26.015625 0 20.8125 L 0 19.183594 Z M 0 19.1875 "/>
<path fill-rule="nonzero" fill="rgb(84.705882%, 0%, 15.294118%)" fill-opacity="1" d="M 8.289062 14.226562 L 9.585938 18.214844 L 13.78125 18.214844 L 10.386719 20.679688 L 11.683594 24.671875 L 8.289062 22.207031 L 4.894531 24.671875 L 6.191406 20.679688 L 2.796875 18.214844 L 6.992188 18.214844 Z M 8.289062 14.226562 "/>
</svg>
