<?xml version="1.0" encoding="UTF-8"?>
<svg width="16px" height="16px" viewBox="0 0 16 16" version="1.1" xmlns="http://www.w3.org/2000/svg" xmlns:xlink="http://www.w3.org/1999/xlink">
    <title>8F2779BB-67CD-4B2C-A622-AE15B8BC6E34</title>
    <g id="Preferences" stroke="none" stroke-width="1" fill="none" fill-rule="evenodd">
        <g id="Robert-Dark" transform="translate(-114.000000, -761.000000)" fill="#FFFFFF" fill-rule="nonzero">
            <g id="Combined-Shape-4" transform="translate(114.292893, 761.292893)">
                <path d="M14,2.27373675e-13 L15.4142136,1.41421356 L13.3142144,3.51590115 C14.1889887,4.68431551 14.7071068,6.13520467 14.7071068,7.70710678 C14.7071068,9.27945635 14.1886937,10.7307241 13.3134673,11.8993101 L15.4142136,14 L14,15.4142136 L11.8993101,13.3134673 C10.7307241,14.1886937 9.27945635,14.7071068 7.70710678,14.7071068 C6.13520467,14.7071068 4.68431551,14.1889887 3.51590115,13.3142144 L1.41421356,15.4142136 L1.13686838e-13,14 L2.10149358,11.9003077 C1.22581497,10.73155 0.707106781,9.2799038 0.707106781,7.70710678 C0.707106781,6.13475721 1.22551987,4.68348951 2.10074629,3.51490343 L1.13686838e-13,1.41421356 L1.41421356,2.27373675e-13 L3.51490343,2.10074629 C4.68348951,1.22551987 6.13475721,0.707106781 7.70710678,0.707106781 C9.2799038,0.707106781 10.73155,1.22581497 11.9003077,2.10149358 L14,2.27373675e-13 Z M7.707,9.121 L4.94965897,11.8786719 C5.7401036,12.4022151 6.68799956,12.7071068 7.70710678,12.7071068 C8.726214,12.7071068 9.67410996,12.4022151 10.4645546,11.8786719 L7.707,9.121 Z M2.70710678,7.70710678 C2.70710678,8.72664915 3.01225886,9.67491942 3.53621243,10.465567 L6.293,7.707 L3.53554168,4.94965897 C3.01199844,5.7401036 2.70710678,6.68799956 2.70710678,7.70710678 Z M11.8786719,4.94965897 L9.121,7.707 L11.8786719,10.4645546 C12.4022151,9.67410996 12.7071068,8.726214 12.7071068,7.70710678 C12.7071068,6.68799956 12.4022151,5.7401036 11.8786719,4.94965897 Z M7.70710678,2.70710678 C6.68799956,2.70710678 5.7401036,3.01199844 4.94965897,3.53554168 L7.707,6.293 L10.465567,3.53621243 C9.67491942,3.01225886 8.72664915,2.70710678 7.70710678,2.70710678 Z" id="Combined-Shape"></path>
            </g>
        </g>
    </g>
</svg>