<?xml version="1.0" encoding="UTF-8"?>
<svg xmlns="http://www.w3.org/2000/svg" xmlns:xlink="http://www.w3.org/1999/xlink" width="40" height="40" viewBox="0 0 40 40">
<path fill-rule="nonzero" fill="rgb(93.333333%, 93.333333%, 93.333333%)" fill-opacity="1" d="M 37.324219 30 C 39.027344 27.058594 40 23.644531 40 20 C 40 16.355469 39.027344 12.941406 37.324219 10 L 2.675781 10 C 0.972656 12.941406 0 16.355469 0 20 C 0 23.644531 0.972656 27.058594 2.675781 30 Z M 37.324219 30 "/>
<path fill-rule="nonzero" fill="rgb(42.745098%, 64.705882%, 26.666667%)" fill-opacity="1" d="M 19.992188 40 C 12.089844 39.996094 5.253906 35.410156 2.011719 28.75 L 37.988281 28.75 C 34.746094 35.410156 27.910156 39.996094 20.007812 40 Z M 19.992188 40 "/>
<path fill-rule="nonzero" fill="rgb(84.705882%, 0%, 15.294118%)" fill-opacity="1" d="M 20 0 C 12.09375 0 5.257812 4.589844 2.011719 11.25 L 37.988281 11.25 C 34.742188 4.589844 27.910156 0 20 0 Z M 20 0 "/>
<path fill-rule="nonzero" fill="rgb(100%, 77.647059%, 20.784314%)" fill-opacity="1" d="M 16.523438 25.21875 L 23.476562 25.21875 L 23.476562 22.261719 L 22.085938 22.957031 L 20 20.871094 L 17.914062 22.957031 L 16.523438 22.261719 Z M 16.523438 25.21875 "/>
<path fill-rule="nonzero" fill="rgb(100%, 77.647059%, 20.784314%)" fill-opacity="1" d="M 12.542969 21.738281 L 12.867188 22.734375 L 13.914062 22.734375 L 13.066406 23.351562 L 13.390625 24.347656 L 12.542969 23.730469 L 11.695312 24.347656 L 12.019531 23.351562 L 11.171875 22.734375 L 12.21875 22.734375 Z M 12.542969 21.738281 "/>
<path fill-rule="nonzero" fill="rgb(100%, 77.647059%, 20.784314%)" fill-opacity="1" d="M 13.546875 18.261719 L 13.867188 19.257812 L 14.917969 19.257812 L 14.070312 19.875 L 14.394531 20.871094 L 13.546875 20.253906 L 12.699219 20.871094 L 13.023438 19.875 L 12.175781 19.257812 L 13.222656 19.257812 Z M 13.546875 18.261719 "/>
<path fill-rule="nonzero" fill="rgb(100%, 77.647059%, 20.784314%)" fill-opacity="1" d="M 16.414062 15.652344 L 16.738281 16.648438 L 17.785156 16.648438 L 16.9375 17.265625 L 17.261719 18.261719 L 16.414062 17.644531 L 15.566406 18.261719 L 15.890625 17.265625 L 15.042969 16.648438 L 16.089844 16.648438 Z M 16.414062 15.652344 "/>
<path fill-rule="nonzero" fill="rgb(100%, 77.647059%, 20.784314%)" fill-opacity="1" d="M 27.457031 21.738281 L 27.136719 22.734375 L 26.085938 22.734375 L 26.933594 23.351562 L 26.609375 24.347656 L 27.457031 23.730469 L 28.304688 24.347656 L 27.984375 23.351562 L 28.832031 22.734375 L 27.78125 22.734375 Z M 27.457031 21.738281 "/>
<path fill-rule="nonzero" fill="rgb(100%, 77.647059%, 20.784314%)" fill-opacity="1" d="M 26.453125 18.261719 L 26.132812 19.257812 L 25.082031 19.257812 L 25.929688 19.875 L 25.605469 20.871094 L 26.453125 20.253906 L 27.300781 20.871094 L 26.980469 19.875 L 27.828125 19.257812 L 26.777344 19.257812 Z M 26.453125 18.261719 "/>
<path fill-rule="nonzero" fill="rgb(100%, 77.647059%, 20.784314%)" fill-opacity="1" d="M 23.585938 15.652344 L 23.261719 16.648438 L 22.214844 16.648438 L 23.0625 17.265625 L 22.738281 18.261719 L 23.585938 17.644531 L 24.433594 18.261719 L 24.109375 17.265625 L 24.957031 16.648438 L 23.910156 16.648438 Z M 23.585938 15.652344 "/>
<path fill-rule="nonzero" fill="rgb(100%, 77.647059%, 20.784314%)" fill-opacity="1" d="M 20 14.347656 L 20.324219 15.34375 L 21.371094 15.34375 L 20.523438 15.960938 L 20.847656 16.957031 L 20 16.339844 L 19.152344 16.957031 L 19.476562 15.960938 L 18.628906 15.34375 L 19.675781 15.34375 Z M 20 14.347656 "/>
</svg>
