<?xml version="1.0" encoding="UTF-8"?>
<svg xmlns="http://www.w3.org/2000/svg" xmlns:xlink="http://www.w3.org/1999/xlink" width="60" height="60" viewBox="0 0 60 60">
<path fill-rule="nonzero" fill="rgb(93.333333%, 93.333333%, 93.333333%)" fill-opacity="1" d="M 55.984375 45 C 58.539062 40.585938 60 35.464844 60 30 C 60 24.535156 58.539062 19.414062 55.984375 15 L 4.015625 15 C 1.460938 19.414062 0 24.535156 0 30 C 0 35.464844 1.460938 40.585938 4.015625 45 Z M 55.984375 45 "/>
<path fill-rule="nonzero" fill="rgb(42.745098%, 64.705882%, 26.666667%)" fill-opacity="1" d="M 29.988281 60 C 18.132812 59.996094 7.882812 53.113281 3.015625 43.125 L 56.984375 43.125 C 52.117188 53.113281 41.867188 59.996094 30.007812 60 Z M 29.988281 60 "/>
<path fill-rule="nonzero" fill="rgb(84.705882%, 0%, 15.294118%)" fill-opacity="1" d="M 30 0 C 18.136719 0 7.882812 6.882812 3.015625 16.875 L 56.984375 16.875 C 52.117188 6.882812 41.863281 0 30 0 Z M 30 0 "/>
<path fill-rule="nonzero" fill="rgb(100%, 77.647059%, 20.784314%)" fill-opacity="1" d="M 24.78125 37.824219 L 35.21875 37.824219 L 35.21875 33.390625 L 33.128906 34.433594 L 30 31.304688 L 26.871094 34.433594 L 24.78125 33.390625 Z M 24.78125 37.824219 "/>
<path fill-rule="nonzero" fill="rgb(100%, 77.647059%, 20.784314%)" fill-opacity="1" d="M 18.8125 32.609375 L 19.296875 34.101562 L 20.871094 34.101562 L 19.597656 35.027344 L 20.082031 36.523438 L 18.8125 35.597656 L 17.539062 36.523438 L 18.027344 35.027344 L 16.753906 34.101562 L 18.328125 34.101562 Z M 18.8125 32.609375 "/>
<path fill-rule="nonzero" fill="rgb(100%, 77.647059%, 20.784314%)" fill-opacity="1" d="M 20.316406 27.390625 L 20.804688 28.886719 L 22.375 28.886719 L 21.105469 29.808594 L 21.589844 31.304688 L 20.316406 30.378906 L 19.046875 31.304688 L 19.53125 29.808594 L 18.261719 28.886719 L 19.832031 28.886719 Z M 20.316406 27.390625 "/>
<path fill-rule="nonzero" fill="rgb(100%, 77.647059%, 20.784314%)" fill-opacity="1" d="M 24.621094 23.476562 L 25.109375 24.972656 L 26.679688 24.972656 L 25.40625 25.898438 L 25.894531 27.390625 L 24.621094 26.46875 L 23.351562 27.390625 L 23.835938 25.898438 L 22.566406 24.972656 L 24.136719 24.972656 Z M 24.621094 23.476562 "/>
<path fill-rule="nonzero" fill="rgb(100%, 77.647059%, 20.784314%)" fill-opacity="1" d="M 41.1875 32.609375 L 40.703125 34.101562 L 39.128906 34.101562 L 40.402344 35.027344 L 39.917969 36.523438 L 41.1875 35.597656 L 42.460938 36.523438 L 41.972656 35.027344 L 43.246094 34.101562 L 41.671875 34.101562 Z M 41.1875 32.609375 "/>
<path fill-rule="nonzero" fill="rgb(100%, 77.647059%, 20.784314%)" fill-opacity="1" d="M 39.683594 27.390625 L 39.195312 28.886719 L 37.625 28.886719 L 38.894531 29.808594 L 38.410156 31.304688 L 39.683594 30.378906 L 40.953125 31.304688 L 40.46875 29.808594 L 41.738281 28.886719 L 40.167969 28.886719 Z M 39.683594 27.390625 "/>
<path fill-rule="nonzero" fill="rgb(100%, 77.647059%, 20.784314%)" fill-opacity="1" d="M 35.378906 23.476562 L 34.890625 24.972656 L 33.320312 24.972656 L 34.59375 25.898438 L 34.105469 27.390625 L 35.378906 26.46875 L 36.648438 27.390625 L 36.164062 25.898438 L 37.433594 24.972656 L 35.863281 24.972656 Z M 35.378906 23.476562 "/>
<path fill-rule="nonzero" fill="rgb(100%, 77.647059%, 20.784314%)" fill-opacity="1" d="M 30 21.523438 L 30.484375 23.015625 L 32.058594 23.015625 L 30.785156 23.941406 L 31.269531 25.433594 L 30 24.511719 L 28.726562 25.433594 L 29.214844 23.941406 L 27.941406 23.015625 L 29.515625 23.015625 Z M 30 21.523438 "/>
</svg>
