<?xml version="1.0" encoding="UTF-8"?>
<svg xmlns="http://www.w3.org/2000/svg" xmlns:xlink="http://www.w3.org/1999/xlink" width="20" height="20" viewBox="0 0 20 20">
<path fill-rule="nonzero" fill="rgb(93.333333%, 93.333333%, 93.333333%)" fill-opacity="1" d="M 18.664062 15 C 19.511719 13.527344 20 11.820312 20 10 C 20 8.179688 19.511719 6.472656 18.664062 5 L 1.335938 5 C 0.488281 6.472656 0 8.179688 0 10 C 0 11.820312 0.488281 13.527344 1.335938 15 Z M 18.664062 15 "/>
<path fill-rule="nonzero" fill="rgb(42.745098%, 64.705882%, 26.666667%)" fill-opacity="1" d="M 9.996094 20 C 6.042969 20 2.628906 17.703125 1.003906 14.375 L 18.996094 14.375 C 17.371094 17.703125 13.957031 20 10.003906 20 Z M 9.996094 20 "/>
<path fill-rule="nonzero" fill="rgb(84.705882%, 0%, 15.294118%)" fill-opacity="1" d="M 10 0 C 6.046875 0 2.628906 2.292969 1.003906 5.625 L 18.996094 5.625 C 17.371094 2.292969 13.953125 0 10 0 Z M 10 0 "/>
<path fill-rule="nonzero" fill="rgb(100%, 77.647059%, 20.784314%)" fill-opacity="1" d="M 8.261719 12.609375 L 11.738281 12.609375 L 11.738281 11.128906 L 11.042969 11.476562 L 10 10.433594 L 8.957031 11.476562 L 8.261719 11.128906 Z M 8.261719 12.609375 "/>
<path fill-rule="nonzero" fill="rgb(100%, 77.647059%, 20.784314%)" fill-opacity="1" d="M 6.269531 10.871094 L 6.433594 11.367188 L 6.957031 11.367188 L 6.53125 11.675781 L 6.695312 12.175781 L 6.269531 11.867188 L 5.847656 12.175781 L 6.007812 11.675781 L 5.585938 11.367188 L 6.109375 11.367188 Z M 6.269531 10.871094 "/>
<path fill-rule="nonzero" fill="rgb(100%, 77.647059%, 20.784314%)" fill-opacity="1" d="M 6.773438 9.128906 L 6.933594 9.628906 L 7.457031 9.628906 L 7.035156 9.9375 L 7.195312 10.433594 L 6.773438 10.125 L 6.347656 10.433594 L 6.511719 9.9375 L 6.085938 9.628906 L 6.609375 9.628906 Z M 6.773438 9.128906 "/>
<path fill-rule="nonzero" fill="rgb(100%, 77.647059%, 20.784314%)" fill-opacity="1" d="M 8.207031 7.828125 L 8.371094 8.324219 L 8.894531 8.324219 L 8.46875 8.632812 L 8.632812 9.128906 L 8.207031 8.824219 L 7.785156 9.128906 L 7.945312 8.632812 L 7.523438 8.324219 L 8.046875 8.324219 Z M 8.207031 7.828125 "/>
<path fill-rule="nonzero" fill="rgb(100%, 77.647059%, 20.784314%)" fill-opacity="1" d="M 13.730469 10.871094 L 13.566406 11.367188 L 13.042969 11.367188 L 13.46875 11.675781 L 13.304688 12.175781 L 13.730469 11.867188 L 14.152344 12.175781 L 13.992188 11.675781 L 14.414062 11.367188 L 13.890625 11.367188 Z M 13.730469 10.871094 "/>
<path fill-rule="nonzero" fill="rgb(100%, 77.647059%, 20.784314%)" fill-opacity="1" d="M 13.226562 9.128906 L 13.066406 9.628906 L 12.542969 9.628906 L 12.964844 9.9375 L 12.804688 10.433594 L 13.226562 10.125 L 13.652344 10.433594 L 13.488281 9.9375 L 13.914062 9.628906 L 13.390625 9.628906 Z M 13.226562 9.128906 "/>
<path fill-rule="nonzero" fill="rgb(100%, 77.647059%, 20.784314%)" fill-opacity="1" d="M 11.792969 7.828125 L 11.628906 8.324219 L 11.105469 8.324219 L 11.53125 8.632812 L 11.367188 9.128906 L 11.792969 8.824219 L 12.214844 9.128906 L 12.054688 8.632812 L 12.476562 8.324219 L 11.953125 8.324219 Z M 11.792969 7.828125 "/>
<path fill-rule="nonzero" fill="rgb(100%, 77.647059%, 20.784314%)" fill-opacity="1" d="M 10 7.171875 L 10.160156 7.671875 L 10.6875 7.671875 L 10.261719 7.980469 L 10.421875 8.476562 L 10 8.171875 L 9.578125 8.476562 L 9.738281 7.980469 L 9.3125 7.671875 L 9.839844 7.671875 Z M 10 7.171875 "/>
</svg>
