<?xml version="1.0" encoding="UTF-8"?>
<svg xmlns="http://www.w3.org/2000/svg" xmlns:xlink="http://www.w3.org/1999/xlink" width="414px" height="207px" viewBox="0 0 414 207" version="1.1">
<g id="surface1">
<rect x="0" y="0" width="414" height="207" style="fill:rgb(80.784315%,6.666667%,14.901961%);fill-opacity:1;stroke:none;"/>
<path style=" stroke:none;fill-rule:evenodd;fill:rgb(0%,15.686275%,40.784314%);fill-opacity:1;" d="M -33.902344 50.265625 L 447.90625 50.265625 L 447.90625 156.734375 L -33.902344 156.734375 Z M -33.902344 50.265625 "/>
<path style=" stroke:none;fill-rule:evenodd;fill:rgb(100%,100%,100%);fill-opacity:1;" d="M 247.238281 97.355469 C 247.238281 109.449219 242.390625 121.050781 233.765625 129.601562 C 225.140625 138.15625 213.441406 142.960938 201.242188 142.960938 C 189.046875 142.960938 177.347656 138.15625 168.71875 129.601562 C 160.09375 121.050781 155.25 109.449219 155.25 97.355469 C 155.25 85.257812 160.09375 73.660156 168.71875 65.105469 C 177.347656 56.554688 189.046875 51.75 201.242188 51.75 C 213.441406 51.75 225.140625 56.554688 233.765625 65.105469 C 242.390625 73.660156 247.238281 85.257812 247.238281 97.355469 Z M 247.238281 97.355469 "/>
</g>
</svg>
