<?xml version="1.0" encoding="UTF-8"?>
<svg xmlns="http://www.w3.org/2000/svg" xmlns:xlink="http://www.w3.org/1999/xlink" width="828px" height="414px" viewBox="0 0 828 414" version="1.1">
<g id="surface1">
<rect x="0" y="0" width="828" height="414" style="fill:rgb(80.784315%,6.666667%,14.901961%);fill-opacity:1;stroke:none;"/>
<path style=" stroke:none;fill-rule:evenodd;fill:rgb(0%,15.686275%,40.784314%);fill-opacity:1;" d="M -67.808594 100.53125 L 895.8125 100.53125 L 895.8125 313.46875 L -67.808594 313.46875 Z M -67.808594 100.53125 "/>
<path style=" stroke:none;fill-rule:evenodd;fill:rgb(100%,100%,100%);fill-opacity:1;" d="M 494.472656 194.710938 C 494.472656 218.898438 484.78125 242.097656 467.53125 259.207031 C 450.28125 276.308594 426.882812 285.917969 402.484375 285.917969 C 378.089844 285.917969 354.691406 276.308594 337.441406 259.207031 C 320.191406 242.097656 310.5 218.898438 310.5 194.710938 C 310.5 170.519531 320.191406 147.320312 337.441406 130.214844 C 354.691406 113.109375 378.089844 103.5 402.484375 103.5 C 426.882812 103.5 450.28125 113.109375 467.53125 130.214844 C 484.78125 147.320312 494.472656 170.519531 494.472656 194.710938 Z M 494.472656 194.710938 "/>
</g>
</svg>
