<?xml version="1.0" encoding="UTF-8"?>
<svg xmlns="http://www.w3.org/2000/svg" xmlns:xlink="http://www.w3.org/1999/xlink" width="20" height="20" viewBox="0 0 20 20">
<path fill-rule="nonzero" fill="rgb(84.705882%, 0%, 15.294118%)" fill-opacity="1" d="M 20 10 C 20 15.523438 15.523438 20 10 20 C 4.476562 20 0 15.523438 0 10 C 0 4.476562 4.476562 0 10 0 C 15.523438 0 20 4.476562 20 10 Z M 20 10 "/>
<path fill-rule="nonzero" fill="rgb(93.333333%, 93.333333%, 93.333333%)" fill-opacity="1" d="M 11.03125 7.566406 C 10.804688 8.511719 10.402344 8.332031 10.203125 9.15625 C 9.035156 8.875 8.316406 7.699219 8.597656 6.53125 C 8.878906 5.367188 10.050781 4.648438 11.21875 4.925781 C 10.824219 6.574219 11.234375 6.71875 11.03125 7.566406 Z M 11.03125 7.566406 "/>
<path fill-rule="nonzero" fill="rgb(93.333333%, 93.333333%, 93.333333%)" fill-opacity="1" d="M 8.003906 8.265625 C 8.832031 8.773438 8.535156 9.101562 9.257812 9.546875 C 8.632812 10.570312 7.292969 10.890625 6.269531 10.261719 C 5.246094 9.632812 4.925781 8.296875 5.550781 7.273438 C 6.996094 8.160156 7.261719 7.8125 8.003906 8.265625 Z M 8.003906 8.265625 "/>
<path fill-rule="nonzero" fill="rgb(93.333333%, 93.333333%, 93.333333%)" fill-opacity="1" d="M 7.734375 11.363281 C 8.472656 10.730469 8.695312 11.113281 9.339844 10.566406 C 10.117188 11.476562 10.007812 12.851562 9.097656 13.628906 C 8.183594 14.410156 6.8125 14.300781 6.03125 13.386719 C 7.320312 12.285156 7.070312 11.925781 7.734375 11.363281 Z M 7.734375 11.363281 "/>
<path fill-rule="nonzero" fill="rgb(93.333333%, 93.333333%, 93.333333%)" fill-opacity="1" d="M 10.59375 12.578125 C 10.222656 11.679688 10.65625 11.585938 10.332031 10.804688 C 11.441406 10.34375 12.714844 10.871094 13.171875 11.980469 C 13.632812 13.089844 13.105469 14.363281 11.996094 14.820312 C 11.347656 13.253906 10.929688 13.378906 10.59375 12.578125 Z M 10.59375 12.578125 "/>
<path fill-rule="nonzero" fill="rgb(93.333333%, 93.333333%, 93.333333%)" fill-opacity="1" d="M 12.632812 10.230469 C 11.664062 10.304688 11.710938 9.867188 10.867188 9.933594 C 10.773438 8.734375 11.667969 7.6875 12.863281 7.59375 C 14.0625 7.5 15.109375 8.394531 15.203125 9.59375 C 13.511719 9.726562 13.5 10.160156 12.632812 10.230469 Z M 12.632812 10.230469 "/>
</svg>
