<?xml version="1.0" encoding="UTF-8"?>
<svg xmlns="http://www.w3.org/2000/svg" xmlns:xlink="http://www.w3.org/1999/xlink" width="40" height="40" viewBox="0 0 40 40">
<path fill-rule="nonzero" fill="rgb(84.705882%, 0%, 15.294118%)" fill-opacity="1" d="M 40 20 C 40 31.046875 31.046875 40 20 40 C 8.953125 40 0 31.046875 0 20 C 0 8.953125 8.953125 0 20 0 C 31.046875 0 40 8.953125 40 20 Z M 40 20 "/>
<path fill-rule="nonzero" fill="rgb(93.333333%, 93.333333%, 93.333333%)" fill-opacity="1" d="M 22.066406 15.128906 C 21.609375 17.019531 20.804688 16.660156 20.40625 18.308594 C 18.070312 17.746094 16.632812 15.398438 17.195312 13.066406 C 17.757812 10.730469 20.105469 9.292969 22.4375 9.855469 C 21.644531 13.152344 22.472656 13.441406 22.066406 15.128906 Z M 22.066406 15.128906 "/>
<path fill-rule="nonzero" fill="rgb(93.333333%, 93.333333%, 93.333333%)" fill-opacity="1" d="M 16.007812 16.53125 C 17.664062 17.546875 17.070312 18.203125 18.515625 19.089844 C 17.261719 21.136719 14.585938 21.78125 12.539062 20.523438 C 10.492188 19.269531 9.847656 16.59375 11.105469 14.546875 C 13.996094 16.316406 14.523438 15.621094 16.007812 16.53125 Z M 16.007812 16.53125 "/>
<path fill-rule="nonzero" fill="rgb(93.333333%, 93.333333%, 93.333333%)" fill-opacity="1" d="M 15.46875 22.726562 C 16.945312 21.464844 17.386719 22.230469 18.675781 21.128906 C 20.234375 22.957031 20.019531 25.699219 18.191406 27.257812 C 16.367188 28.816406 13.621094 28.601562 12.0625 26.773438 C 14.644531 24.574219 14.144531 23.855469 15.46875 22.726562 Z M 15.46875 22.726562 "/>
<path fill-rule="nonzero" fill="rgb(93.333333%, 93.333333%, 93.333333%)" fill-opacity="1" d="M 21.191406 25.152344 C 20.449219 23.355469 21.3125 23.171875 20.664062 21.605469 C 22.882812 20.6875 25.425781 21.742188 26.34375 23.960938 C 27.261719 26.179688 26.207031 28.722656 23.988281 29.640625 C 22.691406 26.507812 21.855469 26.761719 21.191406 25.152344 Z M 21.191406 25.152344 "/>
<path fill-rule="nonzero" fill="rgb(93.333333%, 93.333333%, 93.333333%)" fill-opacity="1" d="M 25.269531 20.460938 C 23.332031 20.613281 23.425781 19.730469 21.734375 19.863281 C 21.546875 17.472656 23.335938 15.378906 25.726562 15.191406 C 28.121094 15.003906 30.214844 16.789062 30.402344 19.183594 C 27.023438 19.449219 27.003906 20.324219 25.269531 20.460938 Z M 25.269531 20.460938 "/>
</svg>
