<?xml version="1.0" encoding="UTF-8"?>
<svg xmlns="http://www.w3.org/2000/svg" xmlns:xlink="http://www.w3.org/1999/xlink" width="60" height="60" viewBox="0 0 60 60">
<path fill-rule="nonzero" fill="rgb(84.705882%, 0%, 15.294118%)" fill-opacity="1" d="M 60 30 C 60 46.570312 46.570312 60 30 60 C 13.429688 60 0 46.570312 0 30 C 0 13.429688 13.429688 0 30 0 C 46.570312 0 60 13.429688 60 30 Z M 60 30 "/>
<path fill-rule="nonzero" fill="rgb(93.333333%, 93.333333%, 93.333333%)" fill-opacity="1" d="M 33.097656 22.695312 C 32.414062 25.53125 31.203125 24.992188 30.609375 27.464844 C 27.109375 26.621094 24.949219 23.101562 25.792969 19.597656 C 26.632812 16.097656 30.15625 13.941406 33.660156 14.78125 C 32.46875 19.726562 33.707031 20.160156 33.097656 22.695312 Z M 33.097656 22.695312 "/>
<path fill-rule="nonzero" fill="rgb(93.333333%, 93.333333%, 93.333333%)" fill-opacity="1" d="M 24.011719 24.796875 C 26.496094 26.320312 25.609375 27.308594 27.777344 28.636719 C 25.894531 31.707031 21.878906 32.667969 18.808594 30.785156 C 15.738281 28.902344 14.773438 24.886719 16.65625 21.816406 C 20.992188 24.476562 21.785156 23.433594 24.011719 24.796875 Z M 24.011719 24.796875 "/>
<path fill-rule="nonzero" fill="rgb(93.333333%, 93.333333%, 93.333333%)" fill-opacity="1" d="M 23.199219 34.089844 C 25.417969 32.195312 26.082031 33.34375 28.015625 31.695312 C 30.355469 34.433594 30.027344 38.550781 27.289062 40.886719 C 24.550781 43.226562 20.433594 42.902344 18.09375 40.160156 C 21.964844 36.859375 21.214844 35.78125 23.199219 34.089844 Z M 23.199219 34.089844 "/>
<path fill-rule="nonzero" fill="rgb(93.333333%, 93.333333%, 93.333333%)" fill-opacity="1" d="M 31.789062 37.730469 C 30.671875 35.035156 31.96875 34.761719 30.996094 32.410156 C 34.324219 31.03125 38.140625 32.613281 39.515625 35.941406 C 40.894531 39.269531 39.3125 43.085938 35.984375 44.460938 C 34.039062 39.761719 32.785156 40.140625 31.789062 37.730469 Z M 31.789062 37.730469 "/>
<path fill-rule="nonzero" fill="rgb(93.333333%, 93.333333%, 93.333333%)" fill-opacity="1" d="M 37.90625 30.6875 C 34.996094 30.917969 35.136719 29.597656 32.601562 29.796875 C 32.320312 26.207031 35.003906 23.066406 38.59375 22.785156 C 42.183594 22.503906 45.324219 25.1875 45.605469 28.777344 C 40.53125 29.175781 40.503906 30.484375 37.90625 30.6875 Z M 37.90625 30.6875 "/>
</svg>
