<?xml version="1.0" encoding="UTF-8"?>
<svg xmlns="http://www.w3.org/2000/svg" xmlns:xlink="http://www.w3.org/1999/xlink" width="20" height="20" viewBox="0 0 20 20">
<path fill-rule="nonzero" fill="rgb(100%, 85.490196%, 26.666667%)" fill-opacity="1" d="M 20 10 C 20 15.523438 15.523438 20 10 20 C 4.476562 20 0 15.523438 0 10 C 0 4.476562 4.476562 0 10 0 C 15.523438 0 20 4.476562 20 10 Z M 20 10 "/>
<path fill-rule="evenodd" fill="rgb(42.745098%, 64.705882%, 26.666667%)" fill-opacity="1" d="M 15 18.664062 C 17.988281 16.933594 20 13.703125 20 10 C 20 6.296875 17.988281 3.066406 15 1.335938 Z M 15 18.664062 "/>
<path fill-rule="evenodd" fill="rgb(0%, 32.156863%, 70.588235%)" fill-opacity="1" d="M 5 1.335938 L 5 18.660156 C 2.011719 16.933594 0 13.699219 0 10 C 0 6.296875 2.011719 3.066406 5 1.335938 Z M 5 1.335938 "/>
<path fill-rule="nonzero" fill="rgb(42.745098%, 64.705882%, 26.666667%)" fill-opacity="1" d="M 7.828125 12.609375 L 6.085938 10 L 7.824219 7.390625 L 9.566406 10 Z M 7.828125 12.609375 "/>
<path fill-rule="nonzero" fill="rgb(42.745098%, 64.705882%, 26.666667%)" fill-opacity="1" d="M 12.171875 12.609375 L 10.433594 10 L 12.171875 7.390625 L 13.914062 10 Z M 12.171875 12.609375 "/>
<path fill-rule="nonzero" fill="rgb(42.745098%, 64.705882%, 26.666667%)" fill-opacity="1" d="M 10 16.085938 L 8.261719 13.476562 L 10 10.871094 L 11.738281 13.476562 Z M 10 16.085938 "/>
</svg>
