<?xml version="1.0" encoding="UTF-8"?>
<svg xmlns="http://www.w3.org/2000/svg" xmlns:xlink="http://www.w3.org/1999/xlink" width="40" height="40" viewBox="0 0 40 40">
<path fill-rule="nonzero" fill="rgb(100%, 85.490196%, 26.666667%)" fill-opacity="1" d="M 40 20 C 40 31.046875 31.046875 40 20 40 C 8.953125 40 0 31.046875 0 20 C 0 8.953125 8.953125 0 20 0 C 31.046875 0 40 8.953125 40 20 Z M 40 20 "/>
<path fill-rule="evenodd" fill="rgb(42.745098%, 64.705882%, 26.666667%)" fill-opacity="1" d="M 30 37.324219 C 35.976562 33.867188 40 27.402344 40 20 C 40 12.597656 35.976562 6.132812 30 2.675781 Z M 30 37.324219 "/>
<path fill-rule="evenodd" fill="rgb(0%, 32.156863%, 70.588235%)" fill-opacity="1" d="M 10 2.675781 L 10 37.324219 C 4.023438 33.867188 0 27.402344 0 20 C 0 12.597656 4.023438 6.132812 10 2.675781 Z M 10 2.675781 "/>
<path fill-rule="nonzero" fill="rgb(42.745098%, 64.705882%, 26.666667%)" fill-opacity="1" d="M 15.652344 25.21875 L 12.175781 20 L 15.652344 14.78125 L 19.128906 20 Z M 15.652344 25.21875 "/>
<path fill-rule="nonzero" fill="rgb(42.745098%, 64.705882%, 26.666667%)" fill-opacity="1" d="M 24.347656 25.21875 L 20.871094 20 L 24.347656 14.78125 L 27.824219 20 Z M 24.347656 25.21875 "/>
<path fill-rule="nonzero" fill="rgb(42.745098%, 64.705882%, 26.666667%)" fill-opacity="1" d="M 20 32.175781 L 16.523438 26.957031 L 20 21.738281 L 23.476562 26.957031 Z M 20 32.175781 "/>
</svg>
