<?xml version="1.0" encoding="UTF-8"?>
<svg xmlns="http://www.w3.org/2000/svg" xmlns:xlink="http://www.w3.org/1999/xlink" width="60" height="60" viewBox="0 0 60 60">
<path fill-rule="nonzero" fill="rgb(100%, 85.490196%, 26.666667%)" fill-opacity="1" d="M 60 30 C 60 46.570312 46.570312 60 30 60 C 13.429688 60 0 46.570312 0 30 C 0 13.429688 13.429688 0 30 0 C 46.570312 0 60 13.429688 60 30 Z M 60 30 "/>
<path fill-rule="evenodd" fill="rgb(42.745098%, 64.705882%, 26.666667%)" fill-opacity="1" d="M 45 55.984375 C 53.96875 50.800781 60 41.101562 60 30 C 60 18.898438 53.96875 9.199219 45 4.015625 Z M 45 55.984375 "/>
<path fill-rule="evenodd" fill="rgb(0%, 32.156863%, 70.588235%)" fill-opacity="1" d="M 15 4.011719 L 15 55.984375 C 6.03125 50.800781 0 41.101562 0 30 C 0 18.894531 6.03125 9.199219 15 4.011719 Z M 15 4.011719 "/>
<path fill-rule="nonzero" fill="rgb(42.745098%, 64.705882%, 26.666667%)" fill-opacity="1" d="M 23.476562 37.824219 L 18.261719 30 L 23.476562 22.171875 L 28.695312 30 Z M 23.476562 37.824219 "/>
<path fill-rule="nonzero" fill="rgb(42.745098%, 64.705882%, 26.666667%)" fill-opacity="1" d="M 36.523438 37.824219 L 31.304688 30 L 36.523438 22.171875 L 41.738281 30 Z M 36.523438 37.824219 "/>
<path fill-rule="nonzero" fill="rgb(42.745098%, 64.705882%, 26.666667%)" fill-opacity="1" d="M 30 48.261719 L 24.78125 40.433594 L 30 32.609375 L 35.21875 40.433594 Z M 30 48.261719 "/>
</svg>
