<?xml version="1.0" encoding="UTF-8"?>
<svg xmlns="http://www.w3.org/2000/svg" xmlns:xlink="http://www.w3.org/1999/xlink" width="60" height="60" viewBox="0 0 60 60">
<path fill-rule="nonzero" fill="rgb(42.745098%, 64.705882%, 26.666667%)" fill-opacity="1" d="M 0 28.777344 C 0.3125 20.972656 3.605469 13.9375 8.773438 8.773438 L 30 30 L 8.773438 51.222656 C 3.605469 46.0625 0.3125 39.023438 0 31.21875 Z M 0 28.777344 "/>
<path fill-rule="nonzero" fill="rgb(84.705882%, 0%, 15.294118%)" fill-opacity="1" d="M 31.222656 0 C 39.027344 0.3125 46.0625 3.605469 51.226562 8.773438 L 30 30 L 8.777344 8.773438 C 13.9375 3.605469 20.976562 0.3125 28.78125 0 Z M 31.222656 0 "/>
<path fill-rule="nonzero" fill="rgb(42.745098%, 64.705882%, 26.666667%)" fill-opacity="1" d="M 60 31.222656 C 59.6875 39.027344 56.394531 46.0625 51.226562 51.226562 L 30 30 L 51.226562 8.777344 C 56.394531 13.9375 59.6875 20.976562 60 28.78125 Z M 60 31.222656 "/>
<path fill-rule="nonzero" fill="rgb(84.705882%, 0%, 15.294118%)" fill-opacity="1" d="M 28.777344 60 C 20.972656 59.6875 13.9375 56.394531 8.773438 51.226562 L 30 30 L 51.222656 51.226562 C 46.0625 56.394531 39.023438 59.6875 31.21875 60 Z M 28.777344 60 "/>
<path fill-rule="nonzero" fill="rgb(93.333333%, 93.333333%, 93.333333%)" fill-opacity="1" d="M 53.839844 11.785156 L 35.625 30 L 53.839844 48.214844 C 52.222656 50.328125 50.328125 52.222656 48.214844 53.839844 L 30 35.625 L 11.785156 53.839844 C 9.671875 52.222656 7.777344 50.328125 6.160156 48.214844 L 24.375 30 L 6.160156 11.785156 C 7.777344 9.671875 9.671875 7.777344 11.785156 6.160156 L 30 24.375 L 48.214844 6.160156 C 50.328125 7.777344 52.222656 9.671875 53.839844 11.785156 Z M 53.839844 11.785156 "/>
<path fill-rule="nonzero" fill="rgb(93.333333%, 93.333333%, 93.333333%)" fill-opacity="1" d="M 45 30 C 45 21.714844 38.285156 15 30 15 C 21.714844 15 15 21.714844 15 30 C 15 38.285156 21.714844 45 30 45 C 38.285156 45 45 38.285156 45 30 Z M 45 30 "/>
<path fill-rule="nonzero" fill="rgb(84.705882%, 0%, 15.294118%)" fill-opacity="1" d="M 31.128906 20.21875 L 30 18.265625 L 28.871094 20.21875 L 26.613281 20.21875 L 27.742188 22.175781 L 26.613281 24.132812 L 28.871094 24.132812 L 30 26.085938 L 31.128906 24.132812 L 33.386719 24.132812 L 32.257812 22.175781 L 33.386719 20.21875 Z M 31.128906 20.21875 "/>
<path fill-rule="nonzero" fill="rgb(84.705882%, 0%, 15.294118%)" fill-opacity="1" d="M 37.90625 35.867188 L 40.164062 35.867188 L 39.035156 33.910156 L 40.164062 31.957031 L 37.90625 31.957031 L 36.773438 30 L 35.644531 31.957031 L 33.386719 31.957031 L 34.515625 33.910156 L 33.386719 35.867188 L 35.644531 35.867188 L 36.773438 37.824219 Z M 37.90625 35.867188 "/>
<path fill-rule="nonzero" fill="rgb(84.705882%, 0%, 15.294118%)" fill-opacity="1" d="M 20.964844 33.910156 L 19.835938 35.867188 L 22.09375 35.867188 L 23.222656 37.824219 L 24.351562 35.867188 L 26.613281 35.867188 L 25.480469 33.910156 L 26.613281 31.957031 L 24.351562 31.957031 L 23.222656 30 L 22.09375 31.957031 L 19.835938 31.957031 Z M 20.964844 33.910156 "/>
</svg>
