<?xml version="1.0" encoding="UTF-8"?>
<svg xmlns="http://www.w3.org/2000/svg" xmlns:xlink="http://www.w3.org/1999/xlink" width="20" height="20" viewBox="0 0 20 20">
<path fill-rule="nonzero" fill="rgb(100%, 85.490196%, 26.666667%)" fill-opacity="1" d="M 0 10 C 0 15.515625 4.464844 19.988281 9.980469 20 L 10 20 L 11.25 10 L 10 0 C 4.476562 0 0 4.476562 0 10 Z M 0 10 "/>
<path fill-rule="nonzero" fill="rgb(93.333333%, 93.333333%, 93.333333%)" fill-opacity="1" d="M 10.019531 20 L 10 20 L 10 0 C 15.523438 0 20 4.476562 20 10 C 20 15.515625 15.535156 19.988281 10.019531 20 Z M 10.019531 20 "/>
<path fill-rule="nonzero" fill="rgb(67.45098%, 67.058824%, 69.411765%)" fill-opacity="1" d="M 13.828125 8.703125 L 15.707031 11.1875 C 15.414062 11.636719 15.414062 12.238281 15.757812 12.691406 C 16.191406 13.269531 17.007812 13.382812 17.582031 12.945312 C 18.160156 12.511719 18.273438 11.695312 17.835938 11.121094 C 17.496094 10.667969 16.914062 10.5 16.402344 10.664062 L 13.472656 6.789062 L 12.78125 7.3125 L 11.738281 8.097656 L 12.789062 9.488281 Z M 16.535156 11.558594 C 16.726562 11.414062 17 11.453125 17.144531 11.644531 C 17.289062 11.835938 17.25 12.109375 17.058594 12.253906 C 16.867188 12.398438 16.59375 12.359375 16.449219 12.167969 C 16.304688 11.976562 16.34375 11.703125 16.535156 11.558594 Z M 16.535156 11.558594 "/>
<path fill-rule="nonzero" fill="rgb(100%, 77.647059%, 20.784314%)" fill-opacity="1" d="M 17.054688 9.488281 L 18.101562 8.101562 L 17.0625 7.3125 L 16.367188 6.789062 L 13.4375 10.664062 C 12.925781 10.5 12.34375 10.667969 12.003906 11.121094 C 11.570312 11.695312 11.683594 12.511719 12.257812 12.949219 C 12.832031 13.382812 13.648438 13.269531 14.085938 12.691406 C 14.425781 12.242188 14.429688 11.636719 14.132812 11.1875 L 16.011719 8.703125 Z M 13.390625 12.167969 C 13.246094 12.359375 12.972656 12.398438 12.78125 12.253906 C 12.589844 12.109375 12.550781 11.835938 12.695312 11.644531 C 12.839844 11.453125 13.113281 11.414062 13.304688 11.558594 C 13.496094 11.703125 13.535156 11.976562 13.390625 12.167969 Z M 13.390625 12.167969 "/>
</svg>
