<?xml version="1.0" encoding="UTF-8"?>
<svg xmlns="http://www.w3.org/2000/svg" xmlns:xlink="http://www.w3.org/1999/xlink" width="40" height="40" viewBox="0 0 40 40">
<path fill-rule="nonzero" fill="rgb(100%, 85.490196%, 26.666667%)" fill-opacity="1" d="M 0 20 C 0 31.03125 8.933594 39.980469 19.960938 40 L 20 40 L 22.5 20 L 20 0 C 8.953125 0 0 8.953125 0 20 Z M 0 20 "/>
<path fill-rule="nonzero" fill="rgb(93.333333%, 93.333333%, 93.333333%)" fill-opacity="1" d="M 20.039062 40 L 20 40 L 20 0 C 31.046875 0 40 8.953125 40 20 C 40 31.03125 31.066406 39.980469 20.039062 40 Z M 20.039062 40 "/>
<path fill-rule="nonzero" fill="rgb(67.45098%, 67.058824%, 69.411765%)" fill-opacity="1" d="M 27.660156 17.402344 L 31.417969 22.375 C 30.824219 23.273438 30.828125 24.480469 31.511719 25.386719 C 32.382812 26.535156 34.019531 26.761719 35.167969 25.894531 C 36.316406 25.027344 36.542969 23.390625 35.675781 22.242188 C 34.992188 21.335938 33.828125 21 32.804688 21.328125 L 26.945312 13.578125 L 25.558594 14.625 L 23.476562 16.199219 L 25.574219 18.972656 Z M 33.070312 23.121094 C 33.453125 22.828125 34 22.90625 34.289062 23.289062 C 34.578125 23.671875 34.5 24.21875 34.117188 24.507812 C 33.734375 24.796875 33.191406 24.722656 32.902344 24.335938 C 32.609375 23.953125 32.6875 23.410156 33.070312 23.121094 Z M 33.070312 23.121094 "/>
<path fill-rule="nonzero" fill="rgb(100%, 77.647059%, 20.784314%)" fill-opacity="1" d="M 34.105469 18.972656 L 36.203125 16.199219 L 34.121094 14.625 L 32.734375 13.578125 L 26.875 21.328125 C 25.851562 21.003906 24.691406 21.335938 24.007812 22.242188 C 23.136719 23.390625 23.363281 25.027344 24.515625 25.894531 C 25.664062 26.761719 27.300781 26.535156 28.167969 25.386719 C 28.851562 24.480469 28.855469 23.273438 28.265625 22.375 L 32.023438 17.402344 Z M 26.78125 24.339844 C 26.492188 24.722656 25.945312 24.796875 25.5625 24.507812 C 25.179688 24.21875 25.105469 23.671875 25.394531 23.289062 C 25.683594 22.90625 26.226562 22.832031 26.613281 23.121094 C 26.996094 23.410156 27.070312 23.953125 26.78125 24.339844 Z M 26.78125 24.339844 "/>
</svg>
