<?xml version="1.0" encoding="UTF-8"?>
<svg xmlns="http://www.w3.org/2000/svg" xmlns:xlink="http://www.w3.org/1999/xlink" width="60" height="60" viewBox="0 0 60 60">
<path fill-rule="nonzero" fill="rgb(100%, 85.490196%, 26.666667%)" fill-opacity="1" d="M 0 30 C 0 46.550781 13.398438 59.96875 29.941406 60 L 30 60 L 33.75 30 L 30 0 C 13.433594 0 0 13.433594 0 30 Z M 0 30 "/>
<path fill-rule="nonzero" fill="rgb(93.333333%, 93.333333%, 93.333333%)" fill-opacity="1" d="M 30.058594 60 L 30 60 L 30 0 C 46.566406 0 60 13.433594 60 30 C 60 46.550781 46.601562 59.96875 30.058594 60 Z M 30.058594 60 "/>
<path fill-rule="nonzero" fill="rgb(67.45098%, 67.058824%, 69.411765%)" fill-opacity="1" d="M 41.488281 26.105469 L 47.125 33.5625 C 46.238281 34.910156 46.242188 36.71875 47.269531 38.078125 C 48.574219 39.804688 51.027344 40.144531 52.75 38.839844 C 54.476562 37.539062 54.816406 35.085938 53.511719 33.359375 C 52.484375 32 50.742188 31.503906 49.207031 31.992188 L 40.421875 20.367188 L 38.339844 21.9375 L 35.21875 24.296875 L 38.363281 28.460938 Z M 49.605469 34.679688 C 50.179688 34.246094 50.996094 34.359375 51.433594 34.933594 C 51.867188 35.507812 51.753906 36.324219 51.179688 36.761719 C 50.601562 37.195312 49.785156 37.082031 49.351562 36.507812 C 48.917969 35.933594 49.03125 35.113281 49.605469 34.679688 Z M 49.605469 34.679688 "/>
<path fill-rule="nonzero" fill="rgb(100%, 77.647059%, 20.784314%)" fill-opacity="1" d="M 51.15625 28.460938 L 54.304688 24.300781 L 51.183594 21.941406 L 49.101562 20.367188 L 40.316406 31.992188 C 38.777344 31.503906 37.035156 32 36.007812 33.359375 C 34.707031 35.085938 35.046875 37.539062 36.769531 38.84375 C 38.496094 40.144531 40.949219 39.804688 42.253906 38.078125 C 43.28125 36.722656 43.285156 34.910156 42.394531 33.5625 L 48.035156 26.105469 Z M 40.171875 36.507812 C 39.738281 37.082031 38.917969 37.195312 38.34375 36.761719 C 37.769531 36.328125 37.65625 35.507812 38.089844 34.933594 C 38.523438 34.359375 39.34375 34.246094 39.917969 34.679688 C 40.492188 35.113281 40.605469 35.933594 40.171875 36.507812 Z M 40.171875 36.507812 "/>
</svg>
