<?xml version="1.0" encoding="UTF-8"?>
<svg width="16px" height="16px" viewBox="0 0 16 16" version="1.1" xmlns="http://www.w3.org/2000/svg" xmlns:xlink="http://www.w3.org/1999/xlink">
    <title>646CDDC9-A600-456A-8065-C065EC5CC1D4</title>
    <g id="Preferences" stroke="none" stroke-width="1" fill="none" fill-rule="evenodd">
        <g id="Help-Dark" transform="translate(-114.000000, -238.000000)" fill="#FFFFFF" fill-rule="nonzero">
            <g id="Garry" transform="translate(114.000000, 238.000000)">
                <path d="M11,0 C12.1045695,0 13,0.8954305 13,2 C13,2.7398375 12.5982846,3.38584934 12.0010775,3.73181186 L12.0011864,6.10025909 C14.2828356,6.56398776 16,8.58146126 16,11 C16,13.7614237 13.7614237,16 11,16 L5,16 C2.23857625,16 0,13.7614237 0,11 C0,8.5811085 1.71766536,6.56339924 3.99981203,6.10005628 L3.99992752,3.73239368 C3.40216612,3.38657394 3,2.74025244 3,2 C3,0.8954305 3.8954305,0 5,0 C6.1045695,0 7,0.8954305 7,2 C7,2.7398375 6.59828461,3.38584934 6.0010775,3.73181186 L6,6 L10,6 L9.99992752,3.73239368 C9.44270935,3.41002921 9.05545371,2.82654371 9.00548574,2.14926234 L9,2 C9,0.8954305 9.8954305,0 11,0 Z M11,8 L5,8 C3.34314575,8 2,9.34314575 2,11 C2,12.5976809 3.24891996,13.9036609 4.82372721,13.9949073 L5,14 L11,14 C12.6568542,14 14,12.6568542 14,11 C14,9.40231912 12.75108,8.09633912 11.1762728,8.00509269 L11,8 Z" id="garry"></path>
            </g>
        </g>
    </g>
</svg>