<?xml version="1.0" encoding="UTF-8"?>
<svg xmlns="http://www.w3.org/2000/svg" xmlns:xlink="http://www.w3.org/1999/xlink" width="40" height="40" viewBox="0 0 40 40">
<path fill-rule="nonzero" fill="rgb(93.333333%, 93.333333%, 93.333333%)" fill-opacity="1" d="M 37.324219 30 C 39.027344 27.058594 40 23.644531 40 20 C 40 16.355469 39.027344 12.941406 37.324219 10 L 2.675781 10 C 0.972656 12.941406 0 16.355469 0 20 C 0 23.644531 0.972656 27.058594 2.675781 30 Z M 37.324219 30 "/>
<path fill-rule="nonzero" fill="rgb(84.705882%, 0%, 15.294118%)" fill-opacity="1" d="M 19.992188 40 C 12.089844 39.996094 5.253906 35.410156 2.011719 28.75 L 37.988281 28.75 C 34.746094 35.410156 27.910156 39.996094 20.007812 40 Z M 19.992188 40 "/>
<path fill-rule="nonzero" fill="rgb(84.705882%, 0%, 15.294118%)" fill-opacity="1" d="M 20 0 C 12.09375 0 5.257812 4.589844 2.011719 11.25 L 37.988281 11.25 C 34.742188 4.589844 27.910156 0 20 0 Z M 20 0 "/>
<path fill-rule="nonzero" fill="rgb(100%, 77.647059%, 20.784314%)" fill-opacity="1" d="M 26.957031 20 C 26.957031 23.84375 23.839844 26.085938 20 26.085938 C 16.15625 26.085938 13.042969 23.84375 13.042969 20 C 13.042969 16.15625 16.15625 13.042969 20 13.042969 C 23.839844 13.042969 26.957031 16.15625 26.957031 20 Z M 26.957031 20 "/>
<path fill-rule="nonzero" fill="rgb(0%, 32.156863%, 70.588235%)" fill-opacity="1" d="M 26.957031 20 C 26.957031 23.84375 23.839844 26.957031 20 26.957031 C 16.15625 26.957031 13.042969 23.84375 13.042969 20 "/>
<path fill-rule="evenodd" fill="rgb(84.705882%, 0%, 15.294118%)" fill-opacity="1" d="M 20.871094 15.652344 L 19.128906 15.652344 L 19.128906 21.738281 L 20.871094 21.738281 Z M 15.652344 18.261719 L 17.390625 18.261719 L 17.390625 21.738281 L 15.652344 21.738281 Z M 22.609375 18.261719 L 24.347656 18.261719 L 24.347656 21.738281 L 22.609375 21.738281 Z M 22.609375 18.261719 "/>
</svg>
