<?xml version="1.0" encoding="UTF-8"?>
<svg xmlns="http://www.w3.org/2000/svg" xmlns:xlink="http://www.w3.org/1999/xlink" width="60" height="60" viewBox="0 0 60 60">
<path fill-rule="nonzero" fill="rgb(93.333333%, 93.333333%, 93.333333%)" fill-opacity="1" d="M 55.984375 45 C 58.539062 40.585938 60 35.464844 60 30 C 60 24.535156 58.539062 19.414062 55.984375 15 L 4.015625 15 C 1.460938 19.414062 0 24.535156 0 30 C 0 35.464844 1.460938 40.585938 4.015625 45 Z M 55.984375 45 "/>
<path fill-rule="nonzero" fill="rgb(84.705882%, 0%, 15.294118%)" fill-opacity="1" d="M 29.988281 60 C 18.132812 59.996094 7.882812 53.113281 3.015625 43.125 L 56.984375 43.125 C 52.117188 53.113281 41.867188 59.996094 30.007812 60 Z M 29.988281 60 "/>
<path fill-rule="nonzero" fill="rgb(84.705882%, 0%, 15.294118%)" fill-opacity="1" d="M 30 0 C 18.136719 0 7.882812 6.882812 3.015625 16.875 L 56.984375 16.875 C 52.117188 6.882812 41.863281 0 30 0 Z M 30 0 "/>
<path fill-rule="nonzero" fill="rgb(100%, 77.647059%, 20.784314%)" fill-opacity="1" d="M 40.433594 30 C 40.433594 35.761719 35.761719 39.128906 30 39.128906 C 24.238281 39.128906 19.566406 35.761719 19.566406 30 C 19.566406 24.238281 24.238281 19.566406 30 19.566406 C 35.761719 19.566406 40.433594 24.238281 40.433594 30 Z M 40.433594 30 "/>
<path fill-rule="nonzero" fill="rgb(0%, 32.156863%, 70.588235%)" fill-opacity="1" d="M 40.433594 30 C 40.433594 35.761719 35.761719 40.433594 30 40.433594 C 24.238281 40.433594 19.566406 35.761719 19.566406 30 "/>
<path fill-rule="evenodd" fill="rgb(84.705882%, 0%, 15.294118%)" fill-opacity="1" d="M 31.304688 23.476562 L 28.695312 23.476562 L 28.695312 32.609375 L 31.304688 32.609375 Z M 23.476562 27.390625 L 26.085938 27.390625 L 26.085938 32.609375 L 23.476562 32.609375 Z M 33.914062 27.390625 L 36.523438 27.390625 L 36.523438 32.609375 L 33.914062 32.609375 Z M 33.914062 27.390625 "/>
</svg>
