<?xml version="1.0" encoding="UTF-8"?>
<svg xmlns="http://www.w3.org/2000/svg" xmlns:xlink="http://www.w3.org/1999/xlink" width="20" height="20" viewBox="0 0 20 20">
<path fill-rule="nonzero" fill="rgb(0%, 13.333333%, 40%)" fill-opacity="1" d="M 20 10 C 20 15.523438 15.523438 20 10 20 C 4.476562 20 0 15.523438 0 10 C 0 4.476562 4.476562 0 10 0 C 15.523438 0 20 4.476562 20 10 Z M 20 10 "/>
<path fill-rule="evenodd" fill="rgb(100%, 85.490196%, 26.666667%)" fill-opacity="1" d="M 19.921875 11.25 C 19.972656 10.839844 20 10.421875 20 10 C 20 9.578125 19.972656 9.160156 19.921875 8.75 L 0.078125 8.75 C 0.0273438 9.160156 0 9.578125 0 10 C 0 10.421875 0.0273438 10.839844 0.078125 11.25 Z M 19.921875 11.25 "/>
<path fill-rule="nonzero" fill="rgb(93.333333%, 93.333333%, 93.333333%)" fill-opacity="1" d="M 5.625 11.25 L 6.03125 12.867188 L 7.1875 11.667969 L 6.730469 13.269531 L 8.332031 12.8125 L 7.132812 13.96875 L 8.75 14.375 L 7.132812 14.78125 L 8.332031 15.9375 L 6.730469 15.480469 L 7.1875 17.082031 L 6.03125 15.882812 L 5.625 17.5 L 5.21875 15.882812 L 4.0625 17.082031 L 4.519531 15.480469 L 2.917969 15.9375 L 4.117188 14.78125 L 2.5 14.375 L 4.117188 13.96875 L 2.917969 12.8125 L 4.519531 13.269531 L 4.0625 11.667969 L 5.21875 12.867188 Z M 5.625 11.25 "/>
</svg>
