<?xml version="1.0" encoding="UTF-8"?>
<svg xmlns="http://www.w3.org/2000/svg" xmlns:xlink="http://www.w3.org/1999/xlink" width="40" height="40" viewBox="0 0 40 40">
<path fill-rule="nonzero" fill="rgb(0%, 13.333333%, 40%)" fill-opacity="1" d="M 40 20 C 40 31.046875 31.046875 40 20 40 C 8.953125 40 0 31.046875 0 20 C 0 8.953125 8.953125 0 20 0 C 31.046875 0 40 8.953125 40 20 Z M 40 20 "/>
<path fill-rule="evenodd" fill="rgb(100%, 85.490196%, 26.666667%)" fill-opacity="1" d="M 39.84375 22.5 C 39.949219 21.679688 40 20.847656 40 20 C 40 19.152344 39.949219 18.320312 39.84375 17.5 L 0.15625 17.5 C 0.0507812 18.320312 0 19.152344 0 20 C 0 20.847656 0.0507812 21.679688 0.15625 22.5 Z M 39.84375 22.5 "/>
<path fill-rule="nonzero" fill="rgb(93.333333%, 93.333333%, 93.333333%)" fill-opacity="1" d="M 11.25 22.5 L 12.058594 25.730469 L 14.375 23.335938 L 13.460938 26.539062 L 16.664062 25.625 L 14.269531 27.941406 L 17.5 28.75 L 14.269531 29.558594 L 16.664062 31.875 L 13.460938 30.960938 L 14.375 34.164062 L 12.058594 31.769531 L 11.25 35 L 10.441406 31.769531 L 8.125 34.164062 L 9.039062 30.960938 L 5.835938 31.875 L 8.230469 29.558594 L 5 28.75 L 8.230469 27.941406 L 5.835938 25.625 L 9.039062 26.539062 L 8.125 23.335938 L 10.441406 25.730469 Z M 11.25 22.5 "/>
</svg>
