<?xml version="1.0" encoding="UTF-8"?>
<svg xmlns="http://www.w3.org/2000/svg" xmlns:xlink="http://www.w3.org/1999/xlink" width="60" height="60" viewBox="0 0 60 60">
<path fill-rule="nonzero" fill="rgb(0%, 13.333333%, 40%)" fill-opacity="1" d="M 60 30 C 60 46.570312 46.570312 60 30 60 C 13.429688 60 0 46.570312 0 30 C 0 13.429688 13.429688 0 30 0 C 46.570312 0 60 13.429688 60 30 Z M 60 30 "/>
<path fill-rule="evenodd" fill="rgb(100%, 85.490196%, 26.666667%)" fill-opacity="1" d="M 59.769531 33.75 C 59.921875 32.523438 60 31.269531 60 30 C 60 28.730469 59.921875 27.476562 59.769531 26.25 L 0.230469 26.25 C 0.078125 27.476562 0 28.730469 0 30 C 0 31.269531 0.078125 32.523438 0.230469 33.75 Z M 59.769531 33.75 "/>
<path fill-rule="nonzero" fill="rgb(93.333333%, 93.333333%, 93.333333%)" fill-opacity="1" d="M 16.875 33.75 L 18.089844 38.597656 L 21.5625 35.007812 L 20.191406 39.808594 L 24.992188 38.4375 L 21.402344 41.910156 L 26.25 43.125 L 21.402344 44.339844 L 24.992188 47.8125 L 20.191406 46.441406 L 21.5625 51.242188 L 18.089844 47.652344 L 16.875 52.5 L 15.660156 47.652344 L 12.1875 51.242188 L 13.558594 46.441406 L 8.757812 47.8125 L 12.347656 44.339844 L 7.5 43.125 L 12.347656 41.910156 L 8.757812 38.4375 L 13.558594 39.808594 L 12.1875 35.007812 L 15.660156 38.597656 Z M 16.875 33.75 "/>
</svg>
