<?xml version="1.0" encoding="UTF-8"?>
<svg xmlns="http://www.w3.org/2000/svg" xmlns:xlink="http://www.w3.org/1999/xlink" width="60" height="60" viewBox="0 0 60 60">
<path fill-rule="nonzero" fill="rgb(93.333333%, 93.333333%, 93.333333%)" fill-opacity="1" d="M 60 30 C 60 46.570312 46.570312 60 30 60 C 13.429688 60 0 46.570312 0 30 C 0 13.429688 13.429688 0 30 0 C 46.570312 0 60 13.429688 60 30 Z M 60 30 "/>
<path fill-rule="evenodd" fill="rgb(67.45098%, 67.058824%, 69.411765%)" fill-opacity="1" d="M 58.984375 37.765625 L 55.363281 36.796875 C 55.941406 34.632812 56.25 32.355469 56.25 30 C 56.25 27.644531 55.941406 25.363281 55.363281 23.199219 L 58.984375 22.230469 C 59.648438 24.710938 60 27.3125 60 30 C 60 32.6875 59.648438 35.289062 58.984375 37.765625 Z M 55.984375 14.996094 L 52.738281 16.875 C 50.433594 12.890625 47.109375 9.566406 43.125 7.261719 L 45.003906 4.015625 C 49.554688 6.648438 53.351562 10.445312 55.984375 14.996094 Z M 37.769531 1.015625 L 36.800781 4.636719 C 34.636719 4.058594 32.355469 3.75 30 3.75 C 27.644531 3.75 25.367188 4.058594 23.203125 4.636719 L 22.234375 1.015625 C 24.710938 0.351562 27.3125 0 30 0 C 32.6875 0 35.289062 0.351562 37.769531 1.015625 Z M 15 4.015625 L 16.875 7.261719 C 12.890625 9.566406 9.566406 12.890625 7.261719 16.875 L 4.015625 14.996094 C 6.648438 10.445312 10.445312 6.648438 15 4.015625 Z M 1.015625 22.230469 C 0.351562 24.710938 0 27.3125 0 30 C 0 32.6875 0.351562 35.289062 1.015625 37.765625 L 4.636719 36.796875 C 4.058594 34.632812 3.75 32.355469 3.75 30 C 3.75 27.644531 4.058594 25.363281 4.636719 23.199219 Z M 4.015625 45 L 7.261719 43.125 C 9.566406 47.109375 12.890625 50.433594 16.875 52.738281 L 14.996094 55.984375 C 10.445312 53.351562 6.648438 49.554688 4.015625 45 Z M 22.234375 58.984375 L 23.203125 55.363281 C 25.367188 55.941406 27.644531 56.25 30 56.25 C 32.355469 56.25 34.636719 55.941406 36.800781 55.363281 L 37.769531 58.984375 C 35.289062 59.648438 32.6875 60 30 60 C 27.3125 60 24.710938 59.648438 22.234375 58.984375 Z M 45.003906 55.984375 L 43.125 52.738281 C 47.109375 50.433594 50.433594 47.109375 52.738281 43.125 L 55.984375 45.003906 C 53.351562 49.554688 49.554688 53.351562 45.003906 55.984375 Z M 45.003906 55.984375 "/>
<path fill-rule="nonzero" fill="rgb(67.45098%, 67.058824%, 69.411765%)" fill-opacity="1" d="M 30.105469 13.5 C 33.398438 13.5 35.953125 14.285156 37.78125 15.878906 C 39.597656 17.472656 40.5 19.699219 40.511719 22.59375 C 40.515625 23.890625 40.210938 25.167969 39.621094 26.320312 C 38.808594 27.777344 37.761719 29.089844 36.527344 30.210938 L 34.628906 31.992188 C 33.492188 33.027344 32.773438 34.4375 32.601562 35.964844 L 32.507812 37.5 L 26.53125 37.5 C 26.53125 35.332031 26.800781 33.492188 27.328125 32.203125 C 27.996094 30.738281 28.992188 29.441406 30.234375 28.417969 C 31.308594 27.539062 32.25 26.515625 33.035156 25.371094 C 33.503906 24.597656 33.738281 23.765625 33.738281 22.898438 C 33.738281 20.273438 32.53125 18.984375 30.105469 18.984375 C 28.957031 18.984375 28.03125 19.324219 27.351562 20.039062 C 26.625 20.828125 26.234375 21.871094 26.261719 22.945312 L 26.25 24 L 19.5 24 L 19.5 22.5 L 19.523438 22.5 C 19.519531 21.28125 19.773438 20.070312 20.261719 18.953125 C 20.753906 17.835938 21.472656 16.832031 22.371094 16.007812 C 24.257812 14.34375 26.835938 13.5 30.105469 13.5 Z M 30.105469 13.5 "/>
<path fill-rule="nonzero" fill="rgb(67.45098%, 67.058824%, 69.411765%)" fill-opacity="1" d="M 33.398438 44.53125 C 33.398438 46.601562 31.71875 48.28125 29.648438 48.28125 C 27.578125 48.28125 25.898438 46.601562 25.898438 44.53125 C 25.898438 42.460938 27.578125 40.78125 29.648438 40.78125 C 31.71875 40.78125 33.398438 42.460938 33.398438 44.53125 Z M 33.398438 44.53125 "/>
</svg>
