<?xml version="1.0" encoding="UTF-8"?>
<svg xmlns="http://www.w3.org/2000/svg" xmlns:xlink="http://www.w3.org/1999/xlink" width="20" height="20" viewBox="0 0 20 20">
<path fill-rule="nonzero" fill="rgb(93.333333%, 93.333333%, 93.333333%)" fill-opacity="1" d="M 20 10 C 20 15.523438 15.523438 20 10 20 C 4.476562 20 0 15.523438 0 10 C 0 4.476562 4.476562 0 10 0 C 15.523438 0 20 4.476562 20 10 Z M 20 10 "/>
<path fill-rule="evenodd" fill="rgb(67.45098%, 67.058824%, 69.411765%)" fill-opacity="1" d="M 19.660156 12.589844 L 18.453125 12.265625 C 18.648438 11.542969 18.75 10.785156 18.75 10 C 18.75 9.214844 18.648438 8.453125 18.453125 7.734375 L 19.660156 7.410156 C 19.882812 8.238281 20 9.105469 20 10 C 20 10.894531 19.882812 11.761719 19.660156 12.589844 Z M 18.660156 5 L 17.578125 5.625 C 16.8125 4.296875 15.703125 3.1875 14.375 2.421875 L 15 1.339844 C 16.519531 2.214844 17.785156 3.480469 18.660156 5 Z M 12.589844 0.339844 L 12.265625 1.546875 C 11.546875 1.351562 10.785156 1.25 10 1.25 C 9.214844 1.25 8.457031 1.351562 7.734375 1.546875 L 7.410156 0.339844 C 8.238281 0.117188 9.105469 0 10 0 C 10.894531 0 11.761719 0.117188 12.589844 0.339844 Z M 5 1.339844 L 5.625 2.421875 C 4.296875 3.1875 3.1875 4.296875 2.421875 5.625 L 1.339844 5 C 2.214844 3.480469 3.480469 2.214844 5 1.339844 Z M 0.339844 7.410156 C 0.117188 8.238281 0 9.105469 0 10 C 0 10.894531 0.117188 11.761719 0.339844 12.589844 L 1.546875 12.265625 C 1.351562 11.542969 1.25 10.785156 1.25 10 C 1.25 9.214844 1.351562 8.453125 1.546875 7.734375 Z M 1.339844 15 L 2.421875 14.375 C 3.1875 15.703125 4.296875 16.8125 5.625 17.578125 L 5 18.660156 C 3.480469 17.785156 2.214844 16.519531 1.339844 15 Z M 7.410156 19.660156 L 7.734375 18.453125 C 8.457031 18.648438 9.214844 18.75 10 18.75 C 10.785156 18.75 11.546875 18.648438 12.265625 18.453125 L 12.589844 19.660156 C 11.761719 19.882812 10.894531 20 10 20 C 9.105469 20 8.238281 19.882812 7.410156 19.660156 Z M 15 18.660156 L 14.375 17.578125 C 15.703125 16.8125 16.8125 15.703125 17.578125 14.375 L 18.660156 15 C 17.785156 16.519531 16.519531 17.785156 15 18.660156 Z M 15 18.660156 "/>
<path fill-rule="nonzero" fill="rgb(67.45098%, 67.058824%, 69.411765%)" fill-opacity="1" d="M 10.035156 4.5 C 11.132812 4.5 11.984375 4.761719 12.59375 5.292969 C 13.199219 5.824219 13.5 6.566406 13.503906 7.53125 C 13.503906 7.964844 13.402344 8.390625 13.207031 8.773438 C 12.9375 9.257812 12.585938 9.695312 12.175781 10.070312 L 11.542969 10.664062 C 11.164062 11.007812 10.925781 11.480469 10.867188 11.988281 L 10.835938 12.5 L 8.84375 12.5 C 8.84375 11.777344 8.933594 11.164062 9.109375 10.734375 C 9.332031 10.246094 9.664062 9.8125 10.078125 9.472656 C 10.4375 9.179688 10.75 8.839844 11.011719 8.457031 C 11.167969 8.199219 11.246094 7.921875 11.246094 7.632812 C 11.246094 6.757812 10.84375 6.328125 10.035156 6.328125 C 9.652344 6.328125 9.34375 6.441406 9.117188 6.679688 C 8.875 6.941406 8.746094 7.289062 8.753906 7.648438 L 8.75 8 L 6.5 8 L 6.5 7.5 L 6.507812 7.5 C 6.507812 7.09375 6.589844 6.691406 6.753906 6.316406 C 6.917969 5.945312 7.15625 5.609375 7.457031 5.335938 C 8.085938 4.78125 8.945312 4.5 10.035156 4.5 Z M 10.035156 4.5 "/>
<path fill-rule="nonzero" fill="rgb(67.45098%, 67.058824%, 69.411765%)" fill-opacity="1" d="M 11.132812 14.84375 C 11.132812 15.535156 10.574219 16.09375 9.882812 16.09375 C 9.191406 16.09375 8.632812 15.535156 8.632812 14.84375 C 8.632812 14.152344 9.191406 13.59375 9.882812 13.59375 C 10.574219 13.59375 11.132812 14.152344 11.132812 14.84375 Z M 11.132812 14.84375 "/>
</svg>
