<?xml version="1.0" encoding="UTF-8"?>
<svg xmlns="http://www.w3.org/2000/svg" xmlns:xlink="http://www.w3.org/1999/xlink" width="40" height="40" viewBox="0 0 40 40">
<path fill-rule="nonzero" fill="rgb(93.333333%, 93.333333%, 93.333333%)" fill-opacity="1" d="M 40 20 C 40 31.046875 31.046875 40 20 40 C 8.953125 40 0 31.046875 0 20 C 0 8.953125 8.953125 0 20 0 C 31.046875 0 40 8.953125 40 20 Z M 40 20 "/>
<path fill-rule="evenodd" fill="rgb(67.45098%, 67.058824%, 69.411765%)" fill-opacity="1" d="M 39.324219 25.179688 L 36.910156 24.53125 C 37.292969 23.089844 37.5 21.570312 37.5 20 C 37.5 18.429688 37.292969 16.910156 36.910156 15.46875 L 39.324219 14.820312 C 39.765625 16.472656 40 18.210938 40 20 C 40 21.789062 39.765625 23.527344 39.324219 25.179688 Z M 37.324219 10 L 35.160156 11.25 C 33.621094 8.59375 31.40625 6.378906 28.75 4.839844 L 30 2.675781 C 33.035156 4.433594 35.566406 6.964844 37.324219 10 Z M 25.179688 0.675781 L 24.53125 3.089844 C 23.089844 2.707031 21.570312 2.5 20 2.5 C 18.429688 2.5 16.910156 2.707031 15.46875 3.089844 L 14.820312 0.675781 C 16.472656 0.234375 18.210938 0 20 0 C 21.789062 0 23.527344 0.234375 25.179688 0.675781 Z M 10 2.675781 L 11.25 4.839844 C 8.59375 6.378906 6.378906 8.59375 4.839844 11.25 L 2.675781 10 C 4.433594 6.964844 6.964844 4.433594 10 2.675781 Z M 0.675781 14.820312 C 0.234375 16.472656 0 18.210938 0 20 C 0 21.789062 0.234375 23.527344 0.675781 25.179688 L 3.09375 24.53125 C 2.707031 23.089844 2.5 21.570312 2.5 20 C 2.5 18.429688 2.707031 16.910156 3.09375 15.46875 Z M 2.675781 30 L 4.839844 28.75 C 6.378906 31.40625 8.59375 33.621094 11.25 35.160156 L 10 37.324219 C 6.964844 35.566406 4.433594 33.035156 2.675781 30 Z M 14.820312 39.324219 L 15.46875 36.90625 C 16.910156 37.292969 18.429688 37.5 20 37.5 C 21.570312 37.5 23.089844 37.292969 24.53125 36.90625 L 25.179688 39.324219 C 23.527344 39.765625 21.789062 40 20 40 C 18.210938 40 16.472656 39.765625 14.820312 39.324219 Z M 30 37.324219 L 28.75 35.160156 C 31.40625 33.621094 33.621094 31.40625 35.160156 28.75 L 37.324219 30 C 35.566406 33.035156 33.035156 35.566406 30 37.324219 Z M 30 37.324219 "/>
<path fill-rule="nonzero" fill="rgb(67.45098%, 67.058824%, 69.411765%)" fill-opacity="1" d="M 20.070312 9 C 22.265625 9 23.96875 9.523438 25.1875 10.585938 C 26.398438 11.648438 27 13.132812 27.007812 15.0625 C 27.011719 15.925781 26.808594 16.777344 26.414062 17.546875 C 25.871094 18.515625 25.175781 19.394531 24.351562 20.140625 L 23.085938 21.328125 C 22.328125 22.019531 21.847656 22.960938 21.734375 23.976562 L 21.671875 25 L 17.6875 25 C 17.6875 23.554688 17.867188 22.328125 18.21875 21.46875 C 18.664062 20.492188 19.328125 19.628906 20.15625 18.945312 C 20.871094 18.359375 21.5 17.675781 22.023438 16.914062 C 22.335938 16.398438 22.492188 15.84375 22.492188 15.265625 C 22.492188 13.515625 21.6875 12.65625 20.070312 12.65625 C 19.304688 12.65625 18.6875 12.882812 18.234375 13.359375 C 17.75 13.886719 17.488281 14.582031 17.507812 15.296875 L 17.5 16 L 13 16 L 13 15 L 13.015625 15 C 13.015625 14.1875 13.179688 13.382812 13.507812 12.636719 C 13.835938 11.890625 14.3125 11.222656 14.914062 10.671875 C 16.171875 9.5625 17.890625 9 20.070312 9 Z M 20.070312 9 "/>
<path fill-rule="nonzero" fill="rgb(67.45098%, 67.058824%, 69.411765%)" fill-opacity="1" d="M 22.265625 29.6875 C 22.265625 31.066406 21.144531 32.1875 19.765625 32.1875 C 18.386719 32.1875 17.265625 31.066406 17.265625 29.6875 C 17.265625 28.308594 18.386719 27.1875 19.765625 27.1875 C 21.144531 27.1875 22.265625 28.308594 22.265625 29.6875 Z M 22.265625 29.6875 "/>
</svg>
