<?xml version="1.0" encoding="UTF-8"?>
<svg xmlns="http://www.w3.org/2000/svg" xmlns:xlink="http://www.w3.org/1999/xlink" width="20" height="20" viewBox="0 0 20 20">
<path fill-rule="nonzero" fill="rgb(28.627451%, 43.137255%, 17.647059%)" fill-opacity="1" d="M 18.824219 14.707031 C 17.140625 17.855469 13.820312 20 10 20 C 6.179688 20 2.859375 17.855469 1.175781 14.707031 L 10 12.5 Z M 18.824219 14.707031 "/>
<path fill-rule="nonzero" fill="rgb(100%, 85.490196%, 26.666667%)" fill-opacity="1" d="M 18.664062 15 C 19.511719 13.527344 20 11.820312 20 10 L 10 7.5 L 0 10 C 0 11.820312 0.488281 13.527344 1.335938 15 Z M 18.664062 15 "/>
<path fill-rule="nonzero" fill="rgb(20%, 54.117647%, 95.294118%)" fill-opacity="1" d="M 18.421875 4.605469 C 19.421875 6.160156 20 8.011719 20 10 L 0 10 C 0 8.011719 0.578125 6.160156 1.578125 4.605469 L 10 2.5 Z M 18.421875 4.605469 "/>
<path fill-rule="nonzero" fill="rgb(20%, 54.117647%, 95.294118%)" fill-opacity="1" d="M 18.664062 5 L 1.335938 5 C 3.066406 2.011719 6.296875 0 10 0 C 13.703125 0 16.933594 2.011719 18.664062 5 Z M 18.664062 5 "/>
<path fill-rule="evenodd" fill="rgb(100%, 85.490196%, 26.666667%)" fill-opacity="1" d="M 15 2.1875 L 15.4375 3.371094 C 15.296875 3.332031 15.152344 3.3125 15 3.3125 C 14.847656 3.3125 14.703125 3.332031 14.5625 3.371094 Z M 16.191406 3.808594 C 15.988281 3.601562 15.726562 3.449219 15.4375 3.371094 L 16.40625 2.5625 Z M 16.191406 3.808594 L 17.4375 3.59375 L 16.628906 4.5625 C 16.550781 4.273438 16.398438 4.011719 16.191406 3.808594 Z M 16.6875 5 C 16.6875 4.847656 16.667969 4.703125 16.628906 4.5625 L 17.8125 5 L 16.628906 5.4375 C 16.667969 5.296875 16.6875 5.152344 16.6875 5 Z M 16.191406 6.191406 C 16.398438 5.988281 16.550781 5.726562 16.628906 5.4375 L 17.4375 6.40625 Z M 16.191406 6.191406 L 16.40625 7.4375 L 15.4375 6.628906 C 15.726562 6.550781 15.988281 6.398438 16.191406 6.191406 Z M 15 6.6875 C 15.152344 6.6875 15.296875 6.667969 15.4375 6.628906 L 15 7.8125 L 14.5625 6.628906 C 14.703125 6.667969 14.847656 6.6875 15 6.6875 Z M 13.808594 6.191406 C 14.011719 6.398438 14.273438 6.550781 14.5625 6.628906 L 13.59375 7.4375 Z M 13.371094 5.4375 C 13.449219 5.726562 13.601562 5.988281 13.808594 6.191406 L 12.5625 6.40625 Z M 13.3125 5 C 13.3125 5.152344 13.332031 5.296875 13.371094 5.4375 L 12.1875 5 L 13.371094 4.5625 C 13.332031 4.703125 13.3125 4.847656 13.3125 5 Z M 13.808594 3.808594 C 13.601562 4.011719 13.449219 4.273438 13.371094 4.5625 L 12.5625 3.59375 Z M 14.5625 3.371094 C 14.273438 3.449219 14.011719 3.601562 13.808594 3.808594 L 13.59375 2.5625 Z M 15 6.40625 C 15.777344 6.40625 16.40625 5.777344 16.40625 5 C 16.40625 4.222656 15.777344 3.59375 15 3.59375 C 14.222656 3.59375 13.59375 4.222656 13.59375 5 C 13.59375 5.777344 14.222656 6.40625 15 6.40625 Z M 15 6.40625 "/>
</svg>
