<?xml version="1.0" encoding="UTF-8"?>
<svg xmlns="http://www.w3.org/2000/svg" xmlns:xlink="http://www.w3.org/1999/xlink" width="60" height="60" viewBox="0 0 60 60">
<path fill-rule="nonzero" fill="rgb(28.627451%, 43.137255%, 17.647059%)" fill-opacity="1" d="M 56.476562 44.117188 C 51.425781 53.570312 41.464844 60 30 60 C 18.535156 60 8.574219 53.570312 3.523438 44.117188 L 30 37.5 Z M 56.476562 44.117188 "/>
<path fill-rule="nonzero" fill="rgb(100%, 85.490196%, 26.666667%)" fill-opacity="1" d="M 55.984375 45 C 58.539062 40.585938 60 35.464844 60 30 L 30 22.5 L 0 30 C 0 35.464844 1.460938 40.585938 4.011719 45 Z M 55.984375 45 "/>
<path fill-rule="nonzero" fill="rgb(20%, 54.117647%, 95.294118%)" fill-opacity="1" d="M 55.265625 13.816406 C 58.261719 18.484375 60 24.039062 60 30 L 0 30 C 0 24.039062 1.738281 18.484375 4.734375 13.816406 L 30 7.5 Z M 55.265625 13.816406 "/>
<path fill-rule="nonzero" fill="rgb(20%, 54.117647%, 95.294118%)" fill-opacity="1" d="M 55.984375 15 L 4.015625 15 C 9.199219 6.03125 18.898438 0 30 0 C 41.101562 0 50.800781 6.03125 55.984375 15 Z M 55.984375 15 "/>
<path fill-rule="evenodd" fill="rgb(100%, 85.490196%, 26.666667%)" fill-opacity="1" d="M 45 6.5625 L 46.308594 10.109375 C 45.890625 9.996094 45.453125 9.9375 45 9.9375 C 44.546875 9.9375 44.109375 9.996094 43.691406 10.109375 Z M 48.578125 11.421875 C 47.960938 10.800781 47.183594 10.34375 46.3125 10.109375 L 49.21875 7.691406 Z M 48.578125 11.421875 L 52.308594 10.78125 L 49.890625 13.6875 C 49.65625 12.816406 49.199219 12.039062 48.578125 11.421875 Z M 50.0625 15 C 50.0625 14.546875 50.003906 14.109375 49.890625 13.691406 L 53.4375 15 L 49.890625 16.308594 C 50.003906 15.890625 50.0625 15.453125 50.0625 15 Z M 48.578125 18.578125 C 49.199219 17.960938 49.65625 17.183594 49.890625 16.3125 L 52.308594 19.21875 Z M 48.578125 18.578125 L 49.21875 22.308594 L 46.3125 19.890625 C 47.183594 19.65625 47.960938 19.199219 48.578125 18.578125 Z M 45 20.0625 C 45.453125 20.0625 45.890625 20.003906 46.308594 19.890625 L 45 23.4375 L 43.691406 19.890625 C 44.109375 20.003906 44.546875 20.0625 45 20.0625 Z M 41.421875 18.578125 C 42.039062 19.199219 42.816406 19.65625 43.6875 19.890625 L 40.78125 22.308594 Z M 40.109375 16.3125 C 40.34375 17.183594 40.800781 17.960938 41.421875 18.578125 L 37.691406 19.21875 Z M 39.9375 15 C 39.9375 15.453125 39.996094 15.890625 40.109375 16.308594 L 36.5625 15 L 40.109375 13.691406 C 39.996094 14.109375 39.9375 14.546875 39.9375 15 Z M 41.421875 11.421875 C 40.800781 12.039062 40.34375 12.816406 40.109375 13.6875 L 37.691406 10.78125 Z M 43.6875 10.109375 C 42.816406 10.34375 42.039062 10.800781 41.421875 11.421875 L 40.78125 7.691406 Z M 45 19.21875 C 47.328125 19.21875 49.21875 17.328125 49.21875 15 C 49.21875 12.671875 47.328125 10.78125 45 10.78125 C 42.671875 10.78125 40.78125 12.671875 40.78125 15 C 40.78125 17.328125 42.671875 19.21875 45 19.21875 Z M 45 19.21875 "/>
</svg>
