<?xml version="1.0" encoding="UTF-8"?>
<svg xmlns="http://www.w3.org/2000/svg" xmlns:xlink="http://www.w3.org/1999/xlink" width="40" height="40" viewBox="0 0 40 40">
<path fill-rule="nonzero" fill="rgb(28.627451%, 43.137255%, 17.647059%)" fill-opacity="1" d="M 37.652344 29.414062 C 34.285156 35.710938 27.640625 40 20 40 C 12.359375 40 5.714844 35.714844 2.347656 29.414062 L 20 25 Z M 37.652344 29.414062 "/>
<path fill-rule="nonzero" fill="rgb(100%, 85.490196%, 26.666667%)" fill-opacity="1" d="M 37.324219 30 C 39.027344 27.058594 40 23.644531 40 20 L 20 15 L 0 20 C 0 23.644531 0.972656 27.058594 2.675781 30 Z M 37.324219 30 "/>
<path fill-rule="nonzero" fill="rgb(20%, 54.117647%, 95.294118%)" fill-opacity="1" d="M 36.84375 9.210938 C 38.839844 12.324219 40 16.027344 40 20 L 0 20 C 0 16.027344 1.160156 12.324219 3.15625 9.210938 L 20 5 Z M 36.84375 9.210938 "/>
<path fill-rule="nonzero" fill="rgb(20%, 54.117647%, 95.294118%)" fill-opacity="1" d="M 37.324219 10 L 2.675781 10 C 6.132812 4.023438 12.597656 0 20 0 C 27.402344 0 33.867188 4.023438 37.324219 10 Z M 37.324219 10 "/>
<path fill-rule="evenodd" fill="rgb(100%, 85.490196%, 26.666667%)" fill-opacity="1" d="M 30 4.375 L 30.875 6.738281 C 30.59375 6.664062 30.300781 6.625 30 6.625 C 29.699219 6.625 29.40625 6.664062 29.125 6.738281 Z M 32.386719 7.613281 C 31.972656 7.199219 31.453125 6.894531 30.875 6.738281 L 32.8125 5.128906 Z M 32.386719 7.613281 L 34.871094 7.1875 L 33.261719 9.125 C 33.105469 8.546875 32.800781 8.027344 32.386719 7.613281 Z M 33.375 10 C 33.375 9.699219 33.335938 9.40625 33.261719 9.125 L 35.625 10 L 33.261719 10.875 C 33.335938 10.59375 33.375 10.300781 33.375 10 Z M 32.386719 12.386719 C 32.800781 11.972656 33.105469 11.453125 33.261719 10.875 L 34.871094 12.8125 Z M 32.386719 12.386719 L 32.8125 14.871094 L 30.875 13.261719 C 31.453125 13.105469 31.972656 12.800781 32.386719 12.386719 Z M 30 13.375 C 30.300781 13.375 30.59375 13.335938 30.875 13.261719 L 30 15.625 L 29.125 13.261719 C 29.40625 13.335938 29.699219 13.375 30 13.375 Z M 27.613281 12.386719 C 28.027344 12.800781 28.546875 13.105469 29.125 13.261719 L 27.1875 14.871094 Z M 26.738281 10.875 C 26.894531 11.453125 27.199219 11.972656 27.613281 12.386719 L 25.128906 12.8125 Z M 26.625 10 C 26.625 10.300781 26.664062 10.59375 26.738281 10.875 L 24.375 10 L 26.738281 9.125 C 26.664062 9.40625 26.625 9.699219 26.625 10 Z M 27.613281 7.613281 C 27.199219 8.027344 26.894531 8.546875 26.738281 9.125 L 25.128906 7.1875 Z M 29.125 6.738281 C 28.546875 6.894531 28.027344 7.199219 27.613281 7.613281 L 27.1875 5.128906 Z M 30 12.8125 C 31.554688 12.8125 32.8125 11.554688 32.8125 10 C 32.8125 8.445312 31.554688 7.1875 30 7.1875 C 28.445312 7.1875 27.1875 8.445312 27.1875 10 C 27.1875 11.554688 28.445312 12.8125 30 12.8125 Z M 30 12.8125 "/>
</svg>
