<?xml version="1.0" encoding="UTF-8"?>
<svg xmlns="http://www.w3.org/2000/svg" xmlns:xlink="http://www.w3.org/1999/xlink" width="20" height="20" viewBox="0 0 20 20">
<path fill-rule="nonzero" fill="rgb(0%, 32.156863%, 70.588235%)" fill-opacity="1" d="M 20 10 C 20 15.523438 15.523438 20 10 20 C 4.476562 20 0 15.523438 0 10 C 0 4.476562 4.476562 0 10 0 C 15.523438 0 20 4.476562 20 10 Z M 20 10 "/>
<path fill-rule="nonzero" fill="rgb(100%, 77.647059%, 20.784314%)" fill-opacity="1" d="M 14.714844 3.0625 L 15.214844 4.597656 L 16.828125 4.597656 L 15.519531 5.546875 L 16.019531 7.082031 L 14.714844 6.132812 L 13.40625 7.082031 L 13.90625 5.546875 L 12.601562 4.597656 L 14.214844 4.597656 Z M 14.714844 3.0625 "/>
<path fill-rule="nonzero" fill="rgb(100%, 77.647059%, 20.784314%)" fill-opacity="1" d="M 16.667969 7.777344 L 17.164062 9.3125 L 18.78125 9.3125 L 17.472656 10.261719 L 17.972656 11.796875 L 16.667969 10.847656 L 15.359375 11.796875 L 15.859375 10.261719 L 14.554688 9.3125 L 16.167969 9.3125 Z M 16.667969 7.777344 "/>
<path fill-rule="nonzero" fill="rgb(100%, 77.647059%, 20.784314%)" fill-opacity="1" d="M 14.714844 12.492188 L 15.214844 14.027344 L 16.828125 14.027344 L 15.519531 14.976562 L 16.019531 16.511719 L 14.714844 15.5625 L 13.40625 16.511719 L 13.90625 14.976562 L 12.601562 14.027344 L 14.214844 14.027344 Z M 14.714844 12.492188 "/>
<path fill-rule="nonzero" fill="rgb(100%, 77.647059%, 20.784314%)" fill-opacity="1" d="M 10 14.445312 L 10.5 15.980469 L 12.113281 15.980469 L 10.808594 16.929688 L 11.304688 18.464844 L 10 17.515625 L 8.695312 18.464844 L 9.191406 16.929688 L 7.886719 15.980469 L 9.5 15.980469 Z M 10 14.445312 "/>
<path fill-rule="nonzero" fill="rgb(100%, 77.647059%, 20.784314%)" fill-opacity="1" d="M 5.285156 12.492188 L 5.785156 14.027344 L 7.398438 14.027344 L 6.09375 14.976562 L 6.59375 16.511719 L 5.285156 15.5625 L 3.980469 16.511719 L 4.480469 14.976562 L 3.171875 14.027344 L 4.785156 14.027344 Z M 5.285156 12.492188 "/>
<path fill-rule="nonzero" fill="rgb(100%, 77.647059%, 20.784314%)" fill-opacity="1" d="M 3.332031 7.777344 L 3.832031 9.3125 L 5.445312 9.3125 L 4.140625 10.261719 L 4.640625 11.796875 L 3.332031 10.847656 L 2.027344 11.796875 L 2.527344 10.261719 L 1.21875 9.3125 L 2.835938 9.3125 Z M 3.332031 7.777344 "/>
<path fill-rule="nonzero" fill="rgb(100%, 77.647059%, 20.784314%)" fill-opacity="1" d="M 5.285156 3.0625 L 5.785156 4.597656 L 7.398438 4.597656 L 6.09375 5.546875 L 6.59375 7.082031 L 5.285156 6.132812 L 3.980469 7.082031 L 4.480469 5.546875 L 3.171875 4.597656 L 4.785156 4.597656 Z M 5.285156 3.0625 "/>
<path fill-rule="nonzero" fill="rgb(100%, 77.647059%, 20.784314%)" fill-opacity="1" d="M 10 1.109375 L 10.5 2.648438 L 12.113281 2.648438 L 10.808594 3.59375 L 11.304688 5.132812 L 10 4.183594 L 8.695312 5.132812 L 9.191406 3.59375 L 7.886719 2.648438 L 9.5 2.648438 Z M 10 1.109375 "/>
</svg>
