<?xml version="1.0" encoding="UTF-8"?>
<svg xmlns="http://www.w3.org/2000/svg" xmlns:xlink="http://www.w3.org/1999/xlink" width="60" height="60" viewBox="0 0 60 60">
<path fill-rule="nonzero" fill="rgb(0%, 32.156863%, 70.588235%)" fill-opacity="1" d="M 60 30 C 60 46.570312 46.570312 60 30 60 C 13.429688 60 0 46.570312 0 30 C 0 13.429688 13.429688 0 30 0 C 46.570312 0 60 13.429688 60 30 Z M 60 30 "/>
<path fill-rule="nonzero" fill="rgb(100%, 77.647059%, 20.784314%)" fill-opacity="1" d="M 44.140625 9.191406 L 45.640625 13.796875 L 50.484375 13.796875 L 46.5625 16.644531 L 48.0625 21.25 L 44.140625 18.402344 L 40.222656 21.25 L 41.71875 16.644531 L 37.800781 13.796875 L 42.644531 13.796875 Z M 44.140625 9.191406 "/>
<path fill-rule="nonzero" fill="rgb(100%, 77.647059%, 20.784314%)" fill-opacity="1" d="M 50 23.332031 L 51.496094 27.941406 L 56.339844 27.941406 L 52.421875 30.785156 L 53.917969 35.394531 L 50 32.546875 L 46.082031 35.394531 L 47.578125 30.785156 L 43.660156 27.941406 L 48.503906 27.941406 Z M 50 23.332031 "/>
<path fill-rule="nonzero" fill="rgb(100%, 77.647059%, 20.784314%)" fill-opacity="1" d="M 44.140625 37.476562 L 45.640625 42.082031 L 50.484375 42.082031 L 46.5625 44.929688 L 48.0625 49.535156 L 44.140625 46.6875 L 40.222656 49.535156 L 41.71875 44.929688 L 37.800781 42.082031 L 42.644531 42.082031 Z M 44.140625 37.476562 "/>
<path fill-rule="nonzero" fill="rgb(100%, 77.647059%, 20.784314%)" fill-opacity="1" d="M 30 43.332031 L 31.496094 47.941406 L 36.339844 47.941406 L 32.421875 50.785156 L 33.917969 55.394531 L 30 52.546875 L 26.082031 55.394531 L 27.578125 50.785156 L 23.660156 47.941406 L 28.503906 47.941406 Z M 30 43.332031 "/>
<path fill-rule="nonzero" fill="rgb(100%, 77.647059%, 20.784314%)" fill-opacity="1" d="M 15.859375 37.476562 L 17.355469 42.082031 L 22.199219 42.082031 L 18.28125 44.929688 L 19.777344 49.535156 L 15.859375 46.6875 L 11.9375 49.535156 L 13.4375 44.929688 L 9.515625 42.082031 L 14.359375 42.082031 Z M 15.859375 37.476562 "/>
<path fill-rule="nonzero" fill="rgb(100%, 77.647059%, 20.784314%)" fill-opacity="1" d="M 10 23.332031 L 11.496094 27.941406 L 16.339844 27.941406 L 12.421875 30.785156 L 13.917969 35.394531 L 10 32.546875 L 6.082031 35.394531 L 7.578125 30.785156 L 3.660156 27.941406 L 8.503906 27.941406 Z M 10 23.332031 "/>
<path fill-rule="nonzero" fill="rgb(100%, 77.647059%, 20.784314%)" fill-opacity="1" d="M 15.859375 9.191406 L 17.355469 13.796875 L 22.199219 13.796875 L 18.28125 16.644531 L 19.777344 21.25 L 15.859375 18.402344 L 11.9375 21.25 L 13.4375 16.644531 L 9.515625 13.796875 L 14.359375 13.796875 Z M 15.859375 9.191406 "/>
<path fill-rule="nonzero" fill="rgb(100%, 77.647059%, 20.784314%)" fill-opacity="1" d="M 30 3.332031 L 31.496094 7.941406 L 36.339844 7.941406 L 32.421875 10.785156 L 33.917969 15.394531 L 30 12.546875 L 26.082031 15.394531 L 27.578125 10.785156 L 23.660156 7.941406 L 28.503906 7.941406 Z M 30 3.332031 "/>
</svg>
