<?xml version="1.0" encoding="UTF-8"?>
<svg xmlns="http://www.w3.org/2000/svg" xmlns:xlink="http://www.w3.org/1999/xlink" width="40" height="40" viewBox="0 0 40 40">
<path fill-rule="nonzero" fill="rgb(0%, 32.156863%, 70.588235%)" fill-opacity="1" d="M 40 20 C 40 31.046875 31.046875 40 20 40 C 8.953125 40 0 31.046875 0 20 C 0 8.953125 8.953125 0 20 0 C 31.046875 0 40 8.953125 40 20 Z M 40 20 "/>
<path fill-rule="nonzero" fill="rgb(100%, 77.647059%, 20.784314%)" fill-opacity="1" d="M 29.429688 6.128906 L 30.425781 9.199219 L 33.65625 9.199219 L 31.042969 11.097656 L 32.039062 14.167969 L 29.429688 12.269531 L 26.816406 14.167969 L 27.8125 11.097656 L 25.203125 9.199219 L 28.429688 9.199219 Z M 29.429688 6.128906 "/>
<path fill-rule="nonzero" fill="rgb(100%, 77.647059%, 20.784314%)" fill-opacity="1" d="M 33.332031 15.554688 L 34.332031 18.625 L 37.558594 18.625 L 34.949219 20.523438 L 35.945312 23.59375 L 33.332031 21.699219 L 30.71875 23.59375 L 31.71875 20.523438 L 29.105469 18.625 L 32.335938 18.625 Z M 33.332031 15.554688 "/>
<path fill-rule="nonzero" fill="rgb(100%, 77.647059%, 20.784314%)" fill-opacity="1" d="M 29.429688 24.984375 L 30.425781 28.054688 L 33.65625 28.054688 L 31.042969 29.953125 L 32.039062 33.023438 L 29.429688 31.125 L 26.816406 33.023438 L 27.8125 29.953125 L 25.203125 28.054688 L 28.429688 28.054688 Z M 29.429688 24.984375 "/>
<path fill-rule="nonzero" fill="rgb(100%, 77.647059%, 20.784314%)" fill-opacity="1" d="M 20 28.890625 L 20.996094 31.960938 L 24.226562 31.960938 L 21.613281 33.859375 L 22.613281 36.929688 L 20 35.03125 L 17.386719 36.929688 L 18.386719 33.859375 L 15.773438 31.960938 L 19.003906 31.960938 Z M 20 28.890625 "/>
<path fill-rule="nonzero" fill="rgb(100%, 77.647059%, 20.784314%)" fill-opacity="1" d="M 10.570312 24.984375 L 11.570312 28.054688 L 14.796875 28.054688 L 12.1875 29.953125 L 13.183594 33.023438 L 10.570312 31.125 L 7.960938 33.023438 L 8.957031 29.953125 L 6.34375 28.054688 L 9.574219 28.054688 Z M 10.570312 24.984375 "/>
<path fill-rule="nonzero" fill="rgb(100%, 77.647059%, 20.784314%)" fill-opacity="1" d="M 6.667969 15.554688 L 7.664062 18.625 L 10.894531 18.625 L 8.28125 20.523438 L 9.277344 23.59375 L 6.667969 21.699219 L 4.054688 23.59375 L 5.050781 20.523438 L 2.441406 18.625 L 5.667969 18.625 Z M 6.667969 15.554688 "/>
<path fill-rule="nonzero" fill="rgb(100%, 77.647059%, 20.784314%)" fill-opacity="1" d="M 10.570312 6.128906 L 11.570312 9.199219 L 14.796875 9.199219 L 12.1875 11.097656 L 13.183594 14.167969 L 10.570312 12.269531 L 7.960938 14.167969 L 8.957031 11.097656 L 6.34375 9.199219 L 9.574219 9.199219 Z M 10.570312 6.128906 "/>
<path fill-rule="nonzero" fill="rgb(100%, 77.647059%, 20.784314%)" fill-opacity="1" d="M 20 2.222656 L 20.996094 5.292969 L 24.226562 5.292969 L 21.613281 7.191406 L 22.613281 10.261719 L 20 8.363281 L 17.386719 10.261719 L 18.386719 7.191406 L 15.773438 5.292969 L 19.003906 5.292969 Z M 20 2.222656 "/>
</svg>
