<svg width="189" height="94" viewBox="0 0 189 94" fill="none" xmlns="http://www.w3.org/2000/svg">
<mask id="mask0_1623_2059" style="mask-type:alpha" maskUnits="userSpaceOnUse" x="0" y="0" width="189" height="94">
<path d="M189 11C189 4.92487 184.075 0 178 0L11.0263 0C4.95117 0 0.0263062 4.92487 0.0263062 11V83C0.0263062 89.0751 4.95117 94 11.0263 94H178C184.075 94 189 89.0751 189 83V11Z" fill="white"/>
</mask>
<g mask="url(#mask0_1623_2059)">
<path d="M131.89 -36.2807C141.395 -36.2807 150.379 -34.0981 158.353 -30.2156C151.325 -24.0573 142.053 -20.3142 131.89 -20.3142C121.728 -20.3142 112.456 -24.0573 105.427 -30.2156C113.401 -34.0981 122.386 -36.2807 131.89 -36.2807Z" fill="white"/>
<path d="M114.146 -22.4347C119.527 -19.937 125.543 -18.5401 131.89 -18.5401C138.238 -18.5401 144.253 -19.937 149.635 -22.4347C149.732 -22.4798 149.829 -22.5253 149.926 -22.5712C153.649 -24.3341 157.063 -26.6258 160.067 -29.3468C160.075 -29.354 160.083 -29.3611 160.091 -29.3683C178.557 -19.6692 191.188 -0.741657 191.52 21.0971C172.547 27.2728 152.67 22.859 134.601 11.3852C129.003 7.83024 122.87 5.22929 116.6 3.80089C111.471 7.65977 108.024 13.5404 107.503 20.2122H103.879C104.334 13.4632 107.377 7.40475 112.048 2.97533C97.3474 0.994999 82.4245 5.65983 72.2979 19.7303C73.1233 -1.52959 85.6104 -19.8722 103.69 -29.3683C103.698 -29.3611 103.705 -29.354 103.713 -29.3468C103.734 -29.3278 103.756 -29.3087 103.777 -29.2896C106.844 -26.5229 110.336 -24.2029 114.146 -22.4347Z" fill="white"/>
<path d="M139.963 21.9776C139.963 26.8526 135.918 30.8046 130.927 30.8046C125.937 30.8046 121.892 26.8526 121.892 21.9776C121.892 17.1026 125.937 13.1506 130.927 13.1506C135.918 13.1506 139.963 17.1026 139.963 21.9776Z" fill="white"/>
<path d="M145.126 40.2505C149.866 36.7347 153.194 31.5022 154.144 25.5084H157.796C157.169 30.1057 155.334 34.3301 152.614 37.8674L191.436 25.5131C190.231 47.1299 177.08 65.6238 158.353 74.7419C151.325 68.5836 142.053 64.8405 131.89 64.8405C121.728 64.8405 112.456 68.5836 105.427 74.7419C97.7335 70.9959 90.981 65.6673 85.6114 59.1899L122.973 47.3002C112.997 44.3133 105.47 35.8553 104.059 25.5084H107.711C109.429 36.351 118.931 44.7028 130.494 44.9067L145.126 40.2505Z" fill="white"/>
<path d="M156.575 75.5719C149.053 78.9341 140.694 80.807 131.89 80.807C123.086 80.807 114.727 78.9341 107.205 75.5719C113.841 69.9879 122.465 66.6146 131.89 66.6146C141.316 66.6146 149.939 69.9879 156.575 75.5719Z" fill="white"/>
<path d="M72.2562 22.7293C72.3595 35.7299 76.7793 47.7213 84.1781 57.3906L93.6368 54.2954C86.4905 45.846 82.1937 34.9907 82.1937 23.1502C82.1937 19.1857 82.6754 15.3316 83.5845 11.6413C79.4095 14.4244 75.5744 18.0951 72.2562 22.7293Z" fill="white"/>
</g>
</svg>
