<?xml version="1.0" encoding="UTF-8"?>
<svg xmlns="http://www.w3.org/2000/svg" xmlns:xlink="http://www.w3.org/1999/xlink" width="60" height="60" viewBox="0 0 60 60">
<path fill-rule="nonzero" fill="rgb(84.705882%, 0%, 15.294118%)" fill-opacity="1" d="M 60 30 C 60 46.570312 46.570312 60 30 60 C 13.429688 60 0 46.570312 0 30 C 0 13.429688 13.429688 0 30 0 C 46.570312 0 60 13.429688 60 30 Z M 60 30 "/>
<path fill-rule="evenodd" fill="rgb(93.333333%, 93.333333%, 93.333333%)" fill-opacity="1" d="M 44.347656 30 C 44.347656 37.925781 37.921875 44.347656 30 44.347656 C 22.074219 44.347656 15.652344 37.925781 15.652344 30 C 15.652344 22.074219 22.074219 15.652344 30 15.652344 C 37.921875 15.652344 44.347656 22.074219 44.347656 30 Z M 33.261719 38.476562 C 28.578125 38.476562 24.78125 34.683594 24.78125 30 C 24.78125 25.316406 28.578125 21.523438 33.261719 21.523438 C 34.71875 21.523438 36.09375 21.890625 37.292969 22.539062 C 35.410156 20.699219 32.839844 19.566406 30 19.566406 C 24.238281 19.566406 19.566406 24.238281 19.566406 30 C 19.566406 35.761719 24.238281 40.433594 30 40.433594 C 32.839844 40.433594 35.410156 39.300781 37.292969 37.460938 C 36.09375 38.109375 34.71875 38.476562 33.261719 38.476562 Z M 31.765625 24.515625 L 34.226562 27.90625 L 38.214844 26.613281 L 35.75 30.003906 L 38.210938 33.394531 L 34.226562 32.097656 L 31.761719 35.484375 L 31.761719 31.296875 L 27.777344 29.996094 L 31.765625 28.707031 Z M 31.765625 24.515625 "/>
</svg>
