<?xml version="1.0" encoding="UTF-8"?>
<svg xmlns="http://www.w3.org/2000/svg" xmlns:xlink="http://www.w3.org/1999/xlink" width="40" height="40" viewBox="0 0 40 40">
<path fill-rule="nonzero" fill="rgb(84.705882%, 0%, 15.294118%)" fill-opacity="1" d="M 40 20 C 40 31.046875 31.046875 40 20 40 C 8.953125 40 0 31.046875 0 20 C 0 8.953125 8.953125 0 20 0 C 31.046875 0 40 8.953125 40 20 Z M 40 20 "/>
<path fill-rule="evenodd" fill="rgb(93.333333%, 93.333333%, 93.333333%)" fill-opacity="1" d="M 29.566406 20 C 29.566406 25.28125 25.28125 29.566406 20 29.566406 C 14.714844 29.566406 10.433594 25.28125 10.433594 20 C 10.433594 14.71875 14.714844 10.433594 20 10.433594 C 25.28125 10.433594 29.566406 14.71875 29.566406 20 Z M 22.171875 25.652344 C 19.050781 25.652344 16.519531 23.121094 16.519531 20 C 16.519531 16.878906 19.050781 14.347656 22.171875 14.347656 C 23.148438 14.347656 24.0625 14.59375 24.863281 15.027344 C 23.609375 13.800781 21.894531 13.042969 20 13.042969 C 16.15625 13.042969 13.042969 16.15625 13.042969 20 C 13.042969 23.84375 16.15625 26.957031 20 26.957031 C 21.894531 26.957031 23.609375 26.199219 24.863281 24.972656 C 24.0625 25.40625 23.148438 25.652344 22.171875 25.652344 Z M 21.179688 16.34375 L 22.820312 18.605469 L 25.476562 17.742188 L 23.832031 20 L 25.472656 22.261719 L 22.816406 21.398438 L 21.171875 23.65625 L 21.175781 20.863281 L 18.519531 20 L 21.175781 19.136719 Z M 21.179688 16.34375 "/>
</svg>
