<?xml version="1.0" encoding="UTF-8"?>
<svg xmlns="http://www.w3.org/2000/svg" xmlns:xlink="http://www.w3.org/1999/xlink" width="20" height="20" viewBox="0 0 20 20">
<path fill-rule="nonzero" fill="rgb(84.705882%, 0%, 15.294118%)" fill-opacity="1" d="M 20 10 C 20 15.523438 15.523438 20 10 20 C 4.476562 20 0 15.523438 0 10 C 0 4.476562 4.476562 0 10 0 C 15.523438 0 20 4.476562 20 10 Z M 20 10 "/>
<path fill-rule="evenodd" fill="rgb(93.333333%, 93.333333%, 93.333333%)" fill-opacity="1" d="M 14.78125 10 C 14.78125 12.640625 12.640625 14.78125 10 14.78125 C 7.359375 14.78125 5.21875 12.640625 5.21875 10 C 5.21875 7.359375 7.359375 5.21875 10 5.21875 C 12.640625 5.21875 14.78125 7.359375 14.78125 10 Z M 11.085938 12.824219 C 9.527344 12.824219 8.261719 11.5625 8.261719 10 C 8.261719 8.4375 9.527344 7.175781 11.085938 7.175781 C 11.574219 7.175781 12.03125 7.296875 12.429688 7.511719 C 11.804688 6.898438 10.945312 6.523438 10 6.523438 C 8.078125 6.523438 6.523438 8.078125 6.523438 10 C 6.523438 11.921875 8.078125 13.476562 10 13.476562 C 10.945312 13.476562 11.804688 13.101562 12.429688 12.488281 C 12.03125 12.703125 11.574219 12.824219 11.085938 12.824219 Z M 10.589844 8.171875 L 11.410156 9.300781 L 12.738281 8.871094 L 11.917969 10 L 12.738281 11.132812 L 11.410156 10.699219 L 10.585938 11.828125 L 10.585938 10.433594 L 9.257812 10 L 10.589844 9.570312 Z M 10.589844 8.171875 "/>
</svg>
