<?xml version="1.0" encoding="UTF-8"?>
<svg xmlns="http://www.w3.org/2000/svg" xmlns:xlink="http://www.w3.org/1999/xlink" width="40" height="40" viewBox="0 0 40 40">
<path fill-rule="nonzero" fill="rgb(0%, 32.156863%, 70.588235%)" fill-opacity="1" d="M 34.144531 34.140625 L 22.5 17.5 L 5.859375 5.855469 C 2.238281 9.476562 0 14.476562 0 20 C 0 30.972656 8.835938 39.878906 19.777344 40 L 20.222656 40 C 25.65625 39.9375 30.574219 37.710938 34.144531 34.140625 Z M 34.144531 34.140625 "/>
<path fill-rule="nonzero" fill="rgb(42.745098%, 64.705882%, 26.666667%)" fill-opacity="1" d="M 34.144531 34.140625 L 5.859375 5.855469 C 9.476562 2.238281 14.476562 0 20 0 C 31.042969 0 39.996094 8.949219 40 19.992188 L 40 20.007812 C 40 25.527344 37.761719 30.523438 34.144531 34.140625 Z M 34.144531 34.140625 "/>
<path fill-rule="nonzero" fill="rgb(93.333333%, 93.333333%, 93.333333%)" fill-opacity="1" d="M 7.445312 28.695312 L 7.996094 29.84375 L 9.234375 29.554688 L 8.679688 30.699219 L 9.675781 31.492188 L 8.4375 31.769531 L 8.441406 33.042969 L 7.449219 32.246094 L 6.453125 33.042969 L 6.457031 31.769531 L 5.21875 31.492188 L 6.214844 30.699219 L 5.660156 29.554688 L 6.898438 29.84375 L 7.449219 28.695312 Z M 7.445312 28.695312 "/>
<path fill-rule="nonzero" fill="rgb(93.333333%, 93.333333%, 93.333333%)" fill-opacity="1" d="M 3.855469 19.128906 L 4.40625 20.277344 L 5.644531 19.992188 L 5.089844 21.136719 L 6.085938 21.925781 L 4.847656 22.207031 L 4.847656 23.476562 L 3.855469 22.683594 L 2.863281 23.476562 L 2.867188 22.207031 L 1.628906 21.925781 L 2.625 21.136719 L 2.070312 19.992188 L 3.308594 20.277344 Z M 3.855469 19.128906 "/>
<path fill-rule="nonzero" fill="rgb(93.333333%, 93.333333%, 93.333333%)" fill-opacity="1" d="M 7.445312 11.304688 L 7.996094 12.453125 L 9.234375 12.164062 L 8.679688 13.308594 L 9.675781 14.101562 L 8.4375 14.378906 L 8.441406 15.652344 L 7.449219 14.855469 L 6.453125 15.652344 L 6.457031 14.378906 L 5.21875 14.101562 L 6.214844 13.308594 L 5.660156 12.164062 L 6.898438 12.453125 L 7.449219 11.304688 Z M 7.445312 11.304688 "/>
<path fill-rule="nonzero" fill="rgb(93.333333%, 93.333333%, 93.333333%)" fill-opacity="1" d="M 11.90625 17.390625 L 12.457031 18.539062 L 13.695312 18.253906 L 13.140625 19.398438 L 14.136719 20.1875 L 12.894531 20.46875 L 12.898438 21.738281 L 11.90625 20.945312 L 10.914062 21.738281 L 10.917969 20.46875 L 9.675781 20.1875 L 10.675781 19.398438 L 10.117188 18.253906 L 11.359375 18.539062 Z M 11.90625 17.390625 "/>
<path fill-rule="nonzero" fill="rgb(93.333333%, 93.333333%, 93.333333%)" fill-opacity="1" d="M 8.71875 22.609375 L 9.148438 23.9375 L 10.546875 23.9375 L 9.417969 24.757812 L 9.847656 26.085938 L 8.71875 25.265625 L 7.585938 26.085938 L 8.019531 24.757812 L 6.890625 23.9375 L 8.285156 23.9375 Z M 8.71875 22.609375 "/>
<path fill-rule="nonzero" fill="rgb(100%, 85.490196%, 26.666667%)" fill-opacity="1" d="M 20 25.21875 C 22.882812 25.21875 25.21875 22.882812 25.21875 20 C 25.21875 17.117188 22.882812 14.78125 20 14.78125 C 17.117188 14.78125 14.78125 17.117188 14.78125 20 C 14.78125 22.882812 17.117188 25.21875 20 25.21875 Z M 20 25.21875 "/>
<path fill-rule="nonzero" fill="rgb(42.745098%, 64.705882%, 26.666667%)" fill-opacity="1" d="M 20 23.476562 L 21.738281 23.476562 C 21.738281 23.476562 22.492188 22.144531 21.738281 20.871094 L 23.476562 19.128906 L 22.609375 17.390625 L 21.738281 17.390625 C 21.738281 17.390625 21.304688 18.695312 19.566406 18.695312 C 17.828125 18.695312 17.390625 17.390625 17.390625 17.390625 L 16.523438 17.390625 L 17.390625 19.128906 L 16.523438 20.871094 L 17.390625 21.738281 C 17.390625 21.738281 18.261719 20 20 20.871094 C 20 20.871094 20.738281 21.957031 20 23.476562 Z M 20 23.476562 "/>
<path fill-rule="nonzero" fill="rgb(100%, 85.490196%, 26.666667%)" fill-opacity="1" d="M 32.980469 10.953125 C 33.023438 10.742188 33.042969 10.519531 33.042969 10.296875 C 33.042969 8.75 32.035156 7.4375 30.636719 6.984375 C 31.0625 7.851562 31.304688 8.828125 31.304688 9.859375 C 31.304688 10.207031 31.277344 10.550781 31.222656 10.882812 C 31.011719 10.542969 30.742188 10.234375 30.414062 9.972656 C 29.171875 8.984375 27.472656 8.957031 26.21875 9.789062 C 27.1875 10.003906 28.125 10.433594 28.953125 11.089844 C 29.601562 11.609375 30.125 12.304688 30.527344 12.980469 L 25.21875 14.644531 C 30.433594 15.511719 34.78125 12.035156 34.78125 12.035156 C 34.300781 11.070312 33.554688 10.910156 32.980469 10.953125 Z M 32.980469 10.953125 "/>
</svg>
