<?xml version="1.0" encoding="UTF-8"?>
<svg xmlns="http://www.w3.org/2000/svg" xmlns:xlink="http://www.w3.org/1999/xlink" width="60" height="60" viewBox="0 0 60 60">
<path fill-rule="nonzero" fill="rgb(0%, 32.156863%, 70.588235%)" fill-opacity="1" d="M 51.214844 51.210938 L 33.75 26.25 L 8.789062 8.785156 C 3.359375 14.214844 0 21.714844 0 30 C 0 46.457031 13.25 59.820312 29.667969 59.996094 L 30.335938 59.996094 C 38.488281 59.910156 45.859375 56.566406 51.214844 51.210938 Z M 51.214844 51.210938 "/>
<path fill-rule="nonzero" fill="rgb(42.745098%, 64.705882%, 26.666667%)" fill-opacity="1" d="M 51.214844 51.210938 L 8.789062 8.785156 C 14.214844 3.355469 21.714844 0 30 0 C 46.566406 0 59.992188 13.425781 60 29.988281 L 60 30.007812 C 59.996094 38.289062 56.640625 45.785156 51.214844 51.210938 Z M 51.214844 51.210938 "/>
<path fill-rule="nonzero" fill="rgb(93.333333%, 93.333333%, 93.333333%)" fill-opacity="1" d="M 11.171875 43.042969 L 11.996094 44.765625 L 13.851562 44.335938 L 13.019531 46.050781 L 14.515625 47.238281 L 12.652344 47.65625 L 12.660156 49.566406 L 11.171875 48.371094 L 9.683594 49.566406 L 9.6875 47.65625 L 7.824219 47.238281 L 9.320312 46.050781 L 8.488281 44.335938 L 10.347656 44.765625 Z M 11.171875 43.042969 "/>
<path fill-rule="nonzero" fill="rgb(93.333333%, 93.333333%, 93.333333%)" fill-opacity="1" d="M 5.785156 28.695312 L 6.609375 30.417969 L 8.46875 29.988281 L 7.636719 31.703125 L 9.128906 32.890625 L 7.269531 33.308594 L 7.273438 35.21875 L 5.785156 34.023438 L 4.296875 35.21875 L 4.300781 33.308594 L 2.441406 32.890625 L 3.9375 31.703125 L 3.105469 29.988281 L 4.960938 30.417969 Z M 5.785156 28.695312 "/>
<path fill-rule="nonzero" fill="rgb(93.333333%, 93.333333%, 93.333333%)" fill-opacity="1" d="M 11.171875 16.957031 L 11.996094 18.679688 L 13.851562 18.25 L 13.019531 19.964844 L 14.515625 21.152344 L 12.652344 21.570312 L 12.660156 23.480469 L 11.171875 22.285156 L 9.683594 23.480469 L 9.6875 21.570312 L 7.828125 21.152344 L 9.320312 19.964844 L 8.488281 18.25 L 10.347656 18.679688 Z M 11.171875 16.957031 "/>
<path fill-rule="nonzero" fill="rgb(93.333333%, 93.333333%, 93.333333%)" fill-opacity="1" d="M 17.859375 26.085938 L 18.683594 27.808594 L 20.542969 27.378906 L 19.710938 29.097656 L 21.207031 30.28125 L 19.34375 30.699219 L 19.347656 32.609375 L 17.859375 31.414062 L 16.371094 32.609375 L 16.378906 30.699219 L 14.515625 30.28125 L 16.011719 29.097656 L 15.179688 27.378906 L 17.039062 27.808594 Z M 17.859375 26.085938 "/>
<path fill-rule="nonzero" fill="rgb(93.333333%, 93.333333%, 93.333333%)" fill-opacity="1" d="M 13.078125 33.914062 L 13.722656 35.90625 L 15.820312 35.90625 L 14.125 37.136719 L 14.773438 39.128906 L 13.078125 37.898438 L 11.382812 39.128906 L 12.03125 37.136719 L 10.335938 35.90625 L 12.429688 35.90625 Z M 13.078125 33.914062 "/>
<path fill-rule="nonzero" fill="rgb(100%, 85.490196%, 26.666667%)" fill-opacity="1" d="M 30 37.824219 C 34.320312 37.824219 37.824219 34.320312 37.824219 30 C 37.824219 25.675781 34.320312 22.171875 30 22.171875 C 25.679688 22.171875 22.175781 25.675781 22.175781 30 C 22.175781 34.320312 25.679688 37.824219 30 37.824219 Z M 30 37.824219 "/>
<path fill-rule="nonzero" fill="rgb(42.745098%, 64.705882%, 26.666667%)" fill-opacity="1" d="M 30 35.21875 L 32.609375 35.21875 C 32.609375 35.21875 33.738281 33.21875 32.609375 31.304688 L 35.21875 28.695312 L 33.914062 26.085938 L 32.609375 26.085938 C 32.609375 26.085938 31.957031 28.042969 29.347656 28.042969 C 26.738281 28.042969 26.085938 26.085938 26.085938 26.085938 L 24.78125 26.085938 L 26.085938 28.695312 L 24.78125 31.304688 L 26.085938 32.609375 C 26.085938 32.609375 27.390625 30 30 31.304688 C 30 31.304688 31.109375 32.933594 30 35.21875 Z M 30 35.21875 "/>
<path fill-rule="nonzero" fill="rgb(100%, 85.490196%, 26.666667%)" fill-opacity="1" d="M 49.46875 16.433594 C 49.53125 16.113281 49.566406 15.78125 49.566406 15.441406 C 49.566406 13.121094 48.050781 11.15625 45.957031 10.480469 C 46.59375 11.78125 46.957031 13.242188 46.957031 14.789062 C 46.957031 15.3125 46.914062 15.824219 46.835938 16.324219 C 46.519531 15.816406 46.117188 15.351562 45.621094 14.957031 C 43.757812 13.476562 41.210938 13.4375 39.328125 14.6875 C 40.78125 15.003906 42.1875 15.648438 43.429688 16.636719 C 44.402344 17.410156 45.191406 18.457031 45.792969 19.46875 L 37.824219 21.964844 C 45.652344 23.269531 52.175781 18.050781 52.175781 18.050781 C 51.453125 16.605469 50.328125 16.363281 49.472656 16.433594 Z M 49.46875 16.433594 "/>
</svg>
