<?xml version="1.0" encoding="UTF-8"?>
<svg xmlns="http://www.w3.org/2000/svg" xmlns:xlink="http://www.w3.org/1999/xlink" width="20" height="20" viewBox="0 0 20 20">
<path fill-rule="nonzero" fill="rgb(0%, 32.156863%, 70.588235%)" fill-opacity="1" d="M 17.070312 17.070312 L 11.25 8.75 L 2.929688 2.929688 C 1.121094 4.738281 0 7.238281 0 10 C 0 15.484375 4.417969 19.941406 9.890625 20 L 10.113281 20 C 12.828125 19.96875 15.285156 18.855469 17.070312 17.070312 Z M 17.070312 17.070312 "/>
<path fill-rule="nonzero" fill="rgb(42.745098%, 64.705882%, 26.666667%)" fill-opacity="1" d="M 17.070312 17.070312 L 2.929688 2.929688 C 4.738281 1.117188 7.238281 0 10 0 C 15.523438 0 19.996094 4.476562 20 9.996094 L 20 10.003906 C 20 12.761719 18.878906 15.261719 17.070312 17.070312 Z M 17.070312 17.070312 "/>
<path fill-rule="nonzero" fill="rgb(93.333333%, 93.333333%, 93.333333%)" fill-opacity="1" d="M 3.722656 14.347656 L 4 14.921875 L 4.617188 14.777344 L 4.339844 15.351562 L 4.839844 15.746094 L 4.21875 15.886719 L 4.21875 16.523438 L 3.722656 16.125 L 3.226562 16.523438 L 3.230469 15.886719 L 2.609375 15.746094 L 3.105469 15.351562 L 2.828125 14.777344 L 3.449219 14.921875 Z M 3.722656 14.347656 "/>
<path fill-rule="nonzero" fill="rgb(93.333333%, 93.333333%, 93.333333%)" fill-opacity="1" d="M 1.929688 9.566406 L 2.203125 10.140625 L 2.824219 9.996094 L 2.546875 10.566406 L 3.042969 10.964844 L 2.421875 11.101562 L 2.425781 11.738281 L 1.929688 11.339844 L 1.433594 11.738281 L 1.433594 11.101562 L 0.8125 10.964844 L 1.3125 10.566406 L 1.035156 9.996094 L 1.652344 10.140625 Z M 1.929688 9.566406 "/>
<path fill-rule="nonzero" fill="rgb(93.333333%, 93.333333%, 93.333333%)" fill-opacity="1" d="M 3.722656 5.652344 L 4 6.226562 L 4.617188 6.082031 L 4.339844 6.65625 L 4.839844 7.050781 L 4.21875 7.191406 L 4.21875 7.828125 L 3.722656 7.429688 L 3.226562 7.828125 L 3.230469 7.191406 L 2.609375 7.050781 L 3.105469 6.65625 L 2.828125 6.082031 L 3.449219 6.226562 Z M 3.722656 5.652344 "/>
<path fill-rule="nonzero" fill="rgb(93.333333%, 93.333333%, 93.333333%)" fill-opacity="1" d="M 5.953125 8.695312 L 6.226562 9.269531 L 6.847656 9.125 L 6.570312 9.699219 L 7.070312 10.09375 L 6.449219 10.234375 L 6.449219 10.871094 L 5.953125 10.472656 L 5.457031 10.871094 L 5.460938 10.234375 L 4.839844 10.09375 L 5.335938 9.699219 L 5.058594 9.125 L 5.679688 9.269531 Z M 5.953125 8.695312 "/>
<path fill-rule="nonzero" fill="rgb(93.333333%, 93.333333%, 93.333333%)" fill-opacity="1" d="M 4.359375 11.304688 L 4.574219 11.96875 L 5.273438 11.96875 L 4.707031 12.378906 L 4.925781 13.042969 L 4.359375 12.632812 L 3.792969 13.042969 L 4.011719 12.378906 L 3.445312 11.96875 L 4.144531 11.96875 Z M 4.359375 11.304688 "/>
<path fill-rule="nonzero" fill="rgb(100%, 85.490196%, 26.666667%)" fill-opacity="1" d="M 10 12.609375 C 11.441406 12.609375 12.609375 11.441406 12.609375 10 C 12.609375 8.558594 11.441406 7.390625 10 7.390625 C 8.558594 7.390625 7.390625 8.558594 7.390625 10 C 7.390625 11.441406 8.558594 12.609375 10 12.609375 Z M 10 12.609375 "/>
<path fill-rule="nonzero" fill="rgb(42.745098%, 64.705882%, 26.666667%)" fill-opacity="1" d="M 10 11.738281 L 10.871094 11.738281 C 10.871094 11.738281 11.246094 11.074219 10.871094 10.433594 L 11.738281 9.566406 L 11.304688 8.695312 L 10.871094 8.695312 C 10.871094 8.695312 10.652344 9.347656 9.78125 9.347656 C 8.914062 9.347656 8.695312 8.695312 8.695312 8.695312 L 8.261719 8.695312 L 8.695312 9.566406 L 8.261719 10.433594 L 8.695312 10.871094 C 8.695312 10.871094 9.128906 10 10 10.433594 C 10 10.433594 10.371094 10.976562 10 11.738281 Z M 10 11.738281 "/>
<path fill-rule="nonzero" fill="rgb(100%, 85.490196%, 26.666667%)" fill-opacity="1" d="M 16.492188 5.476562 C 16.511719 5.371094 16.523438 5.261719 16.523438 5.148438 C 16.523438 4.375 16.015625 3.71875 15.320312 3.492188 C 15.53125 3.925781 15.652344 4.414062 15.652344 4.929688 C 15.652344 5.105469 15.636719 5.273438 15.613281 5.441406 C 15.507812 5.273438 15.371094 5.117188 15.207031 4.984375 C 14.585938 4.492188 13.738281 4.480469 13.109375 4.894531 C 13.59375 5 14.0625 5.214844 14.476562 5.546875 C 14.800781 5.804688 15.0625 6.152344 15.265625 6.488281 L 12.609375 7.320312 C 15.21875 7.757812 17.390625 6.015625 17.390625 6.015625 C 17.152344 5.535156 16.777344 5.453125 16.492188 5.476562 Z M 16.492188 5.476562 "/>
</svg>
