<?xml version="1.0" encoding="UTF-8"?>
<svg xmlns="http://www.w3.org/2000/svg" xmlns:xlink="http://www.w3.org/1999/xlink" width="20" height="20" viewBox="0 0 20 20">
<path fill-rule="nonzero" fill="rgb(63.529412%, 0%, 11.372549%)" fill-opacity="1" d="M 18.664062 15 C 19.511719 13.527344 20 11.820312 20 10 C 20 8.179688 19.511719 6.472656 18.664062 5 L 1.335938 5 C 0.488281 6.472656 0 8.179688 0 10 C 0 11.820312 0.488281 13.527344 1.335938 15 Z M 18.664062 15 "/>
<path fill-rule="nonzero" fill="rgb(0%, 32.156863%, 70.588235%)" fill-opacity="1" d="M 9.996094 20 C 6.042969 20 2.628906 17.703125 1.003906 14.375 L 18.996094 14.375 C 17.371094 17.703125 13.957031 20 10.003906 20 Z M 9.996094 20 "/>
<path fill-rule="nonzero" fill="rgb(20%, 20%, 20%)" fill-opacity="1" d="M 10 0 C 6.046875 0 2.628906 2.292969 1.003906 5.625 L 18.996094 5.625 C 17.371094 2.292969 13.953125 0 10 0 Z M 10 0 "/>
<path fill-rule="evenodd" fill="rgb(100%, 85.490196%, 26.666667%)" fill-opacity="1" d="M 18.664062 5 C 18.894531 5.398438 19.097656 5.816406 19.273438 6.25 L 0.726562 6.25 C 0.902344 5.816406 1.105469 5.398438 1.335938 5 Z M 1.335938 15 C 1.105469 14.601562 0.902344 14.183594 0.726562 13.75 L 19.273438 13.75 C 19.097656 14.183594 18.894531 14.601562 18.664062 15 Z M 1.335938 15 "/>
<path fill-rule="evenodd" fill="rgb(100%, 85.490196%, 26.666667%)" fill-opacity="1" d="M 14.78125 7.828125 L 5.21875 7.828125 L 5.21875 8.695312 L 14.78125 8.695312 Z M 16.523438 9.566406 L 3.480469 9.566406 L 3.480469 10.433594 L 16.523438 10.433594 Z M 16.523438 9.566406 "/>
<path fill-rule="nonzero" fill="rgb(93.333333%, 93.333333%, 93.333333%)" fill-opacity="1" d="M 14.84375 10 C 14.84375 10 12.609375 12.609375 10 12.609375 C 7.390625 12.609375 7.390625 10 7.390625 10 C 7.390625 10 7.390625 7.390625 10 7.390625 C 12.609375 7.390625 14.84375 10 14.84375 10 Z M 14.84375 10 "/>
<path fill-rule="nonzero" fill="rgb(20%, 20%, 20%)" fill-opacity="1" d="M 10 12.609375 C 7.390625 12.609375 5.15625 10 5.15625 10 C 5.15625 10 7.390625 7.390625 10 7.390625 "/>
<path fill-rule="nonzero" fill="rgb(93.333333%, 93.333333%, 93.333333%)" fill-opacity="1" d="M 8.261719 9.128906 L 9.128906 9.128906 L 9.128906 10.871094 L 8.261719 10.871094 Z M 8.261719 9.128906 "/>
<path fill-rule="nonzero" fill="rgb(20%, 20%, 20%)" fill-opacity="1" d="M 10.871094 9.128906 L 11.738281 9.128906 L 11.738281 10.871094 L 10.871094 10.871094 Z M 10.871094 9.128906 "/>
<path fill-rule="evenodd" fill="rgb(0%, 32.156863%, 70.588235%)" fill-opacity="1" d="M 4.347656 10 C 4.347656 10.480469 3.957031 10.871094 3.476562 10.871094 C 2.996094 10.871094 2.609375 10.480469 2.609375 10 C 2.609375 9.519531 2.996094 9.128906 3.476562 9.128906 C 3.957031 9.128906 4.347656 9.519531 4.347656 10 Z M 17.390625 10 C 17.390625 10.480469 17 10.871094 16.519531 10.871094 C 16.042969 10.871094 15.652344 10.480469 15.652344 10 C 15.652344 9.519531 16.042969 9.128906 16.519531 9.128906 C 17 9.128906 17.390625 9.519531 17.390625 10 Z M 17.390625 10 "/>
</svg>
