<?xml version="1.0" encoding="UTF-8"?>
<svg xmlns="http://www.w3.org/2000/svg" xmlns:xlink="http://www.w3.org/1999/xlink" width="40" height="40" viewBox="0 0 40 40">
<path fill-rule="nonzero" fill="rgb(63.529412%, 0%, 11.372549%)" fill-opacity="1" d="M 37.324219 30 C 39.027344 27.058594 40 23.644531 40 20 C 40 16.355469 39.027344 12.941406 37.324219 10 L 2.675781 10 C 0.972656 12.941406 0 16.355469 0 20 C 0 23.644531 0.972656 27.058594 2.675781 30 Z M 37.324219 30 "/>
<path fill-rule="nonzero" fill="rgb(0%, 32.156863%, 70.588235%)" fill-opacity="1" d="M 19.992188 40 C 12.089844 39.996094 5.253906 35.410156 2.011719 28.75 L 37.988281 28.75 C 34.746094 35.410156 27.910156 39.996094 20.007812 40 Z M 19.992188 40 "/>
<path fill-rule="nonzero" fill="rgb(20%, 20%, 20%)" fill-opacity="1" d="M 20 0 C 12.09375 0 5.257812 4.589844 2.011719 11.25 L 37.988281 11.25 C 34.742188 4.589844 27.910156 0 20 0 Z M 20 0 "/>
<path fill-rule="evenodd" fill="rgb(100%, 85.490196%, 26.666667%)" fill-opacity="1" d="M 37.324219 10 C 37.785156 10.800781 38.195312 11.636719 38.546875 12.5 L 1.453125 12.5 C 1.804688 11.636719 2.214844 10.800781 2.675781 10 Z M 2.675781 30 C 2.214844 29.199219 1.804688 28.363281 1.453125 27.5 L 38.546875 27.5 C 38.195312 28.363281 37.785156 29.199219 37.324219 30 Z M 2.675781 30 "/>
<path fill-rule="evenodd" fill="rgb(100%, 85.490196%, 26.666667%)" fill-opacity="1" d="M 29.566406 15.652344 L 10.433594 15.652344 L 10.433594 17.390625 L 29.566406 17.390625 Z M 33.042969 19.128906 L 6.957031 19.128906 L 6.957031 20.871094 L 33.042969 20.871094 Z M 33.042969 19.128906 "/>
<path fill-rule="nonzero" fill="rgb(93.333333%, 93.333333%, 93.333333%)" fill-opacity="1" d="M 29.6875 20 C 29.6875 20 25.21875 25.21875 20 25.21875 C 14.78125 25.21875 14.78125 20 14.78125 20 C 14.78125 20 14.78125 14.78125 20 14.78125 C 25.21875 14.78125 29.6875 20 29.6875 20 Z M 29.6875 20 "/>
<path fill-rule="nonzero" fill="rgb(20%, 20%, 20%)" fill-opacity="1" d="M 20 25.21875 C 14.78125 25.21875 10.3125 20 10.3125 20 C 10.3125 20 14.78125 14.78125 20 14.78125 "/>
<path fill-rule="nonzero" fill="rgb(93.333333%, 93.333333%, 93.333333%)" fill-opacity="1" d="M 16.523438 18.261719 L 18.261719 18.261719 L 18.261719 21.738281 L 16.523438 21.738281 Z M 16.523438 18.261719 "/>
<path fill-rule="nonzero" fill="rgb(20%, 20%, 20%)" fill-opacity="1" d="M 21.738281 18.261719 L 23.476562 18.261719 L 23.476562 21.738281 L 21.738281 21.738281 Z M 21.738281 18.261719 "/>
<path fill-rule="evenodd" fill="rgb(0%, 32.156863%, 70.588235%)" fill-opacity="1" d="M 8.695312 20 C 8.695312 20.960938 7.917969 21.738281 6.957031 21.738281 C 5.996094 21.738281 5.21875 20.960938 5.21875 20 C 5.21875 19.039062 5.996094 18.261719 6.957031 18.261719 C 7.917969 18.261719 8.695312 19.039062 8.695312 20 Z M 34.78125 20 C 34.78125 20.960938 34.003906 21.738281 33.042969 21.738281 C 32.082031 21.738281 31.304688 20.960938 31.304688 20 C 31.304688 19.039062 32.082031 18.261719 33.042969 18.261719 C 34.003906 18.261719 34.78125 19.039062 34.78125 20 Z M 34.78125 20 "/>
</svg>
