<?xml version="1.0" encoding="UTF-8"?>
<svg xmlns="http://www.w3.org/2000/svg" xmlns:xlink="http://www.w3.org/1999/xlink" width="60" height="60" viewBox="0 0 60 60">
<path fill-rule="nonzero" fill="rgb(63.529412%, 0%, 11.372549%)" fill-opacity="1" d="M 55.984375 45 C 58.539062 40.585938 60 35.464844 60 30 C 60 24.535156 58.539062 19.414062 55.984375 15 L 4.015625 15 C 1.460938 19.414062 0 24.535156 0 30 C 0 35.464844 1.460938 40.585938 4.015625 45 Z M 55.984375 45 "/>
<path fill-rule="nonzero" fill="rgb(0%, 32.156863%, 70.588235%)" fill-opacity="1" d="M 29.988281 60 C 18.132812 59.996094 7.882812 53.113281 3.015625 43.125 L 56.984375 43.125 C 52.117188 53.113281 41.867188 59.996094 30.007812 60 Z M 29.988281 60 "/>
<path fill-rule="nonzero" fill="rgb(20%, 20%, 20%)" fill-opacity="1" d="M 30 0 C 18.136719 0 7.882812 6.882812 3.015625 16.875 L 56.984375 16.875 C 52.117188 6.882812 41.863281 0 30 0 Z M 30 0 "/>
<path fill-rule="evenodd" fill="rgb(100%, 85.490196%, 26.666667%)" fill-opacity="1" d="M 55.984375 15 C 56.679688 16.199219 57.292969 17.453125 57.820312 18.75 L 2.179688 18.75 C 2.707031 17.453125 3.320312 16.199219 4.011719 15 Z M 4.015625 45 C 3.320312 43.800781 2.707031 42.546875 2.179688 41.25 L 57.820312 41.25 C 57.292969 42.546875 56.679688 43.800781 55.988281 45 Z M 4.015625 45 "/>
<path fill-rule="evenodd" fill="rgb(100%, 85.490196%, 26.666667%)" fill-opacity="1" d="M 44.347656 23.476562 L 15.652344 23.476562 L 15.652344 26.085938 L 44.347656 26.085938 Z M 49.566406 28.695312 L 10.4375 28.695312 L 10.4375 31.304688 L 49.566406 31.304688 Z M 49.566406 28.695312 "/>
<path fill-rule="nonzero" fill="rgb(93.333333%, 93.333333%, 93.333333%)" fill-opacity="1" d="M 44.535156 30 C 44.535156 30 37.824219 37.824219 30 37.824219 C 22.175781 37.824219 22.175781 30 22.175781 30 C 22.175781 30 22.175781 22.175781 30 22.175781 C 37.824219 22.175781 44.535156 30 44.535156 30 Z M 44.535156 30 "/>
<path fill-rule="nonzero" fill="rgb(20%, 20%, 20%)" fill-opacity="1" d="M 30 37.824219 C 22.175781 37.824219 15.464844 30 15.464844 30 C 15.464844 30 22.175781 22.171875 30 22.171875 "/>
<path fill-rule="nonzero" fill="rgb(93.333333%, 93.333333%, 93.333333%)" fill-opacity="1" d="M 24.78125 27.390625 L 27.390625 27.390625 L 27.390625 32.609375 L 24.78125 32.609375 Z M 24.78125 27.390625 "/>
<path fill-rule="nonzero" fill="rgb(20%, 20%, 20%)" fill-opacity="1" d="M 32.609375 27.390625 L 35.21875 27.390625 L 35.21875 32.609375 L 32.609375 32.609375 Z M 32.609375 27.390625 "/>
<path fill-rule="evenodd" fill="rgb(0%, 32.156863%, 70.588235%)" fill-opacity="1" d="M 13.042969 30 C 13.042969 31.441406 11.875 32.609375 10.433594 32.609375 C 8.992188 32.609375 7.824219 31.441406 7.824219 30 C 7.824219 28.558594 8.992188 27.390625 10.433594 27.390625 C 11.875 27.390625 13.042969 28.558594 13.042969 30 Z M 52.171875 30 C 52.171875 31.441406 51.003906 32.609375 49.5625 32.609375 C 48.125 32.609375 46.957031 31.441406 46.957031 30 C 46.957031 28.558594 48.125 27.390625 49.5625 27.390625 C 51.003906 27.390625 52.171875 28.558594 52.171875 30 Z M 52.171875 30 "/>
</svg>
