<?xml version="1.0" encoding="UTF-8"?>
<svg xmlns="http://www.w3.org/2000/svg" xmlns:xlink="http://www.w3.org/1999/xlink" width="40" height="40" viewBox="0 0 40 40">
<path fill-rule="nonzero" fill="rgb(93.333333%, 93.333333%, 93.333333%)" fill-opacity="1" d="M 20 40 C 31.03125 40 39.980469 31.066406 40 20.039062 L 40 20 L 20 17.5 L 0 20 C 0 31.046875 8.953125 40 20 40 Z M 20 40 "/>
<path fill-rule="nonzero" fill="rgb(84.705882%, 0%, 15.294118%)" fill-opacity="1" d="M 40 19.960938 L 40 20 L 0 20 C 0 8.953125 8.953125 0 20 0 C 31.03125 0 39.980469 8.933594 40 19.960938 Z M 40 19.960938 "/>
<path fill-rule="nonzero" fill="rgb(93.333333%, 93.333333%, 93.333333%)" fill-opacity="1" d="M 12.097656 10 C 12.097656 7.085938 14.144531 4.652344 16.882812 4.054688 C 16.460938 3.960938 16.023438 3.914062 15.578125 3.914062 C 12.214844 3.914062 9.488281 6.636719 9.488281 10 C 9.488281 13.363281 12.214844 16.085938 15.578125 16.085938 C 16.023438 16.085938 16.460938 16.039062 16.882812 15.945312 C 14.144531 15.347656 12.097656 12.914062 12.097656 10 Z M 12.097656 10 "/>
<path fill-rule="nonzero" fill="rgb(93.333333%, 93.333333%, 93.333333%)" fill-opacity="1" d="M 19.925781 4.347656 L 20.355469 5.675781 L 21.753906 5.675781 L 20.625 6.496094 L 21.054688 7.824219 L 19.925781 7.003906 L 18.792969 7.824219 L 19.226562 6.496094 L 18.097656 5.675781 L 19.492188 5.675781 Z M 19.925781 4.347656 "/>
<path fill-rule="nonzero" fill="rgb(93.333333%, 93.333333%, 93.333333%)" fill-opacity="1" d="M 16.535156 6.957031 L 16.96875 8.285156 L 18.363281 8.285156 L 17.234375 9.105469 L 17.667969 10.433594 L 16.535156 9.613281 L 15.40625 10.433594 L 15.835938 9.105469 L 14.707031 8.285156 L 16.105469 8.285156 Z M 16.535156 6.957031 "/>
<path fill-rule="nonzero" fill="rgb(93.333333%, 93.333333%, 93.333333%)" fill-opacity="1" d="M 23.3125 6.957031 L 23.746094 8.285156 L 25.140625 8.285156 L 24.011719 9.105469 L 24.445312 10.433594 L 23.3125 9.613281 L 22.183594 10.433594 L 22.613281 9.105469 L 21.484375 8.285156 L 22.882812 8.285156 Z M 23.3125 6.957031 "/>
<path fill-rule="nonzero" fill="rgb(93.333333%, 93.333333%, 93.333333%)" fill-opacity="1" d="M 22.007812 10.871094 L 22.441406 12.199219 L 23.839844 12.199219 L 22.707031 13.019531 L 23.140625 14.347656 L 22.007812 13.527344 L 20.878906 14.347656 L 21.3125 13.019531 L 20.179688 12.199219 L 21.578125 12.199219 Z M 22.007812 10.871094 "/>
<path fill-rule="nonzero" fill="rgb(93.333333%, 93.333333%, 93.333333%)" fill-opacity="1" d="M 17.839844 10.871094 L 18.273438 12.199219 L 19.667969 12.199219 L 18.539062 13.019531 L 18.972656 14.347656 L 17.839844 13.527344 L 16.710938 14.347656 L 17.140625 13.019531 L 16.011719 12.199219 L 17.410156 12.199219 Z M 17.839844 10.871094 "/>
</svg>
