<?xml version="1.0" encoding="UTF-8"?>
<svg xmlns="http://www.w3.org/2000/svg" xmlns:xlink="http://www.w3.org/1999/xlink" width="60" height="60" viewBox="0 0 60 60">
<path fill-rule="nonzero" fill="rgb(93.333333%, 93.333333%, 93.333333%)" fill-opacity="1" d="M 30 60 C 46.550781 60 59.96875 46.601562 60 30.058594 L 60 30 L 30 26.25 L 0 30 C 0 46.566406 13.433594 60 30 60 Z M 30 60 "/>
<path fill-rule="nonzero" fill="rgb(84.705882%, 0%, 15.294118%)" fill-opacity="1" d="M 60 29.941406 L 60 30 L 0 30 C 0 13.433594 13.433594 0 30 0 C 46.550781 0 59.96875 13.398438 60 29.941406 Z M 60 29.941406 "/>
<path fill-rule="nonzero" fill="rgb(93.333333%, 93.333333%, 93.333333%)" fill-opacity="1" d="M 18.148438 15 C 18.148438 10.628906 21.21875 6.976562 25.320312 6.082031 C 24.691406 5.945312 24.035156 5.871094 23.363281 5.871094 C 18.320312 5.871094 14.234375 9.957031 14.234375 15 C 14.234375 20.042969 18.320312 24.128906 23.363281 24.128906 C 24.035156 24.128906 24.691406 24.054688 25.320312 23.917969 C 21.21875 23.023438 18.148438 19.371094 18.148438 15 Z M 18.148438 15 "/>
<path fill-rule="nonzero" fill="rgb(93.333333%, 93.333333%, 93.333333%)" fill-opacity="1" d="M 29.886719 6.523438 L 30.535156 8.515625 L 32.628906 8.515625 L 30.933594 9.746094 L 31.582031 11.738281 L 29.886719 10.507812 L 28.191406 11.738281 L 28.839844 9.746094 L 27.144531 8.515625 L 29.238281 8.515625 Z M 29.886719 6.523438 "/>
<path fill-rule="nonzero" fill="rgb(93.333333%, 93.333333%, 93.333333%)" fill-opacity="1" d="M 24.804688 10.433594 L 25.453125 12.425781 L 27.546875 12.425781 L 25.851562 13.660156 L 26.5 15.652344 L 24.804688 14.421875 L 23.109375 15.652344 L 23.757812 13.660156 L 22.0625 12.425781 L 24.15625 12.425781 Z M 24.804688 10.433594 "/>
<path fill-rule="nonzero" fill="rgb(93.333333%, 93.333333%, 93.333333%)" fill-opacity="1" d="M 34.96875 10.433594 L 35.617188 12.425781 L 37.714844 12.425781 L 36.015625 13.660156 L 36.664062 15.652344 L 34.96875 14.421875 L 33.273438 15.652344 L 33.921875 13.660156 L 32.226562 12.425781 L 34.324219 12.425781 Z M 34.96875 10.433594 "/>
<path fill-rule="nonzero" fill="rgb(93.333333%, 93.333333%, 93.333333%)" fill-opacity="1" d="M 33.015625 16.304688 L 33.660156 18.296875 L 35.757812 18.296875 L 34.0625 19.527344 L 34.710938 21.523438 L 33.015625 20.289062 L 31.320312 21.523438 L 31.964844 19.527344 L 30.269531 18.296875 L 32.367188 18.296875 Z M 33.015625 16.304688 "/>
<path fill-rule="nonzero" fill="rgb(93.333333%, 93.333333%, 93.333333%)" fill-opacity="1" d="M 26.761719 16.304688 L 27.410156 18.296875 L 29.503906 18.296875 L 27.808594 19.527344 L 28.457031 21.523438 L 26.761719 20.289062 L 25.066406 21.523438 L 25.714844 19.527344 L 24.019531 18.296875 L 26.113281 18.296875 Z M 26.761719 16.304688 "/>
</svg>
