<?xml version="1.0" encoding="UTF-8"?>
<svg xmlns="http://www.w3.org/2000/svg" xmlns:xlink="http://www.w3.org/1999/xlink" width="20" height="20" viewBox="0 0 20 20">
<path fill-rule="nonzero" fill="rgb(93.333333%, 93.333333%, 93.333333%)" fill-opacity="1" d="M 10 20 C 15.515625 20 19.988281 15.535156 20 10.019531 L 20 10 L 10 8.75 L 0 10 C 0 15.523438 4.476562 20 10 20 Z M 10 20 "/>
<path fill-rule="nonzero" fill="rgb(84.705882%, 0%, 15.294118%)" fill-opacity="1" d="M 20 9.980469 L 20 10 L 0 10 C 0 4.476562 4.476562 0 10 0 C 15.515625 0 19.988281 4.464844 20 9.980469 Z M 20 9.980469 "/>
<path fill-rule="nonzero" fill="rgb(93.333333%, 93.333333%, 93.333333%)" fill-opacity="1" d="M 6.050781 5 C 6.050781 3.542969 7.074219 2.324219 8.441406 2.027344 C 8.230469 1.980469 8.011719 1.957031 7.789062 1.957031 C 6.109375 1.957031 4.746094 3.320312 4.746094 5 C 4.746094 6.679688 6.109375 8.042969 7.789062 8.042969 C 8.011719 8.042969 8.230469 8.019531 8.441406 7.972656 C 7.074219 7.675781 6.050781 6.457031 6.050781 5 Z M 6.050781 5 "/>
<path fill-rule="nonzero" fill="rgb(93.333333%, 93.333333%, 93.333333%)" fill-opacity="1" d="M 9.960938 2.175781 L 10.179688 2.839844 L 10.875 2.839844 L 10.3125 3.25 L 10.527344 3.914062 L 9.960938 3.503906 L 9.398438 3.914062 L 9.613281 3.25 L 9.046875 2.839844 L 9.746094 2.839844 Z M 9.960938 2.175781 "/>
<path fill-rule="nonzero" fill="rgb(93.333333%, 93.333333%, 93.333333%)" fill-opacity="1" d="M 8.269531 3.476562 L 8.484375 4.140625 L 9.183594 4.140625 L 8.617188 4.554688 L 8.832031 5.21875 L 8.269531 4.808594 L 7.703125 5.21875 L 7.917969 4.554688 L 7.355469 4.140625 L 8.050781 4.140625 Z M 8.269531 3.476562 "/>
<path fill-rule="nonzero" fill="rgb(93.333333%, 93.333333%, 93.333333%)" fill-opacity="1" d="M 11.65625 3.476562 L 11.871094 4.140625 L 12.570312 4.140625 L 12.007812 4.554688 L 12.222656 5.21875 L 11.65625 4.808594 L 11.089844 5.21875 L 11.308594 4.554688 L 10.742188 4.140625 L 11.441406 4.140625 Z M 11.65625 3.476562 "/>
<path fill-rule="nonzero" fill="rgb(93.333333%, 93.333333%, 93.333333%)" fill-opacity="1" d="M 11.003906 5.433594 L 11.21875 6.097656 L 11.917969 6.097656 L 11.355469 6.507812 L 11.570312 7.175781 L 11.003906 6.761719 L 10.441406 7.175781 L 10.65625 6.507812 L 10.089844 6.097656 L 10.789062 6.097656 Z M 11.003906 5.433594 "/>
<path fill-rule="nonzero" fill="rgb(93.333333%, 93.333333%, 93.333333%)" fill-opacity="1" d="M 8.921875 5.433594 L 9.136719 6.097656 L 9.835938 6.097656 L 9.269531 6.507812 L 9.484375 7.175781 L 8.921875 6.761719 L 8.355469 7.175781 L 8.570312 6.507812 L 8.007812 6.097656 L 8.703125 6.097656 Z M 8.921875 5.433594 "/>
</svg>
