<?xml version="1.0" encoding="UTF-8"?>
<svg xmlns="http://www.w3.org/2000/svg" xmlns:xlink="http://www.w3.org/1999/xlink" width="60" height="60" viewBox="0 0 60 60">
<path fill-rule="evenodd" fill="rgb(93.333333%, 93.333333%, 93.333333%)" fill-opacity="1" d="M 48.550781 53.578125 C 55.515625 48.089844 59.992188 39.578125 60 30.027344 L 60 29.972656 C 59.984375 13.417969 46.558594 0 30 0 C 28.890625 0 27.796875 0.0585938 26.71875 0.175781 L 18.679688 30.292969 Z M 48.550781 53.578125 "/>
<path fill-rule="evenodd" fill="rgb(0%, 32.156863%, 70.588235%)" fill-opacity="1" d="M 26.929688 0.15625 L 59.824219 33.257812 L 30.046875 33.257812 L 49.546875 52.757812 C 48.484375 53.671875 47.359375 54.507812 46.179688 55.265625 L 13.863281 29.742188 L 21.859375 1.117188 C 23.496094 0.65625 25.191406 0.332031 26.929688 0.15625 Z M 26.929688 0.15625 "/>
<path fill-rule="evenodd" fill="rgb(84.705882%, 0%, 15.294118%)" fill-opacity="1" d="M 22.996094 0.824219 L 52.171875 30 L 22.171875 30 L 46.9375 54.765625 C 42.117188 58.066406 36.285156 60 30 60 C 13.433594 60 0 46.566406 0 30 C 0 15.84375 9.804688 3.976562 22.996094 0.824219 Z M 22.996094 0.824219 "/>
<path fill-rule="nonzero" fill="rgb(93.333333%, 93.333333%, 93.333333%)" fill-opacity="1" d="M 28.535156 44.296875 L 24.867188 42.574219 L 26.835938 39.023438 L 22.851562 39.785156 L 22.347656 35.765625 L 19.582031 38.71875 L 16.804688 35.765625 L 16.300781 39.785156 L 12.316406 39.023438 L 14.273438 42.574219 L 10.59375 44.296875 L 14.261719 46.019531 L 12.316406 49.570312 L 16.300781 48.808594 L 16.792969 52.828125 L 19.570312 49.875 L 22.335938 52.828125 L 22.839844 48.808594 L 26.824219 49.570312 L 24.867188 46.019531 Z M 17.554688 10.429688 L 17.179688 13.359375 L 14.285156 12.808594 L 15.703125 15.386719 L 13.042969 16.640625 L 11.742188 16.640625 C 11.820312 18.664062 12.679688 20.574219 14.136719 21.980469 C 15.59375 23.382812 17.539062 24.164062 19.566406 24.164062 C 21.589844 24.164062 23.535156 23.382812 24.992188 21.980469 C 26.449219 20.574219 27.308594 18.664062 27.386719 16.640625 L 26.085938 16.640625 L 23.4375 15.386719 L 24.84375 12.808594 L 21.960938 13.359375 L 21.597656 10.429688 L 19.582031 12.585938 Z M 17.554688 10.429688 "/>
</svg>
