<?xml version="1.0" encoding="UTF-8"?>
<svg xmlns="http://www.w3.org/2000/svg" xmlns:xlink="http://www.w3.org/1999/xlink" width="20" height="20" viewBox="0 0 20 20">
<path fill-rule="evenodd" fill="rgb(93.333333%, 93.333333%, 93.333333%)" fill-opacity="1" d="M 16.183594 17.859375 C 18.503906 16.03125 19.996094 13.195312 20 10.007812 L 20 9.992188 C 19.996094 4.472656 15.519531 0 10 0 C 9.628906 0 9.265625 0.0195312 8.90625 0.0585938 L 6.226562 10.097656 Z M 16.183594 17.859375 "/>
<path fill-rule="evenodd" fill="rgb(0%, 32.156863%, 70.588235%)" fill-opacity="1" d="M 8.976562 0.0507812 L 19.941406 11.085938 L 10.015625 11.085938 L 16.515625 17.585938 C 16.160156 17.890625 15.785156 18.167969 15.394531 18.421875 L 4.621094 9.914062 L 7.285156 0.371094 C 7.832031 0.21875 8.398438 0.109375 8.976562 0.0507812 Z M 8.976562 0.0507812 "/>
<path fill-rule="evenodd" fill="rgb(84.705882%, 0%, 15.294118%)" fill-opacity="1" d="M 7.664062 0.273438 L 17.390625 10 L 7.390625 10 L 15.644531 18.253906 C 14.039062 19.355469 12.09375 20 10 20 C 4.476562 20 0 15.523438 0 10 C 0 5.28125 3.269531 1.324219 7.664062 0.273438 Z M 7.664062 0.273438 "/>
<path fill-rule="nonzero" fill="rgb(93.333333%, 93.333333%, 93.333333%)" fill-opacity="1" d="M 9.511719 14.765625 L 8.289062 14.191406 L 8.945312 13.007812 L 7.617188 13.261719 L 7.449219 11.921875 L 6.527344 12.90625 L 5.601562 11.921875 L 5.433594 13.261719 L 4.105469 13.007812 L 4.757812 14.191406 L 3.53125 14.765625 L 4.753906 15.339844 L 4.105469 16.523438 L 5.433594 16.269531 L 5.597656 17.609375 L 6.523438 16.625 L 7.445312 17.609375 L 7.613281 16.269531 L 8.941406 16.523438 L 8.289062 15.339844 Z M 5.851562 3.476562 L 5.726562 4.453125 L 4.761719 4.269531 L 5.234375 5.128906 L 4.347656 5.546875 L 3.914062 5.546875 C 3.941406 6.222656 4.226562 6.859375 4.710938 7.328125 C 5.199219 7.792969 5.847656 8.054688 6.523438 8.054688 C 7.195312 8.054688 7.84375 7.792969 8.332031 7.328125 C 8.816406 6.859375 9.101562 6.222656 9.128906 5.546875 L 8.695312 5.546875 L 7.8125 5.128906 L 8.28125 4.269531 L 7.320312 4.453125 L 7.199219 3.476562 L 6.527344 4.195312 Z M 5.851562 3.476562 "/>
</svg>
