<?xml version="1.0" encoding="UTF-8"?>
<svg xmlns="http://www.w3.org/2000/svg" xmlns:xlink="http://www.w3.org/1999/xlink" width="40" height="40" viewBox="0 0 40 40">
<path fill-rule="evenodd" fill="rgb(93.333333%, 93.333333%, 93.333333%)" fill-opacity="1" d="M 32.367188 35.71875 C 37.011719 32.058594 39.996094 26.386719 40 20.015625 L 40 19.984375 C 39.992188 8.945312 31.039062 0 20 0 C 19.261719 0 18.53125 0.0390625 17.8125 0.117188 L 12.453125 20.195312 Z M 32.367188 35.71875 "/>
<path fill-rule="evenodd" fill="rgb(0%, 32.156863%, 70.588235%)" fill-opacity="1" d="M 17.953125 0.101562 L 39.882812 22.171875 L 20.03125 22.171875 L 33.03125 35.171875 C 32.324219 35.78125 31.574219 36.339844 30.785156 36.84375 L 9.242188 19.828125 L 14.574219 0.746094 C 15.664062 0.4375 16.792969 0.222656 17.953125 0.105469 Z M 17.953125 0.101562 "/>
<path fill-rule="evenodd" fill="rgb(84.705882%, 0%, 15.294118%)" fill-opacity="1" d="M 15.328125 0.546875 L 34.78125 20 L 14.78125 20 L 31.292969 36.511719 C 28.078125 38.710938 24.191406 40 20 40 C 8.953125 40 0 31.046875 0 20 C 0 10.5625 6.535156 2.652344 15.328125 0.546875 Z M 15.328125 0.546875 "/>
<path fill-rule="nonzero" fill="rgb(93.333333%, 93.333333%, 93.333333%)" fill-opacity="1" d="M 19.023438 29.53125 L 16.578125 28.382812 L 17.890625 26.015625 L 15.234375 26.523438 L 14.898438 23.84375 L 13.054688 25.8125 L 11.203125 23.84375 L 10.867188 26.523438 L 8.210938 26.015625 L 9.515625 28.382812 L 7.0625 29.53125 L 9.507812 30.679688 L 8.210938 33.046875 L 10.867188 32.539062 L 11.195312 35.21875 L 13.046875 33.25 L 14.890625 35.21875 L 15.226562 32.539062 L 17.882812 33.046875 L 16.578125 30.679688 Z M 11.703125 6.953125 L 11.453125 8.90625 L 9.523438 8.539062 L 10.46875 10.257812 L 8.695312 11.09375 L 7.828125 11.09375 C 7.878906 12.441406 8.453125 13.71875 9.425781 14.652344 C 10.398438 15.589844 11.695312 16.109375 13.042969 16.109375 C 14.390625 16.109375 15.6875 15.589844 16.660156 14.652344 C 17.632812 13.71875 18.207031 12.441406 18.257812 11.09375 L 17.390625 11.09375 L 15.625 10.257812 L 16.5625 8.539062 L 14.640625 8.90625 L 14.398438 6.953125 L 13.054688 8.390625 Z M 11.703125 6.953125 "/>
</svg>
