<?xml version="1.0" encoding="UTF-8"?>
<svg xmlns="http://www.w3.org/2000/svg" xmlns:xlink="http://www.w3.org/1999/xlink" width="40" height="40" viewBox="0 0 40 40">
<path fill-rule="nonzero" fill="rgb(28.627451%, 43.137255%, 17.647059%)" fill-opacity="1" d="M 40 20 C 40 31.046875 31.046875 40 20 40 C 8.953125 40 0 31.046875 0 20 C 0 8.953125 8.953125 0 20 0 C 31.046875 0 40 8.953125 40 20 Z M 40 20 "/>
<path fill-rule="nonzero" fill="rgb(93.333333%, 93.333333%, 93.333333%)" fill-opacity="1" d="M 11.304688 23.914062 C 11.304688 25.355469 12.472656 26.523438 13.914062 26.523438 L 21.738281 26.523438 C 21.738281 27.722656 22.710938 28.695312 23.914062 28.695312 L 26.523438 28.695312 C 27.722656 28.695312 28.695312 27.722656 28.695312 26.523438 L 28.695312 23.914062 Z M 11.304688 23.914062 "/>
<path fill-rule="nonzero" fill="rgb(93.333333%, 93.333333%, 93.333333%)" fill-opacity="1" d="M 28.914062 11.304688 L 28.914062 17.390625 C 28.914062 18.351562 28.132812 19.128906 27.175781 19.128906 L 27.175781 21.738281 C 29.570312 21.738281 31.523438 19.789062 31.523438 17.390625 L 31.523438 11.304688 Z M 28.914062 11.304688 "/>
<path fill-rule="nonzero" fill="rgb(93.333333%, 93.333333%, 93.333333%)" fill-opacity="1" d="M 10.21875 17.390625 C 10.21875 18.351562 9.4375 19.128906 8.476562 19.128906 L 8.476562 21.738281 C 10.875 21.738281 12.824219 19.789062 12.824219 17.390625 L 12.824219 11.304688 L 10.21875 11.304688 Z M 10.21875 17.390625 "/>
<path fill-rule="nonzero" fill="rgb(93.333333%, 93.333333%, 93.333333%)" fill-opacity="1" d="M 25 11.304688 L 27.609375 11.304688 L 27.609375 17.390625 L 25 17.390625 Z M 25 11.304688 "/>
<path fill-rule="nonzero" fill="rgb(93.333333%, 93.333333%, 93.333333%)" fill-opacity="1" d="M 21.085938 14.78125 C 21.085938 15.023438 20.890625 15.21875 20.652344 15.21875 C 20.414062 15.21875 20.21875 15.023438 20.21875 14.78125 L 20.21875 11.304688 L 17.609375 11.304688 L 17.609375 14.78125 C 17.609375 15.023438 17.414062 15.21875 17.171875 15.21875 C 16.933594 15.21875 16.738281 15.023438 16.738281 14.78125 L 16.738281 11.304688 L 14.128906 11.304688 L 14.128906 14.78125 C 14.128906 16.460938 15.496094 17.828125 17.171875 17.828125 C 17.820312 17.828125 18.417969 17.625 18.914062 17.277344 C 19.40625 17.625 20.003906 17.828125 20.652344 17.828125 C 20.78125 17.828125 20.910156 17.816406 21.035156 17.800781 C 20.851562 18.5625 20.164062 19.128906 19.347656 19.128906 L 19.347656 21.738281 C 21.746094 21.738281 23.695312 19.789062 23.695312 17.390625 L 23.695312 11.304688 L 21.085938 11.304688 Z M 21.085938 14.78125 "/>
<path fill-rule="nonzero" fill="rgb(93.333333%, 93.333333%, 93.333333%)" fill-opacity="1" d="M 14.128906 19.128906 L 18.042969 19.128906 L 18.042969 21.738281 L 14.128906 21.738281 Z M 14.128906 19.128906 "/>
</svg>
