<?xml version="1.0" encoding="UTF-8"?>
<svg xmlns="http://www.w3.org/2000/svg" xmlns:xlink="http://www.w3.org/1999/xlink" width="20" height="20" viewBox="0 0 20 20">
<path fill-rule="nonzero" fill="rgb(28.627451%, 43.137255%, 17.647059%)" fill-opacity="1" d="M 20 10 C 20 15.523438 15.523438 20 10 20 C 4.476562 20 0 15.523438 0 10 C 0 4.476562 4.476562 0 10 0 C 15.523438 0 20 4.476562 20 10 Z M 20 10 "/>
<path fill-rule="nonzero" fill="rgb(93.333333%, 93.333333%, 93.333333%)" fill-opacity="1" d="M 5.652344 11.957031 C 5.652344 12.675781 6.234375 13.261719 6.957031 13.261719 L 10.871094 13.261719 C 10.871094 13.859375 11.355469 14.347656 11.957031 14.347656 L 13.261719 14.347656 C 13.859375 14.347656 14.347656 13.859375 14.347656 13.261719 L 14.347656 11.957031 Z M 5.652344 11.957031 "/>
<path fill-rule="nonzero" fill="rgb(93.333333%, 93.333333%, 93.333333%)" fill-opacity="1" d="M 14.457031 5.652344 L 14.457031 8.695312 C 14.457031 9.175781 14.066406 9.566406 13.585938 9.566406 L 13.585938 10.871094 C 14.785156 10.871094 15.761719 9.894531 15.761719 8.695312 L 15.761719 5.652344 Z M 14.457031 5.652344 "/>
<path fill-rule="nonzero" fill="rgb(93.333333%, 93.333333%, 93.333333%)" fill-opacity="1" d="M 5.109375 8.695312 C 5.109375 9.175781 4.71875 9.566406 4.238281 9.566406 L 4.238281 10.871094 C 5.4375 10.871094 6.414062 9.894531 6.414062 8.695312 L 6.414062 5.652344 L 5.109375 5.652344 Z M 5.109375 8.695312 "/>
<path fill-rule="nonzero" fill="rgb(93.333333%, 93.333333%, 93.333333%)" fill-opacity="1" d="M 12.5 5.652344 L 13.804688 5.652344 L 13.804688 8.695312 L 12.5 8.695312 Z M 12.5 5.652344 "/>
<path fill-rule="nonzero" fill="rgb(93.333333%, 93.333333%, 93.333333%)" fill-opacity="1" d="M 10.542969 7.390625 C 10.542969 7.511719 10.445312 7.609375 10.324219 7.609375 C 10.207031 7.609375 10.109375 7.511719 10.109375 7.390625 L 10.109375 5.652344 L 8.804688 5.652344 L 8.804688 7.390625 C 8.804688 7.511719 8.707031 7.609375 8.585938 7.609375 C 8.46875 7.609375 8.371094 7.511719 8.371094 7.390625 L 8.371094 5.652344 L 7.066406 5.652344 L 7.066406 7.390625 C 7.066406 8.230469 7.746094 8.914062 8.585938 8.914062 C 8.910156 8.914062 9.210938 8.8125 9.457031 8.640625 C 9.703125 8.8125 10.003906 8.914062 10.324219 8.914062 C 10.390625 8.914062 10.457031 8.910156 10.519531 8.902344 C 10.425781 9.28125 10.082031 9.566406 9.675781 9.566406 L 9.675781 10.871094 C 10.871094 10.871094 11.847656 9.894531 11.847656 8.695312 L 11.847656 5.652344 L 10.542969 5.652344 Z M 10.542969 7.390625 "/>
<path fill-rule="nonzero" fill="rgb(93.333333%, 93.333333%, 93.333333%)" fill-opacity="1" d="M 7.066406 9.566406 L 9.023438 9.566406 L 9.023438 10.871094 L 7.066406 10.871094 Z M 7.066406 9.566406 "/>
</svg>
