<?xml version="1.0" encoding="UTF-8"?>
<svg xmlns="http://www.w3.org/2000/svg" xmlns:xlink="http://www.w3.org/1999/xlink" width="60" height="60" viewBox="0 0 60 60">
<path fill-rule="nonzero" fill="rgb(28.627451%, 43.137255%, 17.647059%)" fill-opacity="1" d="M 60 30 C 60 46.570312 46.570312 60 30 60 C 13.429688 60 0 46.570312 0 30 C 0 13.429688 13.429688 0 30 0 C 46.570312 0 60 13.429688 60 30 Z M 60 30 "/>
<path fill-rule="nonzero" fill="rgb(93.333333%, 93.333333%, 93.333333%)" fill-opacity="1" d="M 16.957031 35.871094 C 16.957031 38.03125 18.707031 39.78125 20.871094 39.78125 L 32.609375 39.78125 C 32.609375 41.582031 34.070312 43.042969 35.871094 43.042969 L 39.78125 43.042969 C 41.582031 43.042969 43.042969 41.582031 43.042969 39.78125 L 43.042969 35.871094 Z M 16.957031 35.871094 "/>
<path fill-rule="nonzero" fill="rgb(93.333333%, 93.333333%, 93.333333%)" fill-opacity="1" d="M 43.371094 16.957031 L 43.371094 26.085938 C 43.371094 27.527344 42.199219 28.695312 40.761719 28.695312 L 40.761719 32.609375 C 44.355469 32.609375 47.28125 29.683594 47.28125 26.085938 L 47.28125 16.957031 Z M 43.371094 16.957031 "/>
<path fill-rule="nonzero" fill="rgb(93.333333%, 93.333333%, 93.333333%)" fill-opacity="1" d="M 15.324219 26.085938 C 15.324219 27.527344 14.15625 28.695312 12.71875 28.695312 L 12.71875 32.609375 C 16.3125 32.609375 19.238281 29.683594 19.238281 26.085938 L 19.238281 16.957031 L 15.324219 16.957031 Z M 15.324219 26.085938 "/>
<path fill-rule="nonzero" fill="rgb(93.333333%, 93.333333%, 93.333333%)" fill-opacity="1" d="M 37.5 16.957031 L 41.414062 16.957031 L 41.414062 26.085938 L 37.5 26.085938 Z M 37.5 16.957031 "/>
<path fill-rule="nonzero" fill="rgb(93.333333%, 93.333333%, 93.333333%)" fill-opacity="1" d="M 31.628906 22.175781 C 31.628906 22.535156 31.335938 22.828125 30.976562 22.828125 C 30.617188 22.828125 30.324219 22.535156 30.324219 22.175781 L 30.324219 16.957031 L 26.414062 16.957031 L 26.414062 22.175781 C 26.414062 22.535156 26.121094 22.828125 25.761719 22.828125 C 25.402344 22.828125 25.109375 22.535156 25.109375 22.175781 L 25.109375 16.957031 L 21.195312 16.957031 L 21.195312 22.175781 C 21.195312 24.691406 23.242188 26.738281 25.761719 26.738281 C 26.730469 26.738281 27.628906 26.433594 28.371094 25.917969 C 29.109375 26.433594 30.007812 26.738281 30.976562 26.738281 C 31.171875 26.738281 31.367188 26.726562 31.554688 26.703125 C 31.277344 27.84375 30.246094 28.695312 29.023438 28.695312 L 29.023438 32.609375 C 32.617188 32.609375 35.542969 29.683594 35.542969 26.085938 L 35.542969 16.957031 L 31.628906 16.957031 Z M 31.628906 22.175781 "/>
<path fill-rule="nonzero" fill="rgb(93.333333%, 93.333333%, 93.333333%)" fill-opacity="1" d="M 21.195312 28.695312 L 27.066406 28.695312 L 27.066406 32.609375 L 21.195312 32.609375 Z M 21.195312 28.695312 "/>
</svg>
