<?xml version="1.0" encoding="UTF-8"?>
<svg xmlns="http://www.w3.org/2000/svg" xmlns:xlink="http://www.w3.org/1999/xlink" width="40" height="40" viewBox="0 0 40 40">
<path fill-rule="nonzero" fill="rgb(0%, 32.156863%, 70.588235%)" fill-opacity="1" d="M 37.671875 29.375 C 39.15625 26.578125 40 23.386719 40 20 C 40 16.613281 39.15625 13.421875 37.671875 10.625 L 2.328125 10.625 C 0.84375 13.421875 0 16.613281 0 20 C 0 23.386719 0.84375 26.578125 2.328125 29.375 Z M 37.671875 29.375 "/>
<path fill-rule="nonzero" fill="rgb(84.705882%, 0%, 15.294118%)" fill-opacity="1" d="M 38.785156 26.875 C 35.984375 34.535156 28.628906 40 20 40 C 11.371094 40 4.015625 34.535156 1.214844 26.875 L 38.789062 26.875 Z M 38.785156 26.875 "/>
<path fill-rule="nonzero" fill="rgb(93.333333%, 93.333333%, 93.333333%)" fill-opacity="1" d="M 38.785156 13.125 L 1.210938 13.125 C 4.015625 5.464844 11.371094 0 20 0 C 28.628906 0 35.984375 5.464844 38.785156 13.125 Z M 38.785156 13.125 "/>
<path fill-rule="nonzero" fill="rgb(93.333333%, 93.333333%, 93.333333%)" fill-opacity="1" d="M 5.171875 11.304688 L 5.171875 21.28125 C 5.171875 26.957031 12.585938 28.695312 12.585938 28.695312 C 12.585938 28.695312 20 26.957031 20 21.28125 L 20 11.304688 Z M 5.171875 11.304688 "/>
<path fill-rule="nonzero" fill="rgb(84.705882%, 0%, 15.294118%)" fill-opacity="1" d="M 6.910156 11.304688 L 6.910156 21.28125 C 6.910156 21.949219 7.058594 22.578125 7.351562 23.167969 L 17.820312 23.167969 C 18.113281 22.578125 18.261719 21.949219 18.261719 21.28125 L 18.261719 11.304688 Z M 6.910156 11.304688 "/>
<path fill-rule="nonzero" fill="rgb(93.333333%, 93.333333%, 93.333333%)" fill-opacity="1" d="M 16.0625 18.261719 L 13.457031 18.261719 L 13.457031 16.523438 L 15.195312 16.523438 L 15.195312 14.78125 L 13.457031 14.78125 L 13.457031 13.042969 L 11.714844 13.042969 L 11.714844 14.78125 L 9.976562 14.78125 L 9.976562 16.523438 L 11.714844 16.523438 L 11.714844 18.261719 L 9.109375 18.261719 L 9.109375 20 L 11.714844 20 L 11.714844 21.738281 L 13.457031 21.738281 L 13.457031 20 L 16.0625 20 Z M 16.0625 18.261719 "/>
<path fill-rule="nonzero" fill="rgb(0%, 32.156863%, 70.588235%)" fill-opacity="1" d="M 9.722656 25.59375 C 10.84375 26.296875 11.996094 26.707031 12.585938 26.890625 C 13.175781 26.707031 14.328125 26.296875 15.449219 25.59375 C 16.578125 24.882812 17.371094 24.070312 17.820312 23.167969 C 17.324219 22.816406 16.71875 22.609375 16.0625 22.609375 C 15.824219 22.609375 15.59375 22.636719 15.371094 22.6875 C 14.902344 21.617188 13.832031 20.871094 12.585938 20.871094 C 11.339844 20.871094 10.269531 21.617188 9.800781 22.6875 C 9.578125 22.636719 9.347656 22.609375 9.109375 22.609375 C 8.453125 22.609375 7.847656 22.816406 7.351562 23.167969 C 7.800781 24.070312 8.59375 24.882812 9.722656 25.59375 Z M 9.722656 25.59375 "/>
</svg>
