<?xml version="1.0" encoding="UTF-8"?>
<svg xmlns="http://www.w3.org/2000/svg" xmlns:xlink="http://www.w3.org/1999/xlink" width="20" height="20" viewBox="0 0 20 20">
<path fill-rule="nonzero" fill="rgb(0%, 32.156863%, 70.588235%)" fill-opacity="1" d="M 18.835938 14.6875 C 19.578125 13.289062 20 11.695312 20 10 C 20 8.304688 19.578125 6.710938 18.835938 5.3125 L 1.164062 5.3125 C 0.421875 6.710938 0 8.304688 0 10 C 0 11.695312 0.421875 13.289062 1.164062 14.6875 Z M 18.835938 14.6875 "/>
<path fill-rule="nonzero" fill="rgb(84.705882%, 0%, 15.294118%)" fill-opacity="1" d="M 19.394531 13.4375 C 17.992188 17.265625 14.316406 20 10 20 C 5.683594 20 2.007812 17.265625 0.605469 13.4375 Z M 19.394531 13.4375 "/>
<path fill-rule="nonzero" fill="rgb(93.333333%, 93.333333%, 93.333333%)" fill-opacity="1" d="M 19.394531 6.5625 L 0.605469 6.5625 C 2.007812 2.734375 5.683594 0 10 0 C 14.316406 0 17.992188 2.734375 19.394531 6.5625 Z M 19.394531 6.5625 "/>
<path fill-rule="nonzero" fill="rgb(93.333333%, 93.333333%, 93.333333%)" fill-opacity="1" d="M 2.585938 5.652344 L 2.585938 10.640625 C 2.585938 13.480469 6.292969 14.347656 6.292969 14.347656 C 6.292969 14.347656 10 13.480469 10 10.640625 L 10 5.652344 Z M 2.585938 5.652344 "/>
<path fill-rule="nonzero" fill="rgb(84.705882%, 0%, 15.294118%)" fill-opacity="1" d="M 3.457031 5.652344 L 3.457031 10.640625 C 3.457031 10.972656 3.53125 11.289062 3.675781 11.582031 L 8.910156 11.582031 C 9.054688 11.289062 9.128906 10.972656 9.128906 10.640625 L 9.128906 5.652344 Z M 3.457031 5.652344 "/>
<path fill-rule="nonzero" fill="rgb(93.333333%, 93.333333%, 93.333333%)" fill-opacity="1" d="M 8.03125 9.128906 L 6.726562 9.128906 L 6.726562 8.261719 L 7.597656 8.261719 L 7.597656 7.390625 L 6.726562 7.390625 L 6.726562 6.523438 L 5.859375 6.523438 L 5.859375 7.390625 L 4.988281 7.390625 L 4.988281 8.261719 L 5.859375 8.261719 L 5.859375 9.128906 L 4.554688 9.128906 L 4.554688 10 L 5.859375 10 L 5.859375 10.871094 L 6.726562 10.871094 L 6.726562 10 L 8.03125 10 Z M 8.03125 9.128906 "/>
<path fill-rule="nonzero" fill="rgb(0%, 32.156863%, 70.588235%)" fill-opacity="1" d="M 4.863281 12.796875 C 5.421875 13.148438 6 13.355469 6.292969 13.445312 C 6.585938 13.355469 7.164062 13.148438 7.722656 12.796875 C 8.289062 12.441406 8.683594 12.035156 8.910156 11.582031 C 8.660156 11.40625 8.359375 11.304688 8.03125 11.304688 C 7.914062 11.304688 7.796875 11.320312 7.6875 11.34375 C 7.449219 10.808594 6.914062 10.433594 6.292969 10.433594 C 5.671875 10.433594 5.136719 10.808594 4.898438 11.34375 C 4.789062 11.320312 4.671875 11.304688 4.554688 11.304688 C 4.226562 11.304688 3.925781 11.40625 3.675781 11.582031 C 3.902344 12.035156 4.296875 12.441406 4.863281 12.796875 Z M 4.863281 12.796875 "/>
</svg>
