<?xml version="1.0" encoding="UTF-8"?>
<svg xmlns="http://www.w3.org/2000/svg" xmlns:xlink="http://www.w3.org/1999/xlink" width="60" height="60" viewBox="0 0 60 60">
<path fill-rule="nonzero" fill="rgb(0%, 32.156863%, 70.588235%)" fill-opacity="1" d="M 56.507812 44.0625 C 58.738281 39.867188 60 35.082031 60 30 C 60 24.917969 58.738281 20.132812 56.507812 15.9375 L 3.492188 15.9375 C 1.261719 20.132812 0 24.917969 0 30 C 0 35.082031 1.261719 39.867188 3.492188 44.0625 Z M 56.507812 44.0625 "/>
<path fill-rule="nonzero" fill="rgb(84.705882%, 0%, 15.294118%)" fill-opacity="1" d="M 58.179688 40.3125 C 53.976562 51.800781 42.945312 60 30 60 C 17.054688 60 6.023438 51.800781 1.820312 40.3125 Z M 58.179688 40.3125 "/>
<path fill-rule="nonzero" fill="rgb(93.333333%, 93.333333%, 93.333333%)" fill-opacity="1" d="M 58.179688 19.6875 L 1.820312 19.6875 C 6.023438 8.199219 17.054688 0 30 0 C 42.945312 0 53.972656 8.199219 58.179688 19.6875 Z M 58.179688 19.6875 "/>
<path fill-rule="nonzero" fill="rgb(93.333333%, 93.333333%, 93.333333%)" fill-opacity="1" d="M 7.757812 16.957031 L 7.757812 31.921875 C 7.757812 40.4375 18.878906 43.042969 18.878906 43.042969 C 18.878906 43.042969 30 40.4375 30 31.921875 L 30 16.957031 Z M 7.757812 16.957031 "/>
<path fill-rule="nonzero" fill="rgb(84.705882%, 0%, 15.294118%)" fill-opacity="1" d="M 10.367188 16.957031 L 10.367188 31.921875 C 10.367188 32.921875 10.589844 33.867188 11.027344 34.75 L 26.730469 34.75 C 27.167969 33.867188 27.390625 32.921875 27.390625 31.921875 L 27.390625 16.957031 Z M 10.367188 16.957031 "/>
<path fill-rule="nonzero" fill="rgb(93.333333%, 93.333333%, 93.333333%)" fill-opacity="1" d="M 24.097656 27.390625 L 20.183594 27.390625 L 20.183594 24.78125 L 22.792969 24.78125 L 22.792969 22.175781 L 20.183594 22.175781 L 20.183594 19.566406 L 17.574219 19.566406 L 17.574219 22.175781 L 14.964844 22.175781 L 14.964844 24.78125 L 17.574219 24.78125 L 17.574219 27.390625 L 13.660156 27.390625 L 13.660156 30 L 17.574219 30 L 17.574219 32.609375 L 20.183594 32.609375 L 20.183594 30 L 24.097656 30 Z M 24.097656 27.390625 "/>
<path fill-rule="nonzero" fill="rgb(0%, 32.156863%, 70.588235%)" fill-opacity="1" d="M 14.585938 38.390625 C 16.265625 39.449219 17.996094 40.0625 18.878906 40.335938 C 19.761719 40.0625 21.488281 39.449219 23.171875 38.390625 C 24.867188 37.328125 26.054688 36.109375 26.730469 34.75 C 25.984375 34.222656 25.078125 33.914062 24.097656 33.914062 C 23.738281 33.914062 23.390625 33.957031 23.058594 34.03125 C 22.351562 32.425781 20.746094 31.304688 18.878906 31.304688 C 17.011719 31.304688 15.40625 32.425781 14.699219 34.03125 C 14.367188 33.957031 14.019531 33.914062 13.660156 33.914062 C 12.679688 33.914062 11.773438 34.222656 11.027344 34.75 C 11.703125 36.109375 12.890625 37.328125 14.585938 38.390625 Z M 14.585938 38.390625 "/>
</svg>
