<?xml version="1.0" encoding="UTF-8"?>
<svg xmlns="http://www.w3.org/2000/svg" xmlns:xlink="http://www.w3.org/1999/xlink" width="40" height="40" viewBox="0 0 40 40">
<path fill-rule="nonzero" fill="rgb(84.705882%, 0%, 15.294118%)" fill-opacity="1" d="M 40 20 C 40 31.046875 31.046875 40 20 40 C 8.953125 40 0 31.046875 0 20 C 0 8.953125 8.953125 0 20 0 C 31.046875 0 40 8.953125 40 20 Z M 40 20 "/>
<path fill-rule="evenodd" fill="rgb(100%, 85.490196%, 26.666667%)" fill-opacity="1" d="M 6.949219 35.15625 C 2.695312 31.488281 0 26.058594 0 20 C 0 13.941406 2.695312 8.511719 6.949219 4.84375 L 28.695312 20 Z M 6.949219 35.15625 "/>
<path fill-rule="evenodd" fill="rgb(20%, 20%, 20%)" fill-opacity="1" d="M 5.859375 34.140625 C 2.238281 30.523438 0 25.523438 0 20 C 0 14.476562 2.238281 9.476562 5.859375 5.859375 L 20 20 Z M 5.859375 34.140625 "/>
<path fill-rule="nonzero" fill="rgb(93.333333%, 93.333333%, 93.333333%)" fill-opacity="1" d="M 5.277344 14.722656 L 8.082031 17.84375 L 11.917969 16.140625 L 9.816406 19.769531 L 12.621094 22.890625 L 8.519531 22.015625 L 6.417969 25.648438 L 5.980469 21.476562 L 1.878906 20.601562 L 5.714844 18.894531 Z M 5.277344 14.722656 "/>
</svg>
