<?xml version="1.0" encoding="UTF-8"?>
<svg xmlns="http://www.w3.org/2000/svg" xmlns:xlink="http://www.w3.org/1999/xlink" width="20" height="20" viewBox="0 0 20 20">
<path fill-rule="nonzero" fill="rgb(84.705882%, 0%, 15.294118%)" fill-opacity="1" d="M 20 10 C 20 15.523438 15.523438 20 10 20 C 4.476562 20 0 15.523438 0 10 C 0 4.476562 4.476562 0 10 0 C 15.523438 0 20 4.476562 20 10 Z M 20 10 "/>
<path fill-rule="evenodd" fill="rgb(100%, 85.490196%, 26.666667%)" fill-opacity="1" d="M 3.476562 17.578125 C 1.347656 15.746094 0 13.03125 0 10 C 0 6.96875 1.347656 4.257812 3.476562 2.421875 L 14.347656 10 Z M 3.476562 17.578125 "/>
<path fill-rule="evenodd" fill="rgb(20%, 20%, 20%)" fill-opacity="1" d="M 2.929688 17.070312 C 1.121094 15.261719 0 12.761719 0 10 C 0 7.238281 1.121094 4.738281 2.929688 2.929688 L 10 10 Z M 2.929688 17.070312 "/>
<path fill-rule="nonzero" fill="rgb(93.333333%, 93.333333%, 93.333333%)" fill-opacity="1" d="M 2.640625 7.359375 L 4.042969 8.921875 L 5.957031 8.070312 L 4.910156 9.886719 L 6.3125 11.445312 L 4.257812 11.007812 L 3.207031 12.824219 L 2.992188 10.738281 L 0.9375 10.300781 L 2.855469 9.449219 L 2.640625 7.363281 Z M 2.640625 7.359375 "/>
</svg>
