<?xml version="1.0" encoding="UTF-8"?>
<svg xmlns="http://www.w3.org/2000/svg" xmlns:xlink="http://www.w3.org/1999/xlink" width="60" height="60" viewBox="0 0 60 60">
<path fill-rule="nonzero" fill="rgb(84.705882%, 0%, 15.294118%)" fill-opacity="1" d="M 60 30 C 60 46.570312 46.570312 60 30 60 C 13.429688 60 0 46.570312 0 30 C 0 13.429688 13.429688 0 30 0 C 46.570312 0 60 13.429688 60 30 Z M 60 30 "/>
<path fill-rule="evenodd" fill="rgb(100%, 85.490196%, 26.666667%)" fill-opacity="1" d="M 10.425781 52.734375 C 4.042969 47.234375 0 39.089844 0 30 C 0 20.910156 4.042969 12.765625 10.425781 7.265625 L 43.042969 30 Z M 10.425781 52.734375 "/>
<path fill-rule="evenodd" fill="rgb(20%, 20%, 20%)" fill-opacity="1" d="M 8.785156 51.214844 C 3.359375 45.785156 0 38.285156 0 30 C 0 21.714844 3.359375 14.214844 8.785156 8.785156 L 30 30 Z M 8.785156 51.214844 "/>
<path fill-rule="nonzero" fill="rgb(93.333333%, 93.333333%, 93.333333%)" fill-opacity="1" d="M 7.914062 22.085938 L 12.125 26.765625 L 17.875 24.207031 L 14.726562 29.65625 L 18.933594 34.335938 L 12.777344 33.023438 L 9.625 38.472656 L 8.972656 32.210938 L 2.816406 30.898438 L 8.570312 28.34375 Z M 7.914062 22.085938 "/>
</svg>
