<?xml version="1.0" encoding="UTF-8"?>
<svg xmlns="http://www.w3.org/2000/svg" xmlns:xlink="http://www.w3.org/1999/xlink" width="40" height="40" viewBox="0 0 40 40">
<path fill-rule="nonzero" fill="rgb(93.333333%, 93.333333%, 93.333333%)" fill-opacity="1" d="M 37.324219 30 C 39.027344 27.058594 40 23.644531 40 20 C 40 16.355469 39.027344 12.941406 37.324219 10 L 2.675781 10 C 0.972656 12.941406 0 16.355469 0 20 C 0 23.644531 0.972656 27.058594 2.675781 30 Z M 37.324219 30 "/>
<path fill-rule="nonzero" fill="rgb(28.627451%, 43.137255%, 17.647059%)" fill-opacity="1" d="M 19.992188 40 C 12.089844 39.996094 5.253906 35.410156 2.011719 28.75 L 37.988281 28.75 C 34.746094 35.410156 27.910156 39.996094 20.007812 40 Z M 19.992188 40 "/>
<path fill-rule="nonzero" fill="rgb(20%, 20%, 20%)" fill-opacity="1" d="M 20 0 C 12.09375 0 5.257812 4.589844 2.011719 11.25 L 37.988281 11.25 C 34.742188 4.589844 27.910156 0 20 0 Z M 20 0 "/>
<path fill-rule="nonzero" fill="rgb(84.705882%, 0%, 15.294118%)" fill-opacity="1" d="M 0 19.1875 C 0.207031 13.984375 2.40625 9.289062 5.851562 5.847656 L 20 20 L 5.851562 34.148438 C 2.40625 30.707031 0.207031 26.015625 0 20.8125 L 0 19.183594 Z M 0 19.1875 "/>
<path fill-rule="nonzero" fill="rgb(84.705882%, 0%, 15.294118%)" fill-opacity="1" d="M 26.054688 14.492188 C 26.828125 14.132812 27.667969 13.9375 28.523438 13.921875 C 29.019531 13.910156 29.515625 13.957031 30 14.0625 C 28.648438 14.367188 27.441406 15.121094 26.578125 16.199219 C 25.714844 17.28125 25.242188 18.625 25.242188 20.007812 C 25.242188 21.390625 25.714844 22.734375 26.578125 23.816406 C 27.441406 24.894531 28.648438 25.648438 30 25.953125 C 29.167969 26.144531 28.304688 26.160156 27.46875 25.996094 C 26.628906 25.832031 25.835938 25.496094 25.136719 25.003906 C 24.4375 24.515625 23.847656 23.882812 23.410156 23.152344 C 22.96875 22.421875 22.6875 21.605469 22.585938 20.757812 C 22.480469 19.910156 22.554688 19.050781 22.804688 18.234375 C 23.054688 17.417969 23.472656 16.664062 24.03125 16.019531 C 24.59375 15.375 25.28125 14.855469 26.054688 14.492188 Z M 26.054688 14.492188 "/>
<path fill-rule="nonzero" fill="rgb(84.705882%, 0%, 15.294118%)" fill-opacity="1" d="M 31.117188 18.757812 L 30.257812 16.101562 L 29.390625 18.757812 L 26.59375 18.757812 L 28.859375 20.398438 L 27.992188 23.054688 L 30.25 21.414062 L 32.515625 23.054688 L 31.648438 20.398438 L 33.914062 18.757812 Z M 31.117188 18.757812 "/>
</svg>
