<?xml version="1.0" encoding="UTF-8"?>
<svg xmlns="http://www.w3.org/2000/svg" xmlns:xlink="http://www.w3.org/1999/xlink" width="20" height="20" viewBox="0 0 20 20">
<path fill-rule="nonzero" fill="rgb(93.333333%, 93.333333%, 93.333333%)" fill-opacity="1" d="M 18.664062 15 C 19.511719 13.527344 20 11.820312 20 10 C 20 8.179688 19.511719 6.472656 18.664062 5 L 1.335938 5 C 0.488281 6.472656 0 8.179688 0 10 C 0 11.820312 0.488281 13.527344 1.335938 15 Z M 18.664062 15 "/>
<path fill-rule="nonzero" fill="rgb(28.627451%, 43.137255%, 17.647059%)" fill-opacity="1" d="M 9.996094 20 C 6.042969 20 2.628906 17.703125 1.003906 14.375 L 18.996094 14.375 C 17.371094 17.703125 13.957031 20 10.003906 20 Z M 9.996094 20 "/>
<path fill-rule="nonzero" fill="rgb(20%, 20%, 20%)" fill-opacity="1" d="M 10 0 C 6.046875 0 2.628906 2.292969 1.003906 5.625 L 18.996094 5.625 C 17.371094 2.292969 13.953125 0 10 0 Z M 10 0 "/>
<path fill-rule="nonzero" fill="rgb(84.705882%, 0%, 15.294118%)" fill-opacity="1" d="M 0 9.59375 C 0.105469 6.992188 1.203125 4.644531 2.925781 2.925781 L 10 10 L 2.925781 17.074219 C 1.203125 15.355469 0.105469 13.007812 0 10.40625 Z M 0 9.59375 "/>
<path fill-rule="nonzero" fill="rgb(84.705882%, 0%, 15.294118%)" fill-opacity="1" d="M 13.027344 7.246094 C 13.414062 7.066406 13.835938 6.96875 14.261719 6.960938 C 14.507812 6.953125 14.757812 6.976562 15 7.03125 C 14.324219 7.183594 13.722656 7.558594 13.289062 8.101562 C 12.855469 8.640625 12.621094 9.3125 12.621094 10.003906 C 12.621094 10.695312 12.855469 11.367188 13.289062 11.90625 C 13.722656 12.449219 14.324219 12.824219 15 12.976562 C 14.582031 13.074219 14.152344 13.078125 13.734375 12.996094 C 13.316406 12.917969 12.917969 12.746094 12.566406 12.503906 C 12.21875 12.257812 11.925781 11.941406 11.703125 11.574219 C 11.484375 11.210938 11.34375 10.800781 11.292969 10.378906 C 11.242188 9.953125 11.277344 9.523438 11.402344 9.117188 C 11.527344 8.707031 11.738281 8.332031 12.015625 8.007812 C 12.296875 7.6875 12.640625 7.425781 13.027344 7.246094 Z M 13.027344 7.246094 "/>
<path fill-rule="nonzero" fill="rgb(84.705882%, 0%, 15.294118%)" fill-opacity="1" d="M 15.558594 9.378906 L 15.128906 8.050781 L 14.695312 9.378906 L 13.296875 9.378906 L 14.429688 10.199219 L 13.996094 11.527344 L 15.125 10.707031 L 16.257812 11.527344 L 15.824219 10.199219 L 16.957031 9.378906 Z M 15.558594 9.378906 "/>
</svg>
