<?xml version="1.0" encoding="UTF-8"?>
<svg xmlns="http://www.w3.org/2000/svg" xmlns:xlink="http://www.w3.org/1999/xlink" width="60" height="60" viewBox="0 0 60 60">
<path fill-rule="nonzero" fill="rgb(93.333333%, 93.333333%, 93.333333%)" fill-opacity="1" d="M 55.984375 45 C 58.539062 40.585938 60 35.464844 60 30 C 60 24.535156 58.539062 19.414062 55.984375 15 L 4.015625 15 C 1.460938 19.414062 0 24.535156 0 30 C 0 35.464844 1.460938 40.585938 4.015625 45 Z M 55.984375 45 "/>
<path fill-rule="nonzero" fill="rgb(28.627451%, 43.137255%, 17.647059%)" fill-opacity="1" d="M 29.988281 60 C 18.132812 59.996094 7.882812 53.113281 3.015625 43.125 L 56.984375 43.125 C 52.117188 53.113281 41.867188 59.996094 30.007812 60 Z M 29.988281 60 "/>
<path fill-rule="nonzero" fill="rgb(20%, 20%, 20%)" fill-opacity="1" d="M 30 0 C 18.136719 0 7.882812 6.882812 3.015625 16.875 L 56.984375 16.875 C 52.117188 6.882812 41.863281 0 30 0 Z M 30 0 "/>
<path fill-rule="nonzero" fill="rgb(84.705882%, 0%, 15.294118%)" fill-opacity="1" d="M 0 28.777344 C 0.3125 20.972656 3.605469 13.9375 8.773438 8.773438 L 30 30 L 8.773438 51.222656 C 3.605469 46.0625 0.3125 39.023438 0 31.21875 Z M 0 28.777344 "/>
<path fill-rule="nonzero" fill="rgb(84.705882%, 0%, 15.294118%)" fill-opacity="1" d="M 39.082031 21.738281 C 40.242188 21.199219 41.503906 20.90625 42.785156 20.882812 C 43.527344 20.863281 44.273438 20.933594 45 21.09375 C 42.972656 21.550781 41.164062 22.679688 39.867188 24.300781 C 38.570312 25.921875 37.863281 27.9375 37.863281 30.011719 C 37.863281 32.085938 38.570312 34.101562 39.867188 35.722656 C 41.164062 37.34375 42.972656 38.472656 45 38.929688 C 43.75 39.21875 42.457031 39.238281 41.199219 38.992188 C 39.945312 38.75 38.753906 38.242188 37.703125 37.507812 C 36.65625 36.773438 35.773438 35.824219 35.113281 34.726562 C 34.453125 33.628906 34.03125 32.40625 33.878906 31.136719 C 33.722656 29.863281 33.832031 28.574219 34.207031 27.351562 C 34.582031 26.125 35.210938 24.992188 36.050781 24.027344 C 36.890625 23.058594 37.921875 22.28125 39.082031 21.738281 Z M 39.082031 21.738281 "/>
<path fill-rule="nonzero" fill="rgb(84.705882%, 0%, 15.294118%)" fill-opacity="1" d="M 46.675781 28.136719 L 45.386719 24.152344 L 44.085938 28.136719 L 39.890625 28.136719 L 43.289062 30.597656 L 41.988281 34.582031 L 45.375 32.121094 L 48.773438 34.582031 L 47.472656 30.597656 L 50.871094 28.136719 Z M 46.675781 28.136719 "/>
</svg>
