<?xml version="1.0" encoding="UTF-8"?>
<svg xmlns="http://www.w3.org/2000/svg" xmlns:xlink="http://www.w3.org/1999/xlink" width="60" height="60" viewBox="0 0 60 60">
<path fill-rule="nonzero" fill="rgb(63.529412%, 0%, 11.372549%)" fill-opacity="1" d="M 60 30 C 60 46.570312 46.570312 60 30 60 C 13.429688 60 0 46.570312 0 30 C 0 13.429688 13.429688 0 30 0 C 46.570312 0 60 13.429688 60 30 Z M 60 30 "/>
<path fill-rule="nonzero" fill="rgb(100%, 85.490196%, 26.666667%)" fill-opacity="1" d="M 8.785156 8.785156 L 51.214844 8.785156 L 51.214844 51.207031 L 8.785156 51.207031 Z M 8.785156 8.785156 "/>
<path fill-rule="evenodd" fill="rgb(28.627451%, 43.137255%, 17.647059%)" fill-opacity="1" d="M 51.214844 51.214844 C 56.640625 45.785156 60 38.285156 60 30 C 60 21.714844 56.640625 14.214844 51.214844 8.785156 L 30 30 L 8.785156 8.785156 C 3.359375 14.214844 0 21.714844 0 30 C 0 38.285156 3.359375 45.785156 8.785156 51.214844 L 30 30 Z M 51.214844 51.214844 "/>
<path fill-rule="nonzero" fill="rgb(63.529412%, 0%, 11.372549%)" fill-opacity="1" d="M 41.539062 30 C 41.539062 36.371094 36.371094 41.539062 30 41.539062 C 23.628906 41.539062 18.460938 36.371094 18.460938 30 C 18.460938 23.628906 23.628906 18.460938 30 18.460938 C 36.371094 18.460938 41.539062 23.628906 41.539062 30 Z M 41.539062 30 "/>
<path fill-rule="nonzero" fill="rgb(100%, 85.490196%, 26.666667%)" fill-opacity="1" d="M 30 18.460938 L 32.589844 26.433594 L 40.972656 26.433594 L 34.191406 31.363281 L 36.78125 39.332031 L 30 34.40625 L 23.21875 39.332031 L 25.808594 31.363281 L 19.027344 26.433594 L 27.410156 26.433594 Z M 30 18.460938 "/>
<path fill-rule="nonzero" fill="rgb(100%, 85.490196%, 26.666667%)" fill-opacity="1" d="M 14.976562 29.503906 C 15.75 30.722656 15.386719 32.332031 14.167969 33.105469 C 12.953125 33.875 11.339844 33.511719 10.570312 32.292969 C 9.175781 30.089844 9.984375 26.492188 9.984375 26.492188 C 9.984375 26.492188 13.582031 27.300781 14.976562 29.503906 Z M 14.976562 29.503906 "/>
<path fill-rule="nonzero" fill="rgb(63.529412%, 0%, 11.372549%)" fill-opacity="1" d="M 13.472656 33.308594 C 14.191406 33.308594 14.777344 32.722656 14.777344 32.003906 C 14.777344 31.28125 14.191406 30.699219 13.472656 30.699219 C 12.75 30.699219 12.167969 31.28125 12.167969 32.003906 C 12.167969 32.722656 12.75 33.308594 13.472656 33.308594 Z M 13.472656 33.308594 "/>
<path fill-rule="nonzero" fill="rgb(100%, 85.490196%, 26.666667%)" fill-opacity="1" d="M 20.15625 2.050781 L 20.683594 3.667969 L 22.386719 3.667969 L 21.007812 4.671875 L 21.535156 6.289062 L 20.15625 5.289062 L 18.777344 6.289062 L 19.304688 4.671875 L 17.925781 3.667969 L 19.628906 3.667969 Z M 20.15625 2.050781 "/>
<path fill-rule="nonzero" fill="rgb(100%, 85.490196%, 26.666667%)" fill-opacity="1" d="M 29.53125 2.050781 L 30.058594 3.667969 L 31.761719 3.667969 L 30.382812 4.671875 L 30.910156 6.289062 L 29.53125 5.289062 L 28.152344 6.289062 L 28.679688 4.671875 L 27.300781 3.667969 L 29.003906 3.667969 Z M 29.53125 2.050781 "/>
<path fill-rule="nonzero" fill="rgb(100%, 85.490196%, 26.666667%)" fill-opacity="1" d="M 38.90625 2.050781 L 39.433594 3.667969 L 41.136719 3.667969 L 39.757812 4.671875 L 40.285156 6.289062 L 38.90625 5.289062 L 37.527344 6.289062 L 38.054688 4.671875 L 36.675781 3.667969 L 38.378906 3.667969 Z M 38.90625 2.050781 "/>
<path fill-rule="nonzero" fill="rgb(100%, 85.490196%, 26.666667%)" fill-opacity="1" d="M 20.15625 53.261719 L 20.683594 54.882812 L 22.386719 54.882812 L 21.007812 55.882812 L 21.535156 57.503906 L 20.15625 56.5 L 18.777344 57.503906 L 19.304688 55.882812 L 17.925781 54.882812 L 19.628906 54.882812 Z M 20.15625 53.261719 "/>
<path fill-rule="nonzero" fill="rgb(100%, 85.490196%, 26.666667%)" fill-opacity="1" d="M 29.53125 53.261719 L 30.058594 54.882812 L 31.761719 54.882812 L 30.382812 55.882812 L 30.910156 57.503906 L 29.53125 56.5 L 28.152344 57.503906 L 28.679688 55.882812 L 27.300781 54.882812 L 29.003906 54.882812 Z M 29.53125 53.261719 "/>
<path fill-rule="nonzero" fill="rgb(100%, 85.490196%, 26.666667%)" fill-opacity="1" d="M 38.90625 53.261719 L 39.433594 54.882812 L 41.136719 54.882812 L 39.757812 55.882812 L 40.285156 57.503906 L 38.90625 56.5 L 37.527344 57.503906 L 38.054688 55.882812 L 36.675781 54.882812 L 38.378906 54.882812 Z M 38.90625 53.261719 "/>
</svg>
