<?xml version="1.0" encoding="UTF-8"?>
<svg xmlns="http://www.w3.org/2000/svg" xmlns:xlink="http://www.w3.org/1999/xlink" width="40" height="40" viewBox="0 0 40 40">
<path fill-rule="nonzero" fill="rgb(63.529412%, 0%, 11.372549%)" fill-opacity="1" d="M 40 20 C 40 31.046875 31.046875 40 20 40 C 8.953125 40 0 31.046875 0 20 C 0 8.953125 8.953125 0 20 0 C 31.046875 0 40 8.953125 40 20 Z M 40 20 "/>
<path fill-rule="nonzero" fill="rgb(100%, 85.490196%, 26.666667%)" fill-opacity="1" d="M 5.859375 5.859375 L 34.140625 5.859375 L 34.140625 34.140625 L 5.859375 34.140625 Z M 5.859375 5.859375 "/>
<path fill-rule="evenodd" fill="rgb(28.627451%, 43.137255%, 17.647059%)" fill-opacity="1" d="M 34.140625 34.140625 C 37.761719 30.523438 40 25.523438 40 20 C 40 14.476562 37.761719 9.476562 34.140625 5.859375 L 20 20 L 5.859375 5.859375 C 2.238281 9.476562 0 14.476562 0 20 C 0 25.523438 2.238281 30.523438 5.859375 34.140625 L 20 20 Z M 34.140625 34.140625 "/>
<path fill-rule="nonzero" fill="rgb(63.529412%, 0%, 11.372549%)" fill-opacity="1" d="M 27.691406 20 C 27.691406 24.246094 24.246094 27.691406 20 27.691406 C 15.753906 27.691406 12.308594 24.246094 12.308594 20 C 12.308594 15.753906 15.753906 12.308594 20 12.308594 C 24.246094 12.308594 27.691406 15.753906 27.691406 20 Z M 27.691406 20 "/>
<path fill-rule="nonzero" fill="rgb(100%, 85.490196%, 26.666667%)" fill-opacity="1" d="M 20 12.308594 L 21.726562 17.625 L 27.316406 17.625 L 22.792969 20.90625 L 24.519531 26.222656 L 20 22.9375 L 15.480469 26.222656 L 17.207031 20.90625 L 12.683594 17.625 L 18.273438 17.625 Z M 20 12.308594 "/>
<path fill-rule="nonzero" fill="rgb(100%, 85.490196%, 26.666667%)" fill-opacity="1" d="M 9.984375 19.667969 C 10.5 20.480469 10.257812 21.554688 9.445312 22.070312 C 8.632812 22.582031 7.558594 22.339844 7.046875 21.53125 C 6.117188 20.0625 6.65625 17.660156 6.65625 17.660156 C 6.65625 17.660156 9.054688 18.199219 9.984375 19.667969 Z M 9.984375 19.667969 "/>
<path fill-rule="nonzero" fill="rgb(63.529412%, 0%, 11.372549%)" fill-opacity="1" d="M 8.980469 22.203125 C 9.460938 22.203125 9.851562 21.816406 9.851562 21.335938 C 9.851562 20.855469 9.460938 20.464844 8.980469 20.464844 C 8.5 20.464844 8.113281 20.855469 8.113281 21.335938 C 8.113281 21.816406 8.5 22.203125 8.980469 22.203125 Z M 8.980469 22.203125 "/>
<path fill-rule="nonzero" fill="rgb(100%, 85.490196%, 26.666667%)" fill-opacity="1" d="M 13.4375 1.367188 L 13.789062 2.445312 L 14.921875 2.445312 L 14.003906 3.113281 L 14.355469 4.191406 L 13.4375 3.527344 L 12.519531 4.191406 L 12.871094 3.113281 L 11.953125 2.445312 L 13.085938 2.445312 Z M 13.4375 1.367188 "/>
<path fill-rule="nonzero" fill="rgb(100%, 85.490196%, 26.666667%)" fill-opacity="1" d="M 19.6875 1.367188 L 20.039062 2.445312 L 21.171875 2.445312 L 20.253906 3.113281 L 20.605469 4.191406 L 19.6875 3.527344 L 18.769531 4.191406 L 19.121094 3.113281 L 18.203125 2.445312 L 19.335938 2.445312 Z M 19.6875 1.367188 "/>
<path fill-rule="nonzero" fill="rgb(100%, 85.490196%, 26.666667%)" fill-opacity="1" d="M 25.9375 1.367188 L 26.289062 2.445312 L 27.421875 2.445312 L 26.503906 3.113281 L 26.855469 4.191406 L 25.9375 3.527344 L 25.019531 4.191406 L 25.371094 3.113281 L 24.453125 2.445312 L 25.585938 2.445312 Z M 25.9375 1.367188 "/>
<path fill-rule="nonzero" fill="rgb(100%, 85.490196%, 26.666667%)" fill-opacity="1" d="M 13.4375 35.507812 L 13.789062 36.589844 L 14.921875 36.589844 L 14.003906 37.253906 L 14.355469 38.335938 L 13.4375 37.667969 L 12.519531 38.335938 L 12.871094 37.253906 L 11.953125 36.589844 L 13.085938 36.589844 Z M 13.4375 35.507812 "/>
<path fill-rule="nonzero" fill="rgb(100%, 85.490196%, 26.666667%)" fill-opacity="1" d="M 19.6875 35.507812 L 20.039062 36.589844 L 21.171875 36.589844 L 20.253906 37.253906 L 20.605469 38.335938 L 19.6875 37.667969 L 18.769531 38.335938 L 19.121094 37.253906 L 18.203125 36.589844 L 19.335938 36.589844 Z M 19.6875 35.507812 "/>
<path fill-rule="nonzero" fill="rgb(100%, 85.490196%, 26.666667%)" fill-opacity="1" d="M 25.9375 35.507812 L 26.289062 36.589844 L 27.421875 36.589844 L 26.503906 37.253906 L 26.855469 38.335938 L 25.9375 37.667969 L 25.019531 38.335938 L 25.371094 37.253906 L 24.453125 36.589844 L 25.585938 36.589844 Z M 25.9375 35.507812 "/>
</svg>
