<?xml version="1.0" encoding="UTF-8"?>
<svg xmlns="http://www.w3.org/2000/svg" xmlns:xlink="http://www.w3.org/1999/xlink" width="20" height="20" viewBox="0 0 20 20">
<path fill-rule="nonzero" fill="rgb(63.529412%, 0%, 11.372549%)" fill-opacity="1" d="M 20 10 C 20 15.523438 15.523438 20 10 20 C 4.476562 20 0 15.523438 0 10 C 0 4.476562 4.476562 0 10 0 C 15.523438 0 20 4.476562 20 10 Z M 20 10 "/>
<path fill-rule="nonzero" fill="rgb(100%, 85.490196%, 26.666667%)" fill-opacity="1" d="M 2.929688 2.929688 L 17.070312 2.929688 L 17.070312 17.070312 L 2.929688 17.070312 Z M 2.929688 2.929688 "/>
<path fill-rule="evenodd" fill="rgb(28.627451%, 43.137255%, 17.647059%)" fill-opacity="1" d="M 17.070312 17.070312 C 18.878906 15.261719 20 12.761719 20 10 C 20 7.238281 18.878906 4.738281 17.070312 2.929688 L 10 10 L 2.929688 2.929688 C 1.121094 4.738281 0 7.238281 0 10 C 0 12.761719 1.121094 15.261719 2.929688 17.070312 L 10 10 Z M 17.070312 17.070312 "/>
<path fill-rule="nonzero" fill="rgb(63.529412%, 0%, 11.372549%)" fill-opacity="1" d="M 13.84375 10 C 13.84375 12.125 12.125 13.84375 10 13.84375 C 7.875 13.84375 6.15625 12.125 6.15625 10 C 6.15625 7.875 7.875 6.15625 10 6.15625 C 12.125 6.15625 13.84375 7.875 13.84375 10 Z M 13.84375 10 "/>
<path fill-rule="nonzero" fill="rgb(100%, 85.490196%, 26.666667%)" fill-opacity="1" d="M 10 6.15625 L 10.863281 8.8125 L 13.65625 8.8125 L 11.398438 10.453125 L 12.261719 13.109375 L 10 11.46875 L 7.738281 13.109375 L 8.601562 10.453125 L 6.34375 8.8125 L 9.136719 8.8125 L 10 6.152344 Z M 10 6.15625 "/>
<path fill-rule="nonzero" fill="rgb(100%, 85.490196%, 26.666667%)" fill-opacity="1" d="M 4.992188 9.835938 C 5.25 10.242188 5.128906 10.777344 4.722656 11.035156 C 4.316406 11.292969 3.78125 11.171875 3.523438 10.765625 C 3.058594 10.03125 3.328125 8.832031 3.328125 8.832031 C 3.328125 8.832031 4.527344 9.101562 4.992188 9.835938 Z M 4.992188 9.835938 "/>
<path fill-rule="nonzero" fill="rgb(63.529412%, 0%, 11.372549%)" fill-opacity="1" d="M 4.492188 11.101562 C 4.730469 11.101562 4.925781 10.90625 4.925781 10.667969 C 4.925781 10.425781 4.730469 10.234375 4.492188 10.234375 C 4.25 10.234375 4.054688 10.425781 4.054688 10.667969 C 4.054688 10.90625 4.25 11.101562 4.492188 11.101562 Z M 4.492188 11.101562 "/>
<path fill-rule="nonzero" fill="rgb(100%, 85.490196%, 26.666667%)" fill-opacity="1" d="M 6.71875 0.683594 L 6.894531 1.222656 L 7.460938 1.222656 L 7.003906 1.558594 L 7.179688 2.097656 L 6.71875 1.761719 L 6.257812 2.097656 L 6.433594 1.558594 L 5.976562 1.222656 L 6.542969 1.222656 Z M 6.71875 0.683594 "/>
<path fill-rule="nonzero" fill="rgb(100%, 85.490196%, 26.666667%)" fill-opacity="1" d="M 9.84375 0.683594 L 10.019531 1.222656 L 10.585938 1.222656 L 10.128906 1.558594 L 10.304688 2.097656 L 9.84375 1.761719 L 9.382812 2.097656 L 9.558594 1.558594 L 9.101562 1.222656 L 9.667969 1.222656 Z M 9.84375 0.683594 "/>
<path fill-rule="nonzero" fill="rgb(100%, 85.490196%, 26.666667%)" fill-opacity="1" d="M 12.96875 0.683594 L 13.144531 1.222656 L 13.710938 1.222656 L 13.253906 1.558594 L 13.429688 2.097656 L 12.96875 1.761719 L 12.507812 2.097656 L 12.683594 1.558594 L 12.226562 1.222656 L 12.792969 1.222656 Z M 12.96875 0.683594 "/>
<path fill-rule="nonzero" fill="rgb(100%, 85.490196%, 26.666667%)" fill-opacity="1" d="M 6.71875 17.753906 L 6.894531 18.292969 L 7.460938 18.292969 L 7.003906 18.628906 L 7.179688 19.167969 L 6.71875 18.835938 L 6.257812 19.167969 L 6.433594 18.628906 L 5.976562 18.292969 L 6.542969 18.292969 Z M 6.71875 17.753906 "/>
<path fill-rule="nonzero" fill="rgb(100%, 85.490196%, 26.666667%)" fill-opacity="1" d="M 9.84375 17.753906 L 10.019531 18.292969 L 10.585938 18.292969 L 10.128906 18.628906 L 10.304688 19.167969 L 9.84375 18.835938 L 9.382812 19.167969 L 9.558594 18.628906 L 9.101562 18.292969 L 9.667969 18.292969 Z M 9.84375 17.753906 "/>
<path fill-rule="nonzero" fill="rgb(100%, 85.490196%, 26.666667%)" fill-opacity="1" d="M 12.96875 17.753906 L 13.144531 18.292969 L 13.710938 18.292969 L 13.253906 18.628906 L 13.429688 19.167969 L 12.96875 18.835938 L 12.507812 19.167969 L 12.683594 18.628906 L 12.226562 18.292969 L 12.792969 18.292969 Z M 12.96875 17.753906 "/>
</svg>
