<?xml version="1.0" encoding="UTF-8"?>
<svg xmlns="http://www.w3.org/2000/svg" xmlns:xlink="http://www.w3.org/1999/xlink" width="40" height="40" viewBox="0 0 40 40">
<path fill-rule="evenodd" fill="rgb(0%, 32.156863%, 70.588235%)" fill-opacity="1" d="M 34.21875 34.066406 C 37.792969 30.453125 40 25.484375 40 20 C 40 16.902344 39.296875 13.96875 38.039062 11.351562 L 1.960938 11.351562 C 0.703125 13.96875 0 16.902344 0 20 C 0 25.484375 2.207031 30.453125 5.78125 34.066406 Z M 34.21875 34.066406 "/>
<path fill-rule="evenodd" fill="rgb(84.705882%, 0%, 15.294118%)" fill-opacity="1" d="M 37.324219 30 C 33.867188 35.976562 27.402344 40 20 40 C 12.597656 40 6.132812 35.976562 2.675781 30 Z M 37.324219 30 "/>
<path fill-rule="evenodd" fill="rgb(100%, 85.490196%, 26.666667%)" fill-opacity="1" d="M 40 20 C 40 8.953125 31.046875 0 20 0 C 8.953125 0 0 8.953125 0 20 Z M 40 20 "/>
<path fill-rule="nonzero" fill="rgb(100%, 85.490196%, 26.666667%)" fill-opacity="1" d="M 20 26.957031 C 23.84375 26.957031 26.957031 23.839844 26.957031 20 C 26.957031 16.15625 23.84375 13.042969 20 13.042969 C 16.15625 13.042969 13.042969 16.15625 13.042969 20 C 13.042969 23.839844 16.15625 26.957031 20 26.957031 Z M 20 26.957031 "/>
<path fill-rule="nonzero" fill="rgb(20%, 54.117647%, 95.294118%)" fill-opacity="1" d="M 20 24.347656 C 17.601562 24.347656 15.652344 22.398438 15.652344 20 L 15.652344 17.390625 C 15.652344 14.992188 17.601562 13.042969 20 13.042969 C 22.398438 13.042969 24.347656 14.992188 24.347656 17.390625 L 24.347656 20 C 24.347656 22.398438 22.398438 24.347656 20 24.347656 Z M 20 24.347656 "/>
<path fill-rule="nonzero" fill="rgb(34.509804%, 27.058824%, 15.686275%)" fill-opacity="1" d="M 26.957031 9.566406 L 21.738281 9.566406 C 21.738281 8.605469 20.960938 7.828125 20 7.828125 C 19.039062 7.828125 18.261719 8.605469 18.261719 9.566406 L 13.042969 9.566406 C 13.042969 10.527344 13.878906 11.304688 14.839844 11.304688 L 14.78125 11.304688 C 14.78125 12.265625 15.5625 13.042969 16.519531 13.042969 C 16.519531 14.003906 17.300781 14.78125 18.261719 14.78125 L 21.738281 14.78125 C 22.699219 14.78125 23.476562 14.003906 23.476562 13.042969 C 24.4375 13.042969 25.21875 12.265625 25.21875 11.304688 L 25.160156 11.304688 C 26.121094 11.304688 26.957031 10.527344 26.957031 9.566406 Z M 26.957031 9.566406 "/>
</svg>
