<?xml version="1.0" encoding="UTF-8"?>
<svg xmlns="http://www.w3.org/2000/svg" xmlns:xlink="http://www.w3.org/1999/xlink" width="20" height="20" viewBox="0 0 20 20">
<path fill-rule="evenodd" fill="rgb(0%, 32.156863%, 70.588235%)" fill-opacity="1" d="M 17.109375 17.03125 C 18.894531 15.226562 20 12.742188 20 10 C 20 8.449219 19.648438 6.984375 19.019531 5.675781 L 0.980469 5.675781 C 0.351562 6.984375 0 8.449219 0 10 C 0 12.742188 1.105469 15.226562 2.890625 17.03125 Z M 17.109375 17.03125 "/>
<path fill-rule="evenodd" fill="rgb(84.705882%, 0%, 15.294118%)" fill-opacity="1" d="M 18.664062 15 C 16.933594 17.988281 13.703125 20 10 20 C 6.296875 20 3.066406 17.988281 1.335938 15 Z M 18.664062 15 "/>
<path fill-rule="evenodd" fill="rgb(100%, 85.490196%, 26.666667%)" fill-opacity="1" d="M 20 10 C 20 4.476562 15.523438 0 10 0 C 4.476562 0 0 4.476562 0 10 Z M 20 10 "/>
<path fill-rule="nonzero" fill="rgb(100%, 85.490196%, 26.666667%)" fill-opacity="1" d="M 10 13.476562 C 11.921875 13.476562 13.476562 11.921875 13.476562 10 C 13.476562 8.078125 11.921875 6.523438 10 6.523438 C 8.078125 6.523438 6.523438 8.078125 6.523438 10 C 6.523438 11.921875 8.078125 13.476562 10 13.476562 Z M 10 13.476562 "/>
<path fill-rule="nonzero" fill="rgb(20%, 54.117647%, 95.294118%)" fill-opacity="1" d="M 10 12.171875 C 8.800781 12.171875 7.824219 11.199219 7.824219 10 L 7.824219 8.695312 C 7.824219 7.496094 8.800781 6.523438 10 6.523438 C 11.199219 6.523438 12.175781 7.496094 12.175781 8.695312 L 12.175781 10 C 12.175781 11.199219 11.199219 12.171875 10 12.171875 Z M 10 12.171875 "/>
<path fill-rule="nonzero" fill="rgb(34.509804%, 27.058824%, 15.686275%)" fill-opacity="1" d="M 13.476562 4.78125 L 10.871094 4.78125 C 10.871094 4.300781 10.480469 3.914062 10 3.914062 C 9.519531 3.914062 9.128906 4.300781 9.128906 4.78125 L 6.523438 4.78125 C 6.523438 5.261719 6.941406 5.652344 7.421875 5.652344 L 7.390625 5.652344 C 7.390625 6.132812 7.78125 6.523438 8.261719 6.523438 C 8.261719 7.003906 8.648438 7.390625 9.128906 7.390625 L 10.871094 7.390625 C 11.351562 7.390625 11.738281 7.003906 11.738281 6.523438 C 12.21875 6.523438 12.609375 6.132812 12.609375 5.652344 L 12.578125 5.652344 C 13.058594 5.652344 13.476562 5.261719 13.476562 4.78125 Z M 13.476562 4.78125 "/>
</svg>
