<?xml version="1.0" encoding="UTF-8"?>
<svg xmlns="http://www.w3.org/2000/svg" xmlns:xlink="http://www.w3.org/1999/xlink" width="60" height="60" viewBox="0 0 60 60">
<path fill-rule="evenodd" fill="rgb(0%, 32.156863%, 70.588235%)" fill-opacity="1" d="M 51.324219 51.101562 C 56.6875 45.679688 60 38.226562 60 30 C 60 25.351562 58.945312 20.953125 57.058594 17.027344 L 2.941406 17.027344 C 1.054688 20.953125 0 25.351562 0 30 C 0 38.226562 3.3125 45.679688 8.675781 51.101562 Z M 51.324219 51.101562 "/>
<path fill-rule="evenodd" fill="rgb(84.705882%, 0%, 15.294118%)" fill-opacity="1" d="M 55.984375 45 C 50.800781 53.96875 41.101562 60 30 60 C 18.898438 60 9.199219 53.96875 4.015625 45 Z M 55.984375 45 "/>
<path fill-rule="evenodd" fill="rgb(100%, 85.490196%, 26.666667%)" fill-opacity="1" d="M 60 30 C 60 13.433594 46.566406 0 30 0 C 13.433594 0 0 13.433594 0 30 Z M 60 30 "/>
<path fill-rule="nonzero" fill="rgb(100%, 85.490196%, 26.666667%)" fill-opacity="1" d="M 30 40.433594 C 35.761719 40.433594 40.433594 35.761719 40.433594 30 C 40.433594 24.238281 35.761719 19.566406 30 19.566406 C 24.238281 19.566406 19.566406 24.238281 19.566406 30 C 19.566406 35.761719 24.238281 40.433594 30 40.433594 Z M 30 40.433594 "/>
<path fill-rule="nonzero" fill="rgb(20%, 54.117647%, 95.294118%)" fill-opacity="1" d="M 30 36.523438 C 26.402344 36.523438 23.476562 33.597656 23.476562 30 L 23.476562 26.085938 C 23.476562 22.492188 26.402344 19.566406 30 19.566406 C 33.597656 19.566406 36.523438 22.492188 36.523438 26.085938 L 36.523438 30 C 36.523438 33.597656 33.597656 36.523438 30 36.523438 Z M 30 36.523438 "/>
<path fill-rule="nonzero" fill="rgb(34.509804%, 27.058824%, 15.686275%)" fill-opacity="1" d="M 40.433594 14.347656 L 32.609375 14.347656 C 32.609375 12.90625 31.441406 11.738281 30 11.738281 C 28.558594 11.738281 27.390625 12.90625 27.390625 14.347656 L 19.566406 14.347656 C 19.566406 15.789062 20.820312 16.957031 22.261719 16.957031 L 22.171875 16.957031 C 22.171875 18.398438 23.339844 19.566406 24.78125 19.566406 C 24.78125 21.007812 25.949219 22.175781 27.390625 22.175781 L 32.609375 22.175781 C 34.050781 22.175781 35.21875 21.007812 35.21875 19.566406 C 36.65625 19.566406 37.824219 18.398438 37.824219 16.957031 L 37.738281 16.957031 C 39.179688 16.957031 40.433594 15.789062 40.433594 14.347656 Z M 40.433594 14.347656 "/>
</svg>
