<svg xmlns="http://www.w3.org/2000/svg" width="56" height="56" viewBox="0 0 56 56">
    <path fill="#FFF" fill-rule="nonzero" d="M18.98 37a7.017 7.017 0 0 1 6.725 5h4.59a7.017 7.017 0 0 1 6.725-5c.743 0 1.47.116 2.158.338l2.197-4.11A6.988 6.988 0 0 1 39.025 28c0-2.045.888-3.929 2.35-5.229l-2.197-4.109A7.03 7.03 0 0 1 37.02 19a7.017 7.017 0 0 1-6.725-5h-4.59a7.017 7.017 0 0 1-6.725 5 7.03 7.03 0 0 1-2.158-.338l-2.197 4.11A6.988 6.988 0 0 1 16.975 28a6.988 6.988 0 0 1-2.35 5.229l2.197 4.109A7.03 7.03 0 0 1 18.98 37zm0 2c-1.129 0-2.17.372-3.007 1L12 32.568A5 5 0 0 0 14.97 28 5 5 0 0 0 12 23.432L15.973 16c.837.628 1.878 1 3.007 1a5.006 5.006 0 0 0 5.01-5h8.02c0 2.761 2.243 5 5.01 5 1.129 0 2.17-.372 3.007-1L44 23.432A5 5 0 0 0 41.03 28 5 5 0 0 0 44 32.568L40.027 40a4.997 4.997 0 0 0-3.007-1 5.006 5.006 0 0 0-5.01 5h-8.02c0-2.761-2.243-5-5.01-5zM28 32c2.214 0 4.01-1.79 4.01-4s-1.796-4-4.01-4a4.005 4.005 0 0 0-4.01 4c0 2.21 1.796 4 4.01 4zm0 2c-3.321 0-6.014-2.686-6.014-6S24.68 22 28 22s6.014 2.686 6.014 6S31.32 34 28 34z"/>
</svg>
