<svg width="24" height="24" viewBox="0 0 24 24" fill="none" xmlns="http://www.w3.org/2000/svg">
<g id="ALLLOCS">
<path id="Subtract" d="M6 18L5.03293 17.7455L4.59665 19.4033L6.25449 18.9671L6 18ZM8.5 8.5L8.24551 7.53293L7.68138 7.68138L7.53293 8.24551L8.5 8.5ZM15.5 15.5L15.7545 16.4671L16.3186 16.3186L16.4671 15.7545L15.5 15.5ZM18 6L18.9671 6.25449L19.4033 4.59665L17.7455 5.03293L18 6ZM12 21C7.02944 21 3 16.9706 3 12H1C1 18.0751 5.92487 23 12 23V21ZM21 12C21 16.9706 16.9706 21 12 21V23C18.0751 23 23 18.0751 23 12H21ZM12 3C16.9706 3 21 7.02944 21 12H23C23 5.92487 18.0751 1 12 1V3ZM3 12C3 7.02944 7.02944 3 12 3V1C5.92487 1 1 5.92487 1 12H3ZM6.96707 18.2545L9.46707 8.75449L7.53293 8.24551L5.03293 17.7455L6.96707 18.2545ZM15.2455 14.5329L5.74551 17.0329L6.25449 18.9671L15.7545 16.4671L15.2455 14.5329ZM17.0329 5.74551L14.5329 15.2455L16.4671 15.7545L18.9671 6.25449L17.0329 5.74551ZM8.75449 9.46707L18.2545 6.96707L17.7455 5.03293L8.24551 7.53293L8.75449 9.46707Z" fill="white"/>
</g>
</svg>
