<?xml version="1.0" encoding="UTF-8"?>
<svg xmlns="http://www.w3.org/2000/svg" xmlns:xlink="http://www.w3.org/1999/xlink" width="40" height="40" viewBox="0 0 40 40">
<path fill-rule="nonzero" fill="rgb(93.333333%, 93.333333%, 93.333333%)" fill-opacity="1" d="M 29.375 2.328125 C 26.578125 0.84375 23.386719 0 20 0 C 16.613281 0 13.421875 0.84375 10.625 2.328125 L 10.625 37.671875 C 13.421875 39.15625 16.613281 40 20 40 C 23.386719 40 26.578125 39.15625 29.375 37.671875 Z M 29.375 2.328125 "/>
<path fill-rule="nonzero" fill="rgb(84.705882%, 0%, 15.294118%)" fill-opacity="1" d="M 26.875 1.214844 C 34.535156 4.015625 40 11.371094 40 20 C 40 28.628906 34.535156 35.984375 26.875 38.785156 L 26.875 1.210938 Z M 26.875 1.214844 "/>
<path fill-rule="nonzero" fill="rgb(42.745098%, 64.705882%, 26.666667%)" fill-opacity="1" d="M 13.125 1.214844 L 13.125 38.789062 C 5.464844 35.984375 0 28.628906 0 20 C 0 11.371094 5.464844 4.015625 13.125 1.214844 Z M 13.125 1.214844 "/>
</svg>
