<?xml version="1.0" encoding="UTF-8"?>
<svg xmlns="http://www.w3.org/2000/svg" xmlns:xlink="http://www.w3.org/1999/xlink" width="60" height="60" viewBox="0 0 60 60">
<path fill-rule="nonzero" fill="rgb(84.705882%, 0%, 15.294118%)" fill-opacity="1" d="M 8.785156 8.789062 L 26.25 33.75 L 51.210938 51.214844 C 56.640625 45.785156 60 38.285156 60 30 C 60 13.542969 46.75 0.179688 30.335938 0.00390625 L 29.664062 0.00390625 C 21.511719 0.0898438 14.140625 3.433594 8.785156 8.789062 Z M 8.785156 8.789062 "/>
<path fill-rule="nonzero" fill="rgb(84.705882%, 0%, 15.294118%)" fill-opacity="1" d="M 8.785156 8.789062 L 51.210938 51.214844 C 45.785156 56.640625 38.285156 60 30 60 C 13.433594 60 0.0078125 46.574219 0 30.011719 C 0 30.007812 0 30.003906 0 30 C 0 29.996094 0 29.992188 0 29.988281 C 0.00390625 21.710938 3.359375 14.214844 8.785156 8.789062 Z M 8.785156 8.789062 "/>
<path fill-rule="nonzero" fill="rgb(93.333333%, 93.333333%, 93.333333%)" fill-opacity="1" d="M 3.261719 16.386719 C 6.136719 10.746094 10.746094 6.136719 16.386719 3.261719 L 56.738281 43.613281 C 53.863281 49.253906 49.253906 53.863281 43.613281 56.738281 Z M 3.261719 16.386719 "/>
<path fill-rule="nonzero" fill="rgb(20%, 20%, 20%)" fill-opacity="1" d="M 5.367188 12.871094 C 7.40625 9.949219 9.945312 7.40625 12.867188 5.371094 L 54.632812 47.132812 C 52.59375 50.054688 50.054688 52.597656 47.132812 54.632812 Z M 5.367188 12.871094 "/>
</svg>
