<?xml version="1.0" encoding="UTF-8"?>
<svg xmlns="http://www.w3.org/2000/svg" xmlns:xlink="http://www.w3.org/1999/xlink" width="40" height="40" viewBox="0 0 40 40">
<path fill-rule="nonzero" fill="rgb(84.705882%, 0%, 15.294118%)" fill-opacity="1" d="M 5.855469 5.859375 L 17.5 22.5 L 34.140625 34.144531 C 37.761719 30.523438 40 25.523438 40 20 C 40 9.027344 31.164062 0.121094 20.222656 0 L 19.777344 0 C 14.34375 0.0625 9.429688 2.289062 5.859375 5.859375 Z M 5.855469 5.859375 "/>
<path fill-rule="nonzero" fill="rgb(84.705882%, 0%, 15.294118%)" fill-opacity="1" d="M 5.855469 5.859375 L 34.140625 34.144531 C 30.523438 37.761719 25.523438 40 20 40 C 8.957031 40 0.00390625 31.050781 0 20.007812 C 0 20.003906 0 20.003906 0 20 C 0 19.996094 0 19.996094 0 19.992188 C 0.00390625 14.472656 2.238281 9.476562 5.859375 5.859375 Z M 5.855469 5.859375 "/>
<path fill-rule="nonzero" fill="rgb(93.333333%, 93.333333%, 93.333333%)" fill-opacity="1" d="M 2.171875 10.921875 C 4.089844 7.164062 7.164062 4.089844 10.921875 2.171875 L 37.828125 29.078125 C 35.910156 32.835938 32.835938 35.910156 29.078125 37.828125 Z M 2.171875 10.921875 "/>
<path fill-rule="nonzero" fill="rgb(20%, 20%, 20%)" fill-opacity="1" d="M 3.578125 8.578125 C 4.9375 6.632812 6.632812 4.9375 8.578125 3.578125 L 36.421875 31.421875 C 35.0625 33.367188 33.367188 35.0625 31.421875 36.421875 Z M 3.578125 8.578125 "/>
</svg>
