<?xml version="1.0" encoding="UTF-8"?>
<svg xmlns="http://www.w3.org/2000/svg" xmlns:xlink="http://www.w3.org/1999/xlink" width="20" height="20" viewBox="0 0 20 20">
<path fill-rule="nonzero" fill="rgb(84.705882%, 0%, 15.294118%)" fill-opacity="1" d="M 2.929688 2.929688 L 8.75 11.25 L 17.070312 17.070312 C 18.878906 15.261719 20 12.761719 20 10 C 20 4.515625 15.582031 0.0585938 10.113281 0 L 9.886719 0 C 7.171875 0.03125 4.714844 1.144531 2.929688 2.929688 Z M 2.929688 2.929688 "/>
<path fill-rule="nonzero" fill="rgb(84.705882%, 0%, 15.294118%)" fill-opacity="1" d="M 2.929688 2.929688 L 17.070312 17.070312 C 15.261719 18.882812 12.761719 20 10 20 C 4.476562 20 0.00390625 15.523438 0 10.003906 C 0 10.003906 0 10 0 10 C 0 10 0 9.996094 0 9.996094 C 0 7.238281 1.121094 4.738281 2.929688 2.929688 Z M 2.929688 2.929688 "/>
<path fill-rule="nonzero" fill="rgb(93.333333%, 93.333333%, 93.333333%)" fill-opacity="1" d="M 1.085938 5.460938 C 2.046875 3.582031 3.582031 2.046875 5.460938 1.085938 L 18.914062 14.539062 C 17.953125 16.417969 16.417969 17.953125 14.539062 18.914062 Z M 1.085938 5.460938 "/>
<path fill-rule="nonzero" fill="rgb(20%, 20%, 20%)" fill-opacity="1" d="M 1.789062 4.289062 C 2.46875 3.316406 3.316406 2.46875 4.289062 1.789062 L 18.210938 15.710938 C 17.53125 16.683594 16.683594 17.53125 15.710938 18.210938 Z M 1.789062 4.289062 "/>
</svg>
