<?xml version="1.0" encoding="UTF-8"?>
<svg xmlns="http://www.w3.org/2000/svg" xmlns:xlink="http://www.w3.org/1999/xlink" width="20" height="20" viewBox="0 0 20 20">
<path fill-rule="evenodd" fill="rgb(0%, 32.156863%, 70.588235%)" fill-opacity="1" d="M 1.730469 15.625 C 0.640625 14.023438 0 12.085938 0 10 C 0 5.226562 3.347656 1.230469 7.824219 0.238281 Z M 1.730469 15.625 "/>
<path fill-rule="evenodd" fill="rgb(100%, 85.490196%, 26.666667%)" fill-opacity="1" d="M 6.449219 0.648438 C 7.554688 0.230469 8.75 0 10 0 C 11.414062 0 12.761719 0.292969 13.980469 0.824219 L 2.484375 16.59375 C 2.140625 16.207031 1.828125 15.789062 1.550781 15.351562 Z M 6.449219 0.648438 "/>
<path fill-rule="evenodd" fill="rgb(84.705882%, 0%, 15.294118%)" fill-opacity="1" d="M 13.023438 0.464844 C 16.457031 1.554688 19.089844 4.449219 19.804688 8.035156 L 3.699219 17.765625 C 3.214844 17.371094 2.765625 16.933594 2.363281 16.457031 Z M 13.023438 0.464844 "/>
<path fill-rule="evenodd" fill="rgb(93.333333%, 93.333333%, 93.333333%)" fill-opacity="1" d="M 18.699219 14.9375 C 19.527344 13.480469 20 11.792969 20 10 C 20 8.945312 19.835938 7.929688 19.535156 6.976562 L 3.542969 17.636719 C 3.992188 18.015625 4.472656 18.355469 4.980469 18.652344 Z M 18.699219 14.9375 "/>
<path fill-rule="evenodd" fill="rgb(42.745098%, 64.705882%, 26.666667%)" fill-opacity="1" d="M 19.351562 13.550781 C 17.917969 17.320312 14.273438 20 10 20 C 8.03125 20 6.195312 19.429688 4.648438 18.449219 Z M 19.351562 13.550781 "/>
</svg>
