<?xml version="1.0" encoding="UTF-8"?>
<svg xmlns="http://www.w3.org/2000/svg" xmlns:xlink="http://www.w3.org/1999/xlink" width="40" height="40" viewBox="0 0 40 40">
<path fill-rule="evenodd" fill="rgb(0%, 32.156863%, 70.588235%)" fill-opacity="1" d="M 3.460938 31.25 C 1.277344 28.046875 0 24.171875 0 20 C 0 10.449219 6.695312 2.464844 15.644531 0.476562 Z M 3.460938 31.25 "/>
<path fill-rule="evenodd" fill="rgb(100%, 85.490196%, 26.666667%)" fill-opacity="1" d="M 12.902344 1.296875 C 15.109375 0.457031 17.5 0 20 0 C 22.832031 0 25.523438 0.589844 27.964844 1.648438 L 4.964844 33.191406 C 4.28125 32.410156 3.65625 31.578125 3.101562 30.699219 Z M 12.902344 1.296875 "/>
<path fill-rule="evenodd" fill="rgb(84.705882%, 0%, 15.294118%)" fill-opacity="1" d="M 26.046875 0.929688 C 32.917969 3.105469 38.183594 8.894531 39.613281 16.066406 L 7.398438 35.53125 C 6.425781 34.742188 5.53125 33.867188 4.726562 32.910156 Z M 26.046875 0.929688 "/>
<path fill-rule="evenodd" fill="rgb(93.333333%, 93.333333%, 93.333333%)" fill-opacity="1" d="M 37.398438 29.871094 C 39.054688 26.957031 40 23.589844 40 20 C 40 17.890625 39.675781 15.859375 39.070312 13.953125 L 7.089844 35.273438 C 7.984375 36.03125 8.945312 36.710938 9.960938 37.300781 Z M 37.398438 29.871094 "/>
<path fill-rule="evenodd" fill="rgb(42.745098%, 64.705882%, 26.666667%)" fill-opacity="1" d="M 38.703125 27.097656 C 35.839844 34.640625 28.546875 40 20 40 C 16.0625 40 12.394531 38.863281 9.300781 36.898438 Z M 38.703125 27.097656 "/>
</svg>
