<?xml version="1.0" encoding="UTF-8"?>
<svg xmlns="http://www.w3.org/2000/svg" xmlns:xlink="http://www.w3.org/1999/xlink" width="60" height="60" viewBox="0 0 60 60">
<path fill-rule="evenodd" fill="rgb(0%, 32.156863%, 70.588235%)" fill-opacity="1" d="M 5.195312 46.878906 C 1.917969 42.070312 0 36.257812 0 30 C 0 15.675781 10.039062 3.695312 23.46875 0.714844 Z M 5.195312 46.878906 "/>
<path fill-rule="evenodd" fill="rgb(100%, 85.490196%, 26.666667%)" fill-opacity="1" d="M 19.351562 1.945312 C 22.660156 0.6875 26.25 0 30 0 C 34.246094 0 38.285156 0.882812 41.945312 2.472656 L 7.449219 49.785156 C 6.421875 48.617188 5.484375 47.367188 4.648438 46.050781 Z M 19.351562 1.945312 "/>
<path fill-rule="evenodd" fill="rgb(84.705882%, 0%, 15.294118%)" fill-opacity="1" d="M 39.070312 1.394531 C 49.375 4.660156 57.273438 13.34375 59.417969 24.101562 L 11.097656 53.296875 C 9.640625 52.113281 8.300781 50.796875 7.089844 49.367188 Z M 39.070312 1.394531 "/>
<path fill-rule="evenodd" fill="rgb(93.333333%, 93.333333%, 93.333333%)" fill-opacity="1" d="M 56.097656 44.804688 C 58.582031 40.4375 60 35.382812 60 30 C 60 26.839844 59.511719 23.792969 58.605469 20.929688 L 10.632812 52.910156 C 11.972656 54.046875 13.414062 55.066406 14.941406 55.953125 L 56.097656 44.808594 Z M 56.097656 44.804688 "/>
<path fill-rule="evenodd" fill="rgb(42.745098%, 64.705882%, 26.666667%)" fill-opacity="1" d="M 58.054688 40.648438 C 53.757812 51.960938 42.816406 60 30 60 C 24.097656 60 18.589844 58.292969 13.949219 55.351562 Z M 58.054688 40.648438 "/>
</svg>
