<?xml version="1.0" encoding="UTF-8"?>
<svg xmlns="http://www.w3.org/2000/svg" xmlns:xlink="http://www.w3.org/1999/xlink" width="60" height="60" viewBox="0 0 60 60">
<path fill-rule="nonzero" fill="rgb(84.705882%, 0%, 15.294118%)" fill-opacity="1" d="M 60 30 C 60 46.570312 46.570312 60 30 60 C 13.429688 60 0 46.570312 0 30 C 0 13.429688 13.429688 0 30 0 C 46.570312 0 60 13.429688 60 30 Z M 60 30 "/>
<path fill-rule="nonzero" fill="rgb(28.627451%, 43.137255%, 17.647059%)" fill-opacity="1" d="M 11.25 11.25 L 48.75 11.25 L 48.75 48.75 L 11.25 48.75 Z M 11.25 11.25 "/>
<path fill-rule="evenodd" fill="rgb(93.333333%, 93.333333%, 93.333333%)" fill-opacity="1" d="M 37.03125 42.28125 C 36.273438 42.425781 35.488281 42.5 34.6875 42.5 C 27.785156 42.5 22.1875 36.902344 22.1875 30 C 22.1875 23.09375 27.785156 17.5 34.6875 17.5 C 35.488281 17.5 36.273438 17.574219 37.03125 17.71875 C 31.246094 18.816406 26.875 23.894531 26.875 30 C 26.875 36.101562 31.246094 41.183594 37.03125 42.28125 Z M 37.03125 42.28125 "/>
</svg>
