<?xml version="1.0" encoding="UTF-8"?>
<svg xmlns="http://www.w3.org/2000/svg" xmlns:xlink="http://www.w3.org/1999/xlink" width="20" height="20" viewBox="0 0 20 20">
<path fill-rule="nonzero" fill="rgb(84.705882%, 0%, 15.294118%)" fill-opacity="1" d="M 20 10 C 20 15.523438 15.523438 20 10 20 C 4.476562 20 0 15.523438 0 10 C 0 4.476562 4.476562 0 10 0 C 15.523438 0 20 4.476562 20 10 Z M 20 10 "/>
<path fill-rule="nonzero" fill="rgb(28.627451%, 43.137255%, 17.647059%)" fill-opacity="1" d="M 3.75 3.75 L 16.25 3.75 L 16.25 16.25 L 3.75 16.25 Z M 3.75 3.75 "/>
<path fill-rule="evenodd" fill="rgb(93.333333%, 93.333333%, 93.333333%)" fill-opacity="1" d="M 12.34375 14.09375 C 12.089844 14.140625 11.828125 14.167969 11.5625 14.167969 C 9.261719 14.167969 7.394531 12.300781 7.394531 10 C 7.394531 7.699219 9.261719 5.832031 11.5625 5.832031 C 11.828125 5.832031 12.089844 5.859375 12.34375 5.90625 C 10.414062 6.273438 8.957031 7.964844 8.957031 10 C 8.957031 12.035156 10.414062 13.726562 12.34375 14.09375 Z M 12.34375 14.09375 "/>
</svg>
