<?xml version="1.0" encoding="UTF-8"?>
<svg xmlns="http://www.w3.org/2000/svg" xmlns:xlink="http://www.w3.org/1999/xlink" width="40" height="40" viewBox="0 0 40 40">
<path fill-rule="nonzero" fill="rgb(84.705882%, 0%, 15.294118%)" fill-opacity="1" d="M 40 20 C 40 31.046875 31.046875 40 20 40 C 8.953125 40 0 31.046875 0 20 C 0 8.953125 8.953125 0 20 0 C 31.046875 0 40 8.953125 40 20 Z M 40 20 "/>
<path fill-rule="nonzero" fill="rgb(28.627451%, 43.137255%, 17.647059%)" fill-opacity="1" d="M 7.5 7.5 L 32.5 7.5 L 32.5 32.5 L 7.5 32.5 Z M 7.5 7.5 "/>
<path fill-rule="evenodd" fill="rgb(93.333333%, 93.333333%, 93.333333%)" fill-opacity="1" d="M 24.6875 28.1875 C 24.179688 28.28125 23.660156 28.332031 23.125 28.332031 C 18.523438 28.332031 14.792969 24.601562 14.792969 20 C 14.792969 15.398438 18.523438 11.664062 23.125 11.664062 C 23.660156 11.664062 24.179688 11.714844 24.6875 11.8125 C 20.832031 12.542969 17.917969 15.929688 17.917969 20 C 17.917969 24.066406 20.832031 27.457031 24.6875 28.1875 Z M 24.6875 28.1875 "/>
</svg>
