<?xml version="1.0" encoding="UTF-8"?>
<svg xmlns="http://www.w3.org/2000/svg" xmlns:xlink="http://www.w3.org/1999/xlink" width="40" height="40" viewBox="0 0 40 40">
<path fill-rule="nonzero" fill="rgb(20%, 54.117647%, 95.294118%)" fill-opacity="1" d="M 20 40 C 31.03125 40 39.980469 31.066406 40 20.039062 L 40 20 L 20 17.5 L 0 20 C 0 31.046875 8.953125 40 20 40 Z M 20 40 "/>
<path fill-rule="nonzero" fill="rgb(42.745098%, 64.705882%, 26.666667%)" fill-opacity="1" d="M 40 19.960938 L 40 20 L 0 20 C 0 8.953125 8.953125 0 20 0 C 31.03125 0 39.980469 8.933594 40 19.960938 Z M 40 19.960938 "/>
<path fill-rule="evenodd" fill="rgb(84.705882%, 0%, 15.294118%)" fill-opacity="1" d="M 8 4 L 40 20 L 8 36 C 3.140625 32.351562 0 26.542969 0 20 C 0 13.457031 3.140625 7.648438 8 4 Z M 8 4 "/>
<path fill-rule="nonzero" fill="rgb(100%, 85.490196%, 26.666667%)" fill-opacity="1" d="M 10.433594 11.738281 C 6.597656 11.738281 3.476562 14.859375 3.476562 18.695312 L 3.476562 21.304688 C 3.476562 25.140625 6.597656 28.261719 10.433594 28.261719 C 14.269531 28.261719 17.390625 25.140625 17.390625 21.304688 L 17.390625 18.695312 C 17.390625 14.859375 14.269531 11.738281 10.433594 11.738281 Z M 14.78125 21.304688 C 14.78125 23.246094 13.5 24.898438 11.738281 25.453125 L 11.738281 22.609375 L 13.585938 20.761719 L 11.738281 18.917969 L 11.738281 17.390625 L 9.128906 17.390625 L 9.128906 20 L 7.285156 21.84375 L 9.128906 23.6875 L 9.128906 25.453125 C 7.367188 24.898438 6.085938 23.246094 6.085938 21.304688 L 6.085938 18.695312 C 6.085938 16.296875 8.035156 14.347656 10.433594 14.347656 C 12.832031 14.347656 14.78125 16.296875 14.78125 18.695312 Z M 14.78125 21.304688 "/>
</svg>
