<?xml version="1.0" encoding="UTF-8"?>
<svg xmlns="http://www.w3.org/2000/svg" xmlns:xlink="http://www.w3.org/1999/xlink" width="60" height="60" viewBox="0 0 60 60">
<path fill-rule="nonzero" fill="rgb(20%, 54.117647%, 95.294118%)" fill-opacity="1" d="M 30 60 C 46.550781 60 59.96875 46.601562 60 30.058594 L 60 30 L 30 26.25 L 0 30 C 0 46.566406 13.433594 60 30 60 Z M 30 60 "/>
<path fill-rule="nonzero" fill="rgb(42.745098%, 64.705882%, 26.666667%)" fill-opacity="1" d="M 60 29.941406 L 60 30 L 0 30 C 0 13.433594 13.433594 0 30 0 C 46.550781 0 59.96875 13.398438 60 29.941406 Z M 60 29.941406 "/>
<path fill-rule="evenodd" fill="rgb(84.705882%, 0%, 15.294118%)" fill-opacity="1" d="M 11.996094 6 L 60 30 L 11.996094 54 C 4.710938 48.527344 0 39.816406 0 30 C 0 20.1875 4.710938 11.472656 11.996094 6 Z M 11.996094 6 "/>
<path fill-rule="nonzero" fill="rgb(100%, 85.490196%, 26.666667%)" fill-opacity="1" d="M 15.652344 17.609375 C 9.898438 17.609375 5.21875 22.289062 5.21875 28.042969 L 5.21875 31.957031 C 5.21875 37.710938 9.898438 42.390625 15.652344 42.390625 C 21.40625 42.390625 26.085938 37.710938 26.085938 31.957031 L 26.085938 28.042969 C 26.085938 22.289062 21.40625 17.609375 15.652344 17.609375 Z M 22.171875 31.957031 C 22.171875 34.871094 20.25 37.34375 17.609375 38.179688 L 17.609375 33.914062 L 20.375 31.144531 L 17.609375 28.378906 L 17.609375 26.085938 L 13.695312 26.085938 L 13.695312 30 L 10.929688 32.765625 L 13.695312 35.535156 L 13.695312 38.179688 C 11.050781 37.34375 9.128906 34.871094 9.128906 31.957031 L 9.128906 28.042969 C 9.128906 24.449219 12.054688 21.523438 15.652344 21.523438 C 19.246094 21.523438 22.171875 24.449219 22.171875 28.042969 Z M 22.171875 31.957031 "/>
</svg>
