<?xml version="1.0" encoding="UTF-8"?>
<svg xmlns="http://www.w3.org/2000/svg" xmlns:xlink="http://www.w3.org/1999/xlink" width="20" height="20" viewBox="0 0 20 20">
<path fill-rule="nonzero" fill="rgb(20%, 54.117647%, 95.294118%)" fill-opacity="1" d="M 10 20 C 15.515625 20 19.988281 15.535156 20 10.019531 L 20 10 L 10 8.75 L 0 10 C 0 15.523438 4.476562 20 10 20 Z M 10 20 "/>
<path fill-rule="nonzero" fill="rgb(42.745098%, 64.705882%, 26.666667%)" fill-opacity="1" d="M 20 9.980469 L 20 10 L 0 10 C 0 4.476562 4.476562 0 10 0 C 15.515625 0 19.988281 4.464844 20 9.980469 Z M 20 9.980469 "/>
<path fill-rule="evenodd" fill="rgb(84.705882%, 0%, 15.294118%)" fill-opacity="1" d="M 4 2 L 20 10 L 4 18 C 1.570312 16.175781 0 13.273438 0 10 C 0 6.730469 1.570312 3.824219 4 2 Z M 4 2 "/>
<path fill-rule="nonzero" fill="rgb(100%, 85.490196%, 26.666667%)" fill-opacity="1" d="M 5.21875 5.871094 C 3.300781 5.871094 1.738281 7.429688 1.738281 9.347656 L 1.738281 10.652344 C 1.738281 12.570312 3.300781 14.128906 5.21875 14.128906 C 7.136719 14.128906 8.695312 12.570312 8.695312 10.652344 L 8.695312 9.347656 C 8.695312 7.429688 7.136719 5.871094 5.21875 5.871094 Z M 7.390625 10.652344 C 7.390625 11.625 6.75 12.449219 5.871094 12.726562 L 5.871094 11.304688 L 6.792969 10.382812 L 5.871094 9.460938 L 5.871094 8.695312 L 4.566406 8.695312 L 4.566406 10 L 3.644531 10.921875 L 4.566406 11.84375 L 4.566406 12.726562 C 3.683594 12.449219 3.042969 11.625 3.042969 10.652344 L 3.042969 9.347656 C 3.042969 8.148438 4.019531 7.175781 5.21875 7.175781 C 6.414062 7.175781 7.390625 8.148438 7.390625 9.347656 Z M 7.390625 10.652344 "/>
</svg>
