<svg width="24" height="24" viewBox="0 0 24 24" fill="none" xmlns="http://www.w3.org/2000/svg">
<g id="FAVS">
<path id="fav_icon" d="M11.9709 6.38591L11.2711 7.10024L11.9648 7.77993L12.6645 7.10626L11.9709 6.38591ZM13.0962 5.30239L12.4025 4.58204V4.58204L13.0962 5.30239ZM19.6549 5.39541L18.9409 6.09559L19.6549 5.39541ZM19.6803 12.0079L18.9614 11.3128L18.9504 11.3241L18.9399 11.3358L19.6803 12.0079ZM11.9709 20.5L11.2286 21.1701L11.9688 21.99L12.7113 21.1722L11.9709 20.5ZM4.30453 12.0079L5.0468 11.3378L5.03707 11.327L5.02702 11.3166L4.30453 12.0079ZM4.34421 5.41472L3.63025 4.71454L3.63025 4.71454L4.34421 5.41472ZM4.38209 5.37609L5.09606 6.07628L5.09606 6.07627L4.38209 5.37609ZM10.8765 5.3138L11.5763 4.59947V4.59947L10.8765 5.3138ZM12.6645 7.10626L13.7898 6.02273L12.4025 4.58204L11.2772 5.66556L12.6645 7.10626ZM13.7898 6.02273C15.2376 4.62867 17.5392 4.66631 18.9409 6.09559L20.3688 4.69523C18.2002 2.48388 14.6423 2.42538 12.4025 4.58204L13.7898 6.02273ZM18.9409 6.09559C20.3439 7.52618 20.3549 9.87164 18.9614 11.3128L20.3992 12.7031C22.5479 10.4808 22.5289 6.89785 20.3688 4.69523L18.9409 6.09559ZM18.9399 11.3358L11.2305 19.8278L12.7113 21.1722L20.4207 12.6801L18.9399 11.3358ZM12.7131 19.8299L5.0468 11.3378L3.56225 12.678L11.2286 21.1701L12.7131 19.8299ZM5.02702 11.3166C3.64686 9.87426 3.65824 7.54241 5.05818 6.1149L3.63025 4.71454C1.47285 6.91441 1.45663 10.4782 3.58203 12.6993L5.02702 11.3166ZM5.05818 6.1149L5.09606 6.07628L3.66813 4.67591L3.63025 4.71454L5.05818 6.1149ZM5.09606 6.07627C6.48358 4.66144 8.75892 4.63916 10.1767 6.02813L11.5763 4.59947C9.37108 2.43905 5.83001 2.47146 3.66813 4.67591L5.09606 6.07627ZM10.1767 6.02813L11.2711 7.10024L12.6707 5.67158L11.5763 4.59947L10.1767 6.02813Z" fill="white"/>
</g>
</svg>
