<?xml version="1.0" encoding="UTF-8"?>
<svg xmlns="http://www.w3.org/2000/svg" xmlns:xlink="http://www.w3.org/1999/xlink" width="40" height="40" viewBox="0 0 40 40">
<path fill-rule="nonzero" fill="rgb(20%, 20%, 20%)" fill-opacity="1" d="M 0 19.1875 C 0.207031 13.984375 2.40625 9.289062 5.851562 5.847656 L 20 20 L 5.851562 34.148438 C 2.40625 30.707031 0.207031 26.015625 0 20.8125 L 0 19.183594 Z M 0 19.1875 "/>
<path fill-rule="nonzero" fill="rgb(42.745098%, 64.705882%, 26.666667%)" fill-opacity="1" d="M 20.8125 0 C 26.015625 0.207031 30.710938 2.40625 34.152344 5.851562 L 20 20 L 5.851562 5.851562 C 9.292969 2.40625 13.984375 0.207031 19.1875 0 L 20.816406 0 Z M 20.8125 0 "/>
<path fill-rule="nonzero" fill="rgb(20%, 20%, 20%)" fill-opacity="1" d="M 40 20.8125 C 39.792969 26.015625 37.59375 30.710938 34.148438 34.152344 L 20 20 L 34.148438 5.851562 C 37.59375 9.292969 39.792969 13.984375 40 19.1875 L 40 20.816406 Z M 40 20.8125 "/>
<path fill-rule="nonzero" fill="rgb(42.745098%, 64.705882%, 26.666667%)" fill-opacity="1" d="M 19.1875 40 C 13.984375 39.792969 9.289062 37.59375 5.847656 34.148438 L 20 20 L 34.148438 34.148438 C 30.707031 37.59375 26.015625 39.792969 20.8125 40 L 19.183594 40 Z M 19.1875 40 "/>
<path fill-rule="nonzero" fill="rgb(100%, 85.490196%, 26.666667%)" fill-opacity="1" d="M 35.894531 7.855469 L 23.75 20 L 35.894531 32.144531 C 34.8125 33.550781 33.550781 34.8125 32.144531 35.894531 L 20 23.75 L 7.855469 35.894531 C 6.449219 34.8125 5.1875 33.550781 4.105469 32.144531 L 16.25 20 L 4.105469 7.855469 C 5.1875 6.449219 6.449219 5.1875 7.855469 4.105469 L 20 16.25 L 32.144531 4.105469 C 33.550781 5.1875 34.8125 6.449219 35.894531 7.855469 Z M 35.894531 7.855469 "/>
</svg>
