<?xml version="1.0" encoding="UTF-8"?>
<svg xmlns="http://www.w3.org/2000/svg" xmlns:xlink="http://www.w3.org/1999/xlink" width="20" height="20" viewBox="0 0 20 20">
<path fill-rule="nonzero" fill="rgb(20%, 20%, 20%)" fill-opacity="1" d="M 0 9.59375 C 0.105469 6.992188 1.203125 4.644531 2.925781 2.925781 L 10 10 L 2.925781 17.074219 C 1.203125 15.355469 0.105469 13.007812 0 10.40625 Z M 0 9.59375 "/>
<path fill-rule="nonzero" fill="rgb(42.745098%, 64.705882%, 26.666667%)" fill-opacity="1" d="M 10.40625 0 C 13.007812 0.105469 15.355469 1.203125 17.074219 2.925781 L 10 10 L 2.925781 2.925781 C 4.644531 1.203125 6.992188 0.105469 9.59375 0 Z M 10.40625 0 "/>
<path fill-rule="nonzero" fill="rgb(20%, 20%, 20%)" fill-opacity="1" d="M 20 10.40625 C 19.894531 13.007812 18.796875 15.355469 17.074219 17.074219 L 10 10 L 17.074219 2.925781 C 18.796875 4.644531 19.894531 6.992188 20 9.59375 Z M 20 10.40625 "/>
<path fill-rule="nonzero" fill="rgb(42.745098%, 64.705882%, 26.666667%)" fill-opacity="1" d="M 9.59375 20 C 6.992188 19.894531 4.644531 18.796875 2.925781 17.074219 L 10 10 L 17.074219 17.074219 C 15.355469 18.796875 13.007812 19.894531 10.40625 20 Z M 9.59375 20 "/>
<path fill-rule="nonzero" fill="rgb(100%, 85.490196%, 26.666667%)" fill-opacity="1" d="M 17.945312 3.929688 L 11.875 10 L 17.945312 16.070312 C 17.40625 16.777344 16.777344 17.40625 16.070312 17.945312 L 10 11.875 L 3.929688 17.945312 C 3.222656 17.40625 2.59375 16.777344 2.054688 16.070312 L 8.125 10 L 2.054688 3.929688 C 2.59375 3.222656 3.222656 2.59375 3.929688 2.054688 L 10 8.125 L 16.070312 2.054688 C 16.777344 2.59375 17.40625 3.222656 17.945312 3.929688 Z M 17.945312 3.929688 "/>
</svg>
