<?xml version="1.0" encoding="UTF-8"?>
<svg xmlns="http://www.w3.org/2000/svg" xmlns:xlink="http://www.w3.org/1999/xlink" width="40" height="40" viewBox="0 0 40 40">
<path fill-rule="nonzero" fill="rgb(0%, 32.156863%, 70.588235%)" fill-opacity="1" d="M 40 20 C 40 31.046875 31.046875 40 20 40 C 8.953125 40 0 31.046875 0 20 C 0 8.953125 8.953125 0 20 0 C 31.046875 0 40 8.953125 40 20 Z M 40 20 "/>
<path fill-rule="evenodd" fill="rgb(84.705882%, 0%, 15.294118%)" fill-opacity="1" d="M 20.007812 0 C 24.1875 0 28.066406 1.285156 31.273438 3.476562 L 8.726562 3.476562 C 11.933594 1.285156 15.8125 0 19.996094 0 C 19.996094 0 20 0 20 0 C 20.003906 0 20.003906 0 20.007812 0 Z M 20 40 C 24.183594 40 28.0625 38.714844 31.273438 36.523438 L 8.726562 36.523438 C 11.9375 38.714844 15.816406 40 20 40 Z M 20 40 "/>
<path fill-rule="nonzero" fill="rgb(84.705882%, 0%, 15.294118%)" fill-opacity="1" d="M 18.867188 32.625 C 18.59375 32.390625 12.171875 26.808594 12.171875 20 C 12.171875 13.191406 18.59375 7.609375 18.867188 7.375 L 20 6.40625 L 21.132812 7.375 C 21.40625 7.609375 27.824219 13.191406 27.824219 20 C 27.824219 26.808594 21.40625 32.390625 21.132812 32.625 L 20 33.59375 Z M 18.867188 32.625 "/>
<path fill-rule="nonzero" fill="rgb(20%, 54.117647%, 95.294118%)" fill-opacity="1" d="M 26.085938 20 C 26.085938 13.914062 20 8.695312 20 8.695312 C 20 8.695312 13.914062 13.914062 13.914062 20 C 13.914062 21.863281 14.484375 23.640625 15.273438 25.21875 L 24.726562 25.21875 C 25.515625 23.640625 26.085938 21.863281 26.085938 20 Z M 26.085938 20 "/>
<path fill-rule="nonzero" fill="rgb(0%, 32.156863%, 70.588235%)" fill-opacity="1" d="M 26.085938 20 C 26.085938 21.863281 25.515625 23.640625 24.726562 25.21875 L 20 26.085938 L 15.273438 25.21875 C 14.484375 23.640625 13.914062 21.863281 13.914062 20 Z M 26.085938 20 "/>
<path fill-rule="nonzero" fill="rgb(100%, 85.490196%, 26.666667%)" fill-opacity="1" d="M 20 31.304688 C 20 31.304688 22.933594 28.789062 24.726562 25.21875 L 15.273438 25.21875 C 17.066406 28.789062 20 31.304688 20 31.304688 Z M 20 31.304688 "/>
<path fill-rule="nonzero" fill="rgb(42.745098%, 64.705882%, 26.666667%)" fill-opacity="1" d="M 16.085938 16.523438 L 23.914062 16.523438 L 20 20.433594 Z M 16.085938 16.523438 "/>
<path fill-rule="nonzero" fill="rgb(63.529412%, 0%, 11.372549%)" fill-opacity="1" d="M 18.695312 19.128906 L 21.304688 19.128906 L 21.304688 26.957031 L 18.695312 26.957031 Z M 18.695312 19.128906 "/>
</svg>
