<?xml version="1.0" encoding="UTF-8"?>
<svg xmlns="http://www.w3.org/2000/svg" xmlns:xlink="http://www.w3.org/1999/xlink" width="20" height="20" viewBox="0 0 20 20">
<path fill-rule="nonzero" fill="rgb(0%, 32.156863%, 70.588235%)" fill-opacity="1" d="M 20 10 C 20 15.523438 15.523438 20 10 20 C 4.476562 20 0 15.523438 0 10 C 0 4.476562 4.476562 0 10 0 C 15.523438 0 20 4.476562 20 10 Z M 20 10 "/>
<path fill-rule="evenodd" fill="rgb(84.705882%, 0%, 15.294118%)" fill-opacity="1" d="M 10.003906 0 C 12.09375 0 14.03125 0.640625 15.636719 1.738281 L 4.363281 1.738281 C 5.96875 0.640625 7.90625 0 9.996094 0 C 10 0 10 0 10 0 C 10 0 10.003906 0 10.003906 0 Z M 10 20 C 12.089844 20 14.03125 19.359375 15.636719 18.261719 L 4.363281 18.261719 C 5.96875 19.359375 7.910156 20 10 20 Z M 10 20 "/>
<path fill-rule="nonzero" fill="rgb(84.705882%, 0%, 15.294118%)" fill-opacity="1" d="M 9.433594 16.3125 C 9.296875 16.195312 6.085938 13.40625 6.085938 10 C 6.085938 6.59375 9.296875 3.804688 9.433594 3.6875 L 10 3.203125 L 10.566406 3.6875 C 10.703125 3.804688 13.914062 6.59375 13.914062 10 C 13.914062 13.40625 10.703125 16.195312 10.566406 16.3125 L 10 16.796875 Z M 9.433594 16.3125 "/>
<path fill-rule="nonzero" fill="rgb(20%, 54.117647%, 95.294118%)" fill-opacity="1" d="M 13.042969 10 C 13.042969 6.957031 10 4.347656 10 4.347656 C 10 4.347656 6.957031 6.957031 6.957031 10 C 6.957031 10.929688 7.242188 11.820312 7.636719 12.609375 L 12.363281 12.609375 C 12.757812 11.820312 13.042969 10.929688 13.042969 10 Z M 13.042969 10 "/>
<path fill-rule="nonzero" fill="rgb(0%, 32.156863%, 70.588235%)" fill-opacity="1" d="M 13.042969 10 C 13.042969 10.929688 12.757812 11.820312 12.363281 12.609375 L 10 13.042969 L 7.636719 12.609375 C 7.242188 11.820312 6.957031 10.929688 6.957031 10 Z M 13.042969 10 "/>
<path fill-rule="nonzero" fill="rgb(100%, 85.490196%, 26.666667%)" fill-opacity="1" d="M 10 15.652344 C 10 15.652344 11.464844 14.394531 12.363281 12.609375 L 7.636719 12.609375 C 8.535156 14.394531 10 15.652344 10 15.652344 Z M 10 15.652344 "/>
<path fill-rule="nonzero" fill="rgb(42.745098%, 64.705882%, 26.666667%)" fill-opacity="1" d="M 8.042969 8.261719 L 11.957031 8.261719 L 10 10.21875 Z M 8.042969 8.261719 "/>
<path fill-rule="nonzero" fill="rgb(63.529412%, 0%, 11.372549%)" fill-opacity="1" d="M 9.347656 9.566406 L 10.652344 9.566406 L 10.652344 13.476562 L 9.347656 13.476562 Z M 9.347656 9.566406 "/>
</svg>
