<?xml version="1.0" encoding="UTF-8"?>
<svg xmlns="http://www.w3.org/2000/svg" xmlns:xlink="http://www.w3.org/1999/xlink" width="60" height="60" viewBox="0 0 60 60">
<path fill-rule="nonzero" fill="rgb(0%, 32.156863%, 70.588235%)" fill-opacity="1" d="M 60 30 C 60 46.570312 46.570312 60 30 60 C 13.429688 60 0 46.570312 0 30 C 0 13.429688 13.429688 0 30 0 C 46.570312 0 60 13.429688 60 30 Z M 60 30 "/>
<path fill-rule="evenodd" fill="rgb(84.705882%, 0%, 15.294118%)" fill-opacity="1" d="M 30.007812 0 C 36.277344 0 42.101562 1.925781 46.910156 5.21875 L 13.089844 5.21875 C 17.902344 1.925781 23.722656 0 29.992188 0 C 29.996094 0 29.996094 0 30 0 C 30.003906 0 30.007812 0 30.007812 0 Z M 30 60 C 36.273438 60 42.097656 58.074219 46.910156 54.78125 L 13.089844 54.78125 C 17.902344 58.074219 23.726562 60 30 60 Z M 30 60 "/>
<path fill-rule="nonzero" fill="rgb(84.705882%, 0%, 15.294118%)" fill-opacity="1" d="M 28.300781 48.9375 C 27.890625 48.585938 18.261719 40.214844 18.261719 30 C 18.261719 19.785156 27.890625 11.414062 28.300781 11.0625 L 30 9.605469 L 31.699219 11.0625 C 32.105469 11.414062 41.738281 19.785156 41.738281 30 C 41.738281 40.214844 32.105469 48.585938 31.699219 48.9375 L 30 50.394531 Z M 28.300781 48.9375 "/>
<path fill-rule="nonzero" fill="rgb(20%, 54.117647%, 95.294118%)" fill-opacity="1" d="M 39.128906 30 C 39.128906 20.871094 30 13.042969 30 13.042969 C 30 13.042969 20.871094 20.871094 20.871094 30 C 20.871094 32.792969 21.722656 35.464844 22.910156 37.824219 L 37.089844 37.824219 C 38.273438 35.464844 39.128906 32.792969 39.128906 30 Z M 39.128906 30 "/>
<path fill-rule="nonzero" fill="rgb(0%, 32.156863%, 70.588235%)" fill-opacity="1" d="M 39.128906 30 C 39.128906 32.792969 38.273438 35.464844 37.089844 37.824219 L 30 39.128906 L 22.910156 37.824219 C 21.722656 35.464844 20.871094 32.792969 20.871094 30 Z M 39.128906 30 "/>
<path fill-rule="nonzero" fill="rgb(100%, 85.490196%, 26.666667%)" fill-opacity="1" d="M 30 46.957031 C 30 46.957031 34.398438 43.1875 37.089844 37.828125 L 22.910156 37.828125 C 25.601562 43.1875 30 46.957031 30 46.957031 Z M 30 46.957031 "/>
<path fill-rule="nonzero" fill="rgb(42.745098%, 64.705882%, 26.666667%)" fill-opacity="1" d="M 24.128906 24.78125 L 35.867188 24.78125 L 30 30.652344 Z M 24.128906 24.78125 "/>
<path fill-rule="nonzero" fill="rgb(63.529412%, 0%, 11.372549%)" fill-opacity="1" d="M 28.042969 28.695312 L 31.957031 28.695312 L 31.957031 40.433594 L 28.042969 40.433594 Z M 28.042969 28.695312 "/>
</svg>
