<?xml version="1.0" encoding="UTF-8"?>
<svg xmlns="http://www.w3.org/2000/svg" xmlns:xlink="http://www.w3.org/1999/xlink" width="20" height="20" viewBox="0 0 20 20">
<path fill-rule="nonzero" fill="rgb(0%, 32.156863%, 70.588235%)" fill-opacity="1" d="M 18.824219 14.707031 C 17.140625 17.855469 13.820312 20 10 20 C 6.179688 20 2.859375 17.855469 1.175781 14.707031 L 10 12.5 Z M 18.824219 14.707031 "/>
<path fill-rule="nonzero" fill="rgb(84.705882%, 0%, 15.294118%)" fill-opacity="1" d="M 18.664062 15 C 19.511719 13.527344 20 11.820312 20 10 L 10 7.5 L 0 10 C 0 11.820312 0.488281 13.527344 1.335938 15 Z M 18.664062 15 "/>
<path fill-rule="nonzero" fill="rgb(93.333333%, 93.333333%, 93.333333%)" fill-opacity="1" d="M 18.421875 4.605469 C 19.421875 6.160156 20 8.011719 20 10 L 0 10 C 0 8.011719 0.578125 6.160156 1.578125 4.605469 L 10 2.5 Z M 18.421875 4.605469 "/>
<path fill-rule="nonzero" fill="rgb(100%, 77.647059%, 20.784314%)" fill-opacity="1" d="M 18.664062 5 L 1.335938 5 C 3.066406 2.011719 6.296875 0 10 0 C 13.703125 0 16.933594 2.011719 18.664062 5 Z M 18.664062 5 "/>
<path fill-rule="nonzero" fill="rgb(42.745098%, 64.705882%, 26.666667%)" fill-opacity="1" d="M 0 9.59375 C 0.105469 6.992188 1.203125 4.644531 2.925781 2.925781 L 10 10 L 2.925781 17.074219 C 1.203125 15.355469 0.105469 13.007812 0 10.40625 Z M 0 9.59375 "/>
<path fill-rule="nonzero" fill="rgb(93.333333%, 93.333333%, 93.333333%)" fill-opacity="1" d="M 2.636719 9.972656 C 2.636719 8.515625 3.660156 7.296875 5.027344 7 C 4.820312 6.953125 4.601562 6.925781 4.375 6.925781 C 2.695312 6.925781 1.332031 8.289062 1.332031 9.972656 C 1.332031 11.652344 2.695312 13.015625 4.375 13.015625 C 4.601562 13.015625 4.820312 12.988281 5.027344 12.945312 C 3.660156 12.644531 2.636719 11.429688 2.636719 9.972656 Z M 2.636719 9.972656 "/>
<path fill-rule="nonzero" fill="rgb(93.333333%, 93.333333%, 93.333333%)" fill-opacity="1" d="M 4.996094 7.363281 L 5.15625 7.859375 L 5.679688 7.859375 L 5.257812 8.167969 L 5.417969 8.667969 L 4.996094 8.359375 L 4.570312 8.667969 L 4.734375 8.167969 L 4.308594 7.859375 L 4.832031 7.859375 Z M 4.996094 7.363281 "/>
<path fill-rule="nonzero" fill="rgb(93.333333%, 93.333333%, 93.333333%)" fill-opacity="1" d="M 4.996094 8.667969 L 5.15625 9.164062 L 5.679688 9.164062 L 5.257812 9.472656 L 5.417969 9.972656 L 4.996094 9.664062 L 4.570312 9.972656 L 4.734375 9.472656 L 4.308594 9.164062 L 4.832031 9.164062 Z M 4.996094 8.667969 "/>
<path fill-rule="nonzero" fill="rgb(93.333333%, 93.333333%, 93.333333%)" fill-opacity="1" d="M 4.996094 9.972656 L 5.15625 10.46875 L 5.679688 10.46875 L 5.257812 10.777344 L 5.417969 11.277344 L 4.996094 10.96875 L 4.570312 11.277344 L 4.734375 10.777344 L 4.308594 10.46875 L 4.832031 10.46875 Z M 4.996094 9.972656 "/>
<path fill-rule="nonzero" fill="rgb(93.333333%, 93.333333%, 93.333333%)" fill-opacity="1" d="M 4.996094 11.273438 L 5.15625 11.773438 L 5.679688 11.773438 L 5.257812 12.082031 L 5.417969 12.578125 L 4.996094 12.273438 L 4.570312 12.578125 L 4.734375 12.082031 L 4.308594 11.773438 L 4.832031 11.773438 Z M 4.996094 11.273438 "/>
</svg>
