<?xml version="1.0" encoding="UTF-8"?>
<svg xmlns="http://www.w3.org/2000/svg" xmlns:xlink="http://www.w3.org/1999/xlink" width="60" height="60" viewBox="0 0 60 60">
<path fill-rule="nonzero" fill="rgb(0%, 32.156863%, 70.588235%)" fill-opacity="1" d="M 56.476562 44.117188 C 51.425781 53.570312 41.464844 60 30 60 C 18.535156 60 8.574219 53.570312 3.523438 44.117188 L 30 37.5 Z M 56.476562 44.117188 "/>
<path fill-rule="nonzero" fill="rgb(84.705882%, 0%, 15.294118%)" fill-opacity="1" d="M 55.984375 45 C 58.539062 40.585938 60 35.464844 60 30 L 30 22.5 L 0 30 C 0 35.464844 1.460938 40.585938 4.011719 45 Z M 55.984375 45 "/>
<path fill-rule="nonzero" fill="rgb(93.333333%, 93.333333%, 93.333333%)" fill-opacity="1" d="M 55.265625 13.816406 C 58.261719 18.484375 60 24.039062 60 30 L 0 30 C 0 24.039062 1.738281 18.484375 4.734375 13.816406 L 30 7.5 Z M 55.265625 13.816406 "/>
<path fill-rule="nonzero" fill="rgb(100%, 77.647059%, 20.784314%)" fill-opacity="1" d="M 55.984375 15 L 4.015625 15 C 9.199219 6.03125 18.898438 0 30 0 C 41.101562 0 50.800781 6.03125 55.984375 15 Z M 55.984375 15 "/>
<path fill-rule="nonzero" fill="rgb(42.745098%, 64.705882%, 26.666667%)" fill-opacity="1" d="M 0 28.777344 C 0.3125 20.972656 3.605469 13.9375 8.773438 8.773438 L 30 30 L 8.773438 51.222656 C 3.605469 46.0625 0.3125 39.023438 0 31.21875 Z M 0 28.777344 "/>
<path fill-rule="nonzero" fill="rgb(93.333333%, 93.333333%, 93.333333%)" fill-opacity="1" d="M 7.914062 29.914062 C 7.914062 25.542969 10.984375 21.890625 15.085938 20.996094 C 14.457031 20.859375 13.800781 20.78125 13.128906 20.78125 C 8.085938 20.78125 4 24.871094 4 29.914062 C 4 34.957031 8.085938 39.042969 13.128906 39.042969 C 13.800781 39.042969 14.457031 38.96875 15.085938 38.832031 C 10.984375 37.933594 7.914062 34.285156 7.914062 29.914062 Z M 7.914062 29.914062 "/>
<path fill-rule="nonzero" fill="rgb(93.333333%, 93.333333%, 93.333333%)" fill-opacity="1" d="M 14.984375 22.085938 L 15.472656 23.582031 L 17.042969 23.582031 L 15.773438 24.507812 L 16.257812 26 L 14.984375 25.078125 L 13.714844 26 L 14.199219 24.507812 L 12.929688 23.582031 L 14.5 23.582031 Z M 14.984375 22.085938 "/>
<path fill-rule="nonzero" fill="rgb(93.333333%, 93.333333%, 93.333333%)" fill-opacity="1" d="M 14.984375 26 L 15.472656 27.496094 L 17.042969 27.496094 L 15.773438 28.417969 L 16.257812 29.914062 L 14.984375 28.988281 L 13.714844 29.914062 L 14.199219 28.417969 L 12.929688 27.496094 L 14.5 27.496094 Z M 14.984375 26 "/>
<path fill-rule="nonzero" fill="rgb(93.333333%, 93.333333%, 93.333333%)" fill-opacity="1" d="M 14.984375 29.914062 L 15.472656 31.40625 L 17.042969 31.40625 L 15.773438 32.332031 L 16.257812 33.828125 L 14.984375 32.902344 L 13.714844 33.828125 L 14.199219 32.332031 L 12.929688 31.40625 L 14.5 31.40625 Z M 14.984375 29.914062 "/>
<path fill-rule="nonzero" fill="rgb(93.333333%, 93.333333%, 93.333333%)" fill-opacity="1" d="M 14.984375 33.828125 L 15.472656 35.320312 L 17.042969 35.320312 L 15.773438 36.246094 L 16.257812 37.738281 L 14.984375 36.816406 L 13.714844 37.738281 L 14.199219 36.246094 L 12.929688 35.320312 L 14.5 35.320312 Z M 14.984375 33.828125 "/>
</svg>
