<?xml version="1.0" encoding="UTF-8"?>
<svg xmlns="http://www.w3.org/2000/svg" xmlns:xlink="http://www.w3.org/1999/xlink" width="40" height="40" viewBox="0 0 40 40">
<path fill-rule="nonzero" fill="rgb(0%, 32.156863%, 70.588235%)" fill-opacity="1" d="M 37.652344 29.414062 C 34.285156 35.710938 27.640625 40 20 40 C 12.359375 40 5.714844 35.714844 2.347656 29.414062 L 20 25 Z M 37.652344 29.414062 "/>
<path fill-rule="nonzero" fill="rgb(84.705882%, 0%, 15.294118%)" fill-opacity="1" d="M 37.324219 30 C 39.027344 27.058594 40 23.644531 40 20 L 20 15 L 0 20 C 0 23.644531 0.972656 27.058594 2.675781 30 Z M 37.324219 30 "/>
<path fill-rule="nonzero" fill="rgb(93.333333%, 93.333333%, 93.333333%)" fill-opacity="1" d="M 36.84375 9.210938 C 38.839844 12.324219 40 16.027344 40 20 L 0 20 C 0 16.027344 1.160156 12.324219 3.15625 9.210938 L 20 5 Z M 36.84375 9.210938 "/>
<path fill-rule="nonzero" fill="rgb(100%, 77.647059%, 20.784314%)" fill-opacity="1" d="M 37.324219 10 L 2.675781 10 C 6.132812 4.023438 12.597656 0 20 0 C 27.402344 0 33.867188 4.023438 37.324219 10 Z M 37.324219 10 "/>
<path fill-rule="nonzero" fill="rgb(42.745098%, 64.705882%, 26.666667%)" fill-opacity="1" d="M 0 19.1875 C 0.207031 13.984375 2.40625 9.289062 5.851562 5.847656 L 20 20 L 5.851562 34.148438 C 2.40625 30.707031 0.207031 26.015625 0 20.8125 L 0 19.183594 Z M 0 19.1875 "/>
<path fill-rule="nonzero" fill="rgb(93.333333%, 93.333333%, 93.333333%)" fill-opacity="1" d="M 5.273438 19.941406 C 5.273438 17.027344 7.324219 14.59375 10.058594 13.996094 C 9.636719 13.90625 9.203125 13.855469 8.753906 13.855469 C 5.390625 13.855469 2.667969 16.582031 2.667969 19.941406 C 2.667969 23.304688 5.390625 26.027344 8.753906 26.027344 C 9.203125 26.027344 9.636719 25.980469 10.058594 25.886719 C 7.324219 25.289062 5.277344 22.855469 5.277344 19.941406 Z M 5.273438 19.941406 "/>
<path fill-rule="nonzero" fill="rgb(93.333333%, 93.333333%, 93.333333%)" fill-opacity="1" d="M 9.992188 14.726562 L 10.3125 15.722656 L 11.363281 15.722656 L 10.515625 16.335938 L 10.839844 17.332031 L 9.992188 16.71875 L 9.144531 17.332031 L 9.46875 16.335938 L 8.621094 15.722656 L 9.667969 15.722656 Z M 9.992188 14.726562 "/>
<path fill-rule="nonzero" fill="rgb(93.333333%, 93.333333%, 93.333333%)" fill-opacity="1" d="M 9.992188 17.332031 L 10.3125 18.328125 L 11.363281 18.328125 L 10.515625 18.945312 L 10.839844 19.941406 L 9.992188 19.328125 L 9.144531 19.941406 L 9.46875 18.945312 L 8.621094 18.328125 L 9.667969 18.328125 Z M 9.992188 17.332031 "/>
<path fill-rule="nonzero" fill="rgb(93.333333%, 93.333333%, 93.333333%)" fill-opacity="1" d="M 9.992188 19.941406 L 10.3125 20.9375 L 11.363281 20.9375 L 10.515625 21.554688 L 10.839844 22.550781 L 9.992188 21.933594 L 9.144531 22.550781 L 9.46875 21.554688 L 8.621094 20.9375 L 9.667969 20.9375 Z M 9.992188 19.941406 "/>
<path fill-rule="nonzero" fill="rgb(93.333333%, 93.333333%, 93.333333%)" fill-opacity="1" d="M 9.992188 22.550781 L 10.3125 23.546875 L 11.363281 23.546875 L 10.515625 24.164062 L 10.839844 25.160156 L 9.992188 24.542969 L 9.144531 25.160156 L 9.46875 24.164062 L 8.621094 23.546875 L 9.667969 23.546875 Z M 9.992188 22.550781 "/>
</svg>
