<?xml version="1.0" encoding="UTF-8"?>
<svg xmlns="http://www.w3.org/2000/svg" xmlns:xlink="http://www.w3.org/1999/xlink" width="40" height="40" viewBox="0 0 40 40">
<path fill-rule="nonzero" fill="rgb(63.529412%, 0%, 11.372549%)" fill-opacity="1" d="M 40 20 C 40 31.046875 31.046875 40 20 40 C 8.953125 40 0 31.046875 0 20 C 0 8.953125 8.953125 0 20 0 C 31.046875 0 40 8.953125 40 20 Z M 40 20 "/>
<path fill-rule="evenodd" fill="rgb(100%, 85.490196%, 26.666667%)" fill-opacity="1" d="M 8.339844 3.75 C 11.621094 1.390625 15.648438 0 20 0 C 24.351562 0 28.378906 1.390625 31.660156 3.75 Z M 20 40 C 24.351562 40 28.378906 38.609375 31.660156 36.25 L 8.339844 36.25 C 11.621094 38.609375 15.648438 40 20 40 Z M 20 40 "/>
<path fill-rule="nonzero" fill="rgb(100%, 85.490196%, 26.666667%)" fill-opacity="1" d="M 15.652344 14.78125 L 24.347656 14.78125 L 24.347656 11.304688 L 22.609375 12.175781 L 20 9.566406 L 17.390625 12.175781 L 15.652344 11.304688 Z M 15.652344 14.78125 "/>
<path fill-rule="nonzero" fill="rgb(100%, 85.490196%, 26.666667%)" fill-opacity="1" d="M 27.824219 20 L 23.480469 20 C 23.648438 19.707031 23.75 19.363281 23.75 19 C 23.75 17.890625 22.851562 16.992188 21.742188 16.992188 C 20.976562 16.992188 20.3125 17.421875 19.972656 18.050781 C 19.636719 17.421875 18.96875 16.992188 18.203125 16.992188 C 17.097656 16.992188 16.199219 17.890625 16.199219 19 C 16.199219 19.363281 16.296875 19.707031 16.46875 20 L 12.171875 20 C 12.171875 21.328125 13.332031 22.40625 14.660156 22.40625 L 14.582031 22.40625 C 14.582031 23.5 15.308594 24.421875 16.300781 24.714844 L 14.347656 26.671875 L 16.191406 28.515625 L 18.808594 25.898438 C 18.910156 25.9375 19.015625 25.964844 19.125 25.988281 L 17.546875 29.554688 C 18.304688 29.863281 19.132812 30.035156 20 30.035156 C 20.867188 30.035156 21.695312 29.863281 22.453125 29.554688 L 20.871094 25.988281 C 20.980469 25.964844 21.089844 25.9375 21.191406 25.898438 L 23.808594 28.515625 L 25.652344 26.671875 L 23.695312 24.714844 C 24.691406 24.417969 25.417969 23.5 25.417969 22.40625 L 25.335938 22.40625 C 26.667969 22.40625 27.824219 21.328125 27.824219 20 Z M 27.824219 20 "/>
<path fill-rule="nonzero" fill="rgb(42.745098%, 64.705882%, 26.666667%)" fill-opacity="1" d="M 20 21.304688 L 17.175781 22.609375 L 17.175781 25.21875 L 20 26.957031 L 22.824219 25.21875 L 22.824219 22.609375 Z M 20 21.304688 "/>
<path fill-rule="nonzero" fill="rgb(0%, 32.156863%, 70.588235%)" fill-opacity="1" d="M 17.175781 20 L 22.824219 20 L 22.824219 23.476562 L 17.175781 23.476562 Z M 17.175781 20 "/>
</svg>
