<?xml version="1.0" encoding="UTF-8"?>
<svg xmlns="http://www.w3.org/2000/svg" xmlns:xlink="http://www.w3.org/1999/xlink" width="60" height="60" viewBox="0 0 60 60">
<path fill-rule="nonzero" fill="rgb(63.529412%, 0%, 11.372549%)" fill-opacity="1" d="M 60 30 C 60 46.570312 46.570312 60 30 60 C 13.429688 60 0 46.570312 0 30 C 0 13.429688 13.429688 0 30 0 C 46.570312 0 60 13.429688 60 30 Z M 60 30 "/>
<path fill-rule="evenodd" fill="rgb(100%, 85.490196%, 26.666667%)" fill-opacity="1" d="M 12.507812 5.625 C 17.429688 2.085938 23.472656 0 30 0 C 36.527344 0 42.570312 2.085938 47.492188 5.625 Z M 30 60 C 36.527344 60 42.570312 57.914062 47.492188 54.375 L 12.507812 54.375 C 17.429688 57.914062 23.472656 60 30 60 Z M 30 60 "/>
<path fill-rule="nonzero" fill="rgb(100%, 85.490196%, 26.666667%)" fill-opacity="1" d="M 23.476562 22.175781 L 36.523438 22.175781 L 36.523438 16.957031 L 33.914062 18.261719 L 30 14.347656 L 26.085938 18.261719 L 23.476562 16.957031 Z M 23.476562 22.175781 "/>
<path fill-rule="nonzero" fill="rgb(100%, 85.490196%, 26.666667%)" fill-opacity="1" d="M 41.738281 30 L 35.21875 30 C 35.476562 29.558594 35.625 29.046875 35.625 28.5 C 35.625 26.835938 34.277344 25.488281 32.613281 25.488281 C 31.464844 25.488281 30.46875 26.132812 29.960938 27.078125 C 29.453125 26.132812 28.453125 25.488281 27.304688 25.488281 C 25.644531 25.488281 24.296875 26.835938 24.296875 28.5 C 24.296875 29.046875 24.445312 29.558594 24.699219 30 L 18.261719 30 C 18.261719 31.996094 19.996094 33.613281 21.992188 33.613281 L 21.871094 33.613281 C 21.871094 35.25 22.960938 36.628906 24.453125 37.074219 L 21.519531 40.003906 L 24.289062 42.773438 L 28.210938 38.847656 C 28.367188 38.902344 28.527344 38.949219 28.691406 38.980469 L 26.320312 44.335938 C 27.453125 44.796875 28.695312 45.054688 30 45.054688 C 31.300781 45.054688 32.542969 44.796875 33.679688 44.335938 L 31.308594 38.980469 C 31.472656 38.949219 31.632812 38.902344 31.785156 38.847656 L 35.710938 42.773438 L 38.476562 40.003906 L 35.546875 37.074219 C 37.039062 36.628906 38.125 35.25 38.125 33.613281 L 38.007812 33.613281 C 40 33.613281 41.738281 31.996094 41.738281 30 Z M 41.738281 30 "/>
<path fill-rule="nonzero" fill="rgb(42.745098%, 64.705882%, 26.666667%)" fill-opacity="1" d="M 30 31.957031 L 25.761719 33.914062 L 25.761719 37.828125 L 30 40.433594 L 34.238281 37.828125 L 34.238281 33.914062 Z M 30 31.957031 "/>
<path fill-rule="nonzero" fill="rgb(0%, 32.156863%, 70.588235%)" fill-opacity="1" d="M 25.761719 30 L 34.238281 30 L 34.238281 35.21875 L 25.761719 35.21875 Z M 25.761719 30 "/>
</svg>
