<?xml version="1.0" encoding="UTF-8"?>
<svg xmlns="http://www.w3.org/2000/svg" xmlns:xlink="http://www.w3.org/1999/xlink" width="20" height="20" viewBox="0 0 20 20">
<path fill-rule="nonzero" fill="rgb(63.529412%, 0%, 11.372549%)" fill-opacity="1" d="M 20 10 C 20 15.523438 15.523438 20 10 20 C 4.476562 20 0 15.523438 0 10 C 0 4.476562 4.476562 0 10 0 C 15.523438 0 20 4.476562 20 10 Z M 20 10 "/>
<path fill-rule="evenodd" fill="rgb(100%, 85.490196%, 26.666667%)" fill-opacity="1" d="M 4.167969 1.875 C 5.8125 0.695312 7.824219 0 10 0 C 12.175781 0 14.1875 0.695312 15.832031 1.875 Z M 10 20 C 12.175781 20 14.1875 19.304688 15.832031 18.125 L 4.167969 18.125 C 5.808594 19.304688 7.824219 20 10 20 Z M 10 20 "/>
<path fill-rule="nonzero" fill="rgb(100%, 85.490196%, 26.666667%)" fill-opacity="1" d="M 7.828125 7.390625 L 12.171875 7.390625 L 12.171875 5.652344 L 11.304688 6.085938 L 10 4.78125 L 8.695312 6.085938 L 7.824219 5.652344 L 7.824219 7.390625 Z M 7.828125 7.390625 "/>
<path fill-rule="nonzero" fill="rgb(100%, 85.490196%, 26.666667%)" fill-opacity="1" d="M 13.914062 10 L 11.738281 10 C 11.824219 9.851562 11.875 9.683594 11.875 9.5 C 11.875 8.945312 11.425781 8.496094 10.871094 8.496094 C 10.488281 8.496094 10.15625 8.710938 9.988281 9.027344 C 9.816406 8.710938 9.484375 8.496094 9.101562 8.496094 C 8.546875 8.496094 8.097656 8.945312 8.097656 9.5 C 8.097656 9.683594 8.148438 9.851562 8.234375 10 L 6.085938 10 C 6.085938 10.664062 6.664062 11.203125 7.332031 11.203125 L 7.289062 11.203125 C 7.289062 11.75 7.652344 12.210938 8.152344 12.359375 L 7.171875 13.335938 L 8.097656 14.257812 L 9.402344 12.949219 C 9.457031 12.96875 9.507812 12.984375 9.5625 12.992188 L 8.773438 14.777344 C 9.152344 14.933594 9.566406 15.019531 10 15.019531 C 10.433594 15.019531 10.847656 14.933594 11.226562 14.777344 L 10.4375 12.992188 C 10.492188 12.984375 10.542969 12.96875 10.59375 12.949219 L 11.902344 14.257812 L 12.824219 13.335938 L 11.847656 12.359375 C 12.347656 12.210938 12.707031 11.75 12.707031 11.203125 L 12.667969 11.203125 C 13.332031 11.203125 13.914062 10.664062 13.914062 10 Z M 13.914062 10 "/>
<path fill-rule="nonzero" fill="rgb(42.745098%, 64.705882%, 26.666667%)" fill-opacity="1" d="M 10 10.652344 L 8.585938 11.304688 L 8.585938 12.609375 L 10 13.476562 L 11.414062 12.609375 L 11.414062 11.304688 Z M 10 10.652344 "/>
<path fill-rule="nonzero" fill="rgb(0%, 32.156863%, 70.588235%)" fill-opacity="1" d="M 8.585938 10 L 11.414062 10 L 11.414062 11.738281 L 8.585938 11.738281 Z M 8.585938 10 "/>
</svg>
