<?xml version="1.0" encoding="UTF-8"?>
<svg xmlns="http://www.w3.org/2000/svg" xmlns:xlink="http://www.w3.org/1999/xlink" width="60" height="60" viewBox="0 0 60 60">
<path fill-rule="nonzero" fill="rgb(0%, 32.156863%, 70.588235%)" fill-opacity="1" d="M 15.9375 56.507812 C 20.132812 58.738281 24.917969 60 30 60 C 35.082031 60 39.867188 58.738281 44.0625 56.507812 L 44.0625 3.492188 C 39.867188 1.261719 35.082031 0 30 0 C 24.917969 0 20.132812 1.261719 15.9375 3.492188 Z M 15.9375 56.507812 "/>
<path fill-rule="nonzero" fill="rgb(63.529412%, 0%, 11.372549%)" fill-opacity="1" d="M 19.6875 58.179688 C 8.199219 53.976562 0 42.945312 0 30 C 0 17.054688 8.199219 6.023438 19.6875 1.820312 Z M 19.6875 58.179688 "/>
<path fill-rule="nonzero" fill="rgb(63.529412%, 0%, 11.372549%)" fill-opacity="1" d="M 40.3125 58.179688 L 40.3125 1.820312 C 51.800781 6.023438 60 17.054688 60 30 C 60 42.945312 51.800781 53.972656 40.3125 58.179688 Z M 40.3125 58.179688 "/>
<path fill-rule="nonzero" fill="rgb(100%, 85.490196%, 26.666667%)" fill-opacity="1" d="M 13.757812 30 L 16.367188 30 L 16.367188 40.433594 L 13.757812 40.433594 Z M 13.757812 30 "/>
<path fill-rule="nonzero" fill="rgb(100%, 85.490196%, 26.666667%)" fill-opacity="1" d="M 3.320312 30 L 5.929688 30 L 5.929688 40.433594 L 3.320312 40.433594 Z M 3.320312 30 "/>
<path fill-rule="nonzero" fill="rgb(100%, 85.490196%, 26.666667%)" fill-opacity="1" d="M 9.84375 36.523438 C 11.285156 36.523438 12.453125 35.351562 12.453125 33.914062 C 12.453125 32.472656 11.285156 31.304688 9.84375 31.304688 C 8.402344 31.304688 7.234375 32.472656 7.234375 33.914062 C 7.234375 35.351562 8.402344 36.523438 9.84375 36.523438 Z M 9.84375 36.523438 "/>
<path fill-rule="nonzero" fill="rgb(100%, 85.490196%, 26.666667%)" fill-opacity="1" d="M 9.84375 26.085938 C 10.5625 26.085938 11.148438 25.503906 11.148438 24.78125 C 11.148438 24.0625 10.5625 23.480469 9.84375 23.480469 C 9.125 23.480469 8.539062 24.0625 8.539062 24.78125 C 8.539062 25.503906 9.125 26.085938 9.84375 26.085938 Z M 9.84375 26.085938 "/>
<path fill-rule="nonzero" fill="rgb(100%, 85.490196%, 26.666667%)" fill-opacity="1" d="M 7.234375 37.824219 L 12.453125 37.824219 L 12.453125 40.433594 L 7.234375 40.433594 Z M 7.234375 37.824219 "/>
<path fill-rule="nonzero" fill="rgb(100%, 85.490196%, 26.666667%)" fill-opacity="1" d="M 7.234375 27.390625 L 12.453125 27.390625 L 12.453125 30 L 7.234375 30 Z M 7.234375 27.390625 "/>
<path fill-rule="nonzero" fill="rgb(100%, 85.490196%, 26.666667%)" fill-opacity="1" d="M 9.84375 15.652344 L 10.765625 18.496094 L 13.757812 18.496094 L 11.339844 20.25 L 12.261719 23.09375 L 9.84375 21.335938 L 7.425781 23.09375 L 8.347656 20.25 L 5.929688 18.496094 L 8.917969 18.496094 Z M 9.84375 15.652344 "/>
</svg>
