<?xml version="1.0" encoding="UTF-8"?>
<svg xmlns="http://www.w3.org/2000/svg" xmlns:xlink="http://www.w3.org/1999/xlink" width="20" height="20" viewBox="0 0 20 20">
<path fill-rule="nonzero" fill="rgb(0%, 32.156863%, 70.588235%)" fill-opacity="1" d="M 5.3125 18.835938 C 6.710938 19.578125 8.304688 20 10 20 C 11.695312 20 13.289062 19.578125 14.6875 18.835938 L 14.6875 1.164062 C 13.289062 0.421875 11.695312 0 10 0 C 8.304688 0 6.710938 0.421875 5.3125 1.164062 Z M 5.3125 18.835938 "/>
<path fill-rule="nonzero" fill="rgb(63.529412%, 0%, 11.372549%)" fill-opacity="1" d="M 6.5625 19.394531 C 2.734375 17.992188 0 14.316406 0 10 C 0 5.683594 2.734375 2.007812 6.5625 0.605469 Z M 6.5625 19.394531 "/>
<path fill-rule="nonzero" fill="rgb(63.529412%, 0%, 11.372549%)" fill-opacity="1" d="M 13.4375 19.394531 L 13.4375 0.605469 C 17.265625 2.007812 20 5.683594 20 10 C 20 14.316406 17.265625 17.992188 13.4375 19.394531 Z M 13.4375 19.394531 "/>
<path fill-rule="nonzero" fill="rgb(100%, 85.490196%, 26.666667%)" fill-opacity="1" d="M 4.585938 10 L 5.457031 10 L 5.457031 13.476562 L 4.585938 13.476562 Z M 4.585938 10 "/>
<path fill-rule="nonzero" fill="rgb(100%, 85.490196%, 26.666667%)" fill-opacity="1" d="M 1.105469 10 L 1.976562 10 L 1.976562 13.476562 L 1.105469 13.476562 Z M 1.105469 10 "/>
<path fill-rule="nonzero" fill="rgb(100%, 85.490196%, 26.666667%)" fill-opacity="1" d="M 3.28125 12.171875 C 3.761719 12.171875 4.152344 11.785156 4.152344 11.304688 C 4.152344 10.824219 3.761719 10.433594 3.28125 10.433594 C 2.800781 10.433594 2.410156 10.824219 2.410156 11.304688 C 2.410156 11.785156 2.800781 12.171875 3.28125 12.171875 Z M 3.28125 12.171875 "/>
<path fill-rule="nonzero" fill="rgb(100%, 85.490196%, 26.666667%)" fill-opacity="1" d="M 3.28125 8.695312 C 3.519531 8.695312 3.714844 8.5 3.714844 8.261719 C 3.714844 8.019531 3.519531 7.828125 3.28125 7.828125 C 3.042969 7.828125 2.847656 8.019531 2.847656 8.261719 C 2.847656 8.5 3.042969 8.695312 3.28125 8.695312 Z M 3.28125 8.695312 "/>
<path fill-rule="nonzero" fill="rgb(100%, 85.490196%, 26.666667%)" fill-opacity="1" d="M 2.410156 12.609375 L 4.152344 12.609375 L 4.152344 13.476562 L 2.410156 13.476562 Z M 2.410156 12.609375 "/>
<path fill-rule="nonzero" fill="rgb(100%, 85.490196%, 26.666667%)" fill-opacity="1" d="M 2.410156 9.128906 L 4.152344 9.128906 L 4.152344 10 L 2.410156 10 Z M 2.410156 9.128906 "/>
<path fill-rule="nonzero" fill="rgb(100%, 85.490196%, 26.666667%)" fill-opacity="1" d="M 3.28125 5.21875 L 3.589844 6.164062 L 4.585938 6.164062 L 3.78125 6.75 L 4.085938 7.699219 L 3.28125 7.113281 L 2.476562 7.699219 L 2.78125 6.75 L 1.976562 6.164062 L 2.972656 6.164062 Z M 3.28125 5.21875 "/>
</svg>
