<?xml version="1.0" encoding="UTF-8"?>
<svg xmlns="http://www.w3.org/2000/svg" xmlns:xlink="http://www.w3.org/1999/xlink" width="40" height="40" viewBox="0 0 40 40">
<path fill-rule="nonzero" fill="rgb(0%, 32.156863%, 70.588235%)" fill-opacity="1" d="M 10.625 37.671875 C 13.421875 39.15625 16.613281 40 20 40 C 23.386719 40 26.578125 39.15625 29.375 37.671875 L 29.375 2.328125 C 26.578125 0.84375 23.386719 0 20 0 C 16.613281 0 13.421875 0.84375 10.625 2.328125 Z M 10.625 37.671875 "/>
<path fill-rule="nonzero" fill="rgb(63.529412%, 0%, 11.372549%)" fill-opacity="1" d="M 13.125 38.785156 C 5.464844 35.984375 0 28.628906 0 20 C 0 11.371094 5.464844 4.015625 13.125 1.214844 L 13.125 38.789062 Z M 13.125 38.785156 "/>
<path fill-rule="nonzero" fill="rgb(63.529412%, 0%, 11.372549%)" fill-opacity="1" d="M 26.875 38.785156 L 26.875 1.210938 C 34.535156 4.015625 40 11.371094 40 20 C 40 28.628906 34.535156 35.984375 26.875 38.785156 Z M 26.875 38.785156 "/>
<path fill-rule="nonzero" fill="rgb(100%, 85.490196%, 26.666667%)" fill-opacity="1" d="M 9.171875 20 L 10.910156 20 L 10.910156 26.957031 L 9.171875 26.957031 Z M 9.171875 20 "/>
<path fill-rule="nonzero" fill="rgb(100%, 85.490196%, 26.666667%)" fill-opacity="1" d="M 2.214844 20 L 3.953125 20 L 3.953125 26.957031 L 2.214844 26.957031 Z M 2.214844 20 "/>
<path fill-rule="nonzero" fill="rgb(100%, 85.490196%, 26.666667%)" fill-opacity="1" d="M 6.5625 24.347656 C 7.523438 24.347656 8.300781 23.570312 8.300781 22.609375 C 8.300781 21.648438 7.523438 20.871094 6.5625 20.871094 C 5.601562 20.871094 4.824219 21.648438 4.824219 22.609375 C 4.824219 23.570312 5.601562 24.347656 6.5625 24.347656 Z M 6.5625 24.347656 "/>
<path fill-rule="nonzero" fill="rgb(100%, 85.490196%, 26.666667%)" fill-opacity="1" d="M 6.5625 17.390625 C 7.042969 17.390625 7.433594 17.003906 7.433594 16.523438 C 7.433594 16.042969 7.042969 15.652344 6.5625 15.652344 C 6.082031 15.652344 5.691406 16.042969 5.691406 16.523438 C 5.691406 17.003906 6.082031 17.390625 6.5625 17.390625 Z M 6.5625 17.390625 "/>
<path fill-rule="nonzero" fill="rgb(100%, 85.490196%, 26.666667%)" fill-opacity="1" d="M 4.824219 25.21875 L 8.300781 25.21875 L 8.300781 26.957031 L 4.824219 26.957031 Z M 4.824219 25.21875 "/>
<path fill-rule="nonzero" fill="rgb(100%, 85.490196%, 26.666667%)" fill-opacity="1" d="M 4.824219 18.261719 L 8.300781 18.261719 L 8.300781 20 L 4.824219 20 Z M 4.824219 18.261719 "/>
<path fill-rule="nonzero" fill="rgb(100%, 85.490196%, 26.666667%)" fill-opacity="1" d="M 6.5625 10.433594 L 7.179688 12.328125 L 9.171875 12.328125 L 7.558594 13.5 L 8.175781 15.394531 L 6.5625 14.226562 L 4.949219 15.394531 L 5.566406 13.5 L 3.953125 12.328125 L 5.945312 12.328125 Z M 6.5625 10.433594 "/>
</svg>
