<?xml version="1.0" encoding="UTF-8"?>
<svg width="16px" height="16px" viewBox="0 0 16 16" version="1.1" xmlns="http://www.w3.org/2000/svg" xmlns:xlink="http://www.w3.org/1999/xlink">
    <!-- Generator: Sketch 56.3 (81716) - https://sketch.com -->
    <title>fake-news-dark</title>
    <desc>Created with Sketch.</desc>
    <g id="Page-1" stroke="none" stroke-width="1" fill="none" fill-rule="evenodd">
        <g id="fakenewsicon" fill="#020D1C" fill-rule="nonzero">
            <path d="M8,0 C9.656854,0 11,1.343146 11,3 C11,3.356557 10.937797,3.698587 10.82365,4.015828 C12.604881,4.178041 14,5.676097 14,7.5 C14,8.104775 13.846611,8.673724 13.576614,9.170065 C14.982822,9.622814 16,10.94262 16,12.5 C16,14.432997 14.432997,16 12.5,16 L3.5,16 C1.567003,16 0,14.432997 0,12.5 C0,10.94262 1.017178,9.622814 2.423422,9.168696 C2.153389,8.673724 2,8.104775 2,7.5 C2,5.676097 3.395119,4.178041 5.176433,4.014758 C5.062203,3.698587 5,3.356557 5,3 L5,0 L8,0 Z M12.5,11 L3.5,11 C2.671573,11 2,11.671573 2,12.5 C2,13.279696 2.594888,13.920449 3.35554,13.993133 L3.5,14 L12.5,14 C13.328427,14 14,13.328427 14,12.5 C14,11.720304 13.405112,11.079551 12.64446,11.006867 L12.5,11 Z M10.5,6 L5.5,6 C4.671573,6 4,6.671573 4,7.5 C4,8.279696 4.594888,8.920449 5.35554,8.993133 L5.5,9 L10.5,9 C11.328427,9 12,8.328427 12,7.5 C12,6.720304 11.405112,6.079551 10.64446,6.006867 L10.5,6 Z M8,2 L7,2 L7,3 C7,3.552285 7.447715,4 8,4 C8.552285,4 9,3.552285 9,3 C9,2.487164 8.61396,2.064493 8.116621,2.006728 L8,2 Z"></path>
        </g>
    </g>
</svg>