<?xml version="1.0" encoding="UTF-8"?>
<svg xmlns="http://www.w3.org/2000/svg" xmlns:xlink="http://www.w3.org/1999/xlink" width="20" height="20" viewBox="0 0 20 20">
<path fill-rule="nonzero" fill="rgb(0%, 32.156863%, 70.588235%)" fill-opacity="1" d="M 10 20 C 15.515625 20 19.988281 15.535156 20 10.019531 L 20 10 L 10 8.75 L 0 10 C 0 15.523438 4.476562 20 10 20 Z M 10 20 "/>
<path fill-rule="nonzero" fill="rgb(84.705882%, 0%, 15.294118%)" fill-opacity="1" d="M 20 9.980469 L 20 10 L 0 10 C 0 4.476562 4.476562 0 10 0 C 15.515625 0 19.988281 4.464844 20 9.980469 Z M 20 9.980469 "/>
<path fill-rule="nonzero" fill="rgb(93.333333%, 93.333333%, 93.333333%)" fill-opacity="1" d="M 0 9.59375 C 0.105469 6.992188 1.203125 4.644531 2.925781 2.925781 L 10 10 L 2.925781 17.074219 C 1.203125 15.355469 0.105469 13.007812 0 10.40625 Z M 0 9.59375 "/>
<path fill-rule="nonzero" fill="rgb(100%, 77.647059%, 20.784314%)" fill-opacity="1" d="M 1.097656 10 C 1.089844 10.070312 1.085938 10.144531 1.085938 10.21875 C 1.085938 11.777344 2.351562 13.042969 3.914062 13.042969 C 5.472656 13.042969 6.738281 11.777344 6.738281 10.21875 C 6.738281 10.144531 6.734375 10.070312 6.730469 10 Z M 1.097656 10 "/>
<path fill-rule="nonzero" fill="rgb(100%, 77.647059%, 20.784314%)" fill-opacity="1" d="M 3.914062 8.695312 C 4.394531 8.695312 4.78125 8.304688 4.78125 7.824219 C 4.78125 7.347656 4.394531 6.957031 3.914062 6.957031 C 3.433594 6.957031 3.042969 7.347656 3.042969 7.824219 C 3.042969 8.304688 3.433594 8.695312 3.914062 8.695312 Z M 3.914062 8.695312 "/>
<path fill-rule="nonzero" fill="rgb(84.705882%, 0%, 15.294118%)" fill-opacity="1" d="M 1.957031 7.609375 L 1.957031 10.433594 C 1.957031 11.933594 3.914062 12.390625 3.914062 12.390625 C 3.914062 12.390625 5.871094 11.933594 5.871094 10.433594 L 5.871094 7.609375 Z M 1.957031 7.609375 "/>
<path fill-rule="nonzero" fill="rgb(20%, 54.117647%, 95.294118%)" fill-opacity="1" d="M 3.914062 11.480469 C 3.550781 11.351562 2.824219 11.015625 2.824219 10.433594 L 2.824219 8.476562 L 5 8.476562 L 5 10.433594 C 5 11.019531 4.273438 11.351562 3.914062 11.480469 Z M 3.914062 11.480469 "/>
<path fill-rule="nonzero" fill="rgb(95.294118%, 95.294118%, 95.294118%)" fill-opacity="1" d="M 4.347656 9.566406 L 4.347656 9.128906 L 3.914062 8.914062 L 3.476562 9.128906 L 3.476562 9.566406 L 3.261719 9.78125 L 3.261719 10.652344 L 4.566406 10.652344 L 4.566406 9.78125 Z M 4.347656 9.566406 "/>
</svg>
