<?xml version="1.0" encoding="UTF-8"?>
<svg xmlns="http://www.w3.org/2000/svg" xmlns:xlink="http://www.w3.org/1999/xlink" width="60" height="60" viewBox="0 0 60 60">
<path fill-rule="nonzero" fill="rgb(0%, 32.156863%, 70.588235%)" fill-opacity="1" d="M 30 60 C 46.550781 60 59.96875 46.601562 60 30.058594 L 60 30 L 30 26.25 L 0 30 C 0 46.566406 13.433594 60 30 60 Z M 30 60 "/>
<path fill-rule="nonzero" fill="rgb(84.705882%, 0%, 15.294118%)" fill-opacity="1" d="M 60 29.941406 L 60 30 L 0 30 C 0 13.433594 13.433594 0 30 0 C 46.550781 0 59.96875 13.398438 60 29.941406 Z M 60 29.941406 "/>
<path fill-rule="nonzero" fill="rgb(93.333333%, 93.333333%, 93.333333%)" fill-opacity="1" d="M 0 28.777344 C 0.3125 20.972656 3.605469 13.9375 8.773438 8.773438 L 30 30 L 8.773438 51.222656 C 3.605469 46.0625 0.3125 39.023438 0 31.21875 Z M 0 28.777344 "/>
<path fill-rule="nonzero" fill="rgb(100%, 77.647059%, 20.784314%)" fill-opacity="1" d="M 3.289062 30 C 3.273438 30.214844 3.261719 30.433594 3.261719 30.652344 C 3.261719 35.335938 7.058594 39.128906 11.738281 39.128906 C 16.421875 39.128906 20.21875 35.335938 20.21875 30.652344 C 20.21875 30.433594 20.207031 30.214844 20.191406 30 Z M 3.289062 30 "/>
<path fill-rule="nonzero" fill="rgb(100%, 77.647059%, 20.784314%)" fill-opacity="1" d="M 11.738281 26.085938 C 13.179688 26.085938 14.347656 24.917969 14.347656 23.476562 C 14.347656 22.039062 13.179688 20.871094 11.738281 20.871094 C 10.296875 20.871094 9.128906 22.039062 9.128906 23.476562 C 9.128906 24.917969 10.296875 26.085938 11.738281 26.085938 Z M 11.738281 26.085938 "/>
<path fill-rule="nonzero" fill="rgb(84.705882%, 0%, 15.294118%)" fill-opacity="1" d="M 5.871094 22.824219 L 5.871094 31.304688 C 5.871094 35.796875 11.738281 37.171875 11.738281 37.171875 C 11.738281 37.171875 17.609375 35.796875 17.609375 31.304688 L 17.609375 22.824219 Z M 5.871094 22.824219 "/>
<path fill-rule="nonzero" fill="rgb(20%, 54.117647%, 95.294118%)" fill-opacity="1" d="M 11.742188 34.445312 C 10.652344 34.050781 8.476562 33.050781 8.476562 31.304688 L 8.476562 25.433594 L 15 25.433594 L 15 31.304688 C 15 33.054688 12.824219 34.054688 11.742188 34.445312 Z M 11.742188 34.445312 "/>
<path fill-rule="nonzero" fill="rgb(95.294118%, 95.294118%, 95.294118%)" fill-opacity="1" d="M 13.042969 28.695312 L 13.042969 27.390625 L 11.738281 26.738281 L 10.433594 27.390625 L 10.433594 28.695312 L 9.78125 29.347656 L 9.78125 31.957031 L 13.695312 31.957031 L 13.695312 29.347656 Z M 13.042969 28.695312 "/>
</svg>
