<?xml version="1.0" encoding="UTF-8"?>
<svg xmlns="http://www.w3.org/2000/svg" xmlns:xlink="http://www.w3.org/1999/xlink" width="40" height="40" viewBox="0 0 40 40">
<path fill-rule="nonzero" fill="rgb(0%, 32.156863%, 70.588235%)" fill-opacity="1" d="M 20 40 C 31.03125 40 39.980469 31.066406 40 20.039062 L 40 20 L 20 17.5 L 0 20 C 0 31.046875 8.953125 40 20 40 Z M 20 40 "/>
<path fill-rule="nonzero" fill="rgb(84.705882%, 0%, 15.294118%)" fill-opacity="1" d="M 40 19.960938 L 40 20 L 0 20 C 0 8.953125 8.953125 0 20 0 C 31.03125 0 39.980469 8.933594 40 19.960938 Z M 40 19.960938 "/>
<path fill-rule="nonzero" fill="rgb(93.333333%, 93.333333%, 93.333333%)" fill-opacity="1" d="M 0 19.1875 C 0.207031 13.984375 2.40625 9.289062 5.851562 5.847656 L 20 20 L 5.851562 34.148438 C 2.40625 30.707031 0.207031 26.015625 0 20.8125 L 0 19.183594 Z M 0 19.1875 "/>
<path fill-rule="nonzero" fill="rgb(100%, 77.647059%, 20.784314%)" fill-opacity="1" d="M 2.191406 20 C 2.179688 20.144531 2.175781 20.289062 2.175781 20.433594 C 2.175781 23.554688 4.703125 26.085938 7.828125 26.085938 C 10.949219 26.085938 13.476562 23.554688 13.476562 20.433594 C 13.476562 20.289062 13.472656 20.144531 13.460938 20 Z M 2.191406 20 "/>
<path fill-rule="nonzero" fill="rgb(100%, 77.647059%, 20.784314%)" fill-opacity="1" d="M 7.824219 17.390625 C 8.785156 17.390625 9.566406 16.613281 9.566406 15.652344 C 9.566406 14.691406 8.785156 13.914062 7.824219 13.914062 C 6.867188 13.914062 6.085938 14.691406 6.085938 15.652344 C 6.085938 16.613281 6.867188 17.390625 7.824219 17.390625 Z M 7.824219 17.390625 "/>
<path fill-rule="nonzero" fill="rgb(84.705882%, 0%, 15.294118%)" fill-opacity="1" d="M 3.914062 15.21875 L 3.914062 20.871094 C 3.914062 23.863281 7.828125 24.78125 7.828125 24.78125 C 7.828125 24.78125 11.738281 23.863281 11.738281 20.871094 L 11.738281 15.21875 Z M 3.914062 15.21875 "/>
<path fill-rule="nonzero" fill="rgb(20%, 54.117647%, 95.294118%)" fill-opacity="1" d="M 7.828125 22.960938 C 7.101562 22.703125 5.652344 22.035156 5.652344 20.871094 L 5.652344 16.957031 L 10 16.957031 L 10 20.871094 C 10 22.039062 8.550781 22.703125 7.828125 22.960938 Z M 7.828125 22.960938 "/>
<path fill-rule="nonzero" fill="rgb(95.294118%, 95.294118%, 95.294118%)" fill-opacity="1" d="M 8.695312 19.128906 L 8.695312 18.261719 L 7.824219 17.824219 L 6.957031 18.261719 L 6.957031 19.128906 L 6.519531 19.566406 L 6.519531 21.304688 L 9.128906 21.304688 L 9.128906 19.566406 Z M 8.695312 19.128906 "/>
</svg>
