<?xml version="1.0" encoding="UTF-8"?>
<svg xmlns="http://www.w3.org/2000/svg" xmlns:xlink="http://www.w3.org/1999/xlink" width="60" height="60" viewBox="0 0 60 60">
<path fill-rule="nonzero" fill="rgb(0%, 32.156863%, 70.588235%)" fill-opacity="1" d="M 60 30 C 60 46.570312 46.570312 60 30 60 C 13.429688 60 0 46.570312 0 30 C 0 13.429688 13.429688 0 30 0 C 46.570312 0 60 13.429688 60 30 Z M 60 30 "/>
<path fill-rule="evenodd" fill="rgb(93.333333%, 93.333333%, 93.333333%)" fill-opacity="1" d="M 51.785156 50.625 C 56.875 45.25 60 37.988281 60 30 C 60 22.011719 56.875 14.75 51.785156 9.375 L 8.214844 9.375 C 3.121094 14.75 0 22.011719 0 30 C 0 37.988281 3.121094 45.25 8.214844 50.625 Z M 51.785156 50.625 "/>
<path fill-rule="evenodd" fill="rgb(84.705882%, 0%, 15.294118%)" fill-opacity="1" d="M 58.179688 40.3125 C 59.355469 37.097656 60 33.625 60 30 C 60 26.375 59.355469 22.902344 58.179688 19.6875 L 1.820312 19.6875 C 0.640625 22.902344 0 26.375 0 30 C 0 33.625 0.640625 37.097656 1.820312 40.3125 Z M 58.179688 40.3125 "/>
</svg>
