<?xml version="1.0" encoding="UTF-8"?>
<svg xmlns="http://www.w3.org/2000/svg" xmlns:xlink="http://www.w3.org/1999/xlink" width="20" height="20" viewBox="0 0 20 20">
<path fill-rule="nonzero" fill="rgb(0%, 32.156863%, 70.588235%)" fill-opacity="1" d="M 20 10 C 20 15.523438 15.523438 20 10 20 C 4.476562 20 0 15.523438 0 10 C 0 4.476562 4.476562 0 10 0 C 15.523438 0 20 4.476562 20 10 Z M 20 10 "/>
<path fill-rule="evenodd" fill="rgb(93.333333%, 93.333333%, 93.333333%)" fill-opacity="1" d="M 17.261719 16.875 C 18.957031 15.082031 20 12.664062 20 10 C 20 7.335938 18.957031 4.917969 17.261719 3.125 L 2.738281 3.125 C 1.039062 4.917969 0 7.335938 0 10 C 0 12.664062 1.039062 15.082031 2.738281 16.875 Z M 17.261719 16.875 "/>
<path fill-rule="evenodd" fill="rgb(84.705882%, 0%, 15.294118%)" fill-opacity="1" d="M 19.394531 13.4375 C 19.785156 12.367188 20 11.207031 20 10 C 20 8.792969 19.785156 7.632812 19.394531 6.5625 L 0.605469 6.5625 C 0.214844 7.632812 0 8.792969 0 10 C 0 11.207031 0.214844 12.367188 0.605469 13.4375 Z M 19.394531 13.4375 "/>
</svg>
