<?xml version="1.0" encoding="UTF-8"?>
<svg xmlns="http://www.w3.org/2000/svg" xmlns:xlink="http://www.w3.org/1999/xlink" width="40" height="40" viewBox="0 0 40 40">
<path fill-rule="nonzero" fill="rgb(0%, 32.156863%, 70.588235%)" fill-opacity="1" d="M 40 20 C 40 31.046875 31.046875 40 20 40 C 8.953125 40 0 31.046875 0 20 C 0 8.953125 8.953125 0 20 0 C 31.046875 0 40 8.953125 40 20 Z M 40 20 "/>
<path fill-rule="evenodd" fill="rgb(93.333333%, 93.333333%, 93.333333%)" fill-opacity="1" d="M 34.523438 33.75 C 37.917969 30.164062 40 25.324219 40 20 C 40 14.675781 37.917969 9.835938 34.523438 6.25 L 5.476562 6.25 C 2.082031 9.835938 0 14.675781 0 20 C 0 25.324219 2.082031 30.164062 5.476562 33.75 Z M 34.523438 33.75 "/>
<path fill-rule="evenodd" fill="rgb(84.705882%, 0%, 15.294118%)" fill-opacity="1" d="M 38.785156 26.875 C 39.570312 24.730469 40 22.414062 40 20 C 40 17.585938 39.570312 15.269531 38.785156 13.125 L 1.210938 13.125 C 0.429688 15.269531 0 17.585938 0 20 C 0 22.414062 0.429688 24.730469 1.210938 26.875 Z M 38.785156 26.875 "/>
</svg>
