<?xml version="1.0" encoding="UTF-8"?>
<svg width="16px" height="16px" viewBox="0 0 16 16" version="1.1" xmlns="http://www.w3.org/2000/svg" xmlns:xlink="http://www.w3.org/1999/xlink">
    <title>8DE2D033-CE4E-4E36-B5AA-09E84ABF81FB</title>
    <g id="Preferences" stroke="none" stroke-width="1" fill="none" fill-rule="evenodd">
        <g id="Help-Dark" transform="translate(-114.000000, -306.000000)" fill="#FFFFFF" fill-rule="nonzero">
            <g id="ticket" transform="translate(114.000000, 306.000000)">
                <path d="M6,-4.54747351e-13 C6,1.1045695 6.8954305,2 8,2 C9.1045695,2 10,1.1045695 10,-4.54747351e-13 L15,-4.54747351e-13 L15,16 L10,16 C10,14.8954305 9.1045695,14 8,14 C6.8954305,14 6,14.8954305 6,16 L1,16 L1,-4.54747351e-13 L6,-4.54747351e-13 Z M13,2 L11.463,2 L11.4538827,2.01887659 C10.7911749,3.15018972 9.58852206,3.92683775 8.19964034,3.99510469 L8,4 C6.60475432,4 5.37635637,3.28563993 4.66060341,2.20271706 L4.536,2 L3,2 L3,14 L4.535,14 L4.54611726,13.9811234 C5.20882515,12.8498103 6.41147794,12.0731622 7.80035966,12.0048953 L8,12 C9.39524568,12 10.6236436,12.7143601 11.3393966,13.7972829 L11.464,14 L13,14 L13,2 Z" id="Combined-Shape"></path>
            </g>
        </g>
    </g>
</svg>