<?xml version="1.0" encoding="UTF-8"?>
<svg xmlns="http://www.w3.org/2000/svg" xmlns:xlink="http://www.w3.org/1999/xlink" width="60" height="60" viewBox="0 0 60 60">
<path fill-rule="nonzero" fill="rgb(84.705882%, 0%, 15.294118%)" fill-opacity="1" d="M 51.210938 8.785156 L 26.25 26.25 L 8.785156 51.210938 C 14.214844 56.640625 21.714844 60 30 60 C 46.457031 60 59.820312 46.75 59.996094 30.335938 L 59.996094 29.664062 C 59.910156 21.511719 56.566406 14.140625 51.210938 8.785156 Z M 51.210938 8.785156 "/>
<path fill-rule="nonzero" fill="rgb(42.745098%, 64.705882%, 26.666667%)" fill-opacity="1" d="M 51.210938 8.785156 L 8.785156 51.210938 C 3.355469 45.785156 0 38.285156 0 30 C 0 13.433594 13.425781 0.0078125 29.988281 0 C 29.992188 0 29.996094 0 30 0 C 30.003906 0 30.007812 0 30.007812 0 C 38.289062 0.00390625 45.785156 3.359375 51.210938 8.785156 Z M 51.210938 8.785156 "/>
<path fill-rule="nonzero" fill="rgb(100%, 85.490196%, 26.666667%)" fill-opacity="1" d="M 43.613281 3.261719 C 49.253906 6.136719 53.863281 10.746094 56.738281 16.386719 L 16.386719 56.738281 C 10.746094 53.863281 6.136719 49.253906 3.261719 43.613281 Z M 43.613281 3.261719 "/>
</svg>
