<?xml version="1.0" encoding="UTF-8"?>
<svg xmlns="http://www.w3.org/2000/svg" xmlns:xlink="http://www.w3.org/1999/xlink" width="60" height="60" viewBox="0 0 60 60">
<path fill-rule="nonzero" fill="rgb(100%, 0%, 100%)" fill-opacity="1" d="M 60 30 C 60 46.570312 46.570312 60 30 60 C 13.429688 60 0 46.570312 0 30 C 0 13.429688 13.429688 0 30 0 C 46.570312 0 60 13.429688 60 30 Z M 60 30 "/>
<path fill-rule="evenodd" fill="rgb(42.745098%, 64.705882%, 26.666667%)" fill-opacity="1" d="M 29.953125 60 C 15.1875 59.976562 2.921875 49.285156 0.453125 35.222656 L 59.546875 35.222656 C 57.078125 49.285156 44.8125 59.980469 30.042969 60 Z M 29.953125 60 "/>
<path fill-rule="evenodd" fill="rgb(63.529412%, 0%, 11.372549%)" fill-opacity="1" d="M 58.136719 40.433594 C 59.339844 37.183594 60 33.667969 60 30 C 60 13.429688 46.566406 0 30 0 C 13.433594 0 0 13.429688 0 30 C 0 33.667969 0.660156 37.183594 1.863281 40.433594 Z M 58.136719 40.433594 "/>
<path fill-rule="evenodd" fill="rgb(63.529412%, 0%, 11.372549%)" fill-opacity="1" d="M 12 54.003906 C 4.714844 48.527344 0 39.816406 0 30 C 0 20.183594 4.714844 11.472656 12 5.996094 Z M 12 54.003906 "/>
<path fill-rule="evenodd" fill="rgb(98.823529%, 98.823529%, 98.823529%)" fill-opacity="1" d="M 12 54.003906 L 12 54 Z M 12 42 L 9 47.953125 L 12 54 Z M 12 30 L 9 35.953125 L 12 42 Z M 12 18 L 9 23.953125 L 12 30 Z M 12 6 L 12 18 L 9 11.953125 Z M 12 6 L 12 5.996094 Z M 0 30 C 0 26.800781 0.5 23.722656 1.425781 20.832031 L 3 23.953125 Z M 6 30 L 9 23.953125 L 6 18 L 3 23.953125 Z M 6 42 L 9 35.953125 L 6 30 L 3 35.953125 L 0 30 C 0 33.1875 0.496094 36.257812 1.417969 39.140625 L 3 35.953125 Z M 6 42 L 4.269531 45.433594 C 5.304688 47.160156 6.511719 48.769531 7.863281 50.246094 L 9 47.953125 Z M 4.285156 14.542969 C 5.324219 12.820312 6.527344 11.207031 7.882812 9.734375 L 9 11.953125 L 6 18 Z M 4.285156 14.542969 "/>
</svg>
