<?xml version="1.0" encoding="UTF-8"?>
<svg xmlns="http://www.w3.org/2000/svg" xmlns:xlink="http://www.w3.org/1999/xlink" width="40" height="40" viewBox="0 0 40 40">
<path fill-rule="nonzero" fill="rgb(100%, 0%, 100%)" fill-opacity="1" d="M 40 20 C 40 31.046875 31.046875 40 20 40 C 8.953125 40 0 31.046875 0 20 C 0 8.953125 8.953125 0 20 0 C 31.046875 0 40 8.953125 40 20 Z M 40 20 "/>
<path fill-rule="evenodd" fill="rgb(42.745098%, 64.705882%, 26.666667%)" fill-opacity="1" d="M 19.96875 40 C 10.125 39.984375 1.949219 32.859375 0.300781 23.480469 L 39.699219 23.480469 C 38.050781 32.859375 29.875 39.984375 20.03125 40 Z M 19.96875 40 "/>
<path fill-rule="evenodd" fill="rgb(63.529412%, 0%, 11.372549%)" fill-opacity="1" d="M 38.757812 26.957031 C 39.5625 24.789062 40 22.445312 40 20 C 40 8.953125 31.046875 0 20 0 C 8.953125 0 0 8.953125 0 20 C 0 22.445312 0.4375 24.789062 1.242188 26.957031 Z M 38.757812 26.957031 "/>
<path fill-rule="evenodd" fill="rgb(63.529412%, 0%, 11.372549%)" fill-opacity="1" d="M 8 36 C 3.140625 32.351562 0 26.542969 0 20 C 0 13.457031 3.140625 7.648438 8 4 Z M 8 36 "/>
<path fill-rule="evenodd" fill="rgb(98.823529%, 98.823529%, 98.823529%)" fill-opacity="1" d="M 8 36 Z M 8 28 L 6 31.96875 L 8 36 Z M 8 20 L 6 23.96875 L 8 28 Z M 8 12 L 6 15.96875 L 8 20 Z M 8 4 L 8 12 L 6 7.96875 Z M 8 4 Z M 0 20 C 0 17.867188 0.332031 15.8125 0.953125 13.886719 L 2 15.96875 Z M 4 20 L 6 15.96875 L 4 12 L 2 15.96875 Z M 4 28 L 6 23.96875 L 4 20 L 2 23.96875 L 0 20 C 0 22.125 0.332031 24.171875 0.945312 26.09375 L 2 23.96875 Z M 4 28 L 2.847656 30.289062 C 3.539062 31.4375 4.339844 32.511719 5.242188 33.496094 L 6 31.96875 Z M 2.855469 9.695312 C 3.546875 8.546875 4.351562 7.472656 5.253906 6.488281 L 6 7.96875 L 4 12 Z M 2.855469 9.695312 "/>
</svg>
