<?xml version="1.0" encoding="UTF-8"?>
<svg xmlns="http://www.w3.org/2000/svg" xmlns:xlink="http://www.w3.org/1999/xlink" width="20" height="20" viewBox="0 0 20 20">
<path fill-rule="nonzero" fill="rgb(100%, 0%, 100%)" fill-opacity="1" d="M 20 10 C 20 15.523438 15.523438 20 10 20 C 4.476562 20 0 15.523438 0 10 C 0 4.476562 4.476562 0 10 0 C 15.523438 0 20 4.476562 20 10 Z M 20 10 "/>
<path fill-rule="evenodd" fill="rgb(42.745098%, 64.705882%, 26.666667%)" fill-opacity="1" d="M 9.984375 20 C 5.0625 19.992188 0.972656 16.429688 0.152344 11.742188 L 19.847656 11.742188 C 19.027344 16.429688 14.9375 19.992188 10.015625 20 Z M 9.984375 20 "/>
<path fill-rule="evenodd" fill="rgb(63.529412%, 0%, 11.372549%)" fill-opacity="1" d="M 19.378906 13.476562 C 19.78125 12.394531 20 11.222656 20 10 C 20 4.476562 15.523438 0 10 0 C 4.476562 0 0 4.476562 0 10 C 0 11.222656 0.21875 12.394531 0.621094 13.476562 Z M 19.378906 13.476562 "/>
<path fill-rule="evenodd" fill="rgb(63.529412%, 0%, 11.372549%)" fill-opacity="1" d="M 4 18 C 1.570312 16.175781 0 13.273438 0 10 C 0 6.726562 1.570312 3.824219 4 2 Z M 4 18 "/>
<path fill-rule="evenodd" fill="rgb(98.823529%, 98.823529%, 98.823529%)" fill-opacity="1" d="M 4 18 Z M 4 14 L 3 15.984375 L 4 18 Z M 4 10 L 3 11.984375 L 4 14 Z M 4 6 L 3 7.984375 L 4 10 Z M 4 2 L 4 6 L 3 3.984375 Z M 4 2 Z M 0 10 C 0 8.933594 0.167969 7.90625 0.476562 6.945312 L 1 7.984375 Z M 2 10 L 3 7.984375 L 2 6 L 1 7.984375 Z M 2 14 L 3 11.984375 L 2 10 L 1 11.984375 L 0 10 C 0 11.0625 0.164062 12.085938 0.472656 13.046875 L 1 11.984375 Z M 2 14 L 1.421875 15.144531 C 1.769531 15.71875 2.171875 16.257812 2.621094 16.75 L 3 15.984375 Z M 1.429688 4.847656 C 1.773438 4.273438 2.175781 3.734375 2.628906 3.246094 L 3 3.984375 L 2 6 Z M 1.429688 4.847656 "/>
</svg>
