<?xml version="1.0" encoding="UTF-8"?>
<svg xmlns="http://www.w3.org/2000/svg" xmlns:xlink="http://www.w3.org/1999/xlink" width="60" height="60" viewBox="0 0 60 60">
<path fill-rule="nonzero" fill="rgb(0%, 32.156863%, 70.588235%)" fill-opacity="1" d="M 30 0 C 39.816406 0 48.527344 4.714844 54.003906 12 L 59.398438 24 C 59.792969 25.9375 60 27.945312 60 30 C 60 32.054688 59.792969 34.0625 59.398438 36 L 54.003906 48 C 48.527344 55.285156 39.816406 60 30 60 C 20.183594 60 11.472656 55.285156 5.996094 48 L 0.601562 36 C 0.207031 34.0625 0 32.054688 0 30 C 0 27.945312 0.207031 25.9375 0.601562 24 L 5.996094 12 C 11.472656 4.714844 20.183594 0 30 0 Z M 30 0 "/>
<path fill-rule="nonzero" fill="rgb(93.333333%, 93.333333%, 93.333333%)" fill-opacity="1" d="M 54.003906 12 C 56.621094 15.488281 58.5 19.566406 59.398438 24 L 0.601562 24 C 1.5 19.566406 3.378906 15.488281 5.996094 12 Z M 54.003906 12 "/>
<path fill-rule="nonzero" fill="rgb(93.333333%, 93.333333%, 93.333333%)" fill-opacity="1" d="M 54.003906 48 C 56.621094 44.511719 58.5 40.433594 59.398438 36 L 0.601562 36 C 1.5 40.433594 3.378906 44.511719 5.996094 48 Z M 54.003906 48 "/>
<path fill-rule="nonzero" fill="rgb(84.705882%, 0%, 15.294118%)" fill-opacity="1" d="M 0 28.777344 C 0.3125 20.972656 3.605469 13.9375 8.773438 8.773438 L 30 30 L 8.773438 51.222656 C 3.605469 46.0625 0.3125 39.023438 0 31.21875 Z M 0 28.777344 "/>
<path fill-rule="nonzero" fill="rgb(93.333333%, 93.333333%, 93.333333%)" fill-opacity="1" d="M 12.433594 21.335938 L 14.378906 27.324219 L 20.671875 27.324219 L 15.578125 31.023438 L 17.523438 37.007812 L 12.433594 33.308594 L 7.339844 37.007812 L 9.285156 31.023438 L 4.195312 27.324219 L 10.488281 27.324219 Z M 12.433594 21.335938 "/>
</svg>
