<?xml version="1.0" encoding="UTF-8"?>
<svg xmlns="http://www.w3.org/2000/svg" xmlns:xlink="http://www.w3.org/1999/xlink" width="20" height="20" viewBox="0 0 20 20">
<path fill-rule="nonzero" fill="rgb(0%, 32.156863%, 70.588235%)" fill-opacity="1" d="M 10 0 C 13.273438 0 16.175781 1.570312 18 4 L 19.800781 8 C 19.929688 8.644531 20 9.316406 20 10 C 20 10.683594 19.929688 11.355469 19.800781 12 L 18 16 C 16.175781 18.429688 13.273438 20 10 20 C 6.726562 20 3.824219 18.429688 2 16 L 0.199219 12 C 0.0703125 11.355469 0 10.683594 0 10 C 0 9.316406 0.0703125 8.644531 0.199219 8 L 2 4 C 3.824219 1.570312 6.726562 0 10 0 Z M 10 0 "/>
<path fill-rule="nonzero" fill="rgb(93.333333%, 93.333333%, 93.333333%)" fill-opacity="1" d="M 18 4 C 18.875 5.164062 19.5 6.523438 19.800781 8 L 0.199219 8 C 0.5 6.523438 1.125 5.164062 2 4 Z M 18 4 "/>
<path fill-rule="nonzero" fill="rgb(93.333333%, 93.333333%, 93.333333%)" fill-opacity="1" d="M 18 16 C 18.875 14.835938 19.5 13.476562 19.800781 12 L 0.199219 12 C 0.5 13.476562 1.125 14.835938 2 16 Z M 18 16 "/>
<path fill-rule="nonzero" fill="rgb(84.705882%, 0%, 15.294118%)" fill-opacity="1" d="M 0 9.59375 C 0.105469 6.992188 1.203125 4.644531 2.925781 2.925781 L 10 10 L 2.925781 17.074219 C 1.203125 15.355469 0.105469 13.007812 0 10.40625 Z M 0 9.59375 "/>
<path fill-rule="nonzero" fill="rgb(93.333333%, 93.333333%, 93.333333%)" fill-opacity="1" d="M 4.144531 7.113281 L 4.792969 9.109375 L 6.890625 9.109375 L 5.191406 10.339844 L 5.839844 12.335938 L 4.144531 11.101562 L 2.445312 12.335938 L 3.09375 10.339844 L 1.398438 9.109375 L 3.496094 9.109375 Z M 4.144531 7.113281 "/>
</svg>
