<?xml version="1.0" encoding="UTF-8"?>
<svg xmlns="http://www.w3.org/2000/svg" xmlns:xlink="http://www.w3.org/1999/xlink" width="40" height="40" viewBox="0 0 40 40">
<path fill-rule="nonzero" fill="rgb(0%, 32.156863%, 70.588235%)" fill-opacity="1" d="M 20 0 C 26.542969 0 32.351562 3.140625 36 8 L 39.601562 16 C 39.863281 17.292969 40 18.628906 40 20 C 40 21.371094 39.863281 22.707031 39.601562 24 L 36 32 C 32.351562 36.859375 26.542969 40 20 40 C 13.457031 40 7.648438 36.859375 4 32 L 0.398438 24 C 0.136719 22.707031 0 21.371094 0 20 C 0 18.628906 0.136719 17.292969 0.398438 16 L 4 8 C 7.648438 3.140625 13.457031 0 20 0 Z M 20 0 "/>
<path fill-rule="nonzero" fill="rgb(93.333333%, 93.333333%, 93.333333%)" fill-opacity="1" d="M 36 8 C 37.75 10.324219 39 13.042969 39.601562 16 L 0.398438 16 C 1 13.042969 2.25 10.324219 4 8 Z M 36 8 "/>
<path fill-rule="nonzero" fill="rgb(93.333333%, 93.333333%, 93.333333%)" fill-opacity="1" d="M 36 32 C 37.75 29.675781 39 26.957031 39.601562 24 L 0.398438 24 C 1 26.957031 2.25 29.675781 4 32 Z M 36 32 "/>
<path fill-rule="nonzero" fill="rgb(84.705882%, 0%, 15.294118%)" fill-opacity="1" d="M 0 19.1875 C 0.207031 13.984375 2.40625 9.289062 5.851562 5.847656 L 20 20 L 5.851562 34.148438 C 2.40625 30.707031 0.207031 26.015625 0 20.8125 L 0 19.183594 Z M 0 19.1875 "/>
<path fill-rule="nonzero" fill="rgb(93.333333%, 93.333333%, 93.333333%)" fill-opacity="1" d="M 8.289062 14.226562 L 9.585938 18.214844 L 13.78125 18.214844 L 10.386719 20.679688 L 11.683594 24.671875 L 8.289062 22.207031 L 4.894531 24.671875 L 6.191406 20.679688 L 2.796875 18.214844 L 6.992188 18.214844 Z M 8.289062 14.226562 "/>
</svg>
