<?xml version="1.0" encoding="UTF-8"?>
<svg xmlns="http://www.w3.org/2000/svg" xmlns:xlink="http://www.w3.org/1999/xlink" width="40" height="40" viewBox="0 0 40 40">
<path fill-rule="nonzero" fill="rgb(93.333333%, 93.333333%, 93.333333%)" fill-opacity="1" d="M 40 20 C 40 31.046875 31.046875 40 20 40 C 8.953125 40 0 31.046875 0 20 C 0 8.953125 8.953125 0 20 0 C 31.046875 0 40 8.953125 40 20 Z M 40 20 "/>
<path fill-rule="nonzero" fill="rgb(84.705882%, 0%, 15.294118%)" fill-opacity="1" d="M 22.5 0.15625 C 21.695312 0.0546875 20.871094 0 20.039062 0 L 19.960938 0 C 19.128906 0 18.304688 0.0546875 17.5 0.15625 L 17.5 17.5 L 0.15625 17.5 C 0.0507812 18.320312 0 19.152344 0 20 C 0 20.847656 0.0507812 21.679688 0.15625 22.5 L 17.5 22.5 L 17.5 39.84375 C 18.320312 39.949219 19.152344 40 20 40 C 20.847656 40 21.679688 39.949219 22.5 39.84375 L 22.5 22.5 L 39.84375 22.5 C 39.949219 21.679688 40 20.847656 40 20 C 40 19.152344 39.949219 18.320312 39.84375 17.5 L 22.5 17.5 Z M 22.5 0.15625 "/>
<path fill-rule="nonzero" fill="rgb(100%, 85.490196%, 26.666667%)" fill-opacity="1" d="M 25.652344 20.871094 L 26.957031 21.738281 L 26.957031 18.261719 L 25.652344 19.128906 L 20.871094 19.128906 L 20.871094 14.347656 L 21.738281 13.042969 L 18.261719 13.042969 L 19.128906 14.347656 L 19.128906 19.128906 L 14.347656 19.128906 L 13.042969 18.261719 L 13.042969 21.738281 L 14.347656 20.871094 L 19.128906 20.871094 L 19.128906 25.652344 L 18.261719 26.957031 L 21.738281 26.957031 L 20.871094 25.652344 L 20.871094 20.871094 Z M 25.652344 20.871094 "/>
</svg>
