<?xml version="1.0" encoding="UTF-8"?>
<svg xmlns="http://www.w3.org/2000/svg" xmlns:xlink="http://www.w3.org/1999/xlink" width="20" height="20" viewBox="0 0 20 20">
<path fill-rule="nonzero" fill="rgb(93.333333%, 93.333333%, 93.333333%)" fill-opacity="1" d="M 20 10 C 20 15.523438 15.523438 20 10 20 C 4.476562 20 0 15.523438 0 10 C 0 4.476562 4.476562 0 10 0 C 15.523438 0 20 4.476562 20 10 Z M 20 10 "/>
<path fill-rule="nonzero" fill="rgb(84.705882%, 0%, 15.294118%)" fill-opacity="1" d="M 11.25 0.078125 C 10.847656 0.0273438 10.4375 0 10.019531 0 L 9.980469 0 C 9.5625 0 9.152344 0.0273438 8.75 0.078125 L 8.75 8.75 L 0.078125 8.75 C 0.0273438 9.160156 0 9.578125 0 10 C 0 10.421875 0.0273438 10.839844 0.078125 11.25 L 8.75 11.25 L 8.75 19.921875 C 9.160156 19.972656 9.578125 20 10 20 C 10.421875 20 10.839844 19.972656 11.25 19.921875 L 11.25 11.25 L 19.921875 11.25 C 19.972656 10.839844 20 10.421875 20 10 C 20 9.578125 19.972656 9.160156 19.921875 8.75 L 11.25 8.75 Z M 11.25 0.078125 "/>
<path fill-rule="nonzero" fill="rgb(100%, 85.490196%, 26.666667%)" fill-opacity="1" d="M 12.828125 10.433594 L 13.476562 10.871094 L 13.476562 9.128906 L 12.828125 9.566406 L 10.433594 9.566406 L 10.433594 7.175781 L 10.871094 6.523438 L 9.128906 6.523438 L 9.566406 7.175781 L 9.566406 9.566406 L 7.175781 9.566406 L 6.523438 9.128906 L 6.523438 10.871094 L 7.175781 10.433594 L 9.566406 10.433594 L 9.566406 12.824219 L 9.128906 13.476562 L 10.871094 13.476562 L 10.433594 12.824219 L 10.433594 10.433594 Z M 12.828125 10.433594 "/>
</svg>
