<?xml version="1.0" encoding="UTF-8"?>
<svg xmlns="http://www.w3.org/2000/svg" xmlns:xlink="http://www.w3.org/1999/xlink" width="40" height="40" viewBox="0 0 40 40">
<path fill-rule="nonzero" fill="rgb(93.333333%, 93.333333%, 93.333333%)" fill-opacity="1" d="M 40 20 C 40 31.046875 31.046875 40 20 40 C 8.953125 40 0 31.046875 0 20 C 0 8.953125 8.953125 0 20 0 C 31.046875 0 40 8.953125 40 20 Z M 40 20 "/>
<path fill-rule="nonzero" fill="rgb(84.705882%, 0%, 15.294118%)" fill-opacity="1" d="M 35.894531 7.855469 L 23.75 20 L 35.894531 32.144531 C 34.8125 33.550781 33.550781 34.8125 32.144531 35.894531 L 20 23.75 L 7.855469 35.894531 C 6.449219 34.8125 5.1875 33.550781 4.105469 32.144531 L 16.25 20 L 4.105469 7.855469 C 5.1875 6.449219 6.449219 5.1875 7.855469 4.105469 L 20 16.25 L 32.144531 4.105469 C 33.550781 5.1875 34.8125 6.449219 35.894531 7.855469 Z M 35.894531 7.855469 "/>
<path fill-rule="nonzero" fill="rgb(100%, 77.647059%, 20.784314%)" fill-opacity="1" d="M 16.523438 6.085938 L 20 6.957031 L 23.476562 6.085938 L 23.476562 3.128906 L 22.085938 3.824219 L 20 1.738281 L 17.914062 3.824219 L 16.523438 3.128906 Z M 16.523438 6.085938 "/>
<path fill-rule="nonzero" fill="rgb(84.705882%, 0%, 15.294118%)" fill-opacity="1" d="M 16.523438 6.085938 L 16.523438 8.261719 C 16.523438 10.921875 20 11.738281 20 11.738281 C 20 11.738281 23.476562 10.921875 23.476562 8.261719 L 23.476562 6.085938 Z M 16.523438 6.085938 "/>
</svg>
