<?xml version="1.0" encoding="UTF-8"?>
<svg xmlns="http://www.w3.org/2000/svg" xmlns:xlink="http://www.w3.org/1999/xlink" width="60" height="60" viewBox="0 0 60 60">
<path fill-rule="nonzero" fill="rgb(93.333333%, 93.333333%, 93.333333%)" fill-opacity="1" d="M 60 30 C 60 46.570312 46.570312 60 30 60 C 13.429688 60 0 46.570312 0 30 C 0 13.429688 13.429688 0 30 0 C 46.570312 0 60 13.429688 60 30 Z M 60 30 "/>
<path fill-rule="nonzero" fill="rgb(84.705882%, 0%, 15.294118%)" fill-opacity="1" d="M 53.839844 11.785156 L 35.625 30 L 53.839844 48.214844 C 52.222656 50.328125 50.328125 52.222656 48.214844 53.839844 L 30 35.625 L 11.785156 53.839844 C 9.671875 52.222656 7.777344 50.328125 6.160156 48.214844 L 24.375 30 L 6.160156 11.785156 C 7.777344 9.671875 9.671875 7.777344 11.785156 6.160156 L 30 24.375 L 48.214844 6.160156 C 50.328125 7.777344 52.222656 9.671875 53.839844 11.785156 Z M 53.839844 11.785156 "/>
<path fill-rule="nonzero" fill="rgb(100%, 77.647059%, 20.784314%)" fill-opacity="1" d="M 24.78125 9.128906 L 30 10.433594 L 35.21875 9.128906 L 35.21875 4.695312 L 33.128906 5.738281 L 30 2.609375 L 26.871094 5.738281 L 24.78125 4.695312 Z M 24.78125 9.128906 "/>
<path fill-rule="nonzero" fill="rgb(84.705882%, 0%, 15.294118%)" fill-opacity="1" d="M 24.78125 9.128906 L 24.78125 12.390625 C 24.78125 16.386719 30 17.609375 30 17.609375 C 30 17.609375 35.21875 16.386719 35.21875 12.390625 L 35.21875 9.128906 Z M 24.78125 9.128906 "/>
</svg>
