<?xml version="1.0" encoding="UTF-8"?>
<svg xmlns="http://www.w3.org/2000/svg" xmlns:xlink="http://www.w3.org/1999/xlink" width="20" height="20" viewBox="0 0 20 20">
<path fill-rule="nonzero" fill="rgb(93.333333%, 93.333333%, 93.333333%)" fill-opacity="1" d="M 20 10 C 20 15.523438 15.523438 20 10 20 C 4.476562 20 0 15.523438 0 10 C 0 4.476562 4.476562 0 10 0 C 15.523438 0 20 4.476562 20 10 Z M 20 10 "/>
<path fill-rule="nonzero" fill="rgb(84.705882%, 0%, 15.294118%)" fill-opacity="1" d="M 17.945312 3.929688 L 11.875 10 L 17.945312 16.070312 C 17.40625 16.777344 16.777344 17.40625 16.070312 17.945312 L 10 11.875 L 3.929688 17.945312 C 3.222656 17.40625 2.59375 16.777344 2.054688 16.070312 L 8.125 10 L 2.054688 3.929688 C 2.59375 3.222656 3.222656 2.59375 3.929688 2.054688 L 10 8.125 L 16.070312 2.054688 C 16.777344 2.59375 17.40625 3.222656 17.945312 3.929688 Z M 17.945312 3.929688 "/>
<path fill-rule="nonzero" fill="rgb(100%, 77.647059%, 20.784314%)" fill-opacity="1" d="M 8.261719 3.042969 L 10 3.476562 L 11.738281 3.042969 L 11.738281 1.566406 L 11.042969 1.914062 L 10 0.871094 L 8.957031 1.914062 L 8.261719 1.566406 Z M 8.261719 3.042969 "/>
<path fill-rule="nonzero" fill="rgb(84.705882%, 0%, 15.294118%)" fill-opacity="1" d="M 8.261719 3.042969 L 8.261719 4.128906 C 8.261719 5.460938 10 5.871094 10 5.871094 C 10 5.871094 11.738281 5.460938 11.738281 4.128906 L 11.738281 3.042969 Z M 8.261719 3.042969 "/>
</svg>
