<svg xmlns="http://www.w3.org/2000/svg" width="56" height="56" viewBox="0 0 56 56">
    <path fill="#FFF" fill-rule="evenodd" d="M28 56C12.536 56 0 43.464 0 28S12.536 0 28 0s28 12.536 28 28-12.536 28-28 28zm-.052-36.526l-1.391-1.438-.554-.573c-3.22-3.327-8.39-3.276-11.546.117l-.067.073c-3.162 3.4-3.187 8.927-.07 12.362L28.033 45l13.62-14.985c3.149-3.435 3.122-8.992-.045-12.399-3.174-3.413-8.382-3.503-11.66-.174l-.63.64-1.37 1.392zm12.232 9.19c2.441-2.664 2.424-7.04-.036-9.686-2.403-2.584-6.296-2.645-8.77-.133l-3.438 3.492-3.37-3.483c-2.424-2.504-6.27-2.465-8.644.088l-.068.073c-2.451 2.636-2.475 6.988-.06 9.65L28.03 42.032l12.15-13.369z"/>
</svg>
