<?xml version="1.0" encoding="UTF-8"?>
<svg xmlns="http://www.w3.org/2000/svg" xmlns:xlink="http://www.w3.org/1999/xlink" width="20" height="20" viewBox="0 0 20 20">
<path fill-rule="nonzero" fill="rgb(93.333333%, 93.333333%, 93.333333%)" fill-opacity="1" d="M 18.835938 14.6875 C 19.578125 13.289062 20 11.695312 20 10 C 20 8.304688 19.578125 6.710938 18.835938 5.3125 L 1.164062 5.3125 C 0.421875 6.710938 0 8.304688 0 10 C 0 11.695312 0.421875 13.289062 1.164062 14.6875 Z M 18.835938 14.6875 "/>
<path fill-rule="nonzero" fill="rgb(42.745098%, 64.705882%, 26.666667%)" fill-opacity="1" d="M 19.394531 13.4375 C 17.992188 17.265625 14.316406 20 10 20 C 5.683594 20 2.007812 17.265625 0.605469 13.4375 Z M 19.394531 13.4375 "/>
<path fill-rule="nonzero" fill="rgb(20%, 20%, 20%)" fill-opacity="1" d="M 19.394531 6.5625 L 0.605469 6.5625 C 2.007812 2.734375 5.683594 0 10 0 C 14.316406 0 17.992188 2.734375 19.394531 6.5625 Z M 19.394531 6.5625 "/>
<path fill-rule="nonzero" fill="rgb(84.705882%, 0%, 15.294118%)" fill-opacity="1" d="M 0 9.59375 C 0.105469 6.992188 1.203125 4.644531 2.925781 2.925781 L 10 10 L 2.925781 17.074219 C 1.203125 15.355469 0.105469 13.007812 0 10.40625 Z M 0 9.59375 "/>
<path fill-rule="nonzero" fill="rgb(93.333333%, 93.333333%, 93.333333%)" fill-opacity="1" d="M 3.96875 7.828125 L 4.515625 8.972656 L 5.757812 8.6875 L 5.203125 9.832031 L 6.199219 10.621094 L 4.957031 10.902344 L 4.960938 12.175781 L 3.96875 11.378906 L 2.976562 12.175781 L 2.980469 10.902344 L 1.738281 10.621094 L 2.734375 9.832031 L 2.179688 8.6875 L 3.421875 8.972656 Z M 3.96875 7.828125 "/>
</svg>
