<?xml version="1.0" encoding="UTF-8"?>
<svg xmlns="http://www.w3.org/2000/svg" xmlns:xlink="http://www.w3.org/1999/xlink" width="20" height="20" viewBox="0 0 20 20">
<path fill-rule="nonzero" fill="rgb(0%, 13.333333%, 40%)" fill-opacity="1" d="M 20 10 C 20 15.523438 15.523438 20 10 20 C 4.476562 20 0 15.523438 0 10 L 10 0 C 15.523438 0 20 4.476562 20 10 Z M 20 10 "/>
<path fill-rule="nonzero" fill="rgb(0%, 13.333333%, 40%)" fill-opacity="1" d="M 10 0 L 10 10 L 0 10 C 0 4.476562 4.476562 0 10 0 Z M 10 0 "/>
<path fill-rule="nonzero" fill="rgb(93.333333%, 93.333333%, 93.333333%)" fill-opacity="1" d="M 8.5 10 L 10 10 L 10 8.5 L 5.496094 3.992188 L 10 3.992188 L 10 0 C 4.476562 0 0 4.476562 0 10 L 3.992188 10 L 3.992188 5.496094 Z M 8.5 10 "/>
<path fill-rule="nonzero" fill="rgb(84.705882%, 0%, 15.294118%)" fill-opacity="1" d="M 10 2.992188 L 10 0.992188 L 5.652344 0.992188 C 3.621094 1.972656 1.972656 3.621094 0.992188 5.652344 L 0.992188 10 L 2.992188 10 L 2.992188 2.992188 Z M 10 2.992188 "/>
<path fill-rule="nonzero" fill="rgb(84.705882%, 0%, 15.294118%)" fill-opacity="1" d="M 10 9 L 10 10 L 3.992188 3.992188 L 4.996094 3.992188 Z M 10 9 "/>
<path fill-rule="nonzero" fill="rgb(95.294118%, 95.294118%, 95.294118%)" fill-opacity="1" d="M 17.5625 12.332031 C 17.851562 11.9375 18.042969 11.453125 18.042969 10.871094 L 18.042969 6.523438 C 17.679688 6.792969 17.230469 6.957031 16.738281 6.957031 C 16.027344 6.957031 15.398438 6.613281 15 6.085938 C 14.605469 6.613281 13.972656 6.957031 13.261719 6.957031 C 12.773438 6.957031 12.320312 6.792969 11.957031 6.523438 L 11.957031 10.871094 C 11.957031 11.453125 12.148438 11.9375 12.4375 12.332031 Z M 17.5625 12.332031 "/>
<path fill-rule="nonzero" fill="rgb(100%, 59.607843%, 6.666667%)" fill-opacity="1" d="M 16.660156 10.0625 C 16.796875 9.726562 16.90625 9.230469 16.90625 8.984375 C 16.90625 8.589844 16.390625 8.269531 16.390625 8.269531 C 16.390625 8.269531 15.875 8.589844 15.875 8.984375 C 15.875 9.230469 15.984375 9.726562 16.121094 10.0625 L 15.824219 10.734375 C 16 10.804688 16.191406 10.84375 16.390625 10.84375 C 16.589844 10.84375 16.78125 10.804688 16.957031 10.734375 Z M 16.660156 10.0625 "/>
<path fill-rule="nonzero" fill="rgb(100%, 59.607843%, 6.666667%)" fill-opacity="1" d="M 14.648438 7.890625 C 14.285156 7.941406 13.804688 8.09375 13.59375 8.214844 C 13.25 8.414062 13.230469 9.019531 13.230469 9.019531 C 13.230469 9.019531 13.765625 9.304688 14.105469 9.109375 C 14.320312 8.984375 14.695312 8.644531 14.917969 8.355469 L 15.648438 8.277344 C 15.621094 8.089844 15.558594 7.90625 15.460938 7.734375 C 15.359375 7.558594 15.230469 7.414062 15.082031 7.296875 Z M 14.648438 7.890625 "/>
<path fill-rule="nonzero" fill="rgb(100%, 59.607843%, 6.666667%)" fill-opacity="1" d="M 13.773438 10.71875 C 13.996094 11.007812 14.371094 11.347656 14.582031 11.46875 C 14.925781 11.667969 15.460938 11.382812 15.460938 11.382812 C 15.460938 11.382812 15.4375 10.777344 15.097656 10.578125 C 14.882812 10.457031 14.402344 10.304688 14.042969 10.253906 L 13.609375 9.660156 C 13.460938 9.777344 13.332031 9.921875 13.230469 10.097656 C 13.128906 10.269531 13.070312 10.453125 13.042969 10.640625 Z M 13.773438 10.71875 "/>
<path fill-rule="nonzero" fill="rgb(20%, 54.117647%, 95.294118%)" fill-opacity="1" d="M 12.328125 12.175781 C 13.140625 13.476562 15 13.914062 15 13.914062 C 15 13.914062 16.859375 13.476562 17.671875 12.175781 Z M 12.328125 12.175781 "/>
</svg>
