<?xml version="1.0" encoding="UTF-8"?>
<svg xmlns="http://www.w3.org/2000/svg" xmlns:xlink="http://www.w3.org/1999/xlink" width="60" height="60" viewBox="0 0 60 60">
<path fill-rule="nonzero" fill="rgb(0%, 13.333333%, 40%)" fill-opacity="1" d="M 60 30 C 60 46.566406 46.566406 60 30 60 C 13.433594 60 0 46.566406 0 30 L 30 0 C 46.566406 0 60 13.433594 60 30 Z M 60 30 "/>
<path fill-rule="nonzero" fill="rgb(0%, 13.333333%, 40%)" fill-opacity="1" d="M 30 0 L 30 30 L 0 30 C 0 13.429688 13.429688 0 30 0 Z M 30 0 "/>
<path fill-rule="nonzero" fill="rgb(93.333333%, 93.333333%, 93.333333%)" fill-opacity="1" d="M 25.496094 30 L 30 30 L 30 25.496094 L 16.488281 11.984375 L 30 11.984375 L 30 0 C 13.429688 0 0 13.429688 0 30 L 11.984375 30 L 11.984375 16.488281 Z M 25.496094 30 "/>
<path fill-rule="nonzero" fill="rgb(84.705882%, 0%, 15.294118%)" fill-opacity="1" d="M 30 8.980469 L 30 2.972656 L 16.960938 2.972656 C 10.867188 5.917969 5.917969 10.867188 2.972656 16.960938 L 2.972656 30 L 8.980469 30 L 8.980469 8.980469 Z M 30 8.980469 "/>
<path fill-rule="nonzero" fill="rgb(84.705882%, 0%, 15.294118%)" fill-opacity="1" d="M 30 26.996094 L 30 30 L 11.984375 11.984375 L 14.984375 11.984375 Z M 30 26.996094 "/>
<path fill-rule="nonzero" fill="rgb(95.294118%, 95.294118%, 95.294118%)" fill-opacity="1" d="M 52.695312 37 C 53.554688 35.8125 54.132812 34.363281 54.132812 32.609375 L 54.132812 19.566406 C 53.042969 20.382812 51.6875 20.871094 50.21875 20.871094 C 48.085938 20.871094 46.191406 19.84375 45 18.261719 C 43.8125 19.84375 41.917969 20.871094 39.785156 20.871094 C 38.316406 20.871094 36.960938 20.382812 35.871094 19.566406 L 35.871094 32.609375 C 35.871094 34.363281 36.445312 35.8125 37.308594 37 Z M 52.695312 37 "/>
<path fill-rule="nonzero" fill="rgb(100%, 59.607843%, 6.666667%)" fill-opacity="1" d="M 49.980469 30.1875 C 50.394531 29.175781 50.71875 27.695312 50.71875 26.957031 C 50.71875 25.773438 49.171875 24.8125 49.171875 24.8125 C 49.171875 24.8125 47.628906 25.773438 47.628906 26.957031 C 47.628906 27.695312 47.953125 29.175781 48.367188 30.1875 L 47.476562 32.199219 C 48 32.414062 48.574219 32.53125 49.175781 32.53125 C 49.773438 32.53125 50.347656 32.414062 50.871094 32.199219 Z M 49.980469 30.1875 "/>
<path fill-rule="nonzero" fill="rgb(100%, 59.607843%, 6.666667%)" fill-opacity="1" d="M 43.945312 23.671875 C 42.859375 23.820312 41.417969 24.28125 40.777344 24.648438 C 39.753906 25.242188 39.691406 27.058594 39.691406 27.058594 C 39.691406 27.058594 41.296875 27.914062 42.320312 27.324219 C 42.960938 26.957031 44.082031 25.933594 44.75 25.070312 L 46.941406 24.835938 C 46.863281 24.273438 46.679688 23.71875 46.378906 23.199219 C 46.078125 22.679688 45.6875 22.242188 45.242188 21.894531 Z M 43.945312 23.671875 "/>
<path fill-rule="nonzero" fill="rgb(100%, 59.607843%, 6.666667%)" fill-opacity="1" d="M 41.320312 32.15625 C 41.988281 33.023438 43.109375 34.042969 43.75 34.410156 C 44.773438 35.003906 46.378906 34.148438 46.378906 34.148438 C 46.378906 34.148438 46.316406 32.332031 45.292969 31.738281 C 44.652344 31.371094 43.210938 30.910156 42.125 30.761719 L 40.828125 28.984375 C 40.382812 29.332031 39.992188 29.769531 39.691406 30.289062 C 39.390625 30.808594 39.207031 31.363281 39.128906 31.921875 Z M 41.320312 32.15625 "/>
<path fill-rule="nonzero" fill="rgb(20%, 54.117647%, 95.294118%)" fill-opacity="1" d="M 36.988281 36.523438 C 39.421875 40.433594 45 41.742188 45 41.742188 C 45 41.742188 50.582031 40.433594 53.015625 36.523438 Z M 36.988281 36.523438 "/>
</svg>
