<?xml version="1.0" encoding="UTF-8"?>
<svg xmlns="http://www.w3.org/2000/svg" xmlns:xlink="http://www.w3.org/1999/xlink" width="40" height="40" viewBox="0 0 40 40">
<path fill-rule="nonzero" fill="rgb(0%, 13.333333%, 40%)" fill-opacity="1" d="M 40 20 C 40 31.046875 31.046875 40 20 40 C 8.953125 40 0 31.046875 0 20 L 20 0 C 31.046875 0 40 8.953125 40 20 Z M 40 20 "/>
<path fill-rule="nonzero" fill="rgb(0%, 13.333333%, 40%)" fill-opacity="1" d="M 20 0 L 20 20 L 0 20 C 0 8.953125 8.953125 0 20 0 Z M 20 0 "/>
<path fill-rule="nonzero" fill="rgb(93.333333%, 93.333333%, 93.333333%)" fill-opacity="1" d="M 16.996094 20 L 20 20 L 20 16.996094 L 10.992188 7.988281 L 20 7.988281 L 20 0 C 8.953125 0 0 8.953125 0 20 L 7.988281 20 L 7.988281 10.992188 Z M 16.996094 20 "/>
<path fill-rule="nonzero" fill="rgb(84.705882%, 0%, 15.294118%)" fill-opacity="1" d="M 20 5.984375 L 20 1.984375 L 11.308594 1.984375 C 7.246094 3.945312 3.945312 7.246094 1.984375 11.308594 L 1.984375 20 L 5.984375 20 L 5.984375 5.984375 Z M 20 5.984375 "/>
<path fill-rule="nonzero" fill="rgb(84.705882%, 0%, 15.294118%)" fill-opacity="1" d="M 20 18 L 20 20 L 7.988281 7.988281 L 9.992188 7.988281 Z M 20 18 "/>
<path fill-rule="nonzero" fill="rgb(95.294118%, 95.294118%, 95.294118%)" fill-opacity="1" d="M 35.128906 24.667969 C 35.703125 23.875 36.089844 22.910156 36.089844 21.738281 L 36.089844 13.042969 C 35.363281 13.589844 34.457031 13.914062 33.480469 13.914062 C 32.058594 13.914062 30.792969 13.230469 30 12.171875 C 29.207031 13.230469 27.945312 13.914062 26.523438 13.914062 C 25.542969 13.914062 24.640625 13.589844 23.914062 13.042969 L 23.914062 21.738281 C 23.914062 22.910156 24.296875 23.875 24.871094 24.667969 Z M 35.128906 24.667969 "/>
<path fill-rule="nonzero" fill="rgb(100%, 59.607843%, 6.666667%)" fill-opacity="1" d="M 33.320312 20.125 C 33.597656 19.449219 33.8125 18.460938 33.8125 17.972656 C 33.8125 17.183594 32.78125 16.542969 32.78125 16.542969 C 32.78125 16.542969 31.753906 17.183594 31.753906 17.972656 C 31.753906 18.464844 31.96875 19.449219 32.246094 20.125 L 31.652344 21.46875 C 32 21.609375 32.382812 21.6875 32.78125 21.6875 C 33.183594 21.6875 33.566406 21.609375 33.914062 21.46875 Z M 33.320312 20.125 "/>
<path fill-rule="nonzero" fill="rgb(100%, 59.607843%, 6.666667%)" fill-opacity="1" d="M 29.296875 15.78125 C 28.574219 15.878906 27.609375 16.1875 27.183594 16.433594 C 26.5 16.828125 26.460938 18.039062 26.460938 18.039062 C 26.460938 18.039062 27.53125 18.609375 28.214844 18.214844 C 28.640625 17.96875 29.386719 17.289062 29.832031 16.710938 L 31.292969 16.554688 C 31.242188 16.183594 31.117188 15.8125 30.917969 15.464844 C 30.71875 15.121094 30.460938 14.828125 30.160156 14.597656 Z M 29.296875 15.78125 "/>
<path fill-rule="nonzero" fill="rgb(100%, 59.607843%, 6.666667%)" fill-opacity="1" d="M 27.546875 21.4375 C 27.992188 22.015625 28.738281 22.695312 29.164062 22.941406 C 29.847656 23.335938 30.917969 22.765625 30.917969 22.765625 C 30.917969 22.765625 30.878906 21.554688 30.195312 21.160156 C 29.769531 20.914062 28.804688 20.605469 28.082031 20.507812 L 27.21875 19.324219 C 26.921875 19.554688 26.660156 19.84375 26.460938 20.191406 C 26.261719 20.539062 26.140625 20.910156 26.085938 21.28125 Z M 27.546875 21.4375 "/>
<path fill-rule="nonzero" fill="rgb(20%, 54.117647%, 95.294118%)" fill-opacity="1" d="M 24.65625 24.347656 C 26.28125 26.953125 30 27.828125 30 27.828125 C 30 27.828125 33.71875 26.953125 35.34375 24.347656 Z M 24.65625 24.347656 "/>
</svg>
