<svg xmlns="http://www.w3.org/2000/svg" width="56" height="56" viewBox="0 0 56 56">
    <path fill="#FFF" fill-rule="nonzero" d="M40.18 28.663c2.441-2.663 2.424-7.04-.036-9.685-2.403-2.584-6.296-2.645-8.77-.133l-3.438 3.492-3.37-3.483c-2.424-2.504-6.27-2.465-8.644.088l-.068.073c-2.451 2.636-2.475 6.988-.06 9.65L28.03 42.032l12.15-13.369zm-12.232-9.19l1.37-1.39.63-.641c3.279-3.329 8.487-3.239 11.66.174 3.168 3.407 3.195 8.964.046 12.399L28.034 45 14.32 30.015c-3.116-3.435-3.091-8.962.07-12.362l.068-.073c3.155-3.393 8.325-3.444 11.546-.117l.554.573 1.391 1.438z"/>
</svg>
