<?xml version="1.0" encoding="UTF-8"?>
<svg xmlns="http://www.w3.org/2000/svg" xmlns:xlink="http://www.w3.org/1999/xlink" width="40" height="40" viewBox="0 0 40 40">
<path fill-rule="nonzero" fill="rgb(0%, 13.333333%, 40%)" fill-opacity="1" d="M 40 20 C 40 31.046875 31.046875 40 20 40 C 8.953125 40 0 31.046875 0 20 L 20 0 C 31.046875 0 40 8.953125 40 20 Z M 40 20 "/>
<path fill-rule="nonzero" fill="rgb(0%, 13.333333%, 40%)" fill-opacity="1" d="M 20 0 L 20 20 L 0 20 C 0 8.953125 8.953125 0 20 0 Z M 20 0 "/>
<path fill-rule="nonzero" fill="rgb(93.333333%, 93.333333%, 93.333333%)" fill-opacity="1" d="M 16.996094 20 L 20 20 L 20 16.996094 L 10.992188 7.988281 L 20 7.988281 L 20 0 C 8.953125 0 0 8.953125 0 20 L 7.988281 20 L 7.988281 10.992188 Z M 16.996094 20 "/>
<path fill-rule="nonzero" fill="rgb(84.705882%, 0%, 15.294118%)" fill-opacity="1" d="M 20 5.984375 L 20 1.984375 L 11.308594 1.984375 C 7.246094 3.945312 3.945312 7.246094 1.984375 11.308594 L 1.984375 20 L 5.984375 20 L 5.984375 5.984375 Z M 20 5.984375 "/>
<path fill-rule="nonzero" fill="rgb(84.705882%, 0%, 15.294118%)" fill-opacity="1" d="M 20 18 L 20 20 L 7.988281 7.988281 L 9.992188 7.988281 Z M 20 18 "/>
<path fill-rule="nonzero" fill="rgb(20%, 54.117647%, 95.294118%)" fill-opacity="1" d="M 23.914062 11.304688 L 23.914062 20.871094 C 23.914062 25.527344 30 26.957031 30 26.957031 C 30 26.957031 36.089844 25.527344 36.089844 20.871094 L 36.089844 11.304688 Z M 23.914062 11.304688 "/>
<path fill-rule="nonzero" fill="rgb(95.294118%, 95.294118%, 95.294118%)" fill-opacity="1" d="M 30 18.4375 C 28.480469 18.4375 28.480469 19.832031 26.957031 19.832031 C 25.433594 19.832031 25.433594 18.4375 23.914062 18.4375 L 23.914062 20.875 C 25.433594 20.875 25.433594 22.265625 26.957031 22.265625 C 28.480469 22.265625 28.480469 20.875 30 20.875 C 31.523438 20.875 31.523438 22.265625 33.042969 22.265625 C 34.566406 22.265625 34.566406 20.875 36.089844 20.875 L 36.089844 18.4375 C 34.566406 18.4375 34.566406 19.832031 33.042969 19.832031 C 31.523438 19.832031 31.523438 18.4375 30 18.4375 Z M 30 18.4375 "/>
<path fill-rule="nonzero" fill="rgb(95.294118%, 95.294118%, 95.294118%)" fill-opacity="1" d="M 30 13.566406 C 28.480469 13.566406 28.480469 14.957031 26.957031 14.957031 C 25.433594 14.957031 25.433594 13.566406 23.914062 13.566406 L 23.914062 16 C 25.433594 16 25.433594 17.390625 26.957031 17.390625 C 28.480469 17.390625 28.480469 16 30 16 C 31.523438 16 31.523438 17.390625 33.042969 17.390625 C 34.566406 17.390625 34.566406 16 36.089844 16 L 36.089844 13.566406 C 34.566406 13.566406 34.566406 14.957031 33.042969 14.957031 C 31.523438 14.957031 31.523438 13.566406 30 13.566406 Z M 30 13.566406 "/>
<path fill-rule="evenodd" fill="rgb(100%, 77.647059%, 20.784314%)" fill-opacity="1" d="M 23.179688 27.214844 C 23.46875 27.378906 23.769531 27.535156 24.066406 27.679688 L 24.113281 27.703125 L 24.011719 27.929688 L 23.910156 28.148438 L 24.132812 28.25 C 25.054688 28.667969 26.027344 28.984375 27.015625 29.199219 C 27.996094 29.40625 29 29.511719 30.003906 29.511719 C 31.003906 29.511719 32.011719 29.40625 32.992188 29.199219 C 33.980469 28.984375 34.949219 28.667969 35.875 28.25 L 36.09375 28.148438 L 35.996094 27.929688 L 35.894531 27.703125 L 35.9375 27.679688 C 36.238281 27.535156 36.539062 27.378906 36.828125 27.214844 L 37.1875 27.011719 L 36.832031 26.796875 C 36.578125 26.648438 36.328125 26.488281 36.085938 26.320312 C 36.074219 26.007812 36.058594 25.6875 36.03125 25.378906 L 35.996094 25.003906 L 35.667969 25.1875 C 35.375 25.355469 35.066406 25.511719 34.761719 25.65625 L 34.277344 25.875 L 34.414062 26.257812 C 33.007812 26.820312 31.527344 27.105469 30.003906 27.105469 C 28.480469 27.105469 26.984375 26.820312 25.574219 26.25 L 25.730469 25.875 L 25.246094 25.65625 C 24.9375 25.515625 24.632812 25.355469 24.339844 25.1875 L 24.007812 25 L 23.976562 25.378906 C 23.953125 25.691406 23.9375 26.011719 23.929688 26.328125 C 23.683594 26.488281 23.433594 26.648438 23.175781 26.796875 L 22.8125 27.007812 Z M 23.179688 27.214844 "/>
</svg>
