<?xml version="1.0" encoding="UTF-8"?>
<svg xmlns="http://www.w3.org/2000/svg" xmlns:xlink="http://www.w3.org/1999/xlink" width="20" height="20" viewBox="0 0 20 20">
<path fill-rule="nonzero" fill="rgb(0%, 13.333333%, 40%)" fill-opacity="1" d="M 20 10 C 20 15.523438 15.523438 20 10 20 C 4.476562 20 0 15.523438 0 10 L 10 0 C 15.523438 0 20 4.476562 20 10 Z M 20 10 "/>
<path fill-rule="nonzero" fill="rgb(0%, 13.333333%, 40%)" fill-opacity="1" d="M 10 0 L 10 10 L 0 10 C 0 4.476562 4.476562 0 10 0 Z M 10 0 "/>
<path fill-rule="nonzero" fill="rgb(93.333333%, 93.333333%, 93.333333%)" fill-opacity="1" d="M 8.5 10 L 10 10 L 10 8.5 L 5.496094 3.992188 L 10 3.992188 L 10 0 C 4.476562 0 0 4.476562 0 10 L 3.992188 10 L 3.992188 5.496094 Z M 8.5 10 "/>
<path fill-rule="nonzero" fill="rgb(84.705882%, 0%, 15.294118%)" fill-opacity="1" d="M 10 2.992188 L 10 0.992188 L 5.652344 0.992188 C 3.621094 1.972656 1.972656 3.621094 0.992188 5.652344 L 0.992188 10 L 2.992188 10 L 2.992188 2.992188 Z M 10 2.992188 "/>
<path fill-rule="nonzero" fill="rgb(84.705882%, 0%, 15.294118%)" fill-opacity="1" d="M 10 9 L 10 10 L 3.992188 3.992188 L 4.996094 3.992188 Z M 10 9 "/>
<path fill-rule="nonzero" fill="rgb(20%, 54.117647%, 95.294118%)" fill-opacity="1" d="M 11.957031 5.652344 L 11.957031 10.433594 C 11.957031 12.765625 15 13.476562 15 13.476562 C 15 13.476562 18.042969 12.765625 18.042969 10.433594 L 18.042969 5.652344 Z M 11.957031 5.652344 "/>
<path fill-rule="nonzero" fill="rgb(95.294118%, 95.294118%, 95.294118%)" fill-opacity="1" d="M 15 9.21875 C 14.238281 9.21875 14.238281 9.914062 13.480469 9.914062 C 12.71875 9.914062 12.71875 9.21875 11.957031 9.21875 L 11.957031 10.4375 C 12.71875 10.4375 12.71875 11.132812 13.480469 11.132812 C 14.238281 11.132812 14.238281 10.4375 15 10.4375 C 15.761719 10.4375 15.761719 11.132812 16.523438 11.132812 C 17.285156 11.132812 17.285156 10.4375 18.042969 10.4375 L 18.042969 9.21875 C 17.285156 9.21875 17.285156 9.914062 16.523438 9.914062 C 15.761719 9.914062 15.761719 9.21875 15 9.21875 Z M 15 9.21875 "/>
<path fill-rule="nonzero" fill="rgb(95.294118%, 95.294118%, 95.294118%)" fill-opacity="1" d="M 15 6.78125 C 14.238281 6.78125 14.238281 7.476562 13.480469 7.476562 C 12.71875 7.476562 12.71875 6.78125 11.957031 6.78125 L 11.957031 8 C 12.71875 8 12.71875 8.695312 13.480469 8.695312 C 14.238281 8.695312 14.238281 8 15 8 C 15.761719 8 15.761719 8.695312 16.523438 8.695312 C 17.285156 8.695312 17.285156 8 18.042969 8 L 18.042969 6.78125 C 17.285156 6.78125 17.285156 7.476562 16.523438 7.476562 C 15.761719 7.476562 15.761719 6.78125 15 6.78125 Z M 15 6.78125 "/>
<path fill-rule="evenodd" fill="rgb(100%, 77.647059%, 20.784314%)" fill-opacity="1" d="M 11.589844 13.609375 C 11.734375 13.691406 11.882812 13.769531 12.035156 13.839844 L 12.058594 13.851562 L 12.003906 13.964844 L 11.957031 14.074219 L 12.066406 14.125 C 12.527344 14.332031 13.011719 14.492188 13.507812 14.597656 C 13.996094 14.703125 14.5 14.757812 15 14.757812 C 15.503906 14.757812 16.003906 14.703125 16.496094 14.597656 C 16.992188 14.492188 17.476562 14.332031 17.9375 14.125 L 18.046875 14.074219 L 17.996094 13.964844 L 17.945312 13.851562 L 17.96875 13.839844 C 18.121094 13.769531 18.269531 13.691406 18.414062 13.609375 L 18.59375 13.503906 L 18.414062 13.398438 C 18.289062 13.324219 18.164062 13.242188 18.042969 13.160156 C 18.039062 13.003906 18.027344 12.84375 18.015625 12.6875 L 18 12.5 L 17.835938 12.59375 C 17.6875 12.679688 17.535156 12.757812 17.378906 12.828125 L 17.136719 12.9375 L 17.207031 13.128906 C 16.503906 13.410156 15.765625 13.554688 15 13.554688 C 14.238281 13.554688 13.492188 13.410156 12.785156 13.125 L 12.867188 12.9375 L 12.625 12.828125 C 12.46875 12.757812 12.316406 12.679688 12.167969 12.59375 L 12.003906 12.5 L 11.988281 12.691406 C 11.976562 12.847656 11.96875 13.003906 11.964844 13.164062 C 11.84375 13.246094 11.714844 13.324219 11.589844 13.398438 L 11.40625 13.503906 Z M 11.589844 13.609375 "/>
</svg>
