<?xml version="1.0" encoding="UTF-8"?>
<svg xmlns="http://www.w3.org/2000/svg" xmlns:xlink="http://www.w3.org/1999/xlink" width="60" height="60" viewBox="0 0 60 60">
<path fill-rule="nonzero" fill="rgb(0%, 13.333333%, 40%)" fill-opacity="1" d="M 60 30 C 60 46.566406 46.566406 60 30 60 C 13.433594 60 0 46.566406 0 30 L 30 0 C 46.566406 0 60 13.433594 60 30 Z M 60 30 "/>
<path fill-rule="nonzero" fill="rgb(0%, 13.333333%, 40%)" fill-opacity="1" d="M 30 0 L 30 30 L 0 30 C 0 13.429688 13.429688 0 30 0 Z M 30 0 "/>
<path fill-rule="nonzero" fill="rgb(93.333333%, 93.333333%, 93.333333%)" fill-opacity="1" d="M 25.496094 30 L 30 30 L 30 25.496094 L 16.488281 11.984375 L 30 11.984375 L 30 0 C 13.429688 0 0 13.429688 0 30 L 11.984375 30 L 11.984375 16.488281 Z M 25.496094 30 "/>
<path fill-rule="nonzero" fill="rgb(84.705882%, 0%, 15.294118%)" fill-opacity="1" d="M 30 8.980469 L 30 2.972656 L 16.960938 2.972656 C 10.867188 5.917969 5.917969 10.867188 2.972656 16.960938 L 2.972656 30 L 8.980469 30 L 8.980469 8.980469 Z M 30 8.980469 "/>
<path fill-rule="nonzero" fill="rgb(84.705882%, 0%, 15.294118%)" fill-opacity="1" d="M 30 26.996094 L 30 30 L 11.984375 11.984375 L 14.984375 11.984375 Z M 30 26.996094 "/>
<path fill-rule="nonzero" fill="rgb(20%, 54.117647%, 95.294118%)" fill-opacity="1" d="M 35.871094 16.957031 L 35.871094 31.304688 C 35.871094 38.292969 45 40.4375 45 40.4375 C 45 40.4375 54.132812 38.292969 54.132812 31.304688 L 54.132812 16.957031 Z M 35.871094 16.957031 "/>
<path fill-rule="nonzero" fill="rgb(95.294118%, 95.294118%, 95.294118%)" fill-opacity="1" d="M 45 27.660156 C 42.71875 27.660156 42.71875 29.746094 40.4375 29.746094 C 38.152344 29.746094 38.152344 27.660156 35.871094 27.660156 L 35.871094 31.3125 C 38.152344 31.3125 38.152344 33.398438 40.4375 33.398438 C 42.71875 33.398438 42.71875 31.3125 45 31.3125 C 47.285156 31.3125 47.285156 33.398438 49.566406 33.398438 C 51.851562 33.398438 51.851562 31.3125 54.132812 31.3125 L 54.132812 27.660156 C 51.851562 27.660156 51.851562 29.746094 49.566406 29.746094 C 47.285156 29.746094 47.285156 27.660156 45 27.660156 Z M 45 27.660156 "/>
<path fill-rule="nonzero" fill="rgb(95.294118%, 95.294118%, 95.294118%)" fill-opacity="1" d="M 45 20.347656 C 42.71875 20.347656 42.71875 22.433594 40.4375 22.433594 C 38.152344 22.433594 38.152344 20.347656 35.871094 20.347656 L 35.871094 24 C 38.152344 24 38.152344 26.085938 40.4375 26.085938 C 42.71875 26.085938 42.71875 24 45 24 C 47.285156 24 47.285156 26.085938 49.566406 26.085938 C 51.851562 26.085938 51.851562 24 54.132812 24 L 54.132812 20.347656 C 51.851562 20.347656 51.851562 22.433594 49.566406 22.433594 C 47.285156 22.433594 47.285156 20.347656 45 20.347656 Z M 45 20.347656 "/>
<path fill-rule="evenodd" fill="rgb(100%, 77.647059%, 20.784314%)" fill-opacity="1" d="M 34.769531 40.824219 C 35.203125 41.070312 35.652344 41.304688 36.101562 41.519531 L 36.171875 41.554688 L 36.015625 41.894531 L 35.867188 42.226562 L 36.199219 42.375 C 37.582031 43 39.039062 43.476562 40.523438 43.796875 C 41.992188 44.109375 43.5 44.269531 45.003906 44.269531 C 46.507812 44.269531 48.015625 44.109375 49.484375 43.796875 C 50.972656 43.476562 52.425781 43 53.8125 42.375 L 54.144531 42.226562 L 53.992188 41.894531 L 53.839844 41.554688 L 53.910156 41.519531 C 54.359375 41.304688 54.808594 41.070312 55.242188 40.824219 L 55.78125 40.515625 L 55.25 40.195312 C 54.867188 39.96875 54.492188 39.730469 54.128906 39.480469 C 54.113281 39.007812 54.085938 38.535156 54.042969 38.066406 L 53.996094 37.503906 L 53.503906 37.785156 C 53.0625 38.035156 52.601562 38.269531 52.140625 38.484375 L 51.414062 38.816406 L 51.621094 39.382812 C 49.515625 40.230469 47.292969 40.660156 45.003906 40.660156 C 42.71875 40.660156 40.476562 40.226562 38.359375 39.371094 L 38.597656 38.8125 L 37.871094 38.480469 C 37.40625 38.269531 36.949219 38.035156 36.507812 37.78125 L 36.007812 37.5 L 35.964844 38.070312 C 35.929688 38.539062 35.90625 39.015625 35.894531 39.488281 C 35.527344 39.734375 35.148438 39.972656 34.765625 40.195312 L 34.21875 40.511719 Z M 34.769531 40.824219 "/>
</svg>
