<?xml version="1.0" encoding="UTF-8"?>
<svg xmlns="http://www.w3.org/2000/svg" xmlns:xlink="http://www.w3.org/1999/xlink" width="40" height="40" viewBox="0 0 40 40">
<path fill-rule="nonzero" fill="rgb(93.333333%, 93.333333%, 93.333333%)" fill-opacity="1" d="M 40 20 C 40 31.046875 31.046875 40 20 40 C 8.953125 40 0 31.046875 0 20 C 0 8.953125 8.953125 0 20 0 C 31.046875 0 40 8.953125 40 20 Z M 40 20 "/>
<path fill-rule="nonzero" fill="rgb(67.45098%, 67.058824%, 69.411765%)" fill-opacity="1" d="M 13.046875 13.90625 C 12.464844 13.90625 11.910156 14.136719 11.5 14.546875 C 11.089844 14.957031 10.859375 15.511719 10.859375 16.09375 L 4.296875 16.09375 C 4.296875 16.675781 4.527344 17.230469 4.9375 17.640625 C 5.347656 18.050781 5.902344 18.28125 6.484375 18.28125 C 6.484375 18.863281 6.714844 19.417969 7.125 19.828125 C 7.535156 20.238281 8.089844 20.46875 8.671875 20.46875 C 8.671875 21.050781 8.902344 21.605469 9.3125 22.015625 C 9.722656 22.425781 10.277344 22.65625 10.859375 22.65625 L 29.140625 22.65625 C 29.722656 22.65625 30.277344 22.425781 30.6875 22.015625 C 31.097656 21.605469 31.328125 21.050781 31.328125 20.46875 C 31.910156 20.46875 32.464844 20.238281 32.875 19.828125 C 33.285156 19.417969 33.515625 18.863281 33.515625 18.28125 C 34.097656 18.28125 34.652344 18.050781 35.0625 17.640625 C 35.472656 17.230469 35.703125 16.675781 35.703125 16.09375 L 29.140625 16.09375 C 29.140625 15.511719 28.910156 14.957031 28.5 14.546875 C 28.089844 14.136719 27.535156 13.90625 26.953125 13.90625 Z M 13.046875 13.90625 "/>
<path fill-rule="evenodd" fill="rgb(100%, 77.647059%, 20.784314%)" fill-opacity="1" d="M 9.765625 30.988281 C 10.199219 31.234375 10.648438 31.46875 11.097656 31.683594 L 11.167969 31.71875 L 11.015625 32.058594 L 10.867188 32.390625 L 11.195312 32.539062 C 12.582031 33.164062 14.035156 33.640625 15.523438 33.960938 C 16.992188 34.273438 18.5 34.433594 20.003906 34.433594 C 21.507812 34.433594 23.015625 34.273438 24.484375 33.960938 C 25.96875 33.640625 27.425781 33.164062 28.808594 32.539062 L 29.140625 32.390625 L 28.992188 32.058594 L 28.835938 31.71875 L 28.90625 31.683594 C 29.359375 31.46875 29.804688 31.234375 30.238281 30.988281 L 30.78125 30.679688 L 30.246094 30.359375 C 29.867188 30.132812 29.488281 29.894531 29.125 29.644531 C 29.113281 29.171875 29.082031 28.699219 29.042969 28.230469 L 28.992188 27.667969 L 28.5 27.949219 C 28.058594 28.199219 27.601562 28.433594 27.136719 28.648438 L 26.410156 28.980469 L 26.621094 29.546875 C 24.511719 30.394531 22.289062 30.824219 20.003906 30.824219 C 17.714844 30.824219 15.472656 30.390625 13.355469 29.535156 L 13.59375 28.976562 L 12.867188 28.644531 C 12.40625 28.433594 11.945312 28.199219 11.503906 27.945312 L 11.007812 27.664062 L 10.964844 28.234375 C 10.925781 28.703125 10.902344 29.179688 10.894531 29.652344 C 10.527344 29.898438 10.148438 30.136719 9.761719 30.359375 L 9.21875 30.675781 Z M 9.765625 30.988281 "/>
<path fill-rule="nonzero" fill="rgb(100%, 77.647059%, 20.784314%)" fill-opacity="1" d="M 18.28125 7.8125 L 18.28125 10.429688 L 17.421875 11.328125 L 16.484375 10.859375 L 16.484375 9.53125 L 13.046875 9.53125 L 13.046875 13.90625 L 20 15 L 26.953125 13.90625 L 26.953125 9.53125 L 23.515625 9.53125 L 23.515625 10.859375 L 22.578125 11.328125 L 21.71875 10.429688 L 21.71875 7.8125 Z M 18.28125 7.8125 "/>
<path fill-rule="nonzero" fill="rgb(0%, 32.156863%, 70.588235%)" fill-opacity="1" d="M 13.046875 13.90625 L 13.046875 22.65625 C 13.046875 27.96875 20 29.570312 20 29.570312 C 20 29.570312 26.953125 27.976562 26.953125 22.65625 L 26.953125 13.90625 Z M 13.046875 13.90625 "/>
<path fill-rule="nonzero" fill="rgb(84.705882%, 0%, 15.294118%)" fill-opacity="1" d="M 13.046875 17.351562 L 26.953125 17.351562 L 26.953125 22.742188 L 13.046875 22.742188 Z M 13.046875 17.351562 "/>
</svg>
