<?xml version="1.0" encoding="UTF-8"?>
<svg xmlns="http://www.w3.org/2000/svg" xmlns:xlink="http://www.w3.org/1999/xlink" width="60" height="60" viewBox="0 0 60 60">
<path fill-rule="nonzero" fill="rgb(93.333333%, 93.333333%, 93.333333%)" fill-opacity="1" d="M 60 30 C 60 46.570312 46.570312 60 30 60 C 13.429688 60 0 46.570312 0 30 C 0 13.429688 13.429688 0 30 0 C 46.570312 0 60 13.429688 60 30 Z M 60 30 "/>
<path fill-rule="nonzero" fill="rgb(67.45098%, 67.058824%, 69.411765%)" fill-opacity="1" d="M 19.570312 20.859375 C 18.699219 20.859375 17.867188 21.203125 17.25 21.820312 C 16.632812 22.4375 16.289062 23.269531 16.289062 24.140625 L 6.445312 24.140625 C 6.445312 25.011719 6.789062 25.84375 7.40625 26.460938 C 8.023438 27.078125 8.855469 27.421875 9.726562 27.421875 C 9.726562 28.292969 10.070312 29.125 10.6875 29.742188 C 11.304688 30.359375 12.136719 30.703125 13.007812 30.703125 C 13.007812 31.574219 13.351562 32.40625 13.96875 33.023438 C 14.585938 33.636719 15.417969 33.984375 16.289062 33.984375 L 43.710938 33.984375 C 44.582031 33.984375 45.414062 33.640625 46.03125 33.023438 C 46.644531 32.40625 46.992188 31.574219 46.992188 30.703125 C 47.863281 30.703125 48.695312 30.359375 49.3125 29.742188 C 49.925781 29.125 50.273438 28.292969 50.273438 27.421875 C 51.144531 27.421875 51.976562 27.078125 52.59375 26.460938 C 53.207031 25.84375 53.554688 25.011719 53.554688 24.140625 L 43.710938 24.140625 C 43.710938 23.269531 43.367188 22.4375 42.75 21.820312 C 42.132812 21.203125 41.300781 20.859375 40.429688 20.859375 Z M 19.570312 20.859375 "/>
<path fill-rule="evenodd" fill="rgb(100%, 77.647059%, 20.784314%)" fill-opacity="1" d="M 14.648438 46.480469 C 15.300781 46.851562 15.972656 47.203125 16.648438 47.527344 L 16.753906 47.578125 L 16.523438 48.085938 L 16.300781 48.582031 L 16.796875 48.808594 C 18.871094 49.746094 21.054688 50.464844 23.285156 50.941406 C 25.488281 51.414062 27.75 51.652344 30.003906 51.652344 C 32.257812 51.652344 34.519531 51.414062 36.726562 50.941406 C 38.953125 50.464844 41.136719 49.746094 43.214844 48.808594 L 43.710938 48.582031 L 43.488281 48.085938 L 43.257812 47.578125 L 43.359375 47.527344 C 44.035156 47.203125 44.710938 46.851562 45.359375 46.480469 L 46.171875 46.019531 L 45.371094 45.539062 C 44.800781 45.199219 44.234375 44.839844 43.6875 44.46875 C 43.667969 43.757812 43.625 43.046875 43.5625 42.347656 L 43.488281 41.5 L 42.75 41.921875 C 42.089844 42.300781 41.402344 42.652344 40.707031 42.96875 L 39.617188 43.46875 L 39.929688 44.324219 C 36.769531 45.59375 33.433594 46.238281 30.003906 46.238281 C 26.574219 46.238281 23.210938 45.589844 20.035156 44.304688 L 20.390625 43.46875 L 19.300781 42.96875 C 18.609375 42.652344 17.921875 42.300781 17.257812 41.921875 L 16.511719 41.496094 L 16.445312 42.351562 C 16.390625 43.054688 16.355469 43.769531 16.339844 44.480469 C 15.789062 44.847656 15.21875 45.203125 14.644531 45.539062 L 13.828125 46.011719 Z M 14.648438 46.480469 "/>
<path fill-rule="nonzero" fill="rgb(100%, 77.647059%, 20.784314%)" fill-opacity="1" d="M 27.421875 11.71875 L 27.421875 15.644531 L 26.132812 16.992188 L 24.726562 16.289062 L 24.726562 14.296875 L 19.570312 14.296875 L 19.570312 20.859375 L 30 22.5 L 40.429688 20.859375 L 40.429688 14.296875 L 35.273438 14.296875 L 35.273438 16.289062 L 33.867188 16.992188 L 32.578125 15.644531 L 32.578125 11.71875 Z M 27.421875 11.71875 "/>
<path fill-rule="nonzero" fill="rgb(0%, 32.156863%, 70.588235%)" fill-opacity="1" d="M 19.570312 20.859375 L 19.570312 33.984375 C 19.570312 41.953125 30 44.355469 30 44.355469 C 30 44.355469 40.429688 41.964844 40.429688 33.984375 L 40.429688 20.859375 Z M 19.570312 20.859375 "/>
<path fill-rule="nonzero" fill="rgb(84.705882%, 0%, 15.294118%)" fill-opacity="1" d="M 19.570312 26.027344 L 40.429688 26.027344 L 40.429688 34.113281 L 19.570312 34.113281 Z M 19.570312 26.027344 "/>
</svg>
