<?xml version="1.0" encoding="UTF-8"?>
<svg xmlns="http://www.w3.org/2000/svg" xmlns:xlink="http://www.w3.org/1999/xlink" width="20" height="20" viewBox="0 0 20 20">
<path fill-rule="nonzero" fill="rgb(93.333333%, 93.333333%, 93.333333%)" fill-opacity="1" d="M 20 10 C 20 15.523438 15.523438 20 10 20 C 4.476562 20 0 15.523438 0 10 C 0 4.476562 4.476562 0 10 0 C 15.523438 0 20 4.476562 20 10 Z M 20 10 "/>
<path fill-rule="nonzero" fill="rgb(67.45098%, 67.058824%, 69.411765%)" fill-opacity="1" d="M 6.523438 6.953125 C 6.234375 6.953125 5.957031 7.070312 5.75 7.273438 C 5.546875 7.480469 5.429688 7.757812 5.429688 8.046875 L 2.148438 8.046875 C 2.148438 8.335938 2.265625 8.613281 2.46875 8.820312 C 2.675781 9.023438 2.953125 9.140625 3.242188 9.140625 C 3.242188 9.429688 3.359375 9.707031 3.5625 9.914062 C 3.769531 10.117188 4.046875 10.234375 4.335938 10.234375 C 4.335938 10.523438 4.453125 10.800781 4.65625 11.007812 C 4.863281 11.210938 5.140625 11.328125 5.429688 11.328125 L 14.570312 11.328125 C 14.859375 11.328125 15.136719 11.210938 15.34375 11.007812 C 15.546875 10.800781 15.664062 10.523438 15.664062 10.234375 C 15.953125 10.234375 16.230469 10.117188 16.4375 9.914062 C 16.640625 9.707031 16.757812 9.429688 16.757812 9.140625 C 17.046875 9.140625 17.324219 9.023438 17.53125 8.820312 C 17.734375 8.613281 17.851562 8.335938 17.851562 8.046875 L 14.570312 8.046875 C 14.570312 7.757812 14.453125 7.480469 14.25 7.273438 C 14.042969 7.070312 13.765625 6.953125 13.476562 6.953125 Z M 6.523438 6.953125 "/>
<path fill-rule="evenodd" fill="rgb(100%, 77.647059%, 20.784314%)" fill-opacity="1" d="M 4.882812 15.492188 C 5.101562 15.617188 5.324219 15.734375 5.550781 15.84375 L 5.585938 15.859375 L 5.507812 16.027344 L 5.433594 16.195312 L 5.597656 16.269531 C 6.289062 16.582031 7.019531 16.820312 7.761719 16.980469 C 8.496094 17.136719 9.25 17.21875 10 17.21875 C 10.753906 17.21875 11.507812 17.136719 12.242188 16.980469 C 12.984375 16.820312 13.710938 16.582031 14.40625 16.269531 L 14.570312 16.195312 L 14.496094 16.027344 L 14.417969 15.859375 L 14.453125 15.84375 C 14.679688 15.734375 14.902344 15.617188 15.121094 15.492188 L 15.390625 15.339844 L 15.125 15.179688 C 14.933594 15.066406 14.746094 14.945312 14.5625 14.824219 C 14.554688 14.585938 14.542969 14.347656 14.519531 14.117188 L 14.496094 13.832031 L 14.25 13.972656 C 14.03125 14.101562 13.800781 14.21875 13.570312 14.324219 L 13.207031 14.488281 L 13.308594 14.773438 C 12.257812 15.199219 11.144531 15.414062 10 15.414062 C 8.859375 15.414062 7.738281 15.195312 6.679688 14.769531 L 6.796875 14.488281 L 6.433594 14.324219 C 6.203125 14.21875 5.972656 14.101562 5.753906 13.972656 L 5.503906 13.832031 L 5.480469 14.117188 C 5.464844 14.351562 5.453125 14.589844 5.445312 14.828125 C 5.261719 14.949219 5.074219 15.066406 4.882812 15.179688 L 4.609375 15.335938 Z M 4.882812 15.492188 "/>
<path fill-rule="nonzero" fill="rgb(100%, 77.647059%, 20.784314%)" fill-opacity="1" d="M 9.140625 3.90625 L 9.140625 5.214844 L 8.710938 5.664062 L 8.242188 5.429688 L 8.242188 4.765625 L 6.523438 4.765625 L 6.523438 6.953125 L 10 7.5 L 13.476562 6.953125 L 13.476562 4.765625 L 11.757812 4.765625 L 11.757812 5.429688 L 11.289062 5.664062 L 10.859375 5.214844 L 10.859375 3.90625 Z M 9.140625 3.90625 "/>
<path fill-rule="nonzero" fill="rgb(0%, 32.156863%, 70.588235%)" fill-opacity="1" d="M 6.523438 6.953125 L 6.523438 11.328125 C 6.523438 13.984375 10 14.785156 10 14.785156 C 10 14.785156 13.476562 13.988281 13.476562 11.328125 L 13.476562 6.953125 Z M 6.523438 6.953125 "/>
<path fill-rule="nonzero" fill="rgb(84.705882%, 0%, 15.294118%)" fill-opacity="1" d="M 6.523438 8.675781 L 13.476562 8.675781 L 13.476562 11.371094 L 6.523438 11.371094 Z M 6.523438 8.675781 "/>
</svg>
