<?xml version="1.0" encoding="UTF-8"?>
<svg xmlns="http://www.w3.org/2000/svg" xmlns:xlink="http://www.w3.org/1999/xlink" width="60" height="60" viewBox="0 0 60 60">
<path fill-rule="nonzero" fill="rgb(84.705882%, 0%, 15.294118%)" fill-opacity="1" d="M 60 30 C 60 46.570312 46.570312 60 30 60 C 13.429688 60 0 46.570312 0 30 C 0 13.429688 13.429688 0 30 0 C 46.570312 0 60 13.429688 60 30 Z M 60 30 "/>
<path fill-rule="nonzero" fill="rgb(93.333333%, 93.333333%, 93.333333%)" fill-opacity="1" d="M 0 28.777344 C 0.640625 12.777344 13.816406 0 29.976562 0 C 29.984375 0 29.992188 0 30 0 L 30 30 L 0 30 Z M 0 28.777344 "/>
<path fill-rule="nonzero" fill="rgb(84.705882%, 0%, 15.294118%)" fill-opacity="1" d="M 18.75 15 L 18.75 11.25 L 15 11.25 L 15 15 L 11.25 15 L 11.25 18.75 L 15 18.75 L 15 22.5 L 18.75 22.5 L 18.75 18.75 L 22.5 18.75 L 22.5 15 Z M 18.75 15 "/>
</svg>
