<?xml version="1.0" encoding="UTF-8"?>
<svg xmlns="http://www.w3.org/2000/svg" xmlns:xlink="http://www.w3.org/1999/xlink" width="60" height="60" viewBox="0 0 60 60">
<path fill-rule="nonzero" fill="rgb(20%, 54.117647%, 95.294118%)" fill-opacity="1" d="M 51.210938 8.785156 L 26.25 26.25 L 8.785156 51.210938 C 14.214844 56.640625 21.714844 60 30 60 C 46.457031 60 59.820312 46.75 59.996094 30.335938 L 59.996094 29.664062 C 59.910156 21.511719 56.566406 14.140625 51.210938 8.785156 Z M 51.210938 8.785156 "/>
<path fill-rule="nonzero" fill="rgb(20%, 54.117647%, 95.294118%)" fill-opacity="1" d="M 51.210938 8.785156 L 8.785156 51.210938 C 3.355469 45.785156 0 38.285156 0 30 C 0 13.433594 13.425781 0.0078125 29.988281 0 C 29.992188 0 29.996094 0 30 0 C 30.003906 0 30.007812 0 30.007812 0 C 38.289062 0.00390625 45.785156 3.359375 51.210938 8.785156 Z M 51.210938 8.785156 "/>
<path fill-rule="nonzero" fill="rgb(100%, 85.490196%, 26.666667%)" fill-opacity="1" d="M 43.613281 3.261719 C 49.253906 6.136719 53.863281 10.746094 56.738281 16.386719 L 16.386719 56.738281 C 10.746094 53.863281 6.136719 49.253906 3.261719 43.613281 Z M 43.613281 3.261719 "/>
<path fill-rule="nonzero" fill="rgb(84.705882%, 0%, 15.294118%)" fill-opacity="1" d="M 47.128906 5.367188 C 50.050781 7.40625 52.59375 9.945312 54.628906 12.867188 L 12.867188 54.632812 C 9.945312 52.59375 7.402344 50.054688 5.367188 47.132812 Z M 47.128906 5.367188 "/>
<path fill-rule="nonzero" fill="rgb(100%, 85.490196%, 26.666667%)" fill-opacity="1" d="M 15.664062 7.003906 L 17.609375 12.988281 L 23.902344 12.988281 L 18.8125 16.6875 L 20.757812 22.671875 L 15.664062 18.972656 L 10.574219 22.671875 L 12.519531 16.6875 L 7.425781 12.988281 L 13.722656 12.988281 Z M 15.664062 7.003906 "/>
</svg>
