<?xml version="1.0" encoding="UTF-8"?>
<svg xmlns="http://www.w3.org/2000/svg" xmlns:xlink="http://www.w3.org/1999/xlink" width="414px" height="207px" viewBox="0 0 414 207" version="1.1">
<g id="surface1">
<path style=" stroke:none;fill-rule:evenodd;fill:rgb(69.803923%,0%,0%);fill-opacity:1;" d="M -7.136719 -2.351562 L 635.34375 -2.351562 L 635.34375 138.273438 L -7.136719 138.273438 Z M -7.136719 -2.351562 "/>
<path style=" stroke:none;fill-rule:evenodd;fill:rgb(25.882354%,62.352943%,0%);fill-opacity:1;" d="M -7.136719 138.273438 L 635.34375 138.273438 L 635.34375 209.351562 L -7.136719 209.351562 Z M -7.136719 138.273438 "/>
<path style=" stroke:none;fill-rule:evenodd;fill:rgb(100%,100%,100%);fill-opacity:1;" d="M -7.136719 -2.351562 L 64.011719 -2.351562 L 64.011719 209.351562 L -7.136719 209.351562 Z M -7.136719 -2.351562 "/>
<path style=" stroke:none;fill-rule:evenodd;fill:rgb(69.803923%,0%,0%);fill-opacity:1;" d="M -3.753906 1.246094 L -0.363281 1.246094 L -0.363281 4.84375 L -3.753906 4.84375 Z M 6.410156 1.246094 L 16.578125 1.246094 L 16.578125 4.84375 L 6.410156 4.84375 Z M 9.800781 -2.351562 L 13.1875 -2.351562 L 13.1875 1.246094 L 9.800781 1.246094 Z M 26.742188 -2.351562 L 30.128906 -2.351562 L 30.128906 1.246094 L 26.742188 1.246094 Z M 40.292969 1.246094 L 50.457031 1.246094 L 50.457031 4.84375 L 40.292969 4.84375 Z M 43.679688 -2.351562 L 47.070312 -2.351562 L 47.070312 1.246094 L 43.679688 1.246094 Z M 3.023438 4.84375 L 9.800781 4.84375 L 9.800781 8.398438 L 3.023438 8.398438 Z M 13.1875 4.84375 L 19.964844 4.84375 L 19.964844 8.398438 L 13.1875 8.398438 Z M 36.90625 4.84375 L 43.679688 4.84375 L 43.679688 8.398438 L 36.90625 8.398438 Z M 47.070312 4.84375 L 53.84375 4.84375 L 53.84375 8.398438 L 47.070312 8.398438 Z M -0.363281 8.398438 L 6.410156 8.398438 L 6.410156 11.996094 L -0.363281 11.996094 Z M 16.578125 8.398438 L 23.351562 8.398438 L 23.351562 11.996094 L 16.578125 11.996094 Z M 33.515625 8.398438 L 40.292969 8.398438 L 40.292969 11.996094 L 33.515625 11.996094 Z M 50.457031 8.398438 L 57.234375 8.398438 L 57.234375 11.996094 L 50.457031 11.996094 Z M 57.234375 1.246094 L 60.621094 1.246094 L 60.621094 4.84375 L 57.234375 4.84375 Z M -3.753906 11.996094 L 3.023438 11.996094 L 3.023438 15.59375 L -3.753906 15.59375 Z M 19.964844 11.996094 L 26.742188 11.996094 L 26.742188 15.59375 L 19.964844 15.59375 Z M 53.84375 11.996094 L 60.621094 11.996094 L 60.621094 15.59375 L 53.84375 15.59375 Z M -0.363281 22.746094 L 6.410156 22.746094 L 6.410156 26.34375 L -0.363281 26.34375 Z M 3.023438 26.34375 L 9.800781 26.34375 L 9.800781 29.941406 L 3.023438 29.941406 Z M 16.578125 22.789062 L 23.351562 22.789062 L 23.351562 26.34375 L 16.578125 26.34375 Z M 13.1875 26.34375 L 19.964844 26.34375 L 19.964844 29.941406 L 13.1875 29.941406 Z M 6.410156 29.941406 L 16.578125 29.941406 L 16.578125 33.539062 L 6.410156 33.539062 Z M 6.410156 29.941406 "/>
<path style=" stroke:none;fill-rule:evenodd;fill:rgb(69.803923%,0%,0%);fill-opacity:1;" d="M 9.800781 33.539062 L 13.191406 33.539062 L 13.191406 37.136719 L 9.800781 37.136719 Z M 33.519531 22.789062 L 40.292969 22.789062 L 40.292969 26.34375 L 33.519531 26.34375 Z M 36.90625 26.34375 L 43.683594 26.34375 L 43.683594 29.941406 L 36.90625 29.941406 Z M 50.460938 22.789062 L 57.234375 22.789062 L 57.234375 26.34375 L 50.460938 26.34375 Z M 47.070312 26.34375 L 53.847656 26.34375 L 53.847656 29.941406 L 47.070312 29.941406 Z M 40.292969 29.941406 L 50.460938 29.941406 L 50.460938 33.539062 L 40.292969 33.539062 Z M 43.683594 33.539062 L 47.070312 33.539062 L 47.070312 37.136719 L 43.683594 37.136719 Z M 26.742188 29.902344 L 30.128906 29.902344 L 30.128906 33.5 L 26.742188 33.5 Z M -7.136719 29.902344 L -3.75 29.902344 L -3.75 33.5 L -7.136719 33.5 Z M 60.625 29.902344 L 64.011719 29.902344 L 64.011719 33.5 L 60.625 33.5 Z M 9.800781 47.847656 L 13.191406 47.847656 L 13.191406 51.445312 L 9.800781 51.445312 Z M 6.414062 51.484375 L 16.578125 51.484375 L 16.578125 55.039062 L 6.414062 55.039062 Z M 3.027344 55.039062 L 19.964844 55.039062 L 19.964844 58.636719 L 3.027344 58.636719 Z M 43.683594 47.886719 L 47.070312 47.886719 L 47.070312 51.484375 L 43.683594 51.484375 Z M 40.292969 51.484375 L 50.460938 51.484375 L 50.460938 55.039062 L 40.292969 55.039062 Z M 36.90625 55.039062 L 53.847656 55.039062 L 53.847656 58.636719 L 36.90625 58.636719 Z M 40.292969 72.984375 L 57.234375 72.984375 L 57.234375 76.582031 L 40.292969 76.582031 Z M 33.519531 58.636719 L 57.234375 58.636719 L 57.234375 62.234375 L 33.519531 62.234375 Z M -0.363281 58.636719 L 23.355469 58.636719 L 23.355469 62.234375 L -0.363281 62.234375 Z M 3.027344 76.582031 L 13.191406 76.582031 L 13.191406 80.179688 L 3.027344 80.179688 Z M -0.363281 72.984375 L 16.578125 72.984375 L 16.578125 76.582031 L -0.363281 76.582031 Z M 47.070312 65.875 L 64.011719 65.875 L 64.011719 69.472656 L 47.070312 69.472656 Z M 43.683594 76.625 L 53.847656 76.625 L 53.847656 80.222656 L 43.683594 80.222656 Z M 43.683594 76.625 "/>
<path style=" stroke:none;fill-rule:evenodd;fill:rgb(69.803923%,0%,0%);fill-opacity:1;" d="M 6.414062 80.179688 L 9.800781 80.179688 L 9.800781 83.777344 L 6.414062 83.777344 Z M 47.070312 80.179688 L 50.460938 80.179688 L 50.460938 83.777344 L 47.070312 83.777344 Z M -7.136719 65.832031 L 9.800781 65.832031 L 9.800781 69.429688 L -7.136719 69.429688 Z M 23.355469 72.984375 L 33.519531 72.984375 L 33.519531 76.582031 L 23.355469 76.582031 Z M 26.742188 76.625 L 30.128906 76.625 L 30.128906 80.222656 L 26.742188 80.222656 Z M 16.578125 65.875 L 40.292969 65.875 L 40.292969 69.472656 L 16.578125 69.472656 Z M 30.128906 11.996094 L 36.90625 11.996094 L 36.90625 15.59375 L 30.128906 15.59375 Z M 23.355469 15.59375 L 33.519531 15.59375 L 33.519531 19.191406 L 23.355469 19.191406 Z M 19.964844 19.191406 L 26.742188 19.191406 L 26.742188 22.746094 L 19.964844 22.746094 Z M 30.128906 19.191406 L 36.90625 19.191406 L 36.90625 22.746094 L 30.128906 22.746094 Z M -7.136719 15.59375 L -0.363281 15.59375 L -0.363281 19.191406 L -7.136719 19.191406 Z M -3.75 19.191406 L 3.027344 19.191406 L 3.027344 22.746094 L -3.75 22.746094 Z M 57.234375 15.59375 L 64.011719 15.59375 L 64.011719 19.148438 L 57.234375 19.148438 Z M 53.847656 19.148438 L 60.625 19.148438 L 60.625 22.707031 L 53.847656 22.707031 Z M -7.136719 51.402344 L -3.75 51.402344 L -3.75 55 L -7.136719 55 Z M 60.625 51.402344 L 64.011719 51.402344 L 64.011719 55 L 60.625 55 Z M 23.355469 80.136719 L 33.519531 80.136719 L 33.519531 83.734375 L 23.355469 83.734375 Z M 19.964844 83.734375 L 26.742188 83.734375 L 26.742188 87.292969 L 19.964844 87.292969 Z M 30.128906 83.734375 L 36.90625 83.734375 L 36.90625 87.292969 L 30.128906 87.292969 Z M 16.578125 87.292969 L 23.355469 87.292969 L 23.355469 90.890625 L 16.578125 90.890625 Z M 33.519531 87.292969 L 40.292969 87.292969 L 40.292969 90.890625 L 33.519531 90.890625 Z M 13.191406 90.890625 L 19.964844 90.890625 L 19.964844 94.488281 L 13.191406 94.488281 Z M 36.90625 90.890625 L 43.683594 90.890625 L 43.683594 94.488281 L 36.90625 94.488281 Z M 9.800781 94.527344 L 16.578125 94.527344 L 16.578125 98.125 L 9.800781 98.125 Z M 40.292969 94.527344 L 47.070312 94.527344 L 47.070312 98.125 L 40.292969 98.125 Z M 3.027344 98.125 L 13.191406 98.125 L 13.191406 101.722656 L 3.027344 101.722656 Z M 43.683594 98.125 L 53.847656 98.125 L 53.847656 101.722656 L 43.683594 101.722656 Z M 50.460938 94.527344 L 57.234375 94.527344 L 57.234375 98.125 L 50.460938 98.125 Z M 53.847656 90.929688 L 60.625 90.929688 L 60.625 94.527344 L 53.847656 94.527344 Z M 57.234375 87.332031 L 64.011719 87.332031 L 64.011719 90.929688 L 57.234375 90.929688 Z M -0.363281 94.527344 L 6.414062 94.527344 L 6.414062 98.125 L -0.363281 98.125 Z M -3.75 90.929688 L 3.027344 90.929688 L 3.027344 94.527344 L -3.75 94.527344 Z M -7.136719 87.375 L -0.363281 87.375 L -0.363281 90.972656 L -7.136719 90.972656 Z M 6.414062 101.765625 L 9.800781 101.765625 L 9.800781 105.320312 L 6.414062 105.320312 Z M 47.070312 101.765625 L 50.460938 101.765625 L 50.460938 105.320312 L 47.070312 105.320312 Z M 26.742188 91.011719 L 30.128906 91.011719 L 30.128906 94.570312 L 26.742188 94.570312 Z M 16.578125 101.765625 L 19.964844 101.765625 L 19.964844 105.320312 L 16.578125 105.320312 Z M 36.90625 101.765625 L 40.292969 101.765625 L 40.292969 105.320312 L 36.90625 105.320312 Z M 26.742188 101.765625 L 30.128906 101.765625 L 30.128906 105.320312 L 26.742188 105.320312 Z M -7.136719 101.765625 L -3.75 101.765625 L -3.75 105.320312 L -7.136719 105.320312 Z M 60.625 101.765625 L 64.011719 101.765625 L 64.011719 105.320312 L 60.625 105.320312 Z M 26.742188 51.484375 L 30.128906 51.484375 L 30.128906 55.039062 L 26.742188 55.039062 Z M 9.800781 15.59375 L 13.191406 15.59375 L 13.191406 19.191406 L 9.800781 19.191406 Z M 43.683594 15.59375 L 47.070312 15.59375 L 47.070312 19.191406 L 43.683594 19.191406 Z M 23.355469 40.691406 L 33.519531 40.691406 L 33.519531 44.289062 L 23.355469 44.289062 Z M 16.578125 44.289062 L 26.742188 44.289062 L 26.742188 47.886719 L 16.578125 47.886719 Z M 19.964844 47.886719 L 23.355469 47.886719 L 23.355469 51.484375 L 19.964844 51.484375 Z M 13.191406 40.691406 L 19.964844 40.691406 L 19.964844 44.289062 L 13.191406 44.289062 Z M 16.578125 37.136719 L 26.742188 37.136719 L 26.742188 40.691406 L 16.578125 40.691406 Z M 19.964844 33.539062 L 23.355469 33.539062 L 23.355469 37.136719 L 19.964844 37.136719 Z M 30.128906 37.136719 L 40.292969 37.136719 L 40.292969 40.691406 L 30.128906 40.691406 Z M 33.519531 33.539062 L 36.90625 33.539062 L 36.90625 37.136719 L 33.519531 37.136719 Z M 36.90625 40.691406 L 43.683594 40.691406 L 43.683594 44.289062 L 36.90625 44.289062 Z M 30.128906 44.289062 L 40.292969 44.289062 L 40.292969 47.886719 L 30.128906 47.886719 Z M 33.519531 47.886719 L 36.90625 47.886719 L 36.90625 51.484375 L 33.519531 51.484375 Z M 47.070312 40.691406 L 53.847656 40.691406 L 53.847656 44.289062 L 47.070312 44.289062 Z M 50.460938 37.136719 L 60.625 37.136719 L 60.625 40.691406 L 50.460938 40.691406 Z M 57.234375 40.691406 L 64.011719 40.691406 L 64.011719 44.289062 L 57.234375 44.289062 Z M 50.460938 44.289062 L 60.625 44.289062 L 60.625 47.886719 L 50.460938 47.886719 Z M 53.847656 47.886719 L 57.234375 47.886719 L 57.234375 51.484375 L 53.847656 51.484375 Z M 53.847656 33.539062 L 57.234375 33.539062 L 57.234375 37.136719 L 53.847656 37.136719 Z M -7.136719 40.652344 L -0.363281 40.652344 L -0.363281 44.25 L -7.136719 44.25 Z M -3.75 37.09375 L 6.414062 37.09375 L 6.414062 40.652344 L -3.75 40.652344 Z M 3.027344 40.652344 L 9.800781 40.652344 L 9.800781 44.25 L 3.027344 44.25 Z M -3.75 44.25 L 6.414062 44.25 L 6.414062 47.84375 L -3.75 47.84375 Z M -3.75 44.25 "/>
<path style=" stroke:none;fill-rule:evenodd;fill:rgb(69.803923%,0%,0%);fill-opacity:1;" d="M -0.363281 47.886719 L 3.027344 47.886719 L 3.027344 51.484375 L -0.363281 51.484375 Z M -0.363281 33.539062 L 3.027344 33.539062 L 3.027344 37.136719 L -0.363281 37.136719 Z M -3.75 62.234375 L 9.800781 62.234375 L 9.800781 65.832031 L -3.75 65.832031 Z M 13.191406 62.234375 L 26.742188 62.234375 L 26.742188 65.832031 L 13.191406 65.832031 Z M 30.128906 62.234375 L 43.683594 62.234375 L 43.683594 65.832031 L 30.128906 65.832031 Z M 47.070312 62.234375 L 60.625 62.234375 L 60.625 65.832031 L 47.070312 65.832031 Z M 19.964844 69.429688 L 36.90625 69.429688 L 36.90625 72.984375 L 19.964844 72.984375 Z M -3.75 69.429688 L 13.191406 69.429688 L 13.191406 72.984375 L -3.75 72.984375 Z M 43.683594 69.429688 L 60.625 69.429688 L 60.625 72.984375 L 43.683594 72.984375 Z M 60.625 83.777344 L 64.011719 83.777344 L 64.011719 87.332031 L 60.625 87.332031 Z M -7.136719 83.777344 L -3.75 83.777344 L -3.75 87.332031 L -7.136719 87.332031 Z M -3.75 205.753906 L -0.363281 205.753906 L -0.363281 202.199219 L -3.75 202.199219 Z M 6.414062 205.753906 L 16.578125 205.753906 L 16.578125 202.199219 L 6.414062 202.199219 Z M 9.800781 209.351562 L 13.191406 209.351562 L 13.191406 205.753906 L 9.800781 205.753906 Z M 26.742188 209.351562 L 30.128906 209.351562 L 30.128906 205.753906 L 26.742188 205.753906 Z M 40.292969 205.753906 L 50.460938 205.753906 L 50.460938 202.160156 L 40.292969 202.160156 Z M 43.683594 209.351562 L 47.070312 209.351562 L 47.070312 205.753906 L 43.683594 205.753906 Z M 3.027344 202.160156 L 9.800781 202.160156 L 9.800781 198.601562 L 3.027344 198.601562 Z M 13.191406 202.160156 L 19.964844 202.160156 L 19.964844 198.601562 L 13.191406 198.601562 Z M 36.90625 202.160156 L 43.683594 202.160156 L 43.683594 198.601562 L 36.90625 198.601562 Z M 47.070312 202.160156 L 53.847656 202.160156 L 53.847656 198.601562 L 47.070312 198.601562 Z M 16.578125 198.601562 L 23.355469 198.601562 L 23.355469 195.003906 L 16.578125 195.003906 Z M 33.519531 198.601562 L 40.292969 198.601562 L 40.292969 195.003906 L 33.519531 195.003906 Z M 50.460938 198.601562 L 57.234375 198.601562 L 57.234375 195.003906 L 50.460938 195.003906 Z M 57.234375 205.753906 L 60.625 205.753906 L 60.625 202.160156 L 57.234375 202.160156 Z M -3.75 195.003906 L 3.027344 195.003906 L 3.027344 191.40625 L -3.75 191.40625 Z M 19.964844 195.003906 L 26.742188 195.003906 L 26.742188 191.40625 L 19.964844 191.40625 Z M 53.847656 195.003906 L 60.625 195.003906 L 60.625 191.40625 L 53.847656 191.40625 Z M -0.363281 184.253906 L 6.414062 184.253906 L 6.414062 180.65625 L -0.363281 180.65625 Z M 3.027344 180.65625 L 9.800781 180.65625 L 9.800781 177.058594 L 3.027344 177.058594 Z M 16.578125 184.253906 L 23.355469 184.253906 L 23.355469 180.65625 L 16.578125 180.65625 Z M 13.191406 180.65625 L 19.964844 180.65625 L 19.964844 177.058594 L 13.191406 177.058594 Z M 6.414062 177.058594 L 16.578125 177.058594 L 16.578125 173.460938 L 6.414062 173.460938 Z M 9.800781 173.460938 L 13.191406 173.460938 L 13.191406 169.90625 L 9.800781 169.90625 Z M 33.519531 184.214844 L 40.292969 184.214844 L 40.292969 180.65625 L 33.519531 180.65625 Z M 36.90625 180.65625 L 43.683594 180.65625 L 43.683594 177.058594 L 36.90625 177.058594 Z M 50.460938 184.253906 L 57.234375 184.253906 L 57.234375 180.65625 L 50.460938 180.65625 Z M 47.070312 180.65625 L 53.847656 180.65625 L 53.847656 177.058594 L 47.070312 177.058594 Z M 40.292969 177.058594 L 50.460938 177.058594 L 50.460938 173.460938 L 40.292969 173.460938 Z M 43.683594 173.460938 L 47.070312 173.460938 L 47.070312 169.90625 L 43.683594 169.90625 Z M 26.742188 177.101562 L 30.128906 177.101562 L 30.128906 173.503906 L 26.742188 173.503906 Z M -7.136719 177.101562 L -3.75 177.101562 L -3.75 173.503906 L -7.136719 173.503906 Z M 60.625 177.101562 L 64.011719 177.101562 L 64.011719 173.503906 L 60.625 173.503906 Z M 9.800781 159.15625 L 13.191406 159.15625 L 13.191406 155.558594 L 9.800781 155.558594 Z M 6.414062 155.519531 L 16.578125 155.519531 L 16.578125 151.960938 L 6.414062 151.960938 Z M 3.027344 151.960938 L 19.964844 151.960938 L 19.964844 148.363281 L 3.027344 148.363281 Z M 43.683594 159.113281 L 47.070312 159.113281 L 47.070312 155.519531 L 43.683594 155.519531 Z M 43.683594 159.113281 "/>
<path style=" stroke:none;fill-rule:evenodd;fill:rgb(69.803923%,0%,0%);fill-opacity:1;" d="M 40.292969 155.515625 L 50.460938 155.515625 L 50.460938 151.960938 L 40.292969 151.960938 Z M 36.90625 151.960938 L 53.847656 151.960938 L 53.847656 148.363281 L 36.90625 148.363281 Z M 40.292969 134.015625 L 57.234375 134.015625 L 57.234375 130.375 L 40.292969 130.375 Z M 33.519531 148.363281 L 57.234375 148.363281 L 57.234375 144.765625 L 33.519531 144.765625 Z M -0.363281 148.363281 L 23.355469 148.363281 L 23.355469 144.765625 L -0.363281 144.765625 Z M 3.027344 130.417969 L 13.191406 130.417969 L 13.191406 126.820312 L 3.027344 126.820312 Z M -0.363281 134.015625 L 16.578125 134.015625 L 16.578125 130.375 L -0.363281 130.375 Z M 47.070312 141.128906 L 64.011719 141.128906 L 64.011719 137.53125 L 47.070312 137.53125 Z M 43.683594 130.375 L 53.847656 130.375 L 53.847656 126.777344 L 43.683594 126.777344 Z M -7.136719 141.128906 L 9.800781 141.128906 L 9.800781 137.53125 L -7.136719 137.53125 Z M 23.355469 133.972656 L 33.519531 133.972656 L 33.519531 130.375 L 23.355469 130.375 Z M 26.742188 130.375 L 30.128906 130.375 L 30.128906 126.777344 L 26.742188 126.777344 Z M 16.578125 141.128906 L 40.292969 141.128906 L 40.292969 137.53125 L 16.578125 137.53125 Z M 30.128906 194.964844 L 36.90625 194.964844 L 36.90625 191.363281 L 30.128906 191.363281 Z M 23.355469 191.363281 L 33.519531 191.363281 L 33.519531 187.851562 L 23.355469 187.851562 Z M 19.964844 187.769531 L 26.742188 187.769531 L 26.742188 184.171875 L 19.964844 184.171875 Z M 30.128906 187.769531 L 36.90625 187.769531 L 36.90625 184.171875 L 30.128906 184.171875 Z M -7.136719 191.40625 L -0.363281 191.40625 L -0.363281 187.851562 L -7.136719 187.851562 Z M -3.75 187.808594 L 3.027344 187.808594 L 3.027344 184.253906 L -3.75 184.253906 Z M 57.234375 191.40625 L 64.011719 191.40625 L 64.011719 187.851562 L 57.234375 187.851562 Z M 53.847656 187.808594 L 60.625 187.808594 L 60.625 184.253906 L 53.847656 184.253906 Z M -7.136719 155.597656 L -3.75 155.597656 L -3.75 152 L -7.136719 152 Z M 60.625 155.597656 L 64.011719 155.597656 L 64.011719 152 L 60.625 152 Z M 19.964844 123.265625 L 26.742188 123.265625 L 26.742188 119.707031 L 19.964844 119.707031 Z M 30.128906 123.265625 L 36.90625 123.265625 L 36.90625 119.707031 L 30.128906 119.707031 Z M 16.578125 119.707031 L 23.355469 119.707031 L 23.355469 116.113281 L 16.578125 116.113281 Z M 33.519531 119.707031 L 40.292969 119.707031 L 40.292969 116.113281 L 33.519531 116.113281 Z M 13.191406 116.113281 L 19.964844 116.113281 L 19.964844 112.515625 L 13.191406 112.515625 Z M 36.90625 116.113281 L 43.683594 116.113281 L 43.683594 112.515625 L 36.90625 112.515625 Z M 9.800781 112.472656 L 16.578125 112.472656 L 16.578125 108.875 L 9.800781 108.875 Z M 40.292969 112.472656 L 47.070312 112.472656 L 47.070312 108.875 L 40.292969 108.875 Z M 3.027344 108.875 L 13.191406 108.875 L 13.191406 105.277344 L 3.027344 105.277344 Z M 43.683594 108.875 L 53.847656 108.875 L 53.847656 105.277344 L 43.683594 105.277344 Z M 50.460938 112.472656 L 57.234375 112.472656 L 57.234375 108.875 L 50.460938 108.875 Z M 53.847656 116.070312 L 60.625 116.070312 L 60.625 112.472656 L 53.847656 112.472656 Z M 57.234375 119.667969 L 64.011719 119.667969 L 64.011719 116.070312 L 57.234375 116.070312 Z M -0.363281 112.472656 L 6.414062 112.472656 L 6.414062 108.875 L -0.363281 108.875 Z M -3.75 116.070312 L 3.027344 116.070312 L 3.027344 112.472656 L -3.75 112.472656 Z M -7.136719 119.625 L -0.363281 119.625 L -0.363281 116.027344 L -7.136719 116.027344 Z M 6.414062 105.238281 L 9.800781 105.238281 L 9.800781 101.679688 L 6.414062 101.679688 Z M 26.742188 115.988281 L 30.128906 115.988281 L 30.128906 112.429688 L 26.742188 112.429688 Z M 26.742188 155.476562 L 30.128906 155.476562 L 30.128906 151.917969 L 26.742188 151.917969 Z M 9.800781 191.363281 L 13.191406 191.363281 L 13.191406 187.851562 L 9.800781 187.851562 Z M 43.683594 191.363281 L 47.070312 191.363281 L 47.070312 187.851562 L 43.683594 187.851562 Z M 23.355469 166.351562 L 33.519531 166.351562 L 33.519531 162.753906 L 23.355469 162.753906 Z M 16.578125 162.753906 L 26.742188 162.753906 L 26.742188 159.15625 L 16.578125 159.15625 Z M 19.964844 159.15625 L 23.355469 159.15625 L 23.355469 155.558594 L 19.964844 155.558594 Z M 13.191406 166.351562 L 19.964844 166.351562 L 19.964844 162.753906 L 13.191406 162.753906 Z M 16.578125 169.863281 L 26.742188 169.863281 L 26.742188 166.351562 L 16.578125 166.351562 Z M 19.964844 173.460938 L 23.355469 173.460938 L 23.355469 169.90625 L 19.964844 169.90625 Z M 30.128906 169.863281 L 40.292969 169.863281 L 40.292969 166.351562 L 30.128906 166.351562 Z M 33.519531 173.460938 L 36.90625 173.460938 L 36.90625 169.90625 L 33.519531 169.90625 Z M 36.90625 166.308594 L 43.683594 166.308594 L 43.683594 162.710938 L 36.90625 162.710938 Z M 30.128906 162.710938 L 40.292969 162.710938 L 40.292969 159.113281 L 30.128906 159.113281 Z M 33.519531 159.113281 L 36.90625 159.113281 L 36.90625 155.515625 L 33.519531 155.515625 Z M 47.070312 166.351562 L 53.847656 166.351562 L 53.847656 162.753906 L 47.070312 162.753906 Z M 50.460938 169.863281 L 60.625 169.863281 L 60.625 166.351562 L 50.460938 166.351562 Z M 57.234375 166.308594 L 64.011719 166.308594 L 64.011719 162.710938 L 57.234375 162.710938 Z M 50.460938 162.710938 L 60.625 162.710938 L 60.625 159.113281 L 50.460938 159.113281 Z M 53.847656 159.113281 L 57.234375 159.113281 L 57.234375 155.515625 L 53.847656 155.515625 Z M 53.847656 173.460938 L 57.234375 173.460938 L 57.234375 169.90625 L 53.847656 169.90625 Z M -7.136719 166.351562 L -0.363281 166.351562 L -0.363281 162.753906 L -7.136719 162.753906 Z M -3.75 169.863281 L 6.414062 169.863281 L 6.414062 166.351562 L -3.75 166.351562 Z M -3.75 169.863281 "/>
<path style=" stroke:none;fill-rule:evenodd;fill:rgb(69.803923%,0%,0%);fill-opacity:1;" d="M 3.027344 166.308594 L 9.800781 166.308594 L 9.800781 162.710938 L 3.027344 162.710938 Z M -3.75 162.710938 L 6.414062 162.710938 L 6.414062 159.113281 L -3.75 159.113281 Z M -0.363281 159.113281 L 3.027344 159.113281 L 3.027344 155.519531 L -0.363281 155.519531 Z M -0.363281 173.460938 L 3.027344 173.460938 L 3.027344 169.90625 L -0.363281 169.90625 Z M -3.75 144.765625 L 9.800781 144.765625 L 9.800781 141.171875 L -3.75 141.171875 Z M 13.191406 144.765625 L 26.742188 144.765625 L 26.742188 141.171875 L 13.191406 141.171875 Z M 30.128906 144.765625 L 43.683594 144.765625 L 43.683594 141.171875 L 30.128906 141.171875 Z M 47.070312 144.765625 L 60.625 144.765625 L 60.625 141.171875 L 47.070312 141.171875 Z M 19.964844 137.570312 L 36.90625 137.570312 L 36.90625 134.015625 L 19.964844 134.015625 Z M -3.75 137.570312 L 13.191406 137.570312 L 13.191406 134.015625 L -3.75 134.015625 Z M 43.683594 137.570312 L 60.625 137.570312 L 60.625 134.015625 L 43.683594 134.015625 Z M 60.625 123.265625 L 64.011719 123.265625 L 64.011719 119.628906 L 60.625 119.628906 Z M -7.136719 123.265625 L -3.75 123.265625 L -3.75 119.628906 L -7.136719 119.628906 Z M 23.355469 105.277344 L 26.742188 105.277344 L 26.742188 108.875 L 23.355469 108.875 Z M 30.128906 105.277344 L 33.519531 105.277344 L 33.519531 108.875 L 30.128906 108.875 Z M 30.128906 98.125 L 33.519531 98.125 L 33.519531 101.722656 L 30.128906 101.722656 Z M 23.355469 98.125 L 26.742188 98.125 L 26.742188 101.722656 L 23.355469 101.722656 Z M -0.363281 195.003906 L 6.414062 195.003906 L 6.414062 198.601562 L -0.363281 198.601562 Z M 47.070312 126.820312 L 50.460938 126.820312 L 50.460938 123.222656 L 47.070312 123.222656 Z M 6.414062 126.820312 L 9.800781 126.820312 L 9.800781 123.222656 L 6.414062 123.222656 Z M 23.355469 123.222656 L 33.519531 123.222656 L 33.519531 126.820312 L 23.355469 126.820312 Z M 23.355469 123.222656 "/>
</g>
</svg>
