<svg xmlns="http://www.w3.org/2000/svg" width="200" height="104" viewBox="0 0 200 104">
    <path fill="#FFF" fill-rule="evenodd" d="M90.428 60.6l1.33 1.862C81.42 63.647 74 66.914 74 70c0 3.858 11.598 8 26 8s26-4.142 26-8c0-3.086-7.42-6.353-17.759-7.538l1.33-1.862C120.323 61.996 128 65.678 128 70c0 5.523-12.536 10-28 10s-28-4.477-28-10c0-4.322 7.678-8.004 18.428-9.4zM100 70C90 54.856 85 44.523 85 39c0-8.284 6.716-15 15-15 8.284 0 15 6.716 15 15 0 5.523-5 15.856-15 31zm0-3.657c8.664-13.418 13-22.654 13-27.343 0-7.18-5.82-13-13-13s-13 5.82-13 13c0 4.69 4.336 13.925 13 27.343zM100 44a6 6 0 1 1 0-12 6 6 0 0 1 0 12zm0-2a4 4 0 1 0 0-8 4 4 0 0 0 0 8z" opacity=".399"/>
</svg>
