<?xml version="1.0" encoding="UTF-8"?>
<svg xmlns="http://www.w3.org/2000/svg" xmlns:xlink="http://www.w3.org/1999/xlink" width="40" height="40" viewBox="0 0 40 40">
<path fill-rule="nonzero" fill="rgb(84.705882%, 0%, 15.294118%)" fill-opacity="1" d="M 20 40 C 31.03125 40 39.980469 31.066406 40 20.039062 L 40 20 L 20 17.5 L 0 20 C 0 31.046875 8.953125 40 20 40 Z M 20 40 "/>
<path fill-rule="nonzero" fill="rgb(0%, 32.156863%, 70.588235%)" fill-opacity="1" d="M 40 19.960938 L 40 20 L 0 20 C 0 8.953125 8.953125 0 20 0 C 31.03125 0 39.980469 8.933594 40 19.960938 Z M 40 19.960938 "/>
<path fill-rule="nonzero" fill="rgb(93.333333%, 93.333333%, 93.333333%)" fill-opacity="1" d="M 0 19.1875 C 0.207031 13.984375 2.40625 9.289062 5.851562 5.847656 L 20 20 L 5.851562 34.148438 C 2.40625 30.707031 0.207031 26.015625 0 20.8125 L 0 19.183594 Z M 0 19.1875 "/>
<path fill-rule="nonzero" fill="rgb(100%, 77.647059%, 20.784314%)" fill-opacity="1" d="M 5.542969 8.082031 L 6.429688 9.117188 L 7.6875 8.59375 L 6.976562 9.757812 L 7.859375 10.792969 L 6.535156 10.472656 L 5.824219 11.636719 L 5.714844 10.277344 L 4.390625 9.960938 L 5.648438 9.4375 Z M 5.542969 8.082031 "/>
<path fill-rule="nonzero" fill="rgb(100%, 77.647059%, 20.784314%)" fill-opacity="1" d="M 5.542969 31.921875 L 5.652344 30.5625 L 4.390625 30.039062 L 5.714844 29.722656 L 5.824219 28.363281 L 6.535156 29.527344 L 7.859375 29.207031 L 6.976562 30.246094 L 7.6875 31.40625 L 6.429688 30.882812 Z M 5.542969 31.921875 "/>
<path fill-rule="nonzero" fill="rgb(100%, 77.647059%, 20.784314%)" fill-opacity="1" d="M 18.25 20 L 16.953125 20.421875 L 16.953125 21.78125 L 16.152344 20.679688 L 14.859375 21.101562 L 15.660156 20 L 14.859375 18.898438 L 16.152344 19.320312 L 16.953125 18.21875 L 16.953125 19.578125 Z M 18.25 20 "/>
<path fill-rule="nonzero" fill="rgb(100%, 77.647059%, 20.784314%)" fill-opacity="1" d="M 8.34375 14.4375 L 8.652344 14.75 L 8.191406 17.070312 C 8.578125 17.148438 8.9375 17.300781 9.253906 17.511719 L 10.570312 15.542969 L 11.007812 15.542969 L 9.410156 17.625 C 9.460938 17.664062 9.511719 17.703125 9.558594 17.746094 L 11.492188 15.542969 L 12.035156 15.542969 L 12.035156 16.085938 L 9.832031 18.019531 C 9.875 18.066406 9.914062 18.117188 9.953125 18.167969 L 12.035156 16.570312 L 12.035156 17.007812 L 10.066406 18.324219 C 10.277344 18.640625 10.429688 19 10.507812 19.386719 L 12.828125 18.925781 L 13.140625 19.234375 L 10.539062 19.578125 C 10.546875 19.640625 10.550781 19.703125 10.558594 19.769531 L 13.480469 19.578125 L 13.867188 19.960938 L 13.480469 20.34375 L 10.558594 20.152344 C 10.550781 20.21875 10.546875 20.28125 10.539062 20.347656 L 13.140625 20.6875 L 12.828125 21 L 10.507812 20.535156 C 10.429688 20.921875 10.277344 21.28125 10.066406 21.597656 L 12.035156 22.914062 L 12.035156 23.351562 L 9.953125 21.753906 C 9.914062 21.804688 9.875 21.855469 9.832031 21.902344 L 12.035156 23.835938 L 12.035156 24.378906 L 11.492188 24.378906 L 9.558594 22.175781 C 9.511719 22.21875 9.460938 22.257812 9.410156 22.296875 L 11.007812 24.378906 L 10.570312 24.378906 L 9.253906 22.410156 C 8.9375 22.621094 8.578125 22.773438 8.191406 22.851562 L 8.652344 25.175781 L 8.34375 25.484375 L 8 22.882812 C 7.9375 22.890625 7.875 22.898438 7.808594 22.902344 L 8 25.828125 L 7.617188 26.210938 L 7.230469 25.828125 L 7.425781 22.902344 C 7.359375 22.898438 7.296875 22.890625 7.230469 22.882812 L 6.890625 25.484375 L 6.578125 25.175781 L 7.042969 22.851562 C 6.65625 22.773438 6.296875 22.621094 5.980469 22.410156 L 4.664062 24.378906 L 4.226562 24.378906 L 5.824219 22.296875 C 5.773438 22.257812 5.722656 22.21875 5.675781 22.175781 L 3.742188 24.378906 L 3.195312 24.378906 L 3.195312 23.835938 L 5.402344 21.902344 C 5.359375 21.855469 5.316406 21.804688 5.277344 21.753906 L 3.199219 23.351562 L 3.199219 22.914062 L 5.167969 21.597656 C 4.953125 21.28125 4.804688 20.921875 4.726562 20.535156 L 2.402344 21 L 2.09375 20.6875 L 4.695312 20.347656 C 4.6875 20.28125 4.679688 20.21875 4.675781 20.152344 L 1.75 20.34375 L 1.367188 19.960938 L 1.75 19.578125 L 4.675781 19.769531 C 4.679688 19.703125 4.6875 19.640625 4.695312 19.578125 L 2.09375 19.234375 L 2.402344 18.925781 L 4.726562 19.386719 C 4.804688 19 4.953125 18.640625 5.167969 18.324219 L 3.199219 17.007812 L 3.199219 16.570312 L 5.277344 18.167969 C 5.316406 18.117188 5.359375 18.066406 5.402344 18.019531 L 3.199219 16.085938 L 3.199219 15.542969 L 3.742188 15.542969 L 5.675781 17.746094 C 5.722656 17.703125 5.773438 17.664062 5.824219 17.625 L 4.226562 15.542969 L 4.664062 15.542969 L 5.980469 17.511719 C 6.296875 17.300781 6.65625 17.148438 7.042969 17.070312 L 6.578125 14.75 L 6.890625 14.4375 L 7.230469 17.039062 C 7.296875 17.03125 7.359375 17.023438 7.425781 17.019531 L 7.230469 14.09375 L 7.617188 13.710938 L 8 14.09375 L 7.808594 17.019531 C 7.875 17.023438 7.9375 17.03125 8 17.039062 Z M 8.34375 14.4375 "/>
</svg>
