<?xml version="1.0" encoding="UTF-8"?>
<svg xmlns="http://www.w3.org/2000/svg" xmlns:xlink="http://www.w3.org/1999/xlink" width="20" height="20" viewBox="0 0 20 20">
<path fill-rule="nonzero" fill="rgb(84.705882%, 0%, 15.294118%)" fill-opacity="1" d="M 10 20 C 15.515625 20 19.988281 15.535156 20 10.019531 L 20 10 L 10 8.75 L 0 10 C 0 15.523438 4.476562 20 10 20 Z M 10 20 "/>
<path fill-rule="nonzero" fill="rgb(0%, 32.156863%, 70.588235%)" fill-opacity="1" d="M 20 9.980469 L 20 10 L 0 10 C 0 4.476562 4.476562 0 10 0 C 15.515625 0 19.988281 4.464844 20 9.980469 Z M 20 9.980469 "/>
<path fill-rule="nonzero" fill="rgb(93.333333%, 93.333333%, 93.333333%)" fill-opacity="1" d="M 0 9.59375 C 0.105469 6.992188 1.203125 4.644531 2.925781 2.925781 L 10 10 L 2.925781 17.074219 C 1.203125 15.355469 0.105469 13.007812 0 10.40625 Z M 0 9.59375 "/>
<path fill-rule="nonzero" fill="rgb(100%, 77.647059%, 20.784314%)" fill-opacity="1" d="M 2.773438 4.039062 L 3.214844 4.558594 L 3.84375 4.296875 L 3.488281 4.878906 L 3.929688 5.394531 L 3.265625 5.238281 L 2.910156 5.816406 L 2.859375 5.140625 L 2.195312 4.980469 L 2.824219 4.71875 Z M 2.773438 4.039062 "/>
<path fill-rule="nonzero" fill="rgb(100%, 77.647059%, 20.784314%)" fill-opacity="1" d="M 2.773438 15.960938 L 2.824219 15.28125 L 2.195312 15.019531 L 2.859375 14.863281 L 2.910156 14.183594 L 3.265625 14.761719 L 3.929688 14.605469 L 3.488281 15.121094 L 3.84375 15.703125 L 3.214844 15.441406 Z M 2.773438 15.960938 "/>
<path fill-rule="nonzero" fill="rgb(100%, 77.647059%, 20.784314%)" fill-opacity="1" d="M 9.125 10 L 8.476562 10.210938 L 8.476562 10.890625 L 8.078125 10.339844 L 7.429688 10.550781 L 7.828125 10 L 7.429688 9.449219 L 8.078125 9.660156 L 8.476562 9.109375 L 8.476562 9.789062 Z M 9.125 10 "/>
<path fill-rule="nonzero" fill="rgb(100%, 77.647059%, 20.784314%)" fill-opacity="1" d="M 4.171875 7.21875 L 4.328125 7.375 L 4.097656 8.535156 C 4.289062 8.574219 4.46875 8.648438 4.625 8.753906 L 5.285156 7.769531 L 5.503906 7.769531 L 4.707031 8.8125 C 4.730469 8.832031 4.753906 8.851562 4.78125 8.871094 L 5.746094 7.769531 L 6.019531 7.769531 L 6.019531 8.042969 L 4.914062 9.007812 C 4.9375 9.035156 4.957031 9.058594 4.976562 9.082031 L 6.019531 8.285156 L 6.019531 8.503906 L 5.035156 9.160156 C 5.140625 9.320312 5.214844 9.5 5.253906 9.691406 L 6.414062 9.460938 L 6.570312 9.617188 L 5.269531 9.789062 C 5.273438 9.820312 5.277344 9.851562 5.277344 9.882812 L 6.742188 9.789062 L 6.933594 9.980469 L 6.742188 10.171875 L 5.277344 10.078125 C 5.277344 10.109375 5.273438 10.140625 5.269531 10.171875 L 6.570312 10.34375 L 6.414062 10.5 L 5.253906 10.269531 C 5.214844 10.460938 5.140625 10.640625 5.035156 10.800781 L 6.019531 11.457031 L 6.019531 11.675781 L 4.976562 10.878906 C 4.957031 10.902344 4.9375 10.929688 4.914062 10.953125 L 6.019531 11.917969 L 6.019531 12.191406 L 5.746094 12.191406 L 4.78125 11.089844 C 4.753906 11.109375 4.730469 11.128906 4.707031 11.148438 L 5.503906 12.191406 L 5.285156 12.191406 L 4.625 11.207031 C 4.46875 11.3125 4.289062 11.386719 4.097656 11.425781 L 4.328125 12.585938 L 4.171875 12.742188 L 4 11.441406 C 3.96875 11.445312 3.9375 11.449219 3.90625 11.449219 L 4 12.914062 L 3.808594 13.105469 L 3.617188 12.914062 L 3.710938 11.449219 C 3.679688 11.449219 3.648438 11.445312 3.617188 11.441406 L 3.445312 12.742188 L 3.289062 12.585938 L 3.519531 11.425781 C 3.328125 11.386719 3.148438 11.3125 2.988281 11.207031 L 2.332031 12.191406 L 2.113281 12.191406 L 2.910156 11.148438 C 2.886719 11.128906 2.859375 11.109375 2.835938 11.089844 L 1.871094 12.191406 L 1.597656 12.191406 L 1.597656 11.917969 L 2.699219 10.953125 C 2.679688 10.929688 2.660156 10.902344 2.640625 10.878906 L 1.597656 11.675781 L 1.597656 11.457031 L 2.582031 10.800781 C 2.476562 10.640625 2.402344 10.460938 2.363281 10.269531 L 1.203125 10.5 L 1.046875 10.34375 L 2.347656 10.171875 C 2.34375 10.140625 2.339844 10.109375 2.339844 10.078125 L 0.875 10.171875 L 0.683594 9.980469 L 0.875 9.789062 L 2.339844 9.882812 C 2.339844 9.851562 2.34375 9.820312 2.347656 9.789062 L 1.046875 9.617188 L 1.203125 9.460938 L 2.363281 9.691406 C 2.402344 9.5 2.476562 9.320312 2.582031 9.160156 L 1.597656 8.503906 L 1.597656 8.285156 L 2.640625 9.082031 C 2.660156 9.058594 2.679688 9.035156 2.699219 9.007812 L 1.597656 8.042969 L 1.597656 7.769531 L 1.871094 7.769531 L 2.835938 8.871094 C 2.859375 8.851562 2.886719 8.832031 2.910156 8.8125 L 2.113281 7.769531 L 2.332031 7.769531 L 2.988281 8.753906 C 3.148438 8.648438 3.328125 8.574219 3.519531 8.535156 L 3.289062 7.375 L 3.445312 7.21875 L 3.617188 8.519531 C 3.648438 8.515625 3.679688 8.511719 3.710938 8.511719 L 3.617188 7.046875 L 3.808594 6.855469 L 4 7.046875 L 3.90625 8.511719 C 3.9375 8.511719 3.96875 8.515625 4 8.519531 Z M 4.171875 7.21875 "/>
</svg>
