<?xml version="1.0" encoding="UTF-8"?>
<svg xmlns="http://www.w3.org/2000/svg" xmlns:xlink="http://www.w3.org/1999/xlink" width="60" height="60" viewBox="0 0 60 60">
<path fill-rule="nonzero" fill="rgb(84.705882%, 0%, 15.294118%)" fill-opacity="1" d="M 30 60 C 46.550781 60 59.96875 46.601562 60 30.058594 L 60 30 L 30 26.25 L 0 30 C 0 46.566406 13.433594 60 30 60 Z M 30 60 "/>
<path fill-rule="nonzero" fill="rgb(0%, 32.156863%, 70.588235%)" fill-opacity="1" d="M 60 29.941406 L 60 30 L 0 30 C 0 13.433594 13.433594 0 30 0 C 46.550781 0 59.96875 13.398438 60 29.941406 Z M 60 29.941406 "/>
<path fill-rule="nonzero" fill="rgb(93.333333%, 93.333333%, 93.333333%)" fill-opacity="1" d="M 0 28.777344 C 0.3125 20.972656 3.605469 13.9375 8.773438 8.773438 L 30 30 L 8.773438 51.222656 C 3.605469 46.0625 0.3125 39.023438 0 31.21875 Z M 0 28.777344 "/>
<path fill-rule="nonzero" fill="rgb(100%, 77.647059%, 20.784314%)" fill-opacity="1" d="M 8.316406 12.121094 L 9.640625 13.675781 L 11.53125 12.890625 L 10.460938 14.636719 L 11.789062 16.1875 L 9.800781 15.710938 L 8.734375 17.453125 L 8.574219 15.417969 L 6.585938 14.941406 L 8.476562 14.15625 Z M 8.316406 12.121094 "/>
<path fill-rule="nonzero" fill="rgb(100%, 77.647059%, 20.784314%)" fill-opacity="1" d="M 8.316406 47.878906 L 8.476562 45.84375 L 6.585938 45.0625 L 8.574219 44.585938 L 8.734375 42.546875 L 9.800781 44.289062 L 11.789062 43.8125 L 10.460938 45.367188 L 11.53125 47.109375 L 9.640625 46.328125 Z M 8.316406 47.878906 "/>
<path fill-rule="nonzero" fill="rgb(100%, 77.647059%, 20.784314%)" fill-opacity="1" d="M 27.375 30 L 25.433594 30.632812 L 25.433594 32.675781 L 24.230469 31.023438 L 22.289062 31.652344 L 23.488281 30 L 22.289062 28.347656 L 24.230469 28.976562 L 25.433594 27.324219 L 25.433594 29.367188 Z M 27.375 30 "/>
<path fill-rule="nonzero" fill="rgb(100%, 77.647059%, 20.784314%)" fill-opacity="1" d="M 12.515625 21.65625 L 12.980469 22.121094 L 12.289062 25.605469 C 12.867188 25.722656 13.40625 25.949219 13.878906 26.265625 L 15.855469 23.3125 L 16.511719 23.3125 L 14.117188 26.433594 C 14.191406 26.492188 14.265625 26.554688 14.339844 26.617188 L 17.238281 23.3125 L 18.054688 23.3125 L 18.054688 24.128906 L 14.746094 27.027344 C 14.8125 27.101562 14.871094 27.175781 14.929688 27.25 L 18.054688 24.855469 L 18.054688 25.511719 L 15.101562 27.484375 C 15.417969 27.960938 15.644531 28.5 15.761719 29.078125 L 19.246094 28.386719 L 19.710938 28.851562 L 15.808594 29.363281 C 15.820312 29.460938 15.828125 29.554688 15.835938 29.652344 L 20.222656 29.363281 L 20.800781 29.941406 L 20.222656 30.519531 L 15.835938 30.230469 C 15.828125 30.328125 15.820312 30.421875 15.808594 30.519531 L 19.710938 31.03125 L 19.246094 31.496094 L 15.761719 30.804688 C 15.644531 31.382812 15.417969 31.921875 15.101562 32.398438 L 18.054688 34.371094 L 18.054688 35.027344 L 14.929688 32.632812 C 14.871094 32.707031 14.8125 32.785156 14.746094 32.855469 L 18.054688 35.753906 L 18.054688 36.570312 L 17.238281 36.570312 L 14.339844 33.265625 C 14.265625 33.328125 14.191406 33.390625 14.117188 33.449219 L 16.511719 36.570312 L 15.855469 36.570312 L 13.878906 33.617188 C 13.40625 33.933594 12.867188 34.164062 12.289062 34.277344 L 12.980469 37.761719 L 12.515625 38.226562 L 12 34.324219 C 11.90625 34.335938 11.8125 34.34375 11.714844 34.351562 L 12 38.738281 L 11.425781 39.316406 L 10.847656 38.738281 L 11.136719 34.351562 C 11.039062 34.34375 10.941406 34.335938 10.847656 34.324219 L 10.335938 38.226562 L 9.871094 37.761719 L 10.5625 34.277344 C 9.984375 34.164062 9.445312 33.933594 8.96875 33.617188 L 6.996094 36.570312 L 6.339844 36.570312 L 8.734375 33.449219 C 8.65625 33.390625 8.582031 33.328125 8.511719 33.265625 L 5.613281 36.570312 L 4.796875 36.570312 L 4.796875 35.753906 L 8.101562 32.855469 C 8.039062 32.785156 7.976562 32.707031 7.917969 32.632812 L 4.796875 35.027344 L 4.796875 34.371094 L 7.75 32.398438 C 7.433594 31.921875 7.203125 31.382812 7.089844 30.804688 L 3.605469 31.496094 L 3.140625 31.03125 L 7.042969 30.519531 C 7.03125 30.421875 7.019531 30.328125 7.015625 30.230469 L 2.625 30.519531 L 2.050781 29.941406 L 2.625 29.363281 L 7.015625 29.652344 C 7.019531 29.554688 7.03125 29.460938 7.042969 29.363281 L 3.140625 28.851562 L 3.605469 28.386719 L 7.089844 29.078125 C 7.203125 28.5 7.433594 27.960938 7.75 27.484375 L 4.796875 25.511719 L 4.796875 24.855469 L 7.917969 27.25 C 7.976562 27.175781 8.039062 27.101562 8.101562 27.027344 L 4.796875 24.128906 L 4.796875 23.3125 L 5.613281 23.3125 L 8.511719 26.617188 C 8.582031 26.554688 8.65625 26.492188 8.734375 26.433594 L 6.339844 23.3125 L 6.996094 23.3125 L 8.96875 26.265625 C 9.445312 25.949219 9.984375 25.722656 10.5625 25.605469 L 9.871094 22.121094 L 10.335938 21.65625 L 10.847656 25.558594 C 10.941406 25.546875 11.039062 25.539062 11.136719 25.53125 L 10.847656 21.144531 L 11.425781 20.566406 L 12 21.144531 L 11.714844 25.53125 C 11.8125 25.539062 11.90625 25.546875 12 25.558594 Z M 12.515625 21.65625 "/>
</svg>
