<?xml version="1.0" encoding="UTF-8"?>
<svg xmlns="http://www.w3.org/2000/svg" xmlns:xlink="http://www.w3.org/1999/xlink" width="60" height="60" viewBox="0 0 60 60">
<path fill-rule="nonzero" fill="rgb(0%, 13.333333%, 40%)" fill-opacity="1" d="M 60 30 C 60 46.566406 46.566406 60 30 60 C 13.433594 60 0 46.566406 0 30 L 30 0 C 46.566406 0 60 13.433594 60 30 Z M 60 30 "/>
<path fill-rule="nonzero" fill="rgb(0%, 13.333333%, 40%)" fill-opacity="1" d="M 30 0 L 30 30 L 0 30 C 0 13.429688 13.429688 0 30 0 Z M 30 0 "/>
<path fill-rule="nonzero" fill="rgb(93.333333%, 93.333333%, 93.333333%)" fill-opacity="1" d="M 25.496094 30 L 30 30 L 30 25.496094 L 16.488281 11.984375 L 30 11.984375 L 30 0 C 13.429688 0 0 13.429688 0 30 L 11.984375 30 L 11.984375 16.488281 Z M 25.496094 30 "/>
<path fill-rule="nonzero" fill="rgb(84.705882%, 0%, 15.294118%)" fill-opacity="1" d="M 30 8.980469 L 30 2.972656 L 16.960938 2.972656 C 10.867188 5.917969 5.917969 10.867188 2.972656 16.960938 L 2.972656 30 L 8.980469 30 L 8.980469 8.980469 Z M 30 8.980469 "/>
<path fill-rule="nonzero" fill="rgb(84.705882%, 0%, 15.294118%)" fill-opacity="1" d="M 30 26.996094 L 30 30 L 11.984375 11.984375 L 14.984375 11.984375 Z M 30 26.996094 "/>
<path fill-rule="nonzero" fill="rgb(93.333333%, 93.333333%, 93.333333%)" fill-opacity="1" d="M 45 16.425781 L 45.722656 18.648438 L 48.058594 18.648438 L 46.167969 20.019531 L 46.890625 22.242188 L 45 20.871094 L 43.109375 22.242188 L 43.832031 20.019531 L 41.941406 18.648438 L 44.277344 18.648438 Z M 45 16.425781 "/>
<path fill-rule="nonzero" fill="rgb(93.333333%, 93.333333%, 93.333333%)" fill-opacity="1" d="M 35.402344 20.402344 L 37.484375 21.460938 L 39.136719 19.808594 L 38.769531 22.117188 L 40.851562 23.179688 L 38.542969 23.542969 L 38.179688 25.851562 L 37.117188 23.769531 L 34.808594 24.136719 L 36.460938 22.484375 Z M 35.402344 20.402344 "/>
<path fill-rule="nonzero" fill="rgb(93.333333%, 93.333333%, 93.333333%)" fill-opacity="1" d="M 31.425781 30 L 33.648438 29.277344 L 33.648438 26.941406 L 35.019531 28.832031 L 37.242188 28.109375 L 35.871094 30 L 37.242188 31.890625 L 35.019531 31.167969 L 33.648438 33.058594 L 33.648438 30.722656 Z M 31.425781 30 "/>
<path fill-rule="nonzero" fill="rgb(93.333333%, 93.333333%, 93.333333%)" fill-opacity="1" d="M 35.402344 39.597656 L 36.460938 37.515625 L 34.808594 35.863281 L 37.117188 36.230469 L 38.179688 34.148438 L 38.542969 36.457031 L 40.851562 36.820312 L 38.769531 37.882812 L 39.136719 40.191406 L 37.484375 38.539062 Z M 35.402344 39.597656 "/>
<path fill-rule="nonzero" fill="rgb(93.333333%, 93.333333%, 93.333333%)" fill-opacity="1" d="M 45 43.574219 L 44.277344 41.351562 L 41.941406 41.351562 L 43.832031 39.980469 L 43.109375 37.757812 L 45 39.128906 L 46.890625 37.757812 L 46.167969 39.980469 L 48.058594 41.351562 L 45.722656 41.351562 Z M 45 43.574219 "/>
<path fill-rule="nonzero" fill="rgb(93.333333%, 93.333333%, 93.333333%)" fill-opacity="1" d="M 54.597656 39.597656 L 52.515625 38.539062 L 50.863281 40.191406 L 51.230469 37.882812 L 49.148438 36.820312 L 51.457031 36.457031 L 51.820312 34.148438 L 52.882812 36.230469 L 55.191406 35.863281 L 53.539062 37.515625 Z M 54.597656 39.597656 "/>
<path fill-rule="nonzero" fill="rgb(93.333333%, 93.333333%, 93.333333%)" fill-opacity="1" d="M 58.574219 30 L 56.351562 30.722656 L 56.351562 33.058594 L 54.980469 31.167969 L 52.757812 31.890625 L 54.128906 30 L 52.757812 28.109375 L 54.980469 28.832031 L 56.351562 26.941406 L 56.351562 29.277344 Z M 58.574219 30 "/>
<path fill-rule="nonzero" fill="rgb(93.333333%, 93.333333%, 93.333333%)" fill-opacity="1" d="M 54.597656 20.402344 L 53.539062 22.484375 L 55.191406 24.136719 L 52.882812 23.769531 L 51.820312 25.851562 L 51.457031 23.542969 L 49.148438 23.179688 L 51.230469 22.117188 L 50.863281 19.808594 L 52.515625 21.460938 Z M 54.597656 20.402344 "/>
</svg>
