<?xml version="1.0" encoding="UTF-8"?>
<svg xmlns="http://www.w3.org/2000/svg" xmlns:xlink="http://www.w3.org/1999/xlink" width="40" height="40" viewBox="0 0 40 40">
<path fill-rule="nonzero" fill="rgb(0%, 13.333333%, 40%)" fill-opacity="1" d="M 40 20 C 40 31.046875 31.046875 40 20 40 C 8.953125 40 0 31.046875 0 20 L 20 0 C 31.046875 0 40 8.953125 40 20 Z M 40 20 "/>
<path fill-rule="nonzero" fill="rgb(0%, 13.333333%, 40%)" fill-opacity="1" d="M 20 0 L 20 20 L 0 20 C 0 8.953125 8.953125 0 20 0 Z M 20 0 "/>
<path fill-rule="nonzero" fill="rgb(93.333333%, 93.333333%, 93.333333%)" fill-opacity="1" d="M 16.996094 20 L 20 20 L 20 16.996094 L 10.992188 7.988281 L 20 7.988281 L 20 0 C 8.953125 0 0 8.953125 0 20 L 7.988281 20 L 7.988281 10.992188 Z M 16.996094 20 "/>
<path fill-rule="nonzero" fill="rgb(84.705882%, 0%, 15.294118%)" fill-opacity="1" d="M 20 5.984375 L 20 1.984375 L 11.308594 1.984375 C 7.246094 3.945312 3.945312 7.246094 1.984375 11.308594 L 1.984375 20 L 5.984375 20 L 5.984375 5.984375 Z M 20 5.984375 "/>
<path fill-rule="nonzero" fill="rgb(84.705882%, 0%, 15.294118%)" fill-opacity="1" d="M 20 18 L 20 20 L 7.988281 7.988281 L 9.992188 7.988281 Z M 20 18 "/>
<path fill-rule="nonzero" fill="rgb(93.333333%, 93.333333%, 93.333333%)" fill-opacity="1" d="M 30 10.949219 L 30.480469 12.429688 L 32.039062 12.429688 L 30.777344 13.347656 L 31.261719 14.828125 L 30 13.914062 L 28.738281 14.828125 L 29.222656 13.347656 L 27.960938 12.429688 L 29.519531 12.429688 Z M 30 10.949219 "/>
<path fill-rule="nonzero" fill="rgb(93.333333%, 93.333333%, 93.333333%)" fill-opacity="1" d="M 23.601562 13.601562 L 24.988281 14.308594 L 26.089844 13.207031 L 25.847656 14.746094 L 27.234375 15.453125 L 25.695312 15.695312 L 25.453125 17.234375 L 24.746094 15.847656 L 23.207031 16.089844 L 24.308594 14.988281 Z M 23.601562 13.601562 "/>
<path fill-rule="nonzero" fill="rgb(93.333333%, 93.333333%, 93.333333%)" fill-opacity="1" d="M 20.949219 20 L 22.429688 19.519531 L 22.429688 17.960938 L 23.347656 19.222656 L 24.828125 18.738281 L 23.914062 20 L 24.828125 21.261719 L 23.347656 20.777344 L 22.429688 22.039062 L 22.429688 20.480469 Z M 20.949219 20 "/>
<path fill-rule="nonzero" fill="rgb(93.333333%, 93.333333%, 93.333333%)" fill-opacity="1" d="M 23.601562 26.398438 L 24.308594 25.011719 L 23.207031 23.910156 L 24.746094 24.152344 L 25.453125 22.765625 L 25.695312 24.304688 L 27.234375 24.546875 L 25.847656 25.253906 L 26.089844 26.792969 L 24.988281 25.691406 Z M 23.601562 26.398438 "/>
<path fill-rule="nonzero" fill="rgb(93.333333%, 93.333333%, 93.333333%)" fill-opacity="1" d="M 30 29.050781 L 29.519531 27.570312 L 27.960938 27.570312 L 29.222656 26.652344 L 28.738281 25.171875 L 30 26.085938 L 31.261719 25.171875 L 30.777344 26.652344 L 32.039062 27.570312 L 30.480469 27.570312 Z M 30 29.050781 "/>
<path fill-rule="nonzero" fill="rgb(93.333333%, 93.333333%, 93.333333%)" fill-opacity="1" d="M 36.398438 26.398438 L 35.011719 25.691406 L 33.910156 26.792969 L 34.152344 25.253906 L 32.765625 24.546875 L 34.304688 24.304688 L 34.546875 22.765625 L 35.253906 24.152344 L 36.792969 23.910156 L 35.691406 25.011719 Z M 36.398438 26.398438 "/>
<path fill-rule="nonzero" fill="rgb(93.333333%, 93.333333%, 93.333333%)" fill-opacity="1" d="M 39.050781 20 L 37.570312 20.480469 L 37.570312 22.039062 L 36.652344 20.777344 L 35.171875 21.261719 L 36.085938 20 L 35.171875 18.738281 L 36.652344 19.222656 L 37.570312 17.960938 L 37.570312 19.519531 Z M 39.050781 20 "/>
<path fill-rule="nonzero" fill="rgb(93.333333%, 93.333333%, 93.333333%)" fill-opacity="1" d="M 36.398438 13.601562 L 35.691406 14.988281 L 36.792969 16.089844 L 35.253906 15.847656 L 34.546875 17.234375 L 34.304688 15.695312 L 32.765625 15.453125 L 34.152344 14.746094 L 33.910156 13.207031 L 35.011719 14.308594 Z M 36.398438 13.601562 "/>
</svg>
