<?xml version="1.0" encoding="UTF-8"?>
<svg xmlns="http://www.w3.org/2000/svg" xmlns:xlink="http://www.w3.org/1999/xlink" width="20" height="20" viewBox="0 0 20 20">
<path fill-rule="nonzero" fill="rgb(0%, 13.333333%, 40%)" fill-opacity="1" d="M 20 10 C 20 15.523438 15.523438 20 10 20 C 4.476562 20 0 15.523438 0 10 L 10 0 C 15.523438 0 20 4.476562 20 10 Z M 20 10 "/>
<path fill-rule="nonzero" fill="rgb(0%, 13.333333%, 40%)" fill-opacity="1" d="M 10 0 L 10 10 L 0 10 C 0 4.476562 4.476562 0 10 0 Z M 10 0 "/>
<path fill-rule="nonzero" fill="rgb(93.333333%, 93.333333%, 93.333333%)" fill-opacity="1" d="M 8.5 10 L 10 10 L 10 8.5 L 5.496094 3.992188 L 10 3.992188 L 10 0 C 4.476562 0 0 4.476562 0 10 L 3.992188 10 L 3.992188 5.496094 Z M 8.5 10 "/>
<path fill-rule="nonzero" fill="rgb(84.705882%, 0%, 15.294118%)" fill-opacity="1" d="M 10 2.992188 L 10 0.992188 L 5.652344 0.992188 C 3.621094 1.972656 1.972656 3.621094 0.992188 5.652344 L 0.992188 10 L 2.992188 10 L 2.992188 2.992188 Z M 10 2.992188 "/>
<path fill-rule="nonzero" fill="rgb(84.705882%, 0%, 15.294118%)" fill-opacity="1" d="M 10 9 L 10 10 L 3.992188 3.992188 L 4.996094 3.992188 Z M 10 9 "/>
<path fill-rule="nonzero" fill="rgb(93.333333%, 93.333333%, 93.333333%)" fill-opacity="1" d="M 15 5.476562 L 15.242188 6.214844 L 16.019531 6.214844 L 15.390625 6.671875 L 15.628906 7.414062 L 15 6.957031 L 14.371094 7.414062 L 14.609375 6.671875 L 13.980469 6.214844 L 14.757812 6.214844 Z M 15 5.476562 "/>
<path fill-rule="nonzero" fill="rgb(93.333333%, 93.333333%, 93.333333%)" fill-opacity="1" d="M 11.800781 6.800781 L 12.496094 7.152344 L 13.046875 6.601562 L 12.921875 7.371094 L 13.617188 7.726562 L 12.847656 7.847656 L 12.726562 8.617188 L 12.371094 7.921875 L 11.601562 8.046875 L 12.152344 7.496094 Z M 11.800781 6.800781 "/>
<path fill-rule="nonzero" fill="rgb(93.333333%, 93.333333%, 93.333333%)" fill-opacity="1" d="M 10.476562 10 L 11.214844 9.757812 L 11.214844 8.980469 L 11.671875 9.609375 L 12.414062 9.371094 L 11.957031 10 L 12.414062 10.628906 L 11.671875 10.390625 L 11.214844 11.019531 L 11.214844 10.242188 Z M 10.476562 10 "/>
<path fill-rule="nonzero" fill="rgb(93.333333%, 93.333333%, 93.333333%)" fill-opacity="1" d="M 11.800781 13.199219 L 12.152344 12.503906 L 11.601562 11.953125 L 12.371094 12.078125 L 12.726562 11.382812 L 12.847656 12.152344 L 13.617188 12.273438 L 12.921875 12.628906 L 13.046875 13.398438 L 12.496094 12.847656 Z M 11.800781 13.199219 "/>
<path fill-rule="nonzero" fill="rgb(93.333333%, 93.333333%, 93.333333%)" fill-opacity="1" d="M 15 14.523438 L 14.757812 13.785156 L 13.980469 13.785156 L 14.609375 13.328125 L 14.371094 12.585938 L 15 13.042969 L 15.628906 12.585938 L 15.390625 13.328125 L 16.019531 13.785156 L 15.242188 13.785156 Z M 15 14.523438 "/>
<path fill-rule="nonzero" fill="rgb(93.333333%, 93.333333%, 93.333333%)" fill-opacity="1" d="M 18.199219 13.199219 L 17.503906 12.847656 L 16.953125 13.398438 L 17.078125 12.628906 L 16.382812 12.273438 L 17.152344 12.152344 L 17.273438 11.382812 L 17.628906 12.078125 L 18.398438 11.953125 L 17.847656 12.503906 Z M 18.199219 13.199219 "/>
<path fill-rule="nonzero" fill="rgb(93.333333%, 93.333333%, 93.333333%)" fill-opacity="1" d="M 19.523438 10 L 18.785156 10.242188 L 18.785156 11.019531 L 18.328125 10.390625 L 17.585938 10.628906 L 18.042969 10 L 17.585938 9.371094 L 18.328125 9.609375 L 18.785156 8.980469 L 18.785156 9.757812 Z M 19.523438 10 "/>
<path fill-rule="nonzero" fill="rgb(93.333333%, 93.333333%, 93.333333%)" fill-opacity="1" d="M 18.199219 6.800781 L 17.847656 7.496094 L 18.398438 8.046875 L 17.628906 7.921875 L 17.273438 8.617188 L 17.152344 7.847656 L 16.382812 7.726562 L 17.078125 7.371094 L 16.953125 6.601562 L 17.503906 7.152344 Z M 18.199219 6.800781 "/>
</svg>
