<?xml version="1.0" encoding="UTF-8"?>
<svg xmlns="http://www.w3.org/2000/svg" xmlns:xlink="http://www.w3.org/1999/xlink" width="60" height="60" viewBox="0 0 60 60">
<path fill-rule="nonzero" fill="rgb(63.529412%, 0%, 11.372549%)" fill-opacity="1" d="M 30 60 C 46.550781 60 59.96875 46.601562 60 30.058594 L 60 30 L 30 26.25 L 0 30 C 0 46.566406 13.433594 60 30 60 Z M 30 60 "/>
<path fill-rule="nonzero" fill="rgb(0%, 32.156863%, 70.588235%)" fill-opacity="1" d="M 60 29.941406 L 60 30 L 0 30 C 0 13.433594 13.433594 0 30 0 C 46.550781 0 59.96875 13.398438 60 29.941406 Z M 60 29.941406 "/>
<path fill-rule="nonzero" fill="rgb(93.333333%, 93.333333%, 93.333333%)" fill-opacity="1" d="M 41.25 38.4375 L 30 37.03125 L 18.75 38.4375 L 18.75 21.5625 L 41.25 21.5625 Z M 41.25 38.4375 "/>
<path fill-rule="nonzero" fill="rgb(0%, 32.156863%, 70.588235%)" fill-opacity="1" d="M 30 37.03125 C 33.105469 37.03125 35.625 34.511719 35.625 31.40625 C 35.625 28.300781 33.105469 25.78125 30 25.78125 C 26.894531 25.78125 24.375 28.300781 24.375 31.40625 C 24.375 34.511719 26.894531 37.03125 30 37.03125 Z M 30 37.03125 "/>
<path fill-rule="nonzero" fill="rgb(63.529412%, 0%, 11.372549%)" fill-opacity="1" d="M 30 34.21875 C 31.554688 34.21875 32.8125 32.960938 32.8125 31.40625 C 32.8125 29.851562 31.554688 28.59375 30 28.59375 C 28.445312 28.59375 27.1875 29.851562 27.1875 31.40625 C 27.1875 32.960938 28.445312 34.21875 30 34.21875 Z M 30 34.21875 "/>
<path fill-rule="nonzero" fill="rgb(93.333333%, 93.333333%, 93.333333%)" fill-opacity="1" d="M 26.023438 27.429688 C 27.078125 26.375 28.507812 25.78125 30 25.78125 C 31.492188 25.78125 32.921875 26.375 33.976562 27.429688 L 30 31.40625 Z M 26.023438 27.429688 "/>
<path fill-rule="nonzero" fill="rgb(28.627451%, 43.137255%, 17.647059%)" fill-opacity="1" d="M 25.78125 24.375 L 34.21875 24.375 L 30 28.59375 Z M 25.78125 24.375 "/>
<path fill-rule="nonzero" fill="rgb(100%, 77.647059%, 20.784314%)" fill-opacity="1" d="M 28.59375 27.1875 L 31.40625 27.1875 L 31.40625 35.625 L 28.59375 35.625 Z M 28.59375 27.1875 "/>
<path fill-rule="nonzero" fill="rgb(28.627451%, 43.137255%, 17.647059%)" fill-opacity="1" d="M 34.570312 34.6875 L 25.429688 34.6875 L 18.75 38.4375 L 41.25 38.4375 Z M 34.570312 34.6875 "/>
</svg>
