<?xml version="1.0" encoding="UTF-8"?>
<svg xmlns="http://www.w3.org/2000/svg" xmlns:xlink="http://www.w3.org/1999/xlink" width="20" height="20" viewBox="0 0 20 20">
<path fill-rule="nonzero" fill="rgb(63.529412%, 0%, 11.372549%)" fill-opacity="1" d="M 10 20 C 15.515625 20 19.988281 15.535156 20 10.019531 L 20 10 L 10 8.75 L 0 10 C 0 15.523438 4.476562 20 10 20 Z M 10 20 "/>
<path fill-rule="nonzero" fill="rgb(0%, 32.156863%, 70.588235%)" fill-opacity="1" d="M 20 9.980469 L 20 10 L 0 10 C 0 4.476562 4.476562 0 10 0 C 15.515625 0 19.988281 4.464844 20 9.980469 Z M 20 9.980469 "/>
<path fill-rule="nonzero" fill="rgb(93.333333%, 93.333333%, 93.333333%)" fill-opacity="1" d="M 13.75 12.8125 L 10 12.34375 L 6.25 12.8125 L 6.25 7.1875 L 13.75 7.1875 Z M 13.75 12.8125 "/>
<path fill-rule="nonzero" fill="rgb(0%, 32.156863%, 70.588235%)" fill-opacity="1" d="M 10 12.34375 C 11.035156 12.34375 11.875 11.503906 11.875 10.46875 C 11.875 9.433594 11.035156 8.59375 10 8.59375 C 8.964844 8.59375 8.125 9.433594 8.125 10.46875 C 8.125 11.503906 8.964844 12.34375 10 12.34375 Z M 10 12.34375 "/>
<path fill-rule="nonzero" fill="rgb(63.529412%, 0%, 11.372549%)" fill-opacity="1" d="M 10 11.40625 C 10.519531 11.40625 10.9375 10.988281 10.9375 10.46875 C 10.9375 9.949219 10.519531 9.53125 10 9.53125 C 9.480469 9.53125 9.0625 9.949219 9.0625 10.46875 C 9.0625 10.988281 9.480469 11.40625 10 11.40625 Z M 10 11.40625 "/>
<path fill-rule="nonzero" fill="rgb(93.333333%, 93.333333%, 93.333333%)" fill-opacity="1" d="M 8.675781 9.144531 C 9.027344 8.792969 9.503906 8.59375 10 8.59375 C 10.496094 8.59375 10.972656 8.792969 11.324219 9.144531 L 10 10.46875 Z M 8.675781 9.144531 "/>
<path fill-rule="nonzero" fill="rgb(28.627451%, 43.137255%, 17.647059%)" fill-opacity="1" d="M 8.59375 8.125 L 11.40625 8.125 L 10 9.53125 Z M 8.59375 8.125 "/>
<path fill-rule="nonzero" fill="rgb(100%, 77.647059%, 20.784314%)" fill-opacity="1" d="M 9.53125 9.0625 L 10.46875 9.0625 L 10.46875 11.875 L 9.53125 11.875 Z M 9.53125 9.0625 "/>
<path fill-rule="nonzero" fill="rgb(28.627451%, 43.137255%, 17.647059%)" fill-opacity="1" d="M 11.523438 11.5625 L 8.476562 11.5625 L 6.25 12.8125 L 13.75 12.8125 Z M 11.523438 11.5625 "/>
</svg>
