<?xml version="1.0" encoding="UTF-8"?>
<svg xmlns="http://www.w3.org/2000/svg" xmlns:xlink="http://www.w3.org/1999/xlink" width="40" height="40" viewBox="0 0 40 40">
<path fill-rule="nonzero" fill="rgb(63.529412%, 0%, 11.372549%)" fill-opacity="1" d="M 20 40 C 31.03125 40 39.980469 31.066406 40 20.039062 L 40 20 L 20 17.5 L 0 20 C 0 31.046875 8.953125 40 20 40 Z M 20 40 "/>
<path fill-rule="nonzero" fill="rgb(0%, 32.156863%, 70.588235%)" fill-opacity="1" d="M 40 19.960938 L 40 20 L 0 20 C 0 8.953125 8.953125 0 20 0 C 31.03125 0 39.980469 8.933594 40 19.960938 Z M 40 19.960938 "/>
<path fill-rule="nonzero" fill="rgb(93.333333%, 93.333333%, 93.333333%)" fill-opacity="1" d="M 27.5 25.625 L 20 24.6875 L 12.5 25.625 L 12.5 14.375 L 27.5 14.375 Z M 27.5 25.625 "/>
<path fill-rule="nonzero" fill="rgb(0%, 32.156863%, 70.588235%)" fill-opacity="1" d="M 20 24.6875 C 22.070312 24.6875 23.75 23.007812 23.75 20.9375 C 23.75 18.867188 22.070312 17.1875 20 17.1875 C 17.929688 17.1875 16.25 18.867188 16.25 20.9375 C 16.25 23.007812 17.929688 24.6875 20 24.6875 Z M 20 24.6875 "/>
<path fill-rule="nonzero" fill="rgb(63.529412%, 0%, 11.372549%)" fill-opacity="1" d="M 20 22.8125 C 21.035156 22.8125 21.875 21.972656 21.875 20.9375 C 21.875 19.902344 21.035156 19.0625 20 19.0625 C 18.964844 19.0625 18.125 19.902344 18.125 20.9375 C 18.125 21.972656 18.964844 22.8125 20 22.8125 Z M 20 22.8125 "/>
<path fill-rule="nonzero" fill="rgb(93.333333%, 93.333333%, 93.333333%)" fill-opacity="1" d="M 17.347656 18.285156 C 18.050781 17.582031 19.003906 17.1875 20 17.1875 C 20.996094 17.1875 21.949219 17.582031 22.652344 18.285156 L 20 20.9375 Z M 17.347656 18.285156 "/>
<path fill-rule="nonzero" fill="rgb(28.627451%, 43.137255%, 17.647059%)" fill-opacity="1" d="M 17.1875 16.25 L 22.8125 16.25 L 20 19.0625 Z M 17.1875 16.25 "/>
<path fill-rule="nonzero" fill="rgb(100%, 77.647059%, 20.784314%)" fill-opacity="1" d="M 19.0625 18.125 L 20.9375 18.125 L 20.9375 23.75 L 19.0625 23.75 Z M 19.0625 18.125 "/>
<path fill-rule="nonzero" fill="rgb(28.627451%, 43.137255%, 17.647059%)" fill-opacity="1" d="M 23.046875 23.125 L 16.953125 23.125 L 12.5 25.625 L 27.5 25.625 Z M 23.046875 23.125 "/>
</svg>
