<?xml version="1.0" encoding="UTF-8"?>
<svg xmlns="http://www.w3.org/2000/svg" xmlns:xlink="http://www.w3.org/1999/xlink" width="20" height="20" viewBox="0 0 20 20">
<path fill-rule="evenodd" fill="rgb(20%, 20%, 20%)" fill-opacity="1" d="M 19.761719 12.171875 C 19.917969 11.472656 20 10.746094 20 10 C 20 9.253906 19.917969 8.527344 19.761719 7.824219 L 0.238281 7.824219 C 0.0820312 8.527344 0 9.253906 0 10 C 0 10.746094 0.0820312 11.472656 0.238281 12.171875 Z M 19.761719 12.171875 "/>
<path fill-rule="evenodd" fill="rgb(100%, 85.490196%, 26.666667%)" fill-opacity="1" d="M 16.363281 2.285156 C 17.613281 3.320312 18.609375 4.652344 19.242188 6.175781 L 0.757812 6.175781 C 1.386719 4.652344 2.382812 3.320312 3.636719 2.285156 Z M 16.363281 2.285156 "/>
<path fill-rule="evenodd" fill="rgb(100%, 85.490196%, 26.666667%)" fill-opacity="1" d="M 3.925781 17.945312 C 2.472656 16.832031 1.335938 15.332031 0.667969 13.597656 L 19.332031 13.597656 C 18.664062 15.332031 17.527344 16.832031 16.074219 17.945312 Z M 3.925781 17.945312 "/>
<path fill-rule="evenodd" fill="rgb(42.745098%, 64.705882%, 26.666667%)" fill-opacity="1" d="M 3.039062 2.820312 C 4.839844 1.074219 7.292969 0 10 0 C 12.707031 0 15.160156 1.074219 16.960938 2.820312 Z M 10 20 C 12.707031 20 15.160156 18.925781 16.960938 17.179688 L 3.039062 17.179688 C 4.839844 18.925781 7.292969 20 10 20 Z M 10 20 "/>
<path fill-rule="evenodd" fill="rgb(84.705882%, 0%, 15.294118%)" fill-opacity="1" d="M 19 5.640625 C 19.425781 6.515625 19.726562 7.464844 19.882812 8.460938 L 0.117188 8.460938 C 0.273438 7.464844 0.574219 6.515625 1 5.640625 L 19.003906 5.640625 Z M 19 14.359375 C 19.425781 13.484375 19.726562 12.535156 19.882812 11.539062 L 0.117188 11.539062 C 0.273438 12.535156 0.574219 13.484375 1 14.359375 L 19.003906 14.359375 Z M 19 14.359375 "/>
<path fill-rule="evenodd" fill="rgb(93.333333%, 93.333333%, 93.333333%)" fill-opacity="1" d="M 2.929688 17.070312 C 1.121094 15.261719 0 12.761719 0 10 C 0 7.238281 1.121094 4.738281 2.929688 2.929688 L 10 10 Z M 2.929688 17.070312 "/>
<path fill-rule="evenodd" fill="rgb(20%, 20%, 20%)" fill-opacity="1" d="M 2.929688 2.929688 C 3.132812 2.722656 3.347656 2.527344 3.570312 2.339844 L 11.230469 10 L 3.570312 17.660156 C 3.347656 17.472656 3.132812 17.277344 2.929688 17.070312 L 10 10 Z M 2.929688 2.929688 "/>
<path fill-rule="nonzero" fill="rgb(84.705882%, 0%, 15.294118%)" fill-opacity="1" d="M 4.019531 7.390625 L 4.667969 9.382812 L 6.761719 9.382812 L 5.066406 10.617188 L 5.714844 12.609375 L 4.019531 11.378906 L 2.324219 12.609375 L 2.972656 10.617188 L 1.277344 9.382812 L 3.371094 9.382812 Z M 4.019531 7.390625 "/>
<path fill-rule="nonzero" fill="rgb(100%, 77.647059%, 20.784314%)" fill-opacity="1" d="M 5.800781 10.164062 L 4.113281 9.566406 C 4.113281 9.566406 3.988281 8.394531 3.980469 8.355469 C 3.925781 8.054688 3.660156 7.824219 3.339844 7.824219 C 2.980469 7.824219 2.6875 8.117188 2.6875 8.476562 C 2.6875 8.539062 2.699219 8.59375 2.710938 8.648438 L 2.238281 9.125 L 3.082031 9.125 C 3.082031 10 2.429688 10 2.429688 10.871094 L 2.789062 11.738281 L 4.964844 11.738281 L 5.328125 10.871094 C 5.363281 10.785156 5.386719 10.699219 5.394531 10.613281 C 5.707031 10.488281 5.800781 10.164062 5.800781 10.164062 Z M 5.800781 10.164062 "/>
</svg>
