<?xml version="1.0" encoding="UTF-8"?>
<svg xmlns="http://www.w3.org/2000/svg" xmlns:xlink="http://www.w3.org/1999/xlink" width="60" height="60" viewBox="0 0 60 60">
<path fill-rule="evenodd" fill="rgb(20%, 20%, 20%)" fill-opacity="1" d="M 59.289062 36.523438 C 59.753906 34.421875 60 32.238281 60 30 C 60 27.761719 59.753906 25.578125 59.289062 23.476562 L 0.710938 23.476562 C 0.246094 25.578125 0 27.761719 0 30 C 0 32.238281 0.246094 34.421875 0.710938 36.523438 Z M 59.289062 36.523438 "/>
<path fill-rule="evenodd" fill="rgb(100%, 85.490196%, 26.666667%)" fill-opacity="1" d="M 49.089844 6.855469 C 52.84375 9.957031 55.832031 13.957031 57.726562 18.523438 L 2.273438 18.523438 C 4.164062 13.957031 7.152344 9.957031 10.910156 6.855469 Z M 49.089844 6.855469 "/>
<path fill-rule="evenodd" fill="rgb(100%, 85.490196%, 26.666667%)" fill-opacity="1" d="M 11.773438 53.832031 C 7.417969 50.496094 4.003906 45.992188 2 40.789062 L 58 40.789062 C 55.996094 45.992188 52.582031 50.496094 48.226562 53.832031 Z M 11.773438 53.832031 "/>
<path fill-rule="evenodd" fill="rgb(42.745098%, 64.705882%, 26.666667%)" fill-opacity="1" d="M 9.117188 8.460938 C 14.519531 3.222656 21.882812 0 30 0 C 38.117188 0 45.480469 3.222656 50.878906 8.460938 Z M 30 60 C 38.117188 60 45.480469 56.777344 50.878906 51.539062 L 9.117188 51.539062 C 14.519531 56.777344 21.882812 60 30 60 Z M 30 60 "/>
<path fill-rule="evenodd" fill="rgb(84.705882%, 0%, 15.294118%)" fill-opacity="1" d="M 57.007812 16.917969 C 58.28125 19.546875 59.183594 22.390625 59.644531 25.378906 L 0.355469 25.378906 C 0.816406 22.390625 1.71875 19.546875 2.996094 16.917969 Z M 57.003906 43.082031 C 58.28125 40.453125 59.183594 37.609375 59.644531 34.621094 L 0.355469 34.621094 C 0.816406 37.609375 1.71875 40.453125 2.996094 43.082031 L 57.007812 43.082031 Z M 57.003906 43.082031 "/>
<path fill-rule="evenodd" fill="rgb(93.333333%, 93.333333%, 93.333333%)" fill-opacity="1" d="M 8.785156 51.214844 C 3.359375 45.785156 0 38.285156 0 30 C 0 21.714844 3.359375 14.214844 8.785156 8.785156 L 30 30 Z M 8.785156 51.214844 "/>
<path fill-rule="evenodd" fill="rgb(20%, 20%, 20%)" fill-opacity="1" d="M 8.785156 8.785156 C 9.402344 8.171875 10.042969 7.582031 10.710938 7.023438 L 33.6875 30 L 10.710938 52.976562 C 10.042969 52.417969 9.402344 51.828125 8.785156 51.214844 L 30 30 Z M 8.785156 8.785156 "/>
<path fill-rule="nonzero" fill="rgb(84.705882%, 0%, 15.294118%)" fill-opacity="1" d="M 12.0625 22.175781 L 14.003906 28.152344 L 20.289062 28.152344 L 15.203125 31.847656 L 17.148438 37.828125 L 12.0625 34.132812 L 6.976562 37.828125 L 8.917969 31.847656 L 3.832031 28.152344 L 10.117188 28.152344 Z M 12.0625 22.175781 "/>
<path fill-rule="nonzero" fill="rgb(100%, 77.647059%, 20.784314%)" fill-opacity="1" d="M 17.40625 30.488281 L 12.34375 28.695312 C 12.34375 28.695312 11.96875 25.1875 11.945312 25.066406 C 11.773438 24.164062 10.980469 23.476562 10.023438 23.476562 C 8.941406 23.476562 8.066406 24.355469 8.066406 25.433594 C 8.066406 25.613281 8.09375 25.785156 8.136719 25.953125 L 6.71875 27.378906 L 9.242188 27.378906 C 9.242188 30 7.289062 30 7.289062 32.609375 L 8.371094 35.21875 L 14.894531 35.21875 L 15.980469 32.609375 C 16.089844 32.359375 16.15625 32.101562 16.183594 31.84375 C 17.121094 31.460938 17.40625 30.488281 17.40625 30.488281 Z M 17.40625 30.488281 "/>
</svg>
