<?xml version="1.0" encoding="UTF-8"?>
<svg xmlns="http://www.w3.org/2000/svg" xmlns:xlink="http://www.w3.org/1999/xlink" width="40" height="40" viewBox="0 0 40 40">
<path fill-rule="evenodd" fill="rgb(20%, 20%, 20%)" fill-opacity="1" d="M 39.527344 24.347656 C 39.835938 22.949219 40 21.492188 40 20 C 40 18.507812 39.835938 17.050781 39.527344 15.652344 L 0.472656 15.652344 C 0.164062 17.050781 0 18.507812 0 20 C 0 21.492188 0.164062 22.949219 0.472656 24.347656 Z M 39.527344 24.347656 "/>
<path fill-rule="evenodd" fill="rgb(100%, 85.490196%, 26.666667%)" fill-opacity="1" d="M 32.726562 4.570312 C 35.230469 6.636719 37.222656 9.304688 38.484375 12.347656 L 1.515625 12.347656 C 2.777344 9.304688 4.769531 6.636719 7.273438 4.570312 Z M 32.726562 4.570312 "/>
<path fill-rule="evenodd" fill="rgb(100%, 85.490196%, 26.666667%)" fill-opacity="1" d="M 7.851562 35.886719 C 4.945312 33.664062 2.667969 30.660156 1.332031 27.191406 L 38.667969 27.191406 C 37.328125 30.660156 35.054688 33.664062 32.148438 35.886719 Z M 7.851562 35.886719 "/>
<path fill-rule="evenodd" fill="rgb(42.745098%, 64.705882%, 26.666667%)" fill-opacity="1" d="M 6.078125 5.640625 C 9.679688 2.148438 14.589844 0 20 0 C 25.410156 0 30.320312 2.148438 33.921875 5.640625 Z M 20 40 C 25.410156 40 30.320312 37.851562 33.921875 34.359375 L 6.078125 34.359375 C 9.679688 37.851562 14.589844 40 20 40 Z M 20 40 "/>
<path fill-rule="evenodd" fill="rgb(84.705882%, 0%, 15.294118%)" fill-opacity="1" d="M 38.003906 11.28125 C 38.855469 13.03125 39.457031 14.925781 39.765625 16.917969 L 0.234375 16.917969 C 0.542969 14.925781 1.144531 13.03125 1.996094 11.28125 Z M 38.003906 28.71875 C 38.855469 26.96875 39.457031 25.074219 39.765625 23.082031 L 0.234375 23.082031 C 0.542969 25.074219 1.144531 26.96875 1.996094 28.71875 Z M 38.003906 28.71875 "/>
<path fill-rule="evenodd" fill="rgb(93.333333%, 93.333333%, 93.333333%)" fill-opacity="1" d="M 5.859375 34.140625 C 2.238281 30.523438 0 25.523438 0 20 C 0 14.476562 2.238281 9.476562 5.859375 5.859375 L 20 20 Z M 5.859375 34.140625 "/>
<path fill-rule="evenodd" fill="rgb(20%, 20%, 20%)" fill-opacity="1" d="M 5.859375 5.859375 C 6.269531 5.449219 6.695312 5.054688 7.140625 4.679688 L 22.460938 20 L 7.140625 35.320312 C 6.695312 34.945312 6.269531 34.554688 5.859375 34.140625 L 20 20 Z M 5.859375 5.859375 "/>
<path fill-rule="nonzero" fill="rgb(84.705882%, 0%, 15.294118%)" fill-opacity="1" d="M 8.039062 14.78125 L 9.335938 18.769531 L 13.527344 18.769531 L 10.136719 21.230469 L 11.429688 25.21875 L 8.039062 22.753906 L 4.648438 25.21875 L 5.945312 21.230469 L 2.554688 18.769531 L 6.746094 18.769531 Z M 8.039062 14.78125 "/>
<path fill-rule="nonzero" fill="rgb(100%, 77.647059%, 20.784314%)" fill-opacity="1" d="M 11.601562 20.324219 L 8.226562 19.128906 C 8.226562 19.128906 7.980469 16.789062 7.964844 16.710938 C 7.847656 16.109375 7.320312 15.652344 6.683594 15.652344 C 5.960938 15.652344 5.378906 16.234375 5.378906 16.957031 C 5.378906 17.074219 5.394531 17.191406 5.425781 17.300781 L 4.480469 18.253906 L 6.160156 18.253906 C 6.160156 20 4.859375 20 4.859375 21.738281 L 5.582031 23.476562 L 9.929688 23.476562 L 10.652344 21.738281 C 10.726562 21.570312 10.769531 21.398438 10.789062 21.226562 C 11.414062 20.976562 11.601562 20.324219 11.601562 20.324219 Z M 11.601562 20.324219 "/>
</svg>
