<?xml version="1.0" encoding="UTF-8"?>
<svg xmlns="http://www.w3.org/2000/svg" xmlns:xlink="http://www.w3.org/1999/xlink" width="20" height="20" viewBox="0 0 20 20">
<path fill-rule="nonzero" fill="rgb(28.627451%, 43.137255%, 17.647059%)" fill-opacity="1" d="M 20 10 C 20 15.523438 15.523438 20 10 20 C 4.476562 20 0 15.523438 0 10 C 0 4.476562 4.476562 0 10 0 C 15.523438 0 20 4.476562 20 10 Z M 20 10 "/>
<path fill-rule="evenodd" fill="rgb(20%, 20%, 20%)" fill-opacity="1" d="M 19.980469 10.625 C 19.992188 10.417969 20 10.210938 20 10 C 20 9.789062 19.992188 9.582031 19.980469 9.375 L 10.625 9.375 L 10.625 0.0195312 C 10.417969 0.0078125 10.210938 0 10 0 C 9.789062 0 9.582031 0.0078125 9.375 0.0195312 L 9.375 9.375 L 0.0195312 9.375 C 0.0078125 9.582031 0 9.789062 0 10 C 0 10.210938 0.0078125 10.417969 0.0195312 10.625 L 9.375 10.625 L 9.375 19.980469 C 9.582031 19.992188 9.789062 20 10 20 C 10.210938 20 10.417969 19.992188 10.625 19.980469 L 10.625 10.625 Z M 19.980469 10.625 "/>
<path fill-rule="evenodd" fill="rgb(93.333333%, 93.333333%, 93.333333%)" fill-opacity="1" d="M 11.875 0.175781 L 11.875 10.625 L 19.980469 10.625 C 19.953125 11.050781 19.902344 11.464844 19.824219 11.875 L 11.875 11.875 L 11.875 19.824219 C 11.464844 19.902344 11.050781 19.953125 10.625 19.980469 L 10.625 11.875 L 0.175781 11.875 C 0.0976562 11.464844 0.046875 11.050781 0.0195312 10.625 L 10.625 10.625 L 10.625 0.0195312 C 11.050781 0.046875 11.464844 0.0976562 11.875 0.175781 Z M 11.875 0.175781 "/>
<path fill-rule="evenodd" fill="rgb(100%, 85.490196%, 26.666667%)" fill-opacity="1" d="M 19.980469 9.375 L 9.375 9.375 L 9.375 19.980469 C 8.949219 19.953125 8.535156 19.902344 8.125 19.824219 L 8.125 9.375 L 0.0195312 9.375 C 0.046875 8.949219 0.0976562 8.535156 0.175781 8.125 L 8.125 8.125 L 8.125 0.175781 C 8.535156 0.0976562 8.949219 0.046875 9.375 0.0195312 L 9.375 8.125 L 19.824219 8.125 C 19.902344 8.535156 19.953125 8.949219 19.980469 9.375 Z M 19.980469 9.375 "/>
<path fill-rule="nonzero" fill="rgb(84.705882%, 0%, 15.294118%)" fill-opacity="1" d="M 10 14.78125 C 12.640625 14.78125 14.78125 12.640625 14.78125 10 C 14.78125 7.359375 12.640625 5.21875 10 5.21875 C 7.359375 5.21875 5.21875 7.359375 5.21875 10 C 5.21875 12.640625 7.359375 14.78125 10 14.78125 Z M 10 14.78125 "/>
<path fill-rule="nonzero" fill="rgb(28.627451%, 43.137255%, 17.647059%)" fill-opacity="1" d="M 11.089844 10.535156 C 10.734375 9.820312 10.273438 9.101562 10.273438 9.101562 C 10.273438 9.101562 10.28125 8.773438 10.28125 8.578125 C 10.28125 8.28125 10.042969 8.042969 9.75 8.042969 C 9.46875 8.042969 9.242188 8.257812 9.21875 8.53125 C 9 8.546875 8.824219 8.726562 8.824219 8.949219 C 8.824219 9.113281 8.917969 9.253906 9.050781 9.324219 C 9.117188 9.167969 9.25 9.046875 9.410156 8.988281 C 9.4375 9.011719 9.464844 9.03125 9.496094 9.046875 L 9.566406 9.078125 C 9.566406 9.078125 9.3125 9.792969 9.3125 10.179688 C 9.3125 11.257812 10.023438 11.589844 10.023438 11.589844 L 10.023438 11.601562 L 9.667969 11.957031 L 10.378906 11.957031 L 10.378906 11.246094 L 10.734375 11.601562 C 10.738281 11.59375 11.40625 11.171875 11.089844 10.535156 Z M 11.089844 10.535156 "/>
<path fill-rule="nonzero" fill="rgb(28.627451%, 43.137255%, 17.647059%)" fill-opacity="1" d="M 10 6.085938 L 10.160156 6.585938 L 10.6875 6.585938 L 10.261719 6.894531 L 10.421875 7.390625 L 10 7.082031 L 9.578125 7.390625 L 9.738281 6.894531 L 9.3125 6.585938 L 9.839844 6.585938 Z M 10 6.085938 "/>
<path fill-rule="nonzero" fill="rgb(28.627451%, 43.137255%, 17.647059%)" fill-opacity="1" d="M 7.699219 6.835938 L 8.125 7.140625 L 8.546875 6.835938 L 8.386719 7.332031 L 8.808594 7.640625 L 8.285156 7.640625 L 8.125 8.140625 L 7.960938 7.640625 L 7.4375 7.640625 L 7.863281 7.332031 Z M 7.699219 6.835938 "/>
<path fill-rule="nonzero" fill="rgb(28.627451%, 43.137255%, 17.647059%)" fill-opacity="1" d="M 6.277344 8.789062 L 6.800781 8.789062 L 6.964844 8.292969 L 7.125 8.789062 L 7.648438 8.789062 L 7.226562 9.097656 L 7.386719 9.597656 L 6.964844 9.289062 L 6.539062 9.597656 L 6.703125 9.097656 Z M 6.277344 8.789062 "/>
<path fill-rule="nonzero" fill="rgb(28.627451%, 43.137255%, 17.647059%)" fill-opacity="1" d="M 6.277344 11.210938 L 6.703125 10.902344 L 6.539062 10.402344 L 6.964844 10.710938 L 7.386719 10.402344 L 7.226562 10.902344 L 7.648438 11.210938 L 7.125 11.210938 L 6.964844 11.707031 L 6.800781 11.210938 Z M 6.277344 11.210938 "/>
<path fill-rule="nonzero" fill="rgb(28.627451%, 43.137255%, 17.647059%)" fill-opacity="1" d="M 7.699219 13.164062 L 7.863281 12.667969 L 7.4375 12.359375 L 7.960938 12.359375 L 8.125 11.863281 L 8.285156 12.359375 L 8.808594 12.359375 L 8.386719 12.667969 L 8.546875 13.164062 L 8.125 12.859375 Z M 7.699219 13.164062 "/>
<path fill-rule="nonzero" fill="rgb(28.627451%, 43.137255%, 17.647059%)" fill-opacity="1" d="M 10 13.914062 L 9.839844 13.414062 L 9.3125 13.414062 L 9.738281 13.105469 L 9.578125 12.609375 L 10 12.917969 L 10.421875 12.609375 L 10.261719 13.105469 L 10.6875 13.414062 L 10.160156 13.414062 Z M 10 13.914062 "/>
<path fill-rule="nonzero" fill="rgb(28.627451%, 43.137255%, 17.647059%)" fill-opacity="1" d="M 12.300781 13.164062 L 11.875 12.859375 L 11.453125 13.164062 L 11.613281 12.667969 L 11.191406 12.359375 L 11.714844 12.359375 L 11.875 11.863281 L 12.039062 12.359375 L 12.5625 12.359375 L 12.136719 12.667969 Z M 12.300781 13.164062 "/>
<path fill-rule="nonzero" fill="rgb(28.627451%, 43.137255%, 17.647059%)" fill-opacity="1" d="M 13.722656 11.210938 L 13.199219 11.210938 L 13.035156 11.707031 L 12.875 11.210938 L 12.351562 11.210938 L 12.773438 10.902344 L 12.613281 10.402344 L 13.035156 10.710938 L 13.460938 10.402344 L 13.296875 10.902344 Z M 13.722656 11.210938 "/>
<path fill-rule="nonzero" fill="rgb(28.627451%, 43.137255%, 17.647059%)" fill-opacity="1" d="M 13.722656 8.789062 L 13.296875 9.097656 L 13.460938 9.597656 L 13.035156 9.289062 L 12.613281 9.597656 L 12.773438 9.097656 L 12.351562 8.789062 L 12.875 8.789062 L 13.035156 8.292969 L 13.199219 8.789062 Z M 13.722656 8.789062 "/>
<path fill-rule="nonzero" fill="rgb(28.627451%, 43.137255%, 17.647059%)" fill-opacity="1" d="M 12.300781 6.835938 L 12.136719 7.332031 L 12.5625 7.640625 L 12.039062 7.640625 L 11.875 8.140625 L 11.714844 7.640625 L 11.191406 7.640625 L 11.613281 7.332031 L 11.453125 6.835938 L 11.875 7.140625 Z M 12.300781 6.835938 "/>
</svg>
