<?xml version="1.0" encoding="UTF-8"?>
<svg xmlns="http://www.w3.org/2000/svg" xmlns:xlink="http://www.w3.org/1999/xlink" width="60" height="60" viewBox="0 0 60 60">
<path fill-rule="nonzero" fill="rgb(28.627451%, 43.137255%, 17.647059%)" fill-opacity="1" d="M 60 30 C 60 46.570312 46.570312 60 30 60 C 13.429688 60 0 46.570312 0 30 C 0 13.429688 13.429688 0 30 0 C 46.570312 0 60 13.429688 60 30 Z M 60 30 "/>
<path fill-rule="evenodd" fill="rgb(20%, 20%, 20%)" fill-opacity="1" d="M 59.941406 31.875 C 59.980469 31.253906 60 30.628906 60 30 C 60 29.371094 59.980469 28.746094 59.941406 28.125 L 31.875 28.125 L 31.875 0.0585938 C 31.253906 0.0195312 30.628906 0 30 0 C 29.371094 0 28.746094 0.0195312 28.125 0.0585938 L 28.125 28.125 L 0.0585938 28.125 C 0.0195312 28.746094 0 29.371094 0 30 C 0 30.628906 0.0195312 31.253906 0.0585938 31.875 L 28.125 31.875 L 28.125 59.941406 C 28.746094 59.980469 29.371094 60 30 60 C 30.628906 60 31.253906 59.980469 31.875 59.941406 L 31.875 31.875 Z M 59.941406 31.875 "/>
<path fill-rule="evenodd" fill="rgb(93.333333%, 93.333333%, 93.333333%)" fill-opacity="1" d="M 35.625 0.527344 L 35.625 31.875 L 59.941406 31.875 C 59.863281 33.148438 59.707031 34.398438 59.472656 35.625 L 35.625 35.625 L 35.625 59.472656 C 34.398438 59.707031 33.148438 59.863281 31.875 59.941406 L 31.875 35.625 L 0.527344 35.625 C 0.292969 34.398438 0.136719 33.148438 0.0585938 31.875 L 31.875 31.875 L 31.875 0.0585938 C 33.148438 0.136719 34.398438 0.292969 35.625 0.527344 Z M 35.625 0.527344 "/>
<path fill-rule="evenodd" fill="rgb(100%, 85.490196%, 26.666667%)" fill-opacity="1" d="M 59.941406 28.125 L 28.125 28.125 L 28.125 59.941406 C 26.851562 59.863281 25.601562 59.707031 24.375 59.472656 L 24.375 28.125 L 0.0585938 28.125 C 0.136719 26.851562 0.292969 25.601562 0.527344 24.375 L 24.375 24.375 L 24.375 0.527344 C 25.601562 0.292969 26.851562 0.136719 28.125 0.0585938 L 28.125 24.375 L 59.472656 24.375 C 59.707031 25.601562 59.863281 26.851562 59.941406 28.125 Z M 59.941406 28.125 "/>
<path fill-rule="nonzero" fill="rgb(84.705882%, 0%, 15.294118%)" fill-opacity="1" d="M 30 44.347656 C 37.925781 44.347656 44.347656 37.925781 44.347656 30 C 44.347656 22.074219 37.925781 15.652344 30 15.652344 C 22.074219 15.652344 15.652344 22.074219 15.652344 30 C 15.652344 37.925781 22.074219 44.347656 30 44.347656 Z M 30 44.347656 "/>
<path fill-rule="nonzero" fill="rgb(28.627451%, 43.137255%, 17.647059%)" fill-opacity="1" d="M 33.269531 31.601562 C 32.203125 29.464844 30.816406 27.304688 30.816406 27.304688 C 30.816406 27.304688 30.847656 26.316406 30.847656 25.730469 C 30.847656 24.847656 30.132812 24.128906 29.25 24.128906 C 28.410156 24.128906 27.726562 24.773438 27.65625 25.59375 C 26.996094 25.636719 26.476562 26.183594 26.476562 26.851562 C 26.476562 27.339844 26.75 27.761719 27.15625 27.972656 C 27.355469 27.503906 27.75 27.136719 28.234375 26.96875 C 28.3125 27.035156 28.398438 27.089844 28.488281 27.140625 L 28.695312 27.238281 C 28.695312 27.238281 27.933594 29.382812 27.933594 30.535156 C 27.933594 33.769531 30.066406 34.769531 30.066406 34.769531 L 30.066406 34.800781 L 29 35.871094 L 31.136719 35.871094 L 31.136719 33.734375 L 32.203125 34.800781 C 32.210938 34.78125 34.222656 33.511719 33.269531 31.601562 Z M 33.269531 31.601562 "/>
<path fill-rule="nonzero" fill="rgb(28.627451%, 43.137255%, 17.647059%)" fill-opacity="1" d="M 30 18.261719 L 30.484375 19.757812 L 32.058594 19.757812 L 30.785156 20.679688 L 31.273438 22.175781 L 30 21.25 L 28.726562 22.175781 L 29.214844 20.679688 L 27.941406 19.757812 L 29.515625 19.757812 Z M 30 18.261719 "/>
<path fill-rule="nonzero" fill="rgb(28.627451%, 43.137255%, 17.647059%)" fill-opacity="1" d="M 23.101562 20.503906 L 24.371094 21.425781 L 25.644531 20.503906 L 25.15625 21.996094 L 26.429688 22.921875 L 24.855469 22.921875 L 24.371094 24.417969 L 23.886719 22.921875 L 22.3125 22.921875 L 23.585938 21.996094 Z M 23.101562 20.503906 "/>
<path fill-rule="nonzero" fill="rgb(28.627451%, 43.137255%, 17.647059%)" fill-opacity="1" d="M 18.835938 26.371094 L 20.40625 26.371094 L 20.894531 24.878906 L 21.378906 26.371094 L 22.949219 26.371094 L 21.679688 27.296875 L 22.164062 28.789062 L 20.894531 27.867188 L 19.621094 28.789062 L 20.105469 27.296875 Z M 18.835938 26.371094 "/>
<path fill-rule="nonzero" fill="rgb(28.627451%, 43.137255%, 17.647059%)" fill-opacity="1" d="M 18.835938 33.628906 L 20.105469 32.703125 L 19.621094 31.210938 L 20.894531 32.132812 L 22.164062 31.210938 L 21.679688 32.703125 L 22.949219 33.628906 L 21.378906 33.628906 L 20.894531 35.121094 L 20.40625 33.628906 Z M 18.835938 33.628906 "/>
<path fill-rule="nonzero" fill="rgb(28.627451%, 43.137255%, 17.647059%)" fill-opacity="1" d="M 23.101562 39.496094 L 23.585938 38.003906 L 22.3125 37.078125 L 23.886719 37.078125 L 24.371094 35.585938 L 24.855469 37.078125 L 26.429688 37.078125 L 25.15625 38.003906 L 25.644531 39.496094 L 24.371094 38.574219 Z M 23.101562 39.496094 "/>
<path fill-rule="nonzero" fill="rgb(28.627451%, 43.137255%, 17.647059%)" fill-opacity="1" d="M 30 41.738281 L 29.515625 40.246094 L 27.941406 40.246094 L 29.214844 39.320312 L 28.726562 37.824219 L 30 38.75 L 31.269531 37.824219 L 30.785156 39.320312 L 32.058594 40.246094 L 30.484375 40.246094 Z M 30 41.738281 "/>
<path fill-rule="nonzero" fill="rgb(28.627451%, 43.137255%, 17.647059%)" fill-opacity="1" d="M 36.898438 39.496094 L 35.628906 38.574219 L 34.355469 39.496094 L 34.84375 38.003906 L 33.570312 37.078125 L 35.144531 37.078125 L 35.628906 35.585938 L 36.113281 37.078125 L 37.6875 37.078125 L 36.414062 38.003906 Z M 36.898438 39.496094 "/>
<path fill-rule="nonzero" fill="rgb(28.627451%, 43.137255%, 17.647059%)" fill-opacity="1" d="M 41.164062 33.628906 L 39.59375 33.628906 L 39.105469 35.121094 L 38.621094 33.628906 L 37.050781 33.628906 L 38.320312 32.703125 L 37.835938 31.210938 L 39.105469 32.132812 L 40.378906 31.210938 L 39.894531 32.703125 Z M 41.164062 33.628906 "/>
<path fill-rule="nonzero" fill="rgb(28.627451%, 43.137255%, 17.647059%)" fill-opacity="1" d="M 41.164062 26.371094 L 39.894531 27.296875 L 40.378906 28.789062 L 39.105469 27.867188 L 37.835938 28.789062 L 38.320312 27.296875 L 37.050781 26.371094 L 38.621094 26.371094 L 39.105469 24.878906 L 39.59375 26.371094 Z M 41.164062 26.371094 "/>
<path fill-rule="nonzero" fill="rgb(28.627451%, 43.137255%, 17.647059%)" fill-opacity="1" d="M 36.898438 20.503906 L 36.414062 21.996094 L 37.6875 22.921875 L 36.113281 22.921875 L 35.628906 24.417969 L 35.144531 22.921875 L 33.570312 22.921875 L 34.84375 21.996094 L 34.355469 20.503906 L 35.628906 21.425781 Z M 36.898438 20.503906 "/>
</svg>
