<?xml version="1.0" encoding="UTF-8"?>
<svg xmlns="http://www.w3.org/2000/svg" xmlns:xlink="http://www.w3.org/1999/xlink" width="40" height="40" viewBox="0 0 40 40">
<path fill-rule="nonzero" fill="rgb(28.627451%, 43.137255%, 17.647059%)" fill-opacity="1" d="M 40 20 C 40 31.046875 31.046875 40 20 40 C 8.953125 40 0 31.046875 0 20 C 0 8.953125 8.953125 0 20 0 C 31.046875 0 40 8.953125 40 20 Z M 40 20 "/>
<path fill-rule="evenodd" fill="rgb(20%, 20%, 20%)" fill-opacity="1" d="M 39.960938 21.25 C 39.988281 20.835938 40 20.417969 40 20 C 40 19.582031 39.988281 19.164062 39.960938 18.75 L 21.25 18.75 L 21.25 0.0390625 C 20.835938 0.0117188 20.417969 0 20 0 C 19.582031 0 19.164062 0.0117188 18.75 0.0390625 L 18.75 18.75 L 0.0390625 18.75 C 0.0117188 19.164062 0 19.582031 0 20 C 0 20.417969 0.0117188 20.835938 0.0390625 21.25 L 18.75 21.25 L 18.75 39.960938 C 19.164062 39.988281 19.582031 40 20 40 C 20.417969 40 20.835938 39.988281 21.25 39.960938 L 21.25 21.25 Z M 39.960938 21.25 "/>
<path fill-rule="evenodd" fill="rgb(93.333333%, 93.333333%, 93.333333%)" fill-opacity="1" d="M 23.75 0.351562 L 23.75 21.25 L 39.960938 21.25 C 39.910156 22.097656 39.804688 22.933594 39.648438 23.75 L 23.75 23.75 L 23.75 39.648438 C 22.933594 39.804688 22.097656 39.910156 21.25 39.960938 L 21.25 23.75 L 0.351562 23.75 C 0.195312 22.933594 0.0898438 22.097656 0.0390625 21.25 L 21.25 21.25 L 21.25 0.0390625 C 22.097656 0.0898438 22.933594 0.195312 23.75 0.351562 Z M 23.75 0.351562 "/>
<path fill-rule="evenodd" fill="rgb(100%, 85.490196%, 26.666667%)" fill-opacity="1" d="M 39.960938 18.75 L 18.75 18.75 L 18.75 39.960938 C 17.902344 39.910156 17.066406 39.804688 16.25 39.648438 L 16.25 18.75 L 0.0390625 18.75 C 0.0898438 17.902344 0.195312 17.066406 0.351562 16.25 L 16.25 16.25 L 16.25 0.351562 C 17.066406 0.195312 17.902344 0.0898438 18.75 0.0390625 L 18.75 16.25 L 39.648438 16.25 C 39.804688 17.066406 39.910156 17.902344 39.960938 18.75 Z M 39.960938 18.75 "/>
<path fill-rule="nonzero" fill="rgb(84.705882%, 0%, 15.294118%)" fill-opacity="1" d="M 20 29.566406 C 25.28125 29.566406 29.566406 25.28125 29.566406 20 C 29.566406 14.71875 25.28125 10.433594 20 10.433594 C 14.71875 10.433594 10.433594 14.71875 10.433594 20 C 10.433594 25.28125 14.71875 29.566406 20 29.566406 Z M 20 29.566406 "/>
<path fill-rule="nonzero" fill="rgb(28.627451%, 43.137255%, 17.647059%)" fill-opacity="1" d="M 22.179688 21.066406 C 21.46875 19.644531 20.542969 18.203125 20.542969 18.203125 C 20.542969 18.203125 20.566406 17.546875 20.566406 17.152344 C 20.566406 16.566406 20.089844 16.085938 19.5 16.085938 C 18.941406 16.085938 18.484375 16.515625 18.4375 17.0625 C 17.996094 17.089844 17.648438 17.453125 17.648438 17.902344 C 17.648438 18.226562 17.835938 18.507812 18.101562 18.648438 C 18.238281 18.335938 18.5 18.089844 18.824219 17.980469 C 18.875 18.023438 18.933594 18.0625 18.992188 18.09375 L 19.128906 18.160156 C 19.128906 18.160156 18.621094 19.589844 18.621094 20.355469 C 18.621094 22.515625 20.046875 23.179688 20.046875 23.179688 L 20.046875 23.203125 L 19.332031 23.914062 L 20.757812 23.914062 L 20.757812 22.488281 L 21.46875 23.203125 C 21.472656 23.1875 22.816406 22.339844 22.179688 21.066406 Z M 22.179688 21.066406 "/>
<path fill-rule="nonzero" fill="rgb(28.627451%, 43.137255%, 17.647059%)" fill-opacity="1" d="M 20 12.175781 L 20.324219 13.171875 L 21.371094 13.171875 L 20.523438 13.785156 L 20.847656 14.78125 L 20 14.167969 L 19.152344 14.78125 L 19.476562 13.785156 L 18.628906 13.171875 L 19.675781 13.171875 Z M 20 12.175781 "/>
<path fill-rule="nonzero" fill="rgb(28.627451%, 43.137255%, 17.647059%)" fill-opacity="1" d="M 15.398438 13.667969 L 16.246094 14.285156 L 17.09375 13.667969 L 16.769531 14.664062 L 17.617188 15.28125 L 16.570312 15.28125 L 16.246094 16.277344 L 15.921875 15.28125 L 14.875 15.28125 L 15.722656 14.664062 Z M 15.398438 13.667969 "/>
<path fill-rule="nonzero" fill="rgb(28.627451%, 43.137255%, 17.647059%)" fill-opacity="1" d="M 12.558594 17.582031 L 13.605469 17.582031 L 13.929688 16.585938 L 14.253906 17.582031 L 15.300781 17.582031 L 14.453125 18.195312 L 14.777344 19.195312 L 13.929688 18.578125 L 13.082031 19.195312 L 13.40625 18.195312 Z M 12.558594 17.582031 "/>
<path fill-rule="nonzero" fill="rgb(28.627451%, 43.137255%, 17.647059%)" fill-opacity="1" d="M 12.558594 22.417969 L 13.40625 21.804688 L 13.082031 20.804688 L 13.929688 21.421875 L 14.777344 20.804688 L 14.453125 21.804688 L 15.300781 22.417969 L 14.253906 22.417969 L 13.929688 23.414062 L 13.605469 22.417969 Z M 12.558594 22.417969 "/>
<path fill-rule="nonzero" fill="rgb(28.627451%, 43.137255%, 17.647059%)" fill-opacity="1" d="M 15.398438 26.332031 L 15.722656 25.335938 L 14.875 24.71875 L 15.921875 24.71875 L 16.246094 23.722656 L 16.570312 24.71875 L 17.617188 24.71875 L 16.769531 25.335938 L 17.09375 26.332031 L 16.246094 25.714844 Z M 15.398438 26.332031 "/>
<path fill-rule="nonzero" fill="rgb(28.627451%, 43.137255%, 17.647059%)" fill-opacity="1" d="M 20 27.824219 L 19.675781 26.828125 L 18.628906 26.828125 L 19.476562 26.214844 L 19.152344 25.21875 L 20 25.832031 L 20.847656 25.21875 L 20.523438 26.214844 L 21.371094 26.828125 L 20.324219 26.828125 Z M 20 27.824219 "/>
<path fill-rule="nonzero" fill="rgb(28.627451%, 43.137255%, 17.647059%)" fill-opacity="1" d="M 24.601562 26.332031 L 23.753906 25.714844 L 22.90625 26.332031 L 23.230469 25.335938 L 22.382812 24.71875 L 23.429688 24.71875 L 23.753906 23.722656 L 24.078125 24.71875 L 25.125 24.71875 L 24.277344 25.335938 Z M 24.601562 26.332031 "/>
<path fill-rule="nonzero" fill="rgb(28.627451%, 43.137255%, 17.647059%)" fill-opacity="1" d="M 27.441406 22.417969 L 26.394531 22.417969 L 26.070312 23.414062 L 25.746094 22.417969 L 24.699219 22.417969 L 25.546875 21.804688 L 25.222656 20.804688 L 26.070312 21.421875 L 26.917969 20.804688 L 26.59375 21.804688 Z M 27.441406 22.417969 "/>
<path fill-rule="nonzero" fill="rgb(28.627451%, 43.137255%, 17.647059%)" fill-opacity="1" d="M 27.441406 17.582031 L 26.59375 18.195312 L 26.917969 19.195312 L 26.070312 18.578125 L 25.222656 19.195312 L 25.546875 18.195312 L 24.699219 17.582031 L 25.746094 17.582031 L 26.070312 16.585938 L 26.394531 17.582031 Z M 27.441406 17.582031 "/>
<path fill-rule="nonzero" fill="rgb(28.627451%, 43.137255%, 17.647059%)" fill-opacity="1" d="M 24.601562 13.667969 L 24.277344 14.664062 L 25.125 15.28125 L 24.078125 15.28125 L 23.753906 16.277344 L 23.429688 15.28125 L 22.382812 15.28125 L 23.230469 14.664062 L 22.90625 13.667969 L 23.753906 14.285156 Z M 24.601562 13.667969 "/>
</svg>
