<?xml version="1.0" encoding="UTF-8"?>
<svg xmlns="http://www.w3.org/2000/svg" xmlns:xlink="http://www.w3.org/1999/xlink" width="60" height="60" viewBox="0 0 60 60">
<path fill-rule="evenodd" fill="rgb(84.705882%, 0%, 15.294118%)" fill-opacity="1" d="M 58.136719 40.433594 C 59.339844 37.183594 60 33.667969 60 30 C 60 26.332031 59.339844 22.816406 58.136719 19.566406 L 1.863281 19.566406 C 0.660156 22.816406 0 26.332031 0 30 C 0 33.667969 0.660156 37.183594 1.863281 40.433594 Z M 58.136719 40.433594 "/>
<path fill-rule="evenodd" fill="rgb(20%, 54.117647%, 95.294118%)" fill-opacity="1" d="M 58.585938 20.871094 L 1.414062 20.871094 C 5.277344 8.765625 16.613281 0 30 0 C 43.386719 0 54.722656 8.765625 58.585938 20.871094 Z M 58.585938 20.871094 "/>
<path fill-rule="evenodd" fill="rgb(42.745098%, 64.705882%, 26.666667%)" fill-opacity="1" d="M 29.925781 60 C 16.574219 59.96875 5.269531 51.210938 1.414062 39.128906 L 58.585938 39.128906 C 54.730469 51.210938 43.425781 59.96875 30.074219 60 Z M 29.925781 60 "/>
<path fill-rule="evenodd" fill="rgb(93.333333%, 93.333333%, 93.333333%)" fill-opacity="1" d="M 59.289062 36.523438 C 59.753906 34.421875 60 32.238281 60 30 C 60 27.761719 59.753906 25.578125 59.289062 23.476562 L 0.710938 23.476562 C 0.246094 25.578125 0 27.761719 0 30 C 0 32.238281 0.246094 34.421875 0.710938 36.523438 Z M 59.289062 36.523438 "/>
<path fill-rule="nonzero" fill="rgb(93.333333%, 93.333333%, 93.333333%)" fill-opacity="1" d="M 13.710938 12.308594 C 13.710938 9.5 15.683594 7.152344 18.320312 6.578125 C 17.917969 6.488281 17.496094 6.441406 17.0625 6.441406 C 13.820312 6.441406 11.195312 9.066406 11.195312 12.308594 C 11.195312 15.550781 13.820312 18.179688 17.0625 18.179688 C 17.496094 18.179688 17.917969 18.132812 18.320312 18.042969 C 15.683594 17.464844 13.710938 15.121094 13.710938 12.308594 Z M 13.710938 12.308594 "/>
<path fill-rule="nonzero" fill="rgb(93.333333%, 93.333333%, 93.333333%)" fill-opacity="1" d="M 21.789062 14.976562 L 22.1875 16.199219 L 23.472656 16.199219 L 22.433594 16.957031 L 22.828125 18.179688 L 21.789062 17.421875 L 20.75 18.179688 L 21.148438 16.957031 L 20.105469 16.199219 L 21.390625 16.199219 Z M 21.789062 14.976562 "/>
<path fill-rule="nonzero" fill="rgb(93.333333%, 93.333333%, 93.333333%)" fill-opacity="1" d="M 25.894531 14.976562 L 26.292969 16.199219 L 27.578125 16.199219 L 26.535156 16.957031 L 26.933594 18.179688 L 25.894531 17.421875 L 24.851562 18.179688 L 25.25 16.957031 L 24.210938 16.199219 L 25.496094 16.199219 Z M 25.894531 14.976562 "/>
<path fill-rule="nonzero" fill="rgb(93.333333%, 93.333333%, 93.333333%)" fill-opacity="1" d="M 29.996094 14.976562 L 30.394531 16.199219 L 31.679688 16.199219 L 30.640625 16.957031 L 31.039062 18.179688 L 29.996094 17.421875 L 28.957031 18.179688 L 29.355469 16.957031 L 28.3125 16.199219 L 29.601562 16.199219 Z M 29.996094 14.976562 "/>
<path fill-rule="nonzero" fill="rgb(93.333333%, 93.333333%, 93.333333%)" fill-opacity="1" d="M 34.101562 14.976562 L 34.5 16.199219 L 35.785156 16.199219 L 34.746094 16.957031 L 35.144531 18.179688 L 34.101562 17.421875 L 33.0625 18.179688 L 33.460938 16.957031 L 32.417969 16.199219 L 33.707031 16.199219 Z M 34.101562 14.976562 "/>
<path fill-rule="nonzero" fill="rgb(93.333333%, 93.333333%, 93.333333%)" fill-opacity="1" d="M 38.207031 14.976562 L 38.605469 16.199219 L 39.890625 16.199219 L 38.851562 16.957031 L 39.246094 18.179688 L 38.207031 17.421875 L 37.167969 18.179688 L 37.5625 16.957031 L 36.523438 16.199219 L 37.808594 16.199219 Z M 38.207031 14.976562 "/>
<path fill-rule="nonzero" fill="rgb(93.333333%, 93.333333%, 93.333333%)" fill-opacity="1" d="M 25.894531 10.710938 L 26.292969 11.933594 L 27.578125 11.933594 L 26.535156 12.6875 L 26.933594 13.910156 L 25.894531 13.15625 L 24.851562 13.910156 L 25.25 12.6875 L 24.210938 11.933594 L 25.496094 11.933594 Z M 25.894531 10.710938 "/>
<path fill-rule="nonzero" fill="rgb(93.333333%, 93.333333%, 93.333333%)" fill-opacity="1" d="M 29.996094 10.710938 L 30.394531 11.933594 L 31.679688 11.933594 L 30.640625 12.6875 L 31.039062 13.910156 L 29.996094 13.15625 L 28.957031 13.910156 L 29.355469 12.6875 L 28.3125 11.933594 L 29.601562 11.933594 Z M 29.996094 10.710938 "/>
<path fill-rule="nonzero" fill="rgb(93.333333%, 93.333333%, 93.333333%)" fill-opacity="1" d="M 34.101562 10.710938 L 34.5 11.933594 L 35.785156 11.933594 L 34.746094 12.6875 L 35.144531 13.910156 L 34.101562 13.15625 L 33.0625 13.910156 L 33.460938 12.6875 L 32.417969 11.933594 L 33.707031 11.933594 Z M 34.101562 10.710938 "/>
<path fill-rule="nonzero" fill="rgb(93.333333%, 93.333333%, 93.333333%)" fill-opacity="1" d="M 38.207031 10.710938 L 38.605469 11.933594 L 39.890625 11.933594 L 38.851562 12.6875 L 39.246094 13.910156 L 38.207031 13.15625 L 37.167969 13.910156 L 37.5625 12.6875 L 36.523438 11.933594 L 37.808594 11.933594 Z M 38.207031 10.710938 "/>
<path fill-rule="nonzero" fill="rgb(93.333333%, 93.333333%, 93.333333%)" fill-opacity="1" d="M 29.996094 6.441406 L 30.394531 7.664062 L 31.679688 7.664062 L 30.640625 8.417969 L 31.039062 9.640625 L 29.996094 8.886719 L 28.957031 9.640625 L 29.355469 8.417969 L 28.3125 7.664062 L 29.601562 7.664062 Z M 29.996094 6.441406 "/>
<path fill-rule="nonzero" fill="rgb(93.333333%, 93.333333%, 93.333333%)" fill-opacity="1" d="M 34.101562 6.441406 L 34.5 7.664062 L 35.785156 7.664062 L 34.746094 8.417969 L 35.144531 9.640625 L 34.101562 8.886719 L 33.0625 9.640625 L 33.460938 8.417969 L 32.417969 7.664062 L 33.707031 7.664062 Z M 34.101562 6.441406 "/>
<path fill-rule="nonzero" fill="rgb(93.333333%, 93.333333%, 93.333333%)" fill-opacity="1" d="M 38.207031 6.441406 L 38.605469 7.664062 L 39.890625 7.664062 L 38.851562 8.417969 L 39.246094 9.640625 L 38.207031 8.886719 L 37.167969 9.640625 L 37.5625 8.417969 L 36.523438 7.664062 L 37.808594 7.664062 Z M 38.207031 6.441406 "/>
</svg>
