<?xml version="1.0" encoding="UTF-8"?>
<svg xmlns="http://www.w3.org/2000/svg" xmlns:xlink="http://www.w3.org/1999/xlink" width="20" height="20" viewBox="0 0 20 20">
<path fill-rule="evenodd" fill="rgb(84.705882%, 0%, 15.294118%)" fill-opacity="1" d="M 19.378906 13.476562 C 19.78125 12.394531 20 11.222656 20 10 C 20 8.777344 19.78125 7.605469 19.378906 6.523438 L 0.621094 6.523438 C 0.21875 7.605469 0 8.777344 0 10 C 0 11.222656 0.21875 12.394531 0.621094 13.476562 Z M 19.378906 13.476562 "/>
<path fill-rule="evenodd" fill="rgb(20%, 54.117647%, 95.294118%)" fill-opacity="1" d="M 19.527344 6.957031 L 0.472656 6.957031 C 1.757812 2.921875 5.539062 0 10 0 C 14.460938 0 18.242188 2.921875 19.527344 6.957031 Z M 19.527344 6.957031 "/>
<path fill-rule="evenodd" fill="rgb(42.745098%, 64.705882%, 26.666667%)" fill-opacity="1" d="M 9.976562 20 C 5.523438 19.988281 1.757812 17.070312 0.472656 13.042969 L 19.527344 13.042969 C 18.242188 17.070312 14.476562 19.988281 10.023438 20 Z M 9.976562 20 "/>
<path fill-rule="evenodd" fill="rgb(93.333333%, 93.333333%, 93.333333%)" fill-opacity="1" d="M 19.761719 12.171875 C 19.917969 11.472656 20 10.746094 20 10 C 20 9.253906 19.917969 8.527344 19.761719 7.824219 L 0.238281 7.824219 C 0.0820312 8.527344 0 9.253906 0 10 C 0 10.746094 0.0820312 11.472656 0.238281 12.171875 Z M 19.761719 12.171875 "/>
<path fill-rule="nonzero" fill="rgb(93.333333%, 93.333333%, 93.333333%)" fill-opacity="1" d="M 4.570312 4.101562 C 4.570312 3.167969 5.226562 2.382812 6.105469 2.191406 C 5.972656 2.164062 5.832031 2.148438 5.6875 2.148438 C 4.605469 2.148438 3.730469 3.023438 3.730469 4.101562 C 3.730469 5.183594 4.605469 6.058594 5.6875 6.058594 C 5.832031 6.058594 5.972656 6.042969 6.105469 6.015625 C 5.226562 5.820312 4.570312 5.039062 4.570312 4.101562 Z M 4.570312 4.101562 "/>
<path fill-rule="nonzero" fill="rgb(93.333333%, 93.333333%, 93.333333%)" fill-opacity="1" d="M 7.261719 4.992188 L 7.394531 5.398438 L 7.824219 5.398438 L 7.476562 5.652344 L 7.609375 6.058594 L 7.261719 5.808594 L 6.917969 6.058594 L 7.050781 5.652344 L 6.703125 5.398438 L 7.128906 5.398438 Z M 7.261719 4.992188 "/>
<path fill-rule="nonzero" fill="rgb(93.333333%, 93.333333%, 93.333333%)" fill-opacity="1" d="M 8.632812 4.992188 L 8.765625 5.398438 L 9.191406 5.398438 L 8.84375 5.652344 L 8.976562 6.058594 L 8.632812 5.808594 L 8.285156 6.058594 L 8.417969 5.652344 L 8.070312 5.398438 L 8.5 5.398438 Z M 8.632812 4.992188 "/>
<path fill-rule="nonzero" fill="rgb(93.333333%, 93.333333%, 93.333333%)" fill-opacity="1" d="M 10 4.992188 L 10.132812 5.398438 L 10.558594 5.398438 L 10.214844 5.652344 L 10.347656 6.058594 L 10 5.808594 L 9.652344 6.058594 L 9.785156 5.652344 L 9.4375 5.398438 L 9.867188 5.398438 Z M 10 4.992188 "/>
<path fill-rule="nonzero" fill="rgb(93.333333%, 93.333333%, 93.333333%)" fill-opacity="1" d="M 11.367188 4.992188 L 11.5 5.398438 L 11.929688 5.398438 L 11.582031 5.652344 L 11.714844 6.058594 L 11.367188 5.808594 L 11.019531 6.058594 L 11.152344 5.652344 L 10.804688 5.398438 L 11.234375 5.398438 Z M 11.367188 4.992188 "/>
<path fill-rule="nonzero" fill="rgb(93.333333%, 93.333333%, 93.333333%)" fill-opacity="1" d="M 12.734375 4.992188 L 12.867188 5.398438 L 13.296875 5.398438 L 12.949219 5.652344 L 13.082031 6.058594 L 12.734375 5.808594 L 12.390625 6.058594 L 12.519531 5.652344 L 12.175781 5.398438 L 12.601562 5.398438 Z M 12.734375 4.992188 "/>
<path fill-rule="nonzero" fill="rgb(93.333333%, 93.333333%, 93.333333%)" fill-opacity="1" d="M 8.632812 3.570312 L 8.765625 3.976562 L 9.191406 3.976562 L 8.84375 4.230469 L 8.976562 4.636719 L 8.632812 4.386719 L 8.285156 4.636719 L 8.417969 4.230469 L 8.070312 3.976562 L 8.5 3.976562 Z M 8.632812 3.570312 "/>
<path fill-rule="nonzero" fill="rgb(93.333333%, 93.333333%, 93.333333%)" fill-opacity="1" d="M 10 3.570312 L 10.132812 3.976562 L 10.558594 3.976562 L 10.214844 4.230469 L 10.347656 4.636719 L 10 4.386719 L 9.652344 4.636719 L 9.785156 4.230469 L 9.4375 3.976562 L 9.867188 3.976562 Z M 10 3.570312 "/>
<path fill-rule="nonzero" fill="rgb(93.333333%, 93.333333%, 93.333333%)" fill-opacity="1" d="M 11.367188 3.570312 L 11.5 3.976562 L 11.929688 3.976562 L 11.582031 4.230469 L 11.714844 4.636719 L 11.367188 4.386719 L 11.019531 4.636719 L 11.152344 4.230469 L 10.804688 3.976562 L 11.234375 3.976562 Z M 11.367188 3.570312 "/>
<path fill-rule="nonzero" fill="rgb(93.333333%, 93.333333%, 93.333333%)" fill-opacity="1" d="M 12.734375 3.570312 L 12.867188 3.976562 L 13.296875 3.976562 L 12.949219 4.230469 L 13.082031 4.636719 L 12.734375 4.386719 L 12.390625 4.636719 L 12.519531 4.230469 L 12.175781 3.976562 L 12.601562 3.976562 Z M 12.734375 3.570312 "/>
<path fill-rule="nonzero" fill="rgb(93.333333%, 93.333333%, 93.333333%)" fill-opacity="1" d="M 10 2.148438 L 10.132812 2.554688 L 10.558594 2.554688 L 10.214844 2.804688 L 10.347656 3.214844 L 10 2.960938 L 9.652344 3.214844 L 9.785156 2.804688 L 9.4375 2.554688 L 9.867188 2.554688 Z M 10 2.148438 "/>
<path fill-rule="nonzero" fill="rgb(93.333333%, 93.333333%, 93.333333%)" fill-opacity="1" d="M 11.367188 2.148438 L 11.5 2.554688 L 11.929688 2.554688 L 11.582031 2.804688 L 11.714844 3.214844 L 11.367188 2.960938 L 11.019531 3.214844 L 11.152344 2.804688 L 10.804688 2.554688 L 11.234375 2.554688 Z M 11.367188 2.148438 "/>
<path fill-rule="nonzero" fill="rgb(93.333333%, 93.333333%, 93.333333%)" fill-opacity="1" d="M 12.734375 2.148438 L 12.867188 2.554688 L 13.296875 2.554688 L 12.949219 2.804688 L 13.082031 3.214844 L 12.734375 2.960938 L 12.390625 3.214844 L 12.519531 2.804688 L 12.175781 2.554688 L 12.601562 2.554688 Z M 12.734375 2.148438 "/>
</svg>
