<?xml version="1.0" encoding="UTF-8"?>
<svg xmlns="http://www.w3.org/2000/svg" xmlns:xlink="http://www.w3.org/1999/xlink" width="40" height="40" viewBox="0 0 40 40">
<path fill-rule="evenodd" fill="rgb(84.705882%, 0%, 15.294118%)" fill-opacity="1" d="M 38.757812 26.957031 C 39.5625 24.789062 40 22.445312 40 20 C 40 17.554688 39.5625 15.210938 38.757812 13.042969 L 1.242188 13.042969 C 0.4375 15.210938 0 17.554688 0 20 C 0 22.445312 0.4375 24.789062 1.242188 26.957031 Z M 38.757812 26.957031 "/>
<path fill-rule="evenodd" fill="rgb(20%, 54.117647%, 95.294118%)" fill-opacity="1" d="M 39.058594 13.914062 L 0.941406 13.914062 C 3.519531 5.84375 11.078125 0 20 0 C 28.921875 0 36.480469 5.84375 39.058594 13.914062 Z M 39.058594 13.914062 "/>
<path fill-rule="evenodd" fill="rgb(42.745098%, 64.705882%, 26.666667%)" fill-opacity="1" d="M 19.949219 40 C 11.046875 39.976562 3.511719 34.140625 0.941406 26.085938 L 39.058594 26.085938 C 36.488281 34.140625 28.953125 39.976562 20.050781 40 Z M 19.949219 40 "/>
<path fill-rule="evenodd" fill="rgb(93.333333%, 93.333333%, 93.333333%)" fill-opacity="1" d="M 39.527344 24.347656 C 39.835938 22.949219 40 21.492188 40 20 C 40 18.507812 39.835938 17.050781 39.527344 15.652344 L 0.472656 15.652344 C 0.164062 17.050781 0 18.507812 0 20 C 0 21.492188 0.164062 22.949219 0.472656 24.347656 Z M 39.527344 24.347656 "/>
<path fill-rule="nonzero" fill="rgb(93.333333%, 93.333333%, 93.333333%)" fill-opacity="1" d="M 9.140625 8.207031 C 9.140625 6.332031 10.457031 4.769531 12.214844 4.382812 C 11.945312 4.324219 11.664062 4.292969 11.375 4.292969 C 9.214844 4.292969 7.460938 6.046875 7.460938 8.207031 C 7.460938 10.367188 9.214844 12.121094 11.375 12.121094 C 11.664062 12.121094 11.945312 12.085938 12.214844 12.027344 C 10.457031 11.644531 9.140625 10.078125 9.140625 8.207031 Z M 9.140625 8.207031 "/>
<path fill-rule="nonzero" fill="rgb(93.333333%, 93.333333%, 93.333333%)" fill-opacity="1" d="M 14.527344 9.984375 L 14.792969 10.800781 L 15.648438 10.800781 L 14.957031 11.304688 L 15.21875 12.121094 L 14.527344 11.617188 L 13.832031 12.121094 L 14.097656 11.304688 L 13.40625 10.800781 L 14.261719 10.800781 Z M 14.527344 9.984375 "/>
<path fill-rule="nonzero" fill="rgb(93.333333%, 93.333333%, 93.333333%)" fill-opacity="1" d="M 17.261719 9.984375 L 17.527344 10.800781 L 18.382812 10.800781 L 17.691406 11.304688 L 17.957031 12.121094 L 17.261719 11.617188 L 16.570312 12.121094 L 16.832031 11.304688 L 16.140625 10.800781 L 16.996094 10.800781 Z M 17.261719 9.984375 "/>
<path fill-rule="nonzero" fill="rgb(93.333333%, 93.333333%, 93.333333%)" fill-opacity="1" d="M 20 9.984375 L 20.261719 10.800781 L 21.121094 10.800781 L 20.425781 11.304688 L 20.691406 12.121094 L 20 11.617188 L 19.304688 12.121094 L 19.570312 11.304688 L 18.875 10.800781 L 19.734375 10.800781 Z M 20 9.984375 "/>
<path fill-rule="nonzero" fill="rgb(93.333333%, 93.333333%, 93.333333%)" fill-opacity="1" d="M 22.734375 9.984375 L 23 10.800781 L 23.855469 10.800781 L 23.164062 11.304688 L 23.429688 12.121094 L 22.734375 11.617188 L 22.042969 12.121094 L 22.304688 11.304688 L 21.613281 10.800781 L 22.46875 10.800781 Z M 22.734375 9.984375 "/>
<path fill-rule="nonzero" fill="rgb(93.333333%, 93.333333%, 93.333333%)" fill-opacity="1" d="M 25.472656 9.984375 L 25.734375 10.800781 L 26.59375 10.800781 L 25.898438 11.304688 L 26.164062 12.121094 L 25.472656 11.617188 L 24.777344 12.121094 L 25.042969 11.304688 L 24.347656 10.800781 L 25.207031 10.800781 Z M 25.472656 9.984375 "/>
<path fill-rule="nonzero" fill="rgb(93.333333%, 93.333333%, 93.333333%)" fill-opacity="1" d="M 17.261719 7.140625 L 17.527344 7.953125 L 18.382812 7.953125 L 17.691406 8.457031 L 17.957031 9.273438 L 17.261719 8.769531 L 16.570312 9.273438 L 16.832031 8.457031 L 16.140625 7.953125 L 16.996094 7.953125 Z M 17.261719 7.140625 "/>
<path fill-rule="nonzero" fill="rgb(93.333333%, 93.333333%, 93.333333%)" fill-opacity="1" d="M 20 7.140625 L 20.261719 7.953125 L 21.121094 7.953125 L 20.425781 8.457031 L 20.691406 9.273438 L 20 8.769531 L 19.304688 9.273438 L 19.570312 8.457031 L 18.875 7.953125 L 19.734375 7.953125 Z M 20 7.140625 "/>
<path fill-rule="nonzero" fill="rgb(93.333333%, 93.333333%, 93.333333%)" fill-opacity="1" d="M 22.734375 7.140625 L 23 7.953125 L 23.855469 7.953125 L 23.164062 8.457031 L 23.429688 9.273438 L 22.734375 8.769531 L 22.042969 9.273438 L 22.304688 8.457031 L 21.613281 7.953125 L 22.46875 7.953125 Z M 22.734375 7.140625 "/>
<path fill-rule="nonzero" fill="rgb(93.333333%, 93.333333%, 93.333333%)" fill-opacity="1" d="M 25.472656 7.140625 L 25.734375 7.953125 L 26.59375 7.953125 L 25.898438 8.457031 L 26.164062 9.273438 L 25.472656 8.769531 L 24.777344 9.273438 L 25.042969 8.457031 L 24.347656 7.953125 L 25.207031 7.953125 Z M 25.472656 7.140625 "/>
<path fill-rule="nonzero" fill="rgb(93.333333%, 93.333333%, 93.333333%)" fill-opacity="1" d="M 20 4.292969 L 20.261719 5.109375 L 21.121094 5.109375 L 20.425781 5.613281 L 20.691406 6.429688 L 20 5.925781 L 19.304688 6.429688 L 19.570312 5.613281 L 18.875 5.109375 L 19.734375 5.109375 Z M 20 4.292969 "/>
<path fill-rule="nonzero" fill="rgb(93.333333%, 93.333333%, 93.333333%)" fill-opacity="1" d="M 22.734375 4.292969 L 23 5.109375 L 23.855469 5.109375 L 23.164062 5.613281 L 23.429688 6.429688 L 22.734375 5.925781 L 22.042969 6.429688 L 22.304688 5.613281 L 21.613281 5.109375 L 22.46875 5.109375 Z M 22.734375 4.292969 "/>
<path fill-rule="nonzero" fill="rgb(93.333333%, 93.333333%, 93.333333%)" fill-opacity="1" d="M 25.472656 4.292969 L 25.734375 5.109375 L 26.59375 5.109375 L 25.898438 5.613281 L 26.164062 6.429688 L 25.472656 5.925781 L 24.777344 6.429688 L 25.042969 5.613281 L 24.347656 5.109375 L 25.207031 5.109375 Z M 25.472656 4.292969 "/>
</svg>
