<?xml version="1.0" encoding="UTF-8"?>
<svg xmlns="http://www.w3.org/2000/svg" xmlns:xlink="http://www.w3.org/1999/xlink" width="40" height="40" viewBox="0 0 40 40">
<path fill-rule="nonzero" fill="rgb(0%, 32.156863%, 70.588235%)" fill-opacity="1" d="M 39.3125 25.21875 C 39.761719 23.554688 40 21.804688 40 20 L 39.3125 14.78125 C 38.8125 12.921875 38.046875 11.167969 37.066406 9.566406 L 32.453125 4.347656 C 29.035156 1.628906 24.710938 0 20.007812 0 L 19.992188 0 C 15.285156 0 10.960938 1.628906 7.546875 4.347656 L 2.933594 9.566406 C 1.953125 11.167969 1.1875 12.921875 0.6875 14.78125 L 0 20 L 0 20.007812 C 0 21.808594 0.238281 23.554688 0.6875 25.21875 L 2.933594 30.433594 C 4.15625 32.433594 5.722656 34.199219 7.546875 35.652344 L 20 40 L 32.453125 35.652344 C 34.277344 34.199219 35.839844 32.433594 37.066406 30.433594 Z M 39.3125 25.21875 "/>
<path fill-rule="nonzero" fill="rgb(93.333333%, 93.333333%, 93.333333%)" fill-opacity="1" d="M 39.3125 14.78125 C 39.761719 16.445312 40 18.195312 40 20 L 0 20 C 0 18.195312 0.238281 16.445312 0.6875 14.78125 Z M 39.3125 14.78125 "/>
<path fill-rule="nonzero" fill="rgb(93.333333%, 93.333333%, 93.333333%)" fill-opacity="1" d="M 32.453125 4.347656 C 34.277344 5.800781 35.839844 7.566406 37.066406 9.566406 L 2.933594 9.566406 C 4.160156 7.566406 5.722656 5.800781 7.546875 4.347656 Z M 32.453125 4.347656 "/>
<path fill-rule="nonzero" fill="rgb(93.333333%, 93.333333%, 93.333333%)" fill-opacity="1" d="M 37.066406 30.433594 C 38.046875 28.832031 38.8125 27.078125 39.3125 25.21875 L 0.6875 25.21875 C 1.1875 27.078125 1.953125 28.832031 2.933594 30.433594 Z M 37.066406 30.433594 "/>
<path fill-rule="nonzero" fill="rgb(93.333333%, 93.333333%, 93.333333%)" fill-opacity="1" d="M 32.453125 35.652344 L 7.546875 35.652344 C 10.960938 38.371094 15.28125 39.996094 19.984375 40 L 20.015625 40 C 24.71875 39.996094 29.039062 38.371094 32.453125 35.652344 Z M 32.453125 35.652344 "/>
<path fill-rule="nonzero" fill="rgb(93.333333%, 93.333333%, 93.333333%)" fill-opacity="1" d="M 0 19.1875 C 0.425781 8.515625 9.210938 0 19.984375 0 C 19.988281 0 19.996094 0 20 0 L 20 20 L 0 20 Z M 0 19.1875 "/>
<path fill-rule="nonzero" fill="rgb(100%, 77.647059%, 20.784314%)" fill-opacity="1" d="M 11.875 5.625 L 13.5625 10.1875 L 18.125 11.875 L 13.5625 13.5625 L 11.875 18.125 L 10.1875 13.5625 L 5.625 11.875 L 10.1875 10.1875 Z M 11.875 5.625 "/>
<path fill-rule="nonzero" fill="rgb(52.156863%, 41.176471%, 23.921569%)" fill-opacity="1" d="M 11.875 5.625 L 11.875 10.1875 L 13.5625 10.1875 L 18.125 11.875 L 13.5625 11.875 L 13.5625 13.5625 L 11.875 18.125 L 11.875 13.5625 L 10.1875 13.5625 L 5.625 11.875 L 10.1875 11.875 L 10.1875 10.1875 Z M 11.875 5.625 "/>
<path fill-rule="nonzero" fill="rgb(100%, 77.647059%, 20.784314%)" fill-opacity="1" d="M 16.292969 7.457031 L 14.261719 11.875 L 16.292969 16.292969 L 11.875 14.261719 L 7.457031 16.292969 L 9.488281 11.875 L 7.457031 7.457031 L 11.875 9.488281 Z M 16.292969 7.457031 "/>
<path fill-rule="nonzero" fill="rgb(52.156863%, 41.176471%, 23.921569%)" fill-opacity="1" d="M 16.292969 7.457031 L 13.070312 10.679688 L 14.261719 11.875 L 16.292969 16.292969 L 13.070312 13.070312 L 11.875 14.261719 L 7.457031 16.292969 L 10.679688 13.070312 L 9.488281 11.875 L 7.457031 7.457031 L 10.679688 10.679688 L 11.875 9.488281 Z M 16.292969 7.457031 "/>
<path fill-rule="nonzero" fill="rgb(100%, 77.647059%, 20.784314%)" fill-opacity="1" d="M 15 11.875 C 15 13.601562 13.601562 15 11.875 15 C 10.148438 15 8.75 13.601562 8.75 11.875 C 8.75 10.148438 10.148438 8.75 11.875 8.75 C 13.601562 8.75 15 10.148438 15 11.875 Z M 15 11.875 "/>
</svg>
