<?xml version="1.0" encoding="UTF-8"?>
<svg xmlns="http://www.w3.org/2000/svg" xmlns:xlink="http://www.w3.org/1999/xlink" width="60" height="60" viewBox="0 0 60 60">
<path fill-rule="nonzero" fill="rgb(0%, 32.156863%, 70.588235%)" fill-opacity="1" d="M 58.96875 37.824219 C 59.640625 35.332031 60 32.707031 60 30 L 58.96875 22.171875 C 58.214844 19.382812 57.070312 16.753906 55.597656 14.347656 L 48.675781 6.519531 C 43.554688 2.441406 37.070312 0.00390625 30.011719 0 L 29.988281 0 C 22.929688 0.00390625 16.445312 2.441406 11.320312 6.519531 L 4.402344 14.347656 C 2.925781 16.753906 1.78125 19.382812 1.03125 22.171875 L 0 30 L 0 30.011719 C 0 32.714844 0.359375 35.335938 1.03125 37.824219 L 4.402344 45.652344 C 6.238281 48.648438 8.585938 51.296875 11.320312 53.476562 L 30 60 L 48.675781 53.476562 C 51.414062 51.296875 53.761719 48.648438 55.597656 45.652344 Z M 58.96875 37.824219 "/>
<path fill-rule="nonzero" fill="rgb(93.333333%, 93.333333%, 93.333333%)" fill-opacity="1" d="M 58.96875 22.175781 C 59.640625 24.667969 60 27.292969 60 30 L 0 30 C 0 27.292969 0.359375 24.667969 1.03125 22.175781 Z M 58.96875 22.175781 "/>
<path fill-rule="nonzero" fill="rgb(93.333333%, 93.333333%, 93.333333%)" fill-opacity="1" d="M 48.675781 6.523438 C 51.414062 8.703125 53.761719 11.351562 55.597656 14.347656 L 4.402344 14.347656 C 6.238281 11.351562 8.585938 8.703125 11.324219 6.523438 Z M 48.675781 6.523438 "/>
<path fill-rule="nonzero" fill="rgb(93.333333%, 93.333333%, 93.333333%)" fill-opacity="1" d="M 55.597656 45.652344 C 57.074219 43.246094 58.21875 40.617188 58.96875 37.824219 L 1.03125 37.824219 C 1.785156 40.617188 2.929688 43.246094 4.402344 45.652344 Z M 55.597656 45.652344 "/>
<path fill-rule="nonzero" fill="rgb(93.333333%, 93.333333%, 93.333333%)" fill-opacity="1" d="M 48.675781 53.476562 L 11.324219 53.476562 C 16.441406 57.554688 22.921875 59.996094 29.972656 60 L 30.027344 60 C 37.078125 59.996094 43.558594 57.554688 48.675781 53.480469 Z M 48.675781 53.476562 "/>
<path fill-rule="nonzero" fill="rgb(93.333333%, 93.333333%, 93.333333%)" fill-opacity="1" d="M 0 28.777344 C 0.640625 12.777344 13.816406 0 29.976562 0 C 29.984375 0 29.992188 0 30 0 L 30 30 L 0 30 Z M 0 28.777344 "/>
<path fill-rule="nonzero" fill="rgb(100%, 77.647059%, 20.784314%)" fill-opacity="1" d="M 17.8125 8.4375 L 20.34375 15.28125 L 27.1875 17.8125 L 20.34375 20.34375 L 17.8125 27.1875 L 15.28125 20.34375 L 8.4375 17.8125 L 15.28125 15.28125 Z M 17.8125 8.4375 "/>
<path fill-rule="nonzero" fill="rgb(52.156863%, 41.176471%, 23.921569%)" fill-opacity="1" d="M 17.8125 8.4375 L 17.8125 15.28125 L 20.34375 15.28125 L 27.1875 17.8125 L 20.34375 17.8125 L 20.34375 20.34375 L 17.8125 27.1875 L 17.8125 20.34375 L 15.28125 20.34375 L 8.4375 17.8125 L 15.28125 17.8125 L 15.28125 15.28125 Z M 17.8125 8.4375 "/>
<path fill-rule="nonzero" fill="rgb(100%, 77.647059%, 20.784314%)" fill-opacity="1" d="M 24.441406 11.183594 L 21.394531 17.8125 L 24.441406 24.441406 L 17.8125 21.394531 L 11.183594 24.441406 L 14.230469 17.8125 L 11.183594 11.183594 L 17.8125 14.230469 Z M 24.441406 11.183594 "/>
<path fill-rule="nonzero" fill="rgb(52.156863%, 41.176471%, 23.921569%)" fill-opacity="1" d="M 24.441406 11.183594 L 19.601562 16.023438 L 21.394531 17.8125 L 24.441406 24.441406 L 19.601562 19.601562 L 17.8125 21.394531 L 11.183594 24.441406 L 16.023438 19.601562 L 14.230469 17.8125 L 11.183594 11.183594 L 16.023438 16.023438 L 17.8125 14.230469 Z M 24.441406 11.183594 "/>
<path fill-rule="nonzero" fill="rgb(100%, 77.647059%, 20.784314%)" fill-opacity="1" d="M 22.5 17.8125 C 22.5 20.402344 20.402344 22.5 17.8125 22.5 C 15.222656 22.5 13.125 20.402344 13.125 17.8125 C 13.125 15.222656 15.222656 13.125 17.8125 13.125 C 20.402344 13.125 22.5 15.222656 22.5 17.8125 Z M 22.5 17.8125 "/>
</svg>
