<?xml version="1.0" encoding="UTF-8"?>
<svg xmlns="http://www.w3.org/2000/svg" xmlns:xlink="http://www.w3.org/1999/xlink" width="40" height="40" viewBox="0 0 40 40">
<path fill-rule="nonzero" fill="rgb(0%, 13.333333%, 40%)" fill-opacity="1" d="M 40 20 C 40 31.046875 31.046875 40 20 40 C 8.953125 40 0 31.046875 0 20 L 20 0 C 31.046875 0 40 8.953125 40 20 Z M 40 20 "/>
<path fill-rule="nonzero" fill="rgb(0%, 13.333333%, 40%)" fill-opacity="1" d="M 20 0 L 20 20 L 0 20 C 0 8.953125 8.953125 0 20 0 Z M 20 0 "/>
<path fill-rule="nonzero" fill="rgb(93.333333%, 93.333333%, 93.333333%)" fill-opacity="1" d="M 16.996094 20 L 20 20 L 20 16.996094 L 10.992188 7.988281 L 20 7.988281 L 20 0 C 8.953125 0 0 8.953125 0 20 L 7.988281 20 L 7.988281 10.992188 Z M 16.996094 20 "/>
<path fill-rule="nonzero" fill="rgb(84.705882%, 0%, 15.294118%)" fill-opacity="1" d="M 20 5.984375 L 20 1.984375 L 11.308594 1.984375 C 7.246094 3.945312 3.945312 7.246094 1.984375 11.308594 L 1.984375 20 L 5.984375 20 L 5.984375 5.984375 Z M 20 5.984375 "/>
<path fill-rule="nonzero" fill="rgb(84.705882%, 0%, 15.294118%)" fill-opacity="1" d="M 20 18 L 20 20 L 7.988281 7.988281 L 9.992188 7.988281 Z M 20 18 "/>
<path fill-rule="nonzero" fill="rgb(28.627451%, 43.137255%, 17.647059%)" fill-opacity="1" d="M 23.914062 10.867188 L 23.914062 20.433594 C 23.914062 25.09375 30 26.523438 30 26.523438 C 30 26.523438 36.089844 25.09375 36.089844 20.433594 L 36.089844 10.867188 Z M 23.914062 10.867188 "/>
<path fill-rule="nonzero" fill="rgb(93.333333%, 93.333333%, 93.333333%)" fill-opacity="1" d="M 28.695312 15.21875 L 31.304688 15.21875 L 31.304688 22.175781 L 28.695312 22.175781 Z M 28.695312 15.21875 "/>
<path fill-rule="nonzero" fill="rgb(34.509804%, 27.058824%, 15.686275%)" fill-opacity="1" d="M 30 16.523438 C 30.722656 16.523438 31.304688 15.9375 31.304688 15.21875 C 31.304688 14.496094 30.722656 13.914062 30 13.914062 C 29.28125 13.914062 28.695312 14.496094 28.695312 15.21875 C 28.695312 15.9375 29.28125 16.523438 30 16.523438 Z M 30 16.523438 "/>
<path fill-rule="nonzero" fill="rgb(100%, 85.490196%, 26.666667%)" fill-opacity="1" d="M 25.652344 12.609375 L 27.390625 12.609375 L 27.390625 14.347656 L 25.652344 14.347656 Z M 25.652344 12.609375 "/>
<path fill-rule="nonzero" fill="rgb(100%, 85.490196%, 26.666667%)" fill-opacity="1" d="M 25.652344 16.523438 L 27.390625 16.523438 L 27.390625 18.261719 L 25.652344 18.261719 Z M 25.652344 16.523438 "/>
<path fill-rule="nonzero" fill="rgb(100%, 85.490196%, 26.666667%)" fill-opacity="1" d="M 25.652344 20.433594 L 27.390625 20.433594 L 27.390625 22.175781 L 25.652344 22.175781 Z M 25.652344 20.433594 "/>
<path fill-rule="nonzero" fill="rgb(100%, 85.490196%, 26.666667%)" fill-opacity="1" d="M 32.609375 12.609375 L 34.347656 12.609375 L 34.347656 14.347656 L 32.609375 14.347656 Z M 32.609375 12.609375 "/>
<path fill-rule="nonzero" fill="rgb(100%, 85.490196%, 26.666667%)" fill-opacity="1" d="M 32.609375 16.523438 L 34.347656 16.523438 L 34.347656 18.261719 L 32.609375 18.261719 Z M 32.609375 16.523438 "/>
<path fill-rule="nonzero" fill="rgb(100%, 85.490196%, 26.666667%)" fill-opacity="1" d="M 32.609375 20.433594 L 34.347656 20.433594 L 34.347656 22.175781 L 32.609375 22.175781 Z M 32.609375 20.433594 "/>
<path fill-rule="evenodd" fill="rgb(100%, 85.490196%, 26.666667%)" fill-opacity="1" d="M 23.179688 26.832031 C 23.46875 26.996094 23.765625 27.152344 24.066406 27.296875 L 24.113281 27.320312 L 24.011719 27.546875 L 23.910156 27.765625 L 24.132812 27.867188 C 25.054688 28.285156 26.023438 28.601562 27.015625 28.816406 C 27.996094 29.023438 29 29.128906 30.003906 29.128906 C 31.003906 29.128906 32.011719 29.023438 32.988281 28.816406 C 33.980469 28.601562 34.949219 28.285156 35.875 27.867188 L 36.09375 27.765625 L 35.996094 27.546875 L 35.890625 27.320312 L 35.9375 27.296875 C 36.238281 27.152344 36.539062 26.996094 36.828125 26.832031 L 37.1875 26.628906 L 36.832031 26.414062 C 36.578125 26.265625 36.328125 26.105469 36.085938 25.9375 C 36.074219 25.625 36.054688 25.304688 36.027344 24.996094 L 35.996094 24.621094 L 35.667969 24.804688 C 35.375 24.972656 35.066406 25.132812 34.757812 25.273438 L 34.273438 25.492188 L 34.414062 25.875 C 33.007812 26.4375 31.527344 26.722656 30.003906 26.722656 C 28.476562 26.722656 26.984375 26.4375 25.570312 25.867188 L 25.730469 25.492188 L 25.246094 25.273438 C 24.9375 25.132812 24.632812 24.972656 24.335938 24.804688 L 24.003906 24.617188 L 23.976562 24.996094 C 23.953125 25.308594 23.9375 25.628906 23.929688 25.945312 C 23.683594 26.105469 23.429688 26.265625 23.175781 26.414062 L 22.8125 26.625 Z M 23.179688 26.832031 "/>
</svg>
