<?xml version="1.0" encoding="UTF-8"?>
<svg xmlns="http://www.w3.org/2000/svg" xmlns:xlink="http://www.w3.org/1999/xlink" width="20" height="20" viewBox="0 0 20 20">
<path fill-rule="nonzero" fill="rgb(0%, 13.333333%, 40%)" fill-opacity="1" d="M 20 10 C 20 15.523438 15.523438 20 10 20 C 4.476562 20 0 15.523438 0 10 L 10 0 C 15.523438 0 20 4.476562 20 10 Z M 20 10 "/>
<path fill-rule="nonzero" fill="rgb(0%, 13.333333%, 40%)" fill-opacity="1" d="M 10 0 L 10 10 L 0 10 C 0 4.476562 4.476562 0 10 0 Z M 10 0 "/>
<path fill-rule="nonzero" fill="rgb(93.333333%, 93.333333%, 93.333333%)" fill-opacity="1" d="M 8.5 10 L 10 10 L 10 8.5 L 5.496094 3.992188 L 10 3.992188 L 10 0 C 4.476562 0 0 4.476562 0 10 L 3.992188 10 L 3.992188 5.496094 Z M 8.5 10 "/>
<path fill-rule="nonzero" fill="rgb(84.705882%, 0%, 15.294118%)" fill-opacity="1" d="M 10 2.992188 L 10 0.992188 L 5.652344 0.992188 C 3.621094 1.972656 1.972656 3.621094 0.992188 5.652344 L 0.992188 10 L 2.992188 10 L 2.992188 2.992188 Z M 10 2.992188 "/>
<path fill-rule="nonzero" fill="rgb(84.705882%, 0%, 15.294118%)" fill-opacity="1" d="M 10 9 L 10 10 L 3.992188 3.992188 L 4.996094 3.992188 Z M 10 9 "/>
<path fill-rule="nonzero" fill="rgb(28.627451%, 43.137255%, 17.647059%)" fill-opacity="1" d="M 11.957031 5.433594 L 11.957031 10.21875 C 11.957031 12.546875 15 13.261719 15 13.261719 C 15 13.261719 18.042969 12.546875 18.042969 10.21875 L 18.042969 5.433594 Z M 11.957031 5.433594 "/>
<path fill-rule="nonzero" fill="rgb(93.333333%, 93.333333%, 93.333333%)" fill-opacity="1" d="M 14.347656 7.609375 L 15.652344 7.609375 L 15.652344 11.085938 L 14.347656 11.085938 Z M 14.347656 7.609375 "/>
<path fill-rule="nonzero" fill="rgb(34.509804%, 27.058824%, 15.686275%)" fill-opacity="1" d="M 15 8.261719 C 15.359375 8.261719 15.652344 7.96875 15.652344 7.609375 C 15.652344 7.25 15.359375 6.957031 15 6.957031 C 14.640625 6.957031 14.347656 7.25 14.347656 7.609375 C 14.347656 7.96875 14.640625 8.261719 15 8.261719 Z M 15 8.261719 "/>
<path fill-rule="nonzero" fill="rgb(100%, 85.490196%, 26.666667%)" fill-opacity="1" d="M 12.828125 6.304688 L 13.695312 6.304688 L 13.695312 7.171875 L 12.828125 7.171875 Z M 12.828125 6.304688 "/>
<path fill-rule="nonzero" fill="rgb(100%, 85.490196%, 26.666667%)" fill-opacity="1" d="M 12.828125 8.261719 L 13.695312 8.261719 L 13.695312 9.128906 L 12.828125 9.128906 Z M 12.828125 8.261719 "/>
<path fill-rule="nonzero" fill="rgb(100%, 85.490196%, 26.666667%)" fill-opacity="1" d="M 12.828125 10.21875 L 13.695312 10.21875 L 13.695312 11.085938 L 12.828125 11.085938 Z M 12.828125 10.21875 "/>
<path fill-rule="nonzero" fill="rgb(100%, 85.490196%, 26.666667%)" fill-opacity="1" d="M 16.304688 6.304688 L 17.175781 6.304688 L 17.175781 7.171875 L 16.304688 7.171875 Z M 16.304688 6.304688 "/>
<path fill-rule="nonzero" fill="rgb(100%, 85.490196%, 26.666667%)" fill-opacity="1" d="M 16.304688 8.261719 L 17.175781 8.261719 L 17.175781 9.128906 L 16.304688 9.128906 Z M 16.304688 8.261719 "/>
<path fill-rule="nonzero" fill="rgb(100%, 85.490196%, 26.666667%)" fill-opacity="1" d="M 16.304688 10.21875 L 17.175781 10.21875 L 17.175781 11.085938 L 16.304688 11.085938 Z M 16.304688 10.21875 "/>
<path fill-rule="evenodd" fill="rgb(100%, 85.490196%, 26.666667%)" fill-opacity="1" d="M 11.589844 13.417969 C 11.734375 13.5 11.882812 13.578125 12.035156 13.648438 L 12.054688 13.660156 L 12.003906 13.773438 L 11.957031 13.882812 L 12.066406 13.933594 C 12.527344 14.140625 13.011719 14.300781 13.507812 14.40625 C 13.996094 14.511719 14.5 14.566406 15 14.566406 C 15.503906 14.566406 16.003906 14.511719 16.496094 14.40625 C 16.988281 14.300781 17.476562 14.140625 17.9375 13.933594 L 18.046875 13.882812 L 17.996094 13.773438 L 17.945312 13.660156 L 17.96875 13.648438 C 18.121094 13.578125 18.269531 13.5 18.414062 13.417969 L 18.59375 13.3125 L 18.414062 13.207031 C 18.289062 13.132812 18.164062 13.050781 18.042969 12.96875 C 18.039062 12.8125 18.027344 12.652344 18.015625 12.496094 L 17.996094 12.308594 L 17.832031 12.402344 C 17.6875 12.488281 17.535156 12.566406 17.378906 12.636719 L 17.136719 12.746094 L 17.207031 12.9375 C 16.503906 13.21875 15.761719 13.363281 15 13.363281 C 14.238281 13.363281 13.492188 13.21875 12.785156 12.933594 L 12.863281 12.746094 L 12.621094 12.636719 C 12.46875 12.566406 12.316406 12.488281 12.167969 12.402344 L 12.003906 12.308594 L 11.988281 12.5 C 11.976562 12.65625 11.96875 12.8125 11.964844 12.972656 C 11.84375 13.054688 11.714844 13.132812 11.589844 13.207031 L 11.40625 13.3125 Z M 11.589844 13.417969 "/>
</svg>
