<?xml version="1.0" encoding="UTF-8"?>
<svg xmlns="http://www.w3.org/2000/svg" xmlns:xlink="http://www.w3.org/1999/xlink" width="60" height="60" viewBox="0 0 60 60">
<path fill-rule="nonzero" fill="rgb(0%, 13.333333%, 40%)" fill-opacity="1" d="M 60 30 C 60 46.566406 46.566406 60 30 60 C 13.433594 60 0 46.566406 0 30 L 30 0 C 46.566406 0 60 13.433594 60 30 Z M 60 30 "/>
<path fill-rule="nonzero" fill="rgb(0%, 13.333333%, 40%)" fill-opacity="1" d="M 30 0 L 30 30 L 0 30 C 0 13.429688 13.429688 0 30 0 Z M 30 0 "/>
<path fill-rule="nonzero" fill="rgb(93.333333%, 93.333333%, 93.333333%)" fill-opacity="1" d="M 25.496094 30 L 30 30 L 30 25.496094 L 16.488281 11.984375 L 30 11.984375 L 30 0 C 13.429688 0 0 13.429688 0 30 L 11.984375 30 L 11.984375 16.488281 Z M 25.496094 30 "/>
<path fill-rule="nonzero" fill="rgb(84.705882%, 0%, 15.294118%)" fill-opacity="1" d="M 30 8.980469 L 30 2.972656 L 16.960938 2.972656 C 10.867188 5.917969 5.917969 10.867188 2.972656 16.960938 L 2.972656 30 L 8.980469 30 L 8.980469 8.980469 Z M 30 8.980469 "/>
<path fill-rule="nonzero" fill="rgb(84.705882%, 0%, 15.294118%)" fill-opacity="1" d="M 30 26.996094 L 30 30 L 11.984375 11.984375 L 14.984375 11.984375 Z M 30 26.996094 "/>
<path fill-rule="nonzero" fill="rgb(28.627451%, 43.137255%, 17.647059%)" fill-opacity="1" d="M 35.871094 16.304688 L 35.871094 30.652344 C 35.871094 37.640625 45 39.78125 45 39.78125 C 45 39.78125 54.132812 37.640625 54.132812 30.652344 L 54.132812 16.304688 Z M 35.871094 16.304688 "/>
<path fill-rule="nonzero" fill="rgb(93.333333%, 93.333333%, 93.333333%)" fill-opacity="1" d="M 43.042969 22.824219 L 46.957031 22.824219 L 46.957031 33.261719 L 43.042969 33.261719 Z M 43.042969 22.824219 "/>
<path fill-rule="nonzero" fill="rgb(34.509804%, 27.058824%, 15.686275%)" fill-opacity="1" d="M 45 24.78125 C 46.082031 24.78125 46.957031 23.90625 46.957031 22.824219 C 46.957031 21.746094 46.082031 20.871094 45 20.871094 C 43.921875 20.871094 43.042969 21.746094 43.042969 22.824219 C 43.042969 23.90625 43.921875 24.78125 45 24.78125 Z M 45 24.78125 "/>
<path fill-rule="nonzero" fill="rgb(100%, 85.490196%, 26.666667%)" fill-opacity="1" d="M 38.476562 18.910156 L 41.085938 18.910156 L 41.085938 21.519531 L 38.476562 21.519531 Z M 38.476562 18.910156 "/>
<path fill-rule="nonzero" fill="rgb(100%, 85.490196%, 26.666667%)" fill-opacity="1" d="M 38.476562 24.78125 L 41.085938 24.78125 L 41.085938 27.390625 L 38.476562 27.390625 Z M 38.476562 24.78125 "/>
<path fill-rule="nonzero" fill="rgb(100%, 85.490196%, 26.666667%)" fill-opacity="1" d="M 38.476562 30.652344 L 41.085938 30.652344 L 41.085938 33.261719 L 38.476562 33.261719 Z M 38.476562 30.652344 "/>
<path fill-rule="nonzero" fill="rgb(100%, 85.490196%, 26.666667%)" fill-opacity="1" d="M 48.914062 18.910156 L 51.523438 18.910156 L 51.523438 21.519531 L 48.914062 21.519531 Z M 48.914062 18.910156 "/>
<path fill-rule="nonzero" fill="rgb(100%, 85.490196%, 26.666667%)" fill-opacity="1" d="M 48.914062 24.78125 L 51.523438 24.78125 L 51.523438 27.390625 L 48.914062 27.390625 Z M 48.914062 24.78125 "/>
<path fill-rule="nonzero" fill="rgb(100%, 85.490196%, 26.666667%)" fill-opacity="1" d="M 48.914062 30.652344 L 51.523438 30.652344 L 51.523438 33.261719 L 48.914062 33.261719 Z M 48.914062 30.652344 "/>
<path fill-rule="evenodd" fill="rgb(100%, 85.490196%, 26.666667%)" fill-opacity="1" d="M 34.765625 40.25 C 35.203125 40.496094 35.652344 40.730469 36.101562 40.945312 L 36.167969 40.980469 L 36.015625 41.320312 L 35.867188 41.652344 L 36.199219 41.800781 C 37.582031 42.425781 39.039062 42.902344 40.523438 43.222656 C 41.992188 43.535156 43.5 43.695312 45.003906 43.695312 C 46.507812 43.695312 48.015625 43.535156 49.484375 43.222656 C 50.96875 42.902344 52.425781 42.425781 53.808594 41.800781 L 54.140625 41.652344 L 53.992188 41.320312 L 53.839844 40.980469 L 53.90625 40.945312 C 54.359375 40.730469 54.808594 40.496094 55.242188 40.25 L 55.78125 39.941406 L 55.246094 39.621094 C 54.867188 39.394531 54.492188 39.15625 54.125 38.90625 C 54.113281 38.433594 54.085938 37.960938 54.042969 37.492188 L 53.992188 36.929688 L 53.5 37.210938 C 53.058594 37.460938 52.601562 37.695312 52.136719 37.910156 L 51.414062 38.242188 L 51.621094 38.808594 C 49.511719 39.65625 47.289062 40.085938 45.003906 40.085938 C 42.714844 40.085938 40.472656 39.652344 38.359375 38.796875 L 38.59375 38.238281 L 37.867188 37.90625 C 37.40625 37.695312 36.949219 37.460938 36.503906 37.210938 L 36.007812 36.925781 L 35.964844 37.496094 C 35.925781 37.964844 35.902344 38.441406 35.894531 38.914062 C 35.527344 39.160156 35.148438 39.398438 34.765625 39.621094 L 34.21875 39.9375 Z M 34.765625 40.25 "/>
</svg>
