<?xml version="1.0" encoding="UTF-8"?>
<svg xmlns="http://www.w3.org/2000/svg" xmlns:xlink="http://www.w3.org/1999/xlink" width="20" height="20" viewBox="0 0 20 20">
<path fill-rule="nonzero" fill="rgb(84.705882%, 0%, 15.294118%)" fill-opacity="1" d="M 18.835938 14.6875 C 19.578125 13.289062 20 11.695312 20 10 C 20 8.304688 19.578125 6.710938 18.835938 5.3125 L 1.164062 5.3125 C 0.421875 6.710938 0 8.304688 0 10 C 0 11.695312 0.421875 13.289062 1.164062 14.6875 Z M 18.835938 14.6875 "/>
<path fill-rule="nonzero" fill="rgb(42.745098%, 64.705882%, 26.666667%)" fill-opacity="1" d="M 19.394531 13.4375 C 17.992188 17.265625 14.316406 20 10 20 C 5.683594 20 2.007812 17.265625 0.605469 13.4375 Z M 19.394531 13.4375 "/>
<path fill-rule="nonzero" fill="rgb(20%, 54.117647%, 95.294118%)" fill-opacity="1" d="M 19.394531 6.5625 L 0.605469 6.5625 C 2.007812 2.734375 5.683594 0 10 0 C 14.316406 0 17.992188 2.734375 19.394531 6.5625 Z M 19.394531 6.5625 "/>
<path fill-rule="nonzero" fill="rgb(93.333333%, 93.333333%, 93.333333%)" fill-opacity="1" d="M 10.195312 12.539062 C 8.792969 12.539062 7.65625 11.402344 7.65625 10 C 7.65625 8.597656 8.792969 7.460938 10.195312 7.460938 C 10.632812 7.460938 11.042969 7.570312 11.402344 7.765625 C 10.839844 7.214844 10.070312 6.875 9.21875 6.875 C 7.492188 6.875 6.09375 8.273438 6.09375 10 C 6.09375 11.726562 7.492188 13.125 9.21875 13.125 C 10.070312 13.125 10.839844 12.785156 11.402344 12.234375 C 11.042969 12.429688 10.632812 12.539062 10.195312 12.539062 Z M 10.195312 12.539062 "/>
<path fill-rule="nonzero" fill="rgb(93.333333%, 93.333333%, 93.333333%)" fill-opacity="1" d="M 12.148438 8.242188 L 12.484375 9.1875 L 13.390625 8.757812 L 12.960938 9.664062 L 13.90625 10 L 12.960938 10.335938 L 13.390625 11.242188 L 12.484375 10.8125 L 12.148438 11.757812 L 11.8125 10.8125 L 10.90625 11.242188 L 11.335938 10.335938 L 10.390625 10 L 11.335938 9.664062 L 10.90625 8.757812 L 11.8125 9.1875 Z M 12.148438 8.242188 "/>
</svg>
