<?xml version="1.0" encoding="UTF-8"?>
<svg xmlns="http://www.w3.org/2000/svg" xmlns:xlink="http://www.w3.org/1999/xlink" width="40" height="40" viewBox="0 0 40 40">
<path fill-rule="nonzero" fill="rgb(84.705882%, 0%, 15.294118%)" fill-opacity="1" d="M 37.671875 29.375 C 39.15625 26.578125 40 23.386719 40 20 C 40 16.613281 39.15625 13.421875 37.671875 10.625 L 2.328125 10.625 C 0.84375 13.421875 0 16.613281 0 20 C 0 23.386719 0.84375 26.578125 2.328125 29.375 Z M 37.671875 29.375 "/>
<path fill-rule="nonzero" fill="rgb(42.745098%, 64.705882%, 26.666667%)" fill-opacity="1" d="M 38.785156 26.875 C 35.984375 34.535156 28.628906 40 20 40 C 11.371094 40 4.015625 34.535156 1.214844 26.875 L 38.789062 26.875 Z M 38.785156 26.875 "/>
<path fill-rule="nonzero" fill="rgb(20%, 54.117647%, 95.294118%)" fill-opacity="1" d="M 38.785156 13.125 L 1.210938 13.125 C 4.015625 5.464844 11.371094 0 20 0 C 28.628906 0 35.984375 5.464844 38.785156 13.125 Z M 38.785156 13.125 "/>
<path fill-rule="nonzero" fill="rgb(93.333333%, 93.333333%, 93.333333%)" fill-opacity="1" d="M 20.390625 25.078125 C 17.585938 25.078125 15.3125 22.804688 15.3125 20 C 15.3125 17.195312 17.585938 14.921875 20.390625 14.921875 C 21.265625 14.921875 22.085938 15.144531 22.804688 15.53125 C 21.679688 14.429688 20.136719 13.75 18.4375 13.75 C 14.984375 13.75 12.1875 16.546875 12.1875 20 C 12.1875 23.453125 14.984375 26.25 18.4375 26.25 C 20.136719 26.25 21.679688 25.570312 22.804688 24.46875 C 22.085938 24.855469 21.265625 25.078125 20.390625 25.078125 Z M 20.390625 25.078125 "/>
<path fill-rule="nonzero" fill="rgb(93.333333%, 93.333333%, 93.333333%)" fill-opacity="1" d="M 24.296875 16.484375 L 24.96875 18.375 L 26.78125 17.515625 L 25.921875 19.328125 L 27.8125 20 L 25.921875 20.671875 L 26.78125 22.484375 L 24.96875 21.625 L 24.296875 23.515625 L 23.625 21.625 L 21.8125 22.484375 L 22.671875 20.671875 L 20.78125 20 L 22.671875 19.328125 L 21.8125 17.515625 L 23.625 18.375 Z M 24.296875 16.484375 "/>
</svg>
