<?xml version="1.0" encoding="UTF-8"?>
<svg xmlns="http://www.w3.org/2000/svg" xmlns:xlink="http://www.w3.org/1999/xlink" width="60" height="60" viewBox="0 0 60 60">
<path fill-rule="nonzero" fill="rgb(84.705882%, 0%, 15.294118%)" fill-opacity="1" d="M 56.507812 44.0625 C 58.738281 39.867188 60 35.082031 60 30 C 60 24.917969 58.738281 20.132812 56.507812 15.9375 L 3.492188 15.9375 C 1.261719 20.132812 0 24.917969 0 30 C 0 35.082031 1.261719 39.867188 3.492188 44.0625 Z M 56.507812 44.0625 "/>
<path fill-rule="nonzero" fill="rgb(42.745098%, 64.705882%, 26.666667%)" fill-opacity="1" d="M 58.179688 40.3125 C 53.976562 51.800781 42.945312 60 30 60 C 17.054688 60 6.023438 51.800781 1.820312 40.3125 Z M 58.179688 40.3125 "/>
<path fill-rule="nonzero" fill="rgb(20%, 54.117647%, 95.294118%)" fill-opacity="1" d="M 58.179688 19.6875 L 1.820312 19.6875 C 6.023438 8.199219 17.054688 0 30 0 C 42.945312 0 53.972656 8.199219 58.179688 19.6875 Z M 58.179688 19.6875 "/>
<path fill-rule="nonzero" fill="rgb(93.333333%, 93.333333%, 93.333333%)" fill-opacity="1" d="M 30.585938 37.617188 C 26.378906 37.617188 22.96875 34.207031 22.96875 30 C 22.96875 25.792969 26.378906 22.382812 30.585938 22.382812 C 31.898438 22.382812 33.132812 22.714844 34.210938 23.296875 C 32.519531 21.644531 30.207031 20.625 27.65625 20.625 C 22.476562 20.625 18.28125 24.820312 18.28125 30 C 18.28125 35.175781 22.480469 39.375 27.65625 39.375 C 30.207031 39.375 32.519531 38.355469 34.210938 36.703125 C 33.132812 37.285156 31.898438 37.617188 30.585938 37.617188 Z M 30.585938 37.617188 "/>
<path fill-rule="nonzero" fill="rgb(93.333333%, 93.333333%, 93.333333%)" fill-opacity="1" d="M 36.445312 24.726562 L 37.453125 27.5625 L 40.175781 26.269531 L 38.882812 28.992188 L 41.71875 30 L 38.882812 31.007812 L 40.175781 33.730469 L 37.453125 32.4375 L 36.445312 35.273438 L 35.4375 32.4375 L 32.714844 33.730469 L 34.007812 31.007812 L 31.171875 30 L 34.007812 28.992188 L 32.714844 26.269531 L 35.4375 27.5625 Z M 36.445312 24.726562 "/>
</svg>
