<?xml version="1.0" encoding="UTF-8"?>
<svg xmlns="http://www.w3.org/2000/svg" xmlns:xlink="http://www.w3.org/1999/xlink" width="40" height="40" viewBox="0 0 40 40">
<path fill-rule="nonzero" fill="rgb(93.333333%, 93.333333%, 93.333333%)" fill-opacity="1" d="M 24.65625 16.34375 L 26.296875 18.605469 L 28.953125 17.742188 L 27.308594 20 L 28.953125 22.261719 L 26.292969 21.398438 L 24.652344 23.65625 L 24.652344 20.863281 L 21.996094 20 L 24.652344 19.136719 Z M 24.65625 16.34375 "/>
<path fill-rule="nonzero" fill="rgb(93.333333%, 93.333333%, 93.333333%)" fill-opacity="1" d="M 20.175781 25.652344 C 17.054688 25.652344 14.523438 23.121094 14.523438 20 C 14.523438 16.878906 17.054688 14.347656 20.175781 14.347656 C 21.148438 14.347656 22.066406 14.59375 22.867188 15.027344 C 21.609375 13.800781 19.894531 13.042969 18.003906 13.042969 C 14.160156 13.042969 11.046875 16.15625 11.046875 20 C 11.046875 23.84375 14.160156 26.957031 18.003906 26.957031 C 19.894531 26.957031 21.609375 26.199219 22.867188 24.972656 C 22.066406 25.40625 21.148438 25.652344 20.175781 25.652344 Z M 20.175781 25.652344 "/>
<path fill-rule="nonzero" fill="rgb(20%, 20%, 20%)" fill-opacity="1" d="M 37.324219 30 C 39.027344 27.058594 40 23.644531 40 20 C 40 16.355469 39.027344 12.941406 37.324219 10 L 2.675781 10 C 0.972656 12.941406 0 16.355469 0 20 C 0 23.644531 0.972656 27.058594 2.675781 30 Z M 37.324219 30 "/>
<path fill-rule="nonzero" fill="rgb(28.627451%, 43.137255%, 17.647059%)" fill-opacity="1" d="M 19.992188 40 C 12.089844 39.996094 5.253906 35.410156 2.011719 28.75 L 37.988281 28.75 C 34.746094 35.410156 27.910156 39.996094 20.007812 40 Z M 19.992188 40 "/>
<path fill-rule="nonzero" fill="rgb(84.705882%, 0%, 15.294118%)" fill-opacity="1" d="M 20 0 C 12.09375 0 5.257812 4.589844 2.011719 11.25 L 37.988281 11.25 C 34.742188 4.589844 27.910156 0 20 0 Z M 20 0 "/>
<path fill-rule="nonzero" fill="rgb(93.333333%, 93.333333%, 93.333333%)" fill-opacity="1" d="M 24.65625 16.34375 L 26.296875 18.605469 L 28.953125 17.742188 L 27.308594 20 L 28.953125 22.261719 L 26.292969 21.398438 L 24.652344 23.65625 L 24.652344 20.863281 L 21.996094 20 L 24.652344 19.136719 Z M 24.65625 16.34375 "/>
<path fill-rule="nonzero" fill="rgb(93.333333%, 93.333333%, 93.333333%)" fill-opacity="1" d="M 20.175781 25.652344 C 17.054688 25.652344 14.523438 23.121094 14.523438 20 C 14.523438 16.878906 17.054688 14.347656 20.175781 14.347656 C 21.148438 14.347656 22.066406 14.59375 22.867188 15.027344 C 21.609375 13.800781 19.894531 13.042969 18.003906 13.042969 C 14.160156 13.042969 11.046875 16.15625 11.046875 20 C 11.046875 23.84375 14.160156 26.957031 18.003906 26.957031 C 19.894531 26.957031 21.609375 26.199219 22.867188 24.972656 C 22.066406 25.40625 21.148438 25.652344 20.175781 25.652344 Z M 20.175781 25.652344 "/>
</svg>
