<?xml version="1.0" encoding="UTF-8"?>
<svg xmlns="http://www.w3.org/2000/svg" xmlns:xlink="http://www.w3.org/1999/xlink" width="20" height="20" viewBox="0 0 20 20">
<path fill-rule="nonzero" fill="rgb(93.333333%, 93.333333%, 93.333333%)" fill-opacity="1" d="M 12.328125 8.171875 L 13.148438 9.300781 L 14.476562 8.871094 L 13.65625 10 L 14.476562 11.132812 L 13.148438 10.699219 L 12.324219 11.828125 L 12.328125 10.433594 L 10.996094 10 L 12.328125 9.570312 Z M 12.328125 8.171875 "/>
<path fill-rule="nonzero" fill="rgb(93.333333%, 93.333333%, 93.333333%)" fill-opacity="1" d="M 10.089844 12.828125 C 8.527344 12.828125 7.261719 11.5625 7.261719 10 C 7.261719 8.4375 8.527344 7.175781 10.089844 7.175781 C 10.574219 7.175781 11.03125 7.296875 11.433594 7.515625 C 10.804688 6.898438 9.949219 6.523438 9 6.523438 C 7.082031 6.523438 5.523438 8.078125 5.523438 10 C 5.523438 11.921875 7.082031 13.476562 9 13.476562 C 9.949219 13.476562 10.804688 13.101562 11.433594 12.488281 C 11.03125 12.703125 10.574219 12.824219 10.089844 12.824219 Z M 10.089844 12.828125 "/>
<path fill-rule="nonzero" fill="rgb(20%, 20%, 20%)" fill-opacity="1" d="M 18.664062 15 C 19.511719 13.527344 20 11.820312 20 10 C 20 8.179688 19.511719 6.472656 18.664062 5 L 1.335938 5 C 0.488281 6.472656 0 8.179688 0 10 C 0 11.820312 0.488281 13.527344 1.335938 15 Z M 18.664062 15 "/>
<path fill-rule="nonzero" fill="rgb(28.627451%, 43.137255%, 17.647059%)" fill-opacity="1" d="M 9.996094 20 C 6.042969 20 2.628906 17.703125 1.003906 14.375 L 18.996094 14.375 C 17.371094 17.703125 13.957031 20 10.003906 20 Z M 9.996094 20 "/>
<path fill-rule="nonzero" fill="rgb(84.705882%, 0%, 15.294118%)" fill-opacity="1" d="M 10 0 C 6.046875 0 2.628906 2.292969 1.003906 5.625 L 18.996094 5.625 C 17.371094 2.292969 13.953125 0 10 0 Z M 10 0 "/>
<path fill-rule="nonzero" fill="rgb(93.333333%, 93.333333%, 93.333333%)" fill-opacity="1" d="M 12.328125 8.171875 L 13.148438 9.300781 L 14.476562 8.871094 L 13.65625 10 L 14.476562 11.132812 L 13.148438 10.699219 L 12.324219 11.828125 L 12.328125 10.433594 L 10.996094 10 L 12.328125 9.570312 Z M 12.328125 8.171875 "/>
<path fill-rule="nonzero" fill="rgb(93.333333%, 93.333333%, 93.333333%)" fill-opacity="1" d="M 10.089844 12.828125 C 8.527344 12.828125 7.261719 11.5625 7.261719 10 C 7.261719 8.4375 8.527344 7.175781 10.089844 7.175781 C 10.574219 7.175781 11.03125 7.296875 11.433594 7.515625 C 10.804688 6.898438 9.949219 6.523438 9 6.523438 C 7.082031 6.523438 5.523438 8.078125 5.523438 10 C 5.523438 11.921875 7.082031 13.476562 9 13.476562 C 9.949219 13.476562 10.804688 13.101562 11.433594 12.488281 C 11.03125 12.703125 10.574219 12.824219 10.089844 12.824219 Z M 10.089844 12.828125 "/>
</svg>
