<?xml version="1.0" encoding="UTF-8"?>
<svg xmlns="http://www.w3.org/2000/svg" xmlns:xlink="http://www.w3.org/1999/xlink" width="60" height="60" viewBox="0 0 60 60">
<path fill-rule="nonzero" fill="rgb(93.333333%, 93.333333%, 93.333333%)" fill-opacity="1" d="M 36.984375 24.515625 L 39.445312 27.90625 L 43.429688 26.613281 L 40.964844 30.003906 L 43.425781 33.394531 L 39.441406 32.097656 L 36.976562 35.488281 L 36.980469 31.296875 L 32.992188 30 L 36.980469 28.707031 Z M 36.984375 24.515625 "/>
<path fill-rule="nonzero" fill="rgb(93.333333%, 93.333333%, 93.333333%)" fill-opacity="1" d="M 30.265625 38.476562 C 25.582031 38.476562 21.785156 34.683594 21.785156 30 C 21.785156 25.316406 25.582031 21.523438 30.265625 21.523438 C 31.726562 21.523438 33.097656 21.890625 34.296875 22.539062 C 32.417969 20.699219 29.84375 19.566406 27.003906 19.566406 C 21.242188 19.566406 16.570312 24.238281 16.570312 30 C 16.570312 35.761719 21.242188 40.433594 27.003906 40.433594 C 29.84375 40.433594 32.417969 39.300781 34.296875 37.460938 C 33.097656 38.109375 31.726562 38.476562 30.265625 38.476562 Z M 30.265625 38.476562 "/>
<path fill-rule="nonzero" fill="rgb(20%, 20%, 20%)" fill-opacity="1" d="M 55.984375 45 C 58.539062 40.585938 60 35.464844 60 30 C 60 24.535156 58.539062 19.414062 55.984375 15 L 4.015625 15 C 1.460938 19.414062 0 24.535156 0 30 C 0 35.464844 1.460938 40.585938 4.015625 45 Z M 55.984375 45 "/>
<path fill-rule="nonzero" fill="rgb(28.627451%, 43.137255%, 17.647059%)" fill-opacity="1" d="M 29.988281 60 C 18.132812 59.996094 7.882812 53.113281 3.015625 43.125 L 56.984375 43.125 C 52.117188 53.113281 41.867188 59.996094 30.007812 60 Z M 29.988281 60 "/>
<path fill-rule="nonzero" fill="rgb(84.705882%, 0%, 15.294118%)" fill-opacity="1" d="M 30 0 C 18.136719 0 7.882812 6.882812 3.015625 16.875 L 56.984375 16.875 C 52.117188 6.882812 41.863281 0 30 0 Z M 30 0 "/>
<path fill-rule="nonzero" fill="rgb(93.333333%, 93.333333%, 93.333333%)" fill-opacity="1" d="M 36.984375 24.515625 L 39.445312 27.90625 L 43.429688 26.613281 L 40.964844 30.003906 L 43.425781 33.394531 L 39.441406 32.097656 L 36.976562 35.488281 L 36.980469 31.296875 L 32.992188 30 L 36.980469 28.707031 Z M 36.984375 24.515625 "/>
<path fill-rule="nonzero" fill="rgb(93.333333%, 93.333333%, 93.333333%)" fill-opacity="1" d="M 30.265625 38.476562 C 25.582031 38.476562 21.785156 34.683594 21.785156 30 C 21.785156 25.316406 25.582031 21.523438 30.265625 21.523438 C 31.726562 21.523438 33.097656 21.890625 34.296875 22.539062 C 32.417969 20.699219 29.84375 19.566406 27.003906 19.566406 C 21.242188 19.566406 16.570312 24.238281 16.570312 30 C 16.570312 35.761719 21.242188 40.433594 27.003906 40.433594 C 29.84375 40.433594 32.417969 39.300781 34.296875 37.460938 C 33.097656 38.109375 31.726562 38.476562 30.265625 38.476562 Z M 30.265625 38.476562 "/>
</svg>
