<?xml version="1.0" encoding="UTF-8"?>
<svg xmlns="http://www.w3.org/2000/svg" xmlns:xlink="http://www.w3.org/1999/xlink" width="20" height="20" viewBox="0 0 20 20">
<path fill-rule="nonzero" fill="rgb(84.705882%, 0%, 15.294118%)" fill-opacity="1" d="M 17.070312 2.929688 L 8.75 8.75 L 2.929688 17.070312 C 4.738281 18.878906 7.238281 20 10 20 C 15.484375 20 19.941406 15.582031 20 10.113281 L 20 9.886719 C 19.96875 7.171875 18.855469 4.714844 17.070312 2.929688 Z M 17.070312 2.929688 "/>
<path fill-rule="nonzero" fill="rgb(42.745098%, 64.705882%, 26.666667%)" fill-opacity="1" d="M 17.070312 2.929688 L 2.929688 17.070312 C 1.117188 15.261719 0 12.761719 0 10 C 0 4.476562 4.476562 0.00390625 9.996094 0 C 9.996094 0 10 0 10 0 C 10 0 10.003906 0 10.003906 0 C 12.761719 0 15.261719 1.121094 17.070312 2.929688 Z M 17.070312 2.929688 "/>
<path fill-rule="nonzero" fill="rgb(100%, 85.490196%, 26.666667%)" fill-opacity="1" d="M 14.539062 1.085938 C 16.417969 2.046875 17.953125 3.582031 18.914062 5.460938 L 5.460938 18.914062 C 3.582031 17.953125 2.046875 16.417969 1.085938 14.539062 Z M 14.539062 1.085938 "/>
<path fill-rule="nonzero" fill="rgb(20%, 20%, 20%)" fill-opacity="1" d="M 15.710938 1.789062 C 16.683594 2.46875 17.53125 3.316406 18.210938 4.289062 L 4.289062 18.210938 C 3.316406 17.53125 2.46875 16.683594 1.789062 15.710938 Z M 15.710938 1.789062 "/>
<path fill-rule="nonzero" fill="rgb(93.333333%, 93.333333%, 93.333333%)" fill-opacity="1" d="M 5.921875 12.039062 L 6.855469 12.515625 L 7.597656 11.773438 L 7.433594 12.808594 L 8.367188 13.285156 L 7.332031 13.449219 L 7.167969 14.480469 L 6.691406 13.546875 L 5.65625 13.710938 L 6.398438 12.972656 Z M 5.921875 12.039062 "/>
<path fill-rule="nonzero" fill="rgb(93.333333%, 93.333333%, 93.333333%)" fill-opacity="1" d="M 12.039062 5.917969 L 12.972656 6.394531 L 13.714844 5.65625 L 13.550781 6.6875 L 14.484375 7.164062 L 13.449219 7.328125 L 13.285156 8.363281 L 12.808594 7.429688 L 11.777344 7.59375 L 12.515625 6.851562 Z M 12.039062 5.917969 "/>
</svg>
