<?xml version="1.0" encoding="UTF-8"?>
<svg xmlns="http://www.w3.org/2000/svg" xmlns:xlink="http://www.w3.org/1999/xlink" width="60" height="60" viewBox="0 0 60 60">
<path fill-rule="nonzero" fill="rgb(84.705882%, 0%, 15.294118%)" fill-opacity="1" d="M 51.210938 8.785156 L 26.25 26.25 L 8.785156 51.210938 C 14.214844 56.640625 21.714844 60 30 60 C 46.457031 60 59.820312 46.75 59.996094 30.335938 L 59.996094 29.664062 C 59.910156 21.511719 56.566406 14.140625 51.210938 8.785156 Z M 51.210938 8.785156 "/>
<path fill-rule="nonzero" fill="rgb(42.745098%, 64.705882%, 26.666667%)" fill-opacity="1" d="M 51.210938 8.785156 L 8.785156 51.210938 C 3.355469 45.785156 0 38.285156 0 30 C 0 13.433594 13.425781 0.0078125 29.988281 0 C 29.992188 0 29.996094 0 30 0 C 30.003906 0 30.007812 0 30.007812 0 C 38.289062 0.00390625 45.785156 3.359375 51.210938 8.785156 Z M 51.210938 8.785156 "/>
<path fill-rule="nonzero" fill="rgb(100%, 85.490196%, 26.666667%)" fill-opacity="1" d="M 43.613281 3.261719 C 49.253906 6.136719 53.863281 10.746094 56.738281 16.386719 L 16.386719 56.738281 C 10.746094 53.863281 6.136719 49.253906 3.261719 43.613281 Z M 43.613281 3.261719 "/>
<path fill-rule="nonzero" fill="rgb(20%, 20%, 20%)" fill-opacity="1" d="M 47.128906 5.367188 C 50.050781 7.40625 52.59375 9.949219 54.628906 12.867188 L 12.867188 54.632812 C 9.945312 52.59375 7.402344 50.054688 5.367188 47.132812 Z M 47.128906 5.367188 "/>
<path fill-rule="nonzero" fill="rgb(93.333333%, 93.333333%, 93.333333%)" fill-opacity="1" d="M 17.765625 36.113281 L 20.566406 37.542969 L 22.789062 35.320312 L 22.296875 38.421875 L 25.097656 39.851562 L 21.992188 40.34375 L 21.5 43.445312 L 20.074219 40.644531 L 16.96875 41.136719 L 19.191406 38.914062 Z M 17.765625 36.113281 "/>
<path fill-rule="nonzero" fill="rgb(93.333333%, 93.333333%, 93.333333%)" fill-opacity="1" d="M 36.125 17.757812 L 38.921875 19.183594 L 41.144531 16.964844 L 40.652344 20.066406 L 43.453125 21.492188 L 40.351562 21.984375 L 39.859375 25.089844 L 38.429688 22.289062 L 35.328125 22.78125 L 37.550781 20.558594 L 36.121094 17.757812 Z M 36.125 17.757812 "/>
</svg>
