<?xml version="1.0" encoding="UTF-8"?>
<svg xmlns="http://www.w3.org/2000/svg" xmlns:xlink="http://www.w3.org/1999/xlink" width="20" height="20" viewBox="0 0 20 20">
<path fill-rule="nonzero" fill="rgb(93.333333%, 93.333333%, 93.333333%)" fill-opacity="1" d="M 5 18.664062 C 6.472656 19.511719 8.179688 20 10 20 C 11.820312 20 13.527344 19.511719 15 18.664062 L 15 1.335938 C 13.527344 0.488281 11.820312 0 10 0 C 8.179688 0 6.472656 0.488281 5 1.335938 Z M 5 18.664062 "/>
<path fill-rule="nonzero" fill="rgb(42.745098%, 64.705882%, 26.666667%)" fill-opacity="1" d="M 0 9.996094 C 0 6.042969 2.296875 2.628906 5.625 1.003906 L 5.625 18.996094 C 2.296875 17.371094 0 13.957031 0 10.003906 C 0 10 0 10 0 10 C 0 10 0 9.996094 0 9.996094 Z M 0 9.996094 "/>
<path fill-rule="nonzero" fill="rgb(42.745098%, 64.705882%, 26.666667%)" fill-opacity="1" d="M 20 10 C 20 6.046875 17.707031 2.628906 14.375 1.003906 L 14.375 18.996094 C 17.707031 17.371094 20 13.953125 20 10 Z M 20 10 "/>
<path fill-rule="nonzero" fill="rgb(42.745098%, 64.705882%, 26.666667%)" fill-opacity="1" d="M 12.609375 13.042969 L 10 4.78125 L 7.390625 13.042969 L 9.347656 13.042969 L 9.347656 15.21875 L 10.652344 15.21875 L 10.652344 13.042969 Z M 12.609375 13.042969 "/>
</svg>
