<?xml version="1.0" encoding="UTF-8"?>
<svg xmlns="http://www.w3.org/2000/svg" xmlns:xlink="http://www.w3.org/1999/xlink" width="40" height="40" viewBox="0 0 40 40">
<path fill-rule="nonzero" fill="rgb(20%, 54.117647%, 95.294118%)" fill-opacity="1" d="M 40 20 C 40 31.046875 31.046875 40 20 40 C 8.953125 40 0 31.046875 0 20 C 0 8.953125 8.953125 0 20 0 C 31.046875 0 40 8.953125 40 20 Z M 40 20 "/>
<path fill-rule="nonzero" fill="rgb(93.333333%, 93.333333%, 93.333333%)" fill-opacity="1" d="M 10.546875 26.796875 L 7.34375 21.328125 L 8.671875 18.359375 L 5.546875 14.375 L 4.84375 11.484375 L 10.625 15.46875 L 14.140625 14.609375 L 15.625 9.375 L 19.53125 7.109375 L 25.390625 7.96875 L 32.1875 11.484375 L 32.5 17.265625 L 34.6875 18.046875 L 34.6875 23.984375 L 30.546875 31.328125 L 25.546875 32.890625 L 20.9375 31.796875 L 22.109375 29.84375 L 21.5625 27.8125 L 20.9375 28.359375 Z M 10.546875 26.796875 "/>
</svg>
