<?xml version="1.0" encoding="UTF-8"?>
<svg xmlns="http://www.w3.org/2000/svg" xmlns:xlink="http://www.w3.org/1999/xlink" width="20" height="20" viewBox="0 0 20 20">
<path fill-rule="nonzero" fill="rgb(20%, 54.117647%, 95.294118%)" fill-opacity="1" d="M 20 10 C 20 15.523438 15.523438 20 10 20 C 4.476562 20 0 15.523438 0 10 C 0 4.476562 4.476562 0 10 0 C 15.523438 0 20 4.476562 20 10 Z M 20 10 "/>
<path fill-rule="nonzero" fill="rgb(93.333333%, 93.333333%, 93.333333%)" fill-opacity="1" d="M 5.273438 13.398438 L 3.671875 10.664062 L 4.335938 9.179688 L 2.773438 7.1875 L 2.421875 5.742188 L 5.3125 7.734375 L 7.070312 7.304688 L 7.8125 4.6875 L 9.765625 3.554688 L 12.695312 3.984375 L 16.09375 5.742188 L 16.25 8.632812 L 17.34375 9.023438 L 17.34375 11.992188 L 15.273438 15.664062 L 12.773438 16.445312 L 10.46875 15.898438 L 11.054688 14.921875 L 10.78125 13.90625 L 10.46875 14.179688 Z M 5.273438 13.398438 "/>
</svg>
