<?xml version="1.0" encoding="UTF-8"?>
<svg xmlns="http://www.w3.org/2000/svg" xmlns:xlink="http://www.w3.org/1999/xlink" width="60" height="60" viewBox="0 0 60 60">
<path fill-rule="nonzero" fill="rgb(20%, 54.117647%, 95.294118%)" fill-opacity="1" d="M 60 30 C 60 46.570312 46.570312 60 30 60 C 13.429688 60 0 46.570312 0 30 C 0 13.429688 13.429688 0 30 0 C 46.570312 0 60 13.429688 60 30 Z M 60 30 "/>
<path fill-rule="nonzero" fill="rgb(93.333333%, 93.333333%, 93.333333%)" fill-opacity="1" d="M 15.820312 40.195312 L 11.015625 31.992188 L 13.007812 27.539062 L 8.320312 21.5625 L 7.265625 17.226562 L 15.9375 23.203125 L 21.210938 21.914062 L 23.4375 14.0625 L 29.296875 10.664062 L 38.085938 11.953125 L 48.28125 17.226562 L 48.75 25.898438 L 52.03125 27.070312 L 52.03125 35.976562 L 45.820312 46.992188 L 38.320312 49.335938 L 31.40625 47.695312 L 33.164062 44.765625 L 32.34375 41.71875 L 31.40625 42.539062 Z M 15.820312 40.195312 "/>
</svg>
