<?xml version="1.0" encoding="UTF-8"?>
<svg xmlns="http://www.w3.org/2000/svg" xmlns:xlink="http://www.w3.org/1999/xlink" width="40" height="40" viewBox="0 0 40 40">
<path fill-rule="nonzero" fill="rgb(93.333333%, 93.333333%, 93.333333%)" fill-opacity="1" d="M 40 20 C 40 31.046875 31.046875 40 20 40 C 8.953125 40 0 31.046875 0 20 C 0 8.953125 8.953125 0 20 0 C 31.046875 0 40 8.953125 40 20 Z M 40 20 "/>
<path fill-rule="evenodd" fill="rgb(28.627451%, 43.137255%, 17.647059%)" fill-opacity="1" d="M 4 8 C 7.648438 3.140625 13.457031 0 20 0 C 26.542969 0 32.351562 3.140625 36 8 Z M 20.035156 40 C 26.5625 39.988281 32.359375 36.847656 36 32 L 3.996094 32 C 7.640625 36.847656 13.433594 39.988281 19.964844 40 Z M 20.035156 40 "/>
<path fill-rule="evenodd" fill="rgb(63.529412%, 0%, 11.372549%)" fill-opacity="1" d="M 38.335938 28 C 39.40625 25.550781 40 22.84375 40 20 C 40 17.15625 39.40625 14.449219 38.335938 12 L 1.664062 12 C 0.59375 14.449219 0 17.15625 0 20 C 0 22.84375 0.59375 25.550781 1.664062 28 Z M 38.335938 28 "/>
<path fill-rule="nonzero" fill="rgb(100%, 85.490196%, 26.666667%)" fill-opacity="1" d="M 20 13.042969 L 21.726562 18.359375 L 27.316406 18.359375 L 22.792969 21.640625 L 24.519531 26.957031 L 20 23.671875 L 15.480469 26.957031 L 17.207031 21.640625 L 12.683594 18.359375 L 18.273438 18.359375 Z M 20 13.042969 "/>
</svg>
