<?xml version="1.0" encoding="UTF-8"?>
<svg xmlns="http://www.w3.org/2000/svg" xmlns:xlink="http://www.w3.org/1999/xlink" width="60" height="60" viewBox="0 0 60 60">
<path fill-rule="nonzero" fill="rgb(93.333333%, 93.333333%, 93.333333%)" fill-opacity="1" d="M 60 30 C 60 46.570312 46.570312 60 30 60 C 13.429688 60 0 46.570312 0 30 C 0 13.429688 13.429688 0 30 0 C 46.570312 0 60 13.429688 60 30 Z M 60 30 "/>
<path fill-rule="evenodd" fill="rgb(28.627451%, 43.137255%, 17.647059%)" fill-opacity="1" d="M 5.996094 12 C 11.472656 4.714844 20.183594 0 30 0 C 39.816406 0 48.527344 4.714844 54.003906 12 Z M 30.054688 60 C 39.847656 59.984375 48.539062 55.273438 54 48 L 5.996094 48 C 11.460938 55.273438 20.152344 59.984375 29.945312 60 Z M 30.054688 60 "/>
<path fill-rule="evenodd" fill="rgb(63.529412%, 0%, 11.372549%)" fill-opacity="1" d="M 57.503906 42 C 59.109375 38.324219 60 34.265625 60 30 C 60 25.734375 59.109375 21.675781 57.503906 18 L 2.496094 18 C 0.890625 21.675781 0 25.734375 0 30 C 0 34.265625 0.890625 38.324219 2.496094 42 Z M 57.503906 42 "/>
<path fill-rule="nonzero" fill="rgb(100%, 85.490196%, 26.666667%)" fill-opacity="1" d="M 30 19.566406 L 32.589844 27.535156 L 40.972656 27.535156 L 34.191406 32.464844 L 36.78125 40.433594 L 30 35.507812 L 23.21875 40.433594 L 25.808594 32.464844 L 19.027344 27.535156 L 27.410156 27.535156 Z M 30 19.566406 "/>
</svg>
