<?xml version="1.0" encoding="UTF-8"?>
<svg xmlns="http://www.w3.org/2000/svg" xmlns:xlink="http://www.w3.org/1999/xlink" width="20" height="20" viewBox="0 0 20 20">
<path fill-rule="nonzero" fill="rgb(93.333333%, 93.333333%, 93.333333%)" fill-opacity="1" d="M 20 10 C 20 15.523438 15.523438 20 10 20 C 4.476562 20 0 15.523438 0 10 C 0 4.476562 4.476562 0 10 0 C 15.523438 0 20 4.476562 20 10 Z M 20 10 "/>
<path fill-rule="evenodd" fill="rgb(28.627451%, 43.137255%, 17.647059%)" fill-opacity="1" d="M 2 4 C 3.824219 1.570312 6.726562 0 10 0 C 13.273438 0 16.175781 1.570312 18 4 Z M 10.019531 20 C 13.28125 19.996094 16.179688 18.425781 18 16 L 2 16 C 3.820312 18.425781 6.71875 19.992188 9.980469 20 Z M 10.019531 20 "/>
<path fill-rule="evenodd" fill="rgb(63.529412%, 0%, 11.372549%)" fill-opacity="1" d="M 19.167969 14 C 19.703125 12.773438 20 11.421875 20 10 C 20 8.578125 19.703125 7.226562 19.167969 6 L 0.832031 6 C 0.296875 7.226562 0 8.578125 0 10 C 0 11.421875 0.296875 12.773438 0.832031 14 Z M 19.167969 14 "/>
<path fill-rule="nonzero" fill="rgb(100%, 85.490196%, 26.666667%)" fill-opacity="1" d="M 10 6.523438 L 10.863281 9.179688 L 13.65625 9.179688 L 11.398438 10.820312 L 12.261719 13.476562 L 10 11.835938 L 7.738281 13.476562 L 8.601562 10.820312 L 6.34375 9.179688 L 9.136719 9.179688 Z M 10 6.523438 "/>
</svg>
