<?xml version="1.0" encoding="UTF-8"?>
<svg xmlns="http://www.w3.org/2000/svg" xmlns:xlink="http://www.w3.org/1999/xlink" width="40" height="40" viewBox="0 0 40 40">
<path fill-rule="nonzero" fill="rgb(84.705882%, 0%, 15.294118%)" fill-opacity="1" d="M 37.671875 29.375 C 39.15625 26.578125 40 23.386719 40 20 C 40 16.613281 39.15625 13.421875 37.671875 10.625 L 2.328125 10.625 C 0.84375 13.421875 0 16.613281 0 20 C 0 23.386719 0.84375 26.578125 2.328125 29.375 Z M 37.671875 29.375 "/>
<path fill-rule="nonzero" fill="rgb(100%, 85.490196%, 26.666667%)" fill-opacity="1" d="M 38.785156 26.875 C 35.984375 34.535156 28.628906 40 20 40 C 11.371094 40 4.015625 34.535156 1.214844 26.875 L 38.789062 26.875 Z M 38.785156 26.875 "/>
<path fill-rule="nonzero" fill="rgb(20%, 20%, 20%)" fill-opacity="1" d="M 38.785156 13.125 L 1.210938 13.125 C 4.015625 5.464844 11.371094 0 20 0 C 28.628906 0 35.984375 5.464844 38.785156 13.125 Z M 38.785156 13.125 "/>
</svg>
