<?xml version="1.0" encoding="UTF-8"?>
<svg xmlns="http://www.w3.org/2000/svg" xmlns:xlink="http://www.w3.org/1999/xlink" width="60" height="60" viewBox="0 0 60 60">
<path fill-rule="nonzero" fill="rgb(0%, 13.333333%, 40%)" fill-opacity="1" d="M 60 30 C 60 46.570312 46.570312 60 30 60 C 13.429688 60 0 46.570312 0 30 C 0 13.429688 13.429688 0 30 0 C 46.570312 0 60 13.429688 60 30 Z M 60 30 "/>
<path fill-rule="evenodd" fill="rgb(93.333333%, 93.333333%, 93.333333%)" fill-opacity="1" d="M 39.375 32.460938 L 37.851562 30 L 52.148438 30 L 50.625 32.460938 L 46.40625 32.460938 L 46.40625 33.867188 L 49.6875 33.867188 L 48.28125 36.210938 L 46.40625 36.210938 L 46.40625 40.78125 L 49.570312 35.742188 L 53.90625 42.65625 L 51.796875 42.65625 L 51.402344 41.953125 L 47.742188 41.953125 L 45 46.875 L 42.257812 41.953125 L 38.597656 41.953125 L 38.203125 42.65625 L 36.09375 42.65625 L 40.429688 35.742188 L 43.59375 40.78125 L 43.59375 32.460938 Z M 39.511719 40.3125 L 41.34375 40.3125 L 40.429688 38.671875 Z M 48.65625 40.3125 L 50.488281 40.3125 L 49.570312 38.671875 Z M 35.875 34.453125 L 35.273438 32.695312 L 34.671875 34.453125 L 32.8125 34.453125 L 34.324219 35.476562 L 33.75 37.148438 L 35.273438 36.117188 L 36.796875 37.148438 L 36.222656 35.476562 L 37.734375 34.453125 Z M 55.328125 34.453125 L 54.726562 32.695312 L 54.125 34.453125 L 52.265625 34.453125 L 53.777344 35.476562 L 53.203125 37.148438 L 54.726562 36.117188 L 56.25 37.148438 L 55.675781 35.476562 L 57.1875 34.453125 Z M 40.328125 46.289062 L 39.726562 44.53125 L 39.125 46.289062 L 37.265625 46.289062 L 38.777344 47.3125 L 38.203125 48.984375 L 39.726562 47.953125 L 41.25 48.984375 L 40.675781 47.3125 L 42.1875 46.289062 Z M 50.875 46.289062 L 50.273438 44.53125 L 49.671875 46.289062 L 47.8125 46.289062 L 49.324219 47.3125 L 48.75 48.984375 L 50.273438 47.953125 L 51.796875 48.984375 L 51.222656 47.3125 L 52.734375 46.289062 Z M 45.601562 50.273438 L 45 48.515625 L 44.398438 50.273438 L 42.539062 50.273438 L 44.050781 51.296875 L 43.476562 52.96875 L 45 51.9375 L 46.523438 52.96875 L 45.949219 51.296875 L 47.460938 50.273438 Z M 45.601562 50.273438 "/>
<path fill-rule="nonzero" fill="rgb(93.333333%, 93.333333%, 93.333333%)" fill-opacity="1" d="M 0 28.777344 C 0.640625 12.777344 13.816406 0 29.976562 0 C 29.984375 0 29.992188 0 30 0 L 30 30 L 0 30 Z M 0 28.777344 "/>
<path fill-rule="evenodd" fill="rgb(0%, 13.333333%, 40%)" fill-opacity="1" d="M 0.230469 26.25 C 1.078125 19.464844 4.191406 13.382812 8.789062 8.785156 L 8.789062 26.25 Z M 0.230469 26.25 "/>
<path fill-rule="evenodd" fill="rgb(93.333333%, 93.333333%, 93.333333%)" fill-opacity="1" d="M 8.789062 8.785156 C 11.285156 6.289062 14.214844 4.234375 17.460938 2.738281 L 17.460938 26.25 L 8.789062 26.25 Z M 8.789062 8.785156 "/>
<path fill-rule="evenodd" fill="rgb(84.705882%, 0%, 15.294118%)" fill-opacity="1" d="M 17.460938 2.738281 C 20.195312 1.480469 23.148438 0.617188 26.25 0.230469 L 26.25 26.25 L 17.460938 26.25 Z M 17.460938 2.738281 "/>
</svg>
