<?xml version="1.0" encoding="UTF-8"?>
<svg xmlns="http://www.w3.org/2000/svg" xmlns:xlink="http://www.w3.org/1999/xlink" width="20" height="20" viewBox="0 0 20 20">
<path fill-rule="nonzero" fill="rgb(0%, 13.333333%, 40%)" fill-opacity="1" d="M 20 10 C 20 15.523438 15.523438 20 10 20 C 4.476562 20 0 15.523438 0 10 C 0 4.476562 4.476562 0 10 0 C 15.523438 0 20 4.476562 20 10 Z M 20 10 "/>
<path fill-rule="evenodd" fill="rgb(93.333333%, 93.333333%, 93.333333%)" fill-opacity="1" d="M 13.125 10.820312 L 12.617188 10 L 17.382812 10 L 16.875 10.820312 L 15.46875 10.820312 L 15.46875 11.289062 L 16.5625 11.289062 L 16.09375 12.070312 L 15.46875 12.070312 L 15.46875 13.59375 L 16.523438 11.914062 L 17.96875 14.21875 L 17.265625 14.21875 L 17.132812 13.984375 L 15.914062 13.984375 L 15 15.625 L 14.085938 13.984375 L 12.867188 13.984375 L 12.734375 14.21875 L 12.03125 14.21875 L 13.476562 11.914062 L 14.53125 13.59375 L 14.53125 10.820312 Z M 13.171875 13.4375 L 13.78125 13.4375 L 13.476562 12.890625 Z M 16.21875 13.4375 L 16.828125 13.4375 L 16.523438 12.890625 Z M 11.957031 11.484375 L 11.757812 10.898438 L 11.558594 11.484375 L 10.9375 11.484375 L 11.441406 11.824219 L 11.25 12.382812 L 11.757812 12.039062 L 12.265625 12.382812 L 12.074219 11.824219 L 12.578125 11.484375 Z M 18.441406 11.484375 L 18.242188 10.898438 L 18.042969 11.484375 L 17.421875 11.484375 L 17.925781 11.824219 L 17.734375 12.382812 L 18.242188 12.039062 L 18.75 12.382812 L 18.558594 11.824219 L 19.0625 11.484375 Z M 13.441406 15.429688 L 13.242188 14.84375 L 13.042969 15.429688 L 12.421875 15.429688 L 12.925781 15.769531 L 12.734375 16.328125 L 13.242188 15.984375 L 13.75 16.328125 L 13.558594 15.769531 L 14.0625 15.429688 Z M 16.957031 15.429688 L 16.757812 14.84375 L 16.558594 15.429688 L 15.9375 15.429688 L 16.441406 15.769531 L 16.25 16.328125 L 16.757812 15.984375 L 17.265625 16.328125 L 17.074219 15.769531 L 17.578125 15.429688 Z M 15.199219 16.757812 L 15 16.171875 L 14.800781 16.757812 L 14.179688 16.757812 L 14.683594 17.097656 L 14.492188 17.65625 L 15 17.3125 L 15.507812 17.65625 L 15.316406 17.097656 L 15.820312 16.757812 Z M 15.199219 16.757812 "/>
<path fill-rule="nonzero" fill="rgb(93.333333%, 93.333333%, 93.333333%)" fill-opacity="1" d="M 0 9.59375 C 0.214844 4.257812 4.605469 0 9.992188 0 C 9.996094 0 9.996094 0 10 0 L 10 10 L 0 10 Z M 0 9.59375 "/>
<path fill-rule="evenodd" fill="rgb(0%, 13.333333%, 40%)" fill-opacity="1" d="M 0.078125 8.75 C 0.359375 6.488281 1.398438 4.460938 2.929688 2.929688 L 2.929688 8.75 Z M 0.078125 8.75 "/>
<path fill-rule="evenodd" fill="rgb(93.333333%, 93.333333%, 93.333333%)" fill-opacity="1" d="M 2.929688 2.929688 C 3.761719 2.097656 4.738281 1.410156 5.820312 0.914062 L 5.820312 8.75 L 2.929688 8.75 Z M 2.929688 2.929688 "/>
<path fill-rule="evenodd" fill="rgb(84.705882%, 0%, 15.294118%)" fill-opacity="1" d="M 5.820312 0.914062 C 6.730469 0.492188 7.714844 0.207031 8.75 0.078125 L 8.75 8.75 L 5.820312 8.75 Z M 5.820312 0.914062 "/>
</svg>
