<?xml version="1.0" encoding="UTF-8"?>
<svg xmlns="http://www.w3.org/2000/svg" xmlns:xlink="http://www.w3.org/1999/xlink" width="40" height="40" viewBox="0 0 40 40">
<path fill-rule="nonzero" fill="rgb(0%, 13.333333%, 40%)" fill-opacity="1" d="M 40 20 C 40 31.046875 31.046875 40 20 40 C 8.953125 40 0 31.046875 0 20 C 0 8.953125 8.953125 0 20 0 C 31.046875 0 40 8.953125 40 20 Z M 40 20 "/>
<path fill-rule="evenodd" fill="rgb(93.333333%, 93.333333%, 93.333333%)" fill-opacity="1" d="M 26.25 21.640625 L 25.234375 20 L 34.765625 20 L 33.75 21.640625 L 30.9375 21.640625 L 30.9375 22.578125 L 33.125 22.578125 L 32.1875 24.140625 L 30.9375 24.140625 L 30.9375 27.1875 L 33.046875 23.828125 L 35.9375 28.4375 L 34.53125 28.4375 L 34.269531 27.96875 L 31.828125 27.96875 L 30 31.25 L 28.171875 27.96875 L 25.730469 27.96875 L 25.46875 28.4375 L 24.0625 28.4375 L 26.953125 23.828125 L 29.0625 27.1875 L 29.0625 21.640625 Z M 26.34375 26.875 L 27.5625 26.875 L 26.953125 25.78125 Z M 32.4375 26.875 L 33.65625 26.875 L 33.046875 25.78125 Z M 23.917969 22.96875 L 23.515625 21.796875 L 23.113281 22.96875 L 21.875 22.96875 L 22.882812 23.648438 L 22.5 24.765625 L 23.515625 24.078125 L 24.53125 24.765625 L 24.148438 23.648438 L 25.15625 22.96875 Z M 36.886719 22.96875 L 36.484375 21.796875 L 36.082031 22.96875 L 34.84375 22.96875 L 35.851562 23.648438 L 35.46875 24.765625 L 36.484375 24.078125 L 37.5 24.765625 L 37.117188 23.648438 L 38.125 22.96875 Z M 26.886719 30.859375 L 26.484375 29.6875 L 26.082031 30.859375 L 24.84375 30.859375 L 25.851562 31.539062 L 25.46875 32.65625 L 26.484375 31.96875 L 27.5 32.65625 L 27.117188 31.539062 L 28.125 30.859375 Z M 33.917969 30.859375 L 33.515625 29.6875 L 33.113281 30.859375 L 31.875 30.859375 L 32.882812 31.539062 L 32.5 32.65625 L 33.515625 31.96875 L 34.53125 32.65625 L 34.148438 31.539062 L 35.15625 30.859375 Z M 30.402344 33.515625 L 30 32.34375 L 29.597656 33.515625 L 28.359375 33.515625 L 29.367188 34.195312 L 28.984375 35.3125 L 30 34.625 L 31.015625 35.3125 L 30.632812 34.195312 L 31.640625 33.515625 Z M 30.402344 33.515625 "/>
<path fill-rule="nonzero" fill="rgb(93.333333%, 93.333333%, 93.333333%)" fill-opacity="1" d="M 0 19.1875 C 0.425781 8.515625 9.210938 0 19.984375 0 C 19.988281 0 19.996094 0 20 0 L 20 20 L 0 20 Z M 0 19.1875 "/>
<path fill-rule="evenodd" fill="rgb(0%, 13.333333%, 40%)" fill-opacity="1" d="M 0.15625 17.5 C 0.71875 12.976562 2.792969 8.921875 5.859375 5.855469 L 5.859375 17.5 Z M 0.15625 17.5 "/>
<path fill-rule="evenodd" fill="rgb(93.333333%, 93.333333%, 93.333333%)" fill-opacity="1" d="M 5.859375 5.855469 C 7.523438 4.195312 9.476562 2.820312 11.640625 1.824219 L 11.640625 17.5 L 5.859375 17.5 Z M 5.859375 5.855469 "/>
<path fill-rule="evenodd" fill="rgb(84.705882%, 0%, 15.294118%)" fill-opacity="1" d="M 11.640625 1.824219 C 13.460938 0.984375 15.433594 0.414062 17.5 0.15625 L 17.5 17.5 L 11.640625 17.5 Z M 11.640625 1.824219 "/>
</svg>
