<?xml version="1.0" encoding="UTF-8"?>
<svg width="16px" height="16px" viewBox="0 0 16 16" version="1.1" xmlns="http://www.w3.org/2000/svg" xmlns:xlink="http://www.w3.org/1999/xlink">
    <title>34443797-D106-44A4-BA2C-627AB1B2BD48</title>
    <g id="Preferences" stroke="none" stroke-width="1" fill="none" fill-rule="evenodd">
        <g id="Help-Dark" transform="translate(-113.000000, -376.000000)" fill="#FFFFFF" fill-rule="nonzero">
            <g id="Group-7" transform="translate(113.000000, 364.000000)">
                <g id="Path-7" transform="translate(0.000000, 12.000000)">
                    <path d="M1.14680707,2.12132034 C-0.349613214,3.61774063 -0.386190469,6.03239347 1.06421797,7.57345244 L7.85391385,14.7875043 L14.6436097,7.57345244 C16.0940182,6.03239347 16.0574409,3.61774063 14.5610206,2.12132034 L14.4031183,1.97198874 C12.8998572,0.628004309 10.5903459,0.67778151 9.14680707,2.12132034 L7.85391385,3.41342712 L6.56102063,2.12132034 C5.06592684,0.626226552 2.64190086,0.626226552 1.14680707,2.12132034 Z M13.2622006,3.66155128 C13.8786006,4.39751546 13.8573322,5.49071792 13.1872098,6.20272304 L7.85391385,11.8684271 L2.52061795,6.20272304 C1.81107652,5.44883527 1.82897015,4.26758439 2.56102063,3.53553391 C3.27506584,2.8214887 4.43276186,2.8214887 5.14680707,3.53553391 L7.85391385,6.24264069 L10.5610206,3.53553391 C11.2750658,2.8214887 12.4327619,2.8214887 13.1468071,3.53553391 L13.2622006,3.66155128 Z" id="community"></path>
                </g>
            </g>
        </g>
    </g>
</svg>