<?xml version="1.0" encoding="UTF-8"?>
<svg xmlns="http://www.w3.org/2000/svg" xmlns:xlink="http://www.w3.org/1999/xlink" width="60" height="60" viewBox="0 0 60 60">
<path fill-rule="nonzero" fill="rgb(20%, 54.117647%, 95.294118%)" fill-opacity="1" d="M 60 30 C 60 46.570312 46.570312 60 30 60 C 13.429688 60 0 46.570312 0 30 C 0 13.429688 13.429688 0 30 0 C 46.570312 0 60 13.429688 60 30 Z M 60 30 "/>
<path fill-rule="evenodd" fill="rgb(93.333333%, 93.333333%, 93.333333%)" fill-opacity="1" d="M 59.054688 22.5 C 59.671875 24.898438 60 27.410156 60 30 L 0 30 C 0 27.410156 0.328125 24.898438 0.945312 22.5 Z M 49.84375 7.5 C 52.273438 9.644531 54.355469 12.175781 55.988281 15 L 4.015625 15 C 5.648438 12.175781 7.726562 9.644531 10.15625 7.5 Z M 55.988281 45 C 57.328125 42.679688 58.371094 40.160156 59.054688 37.5 L 0.945312 37.5 C 1.628906 40.160156 2.671875 42.679688 4.015625 45 Z M 49.84375 52.5 L 10.15625 52.5 C 15.445312 57.167969 22.390625 60 30 60 C 37.609375 60 44.554688 57.167969 49.84375 52.5 Z M 49.84375 52.5 "/>
<path fill-rule="evenodd" fill="rgb(20%, 54.117647%, 95.294118%)" fill-opacity="1" d="M 0.945312 37.5 C 0.328125 35.101562 0 32.589844 0 30 C 0 13.429688 13.429688 0 30 0 C 32.589844 0 35.101562 0.328125 37.5 0.945312 L 37.5 37.5 Z M 0.945312 37.5 "/>
<path fill-rule="evenodd" fill="rgb(93.333333%, 93.333333%, 93.333333%)" fill-opacity="1" d="M 15 4.011719 C 17.320312 2.671875 19.839844 1.628906 22.5 0.945312 L 22.5 15 L 37.5 15 L 37.5 22.5 L 22.5 22.5 L 22.5 37.5 L 15 37.5 L 15 22.5 L 0.945312 22.5 C 1.628906 19.839844 2.671875 17.320312 4.011719 15 L 15 15 Z M 15 4.011719 "/>
</svg>
