<?xml version="1.0" encoding="UTF-8"?>
<svg xmlns="http://www.w3.org/2000/svg" xmlns:xlink="http://www.w3.org/1999/xlink" width="20" height="20" viewBox="0 0 20 20">
<path fill-rule="nonzero" fill="rgb(20%, 54.117647%, 95.294118%)" fill-opacity="1" d="M 20 10 C 20 15.523438 15.523438 20 10 20 C 4.476562 20 0 15.523438 0 10 C 0 4.476562 4.476562 0 10 0 C 15.523438 0 20 4.476562 20 10 Z M 20 10 "/>
<path fill-rule="evenodd" fill="rgb(93.333333%, 93.333333%, 93.333333%)" fill-opacity="1" d="M 19.683594 7.5 C 19.890625 8.300781 20 9.136719 20 10 L 0 10 C 0 9.136719 0.109375 8.300781 0.316406 7.5 Z M 16.613281 2.5 C 17.425781 3.214844 18.117188 4.058594 18.664062 5 L 1.339844 5 C 1.882812 4.058594 2.574219 3.214844 3.386719 2.5 Z M 18.664062 15 C 19.109375 14.226562 19.457031 13.386719 19.683594 12.5 L 0.316406 12.5 C 0.542969 13.386719 0.890625 14.226562 1.339844 15 Z M 16.613281 17.5 L 3.386719 17.5 C 5.148438 19.054688 7.464844 20 10 20 C 12.535156 20 14.851562 19.054688 16.613281 17.5 Z M 16.613281 17.5 "/>
<path fill-rule="evenodd" fill="rgb(20%, 54.117647%, 95.294118%)" fill-opacity="1" d="M 0.316406 12.5 C 0.109375 11.699219 0 10.863281 0 10 C 0 4.476562 4.476562 0 10 0 C 10.863281 0 11.699219 0.109375 12.5 0.316406 L 12.5 12.5 Z M 0.316406 12.5 "/>
<path fill-rule="evenodd" fill="rgb(93.333333%, 93.333333%, 93.333333%)" fill-opacity="1" d="M 5 1.335938 C 5.773438 0.890625 6.613281 0.542969 7.5 0.316406 L 7.5 5 L 12.5 5 L 12.5 7.5 L 7.5 7.5 L 7.5 12.5 L 5 12.5 L 5 7.5 L 0.316406 7.5 C 0.542969 6.613281 0.890625 5.773438 1.335938 5 L 5 5 Z M 5 1.335938 "/>
</svg>
