<?xml version="1.0" encoding="UTF-8"?>
<svg xmlns="http://www.w3.org/2000/svg" xmlns:xlink="http://www.w3.org/1999/xlink" width="40" height="40" viewBox="0 0 40 40">
<path fill-rule="nonzero" fill="rgb(20%, 54.117647%, 95.294118%)" fill-opacity="1" d="M 40 20 C 40 31.046875 31.046875 40 20 40 C 8.953125 40 0 31.046875 0 20 C 0 8.953125 8.953125 0 20 0 C 31.046875 0 40 8.953125 40 20 Z M 40 20 "/>
<path fill-rule="evenodd" fill="rgb(93.333333%, 93.333333%, 93.333333%)" fill-opacity="1" d="M 39.371094 15 C 39.78125 16.597656 40 18.273438 40 20 L 0 20 C 0 18.273438 0.21875 16.597656 0.628906 15 Z M 33.230469 5 C 34.847656 6.429688 36.234375 8.117188 37.324219 10 L 2.675781 10 C 3.765625 8.117188 5.152344 6.429688 6.773438 5 Z M 37.324219 30 C 38.21875 28.453125 38.914062 26.773438 39.371094 25 L 0.628906 25 C 1.085938 26.773438 1.78125 28.453125 2.675781 30 Z M 33.230469 35 L 6.769531 35 C 10.296875 38.113281 14.929688 40 20 40 C 25.070312 40 29.703125 38.113281 33.230469 35 Z M 33.230469 35 "/>
<path fill-rule="evenodd" fill="rgb(20%, 54.117647%, 95.294118%)" fill-opacity="1" d="M 0.628906 25 C 0.21875 23.402344 0 21.726562 0 20 C 0 8.953125 8.953125 0 20 0 C 21.726562 0 23.402344 0.21875 25 0.628906 L 25 25 Z M 0.628906 25 "/>
<path fill-rule="evenodd" fill="rgb(93.333333%, 93.333333%, 93.333333%)" fill-opacity="1" d="M 10 2.675781 C 11.546875 1.78125 13.226562 1.085938 15 0.628906 L 15 10 L 25 10 L 25 15 L 15 15 L 15 25 L 10 25 L 10 15 L 0.628906 15 C 1.085938 13.226562 1.78125 11.546875 2.675781 10 L 10 10 Z M 10 2.675781 "/>
</svg>
