<?xml version="1.0" encoding="UTF-8"?>
<svg xmlns="http://www.w3.org/2000/svg" xmlns:xlink="http://www.w3.org/1999/xlink" width="40" height="40" viewBox="0 0 40 40">
<path fill-rule="nonzero" fill="rgb(20%, 54.117647%, 95.294118%)" fill-opacity="1" d="M 34.140625 5.855469 L 17.5 17.5 L 5.855469 34.140625 C 9.476562 37.761719 14.476562 40 20 40 C 30.972656 40 39.878906 31.164062 40 20.222656 L 40 19.777344 C 39.9375 14.34375 37.710938 9.429688 34.140625 5.859375 Z M 34.140625 5.855469 "/>
<path fill-rule="nonzero" fill="rgb(42.745098%, 64.705882%, 26.666667%)" fill-opacity="1" d="M 34.140625 5.855469 L 5.855469 34.140625 C 2.238281 30.523438 0 25.523438 0 20 C 0 8.957031 8.949219 0.00390625 19.992188 0 C 19.996094 0 19.996094 0 20 0 C 20 0 20.003906 0 20.007812 0 C 25.527344 0.00390625 30.523438 2.238281 34.140625 5.859375 Z M 34.140625 5.855469 "/>
<path fill-rule="nonzero" fill="rgb(100%, 85.490196%, 26.666667%)" fill-opacity="1" d="M 29.078125 2.171875 C 32.835938 4.089844 35.910156 7.164062 37.828125 10.921875 L 10.921875 37.828125 C 7.164062 35.910156 4.089844 32.835938 2.171875 29.078125 Z M 29.078125 2.171875 "/>
<path fill-rule="nonzero" fill="rgb(20%, 20%, 20%)" fill-opacity="1" d="M 31.421875 3.578125 C 33.367188 4.9375 35.0625 6.632812 36.421875 8.578125 L 8.578125 36.421875 C 6.632812 35.0625 4.9375 33.367188 3.578125 31.421875 Z M 31.421875 3.578125 "/>
</svg>
