<?xml version="1.0" encoding="UTF-8"?>
<svg xmlns="http://www.w3.org/2000/svg" xmlns:xlink="http://www.w3.org/1999/xlink" width="40" height="40" viewBox="0 0 40 40">
<path fill-rule="nonzero" fill="rgb(63.529412%, 0%, 11.372549%)" fill-opacity="1" d="M 5.855469 5.859375 L 17.5 22.5 L 34.140625 34.144531 C 37.761719 30.523438 40 25.523438 40 20 C 40 9.027344 31.164062 0.121094 20.222656 0 L 19.777344 0 C 14.34375 0.0625 9.429688 2.289062 5.855469 5.859375 Z M 5.855469 5.859375 "/>
<path fill-rule="nonzero" fill="rgb(20%, 20%, 20%)" fill-opacity="1" d="M 5.855469 5.859375 L 34.140625 34.144531 C 30.523438 37.761719 25.523438 40 20 40 C 8.957031 40 0.00390625 31.050781 0 20.007812 C 0 20.003906 0 20.003906 0 20 C 0 19.996094 0 19.996094 0 19.992188 C 0.00390625 14.472656 2.238281 9.476562 5.859375 5.859375 Z M 5.855469 5.859375 "/>
<path fill-rule="nonzero" fill="rgb(93.333333%, 93.333333%, 93.333333%)" fill-opacity="1" d="M 14.035156 28.207031 L 14.359375 29.203125 L 15.40625 29.203125 L 14.558594 29.820312 L 14.882812 30.816406 L 14.035156 30.199219 L 13.1875 30.816406 L 13.511719 29.820312 L 12.664062 29.203125 L 13.710938 29.203125 Z M 14.035156 28.207031 "/>
<path fill-rule="nonzero" fill="rgb(93.333333%, 93.333333%, 93.333333%)" fill-opacity="1" d="M 11.359375 18.640625 L 11.898438 20.300781 L 13.644531 20.300781 L 12.230469 21.328125 L 12.769531 22.988281 L 11.359375 21.960938 L 9.945312 22.988281 L 10.484375 21.328125 L 9.074219 20.300781 L 10.820312 20.300781 Z M 11.359375 18.640625 "/>
<path fill-rule="nonzero" fill="rgb(93.333333%, 93.333333%, 93.333333%)" fill-opacity="1" d="M 11.359375 30.816406 L 11.898438 32.476562 L 13.644531 32.476562 L 12.230469 33.503906 L 12.769531 35.164062 L 11.359375 34.136719 L 9.945312 35.164062 L 10.484375 33.503906 L 9.074219 32.476562 L 10.820312 32.476562 Z M 11.359375 30.816406 "/>
<path fill-rule="nonzero" fill="rgb(93.333333%, 93.333333%, 93.333333%)" fill-opacity="1" d="M 16.464844 22.988281 L 17.003906 24.648438 L 18.75 24.648438 L 17.335938 25.675781 L 17.875 27.335938 L 16.464844 26.308594 L 15.050781 27.335938 L 15.589844 25.675781 L 14.179688 24.648438 L 15.925781 24.648438 Z M 16.464844 22.988281 "/>
<path fill-rule="nonzero" fill="rgb(93.333333%, 93.333333%, 93.333333%)" fill-opacity="1" d="M 6.253906 22.988281 L 6.792969 24.648438 L 8.539062 24.648438 L 7.125 25.675781 L 7.664062 27.335938 L 6.253906 26.308594 L 4.839844 27.335938 L 5.378906 25.675781 L 3.96875 24.648438 L 5.714844 24.648438 Z M 6.253906 22.988281 "/>
<path fill-rule="nonzero" fill="rgb(100%, 85.490196%, 26.666667%)" fill-opacity="1" d="M 34.730469 13.558594 C 33.835938 12.664062 32.675781 12.136719 31.425781 12.046875 L 35.164062 9.140625 C 33.675781 7.652344 31.679688 6.980469 29.734375 7.125 C 29.503906 6.285156 29.058594 5.496094 28.398438 4.835938 L 26.925781 7.789062 C 26.828125 7.613281 26.703125 7.445312 26.554688 7.296875 C 25.707031 6.449219 24.328125 6.449219 23.480469 7.296875 C 22.632812 8.144531 22.632812 9.523438 23.480469 10.371094 C 23.628906 10.519531 23.796875 10.644531 23.972656 10.738281 L 21.019531 12.214844 C 21.679688 12.875 22.472656 13.320312 23.308594 13.550781 C 23.167969 15.496094 23.835938 17.492188 25.324219 18.980469 L 28.589844 14.78125 C 28.835938 14.539062 29.160156 14.40625 29.503906 14.40625 C 29.851562 14.40625 30.179688 14.542969 30.425781 14.789062 C 30.671875 15.035156 30.808594 15.363281 30.808594 15.710938 C 30.808594 16.058594 30.671875 16.386719 30.425781 16.632812 L 31.65625 17.863281 C 32.230469 17.289062 32.546875 16.523438 32.546875 15.710938 C 32.546875 15.046875 32.335938 14.414062 31.945312 13.890625 C 32.515625 14.042969 33.054688 14.34375 33.5 14.789062 C 34.855469 16.144531 34.855469 18.351562 33.5 19.707031 L 34.730469 20.9375 C 35.714844 19.953125 36.257812 18.640625 36.257812 17.25 C 36.257812 15.855469 35.714844 14.542969 34.730469 13.558594 Z M 34.730469 13.558594 "/>
</svg>
