<?xml version="1.0" encoding="UTF-8"?>
<svg xmlns="http://www.w3.org/2000/svg" xmlns:xlink="http://www.w3.org/1999/xlink" width="60" height="60" viewBox="0 0 60 60">
<path fill-rule="nonzero" fill="rgb(63.529412%, 0%, 11.372549%)" fill-opacity="1" d="M 8.785156 8.789062 L 26.25 33.75 L 51.210938 51.214844 C 56.640625 45.785156 60 38.285156 60 30 C 60 13.542969 46.75 0.179688 30.335938 0.00390625 L 29.664062 0.00390625 C 21.511719 0.0898438 14.140625 3.429688 8.785156 8.789062 Z M 8.785156 8.789062 "/>
<path fill-rule="nonzero" fill="rgb(20%, 20%, 20%)" fill-opacity="1" d="M 8.785156 8.789062 L 51.210938 51.214844 C 45.785156 56.640625 38.285156 60 30 60 C 13.433594 60 0.0078125 46.574219 0 30.011719 C 0 30.007812 0 30.003906 0 30 C 0 29.996094 0 29.992188 0 29.988281 C 0.00390625 21.710938 3.359375 14.214844 8.785156 8.789062 Z M 8.785156 8.789062 "/>
<path fill-rule="nonzero" fill="rgb(93.333333%, 93.333333%, 93.333333%)" fill-opacity="1" d="M 21.050781 42.308594 L 21.539062 43.804688 L 23.109375 43.804688 L 21.835938 44.726562 L 22.324219 46.222656 L 21.050781 45.296875 L 19.78125 46.222656 L 20.265625 44.726562 L 18.996094 43.804688 L 20.566406 43.804688 Z M 21.050781 42.308594 "/>
<path fill-rule="nonzero" fill="rgb(93.333333%, 93.333333%, 93.333333%)" fill-opacity="1" d="M 17.039062 27.960938 L 17.847656 30.453125 L 20.464844 30.453125 L 18.347656 31.992188 L 19.15625 34.484375 L 17.039062 32.945312 L 14.917969 34.484375 L 15.726562 31.992188 L 13.609375 30.453125 L 16.230469 30.453125 Z M 17.039062 27.960938 "/>
<path fill-rule="nonzero" fill="rgb(93.333333%, 93.333333%, 93.333333%)" fill-opacity="1" d="M 17.039062 46.222656 L 17.847656 48.714844 L 20.464844 48.714844 L 18.347656 50.253906 L 19.15625 52.746094 L 17.039062 51.207031 L 14.917969 52.746094 L 15.726562 50.253906 L 13.609375 48.714844 L 16.226562 48.714844 Z M 17.039062 46.222656 "/>
<path fill-rule="nonzero" fill="rgb(93.333333%, 93.333333%, 93.333333%)" fill-opacity="1" d="M 24.695312 34.484375 L 25.503906 36.976562 L 28.125 36.976562 L 26.003906 38.515625 L 26.816406 41.003906 L 24.695312 39.464844 L 22.578125 41.003906 L 23.386719 38.515625 L 21.265625 36.976562 L 23.886719 36.976562 Z M 24.695312 34.484375 "/>
<path fill-rule="nonzero" fill="rgb(93.333333%, 93.333333%, 93.333333%)" fill-opacity="1" d="M 9.378906 34.484375 L 10.1875 36.976562 L 12.808594 36.976562 L 10.6875 38.515625 L 11.5 41.003906 L 9.378906 39.464844 L 7.261719 41.003906 L 8.070312 38.515625 L 5.949219 36.976562 L 8.570312 36.976562 Z M 9.378906 34.484375 "/>
<path fill-rule="nonzero" fill="rgb(100%, 85.490196%, 26.666667%)" fill-opacity="1" d="M 52.09375 20.339844 C 50.753906 19 49.011719 18.207031 47.140625 18.070312 L 52.746094 13.710938 C 50.511719 11.480469 47.523438 10.472656 44.601562 10.683594 C 44.253906 9.429688 43.585938 8.242188 42.597656 7.253906 L 40.386719 11.683594 C 40.242188 11.417969 40.058594 11.167969 39.832031 10.945312 C 38.558594 9.671875 36.496094 9.671875 35.222656 10.945312 C 33.949219 12.21875 33.949219 14.28125 35.222656 15.554688 C 35.445312 15.78125 35.695312 15.964844 35.957031 16.109375 L 31.53125 18.324219 C 32.519531 19.3125 33.707031 19.976562 34.964844 20.328125 C 34.75 23.246094 35.757812 26.238281 37.988281 28.46875 L 42.882812 22.171875 C 43.253906 21.8125 43.738281 21.609375 44.257812 21.609375 C 44.777344 21.609375 45.269531 21.8125 45.640625 22.183594 C 46.007812 22.554688 46.214844 23.042969 46.214844 23.566406 C 46.214844 24.089844 46.007812 24.582031 45.640625 24.949219 L 47.484375 26.796875 C 48.347656 25.933594 48.820312 24.785156 48.820312 23.566406 C 48.820312 22.570312 48.503906 21.621094 47.914062 20.835938 C 48.773438 21.066406 49.582031 21.511719 50.25 22.183594 C 52.285156 24.21875 52.285156 27.527344 50.25 29.5625 L 52.097656 31.40625 C 53.574219 29.929688 54.386719 27.964844 54.386719 25.875 C 54.386719 23.78125 53.574219 21.816406 52.097656 20.339844 Z M 52.09375 20.339844 "/>
</svg>
