<?xml version="1.0" encoding="UTF-8"?>
<svg xmlns="http://www.w3.org/2000/svg" xmlns:xlink="http://www.w3.org/1999/xlink" width="20" height="20" viewBox="0 0 20 20">
<path fill-rule="nonzero" fill="rgb(63.529412%, 0%, 11.372549%)" fill-opacity="1" d="M 2.929688 2.929688 L 8.75 11.25 L 17.070312 17.070312 C 18.878906 15.261719 20 12.761719 20 10 C 20 4.515625 15.582031 0.0585938 10.113281 0 L 9.886719 0 C 7.171875 0.03125 4.714844 1.144531 2.929688 2.929688 Z M 2.929688 2.929688 "/>
<path fill-rule="nonzero" fill="rgb(20%, 20%, 20%)" fill-opacity="1" d="M 2.929688 2.929688 L 17.070312 17.070312 C 15.261719 18.882812 12.761719 20 10 20 C 4.476562 20 0.00390625 15.523438 0 10.003906 C 0 10.003906 0 10 0 10 C 0 10 0 9.996094 0 9.996094 C 0 7.238281 1.121094 4.738281 2.929688 2.929688 Z M 2.929688 2.929688 "/>
<path fill-rule="nonzero" fill="rgb(93.333333%, 93.333333%, 93.333333%)" fill-opacity="1" d="M 7.015625 14.101562 L 7.179688 14.601562 L 7.703125 14.601562 L 7.277344 14.910156 L 7.441406 15.40625 L 7.015625 15.097656 L 6.59375 15.40625 L 6.753906 14.910156 L 6.332031 14.601562 L 6.855469 14.601562 Z M 7.015625 14.101562 "/>
<path fill-rule="nonzero" fill="rgb(93.333333%, 93.333333%, 93.333333%)" fill-opacity="1" d="M 5.679688 9.320312 L 5.949219 10.152344 L 6.820312 10.152344 L 6.117188 10.664062 L 6.386719 11.496094 L 5.679688 10.980469 L 4.972656 11.496094 L 5.242188 10.664062 L 4.535156 10.152344 L 5.410156 10.152344 Z M 5.679688 9.320312 "/>
<path fill-rule="nonzero" fill="rgb(93.333333%, 93.333333%, 93.333333%)" fill-opacity="1" d="M 5.679688 15.40625 L 5.949219 16.238281 L 6.820312 16.238281 L 6.117188 16.75 L 6.386719 17.582031 L 5.679688 17.070312 L 4.972656 17.582031 L 5.242188 16.75 L 4.535156 16.238281 L 5.410156 16.238281 Z M 5.679688 15.40625 "/>
<path fill-rule="nonzero" fill="rgb(93.333333%, 93.333333%, 93.333333%)" fill-opacity="1" d="M 8.230469 11.496094 L 8.5 12.324219 L 9.375 12.324219 L 8.667969 12.839844 L 8.9375 13.667969 L 8.230469 13.15625 L 7.527344 13.667969 L 7.796875 12.839844 L 7.089844 12.324219 L 7.960938 12.324219 Z M 8.230469 11.496094 "/>
<path fill-rule="nonzero" fill="rgb(93.333333%, 93.333333%, 93.333333%)" fill-opacity="1" d="M 3.125 11.496094 L 3.394531 12.324219 L 4.269531 12.324219 L 3.5625 12.839844 L 3.832031 13.667969 L 3.125 13.15625 L 2.421875 13.667969 L 2.691406 12.839844 L 1.984375 12.324219 L 2.855469 12.324219 Z M 3.125 11.496094 "/>
<path fill-rule="nonzero" fill="rgb(100%, 85.490196%, 26.666667%)" fill-opacity="1" d="M 17.367188 6.78125 C 16.917969 6.332031 16.335938 6.070312 15.714844 6.023438 L 17.582031 4.570312 C 16.835938 3.828125 15.839844 3.492188 14.867188 3.5625 C 14.75 3.144531 14.527344 2.746094 14.199219 2.417969 L 13.460938 3.894531 C 13.414062 3.804688 13.351562 3.722656 13.277344 3.648438 C 12.851562 3.222656 12.164062 3.222656 11.742188 3.648438 C 11.316406 4.074219 11.316406 4.761719 11.742188 5.183594 C 11.816406 5.261719 11.898438 5.320312 11.984375 5.371094 L 10.511719 6.109375 C 10.839844 6.4375 11.234375 6.660156 11.65625 6.777344 C 11.582031 7.75 11.917969 8.746094 12.664062 9.488281 L 14.292969 7.390625 C 14.417969 7.269531 14.578125 7.203125 14.753906 7.203125 C 14.925781 7.203125 15.089844 7.269531 15.214844 7.394531 C 15.335938 7.519531 15.40625 7.679688 15.40625 7.855469 C 15.40625 8.03125 15.335938 8.195312 15.214844 8.316406 L 15.828125 8.933594 C 16.117188 8.644531 16.273438 8.261719 16.273438 7.855469 C 16.273438 7.523438 16.167969 7.207031 15.972656 6.945312 C 16.257812 7.023438 16.527344 7.171875 16.75 7.394531 C 17.429688 8.074219 17.429688 9.175781 16.75 9.855469 L 17.367188 10.46875 C 17.859375 9.976562 18.128906 9.320312 18.128906 8.625 C 18.128906 7.925781 17.859375 7.273438 17.367188 6.78125 Z M 17.367188 6.78125 "/>
</svg>
