<svg xmlns="http://www.w3.org/2000/svg" width="56" height="56" viewBox="0 0 56 56">
    <path fill="#FFF" fill-rule="nonzero" d="M24.735 38l.325 1.602a3.002 3.002 0 0 0 5.88 0L31.265 38h10.58c-.43-2.623-1.759-4.683-4.046-6.4L37 31v-6.486c0-3.393-2.351-6.634-5.743-7.99l-.706-.283-.48-.961a2.315 2.315 0 0 0-4.141 0l-.481.961-.706.283C21.35 17.88 19 21.12 19 24.514v6.485l-.799.6c-2.287 1.718-3.616 3.778-4.046 6.401h10.58zM28 44a5.002 5.002 0 0 1-4.9-4H12c0-4.362 1.761-7.567 5-10v-5.486c0-4.337 2.974-8.237 7-9.847l.14-.282a4.315 4.315 0 0 1 7.72 0l.14.282c4.026 1.61 7 5.51 7 9.847V30c3.239 2.433 5 5.638 5 10H32.9a5.002 5.002 0 0 1-4.9 4z"/>
</svg>
