<?xml version="1.0" encoding="UTF-8"?>
<svg xmlns="http://www.w3.org/2000/svg" xmlns:xlink="http://www.w3.org/1999/xlink" width="20" height="20" viewBox="0 0 20 20">
<path fill-rule="nonzero" fill="rgb(0%, 32.156863%, 70.588235%)" fill-opacity="1" d="M 20 10 C 20 15.523438 15.523438 20 10 20 C 4.476562 20 0 15.523438 0 10 C 0 4.476562 4.476562 0 10 0 C 15.523438 0 20 4.476562 20 10 Z M 20 10 "/>
<path fill-rule="evenodd" fill="rgb(93.333333%, 93.333333%, 93.333333%)" fill-opacity="1" d="M 18.664062 15 C 19.511719 13.527344 20 11.820312 20 10 L 0 10 C 0 11.820312 0.488281 13.527344 1.335938 15 Z M 18.664062 15 "/>
<path fill-rule="evenodd" fill="rgb(84.705882%, 0%, 15.294118%)" fill-opacity="1" d="M 0.570312 13.332031 C 0.378906 12.796875 0.234375 12.238281 0.136719 11.667969 L 19.863281 11.667969 C 19.765625 12.238281 19.621094 12.796875 19.429688 13.332031 Z M 0.570312 13.332031 "/>
<path fill-rule="nonzero" fill="rgb(100%, 77.647059%, 20.784314%)" fill-opacity="1" d="M 8.742188 17.199219 L 8.539062 16.5625 L 8.332031 17.199219 L 7.660156 17.199219 L 8.203125 17.59375 L 7.996094 18.226562 L 8.539062 17.835938 L 9.078125 18.226562 L 8.871094 17.59375 L 9.414062 17.199219 Z M 8.742188 17.199219 "/>
<path fill-rule="nonzero" fill="rgb(100%, 77.647059%, 20.784314%)" fill-opacity="1" d="M 4.066406 13.964844 L 3.859375 13.328125 L 3.652344 13.964844 L 2.984375 13.964844 L 3.523438 14.359375 L 3.316406 14.992188 L 3.859375 14.601562 L 4.402344 14.992188 L 4.195312 14.359375 L 4.734375 13.964844 Z M 4.066406 13.964844 "/>
<path fill-rule="nonzero" fill="rgb(100%, 77.647059%, 20.784314%)" fill-opacity="1" d="M 4.011719 10.640625 L 3.804688 10.003906 L 3.597656 10.640625 L 2.929688 10.640625 L 3.46875 11.03125 L 3.261719 11.667969 L 3.804688 11.277344 L 4.34375 11.667969 L 4.140625 11.03125 L 4.679688 10.640625 Z M 4.011719 10.640625 "/>
<path fill-rule="nonzero" fill="rgb(100%, 77.647059%, 20.784314%)" fill-opacity="1" d="M 13.476562 10.640625 L 13.269531 10.007812 L 13.0625 10.640625 L 12.390625 10.640625 L 12.933594 11.03125 L 12.726562 11.667969 L 13.269531 11.273438 L 13.808594 11.667969 L 13.601562 11.03125 L 14.144531 10.640625 Z M 13.476562 10.640625 "/>
<path fill-rule="nonzero" fill="rgb(100%, 77.647059%, 20.784314%)" fill-opacity="1" d="M 13.414062 13.964844 L 13.207031 13.332031 L 13 13.964844 L 12.332031 13.964844 L 12.871094 14.355469 L 12.664062 14.992188 L 13.207031 14.597656 L 13.75 14.992188 L 13.542969 14.355469 L 14.082031 13.964844 Z M 13.414062 13.964844 "/>
<path fill-rule="nonzero" fill="rgb(100%, 77.647059%, 20.784314%)" fill-opacity="1" d="M 8.535156 6.585938 L 8.742188 7.222656 L 9.410156 7.222656 L 8.871094 7.617188 L 9.078125 8.253906 L 8.535156 7.859375 L 7.992188 8.253906 L 8.199219 7.617188 L 7.660156 7.222656 L 8.328125 7.222656 Z M 8.535156 6.585938 "/>
<path fill-rule="nonzero" fill="rgb(100%, 77.647059%, 20.784314%)" fill-opacity="1" d="M 5.609375 7.535156 L 5.816406 8.171875 L 6.484375 8.171875 L 5.945312 8.566406 L 6.152344 9.203125 L 5.609375 8.808594 L 5.066406 9.203125 L 5.273438 8.566406 L 4.734375 8.171875 L 5.402344 8.171875 Z M 5.609375 7.535156 "/>
<path fill-rule="nonzero" fill="rgb(100%, 77.647059%, 20.784314%)" fill-opacity="1" d="M 11.664062 16.25 L 11.457031 15.613281 L 11.25 16.25 L 10.582031 16.25 L 11.121094 16.644531 L 10.914062 17.28125 L 11.457031 16.886719 L 12 17.28125 L 11.792969 16.644531 L 12.332031 16.25 Z M 11.664062 16.25 "/>
<path fill-rule="nonzero" fill="rgb(100%, 77.647059%, 20.784314%)" fill-opacity="1" d="M 5.917969 16.328125 L 5.710938 15.691406 L 5.503906 16.328125 L 4.835938 16.328125 L 5.375 16.71875 L 5.171875 17.355469 L 5.710938 16.964844 L 6.253906 17.355469 L 6.046875 16.71875 L 6.585938 16.328125 Z M 5.917969 16.328125 "/>
<path fill-rule="nonzero" fill="rgb(100%, 77.647059%, 20.784314%)" fill-opacity="1" d="M 11.578125 8.101562 L 11.371094 7.464844 L 11.164062 8.101562 L 10.496094 8.101562 L 11.039062 8.492188 L 10.832031 9.128906 L 11.371094 8.738281 L 11.914062 9.128906 L 11.707031 8.492188 L 12.25 8.101562 Z M 11.578125 8.101562 "/>
</svg>
