<?xml version="1.0" encoding="UTF-8"?>
<svg xmlns="http://www.w3.org/2000/svg" xmlns:xlink="http://www.w3.org/1999/xlink" width="60" height="60" viewBox="0 0 60 60">
<path fill-rule="nonzero" fill="rgb(0%, 32.156863%, 70.588235%)" fill-opacity="1" d="M 60 30 C 60 46.570312 46.570312 60 30 60 C 13.429688 60 0 46.570312 0 30 C 0 13.429688 13.429688 0 30 0 C 46.570312 0 60 13.429688 60 30 Z M 60 30 "/>
<path fill-rule="evenodd" fill="rgb(93.333333%, 93.333333%, 93.333333%)" fill-opacity="1" d="M 55.984375 45 C 58.539062 40.585938 60 35.464844 60 30 L 0 30 C 0 35.464844 1.460938 40.585938 4.011719 45 Z M 55.984375 45 "/>
<path fill-rule="evenodd" fill="rgb(84.705882%, 0%, 15.294118%)" fill-opacity="1" d="M 1.707031 40 C 1.136719 38.390625 0.703125 36.71875 0.414062 35 L 59.585938 35 C 59.296875 36.71875 58.859375 38.390625 58.292969 40 Z M 1.707031 40 "/>
<path fill-rule="nonzero" fill="rgb(100%, 77.647059%, 20.784314%)" fill-opacity="1" d="M 26.234375 51.59375 L 25.613281 49.683594 L 24.992188 51.59375 L 22.984375 51.59375 L 24.609375 52.777344 L 23.988281 54.683594 L 25.613281 53.503906 L 27.238281 54.683594 L 26.617188 52.777344 L 28.242188 51.59375 Z M 26.234375 51.59375 "/>
<path fill-rule="nonzero" fill="rgb(100%, 77.647059%, 20.784314%)" fill-opacity="1" d="M 12.199219 41.894531 L 11.578125 39.988281 L 10.957031 41.894531 L 8.949219 41.894531 L 10.574219 43.074219 L 9.953125 44.976562 L 11.578125 43.800781 L 13.203125 44.976562 L 12.582031 43.074219 L 14.207031 41.894531 Z M 12.199219 41.894531 "/>
<path fill-rule="nonzero" fill="rgb(100%, 77.647059%, 20.784314%)" fill-opacity="1" d="M 12.03125 31.921875 L 11.414062 30.015625 L 10.792969 31.921875 L 8.785156 31.921875 L 10.40625 33.097656 L 9.789062 35.003906 L 11.414062 33.828125 L 13.035156 35.003906 L 12.417969 33.097656 L 14.039062 31.921875 Z M 12.03125 31.921875 "/>
<path fill-rule="nonzero" fill="rgb(100%, 77.647059%, 20.784314%)" fill-opacity="1" d="M 40.425781 31.925781 L 39.804688 30.023438 L 39.183594 31.925781 L 37.175781 31.925781 L 38.800781 33.101562 L 38.179688 35 L 39.804688 33.824219 L 41.429688 35 L 40.808594 33.101562 L 42.433594 31.925781 Z M 40.425781 31.925781 "/>
<path fill-rule="nonzero" fill="rgb(100%, 77.647059%, 20.784314%)" fill-opacity="1" d="M 40.238281 41.894531 L 39.621094 39.996094 L 39 41.894531 L 36.992188 41.894531 L 38.617188 43.070312 L 37.996094 44.972656 L 39.621094 43.796875 L 41.246094 44.972656 L 40.625 43.070312 L 42.25 41.894531 Z M 40.238281 41.894531 "/>
<path fill-rule="nonzero" fill="rgb(100%, 77.647059%, 20.784314%)" fill-opacity="1" d="M 25.605469 19.761719 L 26.226562 21.671875 L 28.234375 21.671875 L 26.609375 22.851562 L 27.230469 24.761719 L 25.605469 23.582031 L 23.980469 24.761719 L 24.601562 22.851562 L 22.976562 21.671875 L 24.984375 21.671875 Z M 25.605469 19.761719 "/>
<path fill-rule="nonzero" fill="rgb(100%, 77.647059%, 20.784314%)" fill-opacity="1" d="M 16.828125 22.609375 L 17.449219 24.519531 L 19.457031 24.519531 L 17.832031 25.699219 L 18.453125 27.609375 L 16.828125 26.429688 L 15.203125 27.609375 L 15.824219 25.699219 L 14.199219 24.519531 L 16.207031 24.519531 Z M 16.828125 22.609375 "/>
<path fill-rule="nonzero" fill="rgb(100%, 77.647059%, 20.784314%)" fill-opacity="1" d="M 34.992188 48.753906 L 34.371094 46.84375 L 33.75 48.753906 L 31.742188 48.753906 L 33.367188 49.933594 L 32.746094 51.84375 L 34.371094 50.664062 L 35.996094 51.84375 L 35.375 49.933594 L 37 48.753906 Z M 34.992188 48.753906 "/>
<path fill-rule="nonzero" fill="rgb(100%, 77.647059%, 20.784314%)" fill-opacity="1" d="M 17.753906 48.980469 L 17.132812 47.070312 L 16.515625 48.980469 L 14.503906 48.980469 L 16.128906 50.160156 L 15.511719 52.070312 L 17.132812 50.890625 L 18.757812 52.070312 L 18.136719 50.160156 L 19.761719 48.980469 Z M 17.753906 48.980469 "/>
<path fill-rule="nonzero" fill="rgb(100%, 77.647059%, 20.784314%)" fill-opacity="1" d="M 34.738281 24.300781 L 34.117188 22.390625 L 33.496094 24.300781 L 31.488281 24.300781 L 33.113281 25.480469 L 32.492188 27.390625 L 34.117188 26.210938 L 35.742188 27.390625 L 35.121094 25.480469 L 36.746094 24.300781 Z M 34.738281 24.300781 "/>
</svg>
