<?xml version="1.0" encoding="UTF-8"?>
<svg xmlns="http://www.w3.org/2000/svg" xmlns:xlink="http://www.w3.org/1999/xlink" width="40" height="40" viewBox="0 0 40 40">
<path fill-rule="nonzero" fill="rgb(0%, 32.156863%, 70.588235%)" fill-opacity="1" d="M 40 20 C 40 31.046875 31.046875 40 20 40 C 8.953125 40 0 31.046875 0 20 C 0 8.953125 8.953125 0 20 0 C 31.046875 0 40 8.953125 40 20 Z M 40 20 "/>
<path fill-rule="evenodd" fill="rgb(93.333333%, 93.333333%, 93.333333%)" fill-opacity="1" d="M 37.324219 30 C 39.027344 27.058594 40 23.644531 40 20 L 0 20 C 0 23.644531 0.972656 27.058594 2.675781 30 Z M 37.324219 30 "/>
<path fill-rule="evenodd" fill="rgb(84.705882%, 0%, 15.294118%)" fill-opacity="1" d="M 1.136719 26.667969 C 0.757812 25.59375 0.46875 24.480469 0.277344 23.332031 L 39.722656 23.332031 C 39.53125 24.480469 39.242188 25.59375 38.863281 26.667969 Z M 1.136719 26.667969 "/>
<path fill-rule="nonzero" fill="rgb(100%, 77.647059%, 20.784314%)" fill-opacity="1" d="M 17.488281 34.398438 L 17.074219 33.125 L 16.660156 34.398438 L 15.324219 34.398438 L 16.40625 35.183594 L 15.992188 36.457031 L 17.074219 35.671875 L 18.15625 36.457031 L 17.746094 35.183594 L 18.828125 34.398438 Z M 17.488281 34.398438 "/>
<path fill-rule="nonzero" fill="rgb(100%, 77.647059%, 20.784314%)" fill-opacity="1" d="M 8.132812 27.929688 L 7.71875 26.660156 L 7.304688 27.929688 L 5.964844 27.929688 L 7.050781 28.714844 L 6.636719 29.984375 L 7.71875 29.199219 L 8.800781 29.984375 L 8.386719 28.714844 L 9.472656 27.929688 Z M 8.132812 27.929688 "/>
<path fill-rule="nonzero" fill="rgb(100%, 77.647059%, 20.784314%)" fill-opacity="1" d="M 8.023438 21.28125 L 7.609375 20.011719 L 7.195312 21.28125 L 5.855469 21.28125 L 6.9375 22.066406 L 6.523438 23.335938 L 7.609375 22.550781 L 8.691406 23.335938 L 8.277344 22.066406 L 9.359375 21.28125 Z M 8.023438 21.28125 "/>
<path fill-rule="nonzero" fill="rgb(100%, 77.647059%, 20.784314%)" fill-opacity="1" d="M 26.949219 21.28125 L 26.535156 20.015625 L 26.121094 21.28125 L 24.785156 21.28125 L 25.867188 22.066406 L 25.453125 23.332031 L 26.535156 22.550781 L 27.621094 23.332031 L 27.207031 22.066406 L 28.289062 21.28125 Z M 26.949219 21.28125 "/>
<path fill-rule="nonzero" fill="rgb(100%, 77.647059%, 20.784314%)" fill-opacity="1" d="M 26.828125 27.929688 L 26.414062 26.664062 L 26 27.929688 L 24.660156 27.929688 L 25.742188 28.714844 L 25.332031 29.980469 L 26.414062 29.199219 L 27.496094 29.980469 L 27.082031 28.714844 L 28.164062 27.929688 Z M 26.828125 27.929688 "/>
<path fill-rule="nonzero" fill="rgb(100%, 77.647059%, 20.784314%)" fill-opacity="1" d="M 17.070312 13.175781 L 17.484375 14.449219 L 18.824219 14.449219 L 17.738281 15.234375 L 18.152344 16.507812 L 17.070312 15.722656 L 15.988281 16.507812 L 16.402344 15.234375 L 15.316406 14.449219 L 16.65625 14.449219 Z M 17.070312 13.175781 "/>
<path fill-rule="nonzero" fill="rgb(100%, 77.647059%, 20.784314%)" fill-opacity="1" d="M 11.21875 15.074219 L 11.632812 16.347656 L 12.972656 16.347656 L 11.886719 17.132812 L 12.300781 18.40625 L 11.21875 17.621094 L 10.136719 18.40625 L 10.550781 17.132812 L 9.464844 16.347656 L 10.804688 16.347656 Z M 11.21875 15.074219 "/>
<path fill-rule="nonzero" fill="rgb(100%, 77.647059%, 20.784314%)" fill-opacity="1" d="M 23.328125 32.503906 L 22.914062 31.230469 L 22.5 32.503906 L 21.164062 32.503906 L 22.246094 33.289062 L 21.832031 34.5625 L 22.914062 33.777344 L 23.996094 34.5625 L 23.585938 33.289062 L 24.667969 32.503906 Z M 23.328125 32.503906 "/>
<path fill-rule="nonzero" fill="rgb(100%, 77.647059%, 20.784314%)" fill-opacity="1" d="M 11.835938 32.652344 L 11.421875 31.378906 L 11.007812 32.652344 L 9.671875 32.652344 L 10.753906 33.441406 L 10.339844 34.714844 L 11.421875 33.925781 L 12.507812 34.714844 L 12.09375 33.441406 L 13.175781 32.652344 Z M 11.835938 32.652344 "/>
<path fill-rule="nonzero" fill="rgb(100%, 77.647059%, 20.784314%)" fill-opacity="1" d="M 23.160156 16.199219 L 22.746094 14.925781 L 22.332031 16.199219 L 20.992188 16.199219 L 22.074219 16.988281 L 21.660156 18.261719 L 22.746094 17.472656 L 23.828125 18.261719 L 23.414062 16.988281 L 24.496094 16.199219 Z M 23.160156 16.199219 "/>
</svg>
