<?xml version="1.0" encoding="UTF-8"?>
<svg xmlns="http://www.w3.org/2000/svg" xmlns:xlink="http://www.w3.org/1999/xlink" width="40" height="40" viewBox="0 0 40 40">
<path fill-rule="nonzero" fill="rgb(93.333333%, 93.333333%, 93.333333%)" fill-opacity="1" d="M 39.3125 25.21875 C 39.761719 23.554688 40 21.804688 40 20 L 39.3125 14.78125 C 38.8125 12.921875 38.046875 11.167969 37.066406 9.566406 L 32.453125 4.347656 C 29.035156 1.628906 24.710938 0 20.007812 0 L 19.992188 0 C 15.285156 0 10.960938 1.628906 7.546875 4.347656 L 2.933594 9.566406 C 1.953125 11.167969 1.1875 12.921875 0.6875 14.78125 L 0 20 L 0 20.007812 C 0 21.808594 0.238281 23.554688 0.6875 25.21875 L 2.933594 30.433594 C 4.15625 32.433594 5.722656 34.199219 7.546875 35.652344 L 20 40 L 32.453125 35.652344 C 34.277344 34.199219 35.839844 32.433594 37.066406 30.433594 Z M 39.3125 25.21875 "/>
<path fill-rule="nonzero" fill="rgb(84.705882%, 0%, 15.294118%)" fill-opacity="1" d="M 39.3125 14.78125 C 39.761719 16.445312 40 18.195312 40 20 L 0 20 C 0 18.195312 0.238281 16.445312 0.6875 14.78125 Z M 39.3125 14.78125 "/>
<path fill-rule="nonzero" fill="rgb(84.705882%, 0%, 15.294118%)" fill-opacity="1" d="M 32.453125 4.347656 C 34.277344 5.800781 35.839844 7.566406 37.066406 9.566406 L 2.933594 9.566406 C 4.160156 7.566406 5.722656 5.800781 7.546875 4.347656 Z M 32.453125 4.347656 "/>
<path fill-rule="nonzero" fill="rgb(84.705882%, 0%, 15.294118%)" fill-opacity="1" d="M 37.066406 30.433594 C 38.046875 28.832031 38.8125 27.078125 39.3125 25.21875 L 0.6875 25.21875 C 1.1875 27.078125 1.953125 28.832031 2.933594 30.433594 Z M 37.066406 30.433594 "/>
<path fill-rule="nonzero" fill="rgb(84.705882%, 0%, 15.294118%)" fill-opacity="1" d="M 32.453125 35.652344 L 7.546875 35.652344 C 10.960938 38.371094 15.28125 39.996094 19.984375 40 L 20.015625 40 C 24.71875 39.996094 29.039062 38.371094 32.453125 35.652344 Z M 32.453125 35.652344 "/>
<path fill-rule="nonzero" fill="rgb(0%, 32.156863%, 70.588235%)" fill-opacity="1" d="M 0 19.1875 C 0.425781 8.515625 9.210938 0 19.984375 0 C 19.988281 0 19.996094 0 20 0 L 20 20 L 0 20 Z M 0 19.1875 "/>
<path fill-rule="nonzero" fill="rgb(100%, 85.490196%, 26.666667%)" fill-opacity="1" d="M 7.820312 11.25 C 7.820312 13.980469 10.03125 16.195312 12.765625 16.195312 C 13.617188 16.195312 14.417969 15.980469 15.117188 15.601562 C 14.019531 16.675781 12.519531 17.335938 10.863281 17.335938 C 7.5 17.335938 4.773438 14.613281 4.773438 11.25 C 4.773438 7.886719 7.5 5.164062 10.863281 5.164062 C 12.519531 5.164062 14.019531 5.824219 15.117188 6.898438 C 14.417969 6.519531 13.617188 6.304688 12.765625 6.304688 C 10.03125 6.304688 7.820312 8.519531 7.820312 11.25 Z M 7.820312 11.25 "/>
<path fill-rule="nonzero" fill="rgb(100%, 85.490196%, 26.666667%)" fill-opacity="1" d="M 15.035156 9.609375 L 14.15625 7.773438 L 13.28125 9.609375 L 11.296875 9.148438 L 12.183594 10.980469 L 10.589844 12.246094 L 12.574219 12.691406 L 12.570312 14.726562 L 14.15625 13.453125 L 15.746094 14.726562 L 15.738281 12.691406 L 17.726562 12.246094 L 16.132812 10.980469 L 17.019531 9.148438 Z M 15.035156 9.609375 "/>
</svg>
