<?xml version="1.0" encoding="UTF-8"?>
<svg xmlns="http://www.w3.org/2000/svg" xmlns:xlink="http://www.w3.org/1999/xlink" width="60" height="60" viewBox="0 0 60 60">
<path fill-rule="nonzero" fill="rgb(93.333333%, 93.333333%, 93.333333%)" fill-opacity="1" d="M 58.96875 37.824219 C 59.640625 35.332031 60 32.707031 60 30 L 58.96875 22.171875 C 58.214844 19.382812 57.070312 16.753906 55.597656 14.347656 L 48.675781 6.519531 C 43.554688 2.441406 37.070312 0.00390625 30.011719 0 L 29.988281 0 C 22.929688 0.00390625 16.445312 2.441406 11.320312 6.519531 L 4.402344 14.347656 C 2.925781 16.753906 1.78125 19.382812 1.03125 22.171875 L 0 30 L 0 30.011719 C 0 32.714844 0.359375 35.335938 1.03125 37.824219 L 4.402344 45.652344 C 6.238281 48.648438 8.585938 51.296875 11.320312 53.476562 L 30 60 L 48.675781 53.476562 C 51.414062 51.296875 53.761719 48.648438 55.597656 45.652344 Z M 58.96875 37.824219 "/>
<path fill-rule="nonzero" fill="rgb(84.705882%, 0%, 15.294118%)" fill-opacity="1" d="M 58.96875 22.175781 C 59.640625 24.667969 60 27.292969 60 30 L 0 30 C 0 27.292969 0.359375 24.667969 1.03125 22.175781 Z M 58.96875 22.175781 "/>
<path fill-rule="nonzero" fill="rgb(84.705882%, 0%, 15.294118%)" fill-opacity="1" d="M 48.675781 6.523438 C 51.414062 8.703125 53.761719 11.351562 55.597656 14.347656 L 4.402344 14.347656 C 6.238281 11.351562 8.585938 8.703125 11.324219 6.523438 Z M 48.675781 6.523438 "/>
<path fill-rule="nonzero" fill="rgb(84.705882%, 0%, 15.294118%)" fill-opacity="1" d="M 55.597656 45.652344 C 57.074219 43.246094 58.21875 40.617188 58.96875 37.824219 L 1.03125 37.824219 C 1.785156 40.617188 2.929688 43.246094 4.402344 45.652344 Z M 55.597656 45.652344 "/>
<path fill-rule="nonzero" fill="rgb(84.705882%, 0%, 15.294118%)" fill-opacity="1" d="M 48.675781 53.476562 L 11.324219 53.476562 C 16.441406 57.554688 22.921875 59.996094 29.972656 60 L 30.027344 60 C 37.078125 59.996094 43.558594 57.554688 48.675781 53.480469 Z M 48.675781 53.476562 "/>
<path fill-rule="nonzero" fill="rgb(0%, 32.156863%, 70.588235%)" fill-opacity="1" d="M 0 28.777344 C 0.640625 12.777344 13.816406 0 29.976562 0 C 29.984375 0 29.992188 0 30 0 L 30 30 L 0 30 Z M 0 28.777344 "/>
<path fill-rule="nonzero" fill="rgb(100%, 85.490196%, 26.666667%)" fill-opacity="1" d="M 11.726562 16.875 C 11.726562 20.972656 15.050781 24.292969 19.148438 24.292969 C 20.425781 24.292969 21.625 23.96875 22.675781 23.402344 C 21.027344 25.011719 18.777344 26.003906 16.292969 26.003906 C 11.25 26.003906 7.164062 21.917969 7.164062 16.875 C 7.164062 11.832031 11.25 7.746094 16.292969 7.746094 C 18.777344 7.746094 21.027344 8.738281 22.675781 10.347656 C 21.625 9.78125 20.425781 9.457031 19.148438 9.457031 C 15.050781 9.457031 11.726562 12.777344 11.726562 16.875 Z M 11.726562 16.875 "/>
<path fill-rule="nonzero" fill="rgb(100%, 85.490196%, 26.666667%)" fill-opacity="1" d="M 22.554688 14.410156 L 21.238281 11.65625 L 19.917969 14.410156 L 16.945312 13.722656 L 18.277344 16.472656 L 15.886719 18.367188 L 18.863281 19.039062 L 18.855469 22.09375 L 21.238281 20.183594 L 23.617188 22.09375 L 23.609375 19.039062 L 26.589844 18.367188 L 24.195312 16.472656 L 25.527344 13.722656 Z M 22.554688 14.410156 "/>
</svg>
