<?xml version="1.0" encoding="UTF-8"?>
<svg xmlns="http://www.w3.org/2000/svg" xmlns:xlink="http://www.w3.org/1999/xlink" width="20" height="20" viewBox="0 0 20 20">
<path fill-rule="nonzero" fill="rgb(93.333333%, 93.333333%, 93.333333%)" fill-opacity="1" d="M 19.65625 12.609375 C 19.878906 11.777344 20 10.902344 20 10 L 19.65625 7.390625 C 19.40625 6.460938 19.023438 5.585938 18.53125 4.78125 L 16.226562 2.171875 C 14.519531 0.8125 12.355469 0 10.003906 0 L 9.996094 0 C 7.644531 0 5.480469 0.8125 3.773438 2.171875 L 1.46875 4.78125 C 0.976562 5.585938 0.59375 6.460938 0.34375 7.390625 L 0 10 L 0 10.003906 C 0 10.90625 0.121094 11.777344 0.34375 12.609375 L 1.46875 15.21875 C 2.078125 16.214844 2.863281 17.097656 3.773438 17.824219 L 10 20 L 16.226562 17.824219 C 17.136719 17.097656 17.921875 16.214844 18.53125 15.21875 Z M 19.65625 12.609375 "/>
<path fill-rule="nonzero" fill="rgb(84.705882%, 0%, 15.294118%)" fill-opacity="1" d="M 19.65625 7.390625 C 19.878906 8.222656 20 9.097656 20 10 L 0 10 C 0 9.097656 0.121094 8.222656 0.34375 7.390625 Z M 19.65625 7.390625 "/>
<path fill-rule="nonzero" fill="rgb(84.705882%, 0%, 15.294118%)" fill-opacity="1" d="M 16.226562 2.175781 C 17.136719 2.902344 17.921875 3.785156 18.53125 4.78125 L 1.46875 4.78125 C 2.078125 3.785156 2.863281 2.902344 3.773438 2.175781 Z M 16.226562 2.175781 "/>
<path fill-rule="nonzero" fill="rgb(84.705882%, 0%, 15.294118%)" fill-opacity="1" d="M 18.53125 15.21875 C 19.023438 14.414062 19.40625 13.539062 19.65625 12.609375 L 0.34375 12.609375 C 0.59375 13.539062 0.976562 14.414062 1.46875 15.21875 Z M 18.53125 15.21875 "/>
<path fill-rule="nonzero" fill="rgb(84.705882%, 0%, 15.294118%)" fill-opacity="1" d="M 16.226562 17.828125 L 3.773438 17.828125 C 5.480469 19.183594 7.640625 20 9.992188 20 L 10.007812 20 C 12.359375 20 14.519531 19.183594 16.226562 17.828125 Z M 16.226562 17.828125 "/>
<path fill-rule="nonzero" fill="rgb(0%, 32.156863%, 70.588235%)" fill-opacity="1" d="M 0 9.59375 C 0.214844 4.257812 4.605469 0 9.992188 0 C 9.996094 0 9.996094 0 10 0 L 10 10 L 0 10 Z M 0 9.59375 "/>
<path fill-rule="nonzero" fill="rgb(100%, 85.490196%, 26.666667%)" fill-opacity="1" d="M 3.910156 5.625 C 3.910156 6.992188 5.015625 8.097656 6.382812 8.097656 C 6.808594 8.097656 7.207031 7.988281 7.558594 7.800781 C 7.007812 8.335938 6.257812 8.667969 5.429688 8.667969 C 3.75 8.667969 2.386719 7.304688 2.386719 5.625 C 2.386719 3.945312 3.75 2.582031 5.429688 2.582031 C 6.257812 2.582031 7.007812 2.914062 7.558594 3.449219 C 7.207031 3.261719 6.808594 3.152344 6.382812 3.152344 C 5.015625 3.152344 3.910156 4.257812 3.910156 5.625 Z M 3.910156 5.625 "/>
<path fill-rule="nonzero" fill="rgb(100%, 85.490196%, 26.666667%)" fill-opacity="1" d="M 7.519531 4.804688 L 7.078125 3.886719 L 6.640625 4.804688 L 5.648438 4.574219 L 6.09375 5.492188 L 5.296875 6.121094 L 6.289062 6.347656 L 6.285156 7.363281 L 7.078125 6.726562 L 7.871094 7.363281 L 7.871094 6.347656 L 8.863281 6.121094 L 8.066406 5.492188 L 8.507812 4.574219 Z M 7.519531 4.804688 "/>
</svg>
