<?xml version="1.0" encoding="UTF-8"?>
<svg xmlns="http://www.w3.org/2000/svg" xmlns:xlink="http://www.w3.org/1999/xlink" width="20" height="20" viewBox="0 0 20 20">
<path fill-rule="nonzero" fill="rgb(42.745098%, 64.705882%, 26.666667%)" fill-opacity="1" d="M 10 20 C 15.515625 20 19.988281 15.535156 20 10.019531 L 20 10 L 10 8.75 L 0 10 C 0 15.523438 4.476562 20 10 20 Z M 10 20 "/>
<path fill-rule="nonzero" fill="rgb(84.705882%, 0%, 15.294118%)" fill-opacity="1" d="M 20 9.980469 L 20 10 L 0 10 C 0 4.476562 4.476562 0 10 0 C 15.515625 0 19.988281 4.464844 20 9.980469 Z M 20 9.980469 "/>
<path fill-rule="evenodd" fill="rgb(20%, 20%, 20%)" fill-opacity="1" d="M 19.914062 11.304688 C 19.972656 10.878906 20 10.441406 20 10 C 20 9.558594 19.972656 9.121094 19.914062 8.695312 L 8.695312 8.695312 C 7.796875 7.796875 5.371094 5.371094 2.929688 2.929688 C 1.117188 4.738281 0 7.238281 0 10 C 0 12.761719 1.117188 15.261719 2.929688 17.070312 L 8.695312 11.304688 Z M 19.914062 11.304688 "/>
<path fill-rule="evenodd" fill="rgb(100%, 85.490196%, 26.666667%)" fill-opacity="1" d="M 19.992188 10.429688 C 19.996094 10.289062 20 10.144531 20 10 C 20 9.851562 19.996094 9.707031 19.992188 9.5625 L 8.328125 9.5625 L 2.339844 3.574219 C 2.152344 3.796875 1.972656 4.027344 1.804688 4.265625 L 7.535156 9.996094 L 1.800781 15.726562 C 1.96875 15.96875 2.148438 16.199219 2.335938 16.421875 L 8.328125 10.429688 Z M 19.992188 10.429688 "/>
<path fill-rule="nonzero" fill="rgb(100%, 85.490196%, 26.666667%)" fill-opacity="1" d="M 2.132812 12.132812 L 2.132812 11.292969 C 2.96875 11.292969 3.648438 10.613281 3.648438 9.777344 C 3.648438 9.1875 3.167969 8.707031 2.574219 8.707031 C 2.171875 8.707031 1.84375 9.035156 1.84375 9.4375 C 1.84375 9.695312 2.054688 9.902344 2.3125 9.902344 C 2.457031 9.902344 2.578125 9.785156 2.578125 9.640625 L 3.414062 9.640625 C 3.414062 10.246094 2.917969 10.742188 2.3125 10.742188 C 1.59375 10.742188 1.007812 10.15625 1.007812 9.4375 C 1.007812 8.570312 1.710938 7.867188 2.574219 7.867188 C 3.628906 7.867188 4.484375 8.726562 4.484375 9.777344 C 4.484375 11.074219 3.429688 12.132812 2.132812 12.132812 Z M 2.132812 12.132812 "/>
</svg>
