<?xml version="1.0" encoding="UTF-8"?>
<svg xmlns="http://www.w3.org/2000/svg" xmlns:xlink="http://www.w3.org/1999/xlink" width="60" height="60" viewBox="0 0 60 60">
<path fill-rule="nonzero" fill="rgb(42.745098%, 64.705882%, 26.666667%)" fill-opacity="1" d="M 30 60 C 46.550781 60 59.96875 46.601562 60 30.058594 L 60 30 L 30 26.25 L 0 30 C 0 46.566406 13.433594 60 30 60 Z M 30 60 "/>
<path fill-rule="nonzero" fill="rgb(84.705882%, 0%, 15.294118%)" fill-opacity="1" d="M 60 29.941406 L 60 30 L 0 30 C 0 13.433594 13.433594 0 30 0 C 46.550781 0 59.96875 13.398438 60 29.941406 Z M 60 29.941406 "/>
<path fill-rule="evenodd" fill="rgb(20%, 20%, 20%)" fill-opacity="1" d="M 59.746094 33.914062 C 59.914062 32.632812 60 31.324219 60 30 C 60 28.671875 59.914062 27.367188 59.746094 26.085938 L 26.085938 26.085938 C 23.394531 23.394531 16.109375 16.109375 8.785156 8.785156 C 3.355469 14.214844 0 21.714844 0 30 C 0 38.285156 3.355469 45.785156 8.785156 51.214844 L 26.085938 33.914062 Z M 59.746094 33.914062 "/>
<path fill-rule="evenodd" fill="rgb(100%, 85.490196%, 26.666667%)" fill-opacity="1" d="M 59.972656 31.292969 C 59.992188 30.863281 60 30.433594 60 30 C 60 29.558594 59.992188 29.121094 59.972656 28.683594 L 24.984375 28.683594 L 7.015625 10.71875 C 6.453125 11.386719 5.921875 12.082031 5.417969 12.800781 L 22.601562 29.988281 L 5.40625 47.183594 C 5.910156 47.902344 6.445312 48.597656 7.007812 49.269531 L 24.984375 31.292969 Z M 59.972656 31.292969 "/>
<path fill-rule="nonzero" fill="rgb(100%, 85.490196%, 26.666667%)" fill-opacity="1" d="M 6.398438 36.394531 L 6.398438 33.882812 C 8.90625 33.882812 10.945312 31.84375 10.945312 29.335938 C 10.945312 27.5625 9.5 26.117188 7.726562 26.117188 C 6.519531 26.117188 5.535156 27.101562 5.535156 28.308594 C 5.535156 29.082031 6.164062 29.710938 6.9375 29.710938 C 7.375 29.710938 7.730469 29.355469 7.730469 28.917969 L 10.242188 28.917969 C 10.242188 30.742188 8.757812 32.222656 6.9375 32.222656 C 4.777344 32.222656 3.023438 30.46875 3.023438 28.308594 C 3.023438 25.714844 5.132812 23.605469 7.726562 23.605469 C 10.886719 23.605469 13.457031 26.175781 13.457031 29.335938 C 13.457031 33.226562 10.289062 36.394531 6.398438 36.394531 Z M 6.398438 36.394531 "/>
</svg>
