<?xml version="1.0" encoding="UTF-8"?>
<svg xmlns="http://www.w3.org/2000/svg" xmlns:xlink="http://www.w3.org/1999/xlink" width="40" height="40" viewBox="0 0 40 40">
<path fill-rule="nonzero" fill="rgb(42.745098%, 64.705882%, 26.666667%)" fill-opacity="1" d="M 20 40 C 31.03125 40 39.980469 31.066406 40 20.039062 L 40 20 L 20 17.5 L 0 20 C 0 31.046875 8.953125 40 20 40 Z M 20 40 "/>
<path fill-rule="nonzero" fill="rgb(84.705882%, 0%, 15.294118%)" fill-opacity="1" d="M 40 19.960938 L 40 20 L 0 20 C 0 8.953125 8.953125 0 20 0 C 31.03125 0 39.980469 8.933594 40 19.960938 Z M 40 19.960938 "/>
<path fill-rule="evenodd" fill="rgb(20%, 20%, 20%)" fill-opacity="1" d="M 39.832031 22.609375 C 39.941406 21.753906 40 20.882812 40 20 C 40 19.117188 39.941406 18.246094 39.832031 17.390625 L 17.390625 17.390625 C 15.59375 15.597656 10.738281 10.738281 5.855469 5.859375 C 2.238281 9.476562 0 14.476562 0 20 C 0 25.523438 2.238281 30.523438 5.855469 34.140625 L 17.390625 22.609375 Z M 39.832031 22.609375 "/>
<path fill-rule="evenodd" fill="rgb(100%, 85.490196%, 26.666667%)" fill-opacity="1" d="M 39.980469 20.863281 C 39.996094 20.578125 40 20.289062 40 20 C 40 19.707031 39.992188 19.414062 39.980469 19.125 L 16.65625 19.125 L 4.675781 7.144531 C 4.300781 7.59375 3.945312 8.054688 3.609375 8.535156 L 15.066406 19.992188 L 3.605469 31.453125 C 3.941406 31.933594 4.296875 32.398438 4.671875 32.847656 L 16.65625 20.859375 L 39.980469 20.859375 Z M 39.980469 20.863281 "/>
<path fill-rule="nonzero" fill="rgb(100%, 85.490196%, 26.666667%)" fill-opacity="1" d="M 4.265625 24.261719 L 4.265625 22.589844 C 5.9375 22.589844 7.296875 21.226562 7.296875 19.554688 C 7.296875 18.375 6.335938 17.410156 5.152344 17.410156 C 4.34375 17.410156 3.691406 18.066406 3.691406 18.871094 C 3.691406 19.386719 4.109375 19.808594 4.625 19.808594 C 4.914062 19.808594 5.152344 19.570312 5.152344 19.277344 L 6.828125 19.277344 C 6.828125 20.492188 5.839844 21.484375 4.625 21.484375 C 3.1875 21.484375 2.015625 20.3125 2.015625 18.875 C 2.015625 17.144531 3.421875 15.738281 5.152344 15.738281 C 7.257812 15.738281 8.972656 17.449219 8.972656 19.558594 C 8.972656 22.152344 6.859375 24.261719 4.265625 24.261719 Z M 4.265625 24.261719 "/>
</svg>
