<?xml version="1.0" encoding="UTF-8"?>
<svg xmlns="http://www.w3.org/2000/svg" xmlns:xlink="http://www.w3.org/1999/xlink" width="40" height="40" viewBox="0 0 40 40">
<path fill-rule="evenodd" fill="rgb(0%, 32.156863%, 70.588235%)" fill-opacity="1" d="M 1.734375 11.839844 C 4.859375 4.863281 11.859375 0 20 0 C 28.140625 0 35.140625 4.863281 38.265625 11.839844 Z M 1.734375 11.839844 "/>
<path fill-rule="evenodd" fill="rgb(93.333333%, 93.333333%, 93.333333%)" fill-opacity="1" d="M 39.636719 23.816406 C 39.875 22.582031 40 21.304688 40 20 C 40 16.355469 39.027344 12.941406 37.324219 10 L 2.675781 10 C 0.972656 12.941406 0 16.355469 0 20 C 0 21.304688 0.125 22.582031 0.363281 23.816406 Z M 39.636719 23.816406 "/>
<path fill-rule="evenodd" fill="rgb(42.745098%, 64.705882%, 26.666667%)" fill-opacity="1" d="M 35.71875 32.367188 C 38.402344 28.960938 40 24.667969 40 20 L 0 20 C 0 24.667969 1.597656 28.960938 4.28125 32.367188 Z M 35.71875 32.367188 "/>
<path fill-rule="evenodd" fill="rgb(100%, 85.490196%, 26.666667%)" fill-opacity="1" d="M 37.324219 30 C 33.867188 35.976562 27.402344 40 20 40 C 12.597656 40 6.132812 35.976562 2.675781 30 Z M 37.324219 30 "/>
<path fill-rule="evenodd" fill="rgb(84.705882%, 0%, 15.294118%)" fill-opacity="1" d="M 25 0.628906 L 25 39.371094 C 23.402344 39.78125 21.726562 40 20 40 C 18.273438 40 16.597656 39.78125 15 39.371094 L 15 0.628906 C 16.585938 0.222656 18.25 0.00390625 19.960938 0 L 20.039062 0 C 21.75 0.00390625 23.414062 0.222656 25 0.628906 Z M 25 0.628906 "/>
<path fill-rule="nonzero" fill="rgb(100%, 85.490196%, 26.666667%)" fill-opacity="1" d="M 11.398438 3.035156 L 12.046875 5.027344 L 14.140625 5.027344 L 12.445312 6.261719 L 13.09375 8.253906 L 11.398438 7.019531 L 9.703125 8.253906 L 10.351562 6.261719 L 8.65625 5.027344 L 10.75 5.027344 Z M 11.398438 3.035156 "/>
</svg>
