<?xml version="1.0" encoding="UTF-8"?>
<svg xmlns="http://www.w3.org/2000/svg" xmlns:xlink="http://www.w3.org/1999/xlink" width="20" height="20" viewBox="0 0 20 20">
<path fill-rule="evenodd" fill="rgb(0%, 32.156863%, 70.588235%)" fill-opacity="1" d="M 0.867188 5.917969 C 2.429688 2.429688 5.929688 0 10 0 C 14.070312 0 17.570312 2.429688 19.132812 5.917969 Z M 0.867188 5.917969 "/>
<path fill-rule="evenodd" fill="rgb(93.333333%, 93.333333%, 93.333333%)" fill-opacity="1" d="M 19.816406 11.910156 C 19.9375 11.289062 20 10.652344 20 10 C 20 8.179688 19.511719 6.472656 18.664062 5 L 1.335938 5 C 0.488281 6.472656 0 8.179688 0 10 C 0 10.652344 0.0625 11.289062 0.183594 11.910156 Z M 19.816406 11.910156 "/>
<path fill-rule="evenodd" fill="rgb(42.745098%, 64.705882%, 26.666667%)" fill-opacity="1" d="M 17.859375 16.183594 C 19.199219 14.480469 20 12.335938 20 10 L 0 10 C 0 12.335938 0.800781 14.480469 2.140625 16.183594 Z M 17.859375 16.183594 "/>
<path fill-rule="evenodd" fill="rgb(100%, 85.490196%, 26.666667%)" fill-opacity="1" d="M 18.664062 15 C 16.933594 17.988281 13.703125 20 10 20 C 6.296875 20 3.066406 17.988281 1.335938 15 Z M 18.664062 15 "/>
<path fill-rule="evenodd" fill="rgb(84.705882%, 0%, 15.294118%)" fill-opacity="1" d="M 12.5 0.316406 L 12.5 19.683594 C 11.699219 19.890625 10.863281 20 10 20 C 9.136719 20 8.300781 19.890625 7.5 19.683594 L 7.5 0.316406 C 8.292969 0.109375 9.125 0 9.980469 0 L 10.019531 0 C 10.875 0 11.707031 0.109375 12.5 0.316406 Z M 12.5 0.316406 "/>
<path fill-rule="nonzero" fill="rgb(100%, 85.490196%, 26.666667%)" fill-opacity="1" d="M 5.699219 1.519531 L 6.023438 2.515625 L 7.070312 2.515625 L 6.222656 3.128906 L 6.546875 4.125 L 5.699219 3.511719 L 4.851562 4.125 L 5.175781 3.128906 L 4.328125 2.515625 L 5.375 2.515625 Z M 5.699219 1.519531 "/>
</svg>
