<?xml version="1.0" encoding="UTF-8"?>
<svg xmlns="http://www.w3.org/2000/svg" xmlns:xlink="http://www.w3.org/1999/xlink" width="60" height="60" viewBox="0 0 60 60">
<path fill-rule="evenodd" fill="rgb(0%, 32.156863%, 70.588235%)" fill-opacity="1" d="M 2.601562 17.757812 C 7.285156 7.292969 17.792969 0 30 0 C 42.207031 0 52.714844 7.292969 57.398438 17.757812 Z M 2.601562 17.757812 "/>
<path fill-rule="evenodd" fill="rgb(93.333333%, 93.333333%, 93.333333%)" fill-opacity="1" d="M 59.453125 35.726562 C 59.8125 33.871094 60 31.957031 60 30 C 60 24.535156 58.539062 19.414062 55.984375 15 L 4.015625 15 C 1.460938 19.414062 0 24.535156 0 30 C 0 31.957031 0.1875 33.871094 0.546875 35.726562 Z M 59.453125 35.726562 "/>
<path fill-rule="evenodd" fill="rgb(42.745098%, 64.705882%, 26.666667%)" fill-opacity="1" d="M 53.582031 48.546875 C 57.601562 43.445312 60 37.003906 60 30 L 0 30 C 0 37.003906 2.398438 43.445312 6.417969 48.546875 Z M 53.582031 48.546875 "/>
<path fill-rule="evenodd" fill="rgb(100%, 85.490196%, 26.666667%)" fill-opacity="1" d="M 55.984375 45 C 50.800781 53.96875 41.101562 60 30 60 C 18.898438 60 9.199219 53.96875 4.015625 45 Z M 55.984375 45 "/>
<path fill-rule="evenodd" fill="rgb(84.705882%, 0%, 15.294118%)" fill-opacity="1" d="M 37.5 0.945312 L 37.5 59.054688 C 35.101562 59.671875 32.589844 60 30 60 C 27.410156 60 24.898438 59.671875 22.5 59.054688 L 22.5 0.945312 C 24.878906 0.332031 27.371094 0.00390625 29.941406 0 L 30.058594 0 C 32.628906 0.00390625 35.121094 0.332031 37.5 0.945312 Z M 37.5 0.945312 "/>
<path fill-rule="nonzero" fill="rgb(100%, 85.490196%, 26.666667%)" fill-opacity="1" d="M 17.097656 4.554688 L 18.070312 7.542969 L 21.210938 7.542969 L 18.671875 9.390625 L 19.640625 12.378906 L 17.097656 10.53125 L 14.554688 12.378906 L 15.527344 9.390625 L 12.984375 7.542969 L 16.128906 7.542969 Z M 17.097656 4.554688 "/>
</svg>
