<?xml version="1.0" encoding="UTF-8"?>
<svg xmlns="http://www.w3.org/2000/svg" xmlns:xlink="http://www.w3.org/1999/xlink" width="60" height="60" viewBox="0 0 60 60">
<path fill-rule="nonzero" fill="rgb(100%, 59.607843%, 6.666667%)" fill-opacity="1" d="M 51.210938 8.785156 L 26.25 26.25 L 8.785156 51.210938 C 14.214844 56.640625 21.714844 60 30 60 C 46.457031 60 59.820312 46.75 59.996094 30.335938 L 59.996094 29.664062 C 59.910156 21.511719 56.566406 14.140625 51.210938 8.785156 Z M 51.210938 8.785156 "/>
<path fill-rule="nonzero" fill="rgb(100%, 85.490196%, 26.666667%)" fill-opacity="1" d="M 51.210938 8.785156 L 8.785156 51.210938 C 3.355469 45.785156 0 38.285156 0 30 C 0 13.433594 13.425781 0.0078125 29.988281 0 C 29.992188 0 29.996094 0 30 0 C 30.003906 0 30.007812 0 30.007812 0 C 38.289062 0.00390625 45.785156 3.359375 51.210938 8.785156 Z M 51.210938 8.785156 "/>
<path fill-rule="nonzero" fill="rgb(93.333333%, 93.333333%, 93.333333%)" fill-opacity="1" d="M 46.972656 16.957031 L 46.972656 11.738281 L 36.972656 11.738281 L 36.207031 12.503906 C 33.488281 15.222656 33.945312 18.390625 34.28125 20.707031 C 34.589844 22.851562 34.625 23.675781 33.828125 24.472656 C 33.03125 25.273438 32.207031 25.234375 30.058594 24.925781 C 27.746094 24.59375 24.574219 24.136719 21.859375 26.851562 C 19.140625 29.570312 19.597656 32.738281 19.933594 35.054688 C 20.242188 37.203125 20.277344 38.023438 19.480469 38.820312 C 18.683594 39.621094 17.859375 39.582031 15.710938 39.273438 C 14.875 39.152344 14.011719 39.027344 13.085938 39.015625 L 13.027344 44.234375 C 13.609375 44.242188 14.269531 44.335938 14.96875 44.4375 C 15.796875 44.558594 16.734375 44.691406 17.722656 44.691406 C 18.746094 44.691406 19.820312 44.546875 20.882812 44.085938 L 20.882812 48.261719 L 28.710938 48.261719 L 28.710938 44.347656 L 24.796875 44.347656 L 24.796875 41.738281 L 27.40625 41.738281 L 27.40625 37.828125 L 25.320312 37.828125 C 25.417969 36.5625 25.246094 35.347656 25.097656 34.308594 C 24.785156 32.164062 24.75 31.339844 25.546875 30.542969 C 26.34375 29.742188 27.167969 29.78125 29.316406 30.089844 C 31.003906 30.332031 33.144531 30.640625 35.230469 29.738281 L 35.230469 33.914062 L 43.058594 33.914062 L 43.058594 30 L 39.144531 30 L 39.144531 27.390625 L 41.753906 27.390625 L 41.753906 23.480469 L 39.667969 23.480469 C 39.769531 22.214844 39.59375 21 39.445312 19.960938 C 39.226562 18.460938 39.144531 17.609375 39.386719 16.957031 Z M 46.972656 16.957031 "/>
</svg>
