<?xml version="1.0" encoding="UTF-8"?>
<svg xmlns="http://www.w3.org/2000/svg" xmlns:xlink="http://www.w3.org/1999/xlink" width="40" height="40" viewBox="0 0 40 40">
<path fill-rule="nonzero" fill="rgb(100%, 59.607843%, 6.666667%)" fill-opacity="1" d="M 34.140625 5.855469 L 17.5 17.5 L 5.855469 34.140625 C 9.476562 37.761719 14.476562 40 20 40 C 30.972656 40 39.878906 31.164062 40 20.222656 L 40 19.777344 C 39.9375 14.34375 37.710938 9.429688 34.140625 5.859375 Z M 34.140625 5.855469 "/>
<path fill-rule="nonzero" fill="rgb(100%, 85.490196%, 26.666667%)" fill-opacity="1" d="M 34.140625 5.855469 L 5.855469 34.140625 C 2.238281 30.523438 0 25.523438 0 20 C 0 8.957031 8.949219 0.00390625 19.992188 0 C 19.996094 0 19.996094 0 20 0 C 20 0 20.003906 0 20.007812 0 C 25.527344 0.00390625 30.523438 2.238281 34.140625 5.859375 Z M 34.140625 5.855469 "/>
<path fill-rule="nonzero" fill="rgb(93.333333%, 93.333333%, 93.333333%)" fill-opacity="1" d="M 31.3125 11.304688 L 31.3125 7.828125 L 24.648438 7.828125 L 24.136719 8.335938 C 22.328125 10.148438 22.632812 12.261719 22.851562 13.804688 C 23.058594 15.234375 23.085938 15.785156 22.550781 16.316406 C 22.019531 16.847656 21.472656 16.824219 20.039062 16.617188 C 18.496094 16.394531 16.382812 16.089844 14.570312 17.902344 C 12.761719 19.714844 13.066406 21.828125 13.289062 23.371094 C 13.496094 24.800781 13.519531 25.347656 12.988281 25.882812 C 12.453125 26.414062 11.90625 26.390625 10.476562 26.183594 C 9.917969 26.101562 9.339844 26.019531 8.722656 26.011719 L 8.6875 29.488281 C 9.070312 29.492188 9.511719 29.558594 9.980469 29.625 C 10.53125 29.703125 11.15625 29.792969 11.8125 29.792969 C 12.496094 29.792969 13.214844 29.699219 13.921875 29.390625 L 13.921875 32.175781 L 19.140625 32.175781 L 19.140625 29.566406 L 16.53125 29.566406 L 16.53125 27.828125 L 18.269531 27.828125 L 18.269531 25.21875 L 16.878906 25.21875 C 16.945312 24.375 16.832031 23.566406 16.730469 22.871094 C 16.523438 21.441406 16.5 20.894531 17.03125 20.359375 C 17.5625 19.828125 18.113281 19.855469 19.542969 20.058594 C 20.667969 20.222656 22.09375 20.425781 23.488281 19.824219 L 23.488281 22.609375 L 28.707031 22.609375 L 28.707031 20 L 26.097656 20 L 26.097656 18.261719 L 27.835938 18.261719 L 27.835938 15.652344 L 26.445312 15.652344 C 26.511719 14.808594 26.394531 14 26.296875 13.308594 C 26.152344 12.308594 26.097656 11.738281 26.257812 11.304688 Z M 31.3125 11.304688 "/>
</svg>
