<?xml version="1.0" encoding="UTF-8"?>
<svg xmlns="http://www.w3.org/2000/svg" xmlns:xlink="http://www.w3.org/1999/xlink" width="20" height="20" viewBox="0 0 20 20">
<path fill-rule="nonzero" fill="rgb(100%, 59.607843%, 6.666667%)" fill-opacity="1" d="M 17.070312 2.929688 L 8.75 8.75 L 2.929688 17.070312 C 4.738281 18.878906 7.238281 20 10 20 C 15.484375 20 19.941406 15.582031 20 10.113281 L 20 9.886719 C 19.96875 7.171875 18.855469 4.714844 17.070312 2.929688 Z M 17.070312 2.929688 "/>
<path fill-rule="nonzero" fill="rgb(100%, 85.490196%, 26.666667%)" fill-opacity="1" d="M 17.070312 2.929688 L 2.929688 17.070312 C 1.117188 15.261719 0 12.761719 0 10 C 0 4.476562 4.476562 0.00390625 9.996094 0 C 9.996094 0 10 0 10 0 C 10 0 10.003906 0 10.003906 0 C 12.761719 0 15.261719 1.121094 17.070312 2.929688 Z M 17.070312 2.929688 "/>
<path fill-rule="nonzero" fill="rgb(93.333333%, 93.333333%, 93.333333%)" fill-opacity="1" d="M 15.65625 5.652344 L 15.65625 3.914062 L 12.324219 3.914062 L 12.070312 4.167969 C 11.164062 5.074219 11.316406 6.128906 11.425781 6.902344 C 11.53125 7.617188 11.542969 7.890625 11.277344 8.15625 C 11.011719 8.425781 10.734375 8.410156 10.019531 8.308594 C 9.25 8.199219 8.191406 8.046875 7.285156 8.949219 C 6.378906 9.855469 6.53125 10.914062 6.644531 11.683594 C 6.746094 12.402344 6.757812 12.675781 6.492188 12.941406 C 6.226562 13.207031 5.953125 13.195312 5.238281 13.089844 C 4.957031 13.050781 4.671875 13.007812 4.363281 13.003906 L 4.34375 14.746094 C 4.535156 14.746094 4.757812 14.777344 4.988281 14.8125 C 5.265625 14.851562 5.578125 14.898438 5.90625 14.898438 C 6.25 14.898438 6.605469 14.847656 6.960938 14.695312 L 6.960938 16.085938 L 9.570312 16.085938 L 9.570312 14.78125 L 8.265625 14.78125 L 8.265625 13.914062 L 9.136719 13.914062 L 9.136719 12.609375 L 8.441406 12.609375 C 8.472656 12.1875 8.414062 11.78125 8.367188 11.4375 C 8.261719 10.722656 8.25 10.445312 8.515625 10.179688 C 8.78125 9.914062 9.054688 9.925781 9.773438 10.03125 C 10.335938 10.109375 11.046875 10.214844 11.742188 9.914062 L 11.742188 11.304688 L 14.351562 11.304688 L 14.351562 10 L 13.046875 10 L 13.046875 9.128906 L 13.917969 9.128906 L 13.917969 7.828125 L 13.222656 7.828125 C 13.257812 7.40625 13.199219 7 13.148438 6.652344 C 13.074219 6.152344 13.046875 5.871094 13.128906 5.652344 Z M 15.65625 5.652344 "/>
</svg>
