<?xml version="1.0" encoding="UTF-8"?>
<svg xmlns="http://www.w3.org/2000/svg" xmlns:xlink="http://www.w3.org/1999/xlink" width="20" height="20" viewBox="0 0 20 20">
<path fill-rule="nonzero" fill="rgb(100%, 85.490196%, 26.666667%)" fill-opacity="1" d="M 20 10 C 20 15.523438 15.523438 20 10 20 C 4.476562 20 0 15.523438 0 10 C 0 4.476562 4.476562 0 10 0 C 15.523438 0 20 4.476562 20 10 Z M 20 10 "/>
<path fill-rule="evenodd" fill="rgb(84.705882%, 0%, 15.294118%)" fill-opacity="1" d="M 19.910156 8.660156 L 13.523438 9.582031 C 13.542969 9.746094 13.554688 9.910156 13.554688 10.078125 C 13.554688 10.242188 13.546875 10.402344 13.523438 10.5625 L 19.894531 11.457031 C 19.648438 13.148438 18.980469 14.699219 18 16.003906 L 12.863281 12.160156 C 12.667969 12.425781 12.433594 12.660156 12.171875 12.855469 L 16.03125 17.976562 C 14.730469 18.960938 13.179688 19.636719 11.492188 19.890625 L 10.574219 13.519531 C 10.414062 13.542969 10.246094 13.554688 10.078125 13.554688 C 9.914062 13.554688 9.753906 13.546875 9.59375 13.523438 L 8.695312 19.914062 C 6.992188 19.695312 5.421875 19.042969 4.097656 18.074219 L 7.996094 12.863281 C 7.730469 12.667969 7.5 12.433594 7.300781 12.171875 L 2.078125 16.105469 C 1.066406 14.792969 0.375 13.226562 0.113281 11.515625 L 6.636719 10.574219 C 6.613281 10.414062 6.601562 10.246094 6.601562 10.078125 C 6.601562 9.914062 6.609375 9.753906 6.632812 9.59375 L 0.0859375 8.675781 C 0.316406 6.945312 0.988281 5.355469 1.984375 4.023438 L 7.292969 7.996094 C 7.488281 7.730469 7.722656 7.496094 7.984375 7.300781 L 3.992188 2.003906 C 5.324219 1.003906 6.910156 0.328125 8.640625 0.09375 L 9.582031 6.636719 C 9.742188 6.613281 9.910156 6.601562 10.078125 6.601562 C 10.242188 6.601562 10.402344 6.613281 10.5625 6.632812 L 11.480469 0.109375 C 13.191406 0.363281 14.765625 1.050781 16.078125 2.058594 L 12.160156 7.292969 C 12.425781 7.488281 12.660156 7.722656 12.855469 7.984375 L 18.050781 4.070312 C 19.027344 5.390625 19.683594 6.957031 19.910156 8.660156 Z M 12.6875 10.078125 C 12.6875 11.519531 11.519531 12.6875 10.078125 12.6875 C 8.636719 12.6875 7.46875 11.519531 7.46875 10.078125 C 7.46875 8.636719 8.636719 7.46875 10.078125 7.46875 C 11.519531 7.46875 12.6875 8.636719 12.6875 10.078125 Z M 12.6875 10.078125 "/>
</svg>
