<?xml version="1.0" encoding="UTF-8"?>
<svg xmlns="http://www.w3.org/2000/svg" xmlns:xlink="http://www.w3.org/1999/xlink" width="60" height="60" viewBox="0 0 60 60">
<path fill-rule="nonzero" fill="rgb(100%, 85.490196%, 26.666667%)" fill-opacity="1" d="M 60 30 C 60 46.570312 46.570312 60 30 60 C 13.429688 60 0 46.570312 0 30 C 0 13.429688 13.429688 0 30 0 C 46.570312 0 60 13.429688 60 30 Z M 60 30 "/>
<path fill-rule="evenodd" fill="rgb(84.705882%, 0%, 15.294118%)" fill-opacity="1" d="M 59.734375 25.984375 L 40.5625 28.746094 C 40.632812 29.234375 40.667969 29.730469 40.667969 30.234375 C 40.667969 30.726562 40.636719 31.210938 40.570312 31.6875 L 59.683594 34.375 C 58.945312 39.441406 56.9375 44.097656 53.996094 48.007812 L 38.589844 36.484375 C 38 37.273438 37.300781 37.976562 36.515625 38.570312 L 48.09375 53.933594 C 44.1875 56.890625 39.539062 58.910156 34.476562 59.667969 L 31.722656 40.5625 C 31.238281 40.632812 30.742188 40.667969 30.234375 40.667969 C 29.742188 40.667969 29.257812 40.636719 28.78125 40.570312 L 26.085938 59.746094 C 20.972656 59.082031 16.261719 57.125 12.292969 54.21875 L 23.984375 38.589844 C 23.195312 38 22.492188 37.300781 21.902344 36.515625 L 6.238281 48.316406 C 3.203125 44.382812 1.121094 39.675781 0.339844 34.542969 L 19.90625 31.722656 C 19.835938 31.238281 19.800781 30.742188 19.800781 30.234375 C 19.800781 29.742188 19.832031 29.257812 19.898438 28.78125 L 0.261719 26.023438 C 0.949219 20.835938 2.960938 16.066406 5.949219 12.066406 L 21.878906 23.984375 C 22.46875 23.195312 23.167969 22.492188 23.953125 21.902344 L 11.980469 6.011719 C 15.972656 3.011719 20.734375 0.980469 25.917969 0.277344 L 28.746094 19.90625 C 29.230469 19.835938 29.730469 19.800781 30.234375 19.800781 C 30.726562 19.800781 31.210938 19.835938 31.6875 19.902344 L 34.4375 0.328125 C 39.578125 1.089844 44.292969 3.15625 48.234375 6.175781 L 36.484375 21.878906 C 37.273438 22.46875 37.976562 23.167969 38.570312 23.957031 L 54.15625 12.207031 C 57.078125 16.167969 59.050781 20.871094 59.734375 25.984375 Z M 38.0625 30.234375 C 38.0625 34.558594 34.558594 38.0625 30.234375 38.0625 C 25.914062 38.0625 22.410156 34.558594 22.410156 30.234375 C 22.410156 25.914062 25.914062 22.410156 30.234375 22.410156 C 34.558594 22.410156 38.0625 25.914062 38.0625 30.234375 Z M 38.0625 30.234375 "/>
</svg>
