<?xml version="1.0" encoding="UTF-8"?>
<svg xmlns="http://www.w3.org/2000/svg" xmlns:xlink="http://www.w3.org/1999/xlink" width="40" height="40" viewBox="0 0 40 40">
<path fill-rule="nonzero" fill="rgb(100%, 85.490196%, 26.666667%)" fill-opacity="1" d="M 40 20 C 40 31.046875 31.046875 40 20 40 C 8.953125 40 0 31.046875 0 20 C 0 8.953125 8.953125 0 20 0 C 31.046875 0 40 8.953125 40 20 Z M 40 20 "/>
<path fill-rule="evenodd" fill="rgb(84.705882%, 0%, 15.294118%)" fill-opacity="1" d="M 39.824219 17.324219 L 27.042969 19.164062 C 27.089844 19.488281 27.113281 19.820312 27.113281 20.15625 C 27.113281 20.484375 27.089844 20.808594 27.046875 21.125 L 39.789062 22.914062 C 39.296875 26.292969 37.957031 29.398438 35.996094 32.007812 L 25.726562 24.324219 C 25.332031 24.847656 24.867188 25.316406 24.34375 25.710938 L 32.0625 35.957031 C 29.460938 37.925781 26.359375 39.273438 22.984375 39.777344 L 21.148438 27.042969 C 20.824219 27.089844 20.492188 27.113281 20.15625 27.113281 C 19.828125 27.113281 19.503906 27.089844 19.1875 27.046875 L 17.390625 39.832031 C 13.980469 39.386719 10.839844 38.085938 8.195312 36.144531 L 15.988281 25.726562 C 15.464844 25.332031 14.996094 24.867188 14.601562 24.34375 L 4.160156 32.210938 C 2.136719 29.589844 0.746094 26.453125 0.226562 23.027344 L 13.269531 21.148438 C 13.222656 20.824219 13.199219 20.492188 13.199219 20.15625 C 13.199219 19.828125 13.222656 19.503906 13.265625 19.1875 L 0.175781 17.347656 C 0.632812 13.890625 1.972656 10.710938 3.964844 8.042969 L 14.585938 15.988281 C 14.980469 15.464844 15.445312 14.996094 15.96875 14.601562 L 7.988281 4.007812 C 10.648438 2.007812 13.824219 0.65625 17.277344 0.183594 L 19.164062 13.269531 C 19.488281 13.222656 19.820312 13.199219 20.15625 13.199219 C 20.484375 13.199219 20.808594 13.222656 21.125 13.265625 L 22.957031 0.21875 C 26.382812 0.726562 29.527344 2.101562 32.15625 4.117188 L 24.324219 14.585938 C 24.847656 14.980469 25.316406 15.445312 25.710938 15.96875 L 36.105469 8.140625 C 38.050781 10.777344 39.367188 13.914062 39.824219 17.324219 Z M 25.375 20.15625 C 25.375 23.039062 23.039062 25.375 20.15625 25.375 C 17.273438 25.375 14.9375 23.039062 14.9375 20.15625 C 14.9375 17.273438 17.273438 14.9375 20.15625 14.9375 C 23.039062 14.9375 25.375 17.273438 25.375 20.15625 Z M 25.375 20.15625 "/>
</svg>
