<?xml version="1.0" encoding="UTF-8"?>
<svg xmlns="http://www.w3.org/2000/svg" xmlns:xlink="http://www.w3.org/1999/xlink" width="60" height="60" viewBox="0 0 60 60">
<path fill-rule="nonzero" fill="rgb(28.627451%, 43.137255%, 17.647059%)" fill-opacity="1" d="M 0 30 C 0 46.550781 13.398438 59.96875 29.941406 60 L 30 60 L 33.75 30 L 30 0 C 13.433594 0 0 13.433594 0 30 Z M 0 30 "/>
<path fill-rule="nonzero" fill="rgb(93.333333%, 93.333333%, 93.333333%)" fill-opacity="1" d="M 30.058594 60 L 30 60 L 30 0 C 46.566406 0 60 13.433594 60 30 C 60 46.550781 46.601562 59.96875 30.058594 60 Z M 30.058594 60 "/>
<path fill-rule="nonzero" fill="rgb(84.705882%, 0%, 15.294118%)" fill-opacity="1" d="M 36.445312 24.246094 L 33.984375 27.636719 L 29.996094 26.34375 L 32.464844 29.734375 L 30 33.125 L 33.988281 31.828125 L 36.453125 35.21875 L 36.449219 31.027344 L 40.433594 29.730469 L 36.449219 28.4375 Z M 36.445312 24.246094 "/>
<path fill-rule="nonzero" fill="rgb(84.705882%, 0%, 15.294118%)" fill-opacity="1" d="M 32.488281 38.476562 C 27.808594 38.476562 24.011719 34.683594 24.011719 30 C 24.011719 25.316406 27.808594 21.523438 32.488281 21.523438 C 33.949219 21.523438 35.324219 21.890625 36.523438 22.539062 C 34.640625 20.699219 32.066406 19.566406 29.226562 19.566406 C 23.464844 19.566406 18.792969 24.238281 18.792969 30 C 18.792969 35.761719 23.464844 40.433594 29.226562 40.433594 C 32.066406 40.433594 34.640625 39.300781 36.523438 37.460938 C 35.324219 38.109375 33.949219 38.476562 32.488281 38.476562 Z M 32.488281 38.476562 "/>
</svg>
