<?xml version="1.0" encoding="UTF-8"?>
<svg xmlns="http://www.w3.org/2000/svg" xmlns:xlink="http://www.w3.org/1999/xlink" width="40" height="40" viewBox="0 0 40 40">
<path fill-rule="nonzero" fill="rgb(28.627451%, 43.137255%, 17.647059%)" fill-opacity="1" d="M 0 20 C 0 31.03125 8.933594 39.980469 19.960938 40 L 20 40 L 22.5 20 L 20 0 C 8.953125 0 0 8.953125 0 20 Z M 0 20 "/>
<path fill-rule="nonzero" fill="rgb(93.333333%, 93.333333%, 93.333333%)" fill-opacity="1" d="M 20.039062 40 L 20 40 L 20 0 C 31.046875 0 40 8.953125 40 20 C 40 31.03125 31.066406 39.980469 20.039062 40 Z M 20.039062 40 "/>
<path fill-rule="nonzero" fill="rgb(84.705882%, 0%, 15.294118%)" fill-opacity="1" d="M 24.296875 16.164062 L 22.65625 18.425781 L 20 17.5625 L 21.640625 19.824219 L 20 22.085938 L 22.65625 21.21875 L 24.300781 23.480469 L 24.300781 20.683594 L 26.957031 19.820312 L 24.296875 18.957031 Z M 24.296875 16.164062 "/>
<path fill-rule="nonzero" fill="rgb(84.705882%, 0%, 15.294118%)" fill-opacity="1" d="M 21.660156 25.652344 C 18.539062 25.652344 16.007812 23.121094 16.007812 20 C 16.007812 16.878906 18.539062 14.347656 21.660156 14.347656 C 22.632812 14.347656 23.546875 14.59375 24.347656 15.027344 C 23.09375 13.800781 21.378906 13.042969 19.484375 13.042969 C 15.644531 13.042969 12.527344 16.15625 12.527344 20 C 12.527344 23.84375 15.644531 26.957031 19.484375 26.957031 C 21.378906 26.957031 23.09375 26.199219 24.347656 24.972656 C 23.546875 25.40625 22.632812 25.652344 21.660156 25.652344 Z M 21.660156 25.652344 "/>
</svg>
