<?xml version="1.0" encoding="UTF-8"?>
<svg xmlns="http://www.w3.org/2000/svg" xmlns:xlink="http://www.w3.org/1999/xlink" width="20" height="20" viewBox="0 0 20 20">
<path fill-rule="nonzero" fill="rgb(28.627451%, 43.137255%, 17.647059%)" fill-opacity="1" d="M 0 10 C 0 15.515625 4.464844 19.988281 9.980469 20 L 10 20 L 11.25 10 L 10 0 C 4.476562 0 0 4.476562 0 10 Z M 0 10 "/>
<path fill-rule="nonzero" fill="rgb(93.333333%, 93.333333%, 93.333333%)" fill-opacity="1" d="M 10.019531 20 L 10 20 L 10 0 C 15.523438 0 20 4.476562 20 10 C 20 15.515625 15.535156 19.988281 10.019531 20 Z M 10.019531 20 "/>
<path fill-rule="nonzero" fill="rgb(84.705882%, 0%, 15.294118%)" fill-opacity="1" d="M 12.148438 8.082031 L 11.328125 9.210938 L 10 8.78125 L 10.820312 9.910156 L 10 11.042969 L 11.328125 10.609375 L 12.152344 11.738281 L 12.148438 10.34375 L 13.476562 9.910156 L 12.148438 9.480469 Z M 12.148438 8.082031 "/>
<path fill-rule="nonzero" fill="rgb(84.705882%, 0%, 15.294118%)" fill-opacity="1" d="M 10.828125 12.828125 C 9.269531 12.828125 8.003906 11.5625 8.003906 10 C 8.003906 8.4375 9.269531 7.175781 10.828125 7.175781 C 11.316406 7.175781 11.773438 7.296875 12.175781 7.515625 C 11.546875 6.898438 10.6875 6.523438 9.742188 6.523438 C 7.820312 6.523438 6.265625 8.078125 6.265625 10 C 6.265625 11.921875 7.820312 13.476562 9.742188 13.476562 C 10.6875 13.476562 11.546875 13.101562 12.175781 12.488281 C 11.773438 12.703125 11.316406 12.824219 10.828125 12.824219 Z M 10.828125 12.828125 "/>
</svg>
