<?xml version="1.0" encoding="UTF-8"?>
<svg xmlns="http://www.w3.org/2000/svg" xmlns:xlink="http://www.w3.org/1999/xlink" width="60" height="60" viewBox="0 0 60 60">
<path fill-rule="nonzero" fill="rgb(84.705882%, 0%, 15.294118%)" fill-opacity="1" d="M 60 30 C 60 46.570312 46.570312 60 30 60 C 13.429688 60 0 46.570312 0 30 C 0 13.429688 13.429688 0 30 0 C 46.570312 0 60 13.429688 60 30 Z M 60 30 "/>
<path fill-rule="nonzero" fill="rgb(93.333333%, 93.333333%, 93.333333%)" fill-opacity="1" d="M 45 27.1875 L 36.5625 18.75 L 53.4375 18.75 Z M 42.1875 30 L 33.75 21.5625 L 33.75 38.4375 Z M 45 32.8125 L 36.5625 41.25 L 53.4375 41.25 Z M 47.8125 30 L 56.25 21.5625 L 56.25 38.4375 Z M 47.8125 30 "/>
<path fill-rule="nonzero" fill="rgb(93.333333%, 93.333333%, 93.333333%)" fill-opacity="1" d="M 0 28.777344 C 0.640625 12.777344 13.816406 0 29.976562 0 C 29.984375 0 29.992188 0 30 0 L 30 30 L 0 30 Z M 0 28.777344 "/>
<path fill-rule="evenodd" fill="rgb(0%, 13.333333%, 40%)" fill-opacity="1" d="M 0.230469 26.25 C 1.078125 19.464844 4.191406 13.382812 8.789062 8.785156 L 8.789062 26.25 Z M 0.230469 26.25 "/>
<path fill-rule="evenodd" fill="rgb(93.333333%, 93.333333%, 93.333333%)" fill-opacity="1" d="M 8.789062 8.785156 C 11.285156 6.289062 14.214844 4.234375 17.460938 2.738281 L 17.460938 26.25 L 8.789062 26.25 Z M 8.789062 8.785156 "/>
<path fill-rule="evenodd" fill="rgb(84.705882%, 0%, 15.294118%)" fill-opacity="1" d="M 17.460938 2.738281 C 20.195312 1.480469 23.148438 0.617188 26.25 0.230469 L 26.25 26.25 L 17.460938 26.25 Z M 17.460938 2.738281 "/>
</svg>
