<?xml version="1.0" encoding="UTF-8"?>
<svg xmlns="http://www.w3.org/2000/svg" xmlns:xlink="http://www.w3.org/1999/xlink" width="40" height="40" viewBox="0 0 40 40">
<path fill-rule="nonzero" fill="rgb(84.705882%, 0%, 15.294118%)" fill-opacity="1" d="M 40 20 C 40 31.046875 31.046875 40 20 40 C 8.953125 40 0 31.046875 0 20 C 0 8.953125 8.953125 0 20 0 C 31.046875 0 40 8.953125 40 20 Z M 40 20 "/>
<path fill-rule="nonzero" fill="rgb(93.333333%, 93.333333%, 93.333333%)" fill-opacity="1" d="M 30 18.125 L 24.375 12.5 L 35.625 12.5 Z M 28.125 20 L 22.5 14.375 L 22.5 25.625 Z M 30 21.875 L 24.375 27.5 L 35.625 27.5 Z M 31.875 20 L 37.5 14.375 L 37.5 25.625 Z M 31.875 20 "/>
<path fill-rule="nonzero" fill="rgb(93.333333%, 93.333333%, 93.333333%)" fill-opacity="1" d="M 0 19.1875 C 0.425781 8.515625 9.210938 0 19.984375 0 C 19.988281 0 19.996094 0 20 0 L 20 20 L 0 20 Z M 0 19.1875 "/>
<path fill-rule="evenodd" fill="rgb(0%, 13.333333%, 40%)" fill-opacity="1" d="M 0.15625 17.5 C 0.71875 12.976562 2.792969 8.921875 5.859375 5.855469 L 5.859375 17.5 Z M 0.15625 17.5 "/>
<path fill-rule="evenodd" fill="rgb(93.333333%, 93.333333%, 93.333333%)" fill-opacity="1" d="M 5.859375 5.855469 C 7.523438 4.195312 9.476562 2.820312 11.640625 1.824219 L 11.640625 17.5 L 5.859375 17.5 Z M 5.859375 5.855469 "/>
<path fill-rule="evenodd" fill="rgb(84.705882%, 0%, 15.294118%)" fill-opacity="1" d="M 11.640625 1.824219 C 13.460938 0.984375 15.433594 0.414062 17.5 0.15625 L 17.5 17.5 L 11.640625 17.5 Z M 11.640625 1.824219 "/>
</svg>
