<?xml version="1.0" encoding="UTF-8"?>
<svg xmlns="http://www.w3.org/2000/svg" xmlns:xlink="http://www.w3.org/1999/xlink" width="20" height="20" viewBox="0 0 20 20">
<path fill-rule="nonzero" fill="rgb(84.705882%, 0%, 15.294118%)" fill-opacity="1" d="M 20 10 C 20 15.523438 15.523438 20 10 20 C 4.476562 20 0 15.523438 0 10 C 0 4.476562 4.476562 0 10 0 C 15.523438 0 20 4.476562 20 10 Z M 20 10 "/>
<path fill-rule="nonzero" fill="rgb(93.333333%, 93.333333%, 93.333333%)" fill-opacity="1" d="M 15 9.0625 L 12.1875 6.25 L 17.8125 6.25 Z M 14.0625 10 L 11.25 7.1875 L 11.25 12.8125 Z M 15 10.9375 L 12.1875 13.75 L 17.8125 13.75 Z M 15.9375 10 L 18.75 7.1875 L 18.75 12.8125 Z M 15.9375 10 "/>
<path fill-rule="nonzero" fill="rgb(93.333333%, 93.333333%, 93.333333%)" fill-opacity="1" d="M 0 9.59375 C 0.214844 4.257812 4.605469 0 9.992188 0 C 9.996094 0 9.996094 0 10 0 L 10 10 L 0 10 Z M 0 9.59375 "/>
<path fill-rule="evenodd" fill="rgb(0%, 13.333333%, 40%)" fill-opacity="1" d="M 0.078125 8.75 C 0.359375 6.488281 1.398438 4.460938 2.929688 2.929688 L 2.929688 8.75 Z M 0.078125 8.75 "/>
<path fill-rule="evenodd" fill="rgb(93.333333%, 93.333333%, 93.333333%)" fill-opacity="1" d="M 2.929688 2.929688 C 3.761719 2.097656 4.738281 1.410156 5.820312 0.914062 L 5.820312 8.75 L 2.929688 8.75 Z M 2.929688 2.929688 "/>
<path fill-rule="evenodd" fill="rgb(84.705882%, 0%, 15.294118%)" fill-opacity="1" d="M 5.820312 0.914062 C 6.730469 0.492188 7.714844 0.207031 8.75 0.078125 L 8.75 8.75 L 5.820312 8.75 Z M 5.820312 0.914062 "/>
</svg>
