<?xml version="1.0" encoding="UTF-8"?>
<svg xmlns="http://www.w3.org/2000/svg" xmlns:xlink="http://www.w3.org/1999/xlink" width="60" height="60" viewBox="0 0 60 60">
<path fill-rule="nonzero" fill="rgb(28.627451%, 43.137255%, 17.647059%)" fill-opacity="1" d="M 30 0 C 39.816406 0 48.527344 4.714844 54.003906 12 L 59.398438 24 C 59.792969 25.9375 60 27.945312 60 30 C 60 32.054688 59.792969 34.0625 59.398438 36 L 54.003906 48 C 48.527344 55.285156 39.816406 60 30 60 C 20.183594 60 11.472656 55.285156 5.996094 48 L 0.601562 36 C 0.207031 34.0625 0 32.054688 0 30 C 0 27.945312 0.207031 25.9375 0.601562 24 L 5.996094 12 C 11.472656 4.714844 20.183594 0 30 0 Z M 30 0 "/>
<path fill-rule="nonzero" fill="rgb(100%, 85.490196%, 26.666667%)" fill-opacity="1" d="M 54.003906 12 C 56.621094 15.488281 58.5 19.566406 59.398438 24 L 0.601562 24 C 1.5 19.566406 3.378906 15.488281 5.996094 12 Z M 54.003906 12 "/>
<path fill-rule="nonzero" fill="rgb(100%, 85.490196%, 26.666667%)" fill-opacity="1" d="M 54.003906 48 C 56.621094 44.511719 58.5 40.433594 59.398438 36 L 0.601562 36 C 1.5 40.433594 3.378906 44.511719 5.996094 48 Z M 54.003906 48 "/>
<path fill-rule="evenodd" fill="rgb(84.705882%, 0%, 15.294118%)" fill-opacity="1" d="M 0.601562 36 C 0.207031 34.0625 0 32.054688 0 30 C 0 13.429688 13.429688 0 30 0 L 30 36 Z M 0.601562 36 "/>
<path fill-rule="nonzero" fill="rgb(93.333333%, 93.333333%, 93.333333%)" fill-opacity="1" d="M 15 14.296875 L 16.945312 20.28125 L 23.238281 20.28125 L 18.148438 23.980469 L 20.089844 29.96875 L 15 26.269531 L 9.910156 29.96875 L 11.851562 23.980469 L 6.761719 20.28125 L 13.054688 20.28125 Z M 15 14.296875 "/>
</svg>
