<?xml version="1.0" encoding="UTF-8"?>
<svg xmlns="http://www.w3.org/2000/svg" xmlns:xlink="http://www.w3.org/1999/xlink" width="20" height="20" viewBox="0 0 20 20">
<path fill-rule="nonzero" fill="rgb(28.627451%, 43.137255%, 17.647059%)" fill-opacity="1" d="M 10 0 C 13.273438 0 16.175781 1.570312 18 4 L 19.800781 8 C 19.929688 8.644531 20 9.316406 20 10 C 20 10.683594 19.929688 11.355469 19.800781 12 L 18 16 C 16.175781 18.429688 13.273438 20 10 20 C 6.726562 20 3.824219 18.429688 2 16 L 0.199219 12 C 0.0703125 11.355469 0 10.683594 0 10 C 0 9.316406 0.0703125 8.644531 0.199219 8 L 2 4 C 3.824219 1.570312 6.726562 0 10 0 Z M 10 0 "/>
<path fill-rule="nonzero" fill="rgb(100%, 85.490196%, 26.666667%)" fill-opacity="1" d="M 18 4 C 18.875 5.164062 19.5 6.523438 19.800781 8 L 0.199219 8 C 0.5 6.523438 1.125 5.164062 2 4 Z M 18 4 "/>
<path fill-rule="nonzero" fill="rgb(100%, 85.490196%, 26.666667%)" fill-opacity="1" d="M 18 16 C 18.875 14.835938 19.5 13.476562 19.800781 12 L 0.199219 12 C 0.5 13.476562 1.125 14.835938 2 16 Z M 18 16 "/>
<path fill-rule="evenodd" fill="rgb(84.705882%, 0%, 15.294118%)" fill-opacity="1" d="M 0.199219 12 C 0.0703125 11.355469 0 10.683594 0 10 C 0 4.476562 4.476562 0 10 0 L 10 12 Z M 0.199219 12 "/>
<path fill-rule="nonzero" fill="rgb(93.333333%, 93.333333%, 93.333333%)" fill-opacity="1" d="M 5 4.765625 L 5.648438 6.761719 L 7.746094 6.761719 L 6.050781 7.992188 L 6.695312 9.988281 L 5 8.757812 L 3.304688 9.988281 L 3.949219 7.992188 L 2.253906 6.761719 L 4.351562 6.761719 Z M 5 4.765625 "/>
</svg>
