<?xml version="1.0" encoding="UTF-8"?>
<svg xmlns="http://www.w3.org/2000/svg" xmlns:xlink="http://www.w3.org/1999/xlink" width="20" height="20" viewBox="0 0 20 20">
<path fill-rule="nonzero" fill="rgb(42.745098%, 64.705882%, 26.666667%)" fill-opacity="1" d="M 20 10 C 20 15.523438 15.523438 20 10 20 C 4.476562 20 0 15.523438 0 10 C 0 4.476562 4.476562 0 10 0 C 15.523438 0 20 4.476562 20 10 Z M 20 10 "/>
<path fill-rule="nonzero" fill="rgb(100%, 85.490196%, 26.666667%)" fill-opacity="1" d="M 10 3.914062 L 18.261719 10 L 10 16.085938 L 1.738281 10 Z M 10 3.914062 "/>
<path fill-rule="nonzero" fill="rgb(93.333333%, 93.333333%, 93.333333%)" fill-opacity="1" d="M 10 13.476562 C 11.921875 13.476562 13.476562 11.921875 13.476562 10 C 13.476562 8.078125 11.921875 6.523438 10 6.523438 C 8.078125 6.523438 6.523438 8.078125 6.523438 10 C 6.523438 11.921875 8.078125 13.476562 10 13.476562 Z M 10 13.476562 "/>
<path fill-rule="evenodd" fill="rgb(0%, 32.156863%, 70.588235%)" fill-opacity="1" d="M 13.476562 10 C 13.476562 10.226562 13.457031 10.449219 13.414062 10.667969 C 12.109375 9.316406 10.28125 8.476562 8.261719 8.476562 C 7.761719 8.476562 7.273438 8.53125 6.804688 8.628906 C 7.335938 7.390625 8.566406 6.523438 10 6.523438 C 11.921875 6.523438 13.476562 8.078125 13.476562 10 Z M 6.523438 10.046875 C 7.070312 9.875 7.65625 9.78125 8.261719 9.78125 C 10.117188 9.78125 11.773438 10.648438 12.847656 11.996094 C 12.21875 12.890625 11.179688 13.476562 10 13.476562 C 8.09375 13.476562 6.546875 11.945312 6.523438 10.046875 Z M 6.523438 10.046875 "/>
</svg>
