<?xml version="1.0" encoding="UTF-8"?>
<svg xmlns="http://www.w3.org/2000/svg" xmlns:xlink="http://www.w3.org/1999/xlink" width="60" height="60" viewBox="0 0 60 60">
<path fill-rule="nonzero" fill="rgb(42.745098%, 64.705882%, 26.666667%)" fill-opacity="1" d="M 60 30 C 60 46.570312 46.570312 60 30 60 C 13.429688 60 0 46.570312 0 30 C 0 13.429688 13.429688 0 30 0 C 46.570312 0 60 13.429688 60 30 Z M 60 30 "/>
<path fill-rule="nonzero" fill="rgb(100%, 85.490196%, 26.666667%)" fill-opacity="1" d="M 30 11.738281 L 54.78125 30 L 30 48.261719 L 5.21875 30 Z M 30 11.738281 "/>
<path fill-rule="nonzero" fill="rgb(93.333333%, 93.333333%, 93.333333%)" fill-opacity="1" d="M 30 40.433594 C 35.761719 40.433594 40.433594 35.761719 40.433594 30 C 40.433594 24.238281 35.761719 19.566406 30 19.566406 C 24.238281 19.566406 19.566406 24.238281 19.566406 30 C 19.566406 35.761719 24.238281 40.433594 30 40.433594 Z M 30 40.433594 "/>
<path fill-rule="evenodd" fill="rgb(0%, 32.156863%, 70.588235%)" fill-opacity="1" d="M 40.433594 30 C 40.433594 30.683594 40.367188 31.351562 40.242188 32 C 36.324219 27.953125 30.84375 25.433594 24.78125 25.433594 C 23.285156 25.433594 21.824219 25.589844 20.410156 25.882812 C 22.007812 22.167969 25.699219 19.566406 30 19.566406 C 35.761719 19.566406 40.433594 24.238281 40.433594 30 Z M 19.566406 30.136719 C 21.214844 29.625 22.96875 29.347656 24.78125 29.347656 C 30.347656 29.347656 35.316406 31.941406 38.542969 35.984375 C 36.65625 38.675781 33.535156 40.433594 30 40.433594 C 24.28125 40.433594 19.640625 35.835938 19.566406 30.136719 Z M 19.566406 30.136719 "/>
</svg>
