<?xml version="1.0" encoding="UTF-8"?>
<svg xmlns="http://www.w3.org/2000/svg" xmlns:xlink="http://www.w3.org/1999/xlink" width="40" height="40" viewBox="0 0 40 40">
<path fill-rule="nonzero" fill="rgb(42.745098%, 64.705882%, 26.666667%)" fill-opacity="1" d="M 40 20 C 40 31.046875 31.046875 40 20 40 C 8.953125 40 0 31.046875 0 20 C 0 8.953125 8.953125 0 20 0 C 31.046875 0 40 8.953125 40 20 Z M 40 20 "/>
<path fill-rule="nonzero" fill="rgb(100%, 85.490196%, 26.666667%)" fill-opacity="1" d="M 20 7.824219 L 36.523438 20 L 20 32.175781 L 3.476562 20 Z M 20 7.824219 "/>
<path fill-rule="nonzero" fill="rgb(93.333333%, 93.333333%, 93.333333%)" fill-opacity="1" d="M 20 26.957031 C 23.84375 26.957031 26.957031 23.839844 26.957031 20 C 26.957031 16.15625 23.84375 13.042969 20 13.042969 C 16.15625 13.042969 13.042969 16.15625 13.042969 20 C 13.042969 23.839844 16.15625 26.957031 20 26.957031 Z M 20 26.957031 "/>
<path fill-rule="evenodd" fill="rgb(0%, 32.156863%, 70.588235%)" fill-opacity="1" d="M 26.957031 20 C 26.957031 20.457031 26.910156 20.902344 26.828125 21.332031 C 24.21875 18.636719 20.5625 16.957031 16.523438 16.957031 C 15.523438 16.957031 14.546875 17.058594 13.605469 17.253906 C 14.671875 14.777344 17.132812 13.042969 20 13.042969 C 23.84375 13.042969 26.957031 16.15625 26.957031 20 Z M 13.046875 20.089844 C 14.144531 19.75 15.3125 19.566406 16.519531 19.566406 C 20.230469 19.566406 23.542969 21.296875 25.695312 23.992188 C 24.4375 25.785156 22.355469 26.957031 20 26.957031 C 16.1875 26.957031 13.09375 23.890625 13.046875 20.089844 Z M 13.046875 20.089844 "/>
</svg>
