<?xml version="1.0" encoding="UTF-8"?>
<svg width="16px" height="16px" viewBox="0 0 16 16" version="1.1" xmlns="http://www.w3.org/2000/svg" xmlns:xlink="http://www.w3.org/1999/xlink">
    <title>461FD695-5F29-45D8-94C5-4567AACDAF9C</title>
    <g id="Preferences" stroke="none" stroke-width="1" fill="none" fill-rule="evenodd">
        <g id="Robert-Dark" transform="translate(-114.000000, -554.000000)" fill="#FFFFFF" fill-rule="nonzero">
            <path d="M122,570 C117.581722,570 114,568.432997 114,566.5 L114,557.5 C114,555.567003 117.581722,554 122,554 C126.320094,554 129.840399,555.498133 129.994724,557.371689 L130,557.5 L130,566.5 C130,568.432997 126.418278,570 122,570 Z M122,561 C119.610312,561 117.465344,560.541598 115.999442,559.81482 L116,562 L116.055424,562.052245 C116.238414,562.214596 116.512556,562.389837 116.86632,562.55873 L117.049783,562.642559 C118.271664,563.177132 120.111454,563.5 122,563.5 C123.888546,563.5 125.729336,563.177132 126.951217,562.642559 C127.394531,562.448609 127.732087,562.241654 127.945576,562.052245 L128,562 L128.001562,559.814322 C126.535635,560.541389 124.390234,561 122,561 Z M122,556 C120.111454,556 118.366664,556.322868 117.144783,556.857441 C116.701469,557.051391 116.363913,557.258346 116.150424,557.447755 L116.095,557.5 L116.150424,557.552245 C116.333414,557.714596 116.607556,557.889837 116.96132,558.05873 L117.144783,558.142559 C118.366664,558.677132 120.111454,559 122,559 C123.888546,559 125.633336,558.677132 126.855217,558.142559 C127.298531,557.948609 127.636087,557.741654 127.849576,557.552245 L127.904,557.5 L127.849576,557.447755 C127.666586,557.285404 127.392444,557.110163 127.03868,556.94127 L126.855217,556.857441 C125.633336,556.322868 123.888546,556 122,556 Z M122,565.5 C119.610312,565.5 117.465344,565.041598 115.999442,564.31482 L116,566.5 L116.055424,566.552245 C116.238414,566.714596 116.512556,566.889837 116.86632,567.05873 L117.049783,567.142559 C118.271664,567.677132 120.111454,568 122,568 C123.888546,568 125.729336,567.677132 126.951217,567.142559 C127.394531,566.948609 127.732087,566.741654 127.945576,566.552245 L128,566.5 L128.001562,564.314322 C126.535635,565.041389 124.390234,565.5 122,565.5 Z" id="gamblingicon"></path>
        </g>
    </g>
</svg>