<?xml version="1.0" encoding="UTF-8"?>
<svg xmlns="http://www.w3.org/2000/svg" xmlns:xlink="http://www.w3.org/1999/xlink" width="60" height="60" viewBox="0 0 60 60">
<path fill-rule="nonzero" fill="rgb(100%, 85.490196%, 26.666667%)" fill-opacity="1" d="M 15.9375 56.507812 C 20.132812 58.738281 24.917969 60 30 60 C 35.082031 60 39.867188 58.738281 44.0625 56.507812 L 44.0625 3.492188 C 39.867188 1.261719 35.082031 0 30 0 C 24.917969 0 20.132812 1.261719 15.9375 3.492188 Z M 15.9375 56.507812 "/>
<path fill-rule="nonzero" fill="rgb(0%, 32.156863%, 70.588235%)" fill-opacity="1" d="M 19.6875 58.179688 C 8.199219 53.976562 0 42.945312 0 30 C 0 17.054688 8.199219 6.023438 19.6875 1.820312 Z M 19.6875 58.179688 "/>
<path fill-rule="nonzero" fill="rgb(84.705882%, 0%, 15.294118%)" fill-opacity="1" d="M 40.3125 58.179688 L 40.3125 1.820312 C 51.800781 6.023438 60 17.054688 60 30 C 60 42.945312 51.800781 53.972656 40.3125 58.179688 Z M 40.3125 58.179688 "/>
</svg>
