<svg width="24" height="25" viewBox="0 0 24 25" fill="none" xmlns="http://www.w3.org/2000/svg">
<g id="KABAB" opacity="0.7">
<path id="Ellipse 9" d="M14 5.5C14 6.60457 13.1046 7.5 12 7.5C10.8954 7.5 10 6.60457 10 5.5C10 4.39543 10.8954 3.5 12 3.5C13.1046 3.5 14 4.39543 14 5.5Z" fill="white"/>
<path id="Ellipse 10" d="M14 12.5C14 13.6046 13.1046 14.5 12 14.5C10.8954 14.5 10 13.6046 10 12.5C10 11.3954 10.8954 10.5 12 10.5C13.1046 10.5 14 11.3954 14 12.5Z" fill="white"/>
<path id="Ellipse 11" d="M14 19.5C14 20.6046 13.1046 21.5 12 21.5C10.8954 21.5 10 20.6046 10 19.5C10 18.3954 10.8954 17.5 12 17.5C13.1046 17.5 14 18.3954 14 19.5Z" fill="white"/>
</g>
</svg>
