<?xml version="1.0" encoding="UTF-8"?>
<svg xmlns="http://www.w3.org/2000/svg" xmlns:xlink="http://www.w3.org/1999/xlink" width="60" height="60" viewBox="0 0 60 60">
<path fill-rule="nonzero" fill="rgb(0%, 13.333333%, 40%)" fill-opacity="1" d="M 60 30 C 60 46.566406 46.566406 60 30 60 C 13.433594 60 0 46.566406 0 30 L 30 0 C 46.566406 0 60 13.433594 60 30 Z M 60 30 "/>
<path fill-rule="nonzero" fill="rgb(0%, 13.333333%, 40%)" fill-opacity="1" d="M 30 0 L 30 30 L 0 30 C 0 13.429688 13.429688 0 30 0 Z M 30 0 "/>
<path fill-rule="nonzero" fill="rgb(93.333333%, 93.333333%, 93.333333%)" fill-opacity="1" d="M 25.496094 30 L 30 30 L 30 25.496094 L 16.488281 11.984375 L 30 11.984375 L 30 0 C 13.429688 0 0 13.429688 0 30 L 11.984375 30 L 11.984375 16.488281 Z M 25.496094 30 "/>
<path fill-rule="nonzero" fill="rgb(84.705882%, 0%, 15.294118%)" fill-opacity="1" d="M 30 8.980469 L 30 2.972656 L 16.960938 2.972656 C 10.867188 5.917969 5.917969 10.867188 2.972656 16.960938 L 2.972656 30 L 8.980469 30 L 8.980469 8.980469 Z M 30 8.980469 "/>
<path fill-rule="nonzero" fill="rgb(84.705882%, 0%, 15.294118%)" fill-opacity="1" d="M 30 26.996094 L 30 30 L 11.984375 11.984375 L 14.984375 11.984375 Z M 30 26.996094 "/>
<path fill-rule="nonzero" fill="rgb(84.705882%, 0%, 15.294118%)" fill-opacity="1" d="M 52.894531 23.476562 L 53.542969 25.472656 L 55.636719 25.472656 L 53.941406 26.703125 L 54.589844 28.695312 L 52.894531 27.464844 L 51.199219 28.695312 L 51.847656 26.703125 L 50.152344 25.472656 L 52.246094 25.472656 Z M 52.894531 23.476562 "/>
<path fill-rule="evenodd" fill="rgb(93.333333%, 93.333333%, 93.333333%)" fill-opacity="1" d="M 52.894531 22.265625 L 53.8125 25.097656 L 56.789062 25.097656 L 54.382812 26.84375 L 55.300781 29.675781 L 52.894531 27.925781 L 50.484375 29.675781 L 51.40625 26.84375 L 48.996094 25.097656 L 51.972656 25.097656 Z M 52.894531 24.691406 L 52.519531 25.847656 L 51.304688 25.847656 L 52.285156 26.558594 L 51.910156 27.714844 L 52.894531 27 L 53.875 27.714844 L 53.5 26.558594 L 54.484375 25.847656 L 53.269531 25.847656 Z M 52.894531 24.691406 "/>
<path fill-rule="nonzero" fill="rgb(84.705882%, 0%, 15.294118%)" fill-opacity="1" d="M 45.402344 37.824219 L 46.375 40.816406 L 49.515625 40.816406 L 46.976562 42.664062 L 47.945312 45.652344 L 45.402344 43.804688 L 42.859375 45.652344 L 43.832031 42.664062 L 41.289062 40.816406 L 44.433594 40.816406 Z M 45.402344 37.824219 "/>
<path fill-rule="evenodd" fill="rgb(93.333333%, 93.333333%, 93.333333%)" fill-opacity="1" d="M 45.402344 36.613281 L 46.648438 40.441406 L 50.671875 40.441406 L 47.414062 42.804688 L 48.660156 46.632812 L 45.402344 44.269531 L 42.148438 46.632812 L 43.390625 42.804688 L 40.132812 40.441406 L 44.160156 40.441406 Z M 45.402344 39.039062 L 44.703125 41.191406 L 42.441406 41.191406 L 44.273438 42.519531 L 43.574219 44.671875 L 45.402344 43.339844 L 47.234375 44.671875 L 46.535156 42.519531 L 48.363281 41.191406 L 46.101562 41.191406 Z M 45.402344 39.039062 "/>
<path fill-rule="nonzero" fill="rgb(84.705882%, 0%, 15.294118%)" fill-opacity="1" d="M 45.6875 14.347656 L 46.496094 16.839844 L 49.113281 16.839844 L 46.996094 18.378906 L 47.804688 20.871094 L 45.6875 19.332031 L 43.566406 20.871094 L 44.375 18.378906 L 42.257812 16.839844 L 44.875 16.839844 Z M 45.6875 14.347656 "/>
<path fill-rule="evenodd" fill="rgb(93.333333%, 93.333333%, 93.333333%)" fill-opacity="1" d="M 45.6875 13.132812 L 46.769531 16.464844 L 50.269531 16.464844 L 47.4375 18.523438 L 48.519531 21.851562 L 45.6875 19.792969 L 42.851562 21.851562 L 43.933594 18.523438 L 41.101562 16.464844 L 44.605469 16.464844 L 45.683594 13.132812 Z M 45.6875 15.5625 L 45.148438 17.214844 L 43.410156 17.214844 L 44.816406 18.234375 L 44.28125 19.886719 L 45.6875 18.867188 L 47.089844 19.886719 L 46.554688 18.234375 L 47.960938 17.214844 L 46.222656 17.214844 Z M 45.6875 15.5625 "/>
<path fill-rule="nonzero" fill="rgb(84.705882%, 0%, 15.294118%)" fill-opacity="1" d="M 38.476562 23.390625 L 39.449219 26.382812 L 42.59375 26.382812 L 40.050781 28.230469 L 41.023438 31.21875 L 38.480469 29.371094 L 35.9375 31.21875 L 36.90625 28.230469 L 34.363281 26.382812 L 37.507812 26.382812 L 38.480469 23.390625 Z M 38.476562 23.390625 "/>
<path fill-rule="evenodd" fill="rgb(93.333333%, 93.333333%, 93.333333%)" fill-opacity="1" d="M 38.476562 22.179688 L 39.722656 26.003906 L 43.746094 26.003906 L 40.492188 28.371094 L 41.734375 32.199219 L 38.480469 29.832031 L 35.222656 32.199219 L 36.464844 28.371094 L 33.210938 26.003906 L 37.234375 26.003906 Z M 38.476562 24.605469 L 37.78125 26.753906 L 35.519531 26.753906 L 37.347656 28.085938 L 36.648438 30.234375 L 38.476562 28.90625 L 40.308594 30.234375 L 39.609375 28.085938 L 41.4375 26.753906 L 39.175781 26.753906 Z M 38.476562 24.605469 "/>
</svg>
