<?xml version="1.0" encoding="UTF-8"?>
<svg xmlns="http://www.w3.org/2000/svg" xmlns:xlink="http://www.w3.org/1999/xlink" width="20" height="20" viewBox="0 0 20 20">
<path fill-rule="nonzero" fill="rgb(0%, 13.333333%, 40%)" fill-opacity="1" d="M 20 10 C 20 15.523438 15.523438 20 10 20 C 4.476562 20 0 15.523438 0 10 L 10 0 C 15.523438 0 20 4.476562 20 10 Z M 20 10 "/>
<path fill-rule="nonzero" fill="rgb(0%, 13.333333%, 40%)" fill-opacity="1" d="M 10 0 L 10 10 L 0 10 C 0 4.476562 4.476562 0 10 0 Z M 10 0 "/>
<path fill-rule="nonzero" fill="rgb(93.333333%, 93.333333%, 93.333333%)" fill-opacity="1" d="M 8.5 10 L 10 10 L 10 8.5 L 5.496094 3.992188 L 10 3.992188 L 10 0 C 4.476562 0 0 4.476562 0 10 L 3.992188 10 L 3.992188 5.496094 Z M 8.5 10 "/>
<path fill-rule="nonzero" fill="rgb(84.705882%, 0%, 15.294118%)" fill-opacity="1" d="M 10 2.992188 L 10 0.992188 L 5.652344 0.992188 C 3.621094 1.972656 1.972656 3.621094 0.992188 5.652344 L 0.992188 10 L 2.992188 10 L 2.992188 2.992188 Z M 10 2.992188 "/>
<path fill-rule="nonzero" fill="rgb(84.705882%, 0%, 15.294118%)" fill-opacity="1" d="M 10 9 L 10 10 L 3.992188 3.992188 L 4.996094 3.992188 Z M 10 9 "/>
<path fill-rule="nonzero" fill="rgb(84.705882%, 0%, 15.294118%)" fill-opacity="1" d="M 17.632812 7.828125 L 17.847656 8.492188 L 18.546875 8.492188 L 17.980469 8.902344 L 18.195312 9.566406 L 17.632812 9.15625 L 17.066406 9.566406 L 17.28125 8.902344 L 16.71875 8.492188 L 17.414062 8.492188 Z M 17.632812 7.828125 "/>
<path fill-rule="evenodd" fill="rgb(93.333333%, 93.333333%, 93.333333%)" fill-opacity="1" d="M 17.632812 7.421875 L 17.9375 8.367188 L 18.929688 8.367188 L 18.128906 8.949219 L 18.433594 9.890625 L 17.632812 9.308594 L 16.828125 9.890625 L 17.136719 8.949219 L 16.332031 8.367188 L 17.324219 8.367188 Z M 17.632812 8.230469 L 17.507812 8.617188 L 17.101562 8.617188 L 17.429688 8.851562 L 17.304688 9.238281 L 17.632812 9 L 17.957031 9.238281 L 17.832031 8.851562 L 18.160156 8.617188 L 17.757812 8.617188 Z M 17.632812 8.230469 "/>
<path fill-rule="nonzero" fill="rgb(84.705882%, 0%, 15.294118%)" fill-opacity="1" d="M 15.132812 12.609375 L 15.457031 13.605469 L 16.507812 13.605469 L 15.65625 14.222656 L 15.980469 15.21875 L 15.132812 14.601562 L 14.285156 15.21875 L 14.609375 14.222656 L 13.761719 13.605469 L 14.8125 13.605469 Z M 15.132812 12.609375 "/>
<path fill-rule="evenodd" fill="rgb(93.333333%, 93.333333%, 93.333333%)" fill-opacity="1" d="M 15.132812 12.203125 L 15.550781 13.480469 L 16.890625 13.480469 L 15.804688 14.269531 L 16.21875 15.542969 L 15.132812 14.757812 L 14.050781 15.542969 L 14.464844 14.269531 L 13.378906 13.480469 L 14.71875 13.480469 Z M 15.132812 13.011719 L 14.902344 13.730469 L 14.148438 13.730469 L 14.757812 14.171875 L 14.523438 14.890625 L 15.132812 14.445312 L 15.746094 14.890625 L 15.511719 14.171875 L 16.121094 13.730469 L 15.367188 13.730469 Z M 15.132812 13.011719 "/>
<path fill-rule="nonzero" fill="rgb(84.705882%, 0%, 15.294118%)" fill-opacity="1" d="M 15.226562 4.78125 L 15.5 5.613281 L 16.371094 5.613281 L 15.664062 6.125 L 15.933594 6.957031 L 15.226562 6.445312 L 14.523438 6.957031 L 14.792969 6.125 L 14.085938 5.613281 L 14.957031 5.613281 Z M 15.226562 4.78125 "/>
<path fill-rule="evenodd" fill="rgb(93.333333%, 93.333333%, 93.333333%)" fill-opacity="1" d="M 15.226562 4.378906 L 15.589844 5.488281 L 16.757812 5.488281 L 15.8125 6.175781 L 16.171875 7.285156 L 15.230469 6.597656 L 14.285156 7.285156 L 14.644531 6.175781 L 13.699219 5.488281 L 14.867188 5.488281 Z M 15.230469 5.1875 L 15.050781 5.738281 L 14.46875 5.738281 L 14.9375 6.078125 L 14.761719 6.628906 L 15.230469 6.289062 L 15.695312 6.628906 L 15.519531 6.078125 L 15.988281 5.738281 L 15.40625 5.738281 Z M 15.230469 5.1875 "/>
<path fill-rule="nonzero" fill="rgb(84.705882%, 0%, 15.294118%)" fill-opacity="1" d="M 12.828125 7.796875 L 13.148438 8.792969 L 14.199219 8.792969 L 13.351562 9.410156 L 13.675781 10.40625 L 12.828125 9.789062 L 11.980469 10.40625 L 12.300781 9.410156 L 11.453125 8.792969 L 12.503906 8.792969 Z M 12.828125 7.796875 "/>
<path fill-rule="evenodd" fill="rgb(93.333333%, 93.333333%, 93.333333%)" fill-opacity="1" d="M 12.828125 7.390625 L 13.242188 8.667969 L 14.582031 8.667969 L 13.496094 9.457031 L 13.910156 10.734375 L 12.828125 9.945312 L 11.742188 10.734375 L 12.15625 9.457031 L 11.070312 8.667969 L 12.410156 8.667969 Z M 12.828125 8.203125 L 12.59375 8.917969 L 11.839844 8.917969 L 12.449219 9.363281 L 12.214844 10.078125 L 12.828125 9.636719 L 13.4375 10.078125 L 13.203125 9.363281 L 13.8125 8.917969 L 13.058594 8.917969 Z M 12.828125 8.203125 "/>
</svg>
