<?xml version="1.0" encoding="UTF-8"?>
<svg xmlns="http://www.w3.org/2000/svg" xmlns:xlink="http://www.w3.org/1999/xlink" width="40" height="40" viewBox="0 0 40 40">
<path fill-rule="nonzero" fill="rgb(0%, 13.333333%, 40%)" fill-opacity="1" d="M 40 20 C 40 31.046875 31.046875 40 20 40 C 8.953125 40 0 31.046875 0 20 L 20 0 C 31.046875 0 40 8.953125 40 20 Z M 40 20 "/>
<path fill-rule="nonzero" fill="rgb(0%, 13.333333%, 40%)" fill-opacity="1" d="M 20 0 L 20 20 L 0 20 C 0 8.953125 8.953125 0 20 0 Z M 20 0 "/>
<path fill-rule="nonzero" fill="rgb(93.333333%, 93.333333%, 93.333333%)" fill-opacity="1" d="M 16.996094 20 L 20 20 L 20 16.996094 L 10.992188 7.988281 L 20 7.988281 L 20 0 C 8.953125 0 0 8.953125 0 20 L 7.988281 20 L 7.988281 10.992188 Z M 16.996094 20 "/>
<path fill-rule="nonzero" fill="rgb(84.705882%, 0%, 15.294118%)" fill-opacity="1" d="M 20 5.984375 L 20 1.984375 L 11.308594 1.984375 C 7.246094 3.945312 3.945312 7.246094 1.984375 11.308594 L 1.984375 20 L 5.984375 20 L 5.984375 5.984375 Z M 20 5.984375 "/>
<path fill-rule="nonzero" fill="rgb(84.705882%, 0%, 15.294118%)" fill-opacity="1" d="M 20 18 L 20 20 L 7.988281 7.988281 L 9.992188 7.988281 Z M 20 18 "/>
<path fill-rule="nonzero" fill="rgb(84.705882%, 0%, 15.294118%)" fill-opacity="1" d="M 35.261719 15.652344 L 35.695312 16.980469 L 37.089844 16.980469 L 35.960938 17.800781 L 36.394531 19.128906 L 35.261719 18.308594 L 34.132812 19.128906 L 34.5625 17.800781 L 33.433594 16.980469 L 34.832031 16.980469 Z M 35.261719 15.652344 "/>
<path fill-rule="evenodd" fill="rgb(93.333333%, 93.333333%, 93.333333%)" fill-opacity="1" d="M 35.261719 14.84375 L 35.875 16.730469 L 37.859375 16.730469 L 36.253906 17.898438 L 36.867188 19.785156 L 35.261719 18.617188 L 33.65625 19.785156 L 34.269531 17.898438 L 32.664062 16.730469 L 34.648438 16.730469 Z M 35.261719 16.460938 L 35.011719 17.230469 L 34.203125 17.230469 L 34.859375 17.707031 L 34.609375 18.476562 L 35.261719 18 L 35.917969 18.476562 L 35.667969 17.707031 L 36.320312 17.230469 L 35.511719 17.230469 Z M 35.261719 16.460938 "/>
<path fill-rule="nonzero" fill="rgb(84.705882%, 0%, 15.294118%)" fill-opacity="1" d="M 30.269531 25.21875 L 30.917969 27.210938 L 33.011719 27.210938 L 31.316406 28.441406 L 31.964844 30.433594 L 30.269531 29.203125 L 28.574219 30.433594 L 29.222656 28.441406 L 27.527344 27.210938 L 29.621094 27.210938 Z M 30.269531 25.21875 "/>
<path fill-rule="evenodd" fill="rgb(93.333333%, 93.333333%, 93.333333%)" fill-opacity="1" d="M 30.269531 24.410156 L 31.097656 26.960938 L 33.78125 26.960938 L 31.609375 28.539062 L 32.441406 31.089844 L 30.269531 29.511719 L 28.097656 31.089844 L 28.925781 28.539062 L 26.757812 26.960938 L 29.441406 26.960938 Z M 30.269531 26.027344 L 29.804688 27.460938 L 28.296875 27.460938 L 29.515625 28.347656 L 29.050781 29.78125 L 30.269531 28.894531 L 31.488281 29.78125 L 31.023438 28.347656 L 32.242188 27.460938 L 30.734375 27.460938 Z M 30.269531 26.027344 "/>
<path fill-rule="nonzero" fill="rgb(84.705882%, 0%, 15.294118%)" fill-opacity="1" d="M 30.457031 9.566406 L 30.996094 11.226562 L 32.742188 11.226562 L 31.332031 12.253906 L 31.871094 13.914062 L 30.457031 12.886719 L 29.042969 13.914062 L 29.585938 12.253906 L 28.171875 11.226562 L 29.917969 11.226562 Z M 30.457031 9.566406 "/>
<path fill-rule="evenodd" fill="rgb(93.333333%, 93.333333%, 93.333333%)" fill-opacity="1" d="M 30.457031 8.757812 L 31.179688 10.976562 L 33.511719 10.976562 L 31.625 12.347656 L 32.34375 14.566406 L 30.457031 13.195312 L 28.570312 14.566406 L 29.289062 12.347656 L 27.402344 10.976562 L 29.734375 10.976562 Z M 30.457031 10.375 L 30.097656 11.476562 L 28.941406 11.476562 L 29.878906 12.15625 L 29.519531 13.257812 L 30.457031 12.578125 L 31.394531 13.257812 L 31.035156 12.15625 L 31.972656 11.476562 L 30.816406 11.476562 Z M 30.457031 10.375 "/>
<path fill-rule="nonzero" fill="rgb(84.705882%, 0%, 15.294118%)" fill-opacity="1" d="M 25.652344 15.59375 L 26.300781 17.585938 L 28.394531 17.585938 L 26.699219 18.820312 L 27.347656 20.8125 L 25.652344 19.582031 L 23.957031 20.8125 L 24.605469 18.820312 L 22.910156 17.585938 L 25.003906 17.585938 Z M 25.652344 15.59375 "/>
<path fill-rule="evenodd" fill="rgb(93.333333%, 93.333333%, 93.333333%)" fill-opacity="1" d="M 25.652344 14.785156 L 26.480469 17.335938 L 29.164062 17.335938 L 26.992188 18.914062 L 27.824219 21.464844 L 25.652344 19.890625 L 23.480469 21.464844 L 24.3125 18.914062 L 22.140625 17.335938 L 24.824219 17.335938 Z M 25.652344 16.402344 L 25.1875 17.835938 L 23.679688 17.835938 L 24.898438 18.722656 L 24.433594 20.15625 L 25.652344 19.269531 L 26.871094 20.15625 L 26.40625 18.722656 L 27.625 17.835938 L 26.117188 17.835938 Z M 25.652344 16.402344 "/>
</svg>
