<?xml version="1.0" encoding="UTF-8"?>
<svg xmlns="http://www.w3.org/2000/svg" xmlns:xlink="http://www.w3.org/1999/xlink" width="40" height="40" viewBox="0 0 40 40">
<path fill-rule="nonzero" fill="rgb(0%, 32.156863%, 70.588235%)" fill-opacity="1" d="M 40 20 C 40 31.046875 31.046875 40 20 40 C 8.953125 40 0 31.046875 0 20 C 0 8.953125 8.953125 0 20 0 C 31.046875 0 40 8.953125 40 20 Z M 40 20 "/>
<path fill-rule="evenodd" fill="rgb(100%, 85.490196%, 26.666667%)" fill-opacity="1" d="M 3.964844 31.957031 C 2.789062 30.382812 1.839844 28.625 1.164062 26.738281 L 38.835938 26.738281 C 38.160156 28.625 37.210938 30.382812 36.035156 31.957031 Z M 3.964844 31.957031 "/>
<path fill-rule="evenodd" fill="rgb(93.333333%, 93.333333%, 93.333333%)" fill-opacity="1" d="M 8.339844 9.277344 L 7.691406 7.28125 L 7.042969 9.277344 L 4.949219 9.277344 L 6.644531 10.507812 L 5.996094 12.5 L 7.691406 11.269531 L 9.386719 12.5 L 8.738281 10.507812 L 10.433594 9.277344 Z M 14.769531 14.082031 L 13.6875 10.761719 L 12.609375 14.082031 L 9.117188 14.082031 L 11.941406 16.136719 L 10.863281 19.457031 L 13.6875 17.402344 L 16.515625 19.457031 L 15.433594 16.136719 L 18.261719 14.082031 Z M 14.769531 14.082031 "/>
</svg>
