<?xml version="1.0" encoding="UTF-8"?>
<svg xmlns="http://www.w3.org/2000/svg" xmlns:xlink="http://www.w3.org/1999/xlink" width="20" height="20" viewBox="0 0 20 20">
<path fill-rule="nonzero" fill="rgb(0%, 32.156863%, 70.588235%)" fill-opacity="1" d="M 20 10 C 20 15.523438 15.523438 20 10 20 C 4.476562 20 0 15.523438 0 10 C 0 4.476562 4.476562 0 10 0 C 15.523438 0 20 4.476562 20 10 Z M 20 10 "/>
<path fill-rule="evenodd" fill="rgb(100%, 85.490196%, 26.666667%)" fill-opacity="1" d="M 1.984375 15.976562 C 1.394531 15.191406 0.917969 14.3125 0.582031 13.371094 L 19.417969 13.371094 C 19.082031 14.3125 18.605469 15.191406 18.015625 15.976562 Z M 1.984375 15.976562 "/>
<path fill-rule="evenodd" fill="rgb(93.333333%, 93.333333%, 93.333333%)" fill-opacity="1" d="M 4.167969 4.636719 L 3.847656 3.640625 L 3.523438 4.636719 L 2.472656 4.636719 L 3.320312 5.253906 L 3 6.25 L 3.847656 5.632812 L 4.695312 6.25 L 4.371094 5.253906 L 5.21875 4.636719 Z M 7.382812 7.042969 L 6.84375 5.378906 L 6.304688 7.042969 L 4.558594 7.042969 L 5.972656 8.066406 L 5.433594 9.726562 L 6.84375 8.703125 L 8.257812 9.726562 L 7.71875 8.066406 L 9.128906 7.042969 Z M 7.382812 7.042969 "/>
</svg>
