<?xml version="1.0" encoding="UTF-8"?>
<svg xmlns="http://www.w3.org/2000/svg" xmlns:xlink="http://www.w3.org/1999/xlink" width="60" height="60" viewBox="0 0 60 60">
<path fill-rule="nonzero" fill="rgb(0%, 32.156863%, 70.588235%)" fill-opacity="1" d="M 60 30 C 60 46.570312 46.570312 60 30 60 C 13.429688 60 0 46.570312 0 30 C 0 13.429688 13.429688 0 30 0 C 46.570312 0 60 13.429688 60 30 Z M 60 30 "/>
<path fill-rule="evenodd" fill="rgb(100%, 85.490196%, 26.666667%)" fill-opacity="1" d="M 5.949219 47.9375 C 4.183594 45.570312 2.757812 42.9375 1.746094 40.109375 L 58.253906 40.109375 C 57.242188 42.9375 55.816406 45.570312 54.050781 47.9375 Z M 5.949219 47.9375 "/>
<path fill-rule="evenodd" fill="rgb(93.333333%, 93.333333%, 93.333333%)" fill-opacity="1" d="M 12.507812 13.914062 L 11.539062 10.925781 L 10.566406 13.914062 L 7.421875 13.914062 L 9.964844 15.761719 L 8.996094 18.75 L 11.539062 16.902344 L 14.082031 18.75 L 13.109375 15.761719 L 15.652344 13.914062 Z M 22.152344 21.125 L 20.535156 16.140625 L 18.914062 21.125 L 13.675781 21.125 L 17.914062 24.203125 L 16.296875 29.183594 L 20.535156 26.105469 L 24.773438 29.183594 L 23.152344 24.203125 L 27.390625 21.125 Z M 22.152344 21.125 "/>
</svg>
