<?xml version="1.0" encoding="UTF-8"?>
<svg xmlns="http://www.w3.org/2000/svg" xmlns:xlink="http://www.w3.org/1999/xlink" width="828px" height="414px" viewBox="0 0 828 414" version="1.1">
<g id="surface1">
<path style=" stroke:none;fill-rule:evenodd;fill:rgb(69.803923%,0%,0%);fill-opacity:1;" d="M -14.277344 -4.703125 L 1270.6875 -4.703125 L 1270.6875 276.550781 L -14.277344 276.550781 Z M -14.277344 -4.703125 "/>
<path style=" stroke:none;fill-rule:evenodd;fill:rgb(25.882354%,62.352943%,0%);fill-opacity:1;" d="M -14.277344 276.550781 L 1270.6875 276.550781 L 1270.6875 418.703125 L -14.277344 418.703125 Z M -14.277344 276.550781 "/>
<path style=" stroke:none;fill-rule:evenodd;fill:rgb(100%,100%,100%);fill-opacity:1;" d="M -14.277344 -4.703125 L 128.023438 -4.703125 L 128.023438 418.707031 L -14.277344 418.707031 Z M -14.277344 -4.703125 "/>
<path style=" stroke:none;fill-rule:evenodd;fill:rgb(69.803923%,0%,0%);fill-opacity:1;" d="M -7.503906 2.492188 L -0.730469 2.492188 L -0.730469 9.6875 L -7.503906 9.6875 Z M 12.824219 2.492188 L 33.152344 2.492188 L 33.152344 9.6875 L 12.824219 9.6875 Z M 19.601562 -4.703125 L 26.375 -4.703125 L 26.375 2.492188 L 19.601562 2.492188 Z M 53.480469 -4.703125 L 60.257812 -4.703125 L 60.257812 2.492188 L 53.480469 2.492188 Z M 80.585938 2.492188 L 100.914062 2.492188 L 100.914062 9.6875 L 80.585938 9.6875 Z M 87.363281 -4.703125 L 94.136719 -4.703125 L 94.136719 2.492188 L 87.363281 2.492188 Z M 6.046875 9.6875 L 19.601562 9.6875 L 19.601562 16.796875 L 6.046875 16.796875 Z M 26.375 9.6875 L 39.929688 9.6875 L 39.929688 16.796875 L 26.375 16.796875 Z M 73.808594 9.6875 L 87.363281 9.6875 L 87.363281 16.796875 L 73.808594 16.796875 Z M 94.136719 9.6875 L 107.691406 9.6875 L 107.691406 16.796875 L 94.136719 16.796875 Z M -0.730469 16.796875 L 12.824219 16.796875 L 12.824219 23.992188 L -0.730469 23.992188 Z M 33.152344 16.796875 L 46.703125 16.796875 L 46.703125 23.992188 L 33.152344 23.992188 Z M 67.035156 16.796875 L 80.585938 16.796875 L 80.585938 23.992188 L 67.035156 23.992188 Z M 100.914062 16.796875 L 114.464844 16.796875 L 114.464844 23.992188 L 100.914062 23.992188 Z M 114.464844 2.492188 L 121.242188 2.492188 L 121.242188 9.6875 L 114.464844 9.6875 Z M -7.503906 23.992188 L 6.046875 23.992188 L 6.046875 31.1875 L -7.503906 31.1875 Z M 39.929688 23.992188 L 53.480469 23.992188 L 53.480469 31.1875 L 39.929688 31.1875 Z M 107.691406 23.992188 L 121.242188 23.992188 L 121.242188 31.1875 L 107.691406 31.1875 Z M -0.730469 45.492188 L 12.824219 45.492188 L 12.824219 52.6875 L -0.730469 52.6875 Z M 6.046875 52.6875 L 19.601562 52.6875 L 19.601562 59.882812 L 6.046875 59.882812 Z M 33.152344 45.578125 L 46.703125 45.578125 L 46.703125 52.6875 L 33.152344 52.6875 Z M 26.375 52.6875 L 39.929688 52.6875 L 39.929688 59.882812 L 26.375 59.882812 Z M 12.824219 59.882812 L 33.152344 59.882812 L 33.152344 67.078125 L 12.824219 67.078125 Z M 12.824219 59.882812 "/>
<path style=" stroke:none;fill-rule:evenodd;fill:rgb(69.803923%,0%,0%);fill-opacity:1;" d="M 19.605469 67.078125 L 26.378906 67.078125 L 26.378906 74.273438 L 19.605469 74.273438 Z M 67.039062 45.578125 L 80.589844 45.578125 L 80.589844 52.691406 L 67.039062 52.691406 Z M 73.8125 52.691406 L 87.367188 52.691406 L 87.367188 59.886719 L 73.8125 59.886719 Z M 100.917969 45.578125 L 114.472656 45.578125 L 114.472656 52.691406 L 100.917969 52.691406 Z M 94.140625 52.691406 L 107.695312 52.691406 L 107.695312 59.886719 L 94.140625 59.886719 Z M 80.589844 59.886719 L 100.917969 59.886719 L 100.917969 67.078125 L 80.589844 67.078125 Z M 87.367188 67.078125 L 94.140625 67.078125 L 94.140625 74.273438 L 87.367188 74.273438 Z M 53.484375 59.800781 L 60.261719 59.800781 L 60.261719 66.996094 L 53.484375 66.996094 Z M -14.277344 59.800781 L -7.5 59.800781 L -7.5 66.996094 L -14.277344 66.996094 Z M 121.246094 59.800781 L 128.023438 59.800781 L 128.023438 66.996094 L 121.246094 66.996094 Z M 19.605469 95.691406 L 26.378906 95.691406 L 26.378906 102.886719 L 19.605469 102.886719 Z M 12.828125 102.96875 L 33.15625 102.96875 L 33.15625 110.082031 L 12.828125 110.082031 Z M 6.050781 110.082031 L 39.933594 110.082031 L 39.933594 117.277344 L 6.050781 117.277344 Z M 87.367188 95.773438 L 94.140625 95.773438 L 94.140625 102.96875 L 87.367188 102.96875 Z M 80.589844 102.96875 L 100.917969 102.96875 L 100.917969 110.082031 L 80.589844 110.082031 Z M 73.8125 110.082031 L 107.695312 110.082031 L 107.695312 117.277344 L 73.8125 117.277344 Z M 80.589844 145.972656 L 114.472656 145.972656 L 114.472656 153.167969 L 80.589844 153.167969 Z M 67.039062 117.277344 L 114.472656 117.277344 L 114.472656 124.472656 L 67.039062 124.472656 Z M -0.722656 117.277344 L 46.707031 117.277344 L 46.707031 124.472656 L -0.722656 124.472656 Z M 6.050781 153.167969 L 26.378906 153.167969 L 26.378906 160.363281 L 6.050781 160.363281 Z M -0.722656 145.972656 L 33.15625 145.972656 L 33.15625 153.167969 L -0.722656 153.167969 Z M 94.140625 131.75 L 128.023438 131.75 L 128.023438 138.941406 L 94.140625 138.941406 Z M 87.367188 153.25 L 107.695312 153.25 L 107.695312 160.445312 L 87.367188 160.445312 Z M 87.367188 153.25 "/>
<path style=" stroke:none;fill-rule:evenodd;fill:rgb(69.803923%,0%,0%);fill-opacity:1;" d="M 12.828125 160.359375 L 19.605469 160.359375 L 19.605469 167.554688 L 12.828125 167.554688 Z M 94.140625 160.359375 L 100.917969 160.359375 L 100.917969 167.554688 L 94.140625 167.554688 Z M -14.277344 131.664062 L 19.605469 131.664062 L 19.605469 138.859375 L -14.277344 138.859375 Z M 46.707031 145.972656 L 67.039062 145.972656 L 67.039062 153.164062 L 46.707031 153.164062 Z M 53.484375 153.25 L 60.261719 153.25 L 60.261719 160.441406 L 53.484375 160.441406 Z M 33.15625 131.746094 L 80.589844 131.746094 L 80.589844 138.941406 L 33.15625 138.941406 Z M 60.261719 23.992188 L 73.8125 23.992188 L 73.8125 31.1875 L 60.261719 31.1875 Z M 46.707031 31.1875 L 67.039062 31.1875 L 67.039062 38.382812 L 46.707031 38.382812 Z M 39.933594 38.382812 L 53.484375 38.382812 L 53.484375 45.492188 L 39.933594 45.492188 Z M 60.261719 38.382812 L 73.8125 38.382812 L 73.8125 45.492188 L 60.261719 45.492188 Z M -14.277344 31.1875 L -0.722656 31.1875 L -0.722656 38.382812 L -14.277344 38.382812 Z M -7.5 38.382812 L 6.050781 38.382812 L 6.050781 45.492188 L -7.5 45.492188 Z M 114.472656 31.1875 L 128.023438 31.1875 L 128.023438 38.300781 L 114.472656 38.300781 Z M 107.695312 38.300781 L 121.246094 38.300781 L 121.246094 45.410156 L 107.695312 45.410156 Z M -14.277344 102.804688 L -7.5 102.804688 L -7.5 109.996094 L -14.277344 109.996094 Z M 121.246094 102.804688 L 128.023438 102.804688 L 128.023438 109.996094 L 121.246094 109.996094 Z M 46.707031 160.277344 L 67.039062 160.277344 L 67.039062 167.472656 L 46.707031 167.472656 Z M 39.933594 167.472656 L 53.484375 167.472656 L 53.484375 174.582031 L 39.933594 174.582031 Z M 60.261719 167.472656 L 73.8125 167.472656 L 73.8125 174.582031 L 60.261719 174.582031 Z M 33.15625 174.582031 L 46.707031 174.582031 L 46.707031 181.777344 L 33.15625 181.777344 Z M 67.039062 174.582031 L 80.589844 174.582031 L 80.589844 181.777344 L 67.039062 181.777344 Z M 26.378906 181.777344 L 39.933594 181.777344 L 39.933594 188.972656 L 26.378906 188.972656 Z M 73.8125 181.777344 L 87.367188 181.777344 L 87.367188 188.972656 L 73.8125 188.972656 Z M 19.605469 189.054688 L 33.15625 189.054688 L 33.15625 196.25 L 19.605469 196.25 Z M 80.589844 189.054688 L 94.140625 189.054688 L 94.140625 196.25 L 80.589844 196.25 Z M 6.050781 196.25 L 26.378906 196.25 L 26.378906 203.445312 L 6.050781 203.445312 Z M 87.367188 196.25 L 107.695312 196.25 L 107.695312 203.445312 L 87.367188 203.445312 Z M 100.917969 189.054688 L 114.472656 189.054688 L 114.472656 196.25 L 100.917969 196.25 Z M 107.695312 181.859375 L 121.246094 181.859375 L 121.246094 189.054688 L 107.695312 189.054688 Z M 114.472656 174.667969 L 128.023438 174.667969 L 128.023438 181.859375 L 114.472656 181.859375 Z M -0.722656 189.054688 L 12.828125 189.054688 L 12.828125 196.25 L -0.722656 196.25 Z M -7.5 181.859375 L 6.050781 181.859375 L 6.050781 189.054688 L -7.5 189.054688 Z M -14.277344 174.75 L -0.722656 174.75 L -0.722656 181.945312 L -14.277344 181.945312 Z M 12.828125 203.527344 L 19.605469 203.527344 L 19.605469 210.640625 L 12.828125 210.640625 Z M 94.140625 203.527344 L 100.917969 203.527344 L 100.917969 210.640625 L 94.140625 210.640625 Z M 53.484375 182.027344 L 60.261719 182.027344 L 60.261719 189.136719 L 53.484375 189.136719 Z M 33.15625 203.527344 L 39.933594 203.527344 L 39.933594 210.640625 L 33.15625 210.640625 Z M 73.8125 203.527344 L 80.589844 203.527344 L 80.589844 210.640625 L 73.8125 210.640625 Z M 53.484375 203.527344 L 60.261719 203.527344 L 60.261719 210.640625 L 53.484375 210.640625 Z M -14.277344 203.527344 L -7.5 203.527344 L -7.5 210.640625 L -14.277344 210.640625 Z M 121.246094 203.527344 L 128.023438 203.527344 L 128.023438 210.640625 L 121.246094 210.640625 Z M 53.484375 102.96875 L 60.261719 102.96875 L 60.261719 110.082031 L 53.484375 110.082031 Z M 19.605469 31.1875 L 26.378906 31.1875 L 26.378906 38.382812 L 19.605469 38.382812 Z M 87.367188 31.1875 L 94.140625 31.1875 L 94.140625 38.382812 L 87.367188 38.382812 Z M 46.707031 81.382812 L 67.039062 81.382812 L 67.039062 88.578125 L 46.707031 88.578125 Z M 33.15625 88.578125 L 53.484375 88.578125 L 53.484375 95.773438 L 33.15625 95.773438 Z M 39.933594 95.773438 L 46.707031 95.773438 L 46.707031 102.96875 L 39.933594 102.96875 Z M 26.378906 81.382812 L 39.933594 81.382812 L 39.933594 88.578125 L 26.378906 88.578125 Z M 33.15625 74.273438 L 53.484375 74.273438 L 53.484375 81.382812 L 33.15625 81.382812 Z M 39.933594 67.078125 L 46.707031 67.078125 L 46.707031 74.273438 L 39.933594 74.273438 Z M 60.261719 74.273438 L 80.589844 74.273438 L 80.589844 81.382812 L 60.261719 81.382812 Z M 67.039062 67.078125 L 73.8125 67.078125 L 73.8125 74.273438 L 67.039062 74.273438 Z M 73.8125 81.382812 L 87.367188 81.382812 L 87.367188 88.578125 L 73.8125 88.578125 Z M 60.261719 88.578125 L 80.589844 88.578125 L 80.589844 95.773438 L 60.261719 95.773438 Z M 67.039062 95.773438 L 73.8125 95.773438 L 73.8125 102.96875 L 67.039062 102.96875 Z M 94.140625 81.382812 L 107.695312 81.382812 L 107.695312 88.578125 L 94.140625 88.578125 Z M 100.917969 74.273438 L 121.246094 74.273438 L 121.246094 81.382812 L 100.917969 81.382812 Z M 114.472656 81.382812 L 128.023438 81.382812 L 128.023438 88.578125 L 114.472656 88.578125 Z M 100.917969 88.578125 L 121.246094 88.578125 L 121.246094 95.773438 L 100.917969 95.773438 Z M 107.695312 95.773438 L 114.472656 95.773438 L 114.472656 102.96875 L 107.695312 102.96875 Z M 107.695312 67.078125 L 114.472656 67.078125 L 114.472656 74.273438 L 107.695312 74.273438 Z M -14.277344 81.300781 L -0.722656 81.300781 L -0.722656 88.496094 L -14.277344 88.496094 Z M -7.5 74.191406 L 12.828125 74.191406 L 12.828125 81.300781 L -7.5 81.300781 Z M 6.050781 81.300781 L 19.605469 81.300781 L 19.605469 88.496094 L 6.050781 88.496094 Z M -7.5 88.496094 L 12.828125 88.496094 L 12.828125 95.691406 L -7.5 95.691406 Z M -7.5 88.496094 "/>
<path style=" stroke:none;fill-rule:evenodd;fill:rgb(69.803923%,0%,0%);fill-opacity:1;" d="M -0.722656 95.773438 L 6.050781 95.773438 L 6.050781 102.96875 L -0.722656 102.96875 Z M -0.722656 67.078125 L 6.050781 67.078125 L 6.050781 74.273438 L -0.722656 74.273438 Z M -7.5 124.46875 L 19.605469 124.46875 L 19.605469 131.664062 L -7.5 131.664062 Z M 26.378906 124.46875 L 53.484375 124.46875 L 53.484375 131.664062 L 26.378906 131.664062 Z M 60.261719 124.46875 L 87.367188 124.46875 L 87.367188 131.664062 L 60.261719 131.664062 Z M 94.140625 124.46875 L 121.246094 124.46875 L 121.246094 131.664062 L 94.140625 131.664062 Z M 39.933594 138.859375 L 73.8125 138.859375 L 73.8125 145.972656 L 39.933594 145.972656 Z M -7.5 138.859375 L 26.378906 138.859375 L 26.378906 145.972656 L -7.5 145.972656 Z M 87.367188 138.859375 L 121.246094 138.859375 L 121.246094 145.972656 L 87.367188 145.972656 Z M 121.246094 167.554688 L 128.023438 167.554688 L 128.023438 174.667969 L 121.246094 174.667969 Z M -14.277344 167.554688 L -7.5 167.554688 L -7.5 174.667969 L -14.277344 174.667969 Z M -7.5 411.511719 L -0.722656 411.511719 L -0.722656 404.398438 L -7.5 404.398438 Z M 12.828125 411.511719 L 33.15625 411.511719 L 33.15625 404.398438 L 12.828125 404.398438 Z M 19.605469 418.707031 L 26.378906 418.707031 L 26.378906 411.511719 L 19.605469 411.511719 Z M 53.484375 418.707031 L 60.261719 418.707031 L 60.261719 411.511719 L 53.484375 411.511719 Z M 80.589844 411.511719 L 100.917969 411.511719 L 100.917969 404.316406 L 80.589844 404.316406 Z M 87.367188 418.707031 L 94.140625 418.707031 L 94.140625 411.511719 L 87.367188 411.511719 Z M 6.050781 404.316406 L 19.605469 404.316406 L 19.605469 397.203125 L 6.050781 397.203125 Z M 26.378906 404.316406 L 39.933594 404.316406 L 39.933594 397.203125 L 26.378906 397.203125 Z M 73.8125 404.316406 L 87.367188 404.316406 L 87.367188 397.203125 L 73.8125 397.203125 Z M 94.140625 404.316406 L 107.695312 404.316406 L 107.695312 397.203125 L 94.140625 397.203125 Z M 33.15625 397.203125 L 46.707031 397.203125 L 46.707031 390.011719 L 33.15625 390.011719 Z M 67.039062 397.203125 L 80.589844 397.203125 L 80.589844 390.011719 L 67.039062 390.011719 Z M 100.917969 397.203125 L 114.472656 397.203125 L 114.472656 390.011719 L 100.917969 390.011719 Z M 114.472656 411.511719 L 121.246094 411.511719 L 121.246094 404.316406 L 114.472656 404.316406 Z M -7.5 390.011719 L 6.050781 390.011719 L 6.050781 382.816406 L -7.5 382.816406 Z M 39.933594 390.011719 L 53.484375 390.011719 L 53.484375 382.816406 L 39.933594 382.816406 Z M 107.695312 390.011719 L 121.246094 390.011719 L 121.246094 382.816406 L 107.695312 382.816406 Z M -0.722656 368.507812 L 12.828125 368.507812 L 12.828125 361.316406 L -0.722656 361.316406 Z M 6.050781 361.316406 L 19.605469 361.316406 L 19.605469 354.121094 L 6.050781 354.121094 Z M 33.15625 368.507812 L 46.707031 368.507812 L 46.707031 361.316406 L 33.15625 361.316406 Z M 26.378906 361.316406 L 39.933594 361.316406 L 39.933594 354.121094 L 26.378906 354.121094 Z M 12.828125 354.121094 L 33.15625 354.121094 L 33.15625 346.925781 L 12.828125 346.925781 Z M 19.605469 346.925781 L 26.378906 346.925781 L 26.378906 339.8125 L 19.605469 339.8125 Z M 67.039062 368.425781 L 80.589844 368.425781 L 80.589844 361.316406 L 67.039062 361.316406 Z M 73.8125 361.316406 L 87.367188 361.316406 L 87.367188 354.121094 L 73.8125 354.121094 Z M 100.917969 368.507812 L 114.472656 368.507812 L 114.472656 361.316406 L 100.917969 361.316406 Z M 94.140625 361.316406 L 107.695312 361.316406 L 107.695312 354.121094 L 94.140625 354.121094 Z M 80.589844 354.121094 L 100.917969 354.121094 L 100.917969 346.925781 L 80.589844 346.925781 Z M 87.367188 346.925781 L 94.140625 346.925781 L 94.140625 339.8125 L 87.367188 339.8125 Z M 53.484375 354.203125 L 60.261719 354.203125 L 60.261719 347.007812 L 53.484375 347.007812 Z M -14.277344 354.203125 L -7.5 354.203125 L -7.5 347.007812 L -14.277344 347.007812 Z M 121.246094 354.203125 L 128.023438 354.203125 L 128.023438 347.007812 L 121.246094 347.007812 Z M 19.605469 318.3125 L 26.378906 318.3125 L 26.378906 311.117188 L 19.605469 311.117188 Z M 12.828125 311.035156 L 33.15625 311.035156 L 33.15625 303.921875 L 12.828125 303.921875 Z M 6.050781 303.921875 L 39.933594 303.921875 L 39.933594 296.730469 L 6.050781 296.730469 Z M 87.367188 318.230469 L 94.140625 318.230469 L 94.140625 311.035156 L 87.367188 311.035156 Z M 87.367188 318.230469 "/>
<path style=" stroke:none;fill-rule:evenodd;fill:rgb(69.803923%,0%,0%);fill-opacity:1;" d="M 80.589844 311.03125 L 100.917969 311.03125 L 100.917969 303.921875 L 80.589844 303.921875 Z M 73.8125 303.921875 L 107.695312 303.921875 L 107.695312 296.726562 L 73.8125 296.726562 Z M 80.589844 268.03125 L 114.472656 268.03125 L 114.472656 260.753906 L 80.589844 260.753906 Z M 67.039062 296.726562 L 114.472656 296.726562 L 114.472656 289.53125 L 67.039062 289.53125 Z M -0.722656 296.726562 L 46.707031 296.726562 L 46.707031 289.53125 L -0.722656 289.53125 Z M 6.050781 260.835938 L 26.378906 260.835938 L 26.378906 253.640625 L 6.050781 253.640625 Z M -0.722656 268.03125 L 33.15625 268.03125 L 33.15625 260.753906 L -0.722656 260.753906 Z M 94.140625 282.253906 L 128.023438 282.253906 L 128.023438 275.058594 L 94.140625 275.058594 Z M 87.367188 260.753906 L 107.695312 260.753906 L 107.695312 253.558594 L 87.367188 253.558594 Z M -14.277344 282.253906 L 19.605469 282.253906 L 19.605469 275.058594 L -14.277344 275.058594 Z M 46.707031 267.949219 L 67.039062 267.949219 L 67.039062 260.753906 L 46.707031 260.753906 Z M 53.484375 260.753906 L 60.261719 260.753906 L 60.261719 253.558594 L 53.484375 253.558594 Z M 33.15625 282.253906 L 80.589844 282.253906 L 80.589844 275.058594 L 33.15625 275.058594 Z M 60.261719 389.925781 L 73.8125 389.925781 L 73.8125 382.730469 L 60.261719 382.730469 Z M 46.707031 382.730469 L 67.039062 382.730469 L 67.039062 375.703125 L 46.707031 375.703125 Z M 39.933594 375.535156 L 53.484375 375.535156 L 53.484375 368.339844 L 39.933594 368.339844 Z M 60.261719 375.535156 L 73.8125 375.535156 L 73.8125 368.339844 L 60.261719 368.339844 Z M -14.277344 382.8125 L -0.722656 382.8125 L -0.722656 375.703125 L -14.277344 375.703125 Z M -7.5 375.621094 L 6.050781 375.621094 L 6.050781 368.507812 L -7.5 368.507812 Z M 114.472656 382.8125 L 128.023438 382.8125 L 128.023438 375.703125 L 114.472656 375.703125 Z M 107.695312 375.621094 L 121.246094 375.621094 L 121.246094 368.507812 L 107.695312 368.507812 Z M -14.277344 311.199219 L -7.5 311.199219 L -7.5 304.003906 L -14.277344 304.003906 Z M 121.246094 311.199219 L 128.023438 311.199219 L 128.023438 304.003906 L 121.246094 304.003906 Z M 39.933594 246.527344 L 53.484375 246.527344 L 53.484375 239.417969 L 39.933594 239.417969 Z M 60.261719 246.527344 L 73.8125 246.527344 L 73.8125 239.417969 L 60.261719 239.417969 Z M 33.15625 239.417969 L 46.707031 239.417969 L 46.707031 232.222656 L 33.15625 232.222656 Z M 67.039062 239.417969 L 80.589844 239.417969 L 80.589844 232.222656 L 67.039062 232.222656 Z M 26.378906 232.222656 L 39.933594 232.222656 L 39.933594 225.027344 L 26.378906 225.027344 Z M 73.8125 232.222656 L 87.367188 232.222656 L 87.367188 225.027344 L 73.8125 225.027344 Z M 19.605469 224.945312 L 33.15625 224.945312 L 33.15625 217.75 L 19.605469 217.75 Z M 80.589844 224.945312 L 94.140625 224.945312 L 94.140625 217.75 L 80.589844 217.75 Z M 6.050781 217.75 L 26.378906 217.75 L 26.378906 210.554688 L 6.050781 210.554688 Z M 87.367188 217.75 L 107.695312 217.75 L 107.695312 210.554688 L 87.367188 210.554688 Z M 100.917969 224.945312 L 114.472656 224.945312 L 114.472656 217.75 L 100.917969 217.75 Z M 107.695312 232.140625 L 121.246094 232.140625 L 121.246094 224.945312 L 107.695312 224.945312 Z M 114.472656 239.335938 L 128.023438 239.335938 L 128.023438 232.140625 L 114.472656 232.140625 Z M -0.722656 224.945312 L 12.828125 224.945312 L 12.828125 217.75 L -0.722656 217.75 Z M -7.5 232.140625 L 6.050781 232.140625 L 6.050781 224.945312 L -7.5 224.945312 Z M -14.277344 239.25 L -0.722656 239.25 L -0.722656 232.058594 L -14.277344 232.058594 Z M 12.828125 210.472656 L 19.605469 210.472656 L 19.605469 203.363281 L 12.828125 203.363281 Z M 53.484375 231.972656 L 60.261719 231.972656 L 60.261719 224.863281 L 53.484375 224.863281 Z M 53.484375 310.949219 L 60.261719 310.949219 L 60.261719 303.835938 L 53.484375 303.835938 Z M 19.605469 382.730469 L 26.378906 382.730469 L 26.378906 375.703125 L 19.605469 375.703125 Z M 87.367188 382.730469 L 94.140625 382.730469 L 94.140625 375.703125 L 87.367188 375.703125 Z M 46.707031 332.699219 L 67.039062 332.699219 L 67.039062 325.503906 L 46.707031 325.503906 Z M 33.15625 325.503906 L 53.484375 325.503906 L 53.484375 318.308594 L 33.15625 318.308594 Z M 39.933594 318.308594 L 46.707031 318.308594 L 46.707031 311.117188 L 39.933594 311.117188 Z M 26.378906 332.699219 L 39.933594 332.699219 L 39.933594 325.503906 L 26.378906 325.503906 Z M 33.15625 339.726562 L 53.484375 339.726562 L 53.484375 332.699219 L 33.15625 332.699219 Z M 39.933594 346.925781 L 46.707031 346.925781 L 46.707031 339.8125 L 39.933594 339.8125 Z M 60.261719 339.726562 L 80.589844 339.726562 L 80.589844 332.699219 L 60.261719 332.699219 Z M 67.039062 346.925781 L 73.8125 346.925781 L 73.8125 339.8125 L 67.039062 339.8125 Z M 73.8125 332.617188 L 87.367188 332.617188 L 87.367188 325.421875 L 73.8125 325.421875 Z M 60.261719 325.421875 L 80.589844 325.421875 L 80.589844 318.230469 L 60.261719 318.230469 Z M 67.039062 318.230469 L 73.8125 318.230469 L 73.8125 311.03125 L 67.039062 311.03125 Z M 94.140625 332.699219 L 107.695312 332.699219 L 107.695312 325.503906 L 94.140625 325.503906 Z M 100.917969 339.726562 L 121.246094 339.726562 L 121.246094 332.699219 L 100.917969 332.699219 Z M 114.472656 332.617188 L 128.023438 332.617188 L 128.023438 325.421875 L 114.472656 325.421875 Z M 100.917969 325.421875 L 121.246094 325.421875 L 121.246094 318.230469 L 100.917969 318.230469 Z M 107.695312 318.230469 L 114.472656 318.230469 L 114.472656 311.03125 L 107.695312 311.03125 Z M 107.695312 346.925781 L 114.472656 346.925781 L 114.472656 339.8125 L 107.695312 339.8125 Z M -14.277344 332.699219 L -0.722656 332.699219 L -0.722656 325.503906 L -14.277344 325.503906 Z M -7.5 339.726562 L 12.828125 339.726562 L 12.828125 332.699219 L -7.5 332.699219 Z M -7.5 339.726562 "/>
<path style=" stroke:none;fill-rule:evenodd;fill:rgb(69.803923%,0%,0%);fill-opacity:1;" d="M 6.050781 332.617188 L 19.605469 332.617188 L 19.605469 325.425781 L 6.050781 325.425781 Z M -7.5 325.425781 L 12.828125 325.425781 L 12.828125 318.230469 L -7.5 318.230469 Z M -0.722656 318.230469 L 6.050781 318.230469 L 6.050781 311.035156 L -0.722656 311.035156 Z M -0.722656 346.925781 L 6.050781 346.925781 L 6.050781 339.8125 L -0.722656 339.8125 Z M -7.5 289.535156 L 19.605469 289.535156 L 19.605469 282.339844 L -7.5 282.339844 Z M 26.378906 289.535156 L 53.484375 289.535156 L 53.484375 282.339844 L 26.378906 282.339844 Z M 60.261719 289.535156 L 87.367188 289.535156 L 87.367188 282.339844 L 60.261719 282.339844 Z M 94.140625 289.535156 L 121.246094 289.535156 L 121.246094 282.339844 L 94.140625 282.339844 Z M 39.933594 275.144531 L 73.8125 275.144531 L 73.8125 268.03125 L 39.933594 268.03125 Z M -7.5 275.144531 L 26.378906 275.144531 L 26.378906 268.03125 L -7.5 268.03125 Z M 87.367188 275.144531 L 121.246094 275.144531 L 121.246094 268.03125 L 87.367188 268.03125 Z M 121.246094 246.53125 L 128.023438 246.53125 L 128.023438 239.253906 L 121.246094 239.253906 Z M -14.277344 246.53125 L -7.5 246.53125 L -7.5 239.253906 L -14.277344 239.253906 Z M 46.707031 210.558594 L 53.484375 210.558594 L 53.484375 217.753906 L 46.707031 217.753906 Z M 60.261719 210.558594 L 67.039062 210.558594 L 67.039062 217.753906 L 60.261719 217.753906 Z M 60.261719 196.25 L 67.039062 196.25 L 67.039062 203.445312 L 60.261719 203.445312 Z M 46.707031 196.25 L 53.484375 196.25 L 53.484375 203.445312 L 46.707031 203.445312 Z M -0.722656 390.011719 L 12.828125 390.011719 L 12.828125 397.203125 L -0.722656 397.203125 Z M 94.140625 253.644531 L 100.917969 253.644531 L 100.917969 246.449219 L 94.140625 246.449219 Z M 12.828125 253.644531 L 19.605469 253.644531 L 19.605469 246.449219 L 12.828125 246.449219 Z M 46.707031 246.449219 L 67.039062 246.449219 L 67.039062 253.644531 L 46.707031 253.644531 Z M 46.707031 246.449219 "/>
</g>
</svg>
