<?xml version="1.0" encoding="UTF-8"?>
<svg xmlns="http://www.w3.org/2000/svg" xmlns:xlink="http://www.w3.org/1999/xlink" width="60" height="60" viewBox="0 0 60 60">
<path fill-rule="nonzero" fill="rgb(42.745098%, 64.705882%, 26.666667%)" fill-opacity="1" d="M 30 60 C 46.550781 60 59.96875 46.601562 60 30.058594 L 60 30 L 30 26.25 L 0 30 C 0 46.566406 13.433594 60 30 60 Z M 30 60 "/>
<path fill-rule="nonzero" fill="rgb(100%, 85.490196%, 26.666667%)" fill-opacity="1" d="M 60 29.941406 L 60 30 L 0 30 C 0 13.433594 13.433594 0 30 0 C 46.550781 0 59.96875 13.398438 60 29.941406 Z M 60 29.941406 "/>
<path fill-rule="evenodd" fill="rgb(84.705882%, 0%, 15.294118%)" fill-opacity="1" d="M 22.175781 58.96875 C 9.402344 55.527344 0 43.859375 0 30 C 0 16.140625 9.402344 4.472656 22.175781 1.03125 Z M 22.175781 58.96875 "/>
<path fill-rule="nonzero" fill="rgb(20%, 20%, 20%)" fill-opacity="1" d="M 11.085938 21.335938 L 13.03125 27.324219 L 19.324219 27.324219 L 14.234375 31.023438 L 16.179688 37.007812 L 11.085938 33.308594 L 5.996094 37.007812 L 7.941406 31.023438 L 2.847656 27.324219 L 9.140625 27.324219 Z M 11.085938 21.335938 "/>
</svg>
