<?xml version="1.0" encoding="UTF-8"?>
<svg xmlns="http://www.w3.org/2000/svg" xmlns:xlink="http://www.w3.org/1999/xlink" width="40" height="40" viewBox="0 0 40 40">
<path fill-rule="nonzero" fill="rgb(42.745098%, 64.705882%, 26.666667%)" fill-opacity="1" d="M 20 40 C 31.03125 40 39.980469 31.066406 40 20.039062 L 40 20 L 20 17.5 L 0 20 C 0 31.046875 8.953125 40 20 40 Z M 20 40 "/>
<path fill-rule="nonzero" fill="rgb(100%, 85.490196%, 26.666667%)" fill-opacity="1" d="M 40 19.960938 L 40 20 L 0 20 C 0 8.953125 8.953125 0 20 0 C 31.03125 0 39.980469 8.933594 40 19.960938 Z M 40 19.960938 "/>
<path fill-rule="evenodd" fill="rgb(84.705882%, 0%, 15.294118%)" fill-opacity="1" d="M 14.78125 39.3125 C 6.265625 37.015625 0 29.242188 0 20 C 0 10.757812 6.265625 2.980469 14.78125 0.6875 Z M 14.78125 39.3125 "/>
<path fill-rule="nonzero" fill="rgb(20%, 20%, 20%)" fill-opacity="1" d="M 7.390625 14.226562 L 8.6875 18.214844 L 12.882812 18.214844 L 9.488281 20.679688 L 10.785156 24.671875 L 7.390625 22.207031 L 3.996094 24.671875 L 5.292969 20.679688 L 1.898438 18.214844 L 6.09375 18.214844 Z M 7.390625 14.226562 "/>
</svg>
