<?xml version="1.0" encoding="UTF-8"?>
<svg xmlns="http://www.w3.org/2000/svg" xmlns:xlink="http://www.w3.org/1999/xlink" width="60" height="60" viewBox="0 0 60 60">
<path fill-rule="nonzero" fill="rgb(84.705882%, 0%, 15.294118%)" fill-opacity="1" d="M 15 55.984375 C 19.414062 58.539062 24.535156 60 30 60 C 35.464844 60 40.585938 58.539062 45 55.984375 L 45 4.015625 C 40.585938 1.460938 35.464844 0 30 0 C 24.535156 0 19.414062 1.460938 15 4.015625 Z M 15 55.984375 "/>
<path fill-rule="nonzero" fill="rgb(20%, 20%, 20%)" fill-opacity="1" d="M 0 29.988281 C 0.00390625 18.132812 6.886719 7.882812 16.875 3.015625 L 16.875 56.984375 C 6.886719 52.117188 0.00390625 41.867188 0 30.007812 C 0 30.007812 0 30.003906 0 30 C 0 29.996094 0 29.992188 0 29.988281 Z M 0 29.988281 "/>
<path fill-rule="nonzero" fill="rgb(28.627451%, 43.137255%, 17.647059%)" fill-opacity="1" d="M 60 30 C 60 18.136719 53.117188 7.882812 43.125 3.015625 L 43.125 56.984375 C 53.117188 52.117188 60 41.863281 60 30 Z M 60 30 "/>
<path fill-rule="nonzero" fill="rgb(100%, 85.490196%, 26.666667%)" fill-opacity="1" d="M 30 19.566406 C 24.238281 19.566406 19.566406 24.238281 19.566406 30 C 19.566406 35.761719 24.238281 40.433594 30 40.433594 C 35.761719 40.433594 40.433594 35.761719 40.433594 30 C 40.433594 24.238281 35.761719 19.566406 30 19.566406 Z M 30 36.523438 C 26.398438 36.523438 23.476562 33.601562 23.476562 30 C 23.476562 26.398438 26.398438 23.480469 30 23.480469 C 33.601562 23.480469 36.523438 26.398438 36.523438 30 C 36.523438 33.601562 33.601562 36.523438 30 36.523438 Z M 30 36.523438 "/>
<path fill-rule="nonzero" fill="rgb(100%, 85.490196%, 26.666667%)" fill-opacity="1" d="M 30 26.085938 C 28.558594 26.085938 27.390625 27.253906 27.390625 28.695312 L 27.390625 32.609375 L 32.609375 32.609375 L 32.609375 28.695312 C 32.609375 27.253906 31.441406 26.085938 30 26.085938 Z M 30 26.085938 "/>
</svg>
