<?xml version="1.0" encoding="UTF-8"?>
<svg xmlns="http://www.w3.org/2000/svg" xmlns:xlink="http://www.w3.org/1999/xlink" width="20" height="20" viewBox="0 0 20 20">
<path fill-rule="nonzero" fill="rgb(84.705882%, 0%, 15.294118%)" fill-opacity="1" d="M 5 18.664062 C 6.472656 19.511719 8.179688 20 10 20 C 11.820312 20 13.527344 19.511719 15 18.664062 L 15 1.335938 C 13.527344 0.488281 11.820312 0 10 0 C 8.179688 0 6.472656 0.488281 5 1.335938 Z M 5 18.664062 "/>
<path fill-rule="nonzero" fill="rgb(20%, 20%, 20%)" fill-opacity="1" d="M 0 9.996094 C 0 6.042969 2.296875 2.628906 5.625 1.003906 L 5.625 18.996094 C 2.296875 17.371094 0 13.957031 0 10.003906 C 0 10 0 10 0 10 C 0 10 0 9.996094 0 9.996094 Z M 0 9.996094 "/>
<path fill-rule="nonzero" fill="rgb(28.627451%, 43.137255%, 17.647059%)" fill-opacity="1" d="M 20 10 C 20 6.046875 17.707031 2.628906 14.375 1.003906 L 14.375 18.996094 C 17.707031 17.371094 20 13.953125 20 10 Z M 20 10 "/>
<path fill-rule="nonzero" fill="rgb(100%, 85.490196%, 26.666667%)" fill-opacity="1" d="M 10 6.523438 C 8.078125 6.523438 6.523438 8.078125 6.523438 10 C 6.523438 11.921875 8.078125 13.476562 10 13.476562 C 11.921875 13.476562 13.476562 11.921875 13.476562 10 C 13.476562 8.078125 11.921875 6.523438 10 6.523438 Z M 10 12.175781 C 8.800781 12.175781 7.824219 11.199219 7.824219 10 C 7.824219 8.800781 8.800781 7.828125 10 7.828125 C 11.199219 7.828125 12.175781 8.800781 12.175781 10 C 12.175781 11.199219 11.199219 12.175781 10 12.175781 Z M 10 12.175781 "/>
<path fill-rule="nonzero" fill="rgb(100%, 85.490196%, 26.666667%)" fill-opacity="1" d="M 10 8.695312 C 9.519531 8.695312 9.128906 9.085938 9.128906 9.566406 L 9.128906 10.871094 L 10.871094 10.871094 L 10.871094 9.566406 C 10.871094 9.085938 10.480469 8.695312 10 8.695312 Z M 10 8.695312 "/>
</svg>
