<?xml version="1.0" encoding="UTF-8"?>
<svg xmlns="http://www.w3.org/2000/svg" xmlns:xlink="http://www.w3.org/1999/xlink" width="40" height="40" viewBox="0 0 40 40">
<path fill-rule="nonzero" fill="rgb(84.705882%, 0%, 15.294118%)" fill-opacity="1" d="M 10 37.324219 C 12.941406 39.027344 16.355469 40 20 40 C 23.644531 40 27.058594 39.027344 30 37.324219 L 30 2.675781 C 27.058594 0.972656 23.644531 0 20 0 C 16.355469 0 12.941406 0.972656 10 2.675781 Z M 10 37.324219 "/>
<path fill-rule="nonzero" fill="rgb(20%, 20%, 20%)" fill-opacity="1" d="M 0 19.992188 C 0.00390625 12.089844 4.589844 5.253906 11.25 2.011719 L 11.25 37.988281 C 4.589844 34.746094 0.00390625 27.910156 0 20.007812 C 0 20.003906 0 20 0 20 C 0 19.996094 0 19.996094 0 19.992188 Z M 0 19.992188 "/>
<path fill-rule="nonzero" fill="rgb(28.627451%, 43.137255%, 17.647059%)" fill-opacity="1" d="M 40 20 C 40 12.09375 35.410156 5.257812 28.75 2.011719 L 28.75 37.988281 C 35.410156 34.742188 40 27.910156 40 20 Z M 40 20 "/>
<path fill-rule="nonzero" fill="rgb(100%, 85.490196%, 26.666667%)" fill-opacity="1" d="M 20 13.042969 C 16.15625 13.042969 13.042969 16.160156 13.042969 20 C 13.042969 23.84375 16.15625 26.957031 20 26.957031 C 23.84375 26.957031 26.957031 23.84375 26.957031 20 C 26.957031 16.160156 23.84375 13.042969 20 13.042969 Z M 20 24.347656 C 17.597656 24.347656 15.652344 22.402344 15.652344 20 C 15.652344 17.597656 17.597656 15.652344 20 15.652344 C 22.402344 15.652344 24.347656 17.597656 24.347656 20 C 24.347656 22.402344 22.402344 24.347656 20 24.347656 Z M 20 24.347656 "/>
<path fill-rule="nonzero" fill="rgb(100%, 85.490196%, 26.666667%)" fill-opacity="1" d="M 20 17.390625 C 19.039062 17.390625 18.261719 18.171875 18.261719 19.128906 L 18.261719 21.738281 L 21.738281 21.738281 L 21.738281 19.128906 C 21.738281 18.171875 20.960938 17.390625 20 17.390625 Z M 20 17.390625 "/>
</svg>
