<?xml version="1.0" encoding="UTF-8"?>
<svg xmlns="http://www.w3.org/2000/svg" xmlns:xlink="http://www.w3.org/1999/xlink" width="20" height="20" viewBox="0 0 20 20">
<path fill-rule="nonzero" fill="rgb(0%, 32.156863%, 70.588235%)" fill-opacity="1" d="M 20 10 C 20 15.523438 15.523438 20 10 20 C 4.476562 20 0 15.523438 0 10 C 0 4.476562 4.476562 0 10 0 C 15.523438 0 20 4.476562 20 10 Z M 20 10 "/>
<path fill-rule="evenodd" fill="rgb(100%, 85.490196%, 26.666667%)" fill-opacity="1" d="M 19.027344 14.304688 C 18.8125 14.757812 18.5625 15.195312 18.28125 15.609375 L 5.027344 15.609375 L 4.402344 14.957031 L 5.027344 14.304688 Z M 19.394531 13.433594 L 5.652344 13.433594 L 16.085938 4.738281 C 15.996094 5.171875 15.957031 5.628906 15.957031 6.085938 C 15.957031 7.851562 17 10.914062 19.730469 12.320312 C 19.640625 12.699219 19.527344 13.074219 19.394531 13.433594 Z M 19.394531 13.433594 "/>
<path fill-rule="nonzero" fill="rgb(93.333333%, 93.333333%, 93.333333%)" fill-opacity="1" d="M 7.347656 5.21875 L 7.5625 5.882812 L 8.261719 5.882812 L 7.695312 6.292969 L 7.910156 6.957031 L 7.347656 6.546875 L 6.78125 6.957031 L 6.996094 6.292969 L 6.433594 5.882812 L 7.128906 5.882812 Z M 7.347656 5.21875 "/>
<path fill-rule="nonzero" fill="rgb(93.333333%, 93.333333%, 93.333333%)" fill-opacity="1" d="M 4.507812 10 L 4.777344 10.832031 L 5.652344 10.832031 L 4.945312 11.34375 L 5.214844 12.175781 L 4.507812 11.660156 L 3.804688 12.175781 L 4.074219 11.34375 L 3.367188 10.832031 L 4.238281 10.832031 Z M 4.507812 10 "/>
<path fill-rule="nonzero" fill="rgb(93.333333%, 93.333333%, 93.333333%)" fill-opacity="1" d="M 4.507812 3.042969 L 4.777344 3.875 L 5.652344 3.875 L 4.945312 4.386719 L 5.214844 5.21875 L 4.507812 4.703125 L 3.804688 5.21875 L 4.074219 4.386719 L 3.367188 3.875 L 4.238281 3.875 Z M 4.507812 3.042969 "/>
<path fill-rule="nonzero" fill="rgb(93.333333%, 93.333333%, 93.333333%)" fill-opacity="1" d="M 2.335938 6.957031 L 2.605469 7.785156 L 3.476562 7.785156 L 2.773438 8.300781 L 3.042969 9.128906 L 2.335938 8.617188 L 1.628906 9.128906 L 1.898438 8.300781 L 1.191406 7.785156 L 2.066406 7.785156 Z M 2.335938 6.957031 "/>
</svg>
