<?xml version="1.0" encoding="UTF-8"?>
<svg xmlns="http://www.w3.org/2000/svg" xmlns:xlink="http://www.w3.org/1999/xlink" width="60" height="60" viewBox="0 0 60 60">
<path fill-rule="nonzero" fill="rgb(0%, 32.156863%, 70.588235%)" fill-opacity="1" d="M 60 30 C 60 46.570312 46.570312 60 30 60 C 13.429688 60 0 46.570312 0 30 C 0 13.429688 13.429688 0 30 0 C 46.570312 0 60 13.429688 60 30 Z M 60 30 "/>
<path fill-rule="evenodd" fill="rgb(100%, 85.490196%, 26.666667%)" fill-opacity="1" d="M 57.085938 42.914062 C 56.433594 44.277344 55.683594 45.585938 54.839844 46.824219 L 15.082031 46.824219 L 13.207031 44.871094 L 15.082031 42.914062 Z M 58.183594 40.304688 L 16.957031 40.304688 L 48.261719 14.21875 C 47.992188 15.511719 47.871094 16.886719 47.871094 18.261719 C 47.871094 23.550781 51 32.746094 59.1875 36.957031 C 58.917969 38.101562 58.582031 39.21875 58.183594 40.304688 Z M 58.183594 40.304688 "/>
<path fill-rule="nonzero" fill="rgb(93.333333%, 93.333333%, 93.333333%)" fill-opacity="1" d="M 22.039062 15.652344 L 22.6875 17.644531 L 24.78125 17.644531 L 23.085938 18.875 L 23.734375 20.867188 L 22.039062 19.636719 L 20.34375 20.867188 L 20.992188 18.875 L 19.296875 17.644531 L 21.390625 17.644531 Z M 22.039062 15.652344 "/>
<path fill-rule="nonzero" fill="rgb(93.333333%, 93.333333%, 93.333333%)" fill-opacity="1" d="M 13.527344 30 L 14.335938 32.492188 L 16.957031 32.492188 L 14.835938 34.03125 L 15.648438 36.523438 L 13.527344 34.980469 L 11.410156 36.523438 L 12.21875 34.03125 L 10.097656 32.492188 L 12.71875 32.492188 Z M 13.527344 30 "/>
<path fill-rule="nonzero" fill="rgb(93.333333%, 93.333333%, 93.333333%)" fill-opacity="1" d="M 13.527344 9.128906 L 14.335938 11.621094 L 16.957031 11.621094 L 14.835938 13.160156 L 15.648438 15.652344 L 13.527344 14.113281 L 11.410156 15.652344 L 12.21875 13.160156 L 10.097656 11.621094 L 12.71875 11.621094 Z M 13.527344 9.128906 "/>
<path fill-rule="nonzero" fill="rgb(93.333333%, 93.333333%, 93.333333%)" fill-opacity="1" d="M 7.007812 20.871094 L 7.816406 23.359375 L 10.433594 23.359375 L 8.316406 24.902344 L 9.125 27.390625 L 7.007812 25.851562 L 4.886719 27.390625 L 5.695312 24.902344 L 3.578125 23.359375 L 6.195312 23.359375 Z M 7.007812 20.871094 "/>
</svg>
