<?xml version="1.0" encoding="UTF-8"?>
<svg xmlns="http://www.w3.org/2000/svg" xmlns:xlink="http://www.w3.org/1999/xlink" width="40" height="40" viewBox="0 0 40 40">
<path fill-rule="nonzero" fill="rgb(0%, 32.156863%, 70.588235%)" fill-opacity="1" d="M 40 20 C 40 31.046875 31.046875 40 20 40 C 8.953125 40 0 31.046875 0 20 C 0 8.953125 8.953125 0 20 0 C 31.046875 0 40 8.953125 40 20 Z M 40 20 "/>
<path fill-rule="evenodd" fill="rgb(100%, 85.490196%, 26.666667%)" fill-opacity="1" d="M 38.058594 28.609375 C 37.625 29.519531 37.121094 30.390625 36.5625 31.21875 L 10.054688 31.21875 L 8.804688 29.914062 L 10.054688 28.609375 Z M 38.789062 26.871094 L 11.304688 26.871094 L 32.175781 9.476562 C 31.996094 10.339844 31.914062 11.257812 31.914062 12.171875 C 31.914062 15.699219 34 21.832031 39.460938 24.640625 C 39.277344 25.398438 39.054688 26.144531 38.789062 26.871094 Z M 38.789062 26.871094 "/>
<path fill-rule="nonzero" fill="rgb(93.333333%, 93.333333%, 93.333333%)" fill-opacity="1" d="M 14.691406 10.433594 L 15.125 11.761719 L 16.523438 11.761719 L 15.390625 12.585938 L 15.824219 13.914062 L 14.691406 13.089844 L 13.5625 13.914062 L 13.996094 12.585938 L 12.863281 11.761719 L 14.261719 11.761719 Z M 14.691406 10.433594 "/>
<path fill-rule="nonzero" fill="rgb(93.333333%, 93.333333%, 93.333333%)" fill-opacity="1" d="M 9.019531 20 L 9.558594 21.660156 L 11.304688 21.660156 L 9.890625 22.6875 L 10.429688 24.347656 L 9.019531 23.320312 L 7.605469 24.347656 L 8.144531 22.6875 L 6.734375 21.660156 L 8.480469 21.660156 Z M 9.019531 20 "/>
<path fill-rule="nonzero" fill="rgb(93.333333%, 93.333333%, 93.333333%)" fill-opacity="1" d="M 9.019531 6.085938 L 9.558594 7.746094 L 11.304688 7.746094 L 9.890625 8.773438 L 10.429688 10.433594 L 9.019531 9.410156 L 7.605469 10.433594 L 8.144531 8.773438 L 6.734375 7.746094 L 8.480469 7.746094 Z M 9.019531 6.085938 "/>
<path fill-rule="nonzero" fill="rgb(93.333333%, 93.333333%, 93.333333%)" fill-opacity="1" d="M 4.671875 13.914062 L 5.210938 15.574219 L 6.957031 15.574219 L 5.542969 16.601562 L 6.082031 18.261719 L 4.671875 17.234375 L 3.257812 18.261719 L 3.796875 16.601562 L 2.386719 15.574219 L 4.132812 15.574219 Z M 4.671875 13.914062 "/>
</svg>
