<svg width="24" height="25" viewBox="0 0 24 25" fill="none" xmlns="http://www.w3.org/2000/svg">
<g id="REFRESH">
<path id="Union" fill-rule="evenodd" clip-rule="evenodd" d="M12 20.5C16.0796 20.5 19.446 17.4463 19.9381 13.5H21.9506C21.4489 18.5533 17.1853 22.5 12 22.5C6.47715 22.5 2 18.0228 2 12.5C2 6.97715 6.47715 2.5 12 2.5C14.7614 2.5 17.2614 3.61929 19.0711 5.42893L22 2.5V10.5H21.8H19.748H14L17.6569 6.84315C16.2091 5.39543 14.2091 4.5 12 4.5C7.58172 4.5 4 8.08172 4 12.5C4 16.9183 7.58172 20.5 12 20.5Z" fill="white"/>
</g>
</svg>
