<?xml version="1.0" encoding="UTF-8"?>
<svg xmlns="http://www.w3.org/2000/svg" xmlns:xlink="http://www.w3.org/1999/xlink" width="40" height="40" viewBox="0 0 40 40">
<path fill-rule="nonzero" fill="rgb(0%, 32.156863%, 70.588235%)" fill-opacity="1" d="M 40 20 C 40 31.046875 31.046875 40 20 40 C 8.953125 40 0 31.046875 0 20 C 0 8.953125 8.953125 0 20 0 C 31.046875 0 40 8.953125 40 20 Z M 40 20 "/>
<path fill-rule="evenodd" fill="rgb(95.294118%, 95.294118%, 95.294118%)" fill-opacity="1" d="M 18.210938 31.742188 C 18.382812 32.214844 18.832031 32.566406 19.371094 32.59375 C 19.390625 32.59375 19.414062 32.59375 19.433594 32.59375 C 19.945312 32.59375 20.394531 32.296875 20.605469 31.859375 C 20.875 32.289062 21.378906 32.542969 21.914062 32.464844 C 22.449219 32.382812 22.855469 31.988281 22.980469 31.496094 C 23.332031 31.867188 23.878906 32.011719 24.382812 31.824219 C 24.382812 31.824219 24.257812 31.871094 24.195312 31.894531 C 24.132812 31.917969 24.132812 31.917969 24.386719 31.824219 C 24.890625 31.636719 25.210938 31.167969 25.234375 30.660156 C 25.648438 30.953125 26.21875 30.984375 26.675781 30.699219 C 27.132812 30.414062 27.351562 29.890625 27.273438 29.386719 C 27.738281 29.589844 28.296875 29.507812 28.6875 29.136719 C 29.078125 28.765625 29.191406 28.207031 29.011719 27.734375 C 29.507812 27.835938 30.042969 27.644531 30.351562 27.199219 C 30.660156 26.757812 30.65625 26.191406 30.386719 25.761719 C 30.894531 25.765625 31.378906 25.46875 31.589844 24.972656 C 31.804688 24.476562 31.683594 23.921875 31.332031 23.554688 C 31.832031 23.453125 32.246094 23.066406 32.351562 22.535156 C 32.460938 22.007812 32.234375 21.488281 31.816406 21.199219 C 32.28125 21 32.609375 20.539062 32.609375 20 L 32.609375 19.96875 C 32.609375 19.429688 32.277344 18.96875 31.8125 18.773438 C 32.230469 18.484375 32.457031 17.964844 32.347656 17.433594 C 32.238281 16.90625 31.824219 16.519531 31.324219 16.421875 C 31.675781 16.050781 31.792969 15.496094 31.578125 15 C 31.363281 14.507812 30.878906 14.210938 30.371094 14.214844 C 30.640625 13.785156 30.644531 13.214844 30.335938 12.773438 C 30.023438 12.332031 29.492188 12.140625 28.996094 12.246094 C 29.171875 11.769531 29.0625 11.214844 28.667969 10.84375 C 28.277344 10.472656 27.714844 10.390625 27.25 10.59375 C 27.328125 10.09375 27.109375 9.570312 26.652344 9.285156 C 26.191406 9 25.625 9.035156 25.210938 9.328125 C 25.1875 8.820312 24.863281 8.351562 24.359375 8.164062 C 23.851562 7.980469 23.304688 8.125 22.957031 8.496094 C 22.828125 8.003906 22.417969 7.613281 21.886719 7.53125 C 21.351562 7.449219 20.847656 7.707031 20.582031 8.136719 C 20.359375 7.683594 19.878906 7.378906 19.339844 7.40625 C 18.800781 7.433594 18.355469 7.785156 18.183594 8.261719 C 17.871094 7.859375 17.34375 7.660156 16.820312 7.796875 C 16.296875 7.929688 15.933594 8.367188 15.859375 8.867188 C 15.472656 8.535156 14.910156 8.445312 14.429688 8.683594 C 13.945312 8.925781 13.671875 9.421875 13.703125 9.929688 C 13.261719 9.683594 12.691406 9.707031 12.269531 10.039062 C 11.839844 10.371094 11.675781 10.914062 11.808594 11.402344 C 11.324219 11.25 10.773438 11.390625 10.421875 11.796875 C 10.070312 12.207031 10.019531 12.773438 10.242188 13.226562 C 9.738281 13.175781 9.226562 13.421875 8.964844 13.890625 C 8.703125 14.363281 8.765625 14.929688 9.078125 15.328125 C 8.574219 15.378906 8.121094 15.722656 7.960938 16.238281 C 7.800781 16.753906 7.976562 17.292969 8.363281 17.621094 C 7.878906 17.773438 7.507812 18.203125 7.453125 18.742188 C 7.398438 19.277344 7.679688 19.769531 8.125 20.011719 C 7.679688 20.257812 7.402344 20.75 7.457031 21.289062 C 7.511719 21.824219 7.882812 22.25 8.367188 22.402344 C 7.980469 22.730469 7.808594 23.273438 7.96875 23.785156 C 8.132812 24.300781 8.585938 24.644531 9.089844 24.695312 C 8.777344 25.09375 8.714844 25.660156 8.980469 26.128906 C 9.242188 26.601562 9.753906 26.847656 10.257812 26.792969 C 10.035156 27.246094 10.085938 27.8125 10.441406 28.21875 C 10.792969 28.628906 11.339844 28.765625 11.824219 28.613281 C 11.695312 29.105469 11.863281 29.644531 12.289062 29.976562 C 12.714844 30.304688 13.28125 30.332031 13.726562 30.082031 C 13.699219 30.589844 13.96875 31.085938 14.453125 31.324219 C 14.9375 31.5625 15.5 31.472656 15.882812 31.140625 C 15.957031 31.644531 16.324219 32.078125 16.847656 32.210938 C 17.371094 32.347656 17.902344 32.144531 18.210938 31.742188 Z M 28.695312 20 C 28.695312 24.800781 24.800781 28.695312 20 28.695312 C 15.199219 28.695312 11.304688 24.800781 11.304688 20 C 11.304688 15.199219 15.199219 11.304688 20 11.304688 C 24.800781 11.304688 28.695312 15.199219 28.695312 20 Z M 28.695312 20 "/>
<path fill-rule="nonzero" fill="rgb(67.45098%, 67.058824%, 69.411765%)" fill-opacity="1" d="M 21.902344 17.046875 C 22.332031 16.730469 22.609375 16.226562 22.609375 15.652344 L 22.609375 14.78125 C 22.609375 13.820312 21.828125 13.042969 20.871094 13.042969 L 19.128906 13.042969 C 18.167969 13.042969 17.390625 13.820312 17.390625 14.78125 L 17.390625 15.652344 C 17.390625 16.226562 17.667969 16.730469 18.097656 17.046875 L 16.523438 33.042969 C 16.523438 33.042969 17.390625 33.914062 20 33.914062 C 22.609375 33.914062 23.476562 33.042969 23.476562 33.042969 Z M 21.902344 17.046875 "/>
<path fill-rule="nonzero" fill="rgb(93.333333%, 93.333333%, 93.333333%)" fill-opacity="1" d="M 20 14.226562 L 21.296875 18.214844 L 25.492188 18.214844 L 22.097656 20.679688 L 23.394531 24.671875 L 20 22.207031 L 16.605469 24.671875 L 17.902344 20.679688 L 14.507812 18.214844 L 18.703125 18.214844 Z M 20 14.226562 "/>
</svg>
