<?xml version="1.0" encoding="UTF-8"?>
<svg xmlns="http://www.w3.org/2000/svg" xmlns:xlink="http://www.w3.org/1999/xlink" width="20" height="20" viewBox="0 0 20 20">
<path fill-rule="nonzero" fill="rgb(0%, 32.156863%, 70.588235%)" fill-opacity="1" d="M 20 10 C 20 15.523438 15.523438 20 10 20 C 4.476562 20 0 15.523438 0 10 C 0 4.476562 4.476562 0 10 0 C 15.523438 0 20 4.476562 20 10 Z M 20 10 "/>
<path fill-rule="evenodd" fill="rgb(95.294118%, 95.294118%, 95.294118%)" fill-opacity="1" d="M 9.105469 15.871094 C 9.191406 16.109375 9.414062 16.285156 9.683594 16.296875 C 9.695312 16.296875 9.707031 16.296875 9.71875 16.296875 C 9.972656 16.296875 10.199219 16.148438 10.304688 15.929688 C 10.4375 16.144531 10.691406 16.273438 10.957031 16.230469 C 11.222656 16.191406 11.429688 15.992188 11.492188 15.75 C 11.664062 15.933594 11.9375 16.003906 12.191406 15.914062 C 12.191406 15.914062 12.128906 15.9375 12.097656 15.949219 C 12.066406 15.960938 12.066406 15.960938 12.191406 15.914062 C 12.445312 15.820312 12.605469 15.585938 12.617188 15.332031 C 12.824219 15.476562 13.109375 15.492188 13.335938 15.347656 C 13.566406 15.207031 13.675781 14.945312 13.636719 14.695312 C 13.867188 14.792969 14.148438 14.753906 14.34375 14.566406 C 14.539062 14.382812 14.59375 14.105469 14.507812 13.867188 C 14.753906 13.917969 15.019531 13.820312 15.175781 13.601562 C 15.328125 13.378906 15.328125 13.097656 15.191406 12.878906 C 15.445312 12.882812 15.6875 12.734375 15.796875 12.484375 C 15.902344 12.238281 15.84375 11.960938 15.667969 11.777344 C 15.914062 11.726562 16.121094 11.53125 16.175781 11.269531 C 16.230469 11.003906 16.117188 10.742188 15.90625 10.601562 C 16.140625 10.5 16.304688 10.269531 16.304688 10 L 16.304688 9.984375 C 16.304688 9.714844 16.140625 9.484375 15.90625 9.386719 C 16.113281 9.242188 16.226562 8.980469 16.171875 8.71875 C 16.117188 8.453125 15.910156 8.257812 15.664062 8.210938 C 15.835938 8.027344 15.894531 7.75 15.789062 7.5 C 15.683594 7.253906 15.441406 7.105469 15.1875 7.105469 C 15.320312 6.890625 15.320312 6.609375 15.167969 6.386719 C 15.011719 6.167969 14.746094 6.070312 14.496094 6.125 C 14.585938 5.886719 14.53125 5.609375 14.335938 5.421875 C 14.140625 5.238281 13.859375 5.195312 13.625 5.296875 C 13.664062 5.046875 13.554688 4.785156 13.324219 4.644531 C 13.097656 4.5 12.8125 4.515625 12.605469 4.664062 C 12.59375 4.410156 12.433594 4.175781 12.179688 4.082031 C 11.925781 3.988281 11.652344 4.0625 11.476562 4.246094 C 11.414062 4.003906 11.210938 3.804688 10.941406 3.765625 C 10.675781 3.726562 10.421875 3.851562 10.289062 4.070312 C 10.179688 3.839844 9.941406 3.691406 9.671875 3.703125 C 9.402344 3.71875 9.179688 3.894531 9.089844 4.132812 C 8.9375 3.929688 8.671875 3.828125 8.410156 3.898438 C 8.148438 3.964844 7.964844 4.183594 7.929688 4.433594 C 7.738281 4.269531 7.457031 4.222656 7.214844 4.34375 C 6.972656 4.460938 6.835938 4.710938 6.851562 4.964844 C 6.628906 4.839844 6.347656 4.855469 6.132812 5.019531 C 5.921875 5.183594 5.839844 5.457031 5.902344 5.703125 C 5.660156 5.625 5.386719 5.695312 5.210938 5.898438 C 5.035156 6.105469 5.007812 6.386719 5.121094 6.613281 C 4.871094 6.585938 4.613281 6.710938 4.484375 6.945312 C 4.351562 7.183594 4.382812 7.464844 4.539062 7.664062 C 4.285156 7.691406 4.0625 7.863281 3.980469 8.121094 C 3.898438 8.378906 3.988281 8.648438 4.179688 8.8125 C 3.941406 8.886719 3.753906 9.101562 3.726562 9.371094 C 3.699219 9.636719 3.839844 9.882812 4.0625 10.007812 C 3.839844 10.128906 3.699219 10.375 3.726562 10.644531 C 3.753906 10.910156 3.941406 11.125 4.183594 11.199219 C 3.992188 11.367188 3.902344 11.636719 3.984375 11.894531 C 4.066406 12.152344 4.292969 12.324219 4.542969 12.347656 C 4.386719 12.546875 4.359375 12.828125 4.488281 13.066406 C 4.621094 13.300781 4.875 13.421875 5.128906 13.394531 C 5.015625 13.625 5.042969 13.90625 5.21875 14.109375 C 5.394531 14.316406 5.671875 14.382812 5.914062 14.304688 C 5.847656 14.550781 5.929688 14.824219 6.144531 14.988281 C 6.359375 15.152344 6.640625 15.164062 6.863281 15.042969 C 6.847656 15.292969 6.984375 15.542969 7.226562 15.664062 C 7.46875 15.78125 7.75 15.738281 7.941406 15.570312 C 7.980469 15.820312 8.160156 16.039062 8.421875 16.105469 C 8.683594 16.171875 8.949219 16.070312 9.105469 15.871094 Z M 14.347656 10 C 14.347656 12.402344 12.402344 14.347656 10 14.347656 C 7.597656 14.347656 5.652344 12.402344 5.652344 10 C 5.652344 7.597656 7.597656 5.652344 10 5.652344 C 12.402344 5.652344 14.347656 7.597656 14.347656 10 Z M 14.347656 10 "/>
<path fill-rule="nonzero" fill="rgb(67.45098%, 67.058824%, 69.411765%)" fill-opacity="1" d="M 10.953125 8.523438 C 11.164062 8.367188 11.304688 8.113281 11.304688 7.824219 L 11.304688 7.390625 C 11.304688 6.910156 10.914062 6.523438 10.433594 6.523438 L 9.566406 6.523438 C 9.085938 6.523438 8.695312 6.910156 8.695312 7.390625 L 8.695312 7.824219 C 8.695312 8.113281 8.835938 8.367188 9.046875 8.523438 L 8.261719 16.523438 C 8.261719 16.523438 8.695312 16.957031 10 16.957031 C 11.304688 16.957031 11.738281 16.523438 11.738281 16.523438 Z M 10.953125 8.523438 "/>
<path fill-rule="nonzero" fill="rgb(93.333333%, 93.333333%, 93.333333%)" fill-opacity="1" d="M 10 7.113281 L 10.648438 9.109375 L 12.746094 9.109375 L 11.050781 10.339844 L 11.695312 12.335938 L 10 11.101562 L 8.304688 12.335938 L 8.949219 10.339844 L 7.253906 9.109375 L 9.351562 9.109375 Z M 10 7.113281 "/>
</svg>
