<?xml version="1.0" encoding="UTF-8"?>
<svg xmlns="http://www.w3.org/2000/svg" xmlns:xlink="http://www.w3.org/1999/xlink" width="60" height="60" viewBox="0 0 60 60">
<path fill-rule="nonzero" fill="rgb(0%, 32.156863%, 70.588235%)" fill-opacity="1" d="M 60 30 C 60 46.570312 46.570312 60 30 60 C 13.429688 60 0 46.570312 0 30 C 0 13.429688 13.429688 0 30 0 C 46.570312 0 60 13.429688 60 30 Z M 60 30 "/>
<path fill-rule="evenodd" fill="rgb(95.294118%, 95.294118%, 95.294118%)" fill-opacity="1" d="M 27.3125 47.609375 C 27.578125 48.324219 28.246094 48.851562 29.054688 48.890625 C 29.085938 48.890625 29.121094 48.890625 29.152344 48.890625 C 29.917969 48.890625 30.59375 48.445312 30.910156 47.789062 C 31.3125 48.4375 32.070312 48.816406 32.871094 48.695312 C 33.671875 48.574219 34.285156 47.984375 34.472656 47.246094 C 34.996094 47.796875 35.816406 48.015625 36.578125 47.738281 C 36.578125 47.738281 36.386719 47.808594 36.292969 47.84375 C 36.199219 47.878906 36.199219 47.878906 36.578125 47.738281 C 37.335938 47.457031 37.816406 46.753906 37.851562 45.992188 C 38.476562 46.425781 39.324219 46.476562 40.011719 46.046875 C 40.699219 45.617188 41.027344 44.832031 40.90625 44.082031 C 41.605469 44.382812 42.445312 44.261719 43.035156 43.703125 C 43.621094 43.144531 43.785156 42.3125 43.519531 41.597656 C 44.261719 41.753906 45.0625 41.464844 45.527344 40.800781 C 45.988281 40.136719 45.980469 39.289062 45.578125 38.640625 C 46.339844 38.644531 47.066406 38.199219 47.386719 37.457031 C 47.703125 36.710938 47.527344 35.878906 47 35.328125 C 47.746094 35.179688 48.367188 34.597656 48.53125 33.804688 C 48.691406 33.011719 48.347656 32.230469 47.722656 31.800781 C 48.421875 31.5 48.914062 30.808594 48.914062 30 L 48.914062 29.957031 C 48.910156 29.148438 48.417969 28.453125 47.71875 28.160156 C 48.34375 27.722656 48.683594 26.945312 48.523438 26.152344 C 48.355469 25.359375 47.734375 24.777344 46.988281 24.628906 C 47.511719 24.078125 47.6875 23.246094 47.367188 22.5 C 47.046875 21.757812 46.320312 21.316406 45.558594 21.320312 C 45.960938 20.675781 45.964844 19.824219 45.5 19.164062 C 45.039062 18.5 44.238281 18.210938 43.492188 18.371094 C 43.757812 17.65625 43.589844 16.824219 43.003906 16.265625 C 42.417969 15.710938 41.574219 15.589844 40.875 15.890625 C 40.992188 15.140625 40.664062 14.355469 39.976562 13.929688 C 39.289062 13.5 38.4375 13.550781 37.816406 13.992188 C 37.78125 13.230469 37.296875 12.527344 36.535156 12.246094 C 35.777344 11.96875 34.957031 12.1875 34.433594 12.742188 C 34.242188 12.007812 33.628906 11.417969 32.828125 11.296875 C 32.027344 11.175781 31.269531 11.558594 30.871094 12.207031 C 30.535156 11.523438 29.820312 11.070312 29.011719 11.113281 C 28.203125 11.152344 27.535156 11.679688 27.273438 12.394531 C 26.808594 11.789062 26.011719 11.488281 25.230469 11.691406 C 24.445312 11.894531 23.898438 12.546875 23.785156 13.300781 C 23.210938 12.804688 22.367188 12.671875 21.644531 13.027344 C 20.917969 13.386719 20.511719 14.132812 20.554688 14.894531 C 19.890625 14.523438 19.039062 14.5625 18.402344 15.058594 C 17.761719 15.554688 17.515625 16.371094 17.710938 17.105469 C 16.984375 16.875 16.160156 17.082031 15.632812 17.699219 C 15.105469 18.3125 15.027344 19.160156 15.367188 19.84375 C 14.609375 19.761719 13.839844 20.132812 13.449219 20.839844 C 13.054688 21.546875 13.148438 22.394531 13.617188 22.992188 C 12.859375 23.070312 12.183594 23.585938 11.941406 24.359375 C 11.699219 25.132812 11.964844 25.941406 12.542969 26.433594 C 11.820312 26.660156 11.261719 27.304688 11.179688 28.109375 C 11.101562 28.914062 11.519531 29.652344 12.1875 30.019531 C 11.519531 30.386719 11.101562 31.125 11.183594 31.929688 C 11.265625 32.734375 11.824219 33.378906 12.554688 33.601562 C 11.972656 34.097656 11.710938 34.90625 11.957031 35.679688 C 12.199219 36.453125 12.875 36.96875 13.632812 37.039062 C 13.164062 37.640625 13.074219 38.488281 13.46875 39.195312 C 13.863281 39.902344 14.628906 40.269531 15.386719 40.1875 C 15.050781 40.871094 15.132812 41.71875 15.660156 42.332031 C 16.1875 42.945312 17.011719 43.152344 17.738281 42.917969 C 17.542969 43.65625 17.792969 44.46875 18.433594 44.964844 C 19.074219 45.460938 19.921875 45.496094 20.585938 45.125 C 20.546875 45.882812 20.953125 46.632812 21.679688 46.988281 C 22.40625 47.34375 23.246094 47.210938 23.824219 46.710938 C 23.9375 47.464844 24.484375 48.113281 25.273438 48.316406 C 26.054688 48.519531 26.851562 48.214844 27.3125 47.609375 Z M 43.042969 30 C 43.042969 37.203125 37.203125 43.042969 30 43.042969 C 22.796875 43.042969 16.957031 37.203125 16.957031 30 C 16.957031 22.796875 22.796875 16.957031 30 16.957031 C 37.203125 16.957031 43.042969 22.796875 43.042969 30 Z M 43.042969 30 "/>
<path fill-rule="nonzero" fill="rgb(67.45098%, 67.058824%, 69.411765%)" fill-opacity="1" d="M 32.855469 25.574219 C 33.496094 25.097656 33.914062 24.335938 33.914062 23.476562 L 33.914062 22.175781 C 33.914062 20.734375 32.746094 19.566406 31.304688 19.566406 L 28.695312 19.566406 C 27.253906 19.566406 26.085938 20.734375 26.085938 22.175781 L 26.085938 23.476562 C 26.085938 24.335938 26.503906 25.097656 27.144531 25.574219 L 24.78125 49.566406 C 24.78125 49.566406 26.085938 50.871094 30 50.871094 C 33.914062 50.871094 35.21875 49.566406 35.21875 49.566406 Z M 32.855469 25.574219 "/>
<path fill-rule="nonzero" fill="rgb(93.333333%, 93.333333%, 93.333333%)" fill-opacity="1" d="M 30 21.335938 L 31.945312 27.324219 L 38.238281 27.324219 L 33.148438 31.023438 L 35.089844 37.007812 L 30 33.308594 L 24.910156 37.007812 L 26.851562 31.023438 L 21.761719 27.324219 L 28.054688 27.324219 Z M 30 21.335938 "/>
</svg>
