<?xml version="1.0" encoding="UTF-8"?>
<svg xmlns="http://www.w3.org/2000/svg" xmlns:xlink="http://www.w3.org/1999/xlink" width="20" height="20" viewBox="0 0 20 20">
<path fill-rule="nonzero" fill="rgb(93.333333%, 93.333333%, 93.333333%)" fill-opacity="1" d="M 18.664062 15 C 19.511719 13.527344 20 11.820312 20 10 C 20 8.179688 19.511719 6.472656 18.664062 5 L 1.335938 5 C 0.488281 6.472656 0 8.179688 0 10 C 0 11.820312 0.488281 13.527344 1.335938 15 Z M 18.664062 15 "/>
<path fill-rule="nonzero" fill="rgb(84.705882%, 0%, 15.294118%)" fill-opacity="1" d="M 9.996094 20 C 6.042969 20 2.628906 17.703125 1.003906 14.375 L 18.996094 14.375 C 17.371094 17.703125 13.957031 20 10.003906 20 Z M 9.996094 20 "/>
<path fill-rule="nonzero" fill="rgb(84.705882%, 0%, 15.294118%)" fill-opacity="1" d="M 10 0 C 6.046875 0 2.628906 2.292969 1.003906 5.625 L 18.996094 5.625 C 17.371094 2.292969 13.953125 0 10 0 Z M 10 0 "/>
<path fill-rule="nonzero" fill="rgb(42.745098%, 64.705882%, 26.666667%)" fill-opacity="1" d="M 12.609375 11.738281 L 10 6.957031 L 7.390625 11.738281 L 9.347656 11.738281 L 9.347656 13.042969 L 10.652344 13.042969 L 10.652344 11.738281 Z M 12.609375 11.738281 "/>
</svg>
