<?xml version="1.0" encoding="UTF-8"?>
<svg xmlns="http://www.w3.org/2000/svg" xmlns:xlink="http://www.w3.org/1999/xlink" width="60" height="60" viewBox="0 0 60 60">
<path fill-rule="nonzero" fill="rgb(20%, 20%, 20%)" fill-opacity="1" d="M 56.507812 44.0625 C 58.738281 39.867188 60 35.082031 60 30 C 60 24.917969 58.738281 20.132812 56.507812 15.9375 L 3.492188 15.9375 C 1.261719 20.132812 0 24.917969 0 30 C 0 35.082031 1.261719 39.867188 3.492188 44.0625 Z M 56.507812 44.0625 "/>
<path fill-rule="nonzero" fill="rgb(100%, 85.490196%, 26.666667%)" fill-opacity="1" d="M 58.179688 40.3125 C 53.976562 51.800781 42.945312 60 30 60 C 17.054688 60 6.023438 51.800781 1.820312 40.3125 Z M 58.179688 40.3125 "/>
<path fill-rule="nonzero" fill="rgb(28.627451%, 43.137255%, 17.647059%)" fill-opacity="1" d="M 58.179688 19.6875 L 1.820312 19.6875 C 6.023438 8.199219 17.054688 0 30 0 C 42.945312 0 53.972656 8.199219 58.179688 19.6875 Z M 58.179688 19.6875 "/>
<path fill-rule="evenodd" fill="rgb(93.333333%, 93.333333%, 93.333333%)" fill-opacity="1" d="M 57.820312 18.75 C 58.308594 19.960938 58.722656 21.214844 59.054688 22.5 L 0.945312 22.5 C 1.277344 21.214844 1.691406 19.960938 2.179688 18.75 Z M 57.820312 41.25 C 58.308594 40.039062 58.722656 38.785156 59.054688 37.5 L 0.945312 37.5 C 1.277344 38.785156 1.691406 40.039062 2.179688 41.25 Z M 57.820312 41.25 "/>
<path fill-rule="nonzero" fill="rgb(63.529412%, 0%, 11.372549%)" fill-opacity="1" d="M 0 28.777344 C 0.3125 20.972656 3.605469 13.9375 8.773438 8.773438 L 30 30 L 8.773438 51.222656 C 3.605469 46.0625 0.3125 39.023438 0 31.21875 Z M 0 28.777344 "/>
<path fill-rule="nonzero" fill="rgb(100%, 85.490196%, 26.666667%)" fill-opacity="1" d="M 10.882812 21.335938 L 12.828125 27.324219 L 19.121094 27.324219 L 14.03125 31.023438 L 15.976562 37.007812 L 10.882812 33.308594 L 5.792969 37.007812 L 7.738281 31.023438 L 2.644531 27.324219 L 8.9375 27.324219 Z M 10.882812 21.335938 "/>
<path fill-rule="nonzero" fill="rgb(93.333333%, 93.333333%, 93.333333%)" fill-opacity="1" d="M 5.199219 29.164062 L 16.570312 29.164062 L 16.570312 34.378906 L 5.199219 34.378906 Z M 5.199219 29.164062 "/>
<path fill-rule="nonzero" fill="rgb(20%, 20%, 20%)" fill-opacity="1" d="M 18.722656 23.183594 L 16.878906 21.335938 L 10.882812 27.332031 L 4.890625 21.335938 L 3.042969 23.183594 L 9.042969 29.171875 L 3.042969 35.167969 L 4.890625 36.988281 L 10.882812 31.007812 L 16.878906 36.988281 L 18.722656 35.167969 L 12.722656 29.171875 Z M 18.722656 23.183594 "/>
</svg>
