<?xml version="1.0" encoding="UTF-8"?>
<svg xmlns="http://www.w3.org/2000/svg" xmlns:xlink="http://www.w3.org/1999/xlink" width="40" height="40" viewBox="0 0 40 40">
<path fill-rule="nonzero" fill="rgb(20%, 20%, 20%)" fill-opacity="1" d="M 37.671875 29.375 C 39.15625 26.578125 40 23.386719 40 20 C 40 16.613281 39.15625 13.421875 37.671875 10.625 L 2.328125 10.625 C 0.84375 13.421875 0 16.613281 0 20 C 0 23.386719 0.84375 26.578125 2.328125 29.375 Z M 37.671875 29.375 "/>
<path fill-rule="nonzero" fill="rgb(100%, 85.490196%, 26.666667%)" fill-opacity="1" d="M 38.785156 26.875 C 35.984375 34.535156 28.628906 40 20 40 C 11.371094 40 4.015625 34.535156 1.214844 26.875 L 38.789062 26.875 Z M 38.785156 26.875 "/>
<path fill-rule="nonzero" fill="rgb(28.627451%, 43.137255%, 17.647059%)" fill-opacity="1" d="M 38.785156 13.125 L 1.210938 13.125 C 4.015625 5.464844 11.371094 0 20 0 C 28.628906 0 35.984375 5.464844 38.785156 13.125 Z M 38.785156 13.125 "/>
<path fill-rule="evenodd" fill="rgb(93.333333%, 93.333333%, 93.333333%)" fill-opacity="1" d="M 38.546875 12.5 C 38.875 13.308594 39.148438 14.144531 39.371094 15 L 0.628906 15 C 0.851562 14.144531 1.125 13.308594 1.453125 12.5 Z M 38.546875 27.5 C 38.875 26.691406 39.148438 25.855469 39.371094 25 L 0.628906 25 C 0.851562 25.855469 1.125 26.691406 1.453125 27.5 Z M 38.546875 27.5 "/>
<path fill-rule="nonzero" fill="rgb(63.529412%, 0%, 11.372549%)" fill-opacity="1" d="M 0 19.1875 C 0.207031 13.984375 2.40625 9.289062 5.851562 5.847656 L 20 20 L 5.851562 34.148438 C 2.40625 30.707031 0.207031 26.015625 0 20.8125 L 0 19.183594 Z M 0 19.1875 "/>
<path fill-rule="nonzero" fill="rgb(100%, 85.490196%, 26.666667%)" fill-opacity="1" d="M 7.257812 14.226562 L 8.550781 18.214844 L 12.75 18.214844 L 9.355469 20.679688 L 10.648438 24.671875 L 7.257812 22.207031 L 3.863281 24.671875 L 5.15625 20.679688 L 1.761719 18.214844 L 5.960938 18.214844 Z M 7.257812 14.226562 "/>
<path fill-rule="nonzero" fill="rgb(93.333333%, 93.333333%, 93.333333%)" fill-opacity="1" d="M 3.464844 19.441406 L 11.046875 19.441406 L 11.046875 22.921875 L 3.464844 22.921875 Z M 3.464844 19.441406 "/>
<path fill-rule="nonzero" fill="rgb(20%, 20%, 20%)" fill-opacity="1" d="M 12.480469 15.453125 L 11.25 14.226562 L 7.253906 18.222656 L 3.257812 14.226562 L 2.03125 15.453125 L 6.03125 19.445312 L 2.03125 23.445312 L 3.257812 24.660156 L 7.253906 20.671875 L 11.25 24.660156 L 12.480469 23.445312 L 8.480469 19.445312 Z M 12.480469 15.453125 "/>
</svg>
