<?xml version="1.0" encoding="UTF-8"?>
<svg xmlns="http://www.w3.org/2000/svg" xmlns:xlink="http://www.w3.org/1999/xlink" width="20" height="20" viewBox="0 0 20 20">
<path fill-rule="nonzero" fill="rgb(20%, 20%, 20%)" fill-opacity="1" d="M 18.835938 14.6875 C 19.578125 13.289062 20 11.695312 20 10 C 20 8.304688 19.578125 6.710938 18.835938 5.3125 L 1.164062 5.3125 C 0.421875 6.710938 0 8.304688 0 10 C 0 11.695312 0.421875 13.289062 1.164062 14.6875 Z M 18.835938 14.6875 "/>
<path fill-rule="nonzero" fill="rgb(100%, 85.490196%, 26.666667%)" fill-opacity="1" d="M 19.394531 13.4375 C 17.992188 17.265625 14.316406 20 10 20 C 5.683594 20 2.007812 17.265625 0.605469 13.4375 Z M 19.394531 13.4375 "/>
<path fill-rule="nonzero" fill="rgb(28.627451%, 43.137255%, 17.647059%)" fill-opacity="1" d="M 19.394531 6.5625 L 0.605469 6.5625 C 2.007812 2.734375 5.683594 0 10 0 C 14.316406 0 17.992188 2.734375 19.394531 6.5625 Z M 19.394531 6.5625 "/>
<path fill-rule="evenodd" fill="rgb(93.333333%, 93.333333%, 93.333333%)" fill-opacity="1" d="M 19.273438 6.25 C 19.4375 6.652344 19.574219 7.070312 19.683594 7.5 L 0.316406 7.5 C 0.425781 7.070312 0.5625 6.652344 0.726562 6.25 Z M 19.273438 13.75 C 19.4375 13.347656 19.574219 12.929688 19.683594 12.5 L 0.316406 12.5 C 0.425781 12.929688 0.5625 13.347656 0.726562 13.75 Z M 19.273438 13.75 "/>
<path fill-rule="nonzero" fill="rgb(63.529412%, 0%, 11.372549%)" fill-opacity="1" d="M 0 9.59375 C 0.105469 6.992188 1.203125 4.644531 2.925781 2.925781 L 10 10 L 2.925781 17.074219 C 1.203125 15.355469 0.105469 13.007812 0 10.40625 Z M 0 9.59375 "/>
<path fill-rule="nonzero" fill="rgb(100%, 85.490196%, 26.666667%)" fill-opacity="1" d="M 3.628906 7.113281 L 4.277344 9.109375 L 6.375 9.109375 L 4.675781 10.339844 L 5.324219 12.335938 L 3.628906 11.101562 L 1.929688 12.335938 L 2.578125 10.339844 L 0.882812 9.109375 L 2.980469 9.109375 Z M 3.628906 7.113281 "/>
<path fill-rule="nonzero" fill="rgb(93.333333%, 93.333333%, 93.333333%)" fill-opacity="1" d="M 1.734375 9.722656 L 5.523438 9.722656 L 5.523438 11.460938 L 1.734375 11.460938 Z M 1.734375 9.722656 "/>
<path fill-rule="nonzero" fill="rgb(20%, 20%, 20%)" fill-opacity="1" d="M 6.242188 7.726562 L 5.625 7.113281 L 3.628906 9.109375 L 1.628906 7.113281 L 1.015625 7.726562 L 3.015625 9.722656 L 1.015625 11.722656 L 1.628906 12.328125 L 3.628906 10.335938 L 5.625 12.328125 L 6.242188 11.722656 L 4.242188 9.722656 Z M 6.242188 7.726562 "/>
</svg>
