<?xml version="1.0" encoding="UTF-8"?>
<svg xmlns="http://www.w3.org/2000/svg" xmlns:xlink="http://www.w3.org/1999/xlink" width="40" height="40" viewBox="0 0 40 40">
<path fill-rule="nonzero" fill="rgb(0%, 32.156863%, 70.588235%)" fill-opacity="1" d="M 2.328125 10.625 C 0.84375 13.421875 0 16.613281 0 20 C 0 23.386719 0.84375 26.578125 2.328125 29.375 L 37.671875 29.375 C 39.15625 26.578125 40 23.386719 40 20 C 40 16.613281 39.15625 13.421875 37.671875 10.625 Z M 2.328125 10.625 "/>
<path fill-rule="nonzero" fill="rgb(84.705882%, 0%, 15.294118%)" fill-opacity="1" d="M 1.214844 13.125 C 4.015625 5.464844 11.371094 0 20 0 C 28.628906 0 35.984375 5.464844 38.785156 13.125 L 1.210938 13.125 Z M 1.214844 13.125 "/>
<path fill-rule="nonzero" fill="rgb(93.333333%, 93.333333%, 93.333333%)" fill-opacity="1" d="M 1.214844 26.875 L 38.789062 26.875 C 35.984375 34.535156 28.628906 40 20 40 C 11.371094 40 4.015625 34.535156 1.214844 26.875 Z M 1.214844 26.875 "/>
<path fill-rule="nonzero" fill="rgb(84.705882%, 0%, 15.294118%)" fill-opacity="1" d="M 5.171875 11.304688 L 5.171875 21.28125 C 5.171875 26.957031 12.585938 28.695312 12.585938 28.695312 C 12.585938 28.695312 20 26.957031 20 21.28125 L 20 11.304688 Z M 5.171875 11.304688 "/>
<path fill-rule="nonzero" fill="rgb(100%, 77.647059%, 20.784314%)" fill-opacity="1" d="M 8.238281 13.042969 L 16.933594 13.042969 L 16.933594 9.566406 L 15.195312 10.433594 L 12.585938 7.828125 L 9.976562 10.433594 L 8.238281 9.566406 Z M 8.238281 13.042969 "/>
<path fill-rule="nonzero" fill="rgb(100%, 77.647059%, 20.784314%)" fill-opacity="1" d="M 18.261719 22.671875 L 12.609375 17.019531 L 6.957031 22.671875 L 8.800781 24.515625 L 12.609375 20.707031 L 16.417969 24.515625 Z M 18.261719 22.671875 "/>
<path fill-rule="nonzero" fill="rgb(93.333333%, 93.333333%, 93.333333%)" fill-opacity="1" d="M 18.261719 17.390625 L 15.625 17.390625 C 15.773438 17.136719 15.859375 16.839844 15.859375 16.523438 C 15.859375 15.5625 15.078125 14.78125 14.121094 14.78125 C 13.457031 14.78125 12.878906 15.15625 12.585938 15.699219 C 12.292969 15.15625 11.714844 14.78125 11.054688 14.78125 C 10.09375 14.78125 9.3125 15.5625 9.3125 16.523438 C 9.3125 16.839844 9.398438 17.136719 9.546875 17.390625 L 6.957031 17.390625 C 6.957031 18.351562 7.792969 19.128906 8.753906 19.128906 L 8.695312 19.128906 C 8.695312 20.089844 9.472656 20.871094 10.433594 20.871094 C 10.433594 21.71875 11.046875 22.425781 11.851562 22.578125 L 10.480469 25.671875 C 11.140625 25.9375 11.855469 26.085938 12.609375 26.085938 C 13.363281 26.085938 14.078125 25.9375 14.734375 25.671875 L 13.367188 22.578125 C 14.171875 22.425781 14.78125 21.71875 14.78125 20.871094 C 15.742188 20.871094 16.523438 20.089844 16.523438 19.128906 L 16.464844 19.128906 C 17.425781 19.128906 18.261719 18.351562 18.261719 17.390625 Z M 18.261719 17.390625 "/>
</svg>
