<?xml version="1.0" encoding="UTF-8"?>
<svg xmlns="http://www.w3.org/2000/svg" xmlns:xlink="http://www.w3.org/1999/xlink" width="20" height="20" viewBox="0 0 20 20">
<path fill-rule="nonzero" fill="rgb(0%, 32.156863%, 70.588235%)" fill-opacity="1" d="M 1.164062 5.3125 C 0.421875 6.710938 0 8.304688 0 10 C 0 11.695312 0.421875 13.289062 1.164062 14.6875 L 18.835938 14.6875 C 19.578125 13.289062 20 11.695312 20 10 C 20 8.304688 19.578125 6.710938 18.835938 5.3125 Z M 1.164062 5.3125 "/>
<path fill-rule="nonzero" fill="rgb(84.705882%, 0%, 15.294118%)" fill-opacity="1" d="M 0.605469 6.5625 C 2.007812 2.734375 5.683594 0 10 0 C 14.316406 0 17.992188 2.734375 19.394531 6.5625 Z M 0.605469 6.5625 "/>
<path fill-rule="nonzero" fill="rgb(93.333333%, 93.333333%, 93.333333%)" fill-opacity="1" d="M 0.605469 13.4375 L 19.394531 13.4375 C 17.992188 17.265625 14.316406 20 10 20 C 5.683594 20 2.007812 17.265625 0.605469 13.4375 Z M 0.605469 13.4375 "/>
<path fill-rule="nonzero" fill="rgb(84.705882%, 0%, 15.294118%)" fill-opacity="1" d="M 2.585938 5.652344 L 2.585938 10.640625 C 2.585938 13.480469 6.292969 14.347656 6.292969 14.347656 C 6.292969 14.347656 10 13.480469 10 10.640625 L 10 5.652344 Z M 2.585938 5.652344 "/>
<path fill-rule="nonzero" fill="rgb(100%, 77.647059%, 20.784314%)" fill-opacity="1" d="M 4.117188 6.523438 L 8.46875 6.523438 L 8.46875 4.78125 L 7.597656 5.21875 L 6.292969 3.914062 L 4.988281 5.21875 L 4.117188 4.78125 Z M 4.117188 6.523438 "/>
<path fill-rule="nonzero" fill="rgb(100%, 77.647059%, 20.784314%)" fill-opacity="1" d="M 9.128906 11.335938 L 6.304688 8.507812 L 3.476562 11.335938 L 4.402344 12.257812 L 6.304688 10.355469 L 8.207031 12.257812 Z M 9.128906 11.335938 "/>
<path fill-rule="nonzero" fill="rgb(93.333333%, 93.333333%, 93.333333%)" fill-opacity="1" d="M 9.128906 8.695312 L 7.8125 8.695312 C 7.886719 8.566406 7.929688 8.417969 7.929688 8.261719 C 7.929688 7.78125 7.539062 7.390625 7.058594 7.390625 C 6.726562 7.390625 6.441406 7.578125 6.292969 7.851562 C 6.144531 7.578125 5.859375 7.390625 5.527344 7.390625 C 5.046875 7.390625 4.65625 7.78125 4.65625 8.261719 C 4.65625 8.417969 4.699219 8.566406 4.773438 8.695312 L 3.476562 8.695312 C 3.476562 9.175781 3.898438 9.566406 4.375 9.566406 L 4.347656 9.566406 C 4.347656 10.046875 4.738281 10.433594 5.21875 10.433594 C 5.21875 10.859375 5.523438 11.214844 5.925781 11.289062 L 5.242188 12.835938 C 5.570312 12.96875 5.929688 13.042969 6.304688 13.042969 C 6.679688 13.042969 7.039062 12.96875 7.367188 12.835938 L 6.683594 11.289062 C 7.085938 11.214844 7.390625 10.859375 7.390625 10.433594 C 7.871094 10.433594 8.261719 10.046875 8.261719 9.566406 L 8.230469 9.566406 C 8.710938 9.566406 9.128906 9.175781 9.128906 8.695312 Z M 9.128906 8.695312 "/>
</svg>
