<?xml version="1.0" encoding="UTF-8"?>
<svg xmlns="http://www.w3.org/2000/svg" xmlns:xlink="http://www.w3.org/1999/xlink" width="60" height="60" viewBox="0 0 60 60">
<path fill-rule="nonzero" fill="rgb(0%, 32.156863%, 70.588235%)" fill-opacity="1" d="M 3.492188 15.9375 C 1.261719 20.132812 0 24.917969 0 30 C 0 35.082031 1.261719 39.867188 3.492188 44.0625 L 56.507812 44.0625 C 58.738281 39.867188 60 35.082031 60 30 C 60 24.917969 58.738281 20.132812 56.507812 15.9375 Z M 3.492188 15.9375 "/>
<path fill-rule="nonzero" fill="rgb(84.705882%, 0%, 15.294118%)" fill-opacity="1" d="M 1.820312 19.6875 C 6.023438 8.199219 17.054688 0 30 0 C 42.945312 0 53.976562 8.199219 58.179688 19.6875 L 1.816406 19.6875 Z M 1.820312 19.6875 "/>
<path fill-rule="nonzero" fill="rgb(93.333333%, 93.333333%, 93.333333%)" fill-opacity="1" d="M 1.820312 40.3125 L 58.179688 40.3125 C 53.976562 51.800781 42.945312 60 30 60 C 17.054688 60 6.023438 51.800781 1.820312 40.3125 Z M 1.820312 40.3125 "/>
<path fill-rule="nonzero" fill="rgb(84.705882%, 0%, 15.294118%)" fill-opacity="1" d="M 7.757812 16.957031 L 7.757812 31.921875 C 7.757812 40.4375 18.878906 43.042969 18.878906 43.042969 C 18.878906 43.042969 30 40.4375 30 31.921875 L 30 16.957031 Z M 7.757812 16.957031 "/>
<path fill-rule="nonzero" fill="rgb(100%, 77.647059%, 20.784314%)" fill-opacity="1" d="M 12.359375 19.566406 L 25.398438 19.566406 L 25.398438 14.347656 L 22.792969 15.652344 L 18.878906 11.738281 L 14.964844 15.652344 L 12.355469 14.347656 L 12.355469 19.566406 Z M 12.359375 19.566406 "/>
<path fill-rule="nonzero" fill="rgb(100%, 77.647059%, 20.784314%)" fill-opacity="1" d="M 27.390625 34.003906 L 18.914062 25.527344 L 10.433594 34.003906 L 13.203125 36.773438 L 18.914062 31.0625 L 24.625 36.773438 Z M 27.390625 34.003906 "/>
<path fill-rule="nonzero" fill="rgb(93.333333%, 93.333333%, 93.333333%)" fill-opacity="1" d="M 27.390625 26.085938 L 23.4375 26.085938 C 23.65625 25.703125 23.789062 25.257812 23.789062 24.78125 C 23.789062 23.34375 22.621094 22.175781 21.179688 22.175781 C 20.183594 22.175781 19.320312 22.730469 18.878906 23.550781 C 18.4375 22.730469 17.574219 22.175781 16.578125 22.175781 C 15.136719 22.175781 13.96875 23.34375 13.96875 24.78125 C 13.96875 25.257812 14.101562 25.703125 14.320312 26.085938 L 10.433594 26.085938 C 10.433594 27.527344 11.691406 28.695312 13.128906 28.695312 L 13.042969 28.695312 C 13.042969 30.136719 14.210938 31.304688 15.652344 31.304688 C 15.652344 32.582031 16.570312 33.640625 17.777344 33.867188 L 15.722656 38.507812 C 16.707031 38.910156 17.785156 39.128906 18.914062 39.128906 C 20.042969 39.128906 21.117188 38.910156 22.105469 38.507812 L 20.046875 33.867188 C 21.257812 33.640625 22.175781 32.582031 22.175781 31.304688 C 23.613281 31.304688 24.78125 30.136719 24.78125 28.695312 L 24.695312 28.695312 C 26.136719 28.695312 27.390625 27.527344 27.390625 26.085938 Z M 27.390625 26.085938 "/>
</svg>
