<?xml version="1.0" encoding="UTF-8"?>
<svg width="16px" height="12px" viewBox="0 0 16 12" version="1.1" xmlns="http://www.w3.org/2000/svg" xmlns:xlink="http://www.w3.org/1999/xlink">
    <!-- Generator: Sketch 56.3 (81716) - https://sketch.com -->
    <title>ads-dark</title>
    <desc>Created with Sketch.</desc>
    <g id="Page-1" stroke="none" stroke-width="1" fill="none" fill-rule="evenodd">
        <g id="adsicon" fill="#020D1C" fill-rule="nonzero">
            <path d="M8,0 C10.9455187,0 13.6121853,2 16,6 C13.6121853,10 10.9455187,12 8,12 C5.05448133,12 2.38781467,10 0,6 C2.38781467,2 5.05448133,0 8,0 Z M8,2 C6.13956656,2 4.30346168,3.20266302 2.49208076,5.81745137 L2.368,6 L2.49208076,6.18254863 C4.2387695,8.7039517 6.00844775,9.9122943 7.80076096,9.9953884 L8,10 C9.86043344,10 11.6965383,8.797337 13.5079192,6.18254863 L13.631,6 L13.5079192,5.81745137 C11.7612305,3.29604832 9.99155225,2.08770568 8.19923904,2.00461157 L8,2 Z M8,4 C9.1045695,4 10,4.8954305 10,6 C10,7.1045695 9.1045695,8 8,8 C6.8954305,8 6,7.1045695 6,6 C6,4.8954305 6.8954305,4 8,4 Z" id="Combined-Shape"></path>
        </g>
    </g>
</svg>