<?xml version="1.0" encoding="UTF-8"?>
<svg xmlns="http://www.w3.org/2000/svg" xmlns:xlink="http://www.w3.org/1999/xlink" width="60" height="60" viewBox="0 0 60 60">
<path fill-rule="nonzero" fill="rgb(100%, 85.490196%, 26.666667%)" fill-opacity="1" d="M 15 55.984375 C 19.414062 58.539062 24.535156 60 30 60 C 35.464844 60 40.585938 58.539062 45 55.984375 L 45 4.015625 C 40.585938 1.460938 35.464844 0 30 0 C 24.535156 0 19.414062 1.460938 15 4.015625 Z M 15 55.984375 "/>
<path fill-rule="nonzero" fill="rgb(0%, 32.156863%, 70.588235%)" fill-opacity="1" d="M 0 29.988281 C 0.00390625 18.132812 6.886719 7.882812 16.875 3.015625 L 16.875 56.984375 C 6.886719 52.117188 0.00390625 41.867188 0 30.007812 C 0 30.007812 0 30.003906 0 30 C 0 29.996094 0 29.992188 0 29.988281 Z M 0 29.988281 "/>
<path fill-rule="nonzero" fill="rgb(84.705882%, 0%, 15.294118%)" fill-opacity="1" d="M 60 30 C 60 18.136719 53.117188 7.882812 43.125 3.015625 L 43.125 56.984375 C 53.117188 52.117188 60 41.863281 60 30 Z M 60 30 "/>
<path fill-rule="nonzero" fill="rgb(84.705882%, 0%, 15.294118%)" fill-opacity="1" d="M 30 40.433594 L 30 30 L 37.824219 30 L 37.824219 33.914062 C 37.824219 34.59375 36.523438 37.082031 33.300781 39.128906 C 32.082031 39.90625 30.820312 40.15625 30 40.433594 Z M 30 40.433594 "/>
<path fill-rule="nonzero" fill="rgb(84.705882%, 0%, 15.294118%)" fill-opacity="1" d="M 22.175781 22.175781 L 30 22.175781 L 30 30 L 22.175781 30 Z M 22.175781 22.175781 "/>
<path fill-rule="nonzero" fill="rgb(100%, 59.607843%, 6.666667%)" fill-opacity="1" d="M 33.914062 19.566406 C 33.914062 18.125 32.746094 16.957031 31.304688 16.957031 C 30.828125 16.957031 30.382812 17.085938 30 17.308594 C 29.617188 17.085938 29.171875 16.957031 28.695312 16.957031 C 27.253906 16.957031 26.085938 18.125 26.085938 19.566406 L 19.566406 19.566406 L 19.566406 32.609375 C 19.566406 37.464844 23.421875 40.273438 26.445312 41.726562 C 26.21875 42.113281 26.085938 42.5625 26.085938 43.042969 C 26.085938 44.484375 27.253906 45.652344 28.695312 45.652344 C 29.171875 45.652344 29.617188 45.523438 30 45.300781 C 30.382812 45.523438 30.828125 45.652344 31.304688 45.652344 C 32.746094 45.652344 33.914062 44.484375 33.914062 43.042969 C 33.914062 42.5625 33.78125 42.113281 33.554688 41.726562 C 36.578125 40.273438 40.433594 37.464844 40.433594 32.609375 L 40.433594 19.566406 Z M 36.523438 32.609375 C 36.523438 33.289062 36.523438 35.355469 33.300781 37.402344 C 32.082031 38.179688 30.820312 38.683594 30 38.960938 C 29.179688 38.683594 27.917969 38.179688 26.699219 37.402344 C 23.476562 35.355469 23.476562 33.289062 23.476562 32.609375 L 23.476562 23.476562 L 36.519531 23.476562 L 36.519531 32.609375 Z M 36.523438 32.609375 "/>
</svg>
