<?xml version="1.0" encoding="UTF-8"?>
<svg xmlns="http://www.w3.org/2000/svg" xmlns:xlink="http://www.w3.org/1999/xlink" width="20" height="20" viewBox="0 0 20 20">
<path fill-rule="nonzero" fill="rgb(100%, 85.490196%, 26.666667%)" fill-opacity="1" d="M 5 18.664062 C 6.472656 19.511719 8.179688 20 10 20 C 11.820312 20 13.527344 19.511719 15 18.664062 L 15 1.335938 C 13.527344 0.488281 11.820312 0 10 0 C 8.179688 0 6.472656 0.488281 5 1.335938 Z M 5 18.664062 "/>
<path fill-rule="nonzero" fill="rgb(0%, 32.156863%, 70.588235%)" fill-opacity="1" d="M 0 9.996094 C 0 6.042969 2.296875 2.628906 5.625 1.003906 L 5.625 18.996094 C 2.296875 17.371094 0 13.957031 0 10.003906 C 0 10 0 10 0 10 C 0 10 0 9.996094 0 9.996094 Z M 0 9.996094 "/>
<path fill-rule="nonzero" fill="rgb(84.705882%, 0%, 15.294118%)" fill-opacity="1" d="M 20 10 C 20 6.046875 17.707031 2.628906 14.375 1.003906 L 14.375 18.996094 C 17.707031 17.371094 20 13.953125 20 10 Z M 20 10 "/>
<path fill-rule="nonzero" fill="rgb(84.705882%, 0%, 15.294118%)" fill-opacity="1" d="M 10 13.476562 L 10 10 L 12.609375 10 L 12.609375 11.304688 C 12.609375 11.53125 12.175781 12.359375 11.101562 13.042969 C 10.695312 13.300781 10.273438 13.386719 10 13.476562 Z M 10 13.476562 "/>
<path fill-rule="nonzero" fill="rgb(84.705882%, 0%, 15.294118%)" fill-opacity="1" d="M 7.390625 7.390625 L 10 7.390625 L 10 10 L 7.390625 10 Z M 7.390625 7.390625 "/>
<path fill-rule="nonzero" fill="rgb(100%, 59.607843%, 6.666667%)" fill-opacity="1" d="M 11.304688 6.523438 C 11.304688 6.042969 10.914062 5.652344 10.433594 5.652344 C 10.277344 5.652344 10.128906 5.695312 10 5.769531 C 9.871094 5.695312 9.722656 5.652344 9.566406 5.652344 C 9.085938 5.652344 8.695312 6.042969 8.695312 6.523438 L 6.523438 6.523438 L 6.523438 10.871094 C 6.523438 12.488281 7.808594 13.425781 8.816406 13.910156 C 8.738281 14.039062 8.695312 14.1875 8.695312 14.347656 C 8.695312 14.828125 9.085938 15.21875 9.566406 15.21875 C 9.722656 15.21875 9.871094 15.175781 10 15.101562 C 10.128906 15.175781 10.277344 15.21875 10.433594 15.21875 C 10.914062 15.21875 11.304688 14.828125 11.304688 14.347656 C 11.304688 14.1875 11.261719 14.039062 11.183594 13.910156 C 12.191406 13.425781 13.476562 12.488281 13.476562 10.871094 L 13.476562 6.523438 Z M 12.175781 10.871094 C 12.175781 11.097656 12.175781 11.785156 11.101562 12.46875 C 10.695312 12.726562 10.273438 12.894531 10 12.988281 C 9.726562 12.894531 9.304688 12.726562 8.898438 12.46875 C 7.824219 11.785156 7.824219 11.097656 7.824219 10.871094 L 7.824219 7.824219 L 12.171875 7.824219 L 12.171875 10.871094 Z M 12.175781 10.871094 "/>
</svg>
