<?xml version="1.0" encoding="UTF-8"?>
<svg xmlns="http://www.w3.org/2000/svg" xmlns:xlink="http://www.w3.org/1999/xlink" width="40" height="40" viewBox="0 0 40 40">
<path fill-rule="nonzero" fill="rgb(100%, 85.490196%, 26.666667%)" fill-opacity="1" d="M 10 37.324219 C 12.941406 39.027344 16.355469 40 20 40 C 23.644531 40 27.058594 39.027344 30 37.324219 L 30 2.675781 C 27.058594 0.972656 23.644531 0 20 0 C 16.355469 0 12.941406 0.972656 10 2.675781 Z M 10 37.324219 "/>
<path fill-rule="nonzero" fill="rgb(0%, 32.156863%, 70.588235%)" fill-opacity="1" d="M 0 19.992188 C 0.00390625 12.089844 4.589844 5.253906 11.25 2.011719 L 11.25 37.988281 C 4.589844 34.746094 0.00390625 27.910156 0 20.007812 C 0 20.003906 0 20 0 20 C 0 19.996094 0 19.996094 0 19.992188 Z M 0 19.992188 "/>
<path fill-rule="nonzero" fill="rgb(84.705882%, 0%, 15.294118%)" fill-opacity="1" d="M 40 20 C 40 12.09375 35.410156 5.257812 28.75 2.011719 L 28.75 37.988281 C 35.410156 34.742188 40 27.910156 40 20 Z M 40 20 "/>
<path fill-rule="nonzero" fill="rgb(84.705882%, 0%, 15.294118%)" fill-opacity="1" d="M 20 26.957031 L 20 20 L 25.21875 20 L 25.21875 22.609375 C 25.21875 23.0625 24.347656 24.722656 22.203125 26.085938 C 21.390625 26.605469 20.546875 26.769531 20 26.957031 Z M 20 26.957031 "/>
<path fill-rule="nonzero" fill="rgb(84.705882%, 0%, 15.294118%)" fill-opacity="1" d="M 14.78125 14.78125 L 20 14.78125 L 20 20 L 14.78125 20 Z M 14.78125 14.78125 "/>
<path fill-rule="nonzero" fill="rgb(100%, 59.607843%, 6.666667%)" fill-opacity="1" d="M 22.609375 13.042969 C 22.609375 12.082031 21.828125 11.304688 20.871094 11.304688 C 20.550781 11.304688 20.257812 11.390625 20 11.539062 C 19.742188 11.390625 19.449219 11.304688 19.128906 11.304688 C 18.167969 11.304688 17.390625 12.082031 17.390625 13.042969 L 13.042969 13.042969 L 13.042969 21.738281 C 13.042969 24.976562 15.613281 26.847656 17.628906 27.820312 C 17.480469 28.078125 17.390625 28.375 17.390625 28.695312 C 17.390625 29.65625 18.171875 30.433594 19.128906 30.433594 C 19.449219 30.433594 19.742188 30.347656 20 30.199219 C 20.257812 30.347656 20.550781 30.433594 20.871094 30.433594 C 21.828125 30.433594 22.609375 29.65625 22.609375 28.695312 C 22.609375 28.375 22.519531 28.078125 22.371094 27.820312 C 24.386719 26.847656 26.957031 24.976562 26.957031 21.738281 L 26.957031 13.042969 Z M 24.347656 21.738281 C 24.347656 22.191406 24.347656 23.570312 22.203125 24.9375 C 21.386719 25.453125 20.546875 25.789062 20 25.972656 C 19.453125 25.789062 18.609375 25.453125 17.796875 24.9375 C 15.652344 23.570312 15.652344 22.191406 15.652344 21.738281 L 15.652344 15.652344 L 24.347656 15.652344 Z M 24.347656 21.738281 "/>
</svg>
