<?xml version="1.0" encoding="UTF-8"?>
<svg xmlns="http://www.w3.org/2000/svg" xmlns:xlink="http://www.w3.org/1999/xlink" width="60" height="60" viewBox="0 0 60 60">
<path fill-rule="nonzero" fill="rgb(20%, 54.117647%, 95.294118%)" fill-opacity="1" d="M 60 30 C 60 46.570312 46.570312 60 30 60 C 13.429688 60 0 46.570312 0 30 C 0 13.429688 13.429688 0 30 0 C 46.570312 0 60 13.429688 60 30 Z M 60 30 "/>
<path fill-rule="evenodd" fill="rgb(100%, 85.490196%, 26.666667%)" fill-opacity="1" d="M 19.648438 30.324219 L 13.042969 30.324219 C 13.042969 32.667969 15.082031 34.566406 17.425781 34.566406 L 17.28125 34.566406 C 17.28125 36.90625 19.179688 38.804688 21.523438 38.804688 C 21.523438 41.144531 23.421875 43.042969 25.761719 43.042969 L 34.238281 43.042969 C 36.582031 43.042969 38.480469 41.144531 38.480469 38.804688 C 40.820312 38.804688 42.71875 36.90625 42.71875 34.566406 L 42.578125 34.566406 C 44.917969 34.566406 46.957031 32.667969 46.957031 30.324219 L 40.351562 30.324219 C 38.371094 34.015625 34.480469 36.519531 30 36.519531 C 25.523438 36.519531 21.628906 34.015625 19.648438 30.324219 Z M 19.648438 30.324219 "/>
<path fill-rule="nonzero" fill="rgb(100%, 85.490196%, 26.666667%)" fill-opacity="1" d="M 38.96875 24.78125 L 35.304688 26.507812 L 37.253906 30.054688 L 33.277344 29.292969 L 32.773438 33.3125 L 30 30.355469 L 27.230469 33.3125 L 26.726562 29.292969 L 22.746094 30.054688 L 24.699219 26.507812 L 21.035156 24.78125 L 24.699219 23.058594 L 22.746094 19.511719 L 26.726562 20.273438 L 27.230469 16.253906 L 30 19.210938 L 32.773438 16.253906 L 33.277344 20.273438 L 37.253906 19.511719 L 35.304688 23.058594 Z M 38.96875 24.78125 "/>
</svg>
