<?xml version="1.0" encoding="UTF-8"?>
<svg xmlns="http://www.w3.org/2000/svg" xmlns:xlink="http://www.w3.org/1999/xlink" width="40" height="40" viewBox="0 0 40 40">
<path fill-rule="nonzero" fill="rgb(20%, 54.117647%, 95.294118%)" fill-opacity="1" d="M 40 20 C 40 31.046875 31.046875 40 20 40 C 8.953125 40 0 31.046875 0 20 C 0 8.953125 8.953125 0 20 0 C 31.046875 0 40 8.953125 40 20 Z M 40 20 "/>
<path fill-rule="evenodd" fill="rgb(100%, 85.490196%, 26.666667%)" fill-opacity="1" d="M 13.101562 20.21875 L 8.695312 20.21875 C 8.695312 21.777344 10.054688 23.042969 11.617188 23.042969 L 11.523438 23.042969 C 11.523438 24.605469 12.789062 25.871094 14.347656 25.871094 C 14.347656 27.429688 15.613281 28.695312 17.175781 28.695312 L 22.828125 28.695312 C 24.386719 28.695312 25.652344 27.429688 25.652344 25.871094 C 27.214844 25.871094 28.480469 24.605469 28.480469 23.042969 L 28.382812 23.042969 C 29.945312 23.042969 31.304688 21.777344 31.304688 20.21875 L 26.902344 20.21875 C 25.582031 22.675781 22.984375 24.347656 20 24.347656 C 17.015625 24.347656 14.417969 22.675781 13.101562 20.21875 Z M 13.101562 20.21875 "/>
<path fill-rule="nonzero" fill="rgb(100%, 85.490196%, 26.666667%)" fill-opacity="1" d="M 25.976562 16.523438 L 23.535156 17.671875 L 24.835938 20.035156 L 22.183594 19.527344 L 21.847656 22.207031 L 20 20.238281 L 18.152344 22.207031 L 17.816406 19.527344 L 15.164062 20.035156 L 16.464844 17.671875 L 14.023438 16.523438 L 16.464844 15.371094 L 15.164062 13.007812 L 17.816406 13.515625 L 18.152344 10.835938 L 20 12.804688 L 21.847656 10.835938 L 22.183594 13.515625 L 24.835938 13.007812 L 23.535156 15.375 Z M 25.976562 16.523438 "/>
</svg>
