<?xml version="1.0" encoding="UTF-8"?>
<svg xmlns="http://www.w3.org/2000/svg" xmlns:xlink="http://www.w3.org/1999/xlink" width="20" height="20" viewBox="0 0 20 20">
<path fill-rule="nonzero" fill="rgb(20%, 54.117647%, 95.294118%)" fill-opacity="1" d="M 20 10 C 20 15.523438 15.523438 20 10 20 C 4.476562 20 0 15.523438 0 10 C 0 4.476562 4.476562 0 10 0 C 15.523438 0 20 4.476562 20 10 Z M 20 10 "/>
<path fill-rule="evenodd" fill="rgb(100%, 85.490196%, 26.666667%)" fill-opacity="1" d="M 6.550781 10.109375 L 4.347656 10.109375 C 4.347656 10.890625 5.027344 11.523438 5.808594 11.523438 L 5.761719 11.523438 C 5.761719 12.300781 6.394531 12.933594 7.175781 12.933594 C 7.175781 13.714844 7.808594 14.347656 8.585938 14.347656 L 11.414062 14.347656 C 12.195312 14.347656 12.828125 13.714844 12.828125 12.933594 C 13.605469 12.933594 14.238281 12.300781 14.238281 11.523438 L 14.191406 11.523438 C 14.972656 11.523438 15.652344 10.890625 15.652344 10.109375 L 13.449219 10.109375 C 12.789062 11.335938 11.492188 12.171875 10 12.171875 C 8.507812 12.171875 7.210938 11.335938 6.550781 10.109375 Z M 6.550781 10.109375 "/>
<path fill-rule="nonzero" fill="rgb(100%, 85.490196%, 26.666667%)" fill-opacity="1" d="M 12.988281 8.261719 L 11.769531 8.835938 L 12.417969 10.019531 L 11.09375 9.765625 L 10.925781 11.105469 L 10 10.117188 L 9.078125 11.105469 L 8.910156 9.765625 L 7.582031 10.019531 L 8.234375 8.835938 L 7.011719 8.261719 L 8.234375 7.6875 L 7.582031 6.503906 L 8.910156 6.757812 L 9.078125 5.417969 L 10 6.402344 L 10.925781 5.417969 L 11.09375 6.757812 L 12.417969 6.503906 L 11.769531 7.6875 Z M 12.988281 8.261719 "/>
</svg>
