<?xml version="1.0" encoding="UTF-8"?>
<svg xmlns="http://www.w3.org/2000/svg" xmlns:xlink="http://www.w3.org/1999/xlink" width="40" height="40" viewBox="0 0 40 40">
<path fill-rule="nonzero" fill="rgb(100%, 85.490196%, 26.666667%)" fill-opacity="1" d="M 40 20 C 40 31.046875 31.046875 40 20 40 C 8.953125 40 0 31.046875 0 20 C 0 8.953125 8.953125 0 20 0 C 31.046875 0 40 8.953125 40 20 Z M 40 20 "/>
<path fill-rule="evenodd" fill="rgb(100%, 59.607843%, 6.666667%)" fill-opacity="1" d="M 7.5 4.386719 C 8.378906 3.683594 9.320312 3.050781 10.308594 2.5 L 15 2.5 L 15 37.5 L 10.308594 37.5 C 9.320312 36.949219 8.378906 36.316406 7.5 35.613281 Z M 7.5 4.386719 "/>
<path fill-rule="evenodd" fill="rgb(63.529412%, 0%, 11.372549%)" fill-opacity="1" d="M 38.238281 11.78125 L 38.238281 11.785156 C 37.183594 12.738281 36.523438 14.117188 36.523438 15.652344 C 36.523438 16.59375 36.773438 17.5 37.207031 18.261719 C 36.320312 18.253906 35.464844 18.257812 34.714844 18.261719 C 34.066406 18.261719 33.492188 18.265625 33.042969 18.261719 L 33.042969 13.042969 C 33.042969 12.171875 31.738281 11.304688 31.738281 11.304688 C 31.738281 11.304688 30.433594 12.171875 30.433594 13.042969 L 25.21875 13.042969 L 25.21875 18.261719 L 27.828125 18.261719 L 27.828125 20.871094 C 27.828125 21.441406 27.941406 21.988281 28.148438 22.484375 L 26.957031 23.476562 L 23.480469 23.476562 L 23.480469 7.390625 C 22.039062 7.390625 20.871094 8.558594 20.871094 10 L 20.871094 21.304688 C 20.871094 22.078125 21.207031 22.769531 21.738281 23.25 L 21.738281 27.390625 L 23.480469 27.390625 L 23.480469 25.21875 L 31.304688 25.21875 L 31.304688 28.695312 L 29.566406 28.695312 L 29.566406 30.433594 L 33.042969 30.433594 L 33.042969 26.957031 L 34.636719 25.21875 L 38.40625 25.21875 L 39.09375 25.96875 C 37.550781 30.910156 34.140625 35.03125 29.691406 37.5 L 17.5 37.5 L 17.5 2.5 L 29.691406 2.5 C 33.445312 4.585938 36.460938 7.84375 38.238281 11.785156 Z M 38.238281 11.78125 "/>
<path fill-rule="evenodd" fill="rgb(42.745098%, 64.705882%, 26.666667%)" fill-opacity="1" d="M 7.5 35.613281 C 2.925781 31.949219 0 26.316406 0 20 C 0 13.683594 2.925781 8.050781 7.5 4.386719 Z M 7.5 35.613281 "/>
</svg>
