<?xml version="1.0" encoding="UTF-8"?>
<svg xmlns="http://www.w3.org/2000/svg" xmlns:xlink="http://www.w3.org/1999/xlink" width="20" height="20" viewBox="0 0 20 20">
<path fill-rule="nonzero" fill="rgb(100%, 85.490196%, 26.666667%)" fill-opacity="1" d="M 20 10 C 20 15.523438 15.523438 20 10 20 C 4.476562 20 0 15.523438 0 10 C 0 4.476562 4.476562 0 10 0 C 15.523438 0 20 4.476562 20 10 Z M 20 10 "/>
<path fill-rule="evenodd" fill="rgb(100%, 59.607843%, 6.666667%)" fill-opacity="1" d="M 3.75 2.191406 C 4.1875 1.839844 4.660156 1.523438 5.15625 1.25 L 7.5 1.25 L 7.5 18.75 L 5.15625 18.75 C 4.660156 18.476562 4.191406 18.160156 3.75 17.808594 Z M 3.75 2.191406 "/>
<path fill-rule="evenodd" fill="rgb(63.529412%, 0%, 11.372549%)" fill-opacity="1" d="M 19.121094 5.890625 C 18.59375 6.367188 18.261719 7.058594 18.261719 7.824219 C 18.261719 8.296875 18.386719 8.75 18.605469 9.128906 C 18.160156 9.125 17.734375 9.128906 17.359375 9.128906 C 17.03125 9.132812 16.746094 9.132812 16.523438 9.128906 L 16.523438 6.523438 C 16.523438 6.085938 15.871094 5.652344 15.871094 5.652344 C 15.871094 5.652344 15.21875 6.085938 15.21875 6.523438 L 12.609375 6.523438 L 12.609375 9.128906 L 13.914062 9.128906 L 13.914062 10.433594 C 13.914062 10.722656 13.972656 10.992188 14.074219 11.242188 L 13.476562 11.738281 L 11.738281 11.738281 L 11.738281 3.695312 C 11.019531 3.695312 10.433594 4.28125 10.433594 5 L 10.433594 10.652344 C 10.433594 11.039062 10.601562 11.386719 10.871094 11.625 L 10.871094 13.695312 L 11.738281 13.695312 L 11.738281 12.609375 L 15.652344 12.609375 L 15.652344 14.347656 L 14.78125 14.347656 L 14.78125 15.21875 L 16.523438 15.21875 L 16.523438 13.476562 L 17.320312 12.609375 L 19.203125 12.609375 L 19.546875 12.984375 C 18.777344 15.457031 17.070312 17.515625 14.84375 18.75 L 8.75 18.75 L 8.75 1.25 L 14.84375 1.25 C 16.722656 2.292969 18.230469 3.921875 19.121094 5.890625 Z M 19.121094 5.890625 "/>
<path fill-rule="evenodd" fill="rgb(42.745098%, 64.705882%, 26.666667%)" fill-opacity="1" d="M 3.75 17.804688 C 1.464844 15.972656 0 13.15625 0 10 C 0 6.84375 1.464844 4.027344 3.75 2.195312 Z M 3.75 17.804688 "/>
</svg>
