<?xml version="1.0" encoding="UTF-8"?>
<svg xmlns="http://www.w3.org/2000/svg" xmlns:xlink="http://www.w3.org/1999/xlink" width="60" height="60" viewBox="0 0 60 60">
<path fill-rule="nonzero" fill="rgb(100%, 85.490196%, 26.666667%)" fill-opacity="1" d="M 60 30 C 60 46.570312 46.570312 60 30 60 C 13.429688 60 0 46.570312 0 30 C 0 13.429688 13.429688 0 30 0 C 46.570312 0 60 13.429688 60 30 Z M 60 30 "/>
<path fill-rule="evenodd" fill="rgb(100%, 59.607843%, 6.666667%)" fill-opacity="1" d="M 11.25 6.578125 C 12.570312 5.523438 13.976562 4.574219 15.464844 3.75 L 22.5 3.75 L 22.5 56.25 L 15.464844 56.25 C 13.976562 55.425781 12.570312 54.476562 11.25 53.421875 Z M 11.25 6.578125 "/>
<path fill-rule="evenodd" fill="rgb(63.529412%, 0%, 11.372549%)" fill-opacity="1" d="M 57.359375 17.675781 C 55.777344 19.105469 54.78125 21.175781 54.78125 23.476562 C 54.78125 24.890625 55.160156 26.246094 55.8125 27.390625 C 54.480469 27.378906 53.199219 27.386719 52.074219 27.390625 C 51.097656 27.394531 50.238281 27.398438 49.566406 27.390625 L 49.566406 19.566406 C 49.566406 18.261719 47.609375 16.957031 47.609375 16.957031 C 47.609375 16.957031 45.652344 18.261719 45.652344 19.566406 L 37.828125 19.566406 L 37.828125 27.390625 L 41.738281 27.390625 L 41.738281 31.304688 C 41.738281 32.164062 41.914062 32.980469 42.226562 33.726562 L 40.433594 35.21875 L 35.21875 35.21875 L 35.21875 11.085938 C 33.058594 11.085938 31.304688 12.839844 31.304688 15 L 31.304688 31.957031 C 31.304688 33.117188 31.808594 34.15625 32.609375 34.871094 L 32.609375 41.085938 L 35.21875 41.085938 L 35.21875 37.828125 L 46.957031 37.828125 L 46.957031 43.042969 L 44.347656 43.042969 L 44.347656 45.652344 L 49.566406 45.652344 L 49.566406 40.433594 L 51.957031 37.828125 L 57.609375 37.828125 L 58.640625 38.953125 C 56.328125 46.367188 51.210938 52.546875 44.535156 56.25 L 26.25 56.25 L 26.25 3.75 L 44.535156 3.75 C 50.171875 6.878906 54.691406 11.769531 57.359375 17.675781 Z M 57.359375 17.675781 "/>
<path fill-rule="evenodd" fill="rgb(42.745098%, 64.705882%, 26.666667%)" fill-opacity="1" d="M 11.25 53.421875 C 4.390625 47.921875 0 39.472656 0 30 C 0 20.527344 4.390625 12.078125 11.25 6.582031 Z M 11.25 53.421875 "/>
</svg>
