<svg width="32" height="32" viewBox="0 0 32 32" fill="none" xmlns="http://www.w3.org/2000/svg">
<g opacity="0.7">
<path fill-rule="evenodd" clip-rule="evenodd" d="M10.6259 18.0738L8.40763 16.0403C10.3819 14.1566 13.0559 13 16 13C18.9441 13 21.6181 14.1566 23.5924 16.0403L21.3741 18.0738C19.9539 16.7852 18.0687 16 16 16C13.9313 16 12.046 16.7852 10.6259 18.0738ZM16 10C19.793 10 23.2066 11.6244 25.5831 14.2155L27.7945 12.1883C24.8697 8.99929 20.6683 7 16 7C11.3317 7 7.13033 8.99929 4.20546 12.1883L6.41694 14.2155C8.79339 11.6244 12.207 10 16 10ZM19.1457 21.338C19.4386 21.0451 19.4386 20.5703 19.1457 20.2774C18.8528 19.9845 18.378 19.9845 18.0851 20.2774L15.2308 23.1316L14.0688 21.9697C13.7759 21.6768 13.301 21.6768 13.0081 21.9697C12.7152 22.2626 12.7152 22.7374 13.0081 23.0303L14.7004 24.7226L15.2308 25.253L15.7611 24.7226L19.1457 21.338Z" fill="white"/>
</g>
</svg>
