<?xml version="1.0" encoding="UTF-8"?>
<svg xmlns="http://www.w3.org/2000/svg" xmlns:xlink="http://www.w3.org/1999/xlink" width="20" height="20" viewBox="0 0 20 20">
<path fill-rule="nonzero" fill="rgb(0%, 32.156863%, 70.588235%)" fill-opacity="1" d="M 10 20 C 15.515625 20 19.988281 15.535156 20 10.019531 L 20 10 L 10 8.75 L 0 10 C 0 15.523438 4.476562 20 10 20 Z M 10 20 "/>
<path fill-rule="nonzero" fill="rgb(84.705882%, 0%, 15.294118%)" fill-opacity="1" d="M 20 9.980469 L 20 10 L 0 10 C 0 4.476562 4.476562 0 10 0 C 15.515625 0 19.988281 4.464844 20 9.980469 Z M 20 9.980469 "/>
<path fill-rule="evenodd" fill="rgb(42.745098%, 64.705882%, 26.666667%)" fill-opacity="1" d="M 20 9.972656 L 20 10.027344 C 20 10.460938 19.96875 10.886719 19.914062 11.304688 L 10.464844 11.304688 L 3.867188 17.898438 C 1.515625 16.070312 0 13.210938 0 10 C 0 6.789062 1.515625 3.929688 3.867188 2.101562 L 10.464844 8.695312 L 19.914062 8.695312 C 19.96875 9.113281 20 9.539062 20 9.972656 Z M 20 9.972656 "/>
<path fill-rule="evenodd" fill="rgb(93.333333%, 93.333333%, 93.333333%)" fill-opacity="1" d="M 19.671875 12.554688 L 10.980469 12.554688 L 4.921875 18.617188 C 4.554688 18.398438 4.203125 18.160156 3.867188 17.898438 L 10.519531 11.25 L 19.921875 11.25 C 19.867188 11.695312 19.78125 12.128906 19.671875 12.554688 Z M 4.921875 1.382812 L 10.980469 7.445312 L 19.671875 7.445312 C 19.78125 7.871094 19.867188 8.304688 19.921875 8.75 L 10.519531 8.75 L 3.867188 2.101562 C 4.203125 1.839844 4.554688 1.601562 4.921875 1.382812 Z M 4.921875 1.382812 "/>
<path fill-rule="evenodd" fill="rgb(20%, 20%, 20%)" fill-opacity="1" d="M 2.109375 16.140625 C 0.785156 14.445312 0 12.316406 0 10 C 0 7.683594 0.785156 5.554688 2.109375 3.859375 L 8.25 10 Z M 2.109375 16.140625 "/>
<path fill-rule="evenodd" fill="rgb(100%, 85.490196%, 26.666667%)" fill-opacity="1" d="M 1.390625 4.910156 C 1.609375 4.542969 1.847656 4.191406 2.109375 3.859375 L 8.25 10 L 2.109375 16.140625 C 1.847656 15.808594 1.609375 15.457031 1.390625 15.089844 L 6.480469 10 Z M 1.390625 4.910156 "/>
</svg>
