<?xml version="1.0" encoding="UTF-8"?>
<svg xmlns="http://www.w3.org/2000/svg" xmlns:xlink="http://www.w3.org/1999/xlink" width="60" height="60" viewBox="0 0 60 60">
<path fill-rule="nonzero" fill="rgb(0%, 32.156863%, 70.588235%)" fill-opacity="1" d="M 30 60 C 46.550781 60 59.96875 46.601562 60 30.058594 L 60 30 L 30 26.25 L 0 30 C 0 46.566406 13.433594 60 30 60 Z M 30 60 "/>
<path fill-rule="nonzero" fill="rgb(84.705882%, 0%, 15.294118%)" fill-opacity="1" d="M 60 29.941406 L 60 30 L 0 30 C 0 13.433594 13.433594 0 30 0 C 46.550781 0 59.96875 13.398438 60 29.941406 Z M 60 29.941406 "/>
<path fill-rule="evenodd" fill="rgb(42.745098%, 64.705882%, 26.666667%)" fill-opacity="1" d="M 60 29.921875 L 60 30.078125 C 59.996094 31.378906 59.910156 32.65625 59.746094 33.914062 L 31.390625 33.914062 L 11.601562 53.699219 C 4.542969 48.210938 0 39.636719 0 30 C 0 20.363281 4.542969 11.789062 11.601562 6.296875 L 31.390625 26.085938 L 59.746094 26.085938 C 59.910156 27.339844 59.996094 28.621094 60 29.917969 Z M 60 29.921875 "/>
<path fill-rule="evenodd" fill="rgb(93.333333%, 93.333333%, 93.333333%)" fill-opacity="1" d="M 59.011719 37.664062 L 32.945312 37.664062 L 14.761719 55.84375 C 13.660156 55.195312 12.609375 54.480469 11.605469 53.699219 L 31.554688 33.75 L 59.769531 33.75 C 59.601562 35.082031 59.347656 36.390625 59.011719 37.660156 Z M 14.757812 4.152344 L 32.941406 22.335938 L 59.011719 22.335938 C 59.347656 23.609375 59.601562 24.914062 59.765625 26.25 L 31.554688 26.25 L 11.601562 6.300781 C 12.605469 5.519531 13.660156 4.800781 14.761719 4.152344 Z M 14.757812 4.152344 "/>
<path fill-rule="evenodd" fill="rgb(20%, 20%, 20%)" fill-opacity="1" d="M 6.324219 48.425781 C 2.359375 43.339844 0 36.945312 0 30 C 0 23.054688 2.359375 16.660156 6.324219 11.574219 L 24.75 30 Z M 6.324219 48.425781 "/>
<path fill-rule="evenodd" fill="rgb(100%, 85.490196%, 26.666667%)" fill-opacity="1" d="M 4.171875 14.726562 C 4.824219 13.628906 5.542969 12.574219 6.324219 11.574219 L 24.75 30 L 6.324219 48.425781 C 5.542969 47.425781 4.824219 46.371094 4.171875 45.273438 L 19.445312 30 Z M 4.171875 14.726562 "/>
</svg>
