<?xml version="1.0" encoding="UTF-8"?>
<svg xmlns="http://www.w3.org/2000/svg" xmlns:xlink="http://www.w3.org/1999/xlink" width="40" height="40" viewBox="0 0 40 40">
<path fill-rule="nonzero" fill="rgb(0%, 32.156863%, 70.588235%)" fill-opacity="1" d="M 20 40 C 31.03125 40 39.980469 31.066406 40 20.039062 L 40 20 L 20 17.5 L 0 20 C 0 31.046875 8.953125 40 20 40 Z M 20 40 "/>
<path fill-rule="nonzero" fill="rgb(84.705882%, 0%, 15.294118%)" fill-opacity="1" d="M 40 19.960938 L 40 20 L 0 20 C 0 8.953125 8.953125 0 20 0 C 31.03125 0 39.980469 8.933594 40 19.960938 Z M 40 19.960938 "/>
<path fill-rule="evenodd" fill="rgb(42.745098%, 64.705882%, 26.666667%)" fill-opacity="1" d="M 40 19.949219 L 40 20.050781 C 39.996094 20.917969 39.941406 21.773438 39.832031 22.609375 L 20.925781 22.609375 L 7.734375 35.800781 C 3.027344 32.140625 0 26.421875 0 20 C 0 13.574219 3.027344 7.859375 7.734375 4.199219 L 20.925781 17.390625 L 39.832031 17.390625 C 39.941406 18.226562 39.996094 19.082031 40 19.945312 Z M 40 19.949219 "/>
<path fill-rule="evenodd" fill="rgb(93.333333%, 93.333333%, 93.333333%)" fill-opacity="1" d="M 39.339844 25.109375 L 21.960938 25.109375 L 9.839844 37.230469 C 9.109375 36.796875 8.40625 36.320312 7.738281 35.800781 L 21.035156 22.5 L 39.847656 22.5 C 39.734375 23.386719 39.566406 24.257812 39.34375 25.109375 Z M 9.839844 2.769531 L 21.960938 14.890625 L 39.339844 14.890625 C 39.566406 15.738281 39.734375 16.609375 39.84375 17.5 L 21.035156 17.5 L 7.734375 4.199219 C 8.40625 3.679688 9.105469 3.199219 9.839844 2.769531 Z M 9.839844 2.769531 "/>
<path fill-rule="evenodd" fill="rgb(20%, 20%, 20%)" fill-opacity="1" d="M 4.214844 32.285156 C 1.574219 28.894531 0 24.632812 0 20 C 0 15.367188 1.574219 11.105469 4.214844 7.714844 L 16.5 20 Z M 4.214844 32.285156 "/>
<path fill-rule="evenodd" fill="rgb(100%, 85.490196%, 26.666667%)" fill-opacity="1" d="M 2.78125 9.816406 C 3.214844 9.085938 3.695312 8.382812 4.214844 7.714844 L 16.5 20 L 4.214844 32.285156 C 3.695312 31.617188 3.214844 30.914062 2.78125 30.183594 L 12.964844 20 L 2.78125 9.820312 Z M 2.78125 9.816406 "/>
</svg>
