<?xml version="1.0" encoding="UTF-8"?>
<svg xmlns="http://www.w3.org/2000/svg" xmlns:xlink="http://www.w3.org/1999/xlink" width="20" height="20" viewBox="0 0 20 20">
<path fill-rule="nonzero" fill="rgb(42.745098%, 64.705882%, 26.666667%)" fill-opacity="1" d="M 18.824219 14.707031 C 17.140625 17.855469 13.820312 20 10 20 C 6.179688 20 2.859375 17.855469 1.175781 14.707031 L 10 12.5 Z M 18.824219 14.707031 "/>
<path fill-rule="nonzero" fill="rgb(100%, 85.490196%, 26.666667%)" fill-opacity="1" d="M 18.664062 15 C 19.511719 13.527344 20 11.820312 20 10 L 10 7.5 L 0 10 C 0 11.820312 0.488281 13.527344 1.335938 15 Z M 18.664062 15 "/>
<path fill-rule="nonzero" fill="rgb(0%, 32.156863%, 70.588235%)" fill-opacity="1" d="M 18.421875 4.605469 C 19.421875 6.160156 20 8.011719 20 10 L 0 10 C 0 8.011719 0.578125 6.160156 1.578125 4.605469 L 10 2.5 Z M 18.421875 4.605469 "/>
<path fill-rule="nonzero" fill="rgb(84.705882%, 0%, 15.294118%)" fill-opacity="1" d="M 18.664062 5 L 1.335938 5 C 3.066406 2.011719 6.296875 0 10 0 C 13.703125 0 16.933594 2.011719 18.664062 5 Z M 18.664062 5 "/>
</svg>
