<?xml version="1.0" encoding="UTF-8"?>
<svg xmlns="http://www.w3.org/2000/svg" xmlns:xlink="http://www.w3.org/1999/xlink" width="40" height="40" viewBox="0 0 40 40">
<path fill-rule="nonzero" fill="rgb(42.745098%, 64.705882%, 26.666667%)" fill-opacity="1" d="M 37.652344 29.414062 C 34.285156 35.710938 27.640625 40 20 40 C 12.359375 40 5.714844 35.714844 2.347656 29.414062 L 20 25 Z M 37.652344 29.414062 "/>
<path fill-rule="nonzero" fill="rgb(100%, 85.490196%, 26.666667%)" fill-opacity="1" d="M 37.324219 30 C 39.027344 27.058594 40 23.644531 40 20 L 20 15 L 0 20 C 0 23.644531 0.972656 27.058594 2.675781 30 Z M 37.324219 30 "/>
<path fill-rule="nonzero" fill="rgb(0%, 32.156863%, 70.588235%)" fill-opacity="1" d="M 36.84375 9.210938 C 38.839844 12.324219 40 16.027344 40 20 L 0 20 C 0 16.027344 1.160156 12.324219 3.15625 9.210938 L 20 5 Z M 36.84375 9.210938 "/>
<path fill-rule="nonzero" fill="rgb(84.705882%, 0%, 15.294118%)" fill-opacity="1" d="M 37.324219 10 L 2.675781 10 C 6.132812 4.023438 12.597656 0 20 0 C 27.402344 0 33.867188 4.023438 37.324219 10 Z M 37.324219 10 "/>
</svg>
