<?xml version="1.0" encoding="UTF-8"?>
<svg xmlns="http://www.w3.org/2000/svg" xmlns:xlink="http://www.w3.org/1999/xlink" width="60" height="60" viewBox="0 0 60 60">
<path fill-rule="nonzero" fill="rgb(42.745098%, 64.705882%, 26.666667%)" fill-opacity="1" d="M 56.476562 44.117188 C 51.425781 53.570312 41.464844 60 30 60 C 18.535156 60 8.574219 53.570312 3.523438 44.117188 L 30 37.5 Z M 56.476562 44.117188 "/>
<path fill-rule="nonzero" fill="rgb(100%, 85.490196%, 26.666667%)" fill-opacity="1" d="M 55.984375 45 C 58.539062 40.585938 60 35.464844 60 30 L 30 22.5 L 0 30 C 0 35.464844 1.460938 40.585938 4.011719 45 Z M 55.984375 45 "/>
<path fill-rule="nonzero" fill="rgb(0%, 32.156863%, 70.588235%)" fill-opacity="1" d="M 55.265625 13.816406 C 58.261719 18.484375 60 24.039062 60 30 L 0 30 C 0 24.039062 1.738281 18.484375 4.734375 13.816406 L 30 7.5 Z M 55.265625 13.816406 "/>
<path fill-rule="nonzero" fill="rgb(84.705882%, 0%, 15.294118%)" fill-opacity="1" d="M 55.984375 15 L 4.015625 15 C 9.199219 6.03125 18.898438 0 30 0 C 41.101562 0 50.800781 6.03125 55.984375 15 Z M 55.984375 15 "/>
</svg>
