<?xml version="1.0" encoding="UTF-8"?>
<svg xmlns="http://www.w3.org/2000/svg" xmlns:xlink="http://www.w3.org/1999/xlink" width="40" height="40" viewBox="0 0 40 40">
<path fill-rule="nonzero" fill="rgb(93.333333%, 93.333333%, 93.333333%)" fill-opacity="1" d="M 40 20 C 40 31.046875 31.046875 40 20 40 C 8.953125 40 0 31.046875 0 20 C 0 8.953125 8.953125 0 20 0 C 31.046875 0 40 8.953125 40 20 Z M 40 20 "/>
<path fill-rule="evenodd" fill="rgb(0%, 32.156863%, 70.588235%)" fill-opacity="1" d="M 32.453125 4.347656 C 34.277344 5.800781 35.839844 7.566406 37.066406 9.566406 L 2.933594 9.566406 C 4.160156 7.566406 5.722656 5.800781 7.546875 4.347656 Z M 32.453125 35.652344 C 34.277344 34.199219 35.839844 32.433594 37.066406 30.433594 L 2.933594 30.433594 C 4.160156 32.433594 5.722656 34.199219 7.546875 35.652344 Z M 32.453125 35.652344 "/>
<path fill-rule="nonzero" fill="rgb(0%, 32.156863%, 70.588235%)" fill-opacity="1" d="M 27.53125 15.652344 L 22.511719 15.652344 L 20 11.304688 L 17.488281 15.652344 L 12.46875 15.652344 L 14.980469 20 L 12.46875 24.347656 L 17.488281 24.347656 L 20 28.695312 L 22.511719 24.347656 L 27.53125 24.347656 L 25.019531 20 Z M 23.082031 20 L 21.542969 22.671875 L 18.457031 22.671875 L 16.914062 20 L 18.457031 17.328125 L 21.542969 17.328125 Z M 20 14.65625 L 20.574219 15.652344 L 19.425781 15.652344 Z M 15.375 17.328125 L 16.523438 17.328125 L 15.949219 18.324219 Z M 15.375 22.671875 L 15.949219 21.675781 L 16.523438 22.671875 Z M 20 25.34375 L 19.425781 24.347656 L 20.574219 24.347656 Z M 24.625 22.671875 L 23.476562 22.671875 L 24.050781 21.675781 Z M 23.476562 17.328125 L 24.625 17.328125 L 24.050781 18.324219 Z M 23.476562 17.328125 "/>
</svg>
