<?xml version="1.0" encoding="UTF-8"?>
<svg xmlns="http://www.w3.org/2000/svg" xmlns:xlink="http://www.w3.org/1999/xlink" width="20" height="20" viewBox="0 0 20 20">
<path fill-rule="nonzero" fill="rgb(93.333333%, 93.333333%, 93.333333%)" fill-opacity="1" d="M 20 10 C 20 15.523438 15.523438 20 10 20 C 4.476562 20 0 15.523438 0 10 C 0 4.476562 4.476562 0 10 0 C 15.523438 0 20 4.476562 20 10 Z M 20 10 "/>
<path fill-rule="evenodd" fill="rgb(0%, 32.156863%, 70.588235%)" fill-opacity="1" d="M 16.226562 2.175781 C 17.136719 2.902344 17.921875 3.785156 18.53125 4.78125 L 1.46875 4.78125 C 2.078125 3.785156 2.863281 2.902344 3.773438 2.175781 Z M 16.226562 17.824219 C 17.136719 17.097656 17.921875 16.214844 18.53125 15.21875 L 1.46875 15.21875 C 2.078125 16.214844 2.863281 17.097656 3.773438 17.824219 Z M 16.226562 17.824219 "/>
<path fill-rule="nonzero" fill="rgb(0%, 32.156863%, 70.588235%)" fill-opacity="1" d="M 13.765625 7.828125 L 11.253906 7.828125 L 10 5.652344 L 8.746094 7.824219 L 6.234375 7.824219 L 7.488281 10 L 6.234375 12.175781 L 8.746094 12.175781 L 10 14.347656 L 11.253906 12.175781 L 13.765625 12.175781 L 12.511719 10 L 13.765625 7.824219 Z M 11.542969 10 L 10.769531 11.335938 L 9.230469 11.335938 L 8.457031 10 L 9.230469 8.664062 L 10.769531 8.664062 Z M 10 7.328125 L 10.285156 7.824219 L 9.714844 7.824219 Z M 7.6875 8.664062 L 8.261719 8.664062 L 7.972656 9.160156 Z M 7.6875 11.335938 L 7.972656 10.839844 L 8.261719 11.335938 Z M 10 12.671875 L 9.714844 12.175781 L 10.285156 12.175781 Z M 12.3125 11.335938 L 11.738281 11.335938 L 12.027344 10.839844 Z M 11.738281 8.664062 L 12.3125 8.664062 L 12.027344 9.160156 Z M 11.738281 8.664062 "/>
</svg>
