<?xml version="1.0" encoding="UTF-8"?>
<svg xmlns="http://www.w3.org/2000/svg" xmlns:xlink="http://www.w3.org/1999/xlink" width="60" height="60" viewBox="0 0 60 60">
<path fill-rule="nonzero" fill="rgb(93.333333%, 93.333333%, 93.333333%)" fill-opacity="1" d="M 60 30 C 60 46.570312 46.570312 60 30 60 C 13.429688 60 0 46.570312 0 30 C 0 13.429688 13.429688 0 30 0 C 46.570312 0 60 13.429688 60 30 Z M 60 30 "/>
<path fill-rule="evenodd" fill="rgb(0%, 32.156863%, 70.588235%)" fill-opacity="1" d="M 48.675781 6.523438 C 51.414062 8.703125 53.761719 11.351562 55.597656 14.347656 L 4.402344 14.347656 C 6.238281 11.351562 8.585938 8.703125 11.324219 6.523438 Z M 48.675781 53.476562 C 51.414062 51.296875 53.761719 48.648438 55.597656 45.652344 L 4.402344 45.652344 C 6.238281 48.648438 8.585938 51.296875 11.320312 53.476562 Z M 48.675781 53.476562 "/>
<path fill-rule="nonzero" fill="rgb(0%, 32.156863%, 70.588235%)" fill-opacity="1" d="M 41.296875 23.476562 L 33.765625 23.476562 L 30 16.957031 L 26.234375 23.476562 L 18.703125 23.476562 L 22.46875 30 L 18.703125 36.523438 L 26.234375 36.523438 L 30 43.042969 L 33.765625 36.523438 L 41.296875 36.523438 L 37.53125 30 Z M 34.625 30 L 32.3125 34.007812 L 27.6875 34.007812 L 25.375 30 L 27.6875 25.992188 L 32.3125 25.992188 Z M 30 21.988281 L 30.859375 23.476562 L 29.140625 23.476562 Z M 23.058594 25.992188 L 24.78125 25.992188 L 23.921875 27.484375 Z M 23.058594 34.007812 L 23.921875 32.515625 L 24.78125 34.007812 Z M 30 38.011719 L 29.140625 36.523438 L 30.859375 36.523438 Z M 36.9375 34.007812 L 35.21875 34.007812 L 36.078125 32.515625 Z M 35.21875 25.992188 L 36.9375 25.992188 L 36.078125 27.484375 Z M 35.21875 25.992188 "/>
</svg>
