<?xml version="1.0" encoding="UTF-8"?>
<svg width="16px" height="16px" viewBox="0 0 16 16" version="1.1" xmlns="http://www.w3.org/2000/svg" xmlns:xlink="http://www.w3.org/1999/xlink">
    <!-- Generator: Sketch 56.3 (81716) - https://sketch.com -->
    <title>crypto-dark</title>
    <desc>Created with Sketch.</desc>
    <g id="Page-1" stroke="none" stroke-width="1" fill="none" fill-rule="evenodd">
        <g id="cryptoicon" fill="#020D1C" fill-rule="nonzero">
            <path d="M14.292893,0.292893 L15.7071066,1.70710656 L13.6071074,3.80879415 C14.4818817,4.97720851 14.9999998,6.42809767 14.9999998,7.99999978 C14.9999998,9.57234935 14.4815867,11.0236171 13.6063603,12.1922031 L15.7071066,14.292893 L14.292893,15.7071066 L12.1922031,13.6063603 C11.0236171,14.4815867 9.57234935,14.9999998 7.99999978,14.9999998 C6.42809767,14.9999998 4.97720851,14.4818817 3.80879415,13.6071074 L1.70710656,15.7071066 L0.292893,14.292893 L2.39438658,12.1932007 C1.51870797,11.024443 0.999999781,9.5727968 0.999999781,7.99999978 C0.999999781,6.42765021 1.51841287,4.97638251 2.39363929,3.80779643 L0.292893,1.70710656 L1.70710656,0.292893 L3.80779643,2.39363929 C4.97638251,1.51841287 6.42765021,0.999999781 7.99999978,0.999999781 C9.5727968,0.999999781 11.024443,1.51870797 12.1932007,2.39438658 L14.292893,0.292893 Z M7.999893,9.413893 L5.24255197,12.1715649 C6.0329966,12.6951081 6.98089256,12.9999998 7.99999978,12.9999998 C9.019107,12.9999998 9.96700296,12.6951081 10.7574476,12.1715649 L7.999893,9.413893 Z M2.99999978,7.99999978 C2.99999978,9.01954215 3.30515186,9.96781242 3.82910543,10.75846 L6.585893,7.999893 L3.82843468,5.24255197 C3.30489144,6.0329966 2.99999978,6.98089256 2.99999978,7.99999978 Z M12.1715649,5.24255197 L9.413893,7.999893 L12.1715649,10.7574476 C12.6951081,9.96700296 12.9999998,9.019107 12.9999998,7.99999978 C12.9999998,6.98089256 12.6951081,6.0329966 12.1715649,5.24255197 Z M7.99999978,2.99999978 C6.98089256,2.99999978 6.0329966,3.30489144 5.24255197,3.82843468 L7.999893,6.585893 L10.75846,3.82910543 C9.96781242,3.30515186 9.01954215,2.99999978 7.99999978,2.99999978 Z" id="Combined-Shape"></path>
        </g>
    </g>
</svg>