<?xml version="1.0" encoding="UTF-8"?>
<svg xmlns="http://www.w3.org/2000/svg" xmlns:xlink="http://www.w3.org/1999/xlink" width="40" height="40" viewBox="0 0 40 40">
<path fill-rule="nonzero" fill="rgb(93.333333%, 93.333333%, 93.333333%)" fill-opacity="1" d="M 37.324219 30 C 39.027344 27.058594 40 23.644531 40 20 C 40 16.355469 39.027344 12.941406 37.324219 10 L 2.675781 10 C 0.972656 12.941406 0 16.355469 0 20 C 0 23.644531 0.972656 27.058594 2.675781 30 Z M 37.324219 30 "/>
<path fill-rule="nonzero" fill="rgb(0%, 32.156863%, 70.588235%)" fill-opacity="1" d="M 19.992188 40 C 12.089844 39.996094 5.253906 35.410156 2.011719 28.75 L 37.988281 28.75 C 34.746094 35.410156 27.910156 39.996094 20.007812 40 Z M 19.992188 40 "/>
<path fill-rule="nonzero" fill="rgb(0%, 32.156863%, 70.588235%)" fill-opacity="1" d="M 20 0 C 12.09375 0 5.257812 4.589844 2.011719 11.25 L 37.988281 11.25 C 34.742188 4.589844 27.910156 0 20 0 Z M 20 0 "/>
<path fill-rule="nonzero" fill="rgb(100%, 77.647059%, 20.784314%)" fill-opacity="1" d="M 15.984375 20.871094 L 20 13.914062 L 24.015625 20.871094 Z M 15.984375 20.871094 "/>
<path fill-rule="nonzero" fill="rgb(42.745098%, 64.705882%, 26.666667%)" fill-opacity="1" d="M 25.21875 23.167969 L 20 25.773438 L 14.78125 23.167969 L 14.78125 19.6875 L 25.21875 19.6875 Z M 25.21875 23.167969 "/>
<path fill-rule="nonzero" fill="rgb(100%, 77.647059%, 20.784314%)" fill-opacity="1" d="M 24.917969 14.210938 L 23.074219 16.054688 C 23.859375 16.84375 24.347656 17.929688 24.347656 19.128906 C 24.347656 21.53125 22.402344 23.476562 20 23.476562 C 17.597656 23.476562 15.652344 21.53125 15.652344 19.128906 C 15.652344 17.929688 16.140625 16.84375 16.925781 16.054688 L 15.082031 14.210938 C 13.820312 15.46875 13.042969 17.210938 13.042969 19.128906 C 13.042969 22.972656 16.15625 26.085938 20 26.085938 C 23.84375 26.085938 26.957031 22.972656 26.957031 19.128906 C 26.957031 17.210938 26.175781 15.46875 24.917969 14.210938 Z M 24.917969 14.210938 "/>
</svg>
