<?xml version="1.0" encoding="UTF-8"?>
<svg xmlns="http://www.w3.org/2000/svg" xmlns:xlink="http://www.w3.org/1999/xlink" width="60" height="60" viewBox="0 0 60 60">
<path fill-rule="nonzero" fill="rgb(93.333333%, 93.333333%, 93.333333%)" fill-opacity="1" d="M 55.984375 45 C 58.539062 40.585938 60 35.464844 60 30 C 60 24.535156 58.539062 19.414062 55.984375 15 L 4.015625 15 C 1.460938 19.414062 0 24.535156 0 30 C 0 35.464844 1.460938 40.585938 4.015625 45 Z M 55.984375 45 "/>
<path fill-rule="nonzero" fill="rgb(0%, 32.156863%, 70.588235%)" fill-opacity="1" d="M 29.988281 60 C 18.132812 59.996094 7.882812 53.113281 3.015625 43.125 L 56.984375 43.125 C 52.117188 53.113281 41.867188 59.996094 30.007812 60 Z M 29.988281 60 "/>
<path fill-rule="nonzero" fill="rgb(0%, 32.156863%, 70.588235%)" fill-opacity="1" d="M 30 0 C 18.136719 0 7.882812 6.882812 3.015625 16.875 L 56.984375 16.875 C 52.117188 6.882812 41.863281 0 30 0 Z M 30 0 "/>
<path fill-rule="nonzero" fill="rgb(100%, 77.647059%, 20.784314%)" fill-opacity="1" d="M 23.976562 31.304688 L 30 20.871094 L 36.023438 31.304688 Z M 23.976562 31.304688 "/>
<path fill-rule="nonzero" fill="rgb(42.745098%, 64.705882%, 26.666667%)" fill-opacity="1" d="M 37.824219 34.75 L 30 38.664062 L 22.171875 34.75 L 22.171875 29.53125 L 37.828125 29.53125 L 37.828125 34.75 Z M 37.824219 34.75 "/>
<path fill-rule="nonzero" fill="rgb(100%, 77.647059%, 20.784314%)" fill-opacity="1" d="M 37.378906 21.316406 L 34.609375 24.085938 C 35.792969 25.265625 36.523438 26.894531 36.523438 28.695312 C 36.523438 32.296875 33.601562 35.21875 30 35.21875 C 26.398438 35.21875 23.476562 32.296875 23.476562 28.695312 C 23.476562 26.894531 24.207031 25.265625 25.386719 24.085938 L 22.621094 21.316406 C 20.734375 23.207031 19.566406 25.8125 19.566406 28.695312 C 19.566406 34.460938 24.238281 39.128906 30 39.128906 C 35.761719 39.128906 40.433594 34.460938 40.433594 28.695312 C 40.433594 25.8125 39.265625 23.207031 37.378906 21.316406 Z M 37.378906 21.316406 "/>
</svg>
