<?xml version="1.0" encoding="UTF-8"?>
<svg xmlns="http://www.w3.org/2000/svg" xmlns:xlink="http://www.w3.org/1999/xlink" width="20" height="20" viewBox="0 0 20 20">
<path fill-rule="nonzero" fill="rgb(93.333333%, 93.333333%, 93.333333%)" fill-opacity="1" d="M 18.664062 15 C 19.511719 13.527344 20 11.820312 20 10 C 20 8.179688 19.511719 6.472656 18.664062 5 L 1.335938 5 C 0.488281 6.472656 0 8.179688 0 10 C 0 11.820312 0.488281 13.527344 1.335938 15 Z M 18.664062 15 "/>
<path fill-rule="nonzero" fill="rgb(0%, 32.156863%, 70.588235%)" fill-opacity="1" d="M 9.996094 20 C 6.042969 20 2.628906 17.703125 1.003906 14.375 L 18.996094 14.375 C 17.371094 17.703125 13.957031 20 10.003906 20 Z M 9.996094 20 "/>
<path fill-rule="nonzero" fill="rgb(0%, 32.156863%, 70.588235%)" fill-opacity="1" d="M 10 0 C 6.046875 0 2.628906 2.292969 1.003906 5.625 L 18.996094 5.625 C 17.371094 2.292969 13.953125 0 10 0 Z M 10 0 "/>
<path fill-rule="nonzero" fill="rgb(100%, 77.647059%, 20.784314%)" fill-opacity="1" d="M 7.992188 10.433594 L 10 6.957031 L 12.007812 10.433594 Z M 7.992188 10.433594 "/>
<path fill-rule="nonzero" fill="rgb(42.745098%, 64.705882%, 26.666667%)" fill-opacity="1" d="M 12.609375 11.582031 L 10 12.886719 L 7.390625 11.582031 L 7.390625 9.84375 L 12.609375 9.84375 Z M 12.609375 11.582031 "/>
<path fill-rule="nonzero" fill="rgb(100%, 77.647059%, 20.784314%)" fill-opacity="1" d="M 12.460938 7.105469 L 11.535156 8.027344 C 11.929688 8.421875 12.171875 8.964844 12.171875 9.566406 C 12.171875 10.765625 11.199219 11.738281 10 11.738281 C 8.800781 11.738281 7.824219 10.765625 7.824219 9.566406 C 7.824219 8.964844 8.070312 8.421875 8.460938 8.027344 L 7.539062 7.105469 C 6.910156 7.734375 6.523438 8.605469 6.523438 9.566406 C 6.523438 11.488281 8.078125 13.042969 10 13.042969 C 11.921875 13.042969 13.476562 11.484375 13.476562 9.566406 C 13.476562 8.605469 13.089844 7.734375 12.460938 7.105469 Z M 12.460938 7.105469 "/>
</svg>
