<?xml version="1.0" encoding="UTF-8"?>
<svg xmlns="http://www.w3.org/2000/svg" xmlns:xlink="http://www.w3.org/1999/xlink" width="40" height="40" viewBox="0 0 40 40">
<path fill-rule="nonzero" fill="rgb(84.705882%, 0%, 15.294118%)" fill-opacity="1" d="M 40 20 C 40 31.046875 31.046875 40 20 40 C 8.953125 40 0 31.046875 0 20 C 0 8.953125 8.953125 0 20 0 C 31.046875 0 40 8.953125 40 20 Z M 40 20 "/>
<path fill-rule="evenodd" fill="rgb(42.745098%, 64.705882%, 26.666667%)" fill-opacity="1" d="M 22.285156 16.855469 L 20 9.824219 L 17.714844 16.855469 L 10.320312 16.855469 L 16.304688 21.199219 L 14.019531 28.234375 L 20 23.886719 L 25.980469 28.234375 L 23.699219 21.199219 L 29.679688 16.855469 Z M 18.804688 16.855469 L 20 13.175781 L 21.195312 16.855469 Z M 21.53125 17.890625 L 18.46875 17.890625 L 17.523438 20.804688 L 20 22.605469 L 22.476562 20.804688 Z M 17.378906 17.890625 L 16.640625 20.164062 L 13.511719 17.890625 Z M 17.183594 21.839844 L 15.988281 25.519531 L 19.117188 23.246094 Z M 20.882812 23.246094 L 22.816406 21.839844 L 24.011719 25.519531 Z M 23.359375 20.164062 L 26.488281 17.890625 L 22.621094 17.890625 Z M 23.359375 20.164062 "/>
<path fill-rule="nonzero" fill="rgb(42.745098%, 64.705882%, 26.666667%)" fill-opacity="1" d="M 20 9.824219 L 20.074219 9.796875 L 20 9.570312 L 19.925781 9.796875 Z M 22.285156 16.855469 L 22.210938 16.878906 L 22.226562 16.933594 L 22.285156 16.933594 Z M 17.714844 16.855469 L 17.714844 16.933594 L 17.773438 16.933594 L 17.789062 16.878906 Z M 10.320312 16.855469 L 10.320312 16.777344 L 10.082031 16.777344 L 10.273438 16.917969 Z M 16.304688 21.203125 L 16.378906 21.226562 L 16.394531 21.171875 L 16.347656 21.136719 Z M 14.019531 28.234375 L 13.945312 28.210938 L 13.871094 28.4375 L 14.0625 28.296875 Z M 20 23.886719 L 20.046875 23.824219 L 20 23.789062 L 19.953125 23.824219 Z M 25.980469 28.234375 L 25.9375 28.296875 L 26.128906 28.4375 L 26.054688 28.210938 Z M 23.695312 21.203125 L 23.652344 21.136719 L 23.605469 21.171875 L 23.621094 21.226562 L 23.695312 21.199219 Z M 29.679688 16.855469 L 29.726562 16.917969 L 29.917969 16.777344 L 29.679688 16.777344 Z M 18.804688 16.855469 L 18.730469 16.832031 L 18.695312 16.933594 L 18.804688 16.933594 Z M 20 13.175781 L 20.074219 13.152344 L 20 12.925781 L 19.925781 13.152344 Z M 21.195312 16.855469 L 21.195312 16.933594 L 21.304688 16.933594 L 21.269531 16.832031 Z M 21.53125 17.890625 L 21.605469 17.867188 L 21.589844 17.8125 L 21.53125 17.8125 Z M 18.46875 17.890625 L 18.46875 17.8125 L 18.410156 17.8125 L 18.394531 17.867188 Z M 17.523438 20.804688 L 17.449219 20.78125 L 17.429688 20.835938 L 17.476562 20.867188 Z M 20 22.605469 L 19.953125 22.667969 L 20 22.703125 L 20.046875 22.667969 Z M 22.476562 20.804688 L 22.523438 20.867188 L 22.570312 20.835938 L 22.550781 20.78125 Z M 16.640625 20.164062 L 16.59375 20.226562 L 16.679688 20.292969 L 16.714844 20.1875 Z M 17.378906 17.890625 L 17.453125 17.914062 L 17.488281 17.8125 L 17.378906 17.8125 Z M 13.511719 17.890625 L 13.511719 17.8125 L 13.269531 17.8125 L 13.464844 17.953125 Z M 15.988281 25.519531 L 15.914062 25.496094 L 15.839844 25.722656 L 16.035156 25.582031 Z M 17.183594 21.839844 L 17.230469 21.777344 L 17.144531 21.714844 L 17.109375 21.816406 Z M 19.117188 23.246094 L 19.164062 23.308594 L 19.25 23.246094 L 19.164062 23.183594 Z M 22.816406 21.839844 L 22.890625 21.816406 L 22.855469 21.714844 L 22.769531 21.777344 Z M 20.882812 23.246094 L 20.835938 23.183594 L 20.75 23.246094 L 20.835938 23.308594 Z M 24.011719 25.519531 L 23.964844 25.582031 L 24.160156 25.722656 L 24.085938 25.496094 Z M 26.488281 17.890625 L 26.535156 17.953125 L 26.730469 17.8125 L 26.488281 17.8125 Z M 23.359375 20.164062 L 23.285156 20.1875 L 23.320312 20.292969 L 23.40625 20.226562 Z M 22.621094 17.890625 L 22.621094 17.8125 L 22.511719 17.8125 L 22.546875 17.914062 Z M 19.925781 9.847656 L 22.210938 16.878906 L 22.359375 16.832031 L 20.074219 9.796875 Z M 17.789062 16.878906 L 20.074219 9.847656 L 19.925781 9.796875 L 17.640625 16.832031 Z M 10.320312 16.933594 L 17.714844 16.933594 L 17.714844 16.777344 L 10.320312 16.777344 Z M 16.347656 21.136719 L 10.367188 16.792969 L 10.273438 16.917969 L 16.257812 21.265625 Z M 14.09375 28.257812 L 16.378906 21.226562 L 16.230469 21.175781 L 13.945312 28.210938 Z M 19.953125 23.824219 L 13.972656 28.171875 L 14.0625 28.296875 L 20.046875 23.949219 Z M 26.027344 28.171875 L 20.046875 23.824219 L 19.953125 23.949219 L 25.9375 28.296875 Z M 23.621094 21.226562 L 25.90625 28.257812 L 26.054688 28.210938 L 23.773438 21.175781 Z M 29.632812 16.792969 L 23.652344 21.136719 L 23.742188 21.265625 L 29.726562 16.917969 Z M 22.285156 16.933594 L 29.679688 16.933594 L 29.679688 16.777344 L 22.285156 16.777344 Z M 18.878906 16.878906 L 20.074219 13.203125 L 19.925781 13.152344 L 18.730469 16.832031 Z M 19.925781 13.203125 L 21.121094 16.878906 L 21.269531 16.832031 L 20.074219 13.152344 Z M 18.804688 16.933594 L 21.195312 16.933594 L 21.195312 16.777344 L 18.804688 16.777344 Z M 21.53125 17.8125 L 18.46875 17.8125 L 18.46875 17.96875 L 21.53125 17.96875 Z M 17.597656 20.828125 L 18.542969 17.917969 L 18.394531 17.867188 L 17.449219 20.78125 Z M 20.046875 22.542969 L 17.566406 20.742188 L 17.476562 20.867188 L 19.953125 22.667969 Z M 22.433594 20.742188 L 19.953125 22.542969 L 20.046875 22.667969 L 22.523438 20.867188 Z M 21.457031 17.917969 L 22.402344 20.828125 L 22.550781 20.78125 L 21.605469 17.867188 Z M 16.714844 20.1875 L 17.453125 17.914062 L 17.304688 17.867188 L 16.566406 20.140625 Z M 13.464844 17.953125 L 16.59375 20.226562 L 16.6875 20.101562 L 13.558594 17.828125 Z M 17.378906 17.8125 L 13.511719 17.8125 L 13.511719 17.96875 L 17.378906 17.96875 Z M 16.0625 25.542969 L 17.257812 21.867188 L 17.109375 21.816406 L 15.914062 25.496094 Z M 19.074219 23.183594 L 15.945312 25.457031 L 16.035156 25.582031 L 19.164062 23.308594 Z M 17.140625 21.90625 L 19.074219 23.308594 L 19.164062 23.183594 L 17.230469 21.777344 Z M 22.769531 21.777344 L 20.835938 23.183594 L 20.925781 23.308594 L 22.859375 21.90625 Z M 24.085938 25.496094 L 22.890625 21.816406 L 22.742188 21.867188 L 23.9375 25.542969 Z M 20.835938 23.308594 L 23.964844 25.582031 L 24.054688 25.457031 L 20.925781 23.183594 Z M 26.441406 17.828125 L 23.3125 20.101562 L 23.40625 20.226562 L 26.535156 17.953125 Z M 22.621094 17.96875 L 26.488281 17.96875 L 26.488281 17.8125 L 22.621094 17.8125 Z M 23.433594 20.140625 L 22.695312 17.867188 L 22.546875 17.914062 L 23.285156 20.1875 Z M 23.433594 20.140625 "/>
</svg>
