<?xml version="1.0" encoding="UTF-8"?>
<svg xmlns="http://www.w3.org/2000/svg" xmlns:xlink="http://www.w3.org/1999/xlink" width="60" height="60" viewBox="0 0 60 60">
<path fill-rule="nonzero" fill="rgb(84.705882%, 0%, 15.294118%)" fill-opacity="1" d="M 60 30 C 60 46.570312 46.570312 60 30 60 C 13.429688 60 0 46.570312 0 30 C 0 13.429688 13.429688 0 30 0 C 46.570312 0 60 13.429688 60 30 Z M 60 30 "/>
<path fill-rule="evenodd" fill="rgb(42.745098%, 64.705882%, 26.666667%)" fill-opacity="1" d="M 33.429688 25.28125 L 30 14.734375 L 26.574219 25.28125 L 15.480469 25.28125 L 24.453125 31.800781 L 21.027344 42.351562 L 30 35.832031 L 38.972656 42.351562 L 35.546875 31.800781 L 44.519531 25.28125 L 33.425781 25.28125 Z M 28.207031 25.28125 L 30 19.765625 L 31.792969 25.28125 Z M 32.296875 26.839844 L 27.703125 26.839844 L 26.285156 31.207031 L 30 33.90625 L 33.71875 31.207031 Z M 26.070312 26.835938 L 24.960938 30.246094 L 20.265625 26.835938 Z M 25.777344 32.761719 L 23.984375 38.277344 L 28.679688 34.867188 Z M 31.320312 34.867188 L 34.222656 32.761719 L 36.015625 38.277344 Z M 35.039062 30.246094 L 39.734375 26.835938 L 33.933594 26.835938 Z M 35.039062 30.246094 "/>
<path fill-rule="nonzero" fill="rgb(42.745098%, 64.705882%, 26.666667%)" fill-opacity="1" d="M 30 14.734375 L 30.113281 14.699219 L 30 14.355469 L 29.886719 14.699219 Z M 33.425781 25.28125 L 33.316406 25.320312 L 33.34375 25.398438 L 33.425781 25.398438 Z M 26.574219 25.28125 L 26.574219 25.398438 L 26.65625 25.398438 L 26.683594 25.320312 Z M 15.480469 25.28125 L 15.480469 25.164062 L 15.121094 25.164062 L 15.414062 25.378906 Z M 24.453125 31.800781 L 24.566406 31.839844 L 24.59375 31.757812 L 24.523438 31.707031 Z M 21.027344 42.351562 L 20.914062 42.3125 L 20.804688 42.65625 L 21.097656 42.445312 Z M 30 35.832031 L 30.070312 35.734375 L 30 35.6875 L 29.929688 35.734375 Z M 38.972656 42.351562 L 38.902344 42.445312 L 39.195312 42.65625 L 39.085938 42.3125 Z M 35.546875 31.800781 L 35.476562 31.707031 L 35.40625 31.757812 L 35.433594 31.839844 Z M 44.519531 25.28125 L 44.585938 25.378906 L 44.878906 25.164062 L 44.519531 25.164062 Z M 28.207031 25.285156 L 28.097656 25.246094 L 28.046875 25.402344 L 28.207031 25.402344 Z M 30 19.765625 L 30.113281 19.730469 L 30 19.386719 L 29.886719 19.730469 Z M 31.792969 25.285156 L 31.792969 25.402344 L 31.953125 25.402344 L 31.90625 25.246094 Z M 32.296875 26.839844 L 32.410156 26.800781 L 32.382812 26.722656 L 32.296875 26.722656 Z M 27.703125 26.839844 L 27.703125 26.722656 L 27.617188 26.722656 L 27.589844 26.800781 Z M 26.285156 31.207031 L 26.171875 31.171875 L 26.144531 31.253906 L 26.214844 31.300781 Z M 30 33.90625 L 29.929688 34.003906 L 30 34.050781 L 30.070312 34.003906 Z M 33.714844 31.207031 L 33.785156 31.300781 L 33.855469 31.253906 L 33.828125 31.171875 Z M 24.960938 30.246094 L 24.890625 30.34375 L 25.023438 30.4375 L 25.070312 30.285156 Z M 26.070312 26.835938 L 26.179688 26.875 L 26.230469 26.71875 L 26.070312 26.71875 Z M 20.265625 26.835938 L 20.265625 26.71875 L 19.90625 26.71875 L 20.199219 26.933594 Z M 23.984375 38.28125 L 23.875 38.242188 L 23.761719 38.585938 L 24.054688 38.375 Z M 25.777344 32.761719 L 25.847656 32.667969 L 25.714844 32.570312 L 25.664062 32.726562 Z M 28.679688 34.871094 L 28.746094 34.964844 L 28.878906 34.871094 L 28.746094 34.773438 Z M 34.222656 32.761719 L 34.335938 32.726562 L 34.285156 32.570312 L 34.152344 32.667969 Z M 31.320312 34.871094 L 31.253906 34.773438 L 31.121094 34.871094 L 31.253906 34.964844 Z M 36.015625 38.28125 L 35.945312 38.375 L 36.238281 38.585938 L 36.128906 38.242188 Z M 39.734375 26.835938 L 39.800781 26.933594 L 40.09375 26.71875 L 39.734375 26.71875 Z M 35.039062 30.246094 L 34.929688 30.285156 L 34.976562 30.4375 L 35.109375 30.34375 Z M 33.933594 26.835938 L 33.933594 26.71875 L 33.769531 26.71875 L 33.820312 26.875 Z M 29.886719 14.769531 L 33.316406 25.320312 L 33.539062 25.246094 L 30.113281 14.699219 Z M 26.683594 25.320312 L 30.113281 14.769531 L 29.890625 14.699219 L 26.460938 25.246094 Z M 15.480469 25.398438 L 26.574219 25.398438 L 26.574219 25.164062 L 15.480469 25.164062 Z M 24.523438 31.707031 L 15.550781 25.1875 L 15.414062 25.378906 L 24.386719 31.898438 Z M 21.136719 42.386719 L 24.566406 31.839844 L 24.34375 31.765625 L 20.914062 42.3125 Z M 29.929688 35.738281 L 20.957031 42.253906 L 21.097656 42.445312 L 30.070312 35.925781 Z M 39.042969 42.253906 L 30.070312 35.738281 L 29.929688 35.925781 L 38.902344 42.445312 Z M 35.433594 31.839844 L 38.863281 42.386719 L 39.085938 42.3125 L 35.65625 31.765625 Z M 44.449219 25.1875 L 35.476562 31.707031 L 35.613281 31.898438 L 44.585938 25.378906 Z M 33.425781 25.398438 L 44.519531 25.398438 L 44.519531 25.164062 L 33.425781 25.164062 Z M 28.320312 25.320312 L 30.113281 19.800781 L 29.890625 19.730469 L 28.097656 25.246094 Z M 29.890625 19.800781 L 31.679688 25.320312 L 31.90625 25.246094 L 30.113281 19.730469 Z M 28.207031 25.402344 L 31.792969 25.402344 L 31.792969 25.167969 L 28.207031 25.167969 Z M 32.296875 26.722656 L 27.703125 26.722656 L 27.703125 26.957031 L 32.296875 26.957031 Z M 26.394531 31.242188 L 27.816406 26.875 L 27.589844 26.800781 L 26.171875 31.171875 Z M 30.070312 33.8125 L 26.351562 31.113281 L 26.214844 31.300781 L 29.929688 34.003906 Z M 33.648438 31.113281 L 29.929688 33.8125 L 30.070312 34.003906 L 33.785156 31.300781 Z M 32.1875 26.875 L 33.605469 31.242188 L 33.828125 31.171875 L 32.410156 26.800781 Z M 25.070312 30.285156 L 26.179688 26.875 L 25.957031 26.800781 L 24.847656 30.210938 Z M 20.199219 26.933594 L 24.890625 30.34375 L 25.03125 30.152344 L 20.335938 26.742188 Z M 26.070312 26.71875 L 20.265625 26.71875 L 20.265625 26.953125 L 26.070312 26.953125 Z M 24.097656 38.316406 L 25.890625 32.796875 L 25.664062 32.726562 L 23.875 38.242188 Z M 28.609375 34.773438 L 23.914062 38.183594 L 24.054688 38.375 L 28.746094 34.964844 Z M 25.707031 32.855469 L 28.609375 34.964844 L 28.746094 34.773438 L 25.847656 32.667969 Z M 34.152344 32.667969 L 31.253906 34.773438 L 31.390625 34.964844 L 34.292969 32.855469 Z M 36.128906 38.242188 L 34.335938 32.726562 L 34.109375 32.796875 L 35.902344 38.316406 Z M 31.253906 34.964844 L 35.945312 38.375 L 36.085938 38.183594 L 31.390625 34.773438 Z M 39.664062 26.742188 L 34.972656 30.152344 L 35.109375 30.34375 L 39.800781 26.933594 Z M 33.933594 26.953125 L 39.734375 26.953125 L 39.734375 26.71875 L 33.933594 26.71875 Z M 35.152344 30.210938 L 34.042969 26.800781 L 33.820312 26.875 L 34.929688 30.285156 Z M 35.152344 30.210938 "/>
</svg>
