<?xml version="1.0" encoding="UTF-8"?>
<svg xmlns="http://www.w3.org/2000/svg" xmlns:xlink="http://www.w3.org/1999/xlink" width="20" height="20" viewBox="0 0 20 20">
<path fill-rule="nonzero" fill="rgb(84.705882%, 0%, 15.294118%)" fill-opacity="1" d="M 20 10 C 20 15.523438 15.523438 20 10 20 C 4.476562 20 0 15.523438 0 10 C 0 4.476562 4.476562 0 10 0 C 15.523438 0 20 4.476562 20 10 Z M 20 10 "/>
<path fill-rule="evenodd" fill="rgb(42.745098%, 64.705882%, 26.666667%)" fill-opacity="1" d="M 11.140625 8.425781 L 10 4.910156 L 8.859375 8.425781 L 5.160156 8.425781 L 8.152344 10.601562 L 7.007812 14.117188 L 10 11.945312 L 12.992188 14.117188 L 11.847656 10.601562 L 14.839844 8.425781 Z M 9.402344 8.425781 L 10 6.589844 L 10.597656 8.425781 Z M 10.765625 8.945312 L 9.234375 8.945312 L 8.761719 10.402344 L 10 11.300781 L 11.238281 10.402344 Z M 8.691406 8.945312 L 8.320312 10.082031 L 6.753906 8.945312 Z M 8.59375 10.921875 L 7.996094 12.757812 L 9.558594 11.621094 Z M 10.441406 11.621094 L 11.40625 10.921875 L 12.003906 12.757812 Z M 11.679688 10.082031 L 13.246094 8.945312 L 11.3125 8.945312 Z M 11.679688 10.082031 "/>
<path fill-rule="nonzero" fill="rgb(42.745098%, 64.705882%, 26.666667%)" fill-opacity="1" d="M 10 4.910156 L 10.039062 4.898438 L 10 4.785156 L 9.960938 4.898438 Z M 11.140625 8.425781 L 11.105469 8.441406 L 11.113281 8.464844 L 11.140625 8.464844 Z M 8.859375 8.425781 L 8.859375 8.464844 L 8.886719 8.464844 L 8.894531 8.441406 Z M 5.160156 8.425781 L 5.160156 8.386719 L 5.039062 8.386719 L 5.136719 8.460938 Z M 8.152344 10.601562 L 8.1875 10.613281 L 8.199219 10.585938 L 8.175781 10.570312 Z M 7.007812 14.117188 L 6.972656 14.105469 L 6.933594 14.21875 L 7.03125 14.148438 Z M 10 11.945312 L 10.023438 11.910156 L 10 11.894531 L 9.976562 11.910156 Z M 12.992188 14.117188 L 12.96875 14.148438 L 13.066406 14.21875 L 13.027344 14.105469 Z M 11.847656 10.601562 L 11.824219 10.570312 L 11.800781 10.585938 L 11.8125 10.613281 Z M 14.839844 8.425781 L 14.863281 8.460938 L 14.960938 8.386719 L 14.839844 8.386719 Z M 9.402344 8.429688 L 9.367188 8.414062 L 9.347656 8.46875 L 9.402344 8.46875 Z M 10 6.589844 L 10.039062 6.578125 L 10 6.460938 L 9.960938 6.578125 Z M 10.597656 8.429688 L 10.597656 8.46875 L 10.652344 8.46875 L 10.636719 8.414062 Z M 10.765625 8.945312 L 10.804688 8.933594 L 10.792969 8.90625 L 10.765625 8.90625 Z M 9.234375 8.945312 L 9.234375 8.90625 L 9.207031 8.90625 L 9.195312 8.933594 Z M 8.761719 10.402344 L 8.722656 10.390625 L 8.714844 10.417969 L 8.738281 10.433594 Z M 10 11.300781 L 9.976562 11.335938 L 10 11.351562 L 10.023438 11.335938 Z M 11.238281 10.402344 L 11.261719 10.433594 L 11.285156 10.417969 L 11.277344 10.390625 Z M 8.320312 10.082031 L 8.296875 10.113281 L 8.339844 10.144531 L 8.355469 10.09375 Z M 8.691406 8.945312 L 8.726562 8.957031 L 8.742188 8.90625 L 8.691406 8.90625 Z M 6.753906 8.945312 L 6.753906 8.90625 L 6.636719 8.90625 L 6.734375 8.976562 Z M 7.996094 12.761719 L 7.957031 12.746094 L 7.921875 12.863281 L 8.019531 12.792969 Z M 8.59375 10.921875 L 8.617188 10.890625 L 8.570312 10.855469 L 8.554688 10.910156 Z M 9.558594 11.625 L 9.582031 11.65625 L 9.625 11.625 L 9.582031 11.589844 Z M 11.40625 10.921875 L 11.445312 10.910156 L 11.429688 10.855469 L 11.382812 10.890625 Z M 10.441406 11.625 L 10.417969 11.589844 L 10.375 11.625 L 10.417969 11.65625 Z M 12.003906 12.761719 L 11.980469 12.792969 L 12.078125 12.863281 L 12.042969 12.746094 Z M 13.246094 8.945312 L 13.265625 8.976562 L 13.363281 8.90625 L 13.246094 8.90625 Z M 11.679688 10.082031 L 11.644531 10.09375 L 11.660156 10.144531 L 11.703125 10.113281 Z M 11.3125 8.945312 L 11.3125 8.90625 L 11.257812 8.90625 L 11.273438 8.957031 Z M 9.960938 4.921875 L 11.105469 8.441406 L 11.179688 8.414062 L 10.039062 4.898438 Z M 8.894531 8.441406 L 10.039062 4.921875 L 9.960938 4.898438 L 8.820312 8.414062 Z M 5.160156 8.464844 L 8.859375 8.464844 L 8.859375 8.386719 L 5.160156 8.386719 Z M 8.175781 10.570312 L 5.183594 8.394531 L 5.136719 8.460938 L 8.128906 10.632812 Z M 7.046875 14.128906 L 8.1875 10.613281 L 8.113281 10.589844 L 6.972656 14.105469 Z M 9.976562 11.914062 L 6.984375 14.085938 L 7.03125 14.148438 L 10.023438 11.976562 Z M 13.015625 14.085938 L 10.023438 11.914062 L 9.976562 11.976562 L 12.96875 14.148438 Z M 11.8125 10.613281 L 12.953125 14.128906 L 13.027344 14.105469 L 11.886719 10.589844 Z M 14.816406 8.394531 L 11.824219 10.570312 L 11.871094 10.632812 L 14.863281 8.460938 Z M 11.140625 8.464844 L 14.839844 8.464844 L 14.839844 8.386719 L 11.140625 8.386719 Z M 9.441406 8.441406 L 10.039062 6.601562 L 9.964844 6.578125 L 9.367188 8.414062 Z M 9.964844 6.601562 L 10.558594 8.441406 L 10.636719 8.414062 L 10.039062 6.578125 Z M 9.402344 8.46875 L 10.597656 8.46875 L 10.597656 8.390625 L 9.402344 8.390625 Z M 10.765625 8.90625 L 9.234375 8.90625 L 9.234375 8.984375 L 10.765625 8.984375 Z M 8.796875 10.414062 L 9.273438 8.957031 L 9.195312 8.933594 L 8.722656 10.390625 Z M 10.023438 11.269531 L 8.785156 10.371094 L 8.738281 10.433594 L 9.976562 11.335938 Z M 11.214844 10.371094 L 9.976562 11.269531 L 10.023438 11.335938 L 11.261719 10.433594 Z M 10.730469 8.957031 L 11.203125 10.414062 L 11.277344 10.390625 L 10.804688 8.933594 Z M 8.355469 10.09375 L 8.726562 8.957031 L 8.652344 8.933594 L 8.28125 10.070312 Z M 6.734375 8.976562 L 8.296875 10.113281 L 8.34375 10.050781 L 6.777344 8.914062 Z M 8.691406 8.90625 L 6.753906 8.90625 L 6.753906 8.984375 L 8.691406 8.984375 Z M 8.03125 12.773438 L 8.628906 10.933594 L 8.554688 10.910156 L 7.957031 12.746094 Z M 9.535156 11.589844 L 7.972656 12.726562 L 8.019531 12.792969 L 9.582031 11.65625 Z M 8.570312 10.953125 L 9.535156 11.65625 L 9.582031 11.589844 L 8.617188 10.890625 Z M 11.382812 10.890625 L 10.417969 11.589844 L 10.464844 11.65625 L 11.429688 10.953125 Z M 12.042969 12.746094 L 11.445312 10.910156 L 11.371094 10.933594 L 11.96875 12.773438 Z M 10.417969 11.65625 L 11.980469 12.792969 L 12.027344 12.726562 L 10.464844 11.589844 Z M 13.222656 8.914062 L 11.65625 10.050781 L 11.703125 10.113281 L 13.265625 8.976562 Z M 11.3125 8.984375 L 13.246094 8.984375 L 13.246094 8.90625 L 11.3125 8.90625 Z M 11.71875 10.070312 L 11.347656 8.933594 L 11.273438 8.957031 L 11.644531 10.09375 Z M 11.71875 10.070312 "/>
</svg>
