<?xml version="1.0" encoding="UTF-8"?>
<svg xmlns="http://www.w3.org/2000/svg" xmlns:xlink="http://www.w3.org/1999/xlink" width="20" height="20" viewBox="0 0 20 20">
<path fill-rule="nonzero" fill="rgb(20%, 20%, 20%)" fill-opacity="1" d="M 10 20 C 15.515625 20 19.988281 15.535156 20 10.019531 L 20 10 L 10 8.75 L 0 10 C 0 15.523438 4.476562 20 10 20 Z M 10 20 "/>
<path fill-rule="nonzero" fill="rgb(84.705882%, 0%, 15.294118%)" fill-opacity="1" d="M 20 9.980469 L 20 10 L 0 10 C 0 4.476562 4.476562 0 10 0 C 15.515625 0 19.988281 4.464844 20 9.980469 Z M 20 9.980469 "/>
<path fill-rule="nonzero" fill="rgb(100%, 85.490196%, 26.666667%)" fill-opacity="1" d="M 8.628906 7.953125 L 9.476562 8.570312 L 9.152344 9.566406 L 10 8.949219 L 10.847656 9.5625 L 10.523438 8.566406 L 11.371094 7.953125 L 10.324219 7.953125 L 10 6.957031 L 9.675781 7.953125 Z M 8.628906 7.953125 "/>
<path fill-rule="nonzero" fill="rgb(100%, 85.490196%, 26.666667%)" fill-opacity="1" d="M 12.5 5.671875 C 11.710938 5.214844 10.851562 5 10 5 L 10 6.304688 C 10.628906 6.304688 11.265625 6.464844 11.847656 6.800781 C 13.613281 7.820312 14.21875 10.082031 13.199219 11.847656 C 12.179688 13.613281 9.917969 14.21875 8.152344 13.199219 C 7.636719 12.902344 7.222656 12.5 6.917969 12.035156 L 5.828125 12.753906 C 6.242188 13.382812 6.804688 13.929688 7.5 14.332031 C 9.886719 15.707031 12.953125 14.886719 14.328125 12.5 C 15.707031 10.113281 14.886719 7.046875 12.5 5.671875 Z M 12.5 5.671875 "/>
<path fill-rule="nonzero" fill="rgb(100%, 85.490196%, 26.666667%)" fill-opacity="1" d="M 7.117188 9.128906 C 6.769531 9.761719 7.003906 10.554688 7.636719 10.902344 L 11.871094 13.214844 C 11.582031 13.742188 11.738281 14.382812 12.261719 14.671875 L 13.40625 15.296875 C 13.933594 15.585938 14.59375 15.390625 14.882812 14.867188 L 15.507812 13.722656 Z M 7.117188 9.128906 "/>
</svg>
