<?xml version="1.0" encoding="UTF-8"?>
<svg xmlns="http://www.w3.org/2000/svg" xmlns:xlink="http://www.w3.org/1999/xlink" width="60" height="60" viewBox="0 0 60 60">
<path fill-rule="nonzero" fill="rgb(20%, 20%, 20%)" fill-opacity="1" d="M 30 60 C 46.550781 60 59.96875 46.601562 60 30.058594 L 60 30 L 30 26.25 L 0 30 C 0 46.566406 13.433594 60 30 60 Z M 30 60 "/>
<path fill-rule="nonzero" fill="rgb(84.705882%, 0%, 15.294118%)" fill-opacity="1" d="M 60 29.941406 L 60 30 L 0 30 C 0 13.433594 13.433594 0 30 0 C 46.550781 0 59.96875 13.398438 60 29.941406 Z M 60 29.941406 "/>
<path fill-rule="nonzero" fill="rgb(100%, 85.490196%, 26.666667%)" fill-opacity="1" d="M 25.886719 23.859375 L 28.429688 25.707031 L 27.460938 28.695312 L 30.003906 26.847656 L 32.546875 28.691406 L 31.574219 25.703125 L 34.113281 23.855469 L 30.972656 23.859375 L 30 20.871094 L 29.027344 23.859375 Z M 25.886719 23.859375 "/>
<path fill-rule="nonzero" fill="rgb(100%, 85.490196%, 26.666667%)" fill-opacity="1" d="M 37.5 17.007812 C 35.136719 15.644531 32.550781 15 30 15.003906 L 30 18.917969 C 31.886719 18.914062 33.796875 19.390625 35.542969 20.398438 C 40.835938 23.457031 42.660156 30.25 39.601562 35.542969 C 36.542969 40.839844 29.75 42.660156 24.457031 39.601562 C 22.914062 38.710938 21.667969 37.503906 20.75 36.105469 L 17.484375 38.265625 C 18.726562 40.152344 20.414062 41.785156 22.5 42.992188 C 29.664062 47.125 38.855469 44.664062 42.988281 37.5 C 47.125 30.335938 44.664062 21.144531 37.5 17.011719 Z M 37.5 17.007812 "/>
<path fill-rule="nonzero" fill="rgb(100%, 85.490196%, 26.666667%)" fill-opacity="1" d="M 21.351562 27.390625 C 20.3125 29.289062 21.007812 31.664062 22.90625 32.703125 L 35.613281 39.648438 C 34.75 41.226562 35.210938 43.148438 36.789062 44.015625 L 40.222656 45.890625 C 41.800781 46.757812 43.785156 46.175781 44.648438 44.597656 L 46.527344 41.164062 Z M 21.351562 27.390625 "/>
</svg>
