<?xml version="1.0" encoding="UTF-8"?>
<svg xmlns="http://www.w3.org/2000/svg" xmlns:xlink="http://www.w3.org/1999/xlink" width="40" height="40" viewBox="0 0 40 40">
<path fill-rule="nonzero" fill="rgb(20%, 20%, 20%)" fill-opacity="1" d="M 20 40 C 31.03125 40 39.980469 31.066406 40 20.039062 L 40 20 L 20 17.5 L 0 20 C 0 31.046875 8.953125 40 20 40 Z M 20 40 "/>
<path fill-rule="nonzero" fill="rgb(84.705882%, 0%, 15.294118%)" fill-opacity="1" d="M 40 19.960938 L 40 20 L 0 20 C 0 8.953125 8.953125 0 20 0 C 31.03125 0 39.980469 8.933594 40 19.960938 Z M 40 19.960938 "/>
<path fill-rule="nonzero" fill="rgb(100%, 85.490196%, 26.666667%)" fill-opacity="1" d="M 17.257812 15.90625 L 18.953125 17.136719 L 18.308594 19.128906 L 20 17.898438 L 21.695312 19.128906 L 21.046875 17.136719 L 22.742188 15.902344 L 20.648438 15.90625 L 20 13.914062 L 19.351562 15.90625 Z M 17.257812 15.90625 "/>
<path fill-rule="nonzero" fill="rgb(100%, 85.490196%, 26.666667%)" fill-opacity="1" d="M 25 11.339844 C 23.425781 10.429688 21.699219 10 20 10.003906 L 20 12.613281 C 21.257812 12.609375 22.53125 12.925781 23.695312 13.597656 C 27.226562 15.636719 28.4375 20.167969 26.402344 23.695312 C 24.363281 27.226562 19.832031 28.4375 16.304688 26.402344 C 15.277344 25.808594 14.445312 25 13.832031 24.070312 L 11.65625 25.507812 C 12.484375 26.769531 13.609375 27.855469 15 28.660156 C 19.773438 31.417969 25.902344 29.777344 28.660156 25 C 31.417969 20.226562 29.773438 14.097656 25 11.339844 Z M 25 11.339844 "/>
<path fill-rule="nonzero" fill="rgb(100%, 85.490196%, 26.666667%)" fill-opacity="1" d="M 14.234375 18.261719 C 13.542969 19.523438 14.007812 21.109375 15.269531 21.800781 L 23.742188 26.429688 C 23.167969 27.484375 23.472656 28.765625 24.527344 29.34375 L 26.816406 30.59375 C 27.867188 31.171875 29.1875 30.785156 29.765625 29.730469 L 31.015625 27.441406 Z M 14.234375 18.261719 "/>
</svg>
