<?xml version="1.0" encoding="UTF-8"?>
<svg xmlns="http://www.w3.org/2000/svg" xmlns:xlink="http://www.w3.org/1999/xlink" width="20" height="20" viewBox="0 0 20 20">
<path fill-rule="nonzero" fill="rgb(100%, 85.490196%, 26.666667%)" fill-opacity="1" d="M 17.070312 17.070312 L 11.25 8.75 L 2.929688 2.929688 C 1.121094 4.738281 0 7.238281 0 10 C 0 15.484375 4.417969 19.941406 9.890625 20 L 10.113281 20 C 12.828125 19.96875 15.285156 18.855469 17.070312 17.070312 Z M 17.070312 17.070312 "/>
<path fill-rule="nonzero" fill="rgb(42.745098%, 64.705882%, 26.666667%)" fill-opacity="1" d="M 17.070312 17.070312 L 2.929688 2.929688 C 4.738281 1.117188 7.238281 0 10 0 C 15.523438 0 19.996094 4.476562 20 9.996094 L 20 10.003906 C 20 12.761719 18.878906 15.261719 17.070312 17.070312 Z M 17.070312 17.070312 "/>
<path fill-rule="nonzero" fill="rgb(84.705882%, 0%, 15.294118%)" fill-opacity="1" d="M 10 2.789062 L 11.617188 7.773438 L 16.855469 7.773438 L 12.617188 10.851562 L 14.238281 15.832031 L 10 12.753906 L 5.761719 15.832031 L 7.378906 10.851562 L 3.144531 7.773438 L 8.382812 7.773438 Z M 10 2.789062 "/>
</svg>
