<?xml version="1.0" encoding="UTF-8"?>
<svg xmlns="http://www.w3.org/2000/svg" xmlns:xlink="http://www.w3.org/1999/xlink" width="40" height="40" viewBox="0 0 40 40">
<path fill-rule="nonzero" fill="rgb(100%, 85.490196%, 26.666667%)" fill-opacity="1" d="M 34.144531 34.140625 L 22.5 17.5 L 5.859375 5.855469 C 2.238281 9.476562 0 14.476562 0 20 C 0 30.972656 8.835938 39.878906 19.777344 40 L 20.222656 40 C 25.65625 39.9375 30.574219 37.710938 34.144531 34.140625 Z M 34.144531 34.140625 "/>
<path fill-rule="nonzero" fill="rgb(42.745098%, 64.705882%, 26.666667%)" fill-opacity="1" d="M 34.144531 34.140625 L 5.859375 5.855469 C 9.476562 2.238281 14.476562 0 20 0 C 31.042969 0 39.996094 8.949219 40 19.992188 L 40 20.007812 C 40 25.527344 37.761719 30.523438 34.144531 34.140625 Z M 34.144531 34.140625 "/>
<path fill-rule="nonzero" fill="rgb(84.705882%, 0%, 15.294118%)" fill-opacity="1" d="M 20 5.578125 L 23.238281 15.542969 L 33.714844 15.542969 L 25.238281 21.703125 L 28.476562 31.667969 L 20 25.507812 L 11.523438 31.667969 L 14.761719 21.703125 L 6.285156 15.542969 L 16.761719 15.542969 Z M 20 5.578125 "/>
</svg>
