<?xml version="1.0" encoding="UTF-8"?>
<svg xmlns="http://www.w3.org/2000/svg" xmlns:xlink="http://www.w3.org/1999/xlink" width="60" height="60" viewBox="0 0 60 60">
<path fill-rule="nonzero" fill="rgb(100%, 85.490196%, 26.666667%)" fill-opacity="1" d="M 51.214844 51.210938 L 33.75 26.25 L 8.789062 8.785156 C 3.359375 14.214844 0 21.714844 0 30 C 0 46.457031 13.25 59.820312 29.667969 59.996094 L 30.335938 59.996094 C 38.488281 59.910156 45.859375 56.566406 51.214844 51.210938 Z M 51.214844 51.210938 "/>
<path fill-rule="nonzero" fill="rgb(42.745098%, 64.705882%, 26.666667%)" fill-opacity="1" d="M 51.214844 51.210938 L 8.789062 8.785156 C 14.214844 3.355469 21.714844 0 30 0 C 46.566406 0 59.992188 13.425781 60 29.988281 L 60 30.007812 C 59.996094 38.289062 56.640625 45.785156 51.214844 51.210938 Z M 51.214844 51.210938 "/>
<path fill-rule="nonzero" fill="rgb(84.705882%, 0%, 15.294118%)" fill-opacity="1" d="M 30 8.371094 L 34.855469 23.316406 L 50.570312 23.316406 L 37.855469 32.554688 L 42.714844 47.5 L 30 38.261719 L 17.285156 47.5 L 22.140625 32.554688 L 9.429688 23.316406 L 25.144531 23.316406 Z M 30 8.371094 "/>
</svg>
