<?xml version="1.0" encoding="UTF-8"?>
<svg width="16px" height="16px" viewBox="0 0 16 16" version="1.1" xmlns="http://www.w3.org/2000/svg" xmlns:xlink="http://www.w3.org/1999/xlink">
    <title>A4C71FE5-7E11-496A-A63A-823D71673A47</title>
    <g id="Preferences" stroke="none" stroke-width="1" fill="none" fill-rule="evenodd">
        <g id="Help-Dark" transform="translate(-114.000000, -169.000000)" fill="#FFFFFF" fill-rule="nonzero">
            <g id="apple" transform="translate(114.000000, 169.000000)">
                <path d="M10,5 C12.7614237,5 15,7.46243388 15,10.5 C15,13.5375661 12.7614237,16 10,16 C9.28897239,16 8.61260903,15.8367432 8.00019922,15.5424477 C7.38813299,15.836564 6.71141764,16 6,16 C3.23857625,16 1,13.5375661 1,10.5 C1,7.46243388 3.23857625,5 6,5 C6.71141764,5 7.38813299,5.163436 8.00080853,5.45803674 C8.61260903,5.16325684 9.28897239,5 10,5 Z M10,7 C9.67121786,7 9.35191568,7.06142104 9.04880779,7.18105722 L8.86894008,7.2597991 L8.00169208,7.67765962 L7.13411168,7.26048967 C6.77666249,7.08861273 6.39488757,7 6,7 C4.38792625,7 3,8.52671888 3,10.5 C3,12.4732811 4.38792625,14 6,14 C6.32905069,14 6.64913601,13.938469 6.95337416,13.8186411 L7.13396034,13.7397746 L8.0002199,13.3235107 L8.86647169,13.7397908 C9.22375373,13.9114838 9.60532665,14 10,14 C11.6120737,14 13,12.4732811 13,10.5 C13,8.52671888 11.6120737,7 10,7 Z M13,0 C13,2.209139 11.209139,4 9,4 L8,4 C8,1.790861 9.790861,4.05812251e-16 12,0 L13,0 Z" id="Combined-Shape"></path>
            </g>
        </g>
    </g>
</svg>