<?xml version="1.0" encoding="UTF-8"?>
<svg xmlns="http://www.w3.org/2000/svg" xmlns:xlink="http://www.w3.org/1999/xlink" width="20" height="20" viewBox="0 0 20 20">
<path fill-rule="nonzero" fill="rgb(93.333333%, 93.333333%, 93.333333%)" fill-opacity="1" d="M 18.835938 14.6875 C 19.578125 13.289062 20 11.695312 20 10 C 20 8.304688 19.578125 6.710938 18.835938 5.3125 L 1.164062 5.3125 C 0.421875 6.710938 0 8.304688 0 10 C 0 11.695312 0.421875 13.289062 1.164062 14.6875 Z M 18.835938 14.6875 "/>
<path fill-rule="nonzero" fill="rgb(0%, 32.156863%, 70.588235%)" fill-opacity="1" d="M 19.394531 13.4375 C 17.992188 17.265625 14.316406 20 10 20 C 5.683594 20 2.007812 17.265625 0.605469 13.4375 Z M 19.394531 13.4375 "/>
<path fill-rule="nonzero" fill="rgb(84.705882%, 0%, 15.294118%)" fill-opacity="1" d="M 19.394531 6.5625 L 0.605469 6.5625 C 2.007812 2.734375 5.683594 0 10 0 C 14.316406 0 17.992188 2.734375 19.394531 6.5625 Z M 19.394531 6.5625 "/>
<path fill-rule="nonzero" fill="rgb(20%, 54.117647%, 95.294118%)" fill-opacity="1" d="M 13.222656 7.097656 L 11.074219 7.097656 L 11.433594 4.414062 L 12.863281 3.339844 L 14.296875 4.414062 L 14.296875 6.5625 Z M 13.222656 7.097656 "/>
<path fill-rule="nonzero" fill="rgb(20%, 54.117647%, 95.294118%)" fill-opacity="1" d="M 6.777344 7.097656 L 8.925781 7.097656 L 8.566406 4.414062 L 7.136719 3.339844 L 5.703125 4.414062 L 5.703125 6.5625 Z M 6.777344 7.097656 "/>
<path fill-rule="nonzero" fill="rgb(0%, 32.156863%, 70.588235%)" fill-opacity="1" d="M 11.433594 7.097656 L 8.566406 7.097656 L 8.566406 4.414062 L 10 3.339844 L 11.433594 4.414062 Z M 11.433594 7.097656 "/>
<path fill-rule="nonzero" fill="rgb(93.333333%, 93.333333%, 93.333333%)" fill-opacity="1" d="M 5.703125 6.5625 L 5.703125 10.859375 C 5.703125 13.234375 7.625 15.15625 10 15.15625 C 12.375 15.15625 14.296875 13.234375 14.296875 10.859375 L 14.296875 6.5625 Z M 5.703125 6.5625 "/>
<path fill-rule="nonzero" fill="rgb(93.333333%, 93.333333%, 93.333333%)" fill-opacity="1" d="M 5.703125 6.5625 L 5.703125 10.859375 C 5.703125 13.234375 7.625 15.15625 10 15.15625 C 12.375 15.15625 14.296875 13.234375 14.296875 10.859375 L 14.296875 6.5625 Z M 5.703125 6.5625 "/>
<path fill-rule="evenodd" fill="rgb(84.705882%, 0%, 15.294118%)" fill-opacity="1" d="M 5.703125 8.28125 L 7.421875 8.28125 L 7.421875 10 L 9.140625 10 L 9.140625 8.28125 L 7.421875 8.28125 L 7.421875 6.5625 L 5.703125 6.5625 Z M 9.140625 6.5625 L 9.140625 8.28125 L 10.859375 8.28125 L 10.859375 10 L 12.578125 10 L 12.578125 8.28125 L 14.296875 8.28125 L 14.296875 6.5625 L 12.578125 6.5625 L 12.578125 8.28125 L 10.859375 8.28125 L 10.859375 6.5625 Z M 14.296875 10 L 12.578125 10 L 12.578125 11.71875 L 10.859375 11.71875 L 10.859375 10 L 9.140625 10 L 9.140625 11.71875 L 10.859375 11.71875 L 10.859375 13.4375 L 9.140625 13.4375 L 9.140625 15.070312 C 9.417969 15.125 9.703125 15.15625 9.996094 15.15625 L 10.003906 15.15625 C 10.296875 15.15625 10.582031 15.125 10.859375 15.070312 L 10.859375 13.4375 L 12.578125 13.4375 L 12.578125 14.296875 C 12.902344 14.050781 13.191406 13.761719 13.4375 13.4375 L 12.578125 13.4375 L 12.578125 11.71875 L 14.210938 11.71875 C 14.265625 11.441406 14.296875 11.152344 14.296875 10.859375 Z M 7.421875 14.296875 L 7.421875 13.4375 L 9.140625 13.4375 L 9.140625 11.71875 L 7.421875 11.71875 L 7.421875 10 L 5.703125 10 L 5.703125 10.859375 C 5.703125 11.152344 5.734375 11.441406 5.789062 11.71875 L 7.421875 11.71875 L 7.421875 13.4375 L 6.5625 13.4375 C 6.808594 13.761719 7.097656 14.054688 7.421875 14.296875 Z M 7.421875 14.296875 "/>
</svg>
