<?xml version="1.0" encoding="UTF-8"?>
<svg xmlns="http://www.w3.org/2000/svg" xmlns:xlink="http://www.w3.org/1999/xlink" width="40" height="40" viewBox="0 0 40 40">
<path fill-rule="nonzero" fill="rgb(93.333333%, 93.333333%, 93.333333%)" fill-opacity="1" d="M 37.671875 29.375 C 39.15625 26.578125 40 23.386719 40 20 C 40 16.613281 39.15625 13.421875 37.671875 10.625 L 2.328125 10.625 C 0.84375 13.421875 0 16.613281 0 20 C 0 23.386719 0.84375 26.578125 2.328125 29.375 Z M 37.671875 29.375 "/>
<path fill-rule="nonzero" fill="rgb(0%, 32.156863%, 70.588235%)" fill-opacity="1" d="M 38.785156 26.875 C 35.984375 34.535156 28.628906 40 20 40 C 11.371094 40 4.015625 34.535156 1.214844 26.875 L 38.789062 26.875 Z M 38.785156 26.875 "/>
<path fill-rule="nonzero" fill="rgb(84.705882%, 0%, 15.294118%)" fill-opacity="1" d="M 38.785156 13.125 L 1.210938 13.125 C 4.015625 5.464844 11.371094 0 20 0 C 28.628906 0 35.984375 5.464844 38.785156 13.125 Z M 38.785156 13.125 "/>
<path fill-rule="nonzero" fill="rgb(20%, 54.117647%, 95.294118%)" fill-opacity="1" d="M 26.445312 14.199219 L 22.148438 14.199219 L 22.863281 8.828125 L 25.726562 6.679688 L 28.59375 8.828125 L 28.59375 13.125 Z M 26.445312 14.199219 "/>
<path fill-rule="nonzero" fill="rgb(20%, 54.117647%, 95.294118%)" fill-opacity="1" d="M 13.554688 14.199219 L 17.851562 14.199219 L 17.136719 8.828125 L 14.269531 6.679688 L 11.40625 8.828125 L 11.40625 13.125 Z M 13.554688 14.199219 "/>
<path fill-rule="nonzero" fill="rgb(0%, 32.156863%, 70.588235%)" fill-opacity="1" d="M 22.863281 14.199219 L 17.136719 14.199219 L 17.136719 8.828125 L 20 6.679688 L 22.863281 8.828125 Z M 22.863281 14.199219 "/>
<path fill-rule="nonzero" fill="rgb(93.333333%, 93.333333%, 93.333333%)" fill-opacity="1" d="M 11.40625 13.125 L 11.40625 21.71875 C 11.40625 26.464844 15.253906 30.3125 20 30.3125 C 24.746094 30.3125 28.59375 26.464844 28.59375 21.71875 L 28.59375 13.125 Z M 11.40625 13.125 "/>
<path fill-rule="nonzero" fill="rgb(93.333333%, 93.333333%, 93.333333%)" fill-opacity="1" d="M 11.40625 13.125 L 11.40625 21.71875 C 11.40625 26.464844 15.253906 30.3125 20 30.3125 C 24.746094 30.3125 28.59375 26.464844 28.59375 21.71875 L 28.59375 13.125 Z M 11.40625 13.125 "/>
<path fill-rule="evenodd" fill="rgb(84.705882%, 0%, 15.294118%)" fill-opacity="1" d="M 11.40625 16.5625 L 14.84375 16.5625 L 14.84375 20 L 18.28125 20 L 18.28125 16.5625 L 14.84375 16.5625 L 14.84375 13.125 L 11.40625 13.125 Z M 18.28125 13.125 L 18.28125 16.5625 L 21.71875 16.5625 L 21.71875 20 L 25.15625 20 L 25.15625 16.5625 L 28.59375 16.5625 L 28.59375 13.125 L 25.15625 13.125 L 25.15625 16.5625 L 21.71875 16.5625 L 21.71875 13.125 Z M 28.59375 20 L 25.15625 20 L 25.15625 23.4375 L 21.71875 23.4375 L 21.71875 20 L 18.28125 20 L 18.28125 23.4375 L 21.71875 23.4375 L 21.71875 26.875 L 18.28125 26.875 L 18.28125 30.140625 C 18.835938 30.253906 19.40625 30.3125 19.992188 30.3125 L 20.007812 30.3125 C 20.59375 30.3125 21.164062 30.253906 21.71875 30.140625 L 21.71875 26.875 L 25.15625 26.875 L 25.15625 28.59375 C 25.808594 28.105469 26.386719 27.527344 26.875 26.875 L 25.15625 26.875 L 25.15625 23.4375 L 28.421875 23.4375 C 28.535156 22.882812 28.59375 22.308594 28.59375 21.71875 Z M 14.84375 28.59375 L 14.84375 26.875 L 18.28125 26.875 L 18.28125 23.4375 L 14.84375 23.4375 L 14.84375 20 L 11.40625 20 L 11.40625 21.71875 C 11.40625 22.308594 11.464844 22.882812 11.578125 23.4375 L 14.84375 23.4375 L 14.84375 26.875 L 13.125 26.875 C 13.613281 27.527344 14.191406 28.105469 14.84375 28.59375 Z M 14.84375 28.59375 "/>
</svg>
