<?xml version="1.0" encoding="UTF-8"?>
<svg xmlns="http://www.w3.org/2000/svg" xmlns:xlink="http://www.w3.org/1999/xlink" width="60" height="60" viewBox="0 0 60 60">
<path fill-rule="nonzero" fill="rgb(93.333333%, 93.333333%, 93.333333%)" fill-opacity="1" d="M 56.507812 44.0625 C 58.738281 39.867188 60 35.082031 60 30 C 60 24.917969 58.738281 20.132812 56.507812 15.9375 L 3.492188 15.9375 C 1.261719 20.132812 0 24.917969 0 30 C 0 35.082031 1.261719 39.867188 3.492188 44.0625 Z M 56.507812 44.0625 "/>
<path fill-rule="nonzero" fill="rgb(0%, 32.156863%, 70.588235%)" fill-opacity="1" d="M 58.179688 40.3125 C 53.976562 51.800781 42.945312 60 30 60 C 17.054688 60 6.023438 51.800781 1.820312 40.3125 Z M 58.179688 40.3125 "/>
<path fill-rule="nonzero" fill="rgb(84.705882%, 0%, 15.294118%)" fill-opacity="1" d="M 58.179688 19.6875 L 1.820312 19.6875 C 6.023438 8.199219 17.054688 0 30 0 C 42.945312 0 53.972656 8.199219 58.179688 19.6875 Z M 58.179688 19.6875 "/>
<path fill-rule="nonzero" fill="rgb(20%, 54.117647%, 95.294118%)" fill-opacity="1" d="M 39.667969 21.296875 L 33.222656 21.296875 L 34.296875 13.242188 L 38.59375 10.019531 L 42.890625 13.242188 L 42.890625 19.6875 Z M 39.667969 21.296875 "/>
<path fill-rule="nonzero" fill="rgb(20%, 54.117647%, 95.294118%)" fill-opacity="1" d="M 20.332031 21.296875 L 26.777344 21.296875 L 25.703125 13.242188 L 21.40625 10.019531 L 17.109375 13.242188 L 17.109375 19.6875 Z M 20.332031 21.296875 "/>
<path fill-rule="nonzero" fill="rgb(0%, 32.156863%, 70.588235%)" fill-opacity="1" d="M 34.296875 21.296875 L 25.703125 21.296875 L 25.703125 13.242188 L 30 10.019531 L 34.296875 13.242188 Z M 34.296875 21.296875 "/>
<path fill-rule="nonzero" fill="rgb(93.333333%, 93.333333%, 93.333333%)" fill-opacity="1" d="M 17.109375 19.6875 L 17.109375 32.578125 C 17.109375 39.699219 22.878906 45.46875 30 45.46875 C 37.121094 45.46875 42.890625 39.699219 42.890625 32.578125 L 42.890625 19.6875 Z M 17.109375 19.6875 "/>
<path fill-rule="nonzero" fill="rgb(93.333333%, 93.333333%, 93.333333%)" fill-opacity="1" d="M 17.109375 19.6875 L 17.109375 32.578125 C 17.109375 39.699219 22.878906 45.46875 30 45.46875 C 37.121094 45.46875 42.890625 39.699219 42.890625 32.578125 L 42.890625 19.6875 Z M 17.109375 19.6875 "/>
<path fill-rule="evenodd" fill="rgb(84.705882%, 0%, 15.294118%)" fill-opacity="1" d="M 17.109375 24.84375 L 22.265625 24.84375 L 22.265625 30 L 27.421875 30 L 27.421875 24.84375 L 22.265625 24.84375 L 22.265625 19.6875 L 17.109375 19.6875 Z M 27.421875 19.6875 L 27.421875 24.84375 L 32.578125 24.84375 L 32.578125 30 L 37.734375 30 L 37.734375 24.84375 L 42.890625 24.84375 L 42.890625 19.6875 L 37.734375 19.6875 L 37.734375 24.84375 L 32.578125 24.84375 L 32.578125 19.6875 Z M 42.890625 30 L 37.734375 30 L 37.734375 35.15625 L 32.578125 35.15625 L 32.578125 30 L 27.421875 30 L 27.421875 35.15625 L 32.578125 35.15625 L 32.578125 40.3125 L 27.421875 40.3125 L 27.421875 45.210938 C 28.25 45.378906 29.109375 45.46875 29.988281 45.46875 L 30.011719 45.46875 C 30.890625 45.46875 31.75 45.378906 32.578125 45.210938 L 32.578125 40.3125 L 37.734375 40.3125 L 37.734375 42.890625 C 38.710938 42.15625 39.578125 41.289062 40.3125 40.3125 L 37.734375 40.3125 L 37.734375 35.15625 L 42.632812 35.15625 C 42.800781 34.324219 42.890625 33.460938 42.890625 32.578125 Z M 22.265625 42.890625 L 22.265625 40.3125 L 27.421875 40.3125 L 27.421875 35.15625 L 22.265625 35.15625 L 22.265625 30 L 17.109375 30 L 17.109375 32.578125 C 17.109375 33.460938 17.199219 34.324219 17.367188 35.15625 L 22.265625 35.15625 L 22.265625 40.3125 L 19.6875 40.3125 C 20.421875 41.289062 21.289062 42.160156 22.265625 42.890625 Z M 22.265625 42.890625 "/>
</svg>
