<?xml version="1.0" encoding="UTF-8"?>
<svg xmlns="http://www.w3.org/2000/svg" xmlns:xlink="http://www.w3.org/1999/xlink" width="60" height="60" viewBox="0 0 60 60">
<path fill-rule="nonzero" fill="rgb(93.333333%, 93.333333%, 93.333333%)" fill-opacity="1" d="M 60 30 C 60 46.570312 46.570312 60 30 60 C 13.429688 60 0 46.570312 0 30 C 0 13.429688 13.429688 0 30 0 C 46.570312 0 60 13.429688 60 30 Z M 60 30 "/>
<path fill-rule="evenodd" fill="rgb(84.705882%, 0%, 15.294118%)" fill-opacity="1" d="M 7.640625 10 C 13.132812 3.863281 21.117188 0 30 0 C 38.882812 0 46.867188 3.863281 52.359375 10 L 7.636719 10 Z M 30.066406 60 C 38.925781 59.980469 46.882812 56.121094 52.359375 50 L 7.640625 50 C 13.117188 56.121094 21.074219 59.980469 29.933594 60 L 30.070312 60 Z M 30.066406 60 "/>
<path fill-rule="evenodd" fill="rgb(0%, 13.333333%, 40%)" fill-opacity="1" d="M 58.292969 40 C 59.398438 36.871094 60 33.507812 60 30 C 60 26.496094 59.398438 23.128906 58.292969 20 L 1.707031 20 C 0.601562 23.128906 0 26.496094 0 30 C 0 33.507812 0.601562 36.871094 1.707031 40 Z M 58.292969 40 "/>
</svg>
