<?xml version="1.0" encoding="UTF-8"?>
<svg xmlns="http://www.w3.org/2000/svg" xmlns:xlink="http://www.w3.org/1999/xlink" width="20" height="20" viewBox="0 0 20 20">
<path fill-rule="nonzero" fill="rgb(93.333333%, 93.333333%, 93.333333%)" fill-opacity="1" d="M 20 10 C 20 15.523438 15.523438 20 10 20 C 4.476562 20 0 15.523438 0 10 C 0 4.476562 4.476562 0 10 0 C 15.523438 0 20 4.476562 20 10 Z M 20 10 "/>
<path fill-rule="evenodd" fill="rgb(84.705882%, 0%, 15.294118%)" fill-opacity="1" d="M 2.546875 3.332031 C 4.378906 1.289062 7.039062 0 10 0 C 12.960938 0 15.621094 1.289062 17.453125 3.332031 Z M 10.023438 20 C 12.976562 19.992188 15.628906 18.707031 17.453125 16.667969 L 2.546875 16.667969 C 4.371094 18.707031 7.023438 19.992188 9.976562 20 Z M 10.023438 20 "/>
<path fill-rule="evenodd" fill="rgb(0%, 13.333333%, 40%)" fill-opacity="1" d="M 19.429688 13.332031 C 19.800781 12.289062 20 11.167969 20 10 C 20 8.832031 19.800781 7.710938 19.429688 6.667969 L 0.570312 6.667969 C 0.199219 7.710938 0 8.832031 0 10 C 0 11.167969 0.199219 12.289062 0.570312 13.332031 Z M 19.429688 13.332031 "/>
</svg>
