<?xml version="1.0" encoding="UTF-8"?>
<svg xmlns="http://www.w3.org/2000/svg" xmlns:xlink="http://www.w3.org/1999/xlink" width="40" height="40" viewBox="0 0 40 40">
<path fill-rule="nonzero" fill="rgb(93.333333%, 93.333333%, 93.333333%)" fill-opacity="1" d="M 40 20 C 40 31.046875 31.046875 40 20 40 C 8.953125 40 0 31.046875 0 20 C 0 8.953125 8.953125 0 20 0 C 31.046875 0 40 8.953125 40 20 Z M 40 20 "/>
<path fill-rule="evenodd" fill="rgb(84.705882%, 0%, 15.294118%)" fill-opacity="1" d="M 5.09375 6.667969 C 8.753906 2.574219 14.078125 0 20 0 C 25.921875 0 31.246094 2.574219 34.90625 6.667969 Z M 20.046875 40 C 25.949219 39.988281 31.253906 37.414062 34.90625 33.332031 L 5.09375 33.332031 C 8.746094 37.414062 14.050781 39.988281 19.957031 40 Z M 20.046875 40 "/>
<path fill-rule="evenodd" fill="rgb(0%, 13.333333%, 40%)" fill-opacity="1" d="M 38.863281 26.667969 C 39.597656 24.582031 40 22.339844 40 20 C 40 17.664062 39.597656 15.417969 38.863281 13.332031 L 1.136719 13.332031 C 0.402344 15.417969 0 17.664062 0 20 C 0 22.339844 0.402344 24.582031 1.136719 26.667969 Z M 38.863281 26.667969 "/>
</svg>
