<svg width="24" height="25" viewBox="0 0 24 25" fill="none" xmlns="http://www.w3.org/2000/svg">
<g id="close">
<path id="close_2" fill-rule="evenodd" clip-rule="evenodd" d="M12 0.5C18.627 0.5 24 5.873 24 12.5C24 19.127 18.627 24.5 12 24.5C5.373 24.5 0 19.127 0 12.5C0 5.873 5.373 0.5 12 0.5ZM7.714 8.214C7.62012 8.3078 7.54564 8.41918 7.49482 8.54178C7.44401 8.66438 7.41786 8.79579 7.41786 8.9285C7.41786 9.06121 7.44401 9.19262 7.49482 9.31522C7.54564 9.43782 7.62012 9.5492 7.714 9.643L10.571 12.5L7.714 15.356C7.62017 15.4498 7.54574 15.5612 7.49496 15.6838C7.44418 15.8064 7.41804 15.9378 7.41804 16.0705C7.41804 16.2032 7.44418 16.3346 7.49496 16.4572C7.54574 16.5798 7.62017 16.6912 7.714 16.785C7.80783 16.8788 7.91922 16.9533 8.04182 17.004C8.16441 17.0548 8.2958 17.081 8.4285 17.081C8.5612 17.081 8.69259 17.0548 8.81518 17.004C8.93778 16.9533 9.04917 16.8788 9.143 16.785L11.999 13.928L14.857 16.785C15.0465 16.9745 15.3035 17.081 15.5715 17.081C15.8395 17.081 16.0965 16.9745 16.286 16.785C16.4755 16.5955 16.582 16.3385 16.582 16.0705C16.582 15.8025 16.4755 15.5455 16.286 15.356L13.429 12.5L16.286 9.642C16.4755 9.4525 16.582 9.19549 16.582 8.9275C16.582 8.65951 16.4755 8.4025 16.286 8.213C16.0965 8.0235 15.8395 7.91704 15.5715 7.91704C15.3035 7.91704 15.0465 8.0235 14.857 8.213L12 11.071L9.143 8.214C9.0492 8.12012 8.93782 8.04564 8.81522 7.99482C8.69262 7.94401 8.56121 7.91786 8.4285 7.91786C8.29579 7.91786 8.16438 7.94401 8.04178 7.99482C7.91918 8.04564 7.8078 8.12012 7.714 8.214Z" fill="white"/>
</g>
</svg>
