<svg xmlns="http://www.w3.org/2000/svg" width="56" height="56" viewBox="0 0 56 56">
    <path fill="#FFF" fill-rule="evenodd" d="M28 56C12.536 56 0 43.464 0 28S12.536 0 28 0s28 12.536 28 28-12.536 28-28 28zm0-12a5.002 5.002 0 0 0 4.9-4H44c0-4.362-1.761-7.567-5-10v-5.486c0-4.337-2.974-8.237-7-9.847l-.14-.282a4.315 4.315 0 0 0-7.72 0l-.14.282c-4.026 1.61-7 5.51-7 9.847V30c-3.239 2.433-5 5.638-5 10h11.1a5.002 5.002 0 0 0 4.9 4zm-3.265-6h-10.58c.43-2.623 1.759-4.683 4.046-6.4L19 31v-6.486c0-3.393 2.351-6.634 5.743-7.99l.706-.283.48-.961a2.315 2.315 0 0 1 4.141 0l.481.961.706.283C34.65 17.88 37 21.12 37 24.514v6.485l.799.6c2.287 1.718 3.616 3.778 4.046 6.401h-10.58l-.325 1.602a3.002 3.002 0 0 1-5.88 0L24.735 38z"/>
</svg>
