<?xml version="1.0" encoding="UTF-8"?>
<svg width="16px" height="16px" viewBox="0 0 16 16" version="1.1" xmlns="http://www.w3.org/2000/svg" xmlns:xlink="http://www.w3.org/1999/xlink">
    <title>03142C20-01B1-4155-9D43-41FFAF112E49</title>
    <g id="Preferences" stroke="none" stroke-width="1" fill="none" fill-rule="evenodd">
        <g id="Robert-Dark" transform="translate(-114.000000, -623.000000)" fill="#FFFFFF" fill-rule="nonzero">
            <path d="M122,623 C123.656854,623 125,624.343146 125,626 C125,626.356557 124.937797,626.698587 124.82365,627.015828 C126.604881,627.178041 128,628.676097 128,630.5 C128,631.104775 127.846611,631.673724 127.576614,632.170065 C128.982822,632.622814 130,633.94262 130,635.5 C130,637.432997 128.432997,639 126.5,639 L117.5,639 C115.567003,639 114,637.432997 114,635.5 C114,633.94262 115.017178,632.622814 116.423422,632.168696 C116.153389,631.673724 116,631.104775 116,630.5 C116,628.676097 117.395119,627.178041 119.176433,627.014758 C119.062203,626.698587 119,626.356557 119,626 L119,623 L122,623 Z M126.5,634 L117.5,634 C116.671573,634 116,634.671573 116,635.5 C116,636.279696 116.594888,636.920449 117.35554,636.993133 L117.5,637 L126.5,637 C127.328427,637 128,636.328427 128,635.5 C128,634.720304 127.405112,634.079551 126.64446,634.006867 L126.5,634 Z M124.5,629 L119.5,629 C118.671573,629 118,629.671573 118,630.5 C118,631.279696 118.594888,631.920449 119.35554,631.993133 L119.5,632 L124.5,632 C125.328427,632 126,631.328427 126,630.5 C126,629.720304 125.405112,629.079551 124.64446,629.006867 L124.5,629 Z M122,625 L121,625 L121,626 C121,626.552285 121.447715,627 122,627 C122.552285,627 123,626.552285 123,626 C123,625.487164 122.61396,625.064493 122.116621,625.006728 L122,625 Z" id="fakenewsicon"></path>
        </g>
    </g>
</svg>