<?xml version="1.0" encoding="UTF-8"?>
<svg xmlns="http://www.w3.org/2000/svg" xmlns:xlink="http://www.w3.org/1999/xlink" width="60" height="60" viewBox="0 0 60 60">
<path fill-rule="nonzero" fill="rgb(84.705882%, 0%, 15.294118%)" fill-opacity="1" d="M 30 60 C 46.550781 60 59.96875 46.601562 60 30.058594 L 60 30 L 30 26.25 L 0 30 C 0 46.566406 13.433594 60 30 60 Z M 30 60 "/>
<path fill-rule="nonzero" fill="rgb(93.333333%, 93.333333%, 93.333333%)" fill-opacity="1" d="M 60 29.941406 L 60 30 L 0 30 C 0 13.433594 13.433594 0 30 0 C 46.550781 0 59.96875 13.398438 60 29.941406 Z M 60 29.941406 "/>
<path fill-rule="nonzero" fill="rgb(0%, 32.156863%, 70.588235%)" fill-opacity="1" d="M 0 28.777344 C 0.640625 12.777344 13.816406 0 29.976562 0 C 29.984375 0 29.992188 0 30 0 L 30 30 L 0 30 Z M 0 28.777344 "/>
<path fill-rule="nonzero" fill="rgb(93.333333%, 93.333333%, 93.333333%)" fill-opacity="1" d="M 16.875 8.210938 L 18.820312 14.199219 L 25.113281 14.199219 L 20.023438 17.898438 L 21.964844 23.882812 L 16.875 20.183594 L 11.785156 23.882812 L 13.726562 17.898438 L 8.636719 14.199219 L 14.929688 14.199219 Z M 16.875 8.210938 "/>
</svg>
