<?xml version="1.0" encoding="UTF-8"?>
<svg xmlns="http://www.w3.org/2000/svg" xmlns:xlink="http://www.w3.org/1999/xlink" width="20" height="20" viewBox="0 0 20 20">
<path fill-rule="nonzero" fill="rgb(84.705882%, 0%, 15.294118%)" fill-opacity="1" d="M 10 20 C 15.515625 20 19.988281 15.535156 20 10.019531 L 20 10 L 10 8.75 L 0 10 C 0 15.523438 4.476562 20 10 20 Z M 10 20 "/>
<path fill-rule="nonzero" fill="rgb(93.333333%, 93.333333%, 93.333333%)" fill-opacity="1" d="M 20 9.980469 L 20 10 L 0 10 C 0 4.476562 4.476562 0 10 0 C 15.515625 0 19.988281 4.464844 20 9.980469 Z M 20 9.980469 "/>
<path fill-rule="nonzero" fill="rgb(0%, 32.156863%, 70.588235%)" fill-opacity="1" d="M 0 9.59375 C 0.214844 4.257812 4.605469 0 9.992188 0 C 9.996094 0 9.996094 0 10 0 L 10 10 L 0 10 Z M 0 9.59375 "/>
<path fill-rule="nonzero" fill="rgb(93.333333%, 93.333333%, 93.333333%)" fill-opacity="1" d="M 5.625 2.738281 L 6.273438 4.734375 L 8.371094 4.734375 L 6.675781 5.964844 L 7.320312 7.960938 L 5.625 6.726562 L 3.929688 7.960938 L 4.574219 5.964844 L 2.878906 4.734375 L 4.976562 4.734375 Z M 5.625 2.738281 "/>
</svg>
