<?xml version="1.0" encoding="UTF-8"?>
<svg xmlns="http://www.w3.org/2000/svg" xmlns:xlink="http://www.w3.org/1999/xlink" width="20" height="20" viewBox="0 0 20 20">
<path fill-rule="nonzero" fill="rgb(0%, 32.156863%, 70.588235%)" fill-opacity="1" d="M 20 10 C 20 15.523438 15.523438 20 10 20 C 4.476562 20 0 15.523438 0 10 C 0 4.476562 4.476562 0 10 0 C 15.523438 0 20 4.476562 20 10 Z M 20 10 "/>
<path fill-rule="nonzero" fill="rgb(93.333333%, 93.333333%, 93.333333%)" fill-opacity="1" d="M 16 18 C 18.429688 16.175781 20 13.273438 20 10 C 20 6.726562 18.429688 3.824219 16 2 L 0 10 Z M 16 18 "/>
<path fill-rule="nonzero" fill="rgb(84.705882%, 0%, 15.294118%)" fill-opacity="1" d="M 16 18 L 0 10 L 16 2 C 16.292969 2.21875 16.570312 2.453125 16.835938 2.699219 L 2.238281 10 L 16.835938 17.300781 C 16.570312 17.546875 16.292969 17.78125 16 18 Z M 16 18 "/>
<path fill-rule="nonzero" fill="rgb(63.529412%, 0%, 11.372549%)" fill-opacity="1" d="M 17.390625 9.625 L 16.199219 9.625 C 16.511719 9.253906 16.492188 8.703125 16.140625 8.351562 C 16.511719 7.984375 16.511719 7.382812 16.140625 7.015625 L 16.121094 7.035156 C 16.488281 6.667969 16.511719 6.046875 16.140625 5.675781 L 10.789062 11.03125 C 11.15625 11.398438 11.746094 11.394531 12.117188 11.027344 L 12.21875 10.929688 L 14.78125 10.699219 L 14.78125 11.800781 L 15.652344 11.800781 L 15.652344 10.621094 L 16.957031 10.5 L 17.390625 9.628906 Z M 17.390625 9.625 "/>
<path fill-rule="nonzero" fill="rgb(100%, 77.647059%, 20.784314%)" fill-opacity="1" d="M 10.871094 12.171875 L 10 11.738281 L 10.871094 11.304688 L 16.523438 11.304688 L 16.523438 12.175781 L 10.871094 12.175781 Z M 10.871094 12.171875 "/>
</svg>
