<?xml version="1.0" encoding="UTF-8"?>
<svg xmlns="http://www.w3.org/2000/svg" xmlns:xlink="http://www.w3.org/1999/xlink" width="40" height="40" viewBox="0 0 40 40">
<path fill-rule="nonzero" fill="rgb(0%, 32.156863%, 70.588235%)" fill-opacity="1" d="M 40 20 C 40 31.046875 31.046875 40 20 40 C 8.953125 40 0 31.046875 0 20 C 0 8.953125 8.953125 0 20 0 C 31.046875 0 40 8.953125 40 20 Z M 40 20 "/>
<path fill-rule="nonzero" fill="rgb(93.333333%, 93.333333%, 93.333333%)" fill-opacity="1" d="M 32 36 C 36.859375 32.351562 40 26.542969 40 20 C 40 13.457031 36.859375 7.648438 32 4 L 0 20 Z M 32 36 "/>
<path fill-rule="nonzero" fill="rgb(84.705882%, 0%, 15.294118%)" fill-opacity="1" d="M 32 36 L 0 20 L 32 4 C 32.582031 4.4375 33.140625 4.902344 33.671875 5.402344 L 4.472656 20 L 33.671875 34.597656 C 33.140625 35.097656 32.582031 35.5625 32 36 Z M 32 36 "/>
<path fill-rule="nonzero" fill="rgb(63.529412%, 0%, 11.372549%)" fill-opacity="1" d="M 34.78125 19.253906 L 32.402344 19.253906 C 33.019531 18.511719 32.980469 17.402344 32.285156 16.707031 C 33.023438 15.964844 33.023438 14.769531 32.285156 14.027344 L 32.238281 14.074219 C 32.976562 13.335938 33.023438 12.089844 32.285156 11.351562 L 21.574219 22.058594 C 22.316406 22.800781 23.492188 22.789062 24.230469 22.050781 L 24.4375 21.863281 L 29.566406 21.398438 L 29.566406 23.601562 L 31.304688 23.601562 L 31.304688 21.238281 L 33.914062 21 Z M 34.78125 19.253906 "/>
<path fill-rule="nonzero" fill="rgb(100%, 77.647059%, 20.784314%)" fill-opacity="1" d="M 21.738281 24.347656 L 20 23.476562 L 21.738281 22.609375 L 33.042969 22.609375 L 33.042969 24.347656 Z M 21.738281 24.347656 "/>
</svg>
