<?xml version="1.0" encoding="UTF-8"?>
<svg xmlns="http://www.w3.org/2000/svg" xmlns:xlink="http://www.w3.org/1999/xlink" width="60" height="60" viewBox="0 0 60 60">
<path fill-rule="nonzero" fill="rgb(0%, 32.156863%, 70.588235%)" fill-opacity="1" d="M 60 30 C 60 46.570312 46.570312 60 30 60 C 13.429688 60 0 46.570312 0 30 C 0 13.429688 13.429688 0 30 0 C 46.570312 0 60 13.429688 60 30 Z M 60 30 "/>
<path fill-rule="nonzero" fill="rgb(93.333333%, 93.333333%, 93.333333%)" fill-opacity="1" d="M 48.003906 54 C 55.289062 48.527344 60 39.8125 60 30 C 60 20.1875 55.289062 11.472656 48.003906 6 L 0 30 Z M 48.003906 54 "/>
<path fill-rule="nonzero" fill="rgb(84.705882%, 0%, 15.294118%)" fill-opacity="1" d="M 48.003906 54 L 0 30 L 48.003906 6 C 48.875 6.65625 49.710938 7.355469 50.503906 8.101562 L 6.710938 30 L 50.503906 51.898438 C 49.710938 52.644531 48.875 53.34375 48.003906 54 Z M 48.003906 54 "/>
<path fill-rule="nonzero" fill="rgb(63.529412%, 0%, 11.372549%)" fill-opacity="1" d="M 52.175781 28.882812 L 48.601562 28.882812 C 49.53125 27.765625 49.472656 26.105469 48.425781 25.058594 C 49.535156 23.949219 49.535156 22.152344 48.425781 21.042969 L 48.359375 21.109375 C 49.46875 20 49.535156 18.136719 48.425781 17.027344 L 32.363281 33.089844 C 33.472656 34.199219 35.238281 34.1875 36.347656 33.078125 L 36.65625 32.792969 L 44.347656 32.09375 L 44.347656 35.402344 L 46.957031 35.402344 L 46.957031 31.859375 L 50.871094 31.503906 L 52.171875 28.882812 Z M 52.175781 28.882812 "/>
<path fill-rule="nonzero" fill="rgb(100%, 77.647059%, 20.784314%)" fill-opacity="1" d="M 32.609375 36.523438 L 30 35.21875 L 32.609375 33.914062 L 49.566406 33.914062 L 49.566406 36.523438 Z M 32.609375 36.523438 "/>
</svg>
