<svg xmlns="http://www.w3.org/2000/svg" width="64" height="64" viewBox="0 0 64 64">
    <g fill="none" fill-rule="evenodd">
        <path fill="#020D1C" d="M32 0c-.582 0-1.166.114-1.714.342l-19.45 8.072a4.457 4.457 0 0 0-2.41 2.408L.342 30.254a4.463 4.463 0 0 0-.004 3.416l8.088 19.548a4.463 4.463 0 0 0 2.418 2.418l19.388 8.024a4.481 4.481 0 0 0 3.41.004l19.508-8.03a4.456 4.456 0 0 0 2.426-2.42l8.086-19.544a4.463 4.463 0 0 0-.004-3.416l-8.084-19.432a4.457 4.457 0 0 0-2.41-2.408L33.714.342A4.466 4.466 0 0 0 32 0"/>
        <path fill="#FFF" d="M32 0c-.582 0-1.166.114-1.714.342l-19.45 8.072a4.457 4.457 0 0 0-2.41 2.408L.342 30.254a4.463 4.463 0 0 0-.004 3.416l8.088 19.548a4.463 4.463 0 0 0 2.418 2.418l19.388 8.024a4.481 4.481 0 0 0 3.41.004l19.508-8.03a4.456 4.456 0 0 0 2.426-2.42l8.086-19.544a4.463 4.463 0 0 0-.004-3.416l-8.084-19.432a4.457 4.457 0 0 0-2.41-2.408L33.714.342A4.466 4.466 0 0 0 32 0m0 4.857c.06 0 .118.012.174.035l18.855 7.825a.447.447 0 0 1 .244.242l7.835 18.837c.046.11.046.231.002.34L51.27 51.08a.45.45 0 0 1-.244.245l-18.91 7.782a.436.436 0 0 1-.348 0l-18.794-7.779a.447.447 0 0 1-.244-.242L4.89 32.136a.438.438 0 0 1 .001-.34l7.835-18.837a.453.453 0 0 1 .244-.242l18.855-7.825A.452.452 0 0 1 32 4.857m9.92 34.986L32 29.11l-9.92 10.734v-20.64h-4.96v25.594h4.558a4.96 4.96 0 0 0 3.508-1.452L32 35.715l6.812 7.63a4.96 4.96 0 0 0 3.508 1.452h4.558V19.203h-4.96v20.64z"/>
    </g>
</svg>
