<?xml version="1.0" encoding="UTF-8"?>
<svg xmlns="http://www.w3.org/2000/svg" xmlns:xlink="http://www.w3.org/1999/xlink" width="60" height="60" viewBox="0 0 60 60">
<path fill-rule="nonzero" fill="rgb(20%, 54.117647%, 95.294118%)" fill-opacity="1" d="M 60 30 C 60 46.566406 46.566406 60 30 60 C 13.433594 60 0 46.566406 0 30 L 30 0 C 46.566406 0 60 13.433594 60 30 Z M 60 30 "/>
<path fill-rule="nonzero" fill="rgb(0%, 32.156863%, 70.588235%)" fill-opacity="1" d="M 30 0 L 30 30 L 0 30 C 0 13.429688 13.429688 0 30 0 Z M 30 0 "/>
<path fill-rule="nonzero" fill="rgb(93.333333%, 93.333333%, 93.333333%)" fill-opacity="1" d="M 25.496094 30 L 30 30 L 30 25.496094 L 16.488281 11.984375 L 30 11.984375 L 30 0 C 13.429688 0 0 13.429688 0 30 L 11.984375 30 L 11.984375 16.488281 Z M 25.496094 30 "/>
<path fill-rule="nonzero" fill="rgb(84.705882%, 0%, 15.294118%)" fill-opacity="1" d="M 30 8.980469 L 30 2.972656 L 16.960938 2.972656 C 10.867188 5.917969 5.917969 10.867188 2.972656 16.960938 L 2.972656 30 L 8.980469 30 L 8.980469 8.980469 Z M 30 8.980469 "/>
<path fill-rule="nonzero" fill="rgb(84.705882%, 0%, 15.294118%)" fill-opacity="1" d="M 30 26.996094 L 30 30 L 11.984375 11.984375 L 14.984375 11.984375 Z M 30 26.996094 "/>
<path fill-rule="nonzero" fill="rgb(95.294118%, 95.294118%, 95.294118%)" fill-opacity="1" d="M 35.871094 22.171875 L 35.871094 32.609375 C 35.871094 39.597656 45 41.738281 45 41.738281 C 45 41.738281 54.132812 39.597656 54.132812 32.609375 L 54.132812 22.171875 L 45 19.5625 Z M 35.871094 22.171875 "/>
<path fill-rule="nonzero" fill="rgb(84.705882%, 0%, 15.294118%)" fill-opacity="1" d="M 54.132812 22.171875 L 54.132812 18.257812 L 35.871094 18.257812 L 35.871094 22.171875 L 43.695312 22.171875 L 43.695312 30 L 35.871094 30 L 35.871094 32.609375 L 43.695312 32.609375 L 43.695312 41.339844 C 44.484375 41.617188 45 41.738281 45 41.738281 C 45 41.738281 45.519531 41.617188 46.304688 41.339844 L 46.304688 32.609375 L 54.132812 32.609375 L 54.132812 30 L 46.304688 30 L 46.304688 22.171875 Z M 54.132812 22.171875 "/>
</svg>
