<svg width="196" height="98" viewBox="0 0 196 98" fill="none" xmlns="http://www.w3.org/2000/svg">
<path fill-rule="evenodd" clip-rule="evenodd" d="M88.428 57.6L89.758 59.462C79.42 60.647 72 63.914 72 67C72 70.858 83.598 75 98 75C112.402 75 124 70.858 124 67C124 63.914 116.58 60.647 106.241 59.462L107.571 57.6C118.323 58.996 126 62.678 126 67C126 72.523 113.464 77 98 77C82.536 77 70 72.523 70 67C70 62.678 77.678 58.996 88.428 57.6ZM98 67C88 51.856 83 41.523 83 36C83 27.716 89.716 21 98 21C106.284 21 113 27.716 113 36C113 41.523 108 51.856 98 67ZM98 63.343C106.664 49.925 111 40.689 111 36C111 28.82 105.18 23 98 23C90.82 23 85 28.82 85 36C85 40.69 89.336 49.925 98 63.343ZM98 41C94.6863 41 92 38.3137 92 35C92 31.6863 94.6863 29 98 29C101.314 29 104 31.6863 104 35C104 38.3137 101.314 41 98 41V41ZM98 39C100.209 39 102 37.2091 102 35C102 32.7909 100.209 31 98 31C95.7909 31 94 32.7909 94 35C94 37.2091 95.7909 39 98 39Z" fill="white"/>
<rect x="1" y="1" width="194" height="96" rx="3" stroke="white" stroke-width="2"/>
</svg>
