<?xml version="1.0" encoding="UTF-8"?>
<svg xmlns="http://www.w3.org/2000/svg" xmlns:xlink="http://www.w3.org/1999/xlink" width="20" height="20" viewBox="0 0 20 20">
<path fill-rule="nonzero" fill="rgb(84.705882%, 0%, 15.294118%)" fill-opacity="1" d="M 20 10 C 20 4.484375 15.535156 0.0117188 10.019531 0 L 10 0 L 8.75 10 L 10 20 C 15.523438 20 20 15.523438 20 10 Z M 20 10 "/>
<path fill-rule="nonzero" fill="rgb(93.333333%, 93.333333%, 93.333333%)" fill-opacity="1" d="M 9.980469 0 L 10 0 L 10 20 C 4.476562 20 0 15.523438 0 10 C 0 4.484375 4.464844 0.0117188 9.980469 0 Z M 9.980469 0 "/>
<path fill-rule="nonzero" fill="rgb(50.588235%, 50.196078%, 52.156863%)" fill-opacity="1" d="M 6.25 5 L 6.25 3.75 L 5 3.75 L 5 5 L 3.75 5 L 3.75 6.25 L 5 6.25 L 5 7.5 L 6.25 7.5 L 6.25 6.25 L 7.5 6.25 L 7.5 5 Z M 6.25 5 "/>
</svg>
