<?xml version="1.0" encoding="UTF-8"?>
<svg xmlns="http://www.w3.org/2000/svg" xmlns:xlink="http://www.w3.org/1999/xlink" width="40" height="40" viewBox="0 0 40 40">
<path fill-rule="nonzero" fill="rgb(84.705882%, 0%, 15.294118%)" fill-opacity="1" d="M 40 20 C 40 8.96875 31.066406 0.0195312 20.039062 0 L 20 0 L 17.5 20 L 20 40 C 31.046875 40 40 31.046875 40 20 Z M 40 20 "/>
<path fill-rule="nonzero" fill="rgb(93.333333%, 93.333333%, 93.333333%)" fill-opacity="1" d="M 19.960938 0 L 20 0 L 20 40 C 8.953125 40 0 31.046875 0 20 C 0 8.96875 8.933594 0.0195312 19.960938 0 Z M 19.960938 0 "/>
<path fill-rule="nonzero" fill="rgb(50.588235%, 50.196078%, 52.156863%)" fill-opacity="1" d="M 12.5 10 L 12.5 7.5 L 10 7.5 L 10 10 L 7.5 10 L 7.5 12.5 L 10 12.5 L 10 15 L 12.5 15 L 12.5 12.5 L 15 12.5 L 15 10 Z M 12.5 10 "/>
</svg>
