<?xml version="1.0" encoding="UTF-8"?>
<svg xmlns="http://www.w3.org/2000/svg" xmlns:xlink="http://www.w3.org/1999/xlink" width="20" height="20" viewBox="0 0 20 20">
<defs>
<clipPath id="clip-0">
<path clip-rule="nonzero" d="M 10 0 C 15.523438 0 20 4.476562 20 10 C 20 15.523438 15.523438 20 10 20 C 4.476562 20 0 15.523438 0 10 C 0 4.476562 4.476562 0 10 0 Z M 10 0 "/>
</clipPath>
</defs>
<g clip-path="url(#clip-0)">
<rect x="-2" y="-2" width="24" height="24" fill="rgb(0.392157%, 12.941176%, 41.176471%)" fill-opacity="1"/>
<path fill-rule="nonzero" fill="rgb(100%, 100%, 100%)" fill-opacity="1" d="M -0.441406 -0.226562 L 9.957031 7.484375 L 20.3125 -0.226562 L 23.636719 -0.226562 L 23.636719 2.414062 L 13.410156 10.042969 L 23.636719 17.628906 L 23.636719 20.226562 L 20.226562 20.226562 L 10 12.597656 L -0.183594 20.226562 L -3.636719 20.226562 L -3.636719 17.671875 L 6.546875 10.085938 L -3.636719 2.5 L -3.636719 -0.226562 Z M -0.441406 -0.226562 "/>
<path fill-rule="nonzero" fill="rgb(78.431373%, 6.27451%, 18.039216%)" fill-opacity="1" d="M 14.433594 11.746094 L 23.636719 18.523438 L 23.636719 20.226562 L 12.089844 11.746094 Z M 6.589844 12.597656 L 6.847656 14.089844 L -1.335938 20.226562 L -3.636719 20.226562 Z M 23.636719 -0.226562 L 23.636719 -0.0976562 L 13.027344 7.910156 L 13.109375 6.035156 L 21.503906 -0.226562 Z M -3.636719 -0.226562 L 6.546875 7.273438 L 3.992188 7.273438 L -3.636719 1.5625 Z M -3.636719 -0.226562 "/>
<path fill-rule="nonzero" fill="rgb(100%, 100%, 100%)" fill-opacity="1" d="M 6.632812 -0.226562 L 6.632812 20.226562 L 13.453125 20.226562 L 13.453125 -0.226562 Z M -3.636719 6.589844 L -3.636719 13.410156 L 23.636719 13.410156 L 23.636719 6.589844 Z M -3.636719 6.589844 "/>
<path fill-rule="nonzero" fill="rgb(78.431373%, 6.27451%, 18.039216%)" fill-opacity="1" d="M -3.636719 7.996094 L -3.636719 12.085938 L 23.636719 12.085938 L 23.636719 7.996094 Z M 7.996094 -0.226562 L 7.996094 20.226562 L 12.089844 20.226562 L 12.089844 -0.226562 Z M 7.996094 -0.226562 "/>
</g>
</svg>
