<?xml version="1.0" encoding="UTF-8"?>
<svg xmlns="http://www.w3.org/2000/svg" xmlns:xlink="http://www.w3.org/1999/xlink" width="40" height="40" viewBox="0 0 40 40">
<defs>
<clipPath id="clip-0">
<path clip-rule="nonzero" d="M 20 0 C 31.046875 0 40 8.953125 40 20 C 40 31.046875 31.046875 40 20 40 C 8.953125 40 0 31.046875 0 20 C 0 8.953125 8.953125 0 20 0 Z M 20 0 "/>
</clipPath>
</defs>
<g clip-path="url(#clip-0)">
<rect x="-4" y="-4" width="48" height="48" fill="rgb(0.392157%, 12.941176%, 41.176471%)" fill-opacity="1"/>
<path fill-rule="nonzero" fill="rgb(100%, 100%, 100%)" fill-opacity="1" d="M -0.878906 -0.453125 L 19.914062 14.972656 L 40.625 -0.453125 L 47.273438 -0.453125 L 47.273438 4.828125 L 26.816406 20.085938 L 47.273438 35.253906 L 47.273438 40.453125 L 40.453125 40.453125 L 20 25.199219 L -0.371094 40.453125 L -7.273438 40.453125 L -7.273438 35.339844 L 13.097656 20.167969 L -7.273438 5 L -7.273438 -0.453125 Z M -0.878906 -0.453125 "/>
<path fill-rule="nonzero" fill="rgb(78.431373%, 6.27451%, 18.039216%)" fill-opacity="1" d="M 28.863281 23.492188 L 47.273438 37.046875 L 47.273438 40.453125 L 24.175781 23.492188 Z M 13.183594 25.199219 L 13.691406 28.183594 L -2.671875 40.453125 L -7.273438 40.453125 Z M 47.273438 -0.453125 L 47.273438 -0.199219 L 26.050781 15.824219 L 26.222656 12.074219 L 43.011719 -0.453125 Z M -7.273438 -0.453125 L 13.097656 14.546875 L 7.984375 14.546875 L -7.273438 3.125 Z M -7.273438 -0.453125 "/>
<path fill-rule="nonzero" fill="rgb(100%, 100%, 100%)" fill-opacity="1" d="M 13.265625 -0.453125 L 13.265625 40.453125 L 26.902344 40.453125 L 26.902344 -0.453125 Z M -7.273438 13.179688 L -7.273438 26.816406 L 47.273438 26.816406 L 47.273438 13.179688 Z M -7.273438 13.179688 "/>
<path fill-rule="nonzero" fill="rgb(78.431373%, 6.27451%, 18.039216%)" fill-opacity="1" d="M -7.273438 15.992188 L -7.273438 24.175781 L 47.273438 24.175781 L 47.273438 15.992188 Z M 15.996094 -0.453125 L 15.996094 40.453125 L 24.175781 40.453125 L 24.175781 -0.453125 Z M 15.996094 -0.453125 "/>
</g>
</svg>
