<?xml version="1.0" encoding="UTF-8"?>
<svg xmlns="http://www.w3.org/2000/svg" xmlns:xlink="http://www.w3.org/1999/xlink" width="60" height="60" viewBox="0 0 60 60">
<defs>
<clipPath id="clip-0">
<path clip-rule="nonzero" d="M 30 0 C 46.570312 0 60 13.429688 60 30 C 60 46.570312 46.570312 60 30 60 C 13.429688 60 0 46.570312 0 30 C 0 13.429688 13.429688 0 30 0 Z M 30 0 "/>
</clipPath>
</defs>
<g clip-path="url(#clip-0)">
<rect x="-6" y="-6" width="72" height="72" fill="rgb(0.392157%, 12.941176%, 41.176471%)" fill-opacity="1"/>
<path fill-rule="nonzero" fill="rgb(100%, 100%, 100%)" fill-opacity="1" d="M -1.320312 -0.683594 L 29.871094 22.457031 L 60.9375 -0.683594 L 70.910156 -0.683594 L 70.910156 7.242188 L 40.226562 30.128906 L 70.910156 52.882812 L 70.910156 60.679688 L 60.683594 60.679688 L 30 37.796875 L -0.554688 60.679688 L -10.910156 60.679688 L -10.910156 53.011719 L 19.644531 30.253906 L -10.910156 7.5 L -10.910156 -0.683594 Z M -1.320312 -0.683594 "/>
<path fill-rule="nonzero" fill="rgb(78.431373%, 6.27451%, 18.039216%)" fill-opacity="1" d="M 43.296875 35.242188 L 70.910156 55.566406 L 70.910156 60.679688 L 36.265625 35.242188 Z M 19.773438 37.796875 L 20.539062 42.273438 L -4.007812 60.679688 L -10.910156 60.679688 Z M 70.910156 -0.683594 L 70.910156 -0.296875 L 39.078125 23.734375 L 39.332031 18.109375 L 64.515625 -0.683594 Z M -10.910156 -0.683594 L 19.644531 21.816406 L 11.972656 21.816406 L -10.910156 4.6875 Z M -10.910156 -0.683594 "/>
<path fill-rule="nonzero" fill="rgb(100%, 100%, 100%)" fill-opacity="1" d="M 19.898438 -0.683594 L 19.898438 60.679688 L 40.355469 60.679688 L 40.355469 -0.683594 Z M -10.910156 19.773438 L -10.910156 40.226562 L 70.910156 40.226562 L 70.910156 19.773438 Z M -10.910156 19.773438 "/>
<path fill-rule="nonzero" fill="rgb(78.431373%, 6.27451%, 18.039216%)" fill-opacity="1" d="M -10.910156 23.992188 L -10.910156 36.261719 L 70.910156 36.261719 L 70.910156 23.992188 Z M 23.992188 -0.683594 L 23.992188 60.679688 L 36.265625 60.679688 L 36.265625 -0.683594 Z M 23.992188 -0.683594 "/>
</g>
</svg>
