<?xml version="1.0" encoding="UTF-8"?>
<svg xmlns="http://www.w3.org/2000/svg" xmlns:xlink="http://www.w3.org/1999/xlink" width="40" height="40" viewBox="0 0 40 40">
<path fill-rule="nonzero" fill="rgb(93.333333%, 93.333333%, 93.333333%)" fill-opacity="1" d="M 40 20 C 40 31.046875 31.046875 40 20 40 C 8.953125 40 0 31.046875 0 20 C 0 8.953125 8.953125 0 20 0 C 31.046875 0 40 8.953125 40 20 Z M 40 20 "/>
<path fill-rule="nonzero" fill="rgb(84.705882%, 0%, 15.294118%)" fill-opacity="1" d="M 22.5 0.15625 C 21.695312 0.0546875 20.871094 0 20.039062 0 L 19.960938 0 C 19.128906 0 18.304688 0.0546875 17.5 0.15625 L 17.5 17.5 L 0.15625 17.5 C 0.0507812 18.320312 0 19.152344 0 20 C 0 20.847656 0.0507812 21.679688 0.15625 22.5 L 17.5 22.5 L 17.5 39.84375 C 18.320312 39.949219 19.152344 40 20 40 C 20.847656 40 21.679688 39.949219 22.5 39.84375 L 22.5 22.5 L 39.84375 22.5 C 39.949219 21.679688 40 20.847656 40 20 C 40 19.152344 39.949219 18.320312 39.84375 17.5 L 22.5 17.5 Z M 22.5 0.15625 "/>
<path fill-rule="nonzero" fill="rgb(84.705882%, 0%, 15.294118%)" fill-opacity="1" d="M 10 7.5 L 10 10 L 7.5 10 L 7.5 12.5 L 10 12.5 L 10 15 L 12.5 15 L 12.5 12.5 L 15 12.5 L 15 10 L 12.5 10 L 12.5 7.5 Z M 27.5 7.5 L 27.5 10 L 25 10 L 25 12.5 L 27.5 12.5 L 27.5 15 L 30 15 L 30 12.5 L 32.5 12.5 L 32.5 10 L 30 10 L 30 7.5 Z M 10 25 L 10 27.5 L 7.5 27.5 L 7.5 30 L 10 30 L 10 32.5 L 12.5 32.5 L 12.5 30 L 15 30 L 15 27.5 L 12.5 27.5 L 12.5 25 Z M 27.5 25 L 27.5 27.5 L 25 27.5 L 25 30 L 27.5 30 L 27.5 32.5 L 30 32.5 L 30 30 L 32.5 30 L 32.5 27.5 L 30 27.5 L 30 25 Z M 27.5 25 "/>
</svg>
