<?xml version="1.0" encoding="UTF-8"?>
<svg xmlns="http://www.w3.org/2000/svg" xmlns:xlink="http://www.w3.org/1999/xlink" width="60" height="60" viewBox="0 0 60 60">
<path fill-rule="nonzero" fill="rgb(93.333333%, 93.333333%, 93.333333%)" fill-opacity="1" d="M 60 30 C 60 46.570312 46.570312 60 30 60 C 13.429688 60 0 46.570312 0 30 C 0 13.429688 13.429688 0 30 0 C 46.570312 0 60 13.429688 60 30 Z M 60 30 "/>
<path fill-rule="nonzero" fill="rgb(84.705882%, 0%, 15.294118%)" fill-opacity="1" d="M 33.75 0.230469 C 32.539062 0.0820312 31.308594 0.00390625 30.058594 0 L 29.941406 0 C 28.691406 0.00390625 27.460938 0.0820312 26.25 0.230469 L 26.25 26.25 L 0.230469 26.25 C 0.078125 27.476562 0 28.730469 0 30 C 0 31.269531 0.078125 32.523438 0.230469 33.75 L 26.25 33.75 L 26.25 59.769531 C 27.476562 59.921875 28.730469 60 30 60 C 31.269531 60 32.523438 59.921875 33.75 59.769531 L 33.75 33.75 L 59.769531 33.75 C 59.921875 32.523438 60 31.269531 60 30 C 60 28.730469 59.921875 27.476562 59.769531 26.25 L 33.75 26.25 Z M 33.75 0.230469 "/>
<path fill-rule="nonzero" fill="rgb(84.705882%, 0%, 15.294118%)" fill-opacity="1" d="M 15 11.25 L 15 15 L 11.25 15 L 11.25 18.75 L 15 18.75 L 15 22.5 L 18.75 22.5 L 18.75 18.75 L 22.5 18.75 L 22.5 15 L 18.75 15 L 18.75 11.25 Z M 41.25 11.25 L 41.25 15 L 37.5 15 L 37.5 18.75 L 41.25 18.75 L 41.25 22.5 L 45 22.5 L 45 18.75 L 48.75 18.75 L 48.75 15 L 45 15 L 45 11.25 Z M 15 37.5 L 15 41.25 L 11.25 41.25 L 11.25 45 L 15 45 L 15 48.75 L 18.75 48.75 L 18.75 45 L 22.5 45 L 22.5 41.25 L 18.75 41.25 L 18.75 37.5 Z M 41.25 37.5 L 41.25 41.25 L 37.5 41.25 L 37.5 45 L 41.25 45 L 41.25 48.75 L 45 48.75 L 45 45 L 48.75 45 L 48.75 41.25 L 45 41.25 L 45 37.5 Z M 41.25 37.5 "/>
</svg>
