<?xml version="1.0" encoding="UTF-8"?>
<svg xmlns="http://www.w3.org/2000/svg" xmlns:xlink="http://www.w3.org/1999/xlink" width="20" height="20" viewBox="0 0 20 20">
<path fill-rule="nonzero" fill="rgb(93.333333%, 93.333333%, 93.333333%)" fill-opacity="1" d="M 20 10 C 20 15.523438 15.523438 20 10 20 C 4.476562 20 0 15.523438 0 10 C 0 4.476562 4.476562 0 10 0 C 15.523438 0 20 4.476562 20 10 Z M 20 10 "/>
<path fill-rule="nonzero" fill="rgb(84.705882%, 0%, 15.294118%)" fill-opacity="1" d="M 11.25 0.078125 C 10.847656 0.0273438 10.4375 0 10.019531 0 L 9.980469 0 C 9.5625 0 9.152344 0.0273438 8.75 0.078125 L 8.75 8.75 L 0.078125 8.75 C 0.0273438 9.160156 0 9.578125 0 10 C 0 10.421875 0.0273438 10.839844 0.078125 11.25 L 8.75 11.25 L 8.75 19.921875 C 9.160156 19.972656 9.578125 20 10 20 C 10.421875 20 10.839844 19.972656 11.25 19.921875 L 11.25 11.25 L 19.921875 11.25 C 19.972656 10.839844 20 10.421875 20 10 C 20 9.578125 19.972656 9.160156 19.921875 8.75 L 11.25 8.75 Z M 11.25 0.078125 "/>
<path fill-rule="nonzero" fill="rgb(84.705882%, 0%, 15.294118%)" fill-opacity="1" d="M 5 3.75 L 5 5 L 3.75 5 L 3.75 6.25 L 5 6.25 L 5 7.5 L 6.25 7.5 L 6.25 6.25 L 7.5 6.25 L 7.5 5 L 6.25 5 L 6.25 3.75 Z M 13.75 3.75 L 13.75 5 L 12.5 5 L 12.5 6.25 L 13.75 6.25 L 13.75 7.5 L 15 7.5 L 15 6.25 L 16.25 6.25 L 16.25 5 L 15 5 L 15 3.75 Z M 5 12.5 L 5 13.75 L 3.75 13.75 L 3.75 15 L 5 15 L 5 16.25 L 6.25 16.25 L 6.25 15 L 7.5 15 L 7.5 13.75 L 6.25 13.75 L 6.25 12.5 Z M 13.75 12.5 L 13.75 13.75 L 12.5 13.75 L 12.5 15 L 13.75 15 L 13.75 16.25 L 15 16.25 L 15 15 L 16.25 15 L 16.25 13.75 L 15 13.75 L 15 12.5 Z M 13.75 12.5 "/>
</svg>
