<?xml version="1.0" encoding="UTF-8"?>
<svg xmlns="http://www.w3.org/2000/svg" xmlns:xlink="http://www.w3.org/1999/xlink" width="60" height="60" viewBox="0 0 60 60">
<path fill-rule="nonzero" fill="rgb(0%, 32.156863%, 70.588235%)" fill-opacity="1" d="M 56.507812 44.0625 C 58.738281 39.867188 60 35.082031 60 30 C 60 24.917969 58.738281 20.132812 56.507812 15.9375 L 3.492188 15.9375 C 1.261719 20.132812 0 24.917969 0 30 C 0 35.082031 1.261719 39.867188 3.492188 44.0625 Z M 56.507812 44.0625 "/>
<path fill-rule="nonzero" fill="rgb(84.705882%, 0%, 15.294118%)" fill-opacity="1" d="M 58.179688 40.3125 C 53.976562 51.800781 42.945312 60 30 60 C 17.054688 60 6.023438 51.800781 1.820312 40.3125 Z M 58.179688 40.3125 "/>
<path fill-rule="nonzero" fill="rgb(93.333333%, 93.333333%, 93.333333%)" fill-opacity="1" d="M 58.179688 19.6875 L 1.820312 19.6875 C 6.023438 8.199219 17.054688 0 30 0 C 42.945312 0 53.972656 8.199219 58.179688 19.6875 Z M 58.179688 19.6875 "/>
<path fill-rule="nonzero" fill="rgb(0%, 32.156863%, 70.588235%)" fill-opacity="1" d="M 26.085938 23.753906 L 26.085938 11.738281 L 10.433594 11.738281 L 10.433594 23.753906 Z M 26.085938 23.753906 "/>
<path fill-rule="nonzero" fill="rgb(93.333333%, 93.333333%, 93.333333%)" fill-opacity="1" d="M 10.433594 19.566406 L 10.433594 22.175781 C 10.433594 28.164062 18.261719 30 18.261719 30 C 18.261719 30 26.085938 28.164062 26.085938 22.175781 L 26.085938 19.566406 L 23.476562 22.175781 L 18.261719 18.261719 L 13.042969 22.175781 Z M 10.433594 19.566406 "/>
</svg>
