<?xml version="1.0" encoding="UTF-8"?>
<svg xmlns="http://www.w3.org/2000/svg" xmlns:xlink="http://www.w3.org/1999/xlink" width="20" height="20" viewBox="0 0 20 20">
<path fill-rule="nonzero" fill="rgb(93.333333%, 93.333333%, 93.333333%)" fill-opacity="1" d="M 18.835938 14.6875 C 19.578125 13.289062 20 11.695312 20 10 C 20 8.304688 19.578125 6.710938 18.835938 5.3125 L 1.164062 5.3125 C 0.421875 6.710938 0 8.304688 0 10 C 0 11.695312 0.421875 13.289062 1.164062 14.6875 Z M 18.835938 14.6875 "/>
<path fill-rule="nonzero" fill="rgb(20%, 54.117647%, 95.294118%)" fill-opacity="1" d="M 19.394531 13.4375 C 17.992188 17.265625 14.316406 20 10 20 C 5.683594 20 2.007812 17.265625 0.605469 13.4375 Z M 19.394531 13.4375 "/>
<path fill-rule="nonzero" fill="rgb(84.705882%, 0%, 15.294118%)" fill-opacity="1" d="M 19.394531 6.5625 L 0.605469 6.5625 C 2.007812 2.734375 5.683594 0 10 0 C 14.316406 0 17.992188 2.734375 19.394531 6.5625 Z M 19.394531 6.5625 "/>
<path fill-rule="nonzero" fill="rgb(93.333333%, 93.333333%, 93.333333%)" fill-opacity="1" d="M 10 20 C 15.523438 20 20 15.523438 20 10 C 20 4.476562 15.523438 0 10 0 C 4.476562 0 0 4.476562 0 10 C 0 15.523438 4.476562 20 10 20 Z M 10 20 "/>
<path fill-rule="nonzero" fill="rgb(84.705882%, 0%, 15.294118%)" fill-opacity="1" d="M 10 0 C 5.699219 0 2.035156 2.714844 0.621094 6.523438 L 19.378906 6.523438 C 17.964844 2.714844 14.300781 0 10 0 Z M 10 0 "/>
<path fill-rule="nonzero" fill="rgb(20%, 54.117647%, 95.294118%)" fill-opacity="1" d="M 10 20 C 14.300781 20 17.964844 17.285156 19.378906 13.476562 L 0.621094 13.476562 C 2.035156 17.285156 5.699219 20 10 20 Z M 10 20 "/>
</svg>
