<?xml version="1.0" encoding="UTF-8"?>
<svg xmlns="http://www.w3.org/2000/svg" xmlns:xlink="http://www.w3.org/1999/xlink" width="40" height="40" viewBox="0 0 40 40">
<path fill-rule="nonzero" fill="rgb(28.627451%, 43.137255%, 17.647059%)" fill-opacity="1" d="M 40 20 C 40 31.046875 31.046875 40 20 40 C 8.953125 40 0 31.046875 0 20 C 0 8.953125 8.953125 0 20 0 C 31.046875 0 40 8.953125 40 20 Z M 40 20 "/>
<path fill-rule="nonzero" fill="rgb(100%, 85.490196%, 26.666667%)" fill-opacity="1" d="M 20 23.105469 C 16.667969 23.105469 13.886719 20.765625 13.207031 17.640625 C 13.101562 18.121094 13.042969 18.617188 13.042969 19.128906 C 13.042969 22.972656 16.15625 26.085938 20 26.085938 C 23.84375 26.085938 26.957031 22.972656 26.957031 19.128906 C 26.957031 18.617188 26.898438 18.121094 26.792969 17.640625 C 26.113281 20.765625 23.332031 23.105469 20 23.105469 Z M 20 23.105469 "/>
<path fill-rule="nonzero" fill="rgb(100%, 85.490196%, 26.666667%)" fill-opacity="1" d="M 20 13.914062 L 20.648438 15.90625 L 22.742188 15.90625 L 21.046875 17.136719 L 21.695312 19.128906 L 20 17.898438 L 18.304688 19.128906 L 18.953125 17.136719 L 17.257812 15.90625 L 19.351562 15.90625 Z M 20 13.914062 "/>
</svg>
