<?xml version="1.0" encoding="UTF-8"?>
<svg xmlns="http://www.w3.org/2000/svg" xmlns:xlink="http://www.w3.org/1999/xlink" width="20" height="20" viewBox="0 0 20 20">
<path fill-rule="nonzero" fill="rgb(28.627451%, 43.137255%, 17.647059%)" fill-opacity="1" d="M 20 10 C 20 15.523438 15.523438 20 10 20 C 4.476562 20 0 15.523438 0 10 C 0 4.476562 4.476562 0 10 0 C 15.523438 0 20 4.476562 20 10 Z M 20 10 "/>
<path fill-rule="nonzero" fill="rgb(100%, 85.490196%, 26.666667%)" fill-opacity="1" d="M 10 11.554688 C 8.335938 11.554688 6.945312 10.382812 6.601562 8.820312 C 6.550781 9.058594 6.523438 9.308594 6.523438 9.566406 C 6.523438 11.484375 8.078125 13.042969 10 13.042969 C 11.921875 13.042969 13.476562 11.484375 13.476562 9.566406 C 13.476562 9.308594 13.449219 9.058594 13.398438 8.820312 C 13.054688 10.382812 11.664062 11.554688 10 11.554688 Z M 10 11.554688 "/>
<path fill-rule="nonzero" fill="rgb(100%, 85.490196%, 26.666667%)" fill-opacity="1" d="M 10 6.957031 L 10.324219 7.953125 L 11.371094 7.953125 L 10.523438 8.570312 L 10.847656 9.566406 L 10 8.949219 L 9.152344 9.566406 L 9.476562 8.570312 L 8.628906 7.953125 L 9.675781 7.953125 Z M 10 6.957031 "/>
</svg>
