<?xml version="1.0" encoding="UTF-8"?>
<svg xmlns="http://www.w3.org/2000/svg" xmlns:xlink="http://www.w3.org/1999/xlink" width="60" height="60" viewBox="0 0 60 60">
<path fill-rule="nonzero" fill="rgb(28.627451%, 43.137255%, 17.647059%)" fill-opacity="1" d="M 60 30 C 60 46.570312 46.570312 60 30 60 C 13.429688 60 0 46.570312 0 30 C 0 13.429688 13.429688 0 30 0 C 46.570312 0 60 13.429688 60 30 Z M 60 30 "/>
<path fill-rule="nonzero" fill="rgb(100%, 85.490196%, 26.666667%)" fill-opacity="1" d="M 30 34.65625 C 25.003906 34.65625 20.832031 31.148438 19.808594 26.460938 C 19.652344 27.179688 19.566406 27.925781 19.566406 28.695312 C 19.566406 34.457031 24.238281 39.128906 30 39.128906 C 35.761719 39.128906 40.433594 34.457031 40.433594 28.695312 C 40.433594 27.925781 40.347656 27.179688 40.191406 26.460938 C 39.167969 31.148438 34.996094 34.65625 30 34.65625 Z M 30 34.65625 "/>
<path fill-rule="nonzero" fill="rgb(100%, 85.490196%, 26.666667%)" fill-opacity="1" d="M 30 20.871094 L 30.972656 23.859375 L 34.113281 23.859375 L 31.570312 25.707031 L 32.542969 28.695312 L 30 26.847656 L 27.457031 28.695312 L 28.429688 25.707031 L 25.886719 23.859375 L 29.027344 23.859375 Z M 30 20.871094 "/>
</svg>
