<?xml version="1.0" encoding="UTF-8"?>
<svg xmlns="http://www.w3.org/2000/svg" xmlns:xlink="http://www.w3.org/1999/xlink" width="60" height="60" viewBox="0 0 60 60">
<path fill-rule="nonzero" fill="rgb(84.705882%, 0%, 15.294118%)" fill-opacity="1" d="M 60 30 C 60 46.570312 46.570312 60 30 60 C 13.429688 60 0 46.570312 0 30 C 0 13.429688 13.429688 0 30 0 C 46.570312 0 60 13.429688 60 30 Z M 60 30 "/>
<path fill-rule="nonzero" fill="rgb(100%, 85.490196%, 26.666667%)" fill-opacity="1" d="M 44.671875 30 L 38.675781 32.820312 L 41.871094 38.625 L 35.359375 37.378906 L 34.535156 43.957031 L 30 39.121094 L 25.464844 43.957031 L 24.640625 37.378906 L 18.132812 38.625 L 21.324219 32.820312 L 15.328125 30 L 21.324219 27.179688 L 18.132812 21.375 L 24.640625 22.621094 L 25.464844 16.042969 L 30 20.878906 L 34.535156 16.042969 L 35.359375 22.621094 L 41.871094 21.375 L 38.675781 27.179688 Z M 44.671875 30 "/>
<path fill-rule="nonzero" fill="rgb(84.705882%, 0%, 15.294118%)" fill-opacity="1" d="M 30 39.128906 C 35.042969 39.128906 39.128906 35.042969 39.128906 30 C 39.128906 24.957031 35.042969 20.871094 30 20.871094 C 24.957031 20.871094 20.871094 24.957031 20.871094 30 C 20.871094 35.042969 24.957031 39.128906 30 39.128906 Z M 30 39.128906 "/>
<path fill-rule="nonzero" fill="rgb(100%, 85.490196%, 26.666667%)" fill-opacity="1" d="M 25.433594 30 C 25.214844 30 24.996094 30.011719 24.78125 30.03125 C 24.789062 31.296875 25.25 32.453125 26.003906 33.355469 C 26.40625 32.269531 27.007812 31.28125 27.769531 30.433594 C 27.042969 30.15625 26.257812 30 25.433594 30 Z M 25.433594 30 "/>
<path fill-rule="nonzero" fill="rgb(100%, 85.490196%, 26.666667%)" fill-opacity="1" d="M 28.246094 34.914062 C 28.792969 35.109375 29.382812 35.21875 30 35.21875 C 30.617188 35.21875 31.207031 35.109375 31.753906 34.914062 C 31.457031 33.742188 30.839844 32.691406 30 31.871094 C 29.160156 32.691406 28.542969 33.742188 28.246094 34.914062 Z M 28.246094 34.914062 "/>
<path fill-rule="nonzero" fill="rgb(100%, 85.490196%, 26.666667%)" fill-opacity="1" d="M 34.519531 27.390625 C 33.617188 25.832031 31.933594 24.78125 30 24.78125 C 28.070312 24.78125 26.382812 25.832031 25.484375 27.390625 C 27.128906 27.402344 28.667969 27.847656 30 28.621094 C 31.332031 27.847656 32.875 27.402344 34.519531 27.390625 Z M 34.519531 27.390625 "/>
<path fill-rule="nonzero" fill="rgb(100%, 85.490196%, 26.666667%)" fill-opacity="1" d="M 32.230469 30.433594 C 32.992188 31.28125 33.59375 32.269531 33.996094 33.355469 C 34.75 32.453125 35.207031 31.296875 35.214844 30.03125 C 35 30.011719 34.785156 30 34.566406 30 C 33.742188 30 32.957031 30.15625 32.230469 30.433594 Z M 32.230469 30.433594 "/>
</svg>
