<?xml version="1.0" encoding="UTF-8"?>
<svg xmlns="http://www.w3.org/2000/svg" xmlns:xlink="http://www.w3.org/1999/xlink" width="20" height="20" viewBox="0 0 20 20">
<path fill-rule="nonzero" fill="rgb(84.705882%, 0%, 15.294118%)" fill-opacity="1" d="M 20 10 C 20 15.523438 15.523438 20 10 20 C 4.476562 20 0 15.523438 0 10 C 0 4.476562 4.476562 0 10 0 C 15.523438 0 20 4.476562 20 10 Z M 20 10 "/>
<path fill-rule="nonzero" fill="rgb(100%, 85.490196%, 26.666667%)" fill-opacity="1" d="M 14.890625 10 L 12.890625 10.941406 L 13.957031 12.875 L 11.785156 12.460938 L 11.511719 14.652344 L 10 13.039062 L 8.488281 14.652344 L 8.214844 12.460938 L 6.042969 12.875 L 7.109375 10.941406 L 5.109375 10 L 7.109375 9.058594 L 6.042969 7.125 L 8.214844 7.539062 L 8.488281 5.347656 L 10 6.960938 L 11.511719 5.347656 L 11.785156 7.539062 L 13.957031 7.125 L 12.890625 9.058594 Z M 14.890625 10 "/>
<path fill-rule="nonzero" fill="rgb(84.705882%, 0%, 15.294118%)" fill-opacity="1" d="M 10 13.042969 C 11.679688 13.042969 13.042969 11.679688 13.042969 10 C 13.042969 8.320312 11.679688 6.957031 10 6.957031 C 8.320312 6.957031 6.957031 8.320312 6.957031 10 C 6.957031 11.679688 8.320312 13.042969 10 13.042969 Z M 10 13.042969 "/>
<path fill-rule="nonzero" fill="rgb(100%, 85.490196%, 26.666667%)" fill-opacity="1" d="M 8.476562 10 C 8.40625 10 8.332031 10.003906 8.261719 10.011719 C 8.261719 10.433594 8.417969 10.816406 8.667969 11.117188 C 8.800781 10.757812 9.003906 10.425781 9.257812 10.144531 C 9.015625 10.050781 8.753906 10 8.476562 10 Z M 8.476562 10 "/>
<path fill-rule="nonzero" fill="rgb(100%, 85.490196%, 26.666667%)" fill-opacity="1" d="M 9.414062 11.636719 C 9.597656 11.703125 9.792969 11.738281 10 11.738281 C 10.207031 11.738281 10.402344 11.703125 10.585938 11.636719 C 10.484375 11.246094 10.28125 10.898438 10 10.625 C 9.71875 10.898438 9.515625 11.246094 9.414062 11.636719 Z M 9.414062 11.636719 "/>
<path fill-rule="nonzero" fill="rgb(100%, 85.490196%, 26.666667%)" fill-opacity="1" d="M 11.507812 9.132812 C 11.207031 8.609375 10.644531 8.261719 10 8.261719 C 9.355469 8.261719 8.792969 8.609375 8.492188 9.132812 C 9.042969 9.132812 9.554688 9.28125 10 9.539062 C 10.445312 9.28125 10.957031 9.132812 11.507812 9.132812 Z M 11.507812 9.132812 "/>
<path fill-rule="nonzero" fill="rgb(100%, 85.490196%, 26.666667%)" fill-opacity="1" d="M 10.742188 10.144531 C 10.996094 10.425781 11.199219 10.757812 11.332031 11.117188 C 11.582031 10.816406 11.734375 10.433594 11.738281 10.011719 C 11.667969 10.003906 11.59375 10 11.523438 10 C 11.246094 10 10.984375 10.050781 10.742188 10.144531 Z M 10.742188 10.144531 "/>
</svg>
