<?xml version="1.0" encoding="UTF-8"?>
<svg xmlns="http://www.w3.org/2000/svg" xmlns:xlink="http://www.w3.org/1999/xlink" width="40" height="40" viewBox="0 0 40 40">
<path fill-rule="nonzero" fill="rgb(84.705882%, 0%, 15.294118%)" fill-opacity="1" d="M 40 20 C 40 31.046875 31.046875 40 20 40 C 8.953125 40 0 31.046875 0 20 C 0 8.953125 8.953125 0 20 0 C 31.046875 0 40 8.953125 40 20 Z M 40 20 "/>
<path fill-rule="nonzero" fill="rgb(100%, 85.490196%, 26.666667%)" fill-opacity="1" d="M 29.78125 20 L 25.785156 21.878906 L 27.914062 25.75 L 23.574219 24.921875 L 23.023438 29.304688 L 20 26.082031 L 16.976562 29.304688 L 16.425781 24.921875 L 12.085938 25.75 L 14.214844 21.878906 L 10.21875 20 L 14.214844 18.121094 L 12.085938 14.25 L 16.425781 15.078125 L 16.976562 10.695312 L 20 13.921875 L 23.023438 10.695312 L 23.574219 15.078125 L 27.914062 14.25 L 25.785156 18.121094 Z M 29.78125 20 "/>
<path fill-rule="nonzero" fill="rgb(84.705882%, 0%, 15.294118%)" fill-opacity="1" d="M 20 26.085938 C 23.363281 26.085938 26.085938 23.363281 26.085938 20 C 26.085938 16.636719 23.363281 13.914062 20 13.914062 C 16.636719 13.914062 13.914062 16.636719 13.914062 20 C 13.914062 23.363281 16.636719 26.085938 20 26.085938 Z M 20 26.085938 "/>
<path fill-rule="nonzero" fill="rgb(100%, 85.490196%, 26.666667%)" fill-opacity="1" d="M 16.957031 20 C 16.808594 20 16.664062 20.007812 16.523438 20.023438 C 16.527344 20.863281 16.832031 21.636719 17.335938 22.234375 C 17.605469 21.511719 18.007812 20.851562 18.511719 20.289062 C 18.027344 20.101562 17.503906 20 16.957031 20 Z M 16.957031 20 "/>
<path fill-rule="nonzero" fill="rgb(100%, 85.490196%, 26.666667%)" fill-opacity="1" d="M 18.828125 23.277344 C 19.195312 23.40625 19.589844 23.476562 20 23.476562 C 20.410156 23.476562 20.804688 23.40625 21.167969 23.277344 C 20.96875 22.492188 20.558594 21.796875 20 21.246094 C 19.441406 21.796875 19.027344 22.492188 18.828125 23.277344 Z M 18.828125 23.277344 "/>
<path fill-rule="nonzero" fill="rgb(100%, 85.490196%, 26.666667%)" fill-opacity="1" d="M 23.011719 18.261719 C 22.410156 17.222656 21.289062 16.523438 20 16.523438 C 18.710938 16.523438 17.589844 17.222656 16.988281 18.261719 C 18.085938 18.265625 19.113281 18.566406 20 19.082031 C 20.886719 18.566406 21.914062 18.265625 23.011719 18.261719 Z M 23.011719 18.261719 "/>
<path fill-rule="nonzero" fill="rgb(100%, 85.490196%, 26.666667%)" fill-opacity="1" d="M 21.488281 20.289062 C 21.992188 20.851562 22.394531 21.511719 22.664062 22.234375 C 23.167969 21.636719 23.472656 20.863281 23.476562 20.023438 C 23.335938 20.007812 23.191406 20 23.042969 20 C 22.496094 20 21.972656 20.101562 21.488281 20.289062 Z M 21.488281 20.289062 "/>
</svg>
