<?xml version="1.0" encoding="UTF-8"?>
<svg xmlns="http://www.w3.org/2000/svg" xmlns:xlink="http://www.w3.org/1999/xlink" width="40" height="40" viewBox="0 0 40 40">
<path fill-rule="nonzero" fill="rgb(0%, 32.156863%, 70.588235%)" fill-opacity="1" d="M 37.324219 30 C 39.027344 27.058594 40 23.644531 40 20 C 40 16.355469 39.027344 12.941406 37.324219 10 L 2.675781 10 C 0.972656 12.941406 0 16.355469 0 20 C 0 23.644531 0.972656 27.058594 2.675781 30 Z M 37.324219 30 "/>
<path fill-rule="nonzero" fill="rgb(84.705882%, 0%, 15.294118%)" fill-opacity="1" d="M 19.992188 40 C 12.089844 39.996094 5.253906 35.410156 2.011719 28.75 L 37.988281 28.75 C 34.746094 35.410156 27.910156 39.996094 20.007812 40 Z M 19.992188 40 "/>
<path fill-rule="nonzero" fill="rgb(100%, 85.490196%, 26.666667%)" fill-opacity="1" d="M 20 0 C 12.09375 0 5.257812 4.589844 2.011719 11.25 L 37.988281 11.25 C 34.742188 4.589844 27.910156 0 20 0 Z M 20 0 "/>
<path fill-rule="nonzero" fill="rgb(93.333333%, 93.333333%, 93.333333%)" fill-opacity="1" d="M 34.636719 23.925781 L 33.582031 24.75 L 34.039062 26.011719 L 32.929688 25.261719 L 31.871094 26.085938 L 32.242188 24.796875 L 31.128906 24.046875 L 32.46875 24 L 32.839844 22.710938 L 33.296875 23.972656 Z M 34.636719 23.925781 "/>
<path fill-rule="nonzero" fill="rgb(93.333333%, 93.333333%, 93.333333%)" fill-opacity="1" d="M 31.933594 19.242188 L 31.222656 20.378906 L 32.085938 21.40625 L 30.785156 21.082031 L 30.074219 22.21875 L 29.980469 20.878906 L 28.679688 20.554688 L 29.921875 20.054688 L 29.828125 18.714844 L 30.691406 19.742188 Z M 31.933594 19.242188 "/>
<path fill-rule="nonzero" fill="rgb(93.333333%, 93.333333%, 93.333333%)" fill-opacity="1" d="M 27.789062 15.761719 L 27.507812 17.074219 L 28.671875 17.746094 L 27.335938 17.886719 L 27.058594 19.195312 L 26.511719 17.972656 L 25.179688 18.113281 L 26.175781 17.214844 L 25.632812 15.992188 L 26.792969 16.660156 Z M 27.789062 15.761719 "/>
<path fill-rule="nonzero" fill="rgb(93.333333%, 93.333333%, 93.333333%)" fill-opacity="1" d="M 22.703125 13.914062 L 22.890625 15.242188 L 24.210938 15.472656 L 23.007812 16.0625 L 23.195312 17.390625 L 22.261719 16.425781 L 21.058594 17.011719 L 21.6875 15.828125 L 20.753906 14.863281 L 22.074219 15.097656 Z M 22.703125 13.914062 "/>
<path fill-rule="nonzero" fill="rgb(93.333333%, 93.333333%, 93.333333%)" fill-opacity="1" d="M 17.296875 13.914062 L 17.925781 15.097656 L 19.246094 14.863281 L 18.3125 15.828125 L 18.941406 17.011719 L 17.738281 16.425781 L 16.804688 17.390625 L 16.992188 16.0625 L 15.789062 15.472656 L 17.109375 15.242188 Z M 17.296875 13.914062 "/>
<path fill-rule="nonzero" fill="rgb(93.333333%, 93.333333%, 93.333333%)" fill-opacity="1" d="M 12.210938 15.761719 L 13.207031 16.660156 L 14.367188 15.992188 L 13.824219 17.214844 L 14.820312 18.113281 L 13.484375 17.972656 L 12.941406 19.195312 L 12.664062 17.886719 L 11.328125 17.746094 L 12.488281 17.074219 Z M 12.210938 15.761719 "/>
<path fill-rule="nonzero" fill="rgb(93.333333%, 93.333333%, 93.333333%)" fill-opacity="1" d="M 8.066406 19.242188 L 9.308594 19.742188 L 10.171875 18.714844 L 10.078125 20.054688 L 11.320312 20.554688 L 10.019531 20.878906 L 9.925781 22.21875 L 9.21875 21.082031 L 7.914062 21.40625 L 8.777344 20.378906 Z M 8.066406 19.242188 "/>
<path fill-rule="nonzero" fill="rgb(93.333333%, 93.333333%, 93.333333%)" fill-opacity="1" d="M 5.363281 23.925781 L 6.703125 23.972656 L 7.160156 22.714844 L 7.53125 24 L 8.871094 24.046875 L 7.757812 24.796875 L 8.128906 26.085938 L 7.070312 25.261719 L 5.960938 26.011719 L 6.417969 24.75 Z M 5.363281 23.925781 "/>
</svg>
