<?xml version="1.0" encoding="UTF-8"?>
<svg xmlns="http://www.w3.org/2000/svg" xmlns:xlink="http://www.w3.org/1999/xlink" width="20" height="20" viewBox="0 0 20 20">
<path fill-rule="nonzero" fill="rgb(0%, 32.156863%, 70.588235%)" fill-opacity="1" d="M 18.664062 15 C 19.511719 13.527344 20 11.820312 20 10 C 20 8.179688 19.511719 6.472656 18.664062 5 L 1.335938 5 C 0.488281 6.472656 0 8.179688 0 10 C 0 11.820312 0.488281 13.527344 1.335938 15 Z M 18.664062 15 "/>
<path fill-rule="nonzero" fill="rgb(84.705882%, 0%, 15.294118%)" fill-opacity="1" d="M 9.996094 20 C 6.042969 20 2.628906 17.703125 1.003906 14.375 L 18.996094 14.375 C 17.371094 17.703125 13.957031 20 10.003906 20 Z M 9.996094 20 "/>
<path fill-rule="nonzero" fill="rgb(100%, 85.490196%, 26.666667%)" fill-opacity="1" d="M 10 0 C 6.046875 0 2.628906 2.292969 1.003906 5.625 L 18.996094 5.625 C 17.371094 2.292969 13.953125 0 10 0 Z M 10 0 "/>
<path fill-rule="nonzero" fill="rgb(93.333333%, 93.333333%, 93.333333%)" fill-opacity="1" d="M 17.320312 11.960938 L 16.789062 12.375 L 17.019531 13.003906 L 16.464844 12.628906 L 15.9375 13.042969 L 16.121094 12.398438 L 15.566406 12.023438 L 16.234375 12 L 16.421875 11.355469 L 16.648438 11.984375 Z M 17.320312 11.960938 "/>
<path fill-rule="nonzero" fill="rgb(93.333333%, 93.333333%, 93.333333%)" fill-opacity="1" d="M 15.964844 9.621094 L 15.609375 10.1875 L 16.042969 10.703125 L 15.390625 10.539062 L 15.035156 11.109375 L 14.988281 10.441406 L 14.339844 10.277344 L 14.960938 10.027344 L 14.914062 9.359375 L 15.34375 9.871094 Z M 15.964844 9.621094 "/>
<path fill-rule="nonzero" fill="rgb(93.333333%, 93.333333%, 93.333333%)" fill-opacity="1" d="M 13.894531 7.882812 L 13.753906 8.539062 L 14.335938 8.871094 L 13.667969 8.941406 L 13.53125 9.597656 L 13.257812 8.984375 L 12.589844 9.054688 L 13.089844 8.605469 L 12.816406 7.996094 L 13.394531 8.332031 Z M 13.894531 7.882812 "/>
<path fill-rule="nonzero" fill="rgb(93.333333%, 93.333333%, 93.333333%)" fill-opacity="1" d="M 11.351562 6.957031 L 11.445312 7.621094 L 12.105469 7.738281 L 11.503906 8.03125 L 11.597656 8.695312 L 11.132812 8.210938 L 10.527344 8.507812 L 10.84375 7.914062 L 10.378906 7.433594 L 11.039062 7.546875 Z M 11.351562 6.957031 "/>
<path fill-rule="nonzero" fill="rgb(93.333333%, 93.333333%, 93.333333%)" fill-opacity="1" d="M 8.648438 6.957031 L 8.960938 7.546875 L 9.621094 7.433594 L 9.15625 7.914062 L 9.472656 8.507812 L 8.867188 8.210938 L 8.402344 8.695312 L 8.496094 8.03125 L 7.894531 7.738281 L 8.554688 7.621094 Z M 8.648438 6.957031 "/>
<path fill-rule="nonzero" fill="rgb(93.333333%, 93.333333%, 93.333333%)" fill-opacity="1" d="M 6.105469 7.882812 L 6.605469 8.332031 L 7.183594 7.996094 L 6.910156 8.609375 L 7.410156 9.054688 L 6.742188 8.984375 L 6.46875 9.597656 L 6.332031 8.941406 L 5.664062 8.871094 L 6.246094 8.539062 Z M 6.105469 7.882812 "/>
<path fill-rule="nonzero" fill="rgb(93.333333%, 93.333333%, 93.333333%)" fill-opacity="1" d="M 4.035156 9.621094 L 4.65625 9.871094 L 5.085938 9.359375 L 5.039062 10.027344 L 5.660156 10.277344 L 5.011719 10.441406 L 4.964844 11.109375 L 4.609375 10.539062 L 3.957031 10.703125 L 4.390625 10.1875 Z M 4.035156 9.621094 "/>
<path fill-rule="nonzero" fill="rgb(93.333333%, 93.333333%, 93.333333%)" fill-opacity="1" d="M 2.679688 11.960938 L 3.351562 11.984375 L 3.582031 11.355469 L 3.765625 12 L 4.433594 12.023438 L 3.878906 12.398438 L 4.0625 13.042969 L 3.535156 12.628906 L 2.980469 13.003906 L 3.210938 12.375 Z M 2.679688 11.960938 "/>
</svg>
