<?xml version="1.0" encoding="UTF-8"?>
<svg xmlns="http://www.w3.org/2000/svg" xmlns:xlink="http://www.w3.org/1999/xlink" width="60" height="60" viewBox="0 0 60 60">
<path fill-rule="nonzero" fill="rgb(0%, 32.156863%, 70.588235%)" fill-opacity="1" d="M 55.984375 45 C 58.539062 40.585938 60 35.464844 60 30 C 60 24.535156 58.539062 19.414062 55.984375 15 L 4.015625 15 C 1.460938 19.414062 0 24.535156 0 30 C 0 35.464844 1.460938 40.585938 4.015625 45 Z M 55.984375 45 "/>
<path fill-rule="nonzero" fill="rgb(84.705882%, 0%, 15.294118%)" fill-opacity="1" d="M 29.988281 60 C 18.132812 59.996094 7.882812 53.113281 3.015625 43.125 L 56.984375 43.125 C 52.117188 53.113281 41.867188 59.996094 30.007812 60 Z M 29.988281 60 "/>
<path fill-rule="nonzero" fill="rgb(100%, 85.490196%, 26.666667%)" fill-opacity="1" d="M 30 0 C 18.136719 0 7.882812 6.882812 3.015625 16.875 L 56.984375 16.875 C 52.117188 6.882812 41.863281 0 30 0 Z M 30 0 "/>
<path fill-rule="nonzero" fill="rgb(93.333333%, 93.333333%, 93.333333%)" fill-opacity="1" d="M 51.957031 35.890625 L 50.371094 37.125 L 51.0625 39.015625 L 49.394531 37.890625 L 47.808594 39.128906 L 48.363281 37.195312 L 46.695312 36.074219 L 48.707031 36.003906 L 49.261719 34.070312 L 49.949219 35.957031 L 51.957031 35.886719 Z M 51.957031 35.890625 "/>
<path fill-rule="nonzero" fill="rgb(93.333333%, 93.333333%, 93.333333%)" fill-opacity="1" d="M 47.898438 28.859375 L 46.832031 30.566406 L 48.125 32.105469 L 46.175781 31.621094 L 45.109375 33.324219 L 44.96875 31.320312 L 43.019531 30.832031 L 44.882812 30.078125 L 44.742188 28.074219 L 46.035156 29.613281 Z M 47.898438 28.859375 "/>
<path fill-rule="nonzero" fill="rgb(93.333333%, 93.333333%, 93.333333%)" fill-opacity="1" d="M 41.683594 23.644531 L 41.265625 25.613281 L 43.007812 26.617188 L 41.007812 26.828125 L 40.589844 28.792969 L 39.769531 26.957031 L 37.769531 27.167969 L 39.265625 25.820312 L 38.445312 23.984375 L 40.1875 24.992188 Z M 41.683594 23.644531 "/>
<path fill-rule="nonzero" fill="rgb(93.333333%, 93.333333%, 93.333333%)" fill-opacity="1" d="M 34.058594 20.871094 L 34.335938 22.859375 L 36.316406 23.210938 L 34.511719 24.09375 L 34.789062 26.082031 L 33.394531 24.636719 L 31.585938 25.519531 L 32.53125 23.742188 L 31.132812 22.296875 L 33.113281 22.644531 Z M 34.058594 20.871094 "/>
<path fill-rule="nonzero" fill="rgb(93.333333%, 93.333333%, 93.333333%)" fill-opacity="1" d="M 25.941406 20.871094 L 26.886719 22.644531 L 28.867188 22.296875 L 27.46875 23.742188 L 28.414062 25.519531 L 26.605469 24.636719 L 25.210938 26.082031 L 25.488281 24.09375 L 23.683594 23.210938 L 25.664062 22.859375 Z M 25.941406 20.871094 "/>
<path fill-rule="nonzero" fill="rgb(93.333333%, 93.333333%, 93.333333%)" fill-opacity="1" d="M 18.316406 23.644531 L 19.8125 24.992188 L 21.550781 23.984375 L 20.734375 25.824219 L 22.230469 27.167969 L 20.230469 26.957031 L 19.410156 28.792969 L 18.992188 26.828125 L 16.992188 26.617188 L 18.734375 25.613281 Z M 18.316406 23.644531 "/>
<path fill-rule="nonzero" fill="rgb(93.333333%, 93.333333%, 93.333333%)" fill-opacity="1" d="M 12.101562 28.859375 L 13.964844 29.613281 L 15.257812 28.074219 L 15.117188 30.082031 L 16.980469 30.832031 L 15.03125 31.320312 L 14.890625 33.324219 L 13.824219 31.621094 L 11.875 32.105469 L 13.167969 30.566406 Z M 12.101562 28.859375 "/>
<path fill-rule="nonzero" fill="rgb(93.333333%, 93.333333%, 93.333333%)" fill-opacity="1" d="M 8.042969 35.890625 L 10.054688 35.957031 L 10.742188 34.070312 L 11.296875 36.003906 L 13.304688 36.074219 L 11.636719 37.199219 L 12.191406 39.128906 L 10.605469 37.890625 L 8.941406 39.015625 L 9.628906 37.125 L 8.042969 35.886719 Z M 8.042969 35.890625 "/>
</svg>
