<?xml version="1.0" encoding="UTF-8"?>
<svg xmlns="http://www.w3.org/2000/svg" xmlns:xlink="http://www.w3.org/1999/xlink" width="60" height="60" viewBox="0 0 60 60">
<path fill-rule="nonzero" fill="rgb(20%, 54.117647%, 95.294118%)" fill-opacity="1" d="M 60 30 C 60 46.570312 46.570312 60 30 60 C 13.429688 60 0 46.570312 0 30 C 0 13.429688 13.429688 0 30 0 C 46.570312 0 60 13.429688 60 30 Z M 60 30 "/>
<path fill-rule="evenodd" fill="rgb(93.333333%, 93.333333%, 93.333333%)" fill-opacity="1" d="M 58.621094 39.128906 C 59.515625 36.285156 60 33.257812 60 30.117188 C 60 26.890625 59.488281 23.78125 58.546875 20.871094 L 1.453125 20.871094 C 0.507812 23.78125 0 26.890625 0 30.117188 C 0 33.257812 0.480469 36.285156 1.378906 39.128906 Z M 58.621094 39.128906 "/>
<path fill-rule="evenodd" fill="rgb(20%, 20%, 20%)" fill-opacity="1" d="M 59.570312 35.21875 C 59.851562 33.558594 60 31.855469 60 30.117188 C 60 28.296875 59.839844 26.511719 59.527344 24.78125 L 0.472656 24.78125 C 0.164062 26.511719 0 28.296875 0 30.117188 C 0 31.855469 0.148438 33.558594 0.433594 35.21875 Z M 59.570312 35.21875 "/>
</svg>
