<?xml version="1.0" encoding="UTF-8"?>
<svg xmlns="http://www.w3.org/2000/svg" xmlns:xlink="http://www.w3.org/1999/xlink" width="20" height="20" viewBox="0 0 20 20">
<path fill-rule="nonzero" fill="rgb(20%, 54.117647%, 95.294118%)" fill-opacity="1" d="M 20 10 C 20 15.523438 15.523438 20 10 20 C 4.476562 20 0 15.523438 0 10 C 0 4.476562 4.476562 0 10 0 C 15.523438 0 20 4.476562 20 10 Z M 20 10 "/>
<path fill-rule="evenodd" fill="rgb(93.333333%, 93.333333%, 93.333333%)" fill-opacity="1" d="M 19.539062 13.042969 C 19.839844 12.09375 20 11.085938 20 10.039062 C 20 8.964844 19.828125 7.925781 19.515625 6.957031 L 0.484375 6.957031 C 0.167969 7.925781 0 8.964844 0 10.039062 C 0 11.085938 0.160156 12.09375 0.460938 13.042969 Z M 19.539062 13.042969 "/>
<path fill-rule="evenodd" fill="rgb(20%, 20%, 20%)" fill-opacity="1" d="M 19.855469 11.738281 C 19.949219 11.1875 20 10.617188 20 10.039062 C 20 9.433594 19.945312 8.835938 19.84375 8.261719 L 0.15625 8.261719 C 0.0546875 8.835938 0 9.433594 0 10.039062 C 0 10.617188 0.0507812 11.1875 0.144531 11.738281 Z M 19.855469 11.738281 "/>
</svg>
