<?xml version="1.0" encoding="UTF-8"?>
<svg xmlns="http://www.w3.org/2000/svg" xmlns:xlink="http://www.w3.org/1999/xlink" width="40" height="40" viewBox="0 0 40 40">
<path fill-rule="nonzero" fill="rgb(20%, 54.117647%, 95.294118%)" fill-opacity="1" d="M 40 20 C 40 31.046875 31.046875 40 20 40 C 8.953125 40 0 31.046875 0 20 C 0 8.953125 8.953125 0 20 0 C 31.046875 0 40 8.953125 40 20 Z M 40 20 "/>
<path fill-rule="evenodd" fill="rgb(93.333333%, 93.333333%, 93.333333%)" fill-opacity="1" d="M 39.082031 26.085938 C 39.679688 24.191406 40 22.171875 40 20.078125 C 40 17.925781 39.660156 15.855469 39.03125 13.914062 L 0.96875 13.914062 C 0.339844 15.855469 0 17.925781 0 20.078125 C 0 22.171875 0.320312 24.191406 0.917969 26.085938 Z M 39.082031 26.085938 "/>
<path fill-rule="evenodd" fill="rgb(20%, 20%, 20%)" fill-opacity="1" d="M 39.710938 23.476562 C 39.902344 22.375 40 21.238281 40 20.078125 C 40 18.863281 39.890625 17.675781 39.683594 16.519531 L 0.316406 16.519531 C 0.109375 17.675781 0 18.863281 0 20.078125 C 0 21.238281 0.0976562 22.371094 0.289062 23.476562 Z M 39.710938 23.476562 "/>
</svg>
