<?xml version="1.0" encoding="UTF-8"?>
<svg xmlns="http://www.w3.org/2000/svg" xmlns:xlink="http://www.w3.org/1999/xlink" width="60" height="60" viewBox="0 0 60 60">
<path fill-rule="nonzero" fill="rgb(84.705882%, 0%, 15.294118%)" fill-opacity="1" d="M 45 4.011719 C 40.585938 1.460938 35.464844 0 30 0 C 24.535156 0 19.414062 1.460938 15 4.011719 L 15 55.984375 C 19.414062 58.539062 24.535156 60 30 60 C 35.464844 60 40.585938 58.539062 45 55.984375 Z M 45 4.011719 "/>
<path fill-rule="nonzero" fill="rgb(100%, 85.490196%, 26.666667%)" fill-opacity="1" d="M 60 30.011719 C 59.996094 41.867188 53.113281 52.117188 43.125 56.984375 L 43.125 3.015625 C 53.113281 7.882812 59.996094 18.132812 60 29.992188 Z M 60 30.011719 "/>
<path fill-rule="nonzero" fill="rgb(28.627451%, 43.137255%, 17.647059%)" fill-opacity="1" d="M 0 30 C 0 41.863281 6.882812 52.117188 16.875 56.984375 L 16.875 3.015625 C 6.882812 7.882812 0 18.136719 0 30 Z M 0 30 "/>
<path fill-rule="nonzero" fill="rgb(100%, 85.490196%, 26.666667%)" fill-opacity="1" d="M 30 18.460938 L 32.589844 26.433594 L 40.972656 26.433594 L 34.191406 31.363281 L 36.78125 39.332031 L 30 34.40625 L 23.21875 39.332031 L 25.808594 31.363281 L 19.027344 26.433594 L 27.410156 26.433594 L 30 18.464844 Z M 30 18.460938 "/>
</svg>
