<?xml version="1.0" encoding="UTF-8"?>
<svg xmlns="http://www.w3.org/2000/svg" xmlns:xlink="http://www.w3.org/1999/xlink" width="20" height="20" viewBox="0 0 20 20">
<path fill-rule="nonzero" fill="rgb(84.705882%, 0%, 15.294118%)" fill-opacity="1" d="M 15 1.335938 C 13.527344 0.488281 11.820312 0 10 0 C 8.179688 0 6.472656 0.488281 5 1.335938 L 5 18.660156 C 6.472656 19.511719 8.179688 20 10 20 C 11.820312 20 13.527344 19.511719 15 18.660156 Z M 15 1.335938 "/>
<path fill-rule="nonzero" fill="rgb(100%, 85.490196%, 26.666667%)" fill-opacity="1" d="M 20 10.003906 C 20 13.957031 17.703125 17.371094 14.375 18.996094 L 14.375 1.003906 C 17.703125 2.628906 20 6.042969 20 9.996094 Z M 20 10.003906 "/>
<path fill-rule="nonzero" fill="rgb(28.627451%, 43.137255%, 17.647059%)" fill-opacity="1" d="M 0 10 C 0 13.953125 2.292969 17.371094 5.625 18.996094 L 5.625 1.003906 C 2.292969 2.628906 0 6.046875 0 10 Z M 0 10 "/>
<path fill-rule="nonzero" fill="rgb(100%, 85.490196%, 26.666667%)" fill-opacity="1" d="M 10 6.15625 L 10.863281 8.8125 L 13.65625 8.8125 L 11.398438 10.453125 L 12.261719 13.109375 L 10 11.46875 L 7.738281 13.109375 L 8.601562 10.453125 L 6.34375 8.8125 L 9.136719 8.8125 Z M 10 6.15625 "/>
</svg>
