<?xml version="1.0" encoding="UTF-8"?>
<svg xmlns="http://www.w3.org/2000/svg" xmlns:xlink="http://www.w3.org/1999/xlink" width="40" height="40" viewBox="0 0 40 40">
<path fill-rule="nonzero" fill="rgb(100%, 85.490196%, 26.666667%)" fill-opacity="1" d="M 37.324219 30 C 39.027344 27.058594 40 23.644531 40 20 C 40 16.355469 39.027344 12.941406 37.324219 10 L 2.675781 10 C 0.972656 12.941406 0 16.355469 0 20 C 0 23.644531 0.972656 27.058594 2.675781 30 Z M 37.324219 30 "/>
<path fill-rule="nonzero" fill="rgb(42.745098%, 64.705882%, 26.666667%)" fill-opacity="1" d="M 19.992188 40 C 12.089844 39.996094 5.253906 35.410156 2.011719 28.75 L 37.988281 28.75 C 34.746094 35.410156 27.910156 39.996094 20.007812 40 Z M 19.992188 40 "/>
<path fill-rule="nonzero" fill="rgb(42.745098%, 64.705882%, 26.666667%)" fill-opacity="1" d="M 20 0 C 12.09375 0 5.257812 4.589844 2.011719 11.25 L 37.988281 11.25 C 34.742188 4.589844 27.910156 0 20 0 Z M 20 0 "/>
<path fill-rule="nonzero" fill="rgb(84.705882%, 0%, 15.294118%)" fill-opacity="1" d="M 0 19.1875 C 0.207031 13.984375 2.40625 9.289062 5.851562 5.847656 L 20 20 L 5.851562 34.148438 C 2.40625 30.707031 0.207031 26.015625 0 20.8125 L 0 19.183594 Z M 0 19.1875 "/>
<path fill-rule="nonzero" fill="rgb(20%, 20%, 20%)" fill-opacity="1" d="M 25.5 16.25 L 26.34375 18.839844 L 29.066406 18.839844 L 26.863281 20.441406 L 27.703125 23.035156 L 25.5 21.433594 L 23.296875 23.035156 L 24.136719 20.441406 L 21.933594 18.839844 L 24.65625 18.839844 Z M 25.5 16.25 "/>
<path fill-rule="nonzero" fill="rgb(20%, 20%, 20%)" fill-opacity="1" d="M 34.5 16.25 L 35.34375 18.839844 L 38.066406 18.839844 L 35.863281 20.441406 L 36.703125 23.035156 L 34.5 21.433594 L 32.296875 23.035156 L 33.136719 20.441406 L 30.933594 18.839844 L 33.65625 18.839844 Z M 34.5 16.25 "/>
</svg>
