<?xml version="1.0" encoding="UTF-8"?>
<svg xmlns="http://www.w3.org/2000/svg" xmlns:xlink="http://www.w3.org/1999/xlink" width="60" height="60" viewBox="0 0 60 60">
<path fill-rule="nonzero" fill="rgb(100%, 85.490196%, 26.666667%)" fill-opacity="1" d="M 55.984375 45 C 58.539062 40.585938 60 35.464844 60 30 C 60 24.535156 58.539062 19.414062 55.984375 15 L 4.015625 15 C 1.460938 19.414062 0 24.535156 0 30 C 0 35.464844 1.460938 40.585938 4.015625 45 Z M 55.984375 45 "/>
<path fill-rule="nonzero" fill="rgb(42.745098%, 64.705882%, 26.666667%)" fill-opacity="1" d="M 29.988281 60 C 18.132812 59.996094 7.882812 53.113281 3.015625 43.125 L 56.984375 43.125 C 52.117188 53.113281 41.867188 59.996094 30.007812 60 Z M 29.988281 60 "/>
<path fill-rule="nonzero" fill="rgb(42.745098%, 64.705882%, 26.666667%)" fill-opacity="1" d="M 30 0 C 18.136719 0 7.882812 6.882812 3.015625 16.875 L 56.984375 16.875 C 52.117188 6.882812 41.863281 0 30 0 Z M 30 0 "/>
<path fill-rule="nonzero" fill="rgb(84.705882%, 0%, 15.294118%)" fill-opacity="1" d="M 0 28.777344 C 0.3125 20.972656 3.605469 13.9375 8.773438 8.773438 L 30 30 L 8.773438 51.222656 C 3.605469 46.0625 0.3125 39.023438 0 31.21875 Z M 0 28.777344 "/>
<path fill-rule="nonzero" fill="rgb(20%, 20%, 20%)" fill-opacity="1" d="M 38.25 24.375 L 39.511719 28.261719 L 43.601562 28.261719 L 40.292969 30.664062 L 41.554688 34.550781 L 38.25 32.148438 L 34.945312 34.550781 L 36.207031 30.664062 L 32.898438 28.261719 L 36.988281 28.261719 Z M 38.25 24.375 "/>
<path fill-rule="nonzero" fill="rgb(20%, 20%, 20%)" fill-opacity="1" d="M 51.75 24.375 L 53.011719 28.261719 L 57.101562 28.261719 L 53.792969 30.664062 L 55.054688 34.550781 L 51.75 32.148438 L 48.445312 34.550781 L 49.707031 30.664062 L 46.398438 28.261719 L 50.488281 28.261719 Z M 51.75 24.375 "/>
</svg>
