<?xml version="1.0" encoding="UTF-8"?>
<svg xmlns="http://www.w3.org/2000/svg" xmlns:xlink="http://www.w3.org/1999/xlink" width="40" height="40" viewBox="0 0 40 40">
<path fill-rule="evenodd" fill="rgb(0%, 32.156863%, 70.588235%)" fill-opacity="1" d="M 34.21875 34.066406 C 37.792969 30.453125 40 25.484375 40 20 C 40 16.902344 39.296875 13.96875 38.039062 11.351562 L 1.960938 11.351562 C 0.703125 13.96875 0 16.902344 0 20 C 0 25.484375 2.207031 30.453125 5.78125 34.066406 Z M 34.21875 34.066406 "/>
<path fill-rule="evenodd" fill="rgb(84.705882%, 0%, 15.294118%)" fill-opacity="1" d="M 37.324219 30 C 33.867188 35.976562 27.402344 40 20 40 C 12.597656 40 6.132812 35.976562 2.675781 30 Z M 37.324219 30 "/>
<path fill-rule="evenodd" fill="rgb(100%, 85.490196%, 26.666667%)" fill-opacity="1" d="M 40 20 C 40 8.953125 31.046875 0 20 0 C 8.953125 0 0 8.953125 0 20 Z M 40 20 "/>
</svg>
