<?xml version="1.0" encoding="UTF-8"?>
<svg xmlns="http://www.w3.org/2000/svg" xmlns:xlink="http://www.w3.org/1999/xlink" width="20" height="20" viewBox="0 0 20 20">
<path fill-rule="evenodd" fill="rgb(0%, 32.156863%, 70.588235%)" fill-opacity="1" d="M 17.109375 17.03125 C 18.894531 15.226562 20 12.742188 20 10 C 20 8.449219 19.648438 6.984375 19.019531 5.675781 L 0.980469 5.675781 C 0.351562 6.984375 0 8.449219 0 10 C 0 12.742188 1.105469 15.226562 2.890625 17.03125 Z M 17.109375 17.03125 "/>
<path fill-rule="evenodd" fill="rgb(84.705882%, 0%, 15.294118%)" fill-opacity="1" d="M 18.664062 15 C 16.933594 17.988281 13.703125 20 10 20 C 6.296875 20 3.066406 17.988281 1.335938 15 Z M 18.664062 15 "/>
<path fill-rule="evenodd" fill="rgb(100%, 85.490196%, 26.666667%)" fill-opacity="1" d="M 20 10 C 20 4.476562 15.523438 0 10 0 C 4.476562 0 0 4.476562 0 10 Z M 20 10 "/>
</svg>
