<?xml version="1.0" encoding="UTF-8"?>
<svg xmlns="http://www.w3.org/2000/svg" xmlns:xlink="http://www.w3.org/1999/xlink" width="60" height="60" viewBox="0 0 60 60">
<path fill-rule="evenodd" fill="rgb(0%, 32.156863%, 70.588235%)" fill-opacity="1" d="M 51.324219 51.101562 C 56.6875 45.679688 60 38.226562 60 30 C 60 25.351562 58.945312 20.953125 57.058594 17.027344 L 2.941406 17.027344 C 1.054688 20.953125 0 25.351562 0 30 C 0 38.226562 3.3125 45.679688 8.675781 51.101562 Z M 51.324219 51.101562 "/>
<path fill-rule="evenodd" fill="rgb(84.705882%, 0%, 15.294118%)" fill-opacity="1" d="M 55.984375 45 C 50.800781 53.96875 41.101562 60 30 60 C 18.898438 60 9.199219 53.96875 4.015625 45 Z M 55.984375 45 "/>
<path fill-rule="evenodd" fill="rgb(100%, 85.490196%, 26.666667%)" fill-opacity="1" d="M 60 30 C 60 13.433594 46.566406 0 30 0 C 13.433594 0 0 13.433594 0 30 Z M 60 30 "/>
</svg>
