<?xml version="1.0" encoding="UTF-8"?>
<svg xmlns="http://www.w3.org/2000/svg" xmlns:xlink="http://www.w3.org/1999/xlink" width="340px" height="340px" viewBox="0 0 340 340" version="1.1">
<g id="surface1">
<path style=" stroke:none;fill-rule:nonzero;fill:rgb(100%,100%,100%);fill-opacity:1;" d="M 145.714844 71.644531 C 96.054688 83.921875 63.367188 131.328125 69.550781 182.109375 C 75.734375 232.886719 118.84375 271.066406 170 271.066406 C 221.15625 271.066406 264.265625 232.886719 270.449219 182.109375 C 276.632812 131.328125 243.945312 83.921875 194.285156 71.644531 L 194.285156 88.441406 C 234.730469 100.5 260.203125 140.40625 254.109375 182.167969 C 248.015625 223.929688 212.203125 254.898438 170 254.898438 C 127.796875 254.898438 91.984375 223.929688 85.890625 182.167969 C 79.796875 140.40625 105.269531 100.5 145.714844 88.441406 Z M 161.90625 42.5 L 161.90625 167.976562 C 161.90625 172.445312 165.527344 176.070312 170 176.070312 C 174.472656 176.070312 178.09375 172.445312 178.09375 167.976562 L 178.09375 42.5 C 178.09375 38.027344 174.472656 34.40625 170 34.40625 C 165.527344 34.40625 161.90625 38.027344 161.90625 42.5 Z M 161.90625 42.5 "/>
</g>
</svg>
