<?xml version="1.0" encoding="UTF-8"?>
<svg xmlns="http://www.w3.org/2000/svg" xmlns:xlink="http://www.w3.org/1999/xlink" width="60" height="60" viewBox="0 0 60 60">
<path fill-rule="nonzero" fill="rgb(84.705882%, 0%, 15.294118%)" fill-opacity="1" d="M 30 60 C 46.550781 60 59.96875 46.601562 60 30.058594 L 60 30 L 30 26.25 L 0 30 C 0 46.566406 13.433594 60 30 60 Z M 30 60 "/>
<path fill-rule="nonzero" fill="rgb(0%, 32.156863%, 70.588235%)" fill-opacity="1" d="M 60 29.941406 L 60 30 L 0 30 C 0 13.433594 13.433594 0 30 0 C 46.550781 0 59.96875 13.398438 60 29.941406 Z M 60 29.941406 "/>
<path fill-rule="nonzero" fill="rgb(100%, 85.490196%, 26.666667%)" fill-opacity="1" d="M 23.476562 16.957031 C 23.476562 14.796875 21.726562 13.042969 19.566406 13.042969 C 18.5625 13.042969 17.648438 13.421875 16.957031 14.042969 L 16.957031 11.738281 L 18.261719 11.738281 L 18.261719 9.132812 L 16.957031 9.132812 L 16.957031 7.828125 L 14.347656 7.828125 L 14.347656 9.132812 L 13.042969 9.132812 L 13.042969 11.738281 L 14.347656 11.738281 L 14.347656 14.042969 C 13.65625 13.421875 12.742188 13.042969 11.738281 13.042969 C 9.578125 13.042969 7.828125 14.796875 7.828125 16.957031 C 7.828125 18.117188 8.332031 19.15625 9.128906 19.871094 L 9.128906 22.175781 L 22.171875 22.175781 L 22.171875 19.871094 C 22.972656 19.15625 23.476562 18.117188 23.476562 16.957031 Z M 23.476562 16.957031 "/>
</svg>
