<?xml version="1.0" encoding="UTF-8"?>
<svg xmlns="http://www.w3.org/2000/svg" xmlns:xlink="http://www.w3.org/1999/xlink" width="20" height="20" viewBox="0 0 20 20">
<path fill-rule="nonzero" fill="rgb(84.705882%, 0%, 15.294118%)" fill-opacity="1" d="M 10 20 C 15.515625 20 19.988281 15.535156 20 10.019531 L 20 10 L 10 8.75 L 0 10 C 0 15.523438 4.476562 20 10 20 Z M 10 20 "/>
<path fill-rule="nonzero" fill="rgb(0%, 32.156863%, 70.588235%)" fill-opacity="1" d="M 20 9.980469 L 20 10 L 0 10 C 0 4.476562 4.476562 0 10 0 C 15.515625 0 19.988281 4.464844 20 9.980469 Z M 20 9.980469 "/>
<path fill-rule="nonzero" fill="rgb(100%, 85.490196%, 26.666667%)" fill-opacity="1" d="M 7.828125 5.652344 C 7.828125 4.933594 7.242188 4.347656 6.523438 4.347656 C 6.1875 4.347656 5.882812 4.472656 5.652344 4.679688 L 5.652344 3.914062 L 6.085938 3.914062 L 6.085938 3.042969 L 5.652344 3.042969 L 5.652344 2.609375 L 4.78125 2.609375 L 4.78125 3.042969 L 4.347656 3.042969 L 4.347656 3.914062 L 4.78125 3.914062 L 4.78125 4.679688 C 4.550781 4.472656 4.246094 4.347656 3.914062 4.347656 C 3.191406 4.347656 2.609375 4.933594 2.609375 5.652344 C 2.609375 6.039062 2.777344 6.386719 3.042969 6.625 L 3.042969 7.390625 L 7.390625 7.390625 L 7.390625 6.625 C 7.65625 6.386719 7.824219 6.039062 7.824219 5.652344 Z M 7.828125 5.652344 "/>
</svg>
