<?xml version="1.0" encoding="UTF-8"?>
<svg xmlns="http://www.w3.org/2000/svg" xmlns:xlink="http://www.w3.org/1999/xlink" width="40" height="40" viewBox="0 0 40 40">
<path fill-rule="nonzero" fill="rgb(84.705882%, 0%, 15.294118%)" fill-opacity="1" d="M 20 40 C 31.03125 40 39.980469 31.066406 40 20.039062 L 40 20 L 20 17.5 L 0 20 C 0 31.046875 8.953125 40 20 40 Z M 20 40 "/>
<path fill-rule="nonzero" fill="rgb(0%, 32.156863%, 70.588235%)" fill-opacity="1" d="M 40 19.960938 L 40 20 L 0 20 C 0 8.953125 8.953125 0 20 0 C 31.03125 0 39.980469 8.933594 40 19.960938 Z M 40 19.960938 "/>
<path fill-rule="nonzero" fill="rgb(100%, 85.490196%, 26.666667%)" fill-opacity="1" d="M 15.652344 11.304688 C 15.652344 9.863281 14.484375 8.695312 13.042969 8.695312 C 12.375 8.695312 11.765625 8.949219 11.304688 9.359375 L 11.304688 7.828125 L 12.175781 7.828125 L 12.175781 6.085938 L 11.304688 6.085938 L 11.304688 5.21875 L 9.566406 5.21875 L 9.566406 6.085938 L 8.695312 6.085938 L 8.695312 7.828125 L 9.566406 7.828125 L 9.566406 9.359375 C 9.105469 8.949219 8.496094 8.695312 7.828125 8.695312 C 6.386719 8.695312 5.21875 9.863281 5.21875 11.304688 C 5.21875 12.078125 5.554688 12.769531 6.085938 13.25 L 6.085938 14.78125 L 14.78125 14.78125 L 14.78125 13.25 C 15.316406 12.769531 15.652344 12.078125 15.652344 11.304688 Z M 15.652344 11.304688 "/>
</svg>
