<?xml version="1.0" encoding="UTF-8"?>
<svg xmlns="http://www.w3.org/2000/svg" xmlns:xlink="http://www.w3.org/1999/xlink" width="60" height="60" viewBox="0 0 60 60">
<path fill-rule="evenodd" fill="rgb(93.333333%, 93.333333%, 93.333333%)" fill-opacity="1" d="M 30 60 C 46.566406 60 60 46.566406 60 30 C 60 13.433594 46.566406 0 30 0 C 13.433594 0 0 13.433594 0 30 C 0 46.566406 13.433594 60 30 60 Z M 30 60 "/>
<path fill-rule="evenodd" fill="rgb(84.705882%, 0%, 15.294118%)" fill-opacity="1" d="M 58.53125 39.292969 C 54.621094 51.3125 43.324219 60 30 60 C 16.675781 60 5.378906 51.3125 1.46875 39.292969 Z M 58.53125 39.292969 "/>
<path fill-rule="evenodd" fill="rgb(28.627451%, 43.137255%, 17.647059%)" fill-opacity="1" d="M 1.46875 20.707031 C 5.378906 8.6875 16.675781 0 30 0 C 43.324219 0 54.621094 8.6875 58.53125 20.707031 Z M 1.46875 20.707031 "/>
<path fill-rule="nonzero" fill="rgb(84.705882%, 0%, 15.294118%)" fill-opacity="1" d="M 31.851562 23.554688 L 28.101562 23.554688 L 28.101562 25.429688 L 31.851562 25.429688 Z M 31.851562 23.554688 "/>
<path fill-rule="nonzero" fill="rgb(84.705882%, 0%, 15.294118%)" fill-opacity="1" d="M 26.703125 33.746094 C 25.851562 32.835938 25.261719 31.703125 25.007812 30.46875 C 24.882812 29.847656 24.84375 29.214844 24.890625 28.589844 C 24.648438 28.851562 24.441406 29.148438 24.269531 29.464844 C 23.75 30.4375 23.617188 31.570312 23.902344 32.636719 L 22.09375 33.121094 C 21.683594 31.597656 21.871094 29.972656 22.617188 28.578125 C 23.363281 27.1875 24.613281 26.132812 26.109375 25.628906 L 27.25 26.929688 C 26.769531 27.910156 26.625 29.023438 26.847656 30.09375 C 27.066406 31.164062 27.632812 32.128906 28.464844 32.839844 C 28.644531 32.996094 28.835938 33.136719 29.039062 33.261719 L 29.039062 25.898438 L 30.914062 25.898438 L 30.914062 33.296875 C 31.132812 33.160156 31.339844 33.007812 31.535156 32.839844 C 32.367188 32.128906 32.933594 31.164062 33.15625 30.09375 C 33.375 29.023438 33.230469 27.910156 32.75 26.929688 L 33.890625 25.628906 C 35.386719 26.132812 36.636719 27.1875 37.382812 28.578125 C 38.128906 29.972656 38.316406 31.597656 37.90625 33.121094 L 36.097656 32.636719 C 36.382812 31.570312 36.25 30.4375 35.730469 29.464844 C 35.558594 29.148438 35.351562 28.851562 35.109375 28.589844 C 35.15625 29.214844 35.117188 29.847656 34.992188 30.46875 C 34.738281 31.703125 34.148438 32.835938 33.296875 33.746094 C 33.71875 33.601562 34.121094 33.394531 34.488281 33.132812 L 35.566406 34.671875 C 34.328125 35.535156 32.839844 35.964844 31.335938 35.890625 C 31.195312 35.886719 31.050781 35.875 30.914062 35.859375 L 30.914062 36.445312 L 29.039062 36.445312 L 29.039062 35.863281 C 28.914062 35.875 28.789062 35.886719 28.664062 35.890625 C 27.160156 35.964844 25.671875 35.535156 24.433594 34.671875 L 25.511719 33.132812 C 25.882812 33.394531 26.28125 33.601562 26.703125 33.746094 Z M 26.703125 33.746094 "/>
<path fill-rule="evenodd" fill="rgb(93.333333%, 93.333333%, 93.333333%)" fill-opacity="1" d="M 57.851562 18.832031 C 58.339844 20.042969 58.75 21.296875 59.074219 22.582031 L 49.644531 22.582031 L 49.644531 18.832031 Z M 53.484375 11.332031 C 53.96875 11.9375 54.425781 12.5625 54.863281 13.207031 L 51.519531 13.207031 L 51.519531 16.957031 L 49.644531 16.957031 L 49.644531 11.332031 Z M 49.9375 7.582031 C 50.605469 8.179688 51.25 8.804688 51.863281 9.457031 L 49.644531 9.457031 L 49.644531 7.582031 Z M 8.394531 9.183594 C 8.929688 8.628906 9.488281 8.09375 10.0625 7.582031 L 10.269531 7.582031 L 10.269531 16.957031 L 2.976562 16.957031 C 3.285156 16.320312 3.613281 15.695312 3.964844 15.082031 L 4.648438 15.082031 L 4.648438 13.957031 C 5.226562 13.042969 5.851562 12.164062 6.523438 11.324219 L 6.523438 15.082031 L 8.398438 15.082031 L 8.398438 9.183594 Z M 0.925781 22.582031 C 1.25 21.296875 1.660156 20.046875 2.148438 18.832031 L 10.269531 18.832031 L 10.269531 22.582031 Z M 57.851562 41.167969 C 58.339844 39.957031 58.75 38.703125 59.078125 37.417969 L 49.648438 37.417969 L 49.648438 41.167969 Z M 57.023438 43.042969 L 49.648438 43.042969 L 49.648438 44.917969 L 56.035156 44.917969 C 56.386719 44.304688 56.714844 43.679688 57.023438 43.042969 Z M 54.863281 46.792969 L 49.648438 46.792969 L 49.648438 52.417969 L 49.9375 52.417969 C 50.484375 51.933594 51.011719 51.425781 51.523438 50.902344 L 51.523438 48.667969 L 53.484375 48.667969 C 53.96875 48.0625 54.429688 47.4375 54.863281 46.792969 Z M 10.0625 52.417969 L 10.273438 52.417969 L 10.273438 43.042969 L 8.398438 43.042969 L 8.398438 50.542969 L 8.136719 50.542969 C 8.75 51.195312 9.394531 51.824219 10.0625 52.417969 Z M 6.523438 48.675781 L 6.523438 43.042969 L 4.648438 43.042969 L 4.648438 46.046875 C 5.226562 46.957031 5.851562 47.835938 6.523438 48.675781 Z M 0.925781 37.417969 C 1.25 38.703125 1.660156 39.957031 2.148438 41.167969 L 10.273438 41.167969 L 10.273438 37.417969 Z M 12.148438 9.457031 L 36.523438 9.457031 L 36.523438 7.582031 L 12.148438 7.582031 Z M 32.773438 13.207031 L 38.398438 13.207031 L 38.398438 16.957031 L 47.773438 16.957031 L 47.773438 7.582031 L 45.898438 7.582031 L 45.898438 15.082031 L 44.023438 15.082031 L 44.023438 7.582031 L 42.148438 7.582031 L 42.148438 15.082031 L 40.273438 15.082031 L 40.273438 7.582031 L 38.398438 7.582031 L 38.398438 11.332031 L 30.898438 11.332031 L 30.898438 16.957031 L 36.523438 16.957031 L 36.523438 15.082031 L 32.773438 15.082031 Z M 21.523438 11.332031 L 12.148438 11.332031 L 12.148438 16.957031 L 14.023438 16.957031 L 14.023438 13.207031 L 19.648438 13.207031 L 19.648438 16.957031 L 29.023438 16.957031 L 29.023438 11.332031 L 23.398438 11.332031 L 23.398438 13.207031 L 27.148438 13.207031 L 27.148438 15.082031 L 21.523438 15.082031 Z M 15.898438 16.957031 L 17.773438 16.957031 L 17.773438 15.082031 L 15.898438 15.082031 Z M 12.148438 22.582031 L 29.023438 22.582031 L 29.023438 18.832031 L 12.148438 18.832031 Z M 30.898438 22.582031 L 47.773438 22.582031 L 47.773438 18.832031 L 30.898438 18.832031 Z M 12.148438 41.167969 L 29.023438 41.167969 L 29.023438 37.417969 L 12.148438 37.417969 Z M 30.898438 41.167969 L 47.773438 41.167969 L 47.773438 37.417969 L 30.898438 37.417969 Z M 12.148438 44.917969 L 36.523438 44.917969 L 36.523438 43.042969 L 12.148438 43.042969 Z M 32.773438 48.667969 L 38.398438 48.667969 L 38.398438 52.417969 L 47.773438 52.417969 L 47.773438 43.042969 L 45.898438 43.042969 L 45.898438 50.542969 L 44.023438 50.542969 L 44.023438 43.042969 L 42.148438 43.042969 L 42.148438 50.542969 L 40.273438 50.542969 L 40.273438 43.042969 L 38.398438 43.042969 L 38.398438 46.792969 L 30.898438 46.792969 L 30.898438 52.417969 L 36.523438 52.417969 L 36.523438 50.542969 L 32.773438 50.542969 Z M 21.523438 46.792969 L 12.148438 46.792969 L 12.148438 52.417969 L 14.023438 52.417969 L 14.023438 48.667969 L 19.648438 48.667969 L 19.648438 52.417969 L 29.023438 52.417969 L 29.023438 46.792969 L 23.398438 46.792969 L 23.398438 48.667969 L 27.148438 48.667969 L 27.148438 50.542969 L 21.523438 50.542969 Z M 15.898438 52.417969 L 17.773438 52.417969 L 17.773438 50.542969 L 15.898438 50.542969 Z M 53.398438 16.957031 L 55.273438 16.957031 L 55.273438 15.082031 L 53.398438 15.082031 Z M 53.398438 16.957031 "/>
</svg>
