<?xml version="1.0" encoding="UTF-8"?>
<svg xmlns="http://www.w3.org/2000/svg" xmlns:xlink="http://www.w3.org/1999/xlink" width="40" height="40" viewBox="0 0 40 40">
<path fill-rule="evenodd" fill="rgb(93.333333%, 93.333333%, 93.333333%)" fill-opacity="1" d="M 20 40 C 31.046875 40 40 31.046875 40 20 C 40 8.953125 31.046875 0 20 0 C 8.953125 0 0 8.953125 0 20 C 0 31.046875 8.953125 40 20 40 Z M 20 40 "/>
<path fill-rule="evenodd" fill="rgb(84.705882%, 0%, 15.294118%)" fill-opacity="1" d="M 39.023438 26.195312 C 36.414062 34.207031 28.882812 40 20 40 C 11.117188 40 3.585938 34.207031 0.976562 26.195312 Z M 39.023438 26.195312 "/>
<path fill-rule="evenodd" fill="rgb(28.627451%, 43.137255%, 17.647059%)" fill-opacity="1" d="M 0.976562 13.804688 C 3.585938 5.792969 11.117188 0 20 0 C 28.882812 0 36.414062 5.792969 39.023438 13.804688 Z M 0.976562 13.804688 "/>
<path fill-rule="nonzero" fill="rgb(84.705882%, 0%, 15.294118%)" fill-opacity="1" d="M 21.234375 15.703125 L 18.734375 15.703125 L 18.734375 16.953125 L 21.234375 16.953125 Z M 21.234375 15.703125 "/>
<path fill-rule="nonzero" fill="rgb(84.705882%, 0%, 15.294118%)" fill-opacity="1" d="M 17.804688 22.5 C 17.234375 21.890625 16.839844 21.136719 16.671875 20.3125 C 16.585938 19.898438 16.5625 19.476562 16.59375 19.058594 C 16.433594 19.234375 16.292969 19.429688 16.179688 19.644531 C 15.832031 20.292969 15.746094 21.046875 15.9375 21.757812 L 14.730469 22.082031 C 14.457031 21.0625 14.582031 19.980469 15.078125 19.054688 C 15.578125 18.125 16.410156 17.421875 17.40625 17.085938 L 18.167969 17.953125 C 17.847656 18.605469 17.75 19.347656 17.898438 20.0625 C 18.042969 20.773438 18.421875 21.417969 18.976562 21.894531 C 19.097656 21.996094 19.226562 22.089844 19.359375 22.175781 L 19.359375 17.265625 L 20.609375 17.265625 L 20.609375 22.195312 C 20.753906 22.105469 20.894531 22.003906 21.023438 21.894531 C 21.578125 21.417969 21.957031 20.773438 22.101562 20.0625 C 22.25 19.347656 22.15625 18.605469 21.832031 17.953125 L 22.59375 17.085938 C 23.589844 17.421875 24.425781 18.125 24.921875 19.054688 C 25.417969 19.980469 25.542969 21.0625 25.269531 22.082031 L 24.0625 21.757812 C 24.253906 21.046875 24.167969 20.292969 23.820312 19.644531 C 23.707031 19.429688 23.566406 19.234375 23.40625 19.058594 C 23.4375 19.476562 23.414062 19.898438 23.328125 20.3125 C 23.160156 21.136719 22.765625 21.890625 22.195312 22.5 C 22.476562 22.398438 22.746094 22.261719 22.992188 22.089844 L 23.710938 23.113281 C 22.886719 23.691406 21.894531 23.976562 20.890625 23.929688 C 20.796875 23.921875 20.703125 23.914062 20.609375 23.90625 L 20.609375 24.296875 L 19.359375 24.296875 L 19.359375 23.910156 C 19.277344 23.917969 19.191406 23.921875 19.109375 23.929688 C 18.105469 23.976562 17.113281 23.691406 16.289062 23.113281 L 17.007812 22.089844 C 17.253906 22.261719 17.523438 22.398438 17.804688 22.5 Z M 17.804688 22.5 "/>
<path fill-rule="evenodd" fill="rgb(93.333333%, 93.333333%, 93.333333%)" fill-opacity="1" d="M 38.566406 12.554688 C 38.890625 13.363281 39.164062 14.199219 39.382812 15.054688 L 33.097656 15.054688 L 33.097656 12.554688 Z M 35.65625 7.554688 C 35.980469 7.957031 36.285156 8.375 36.574219 8.804688 L 34.347656 8.804688 L 34.347656 11.304688 L 33.097656 11.304688 L 33.097656 7.554688 Z M 33.289062 5.054688 C 33.738281 5.453125 34.164062 5.871094 34.574219 6.304688 L 33.097656 6.304688 L 33.097656 5.054688 Z M 5.597656 6.121094 C 5.953125 5.753906 6.324219 5.398438 6.710938 5.054688 L 6.847656 5.054688 L 6.847656 11.304688 L 1.984375 11.304688 C 2.191406 10.878906 2.410156 10.460938 2.644531 10.054688 L 3.097656 10.054688 L 3.097656 9.304688 C 3.484375 8.695312 3.902344 8.109375 4.347656 7.546875 L 4.347656 10.054688 L 5.597656 10.054688 Z M 0.617188 15.054688 C 0.835938 14.199219 1.105469 13.363281 1.433594 12.554688 L 6.847656 12.554688 L 6.847656 15.054688 Z M 38.570312 27.445312 C 38.894531 26.636719 39.167969 25.800781 39.382812 24.945312 L 33.097656 24.945312 L 33.097656 27.445312 Z M 38.015625 28.695312 L 33.097656 28.695312 L 33.097656 29.945312 L 37.355469 29.945312 C 37.589844 29.539062 37.8125 29.121094 38.015625 28.695312 Z M 36.574219 31.195312 L 33.097656 31.195312 L 33.097656 34.945312 L 33.292969 34.945312 C 33.65625 34.621094 34.007812 34.285156 34.347656 33.933594 L 34.347656 32.445312 L 35.65625 32.445312 C 35.980469 32.042969 36.285156 31.625 36.574219 31.195312 Z M 6.710938 34.945312 L 6.847656 34.945312 L 6.847656 28.695312 L 5.597656 28.695312 L 5.597656 33.695312 L 5.425781 33.695312 C 5.835938 34.132812 6.261719 34.546875 6.710938 34.945312 Z M 4.347656 32.453125 L 4.347656 28.695312 L 3.097656 28.695312 L 3.097656 30.695312 C 3.484375 31.304688 3.902344 31.890625 4.347656 32.453125 Z M 0.617188 24.945312 C 0.835938 25.800781 1.105469 26.636719 1.433594 27.445312 L 6.847656 27.445312 L 6.847656 24.945312 Z M 8.097656 6.304688 L 24.347656 6.304688 L 24.347656 5.054688 L 8.097656 5.054688 Z M 21.847656 8.804688 L 25.597656 8.804688 L 25.597656 11.304688 L 31.847656 11.304688 L 31.847656 5.054688 L 30.597656 5.054688 L 30.597656 10.054688 L 29.347656 10.054688 L 29.347656 5.054688 L 28.097656 5.054688 L 28.097656 10.054688 L 26.847656 10.054688 L 26.847656 5.054688 L 25.597656 5.054688 L 25.597656 7.554688 L 20.597656 7.554688 L 20.597656 11.304688 L 24.347656 11.304688 L 24.347656 10.054688 L 21.847656 10.054688 Z M 14.347656 7.554688 L 8.097656 7.554688 L 8.097656 11.304688 L 9.347656 11.304688 L 9.347656 8.804688 L 13.097656 8.804688 L 13.097656 11.304688 L 19.347656 11.304688 L 19.347656 7.554688 L 15.597656 7.554688 L 15.597656 8.804688 L 18.097656 8.804688 L 18.097656 10.054688 L 14.347656 10.054688 Z M 10.597656 11.304688 L 11.847656 11.304688 L 11.847656 10.054688 L 10.597656 10.054688 Z M 8.097656 15.054688 L 19.347656 15.054688 L 19.347656 12.554688 L 8.097656 12.554688 Z M 20.597656 15.054688 L 31.847656 15.054688 L 31.847656 12.554688 L 20.597656 12.554688 Z M 8.097656 27.445312 L 19.347656 27.445312 L 19.347656 24.945312 L 8.097656 24.945312 Z M 20.597656 27.445312 L 31.847656 27.445312 L 31.847656 24.945312 L 20.597656 24.945312 Z M 8.097656 29.945312 L 24.347656 29.945312 L 24.347656 28.695312 L 8.097656 28.695312 Z M 21.847656 32.445312 L 25.597656 32.445312 L 25.597656 34.945312 L 31.847656 34.945312 L 31.847656 28.695312 L 30.597656 28.695312 L 30.597656 33.695312 L 29.347656 33.695312 L 29.347656 28.695312 L 28.097656 28.695312 L 28.097656 33.695312 L 26.847656 33.695312 L 26.847656 28.695312 L 25.597656 28.695312 L 25.597656 31.195312 L 20.597656 31.195312 L 20.597656 34.945312 L 24.347656 34.945312 L 24.347656 33.695312 L 21.847656 33.695312 Z M 14.347656 31.195312 L 8.097656 31.195312 L 8.097656 34.945312 L 9.347656 34.945312 L 9.347656 32.445312 L 13.097656 32.445312 L 13.097656 34.945312 L 19.347656 34.945312 L 19.347656 31.195312 L 15.597656 31.195312 L 15.597656 32.445312 L 18.097656 32.445312 L 18.097656 33.695312 L 14.347656 33.695312 Z M 10.597656 34.945312 L 11.847656 34.945312 L 11.847656 33.695312 L 10.597656 33.695312 Z M 35.597656 11.304688 L 36.847656 11.304688 L 36.847656 10.054688 L 35.597656 10.054688 Z M 35.597656 11.304688 "/>
</svg>
