<?xml version="1.0" encoding="UTF-8"?>
<svg xmlns="http://www.w3.org/2000/svg" xmlns:xlink="http://www.w3.org/1999/xlink" width="20" height="20" viewBox="0 0 20 20">
<path fill-rule="evenodd" fill="rgb(93.333333%, 93.333333%, 93.333333%)" fill-opacity="1" d="M 10 20 C 15.523438 20 20 15.523438 20 10 C 20 4.476562 15.523438 0 10 0 C 4.476562 0 0 4.476562 0 10 C 0 15.523438 4.476562 20 10 20 Z M 10 20 "/>
<path fill-rule="evenodd" fill="rgb(84.705882%, 0%, 15.294118%)" fill-opacity="1" d="M 19.511719 13.097656 C 18.207031 17.105469 14.441406 20 10 20 C 5.558594 20 1.792969 17.105469 0.488281 13.097656 Z M 19.511719 13.097656 "/>
<path fill-rule="evenodd" fill="rgb(28.627451%, 43.137255%, 17.647059%)" fill-opacity="1" d="M 0.488281 6.902344 C 1.792969 2.894531 5.558594 0 10 0 C 14.441406 0 18.207031 2.894531 19.511719 6.902344 Z M 0.488281 6.902344 "/>
<path fill-rule="nonzero" fill="rgb(84.705882%, 0%, 15.294118%)" fill-opacity="1" d="M 10.617188 7.851562 L 9.367188 7.851562 L 9.367188 8.476562 L 10.617188 8.476562 Z M 10.617188 7.851562 "/>
<path fill-rule="nonzero" fill="rgb(84.705882%, 0%, 15.294118%)" fill-opacity="1" d="M 8.902344 11.25 C 8.617188 10.945312 8.421875 10.566406 8.335938 10.15625 C 8.292969 9.949219 8.28125 9.738281 8.296875 9.53125 C 8.214844 9.617188 8.148438 9.714844 8.089844 9.820312 C 7.917969 10.144531 7.871094 10.523438 7.96875 10.878906 L 7.363281 11.039062 C 7.226562 10.53125 7.289062 9.992188 7.539062 9.527344 C 7.789062 9.0625 8.203125 8.710938 8.703125 8.542969 L 9.082031 8.976562 C 8.921875 9.304688 8.875 9.675781 8.949219 10.03125 C 9.023438 10.386719 9.210938 10.710938 9.488281 10.945312 C 9.546875 11 9.613281 11.046875 9.679688 11.085938 L 9.679688 8.632812 L 10.304688 8.632812 L 10.304688 11.097656 C 10.378906 11.054688 10.445312 11.003906 10.511719 10.945312 C 10.789062 10.710938 10.976562 10.386719 11.050781 10.03125 C 11.125 9.675781 11.078125 9.304688 10.917969 8.976562 L 11.296875 8.542969 C 11.796875 8.710938 12.210938 9.0625 12.460938 9.527344 C 12.710938 9.992188 12.773438 10.53125 12.636719 11.039062 L 12.03125 10.878906 C 12.128906 10.523438 12.082031 10.144531 11.910156 9.820312 C 11.851562 9.714844 11.785156 9.617188 11.703125 9.53125 C 11.71875 9.738281 11.707031 9.949219 11.664062 10.15625 C 11.578125 10.566406 11.382812 10.945312 11.097656 11.25 C 11.238281 11.199219 11.375 11.132812 11.496094 11.046875 L 11.855469 11.558594 C 11.441406 11.84375 10.945312 11.988281 10.445312 11.964844 C 10.398438 11.960938 10.351562 11.957031 10.304688 11.953125 L 10.304688 12.148438 L 9.679688 12.148438 L 9.679688 11.953125 C 9.636719 11.957031 9.597656 11.960938 9.554688 11.964844 C 9.054688 11.988281 8.558594 11.84375 8.144531 11.558594 L 8.503906 11.046875 C 8.628906 11.132812 8.761719 11.199219 8.902344 11.25 Z M 8.902344 11.25 "/>
<path fill-rule="evenodd" fill="rgb(93.333333%, 93.333333%, 93.333333%)" fill-opacity="1" d="M 19.285156 6.277344 C 19.445312 6.679688 19.582031 7.097656 19.691406 7.527344 L 16.546875 7.527344 L 16.546875 6.277344 Z M 17.828125 3.777344 C 17.988281 3.980469 18.140625 4.1875 18.289062 4.402344 L 17.171875 4.402344 L 17.171875 5.652344 L 16.546875 5.652344 L 16.546875 3.777344 Z M 16.644531 2.527344 C 16.867188 2.726562 17.082031 2.933594 17.289062 3.152344 L 16.546875 3.152344 L 16.546875 2.527344 Z M 2.796875 3.0625 C 2.976562 2.875 3.164062 2.699219 3.355469 2.527344 L 3.421875 2.527344 L 3.421875 5.652344 L 0.992188 5.652344 C 1.09375 5.441406 1.203125 5.230469 1.320312 5.027344 L 1.550781 5.027344 L 1.550781 4.652344 C 1.742188 4.347656 1.949219 4.054688 2.175781 3.773438 L 2.175781 5.027344 L 2.800781 5.027344 L 2.800781 3.0625 Z M 0.308594 7.527344 C 0.417969 7.097656 0.554688 6.683594 0.714844 6.277344 L 3.421875 6.277344 L 3.421875 7.527344 Z M 19.285156 13.722656 C 19.445312 13.320312 19.582031 12.902344 19.691406 12.472656 L 16.550781 12.472656 L 16.550781 13.722656 Z M 19.007812 14.347656 L 16.550781 14.347656 L 16.550781 14.972656 L 18.679688 14.972656 C 18.796875 14.769531 18.90625 14.558594 19.007812 14.347656 Z M 18.289062 15.597656 L 16.550781 15.597656 L 16.550781 17.472656 L 16.644531 17.472656 C 16.828125 17.3125 17.003906 17.140625 17.175781 16.96875 L 17.175781 16.222656 L 17.828125 16.222656 C 17.988281 16.019531 18.144531 15.8125 18.289062 15.597656 Z M 3.355469 17.472656 L 3.425781 17.472656 L 3.425781 14.347656 L 2.800781 14.347656 L 2.800781 16.847656 L 2.710938 16.847656 C 2.917969 17.066406 3.132812 17.273438 3.355469 17.472656 Z M 2.175781 16.226562 L 2.175781 14.347656 L 1.550781 14.347656 L 1.550781 15.347656 C 1.742188 15.652344 1.949219 15.945312 2.175781 16.226562 Z M 0.308594 12.472656 C 0.417969 12.902344 0.554688 13.320312 0.714844 13.722656 L 3.425781 13.722656 L 3.425781 12.472656 Z M 4.050781 3.152344 L 12.175781 3.152344 L 12.175781 2.527344 L 4.050781 2.527344 Z M 10.925781 4.402344 L 12.800781 4.402344 L 12.800781 5.652344 L 15.925781 5.652344 L 15.925781 2.527344 L 15.300781 2.527344 L 15.300781 5.027344 L 14.675781 5.027344 L 14.675781 2.527344 L 14.050781 2.527344 L 14.050781 5.027344 L 13.425781 5.027344 L 13.425781 2.527344 L 12.800781 2.527344 L 12.800781 3.777344 L 10.300781 3.777344 L 10.300781 5.652344 L 12.175781 5.652344 L 12.175781 5.027344 L 10.925781 5.027344 Z M 7.175781 3.777344 L 4.050781 3.777344 L 4.050781 5.652344 L 4.675781 5.652344 L 4.675781 4.402344 L 6.550781 4.402344 L 6.550781 5.652344 L 9.675781 5.652344 L 9.675781 3.777344 L 7.800781 3.777344 L 7.800781 4.402344 L 9.050781 4.402344 L 9.050781 5.027344 L 7.175781 5.027344 Z M 5.300781 5.652344 L 5.925781 5.652344 L 5.925781 5.027344 L 5.300781 5.027344 Z M 4.050781 7.527344 L 9.675781 7.527344 L 9.675781 6.277344 L 4.050781 6.277344 Z M 10.300781 7.527344 L 15.925781 7.527344 L 15.925781 6.277344 L 10.300781 6.277344 Z M 4.050781 13.722656 L 9.675781 13.722656 L 9.675781 12.472656 L 4.050781 12.472656 Z M 10.300781 13.722656 L 15.925781 13.722656 L 15.925781 12.472656 L 10.300781 12.472656 Z M 4.050781 14.972656 L 12.175781 14.972656 L 12.175781 14.347656 L 4.050781 14.347656 Z M 10.925781 16.222656 L 12.800781 16.222656 L 12.800781 17.472656 L 15.925781 17.472656 L 15.925781 14.347656 L 15.300781 14.347656 L 15.300781 16.847656 L 14.675781 16.847656 L 14.675781 14.347656 L 14.050781 14.347656 L 14.050781 16.847656 L 13.425781 16.847656 L 13.425781 14.347656 L 12.800781 14.347656 L 12.800781 15.597656 L 10.300781 15.597656 L 10.300781 17.472656 L 12.175781 17.472656 L 12.175781 16.847656 L 10.925781 16.847656 Z M 7.175781 15.597656 L 4.050781 15.597656 L 4.050781 17.472656 L 4.675781 17.472656 L 4.675781 16.222656 L 6.550781 16.222656 L 6.550781 17.472656 L 9.675781 17.472656 L 9.675781 15.597656 L 7.800781 15.597656 L 7.800781 16.222656 L 9.050781 16.222656 L 9.050781 16.847656 L 7.175781 16.847656 Z M 5.300781 17.472656 L 5.925781 17.472656 L 5.925781 16.847656 L 5.300781 16.847656 Z M 17.800781 5.652344 L 18.425781 5.652344 L 18.425781 5.027344 L 17.800781 5.027344 Z M 17.800781 5.652344 "/>
</svg>
