<?xml version="1.0" encoding="UTF-8"?>
<svg xmlns="http://www.w3.org/2000/svg" xmlns:xlink="http://www.w3.org/1999/xlink" width="20" height="20" viewBox="0 0 20 20">
<path fill-rule="evenodd" fill="rgb(84.705882%, 0%, 15.294118%)" fill-opacity="1" d="M 19.105469 14.140625 C 19.679688 12.878906 20 11.476562 20 10 C 20 4.476562 15.523438 0 10 0 C 4.476562 0 0 4.476562 0 10 C 0 11.476562 0.320312 12.878906 0.894531 14.140625 Z M 19.105469 14.140625 "/>
<path fill-rule="nonzero" fill="rgb(100%, 85.490196%, 26.666667%)" fill-opacity="1" d="M 13.476562 9.300781 L 12.058594 9.96875 L 12.8125 11.34375 L 11.269531 11.050781 L 11.074219 12.609375 L 10 11.460938 L 8.925781 12.609375 L 8.730469 11.050781 L 7.1875 11.34375 L 7.941406 9.96875 L 6.523438 9.300781 L 7.941406 8.632812 L 7.1875 7.253906 L 8.730469 7.550781 L 8.925781 5.992188 L 10 7.136719 L 11.074219 5.992188 L 11.269531 7.550781 L 12.8125 7.253906 L 12.058594 8.632812 Z M 13.476562 9.300781 "/>
<path fill-rule="nonzero" fill="rgb(100%, 85.490196%, 26.666667%)" fill-opacity="1" d="M 12.609375 3.261719 L 10.652344 3.261719 C 10.652344 2.902344 10.359375 2.609375 10 2.609375 C 9.640625 2.609375 9.347656 2.902344 9.347656 3.261719 L 7.390625 3.261719 C 7.390625 3.621094 7.703125 3.914062 8.066406 3.914062 L 8.042969 3.914062 C 8.042969 4.273438 8.335938 4.566406 8.695312 4.566406 C 8.695312 4.925781 8.988281 5.21875 9.347656 5.21875 L 10.652344 5.21875 C 11.011719 5.21875 11.304688 4.925781 11.304688 4.566406 C 11.664062 4.566406 11.957031 4.273438 11.957031 3.914062 L 11.933594 3.914062 C 12.292969 3.914062 12.609375 3.621094 12.609375 3.261719 Z M 12.609375 3.261719 "/>
<path fill-rule="evenodd" fill="rgb(0%, 32.156863%, 70.588235%)" fill-opacity="1" d="M 19.996094 10.242188 C 19.867188 15.652344 15.441406 20 10 20 C 4.558594 20 0.132812 15.652344 0.00390625 10.242188 Z M 19.996094 10.242188 "/>
<path fill-rule="evenodd" fill="rgb(95.294118%, 95.294118%, 95.294118%)" fill-opacity="1" d="M 19.96875 10.800781 C 19.988281 10.535156 20 10.269531 20 10 C 20 9.867188 19.996094 9.734375 19.992188 9.605469 C 19.976562 9.589844 19.957031 9.574219 19.941406 9.558594 C 19.75 9.382812 19.558594 9.207031 19.179688 9.207031 C 18.796875 9.207031 18.609375 9.382812 18.417969 9.558594 C 18.226562 9.730469 18.039062 9.90625 17.65625 9.90625 C 17.277344 9.90625 17.085938 9.730469 16.898438 9.558594 C 16.707031 9.382812 16.515625 9.207031 16.136719 9.207031 C 15.753906 9.207031 15.566406 9.382812 15.375 9.558594 C 15.183594 9.730469 14.996094 9.90625 14.613281 9.90625 C 14.234375 9.90625 14.042969 9.730469 13.851562 9.558594 C 13.664062 9.382812 13.472656 9.207031 13.09375 9.207031 C 12.710938 9.207031 12.519531 9.382812 12.332031 9.558594 C 12.140625 9.730469 11.949219 9.90625 11.570312 9.90625 C 11.191406 9.90625 11 9.730469 10.808594 9.558594 C 10.621094 9.382812 10.429688 9.207031 10.046875 9.207031 C 9.667969 9.207031 9.476562 9.382812 9.289062 9.558594 C 9.097656 9.730469 8.90625 9.90625 8.527344 9.90625 C 8.148438 9.90625 7.957031 9.730469 7.765625 9.558594 C 7.574219 9.382812 7.386719 9.207031 7.003906 9.207031 C 6.625 9.207031 6.433594 9.382812 6.246094 9.558594 C 6.054688 9.730469 5.863281 9.90625 5.484375 9.90625 C 5.101562 9.90625 4.914062 9.730469 4.722656 9.558594 C 4.53125 9.382812 4.34375 9.207031 3.960938 9.207031 C 3.582031 9.207031 3.390625 9.382812 3.199219 9.554688 C 3.011719 9.730469 2.820312 9.90625 2.441406 9.90625 C 2.058594 9.90625 1.871094 9.730469 1.679688 9.554688 C 1.488281 9.382812 1.296875 9.207031 0.917969 9.207031 C 0.539062 9.207031 0.347656 9.382812 0.15625 9.558594 C 0.109375 9.601562 0.0585938 9.648438 0.00390625 9.691406 C 0 9.792969 0 9.894531 0 10 C 0 10.296875 0.0117188 10.589844 0.0390625 10.878906 C 0.078125 10.847656 0.117188 10.808594 0.15625 10.773438 C 0.347656 10.601562 0.539062 10.425781 0.917969 10.425781 C 1.296875 10.425781 1.488281 10.601562 1.679688 10.773438 C 1.871094 10.949219 2.058594 11.121094 2.441406 11.121094 C 2.820312 11.121094 3.011719 10.949219 3.199219 10.773438 C 3.390625 10.601562 3.582031 10.425781 3.960938 10.425781 C 4.34375 10.425781 4.53125 10.601562 4.722656 10.773438 C 4.914062 10.949219 5.101562 11.121094 5.484375 11.121094 C 5.863281 11.121094 6.054688 10.949219 6.246094 10.773438 C 6.433594 10.601562 6.625 10.425781 7.003906 10.425781 C 7.386719 10.425781 7.574219 10.601562 7.765625 10.773438 C 7.957031 10.949219 8.148438 11.121094 8.527344 11.121094 C 8.90625 11.121094 9.097656 10.949219 9.289062 10.773438 C 9.476562 10.601562 9.667969 10.425781 10.046875 10.425781 C 10.429688 10.425781 10.621094 10.601562 10.808594 10.773438 C 11 10.949219 11.191406 11.121094 11.570312 11.121094 C 11.949219 11.121094 12.140625 10.949219 12.332031 10.773438 C 12.519531 10.601562 12.710938 10.425781 13.09375 10.425781 C 13.472656 10.425781 13.664062 10.601562 13.851562 10.773438 C 14.042969 10.949219 14.234375 11.121094 14.613281 11.121094 C 14.996094 11.121094 15.183594 10.949219 15.375 10.773438 C 15.566406 10.601562 15.753906 10.425781 16.136719 10.425781 C 16.515625 10.425781 16.707031 10.601562 16.898438 10.773438 C 17.085938 10.949219 17.277344 11.121094 17.65625 11.121094 C 18.039062 11.121094 18.226562 10.949219 18.417969 10.773438 C 18.609375 10.601562 18.796875 10.425781 19.179688 10.425781 C 19.558594 10.425781 19.75 10.601562 19.941406 10.773438 C 19.949219 10.78125 19.957031 10.792969 19.96875 10.800781 Z M 19.820312 11.886719 C 19.664062 11.757812 19.480469 11.644531 19.179688 11.644531 C 18.796875 11.644531 18.609375 11.820312 18.417969 11.992188 C 18.226562 12.167969 18.039062 12.339844 17.65625 12.339844 C 17.277344 12.339844 17.085938 12.167969 16.898438 11.992188 C 16.707031 11.820312 16.515625 11.644531 16.136719 11.644531 C 15.753906 11.644531 15.566406 11.820312 15.375 11.992188 C 15.183594 12.167969 14.996094 12.339844 14.613281 12.339844 C 14.234375 12.339844 14.042969 12.167969 13.851562 11.992188 C 13.664062 11.820312 13.472656 11.644531 13.09375 11.644531 C 12.710938 11.644531 12.519531 11.820312 12.332031 11.992188 C 12.140625 12.167969 11.949219 12.339844 11.570312 12.339844 C 11.191406 12.339844 11 12.167969 10.808594 11.992188 C 10.621094 11.820312 10.429688 11.644531 10.046875 11.644531 C 9.667969 11.644531 9.476562 11.820312 9.289062 11.992188 C 9.097656 12.167969 8.90625 12.339844 8.527344 12.339844 C 8.148438 12.339844 7.957031 12.167969 7.765625 11.992188 C 7.574219 11.820312 7.386719 11.644531 7.003906 11.644531 C 6.625 11.644531 6.433594 11.820312 6.246094 11.992188 C 6.054688 12.167969 5.863281 12.339844 5.484375 12.339844 C 5.101562 12.339844 4.914062 12.167969 4.722656 11.992188 C 4.53125 11.820312 4.34375 11.644531 3.960938 11.644531 C 3.582031 11.644531 3.390625 11.820312 3.199219 11.992188 C 3.011719 12.167969 2.820312 12.339844 2.441406 12.339844 C 2.058594 12.339844 1.871094 12.167969 1.679688 11.992188 C 1.488281 11.820312 1.296875 11.644531 0.917969 11.644531 C 0.5625 11.644531 0.371094 11.800781 0.191406 11.960938 C 0.261719 12.308594 0.347656 12.648438 0.453125 12.980469 C 0.574219 12.910156 0.71875 12.863281 0.917969 12.863281 C 1.296875 12.863281 1.488281 13.039062 1.679688 13.210938 C 1.871094 13.386719 2.058594 13.558594 2.441406 13.558594 C 2.820312 13.558594 3.011719 13.386719 3.199219 13.210938 C 3.390625 13.035156 3.582031 12.863281 3.960938 12.863281 C 4.34375 12.863281 4.53125 13.035156 4.722656 13.210938 C 4.914062 13.386719 5.101562 13.558594 5.484375 13.558594 C 5.863281 13.558594 6.054688 13.386719 6.246094 13.210938 C 6.433594 13.035156 6.625 12.863281 7.003906 12.863281 C 7.386719 12.863281 7.574219 13.035156 7.765625 13.210938 C 7.957031 13.386719 8.144531 13.558594 8.527344 13.558594 C 8.90625 13.558594 9.097656 13.386719 9.289062 13.210938 C 9.476562 13.035156 9.667969 12.863281 10.046875 12.863281 C 10.429688 12.863281 10.621094 13.035156 10.808594 13.210938 C 11 13.386719 11.191406 13.558594 11.570312 13.558594 C 11.949219 13.558594 12.140625 13.386719 12.332031 13.210938 C 12.519531 13.035156 12.710938 12.863281 13.09375 12.863281 C 13.472656 12.863281 13.664062 13.035156 13.851562 13.210938 C 14.042969 13.386719 14.234375 13.558594 14.613281 13.558594 C 14.996094 13.558594 15.183594 13.386719 15.375 13.210938 C 15.566406 13.035156 15.753906 12.863281 16.136719 12.863281 C 16.515625 12.863281 16.707031 13.035156 16.898438 13.210938 C 17.085938 13.386719 17.277344 13.558594 17.65625 13.558594 C 18.039062 13.558594 18.226562 13.386719 18.417969 13.210938 C 18.609375 13.035156 18.796875 12.863281 19.179688 12.863281 C 19.332031 12.863281 19.457031 12.890625 19.5625 12.9375 C 19.667969 12.59375 19.753906 12.246094 19.820312 11.886719 Z M 19.128906 14.082031 C 18.78125 14.097656 18.601562 14.265625 18.417969 14.429688 C 18.226562 14.605469 18.039062 14.777344 17.65625 14.777344 C 17.277344 14.777344 17.085938 14.605469 16.898438 14.429688 C 16.707031 14.257812 16.515625 14.082031 16.136719 14.082031 C 15.753906 14.082031 15.566406 14.257812 15.375 14.429688 C 15.183594 14.605469 14.996094 14.777344 14.613281 14.777344 C 14.234375 14.777344 14.042969 14.605469 13.851562 14.429688 C 13.664062 14.257812 13.472656 14.082031 13.09375 14.082031 C 12.710938 14.082031 12.519531 14.257812 12.332031 14.429688 C 12.140625 14.605469 11.949219 14.777344 11.570312 14.777344 C 11.191406 14.777344 11 14.605469 10.808594 14.429688 C 10.621094 14.257812 10.429688 14.082031 10.046875 14.082031 C 9.667969 14.082031 9.476562 14.257812 9.289062 14.429688 C 9.097656 14.605469 8.90625 14.777344 8.527344 14.777344 C 8.148438 14.777344 7.957031 14.605469 7.765625 14.429688 C 7.574219 14.257812 7.386719 14.082031 7.003906 14.082031 C 6.625 14.082031 6.433594 14.257812 6.246094 14.429688 C 6.054688 14.605469 5.863281 14.777344 5.484375 14.777344 C 5.101562 14.777344 4.914062 14.605469 4.722656 14.429688 C 4.53125 14.257812 4.34375 14.082031 3.960938 14.082031 C 3.582031 14.082031 3.390625 14.257812 3.199219 14.429688 C 3.011719 14.605469 2.820312 14.777344 2.441406 14.777344 C 2.058594 14.777344 1.871094 14.605469 1.679688 14.429688 C 1.488281 14.257812 1.296875 14.082031 0.917969 14.082031 C 0.902344 14.082031 0.886719 14.082031 0.867188 14.082031 C 1.140625 14.6875 1.46875 15.261719 1.847656 15.792969 C 1.996094 15.90625 2.167969 15.996094 2.441406 15.996094 C 2.820312 15.996094 3.011719 15.820312 3.199219 15.648438 C 3.390625 15.472656 3.582031 15.300781 3.960938 15.300781 C 4.34375 15.300781 4.53125 15.472656 4.722656 15.648438 C 4.914062 15.820312 5.101562 15.996094 5.484375 15.996094 C 5.863281 15.996094 6.054688 15.820312 6.246094 15.648438 C 6.433594 15.472656 6.625 15.300781 7.003906 15.300781 C 7.386719 15.300781 7.574219 15.472656 7.765625 15.648438 C 7.957031 15.820312 8.148438 15.996094 8.527344 15.996094 C 8.90625 15.996094 9.097656 15.820312 9.289062 15.648438 C 9.476562 15.472656 9.667969 15.300781 10.046875 15.300781 C 10.429688 15.300781 10.621094 15.472656 10.808594 15.648438 C 11 15.820312 11.191406 15.996094 11.570312 15.996094 C 11.949219 15.996094 12.140625 15.820312 12.332031 15.648438 C 12.519531 15.472656 12.710938 15.300781 13.09375 15.300781 C 13.472656 15.300781 13.664062 15.472656 13.851562 15.648438 C 14.042969 15.820312 14.234375 15.996094 14.613281 15.996094 C 14.996094 15.996094 15.183594 15.820312 15.375 15.648438 C 15.566406 15.472656 15.753906 15.300781 16.136719 15.300781 C 16.515625 15.300781 16.707031 15.472656 16.898438 15.648438 C 17.085938 15.820312 17.277344 15.996094 17.65625 15.996094 C 17.828125 15.996094 17.957031 15.960938 18.070312 15.90625 C 18.484375 15.34375 18.839844 14.730469 19.128906 14.082031 Z M 19.128906 14.082031 "/>
</svg>
