<?xml version="1.0" encoding="UTF-8"?>
<svg xmlns="http://www.w3.org/2000/svg" xmlns:xlink="http://www.w3.org/1999/xlink" width="60" height="60" viewBox="0 0 60 60">
<path fill-rule="evenodd" fill="rgb(84.705882%, 0%, 15.294118%)" fill-opacity="1" d="M 57.316406 42.421875 C 59.039062 38.636719 60 34.429688 60 30 C 60 13.433594 46.566406 0 30 0 C 13.433594 0 0 13.433594 0 30 C 0 34.429688 0.960938 38.636719 2.683594 42.421875 Z M 57.316406 42.421875 "/>
<path fill-rule="nonzero" fill="rgb(100%, 85.490196%, 26.666667%)" fill-opacity="1" d="M 40.433594 27.898438 L 36.171875 29.90625 L 38.441406 34.035156 L 33.8125 33.148438 L 33.222656 37.828125 L 30 34.386719 L 26.773438 37.828125 L 26.1875 33.148438 L 21.558594 34.035156 L 23.828125 29.90625 L 19.566406 27.898438 L 23.828125 25.894531 L 21.558594 21.765625 L 26.1875 22.652344 L 26.773438 17.972656 L 30 21.414062 L 33.226562 17.972656 L 33.8125 22.652344 L 38.441406 21.765625 L 36.171875 25.894531 Z M 40.433594 27.898438 "/>
<path fill-rule="nonzero" fill="rgb(100%, 85.490196%, 26.666667%)" fill-opacity="1" d="M 37.824219 9.78125 L 31.957031 9.78125 C 31.957031 8.703125 31.082031 7.824219 30 7.824219 C 28.917969 7.824219 28.042969 8.703125 28.042969 9.78125 L 22.171875 9.78125 C 22.171875 10.863281 23.113281 11.738281 24.195312 11.738281 L 24.128906 11.738281 C 24.128906 12.820312 25.003906 13.695312 26.085938 13.695312 C 26.085938 14.777344 26.960938 15.652344 28.042969 15.652344 L 31.957031 15.652344 C 33.035156 15.652344 33.914062 14.777344 33.914062 13.695312 C 34.992188 13.695312 35.871094 12.820312 35.871094 11.738281 L 35.804688 11.738281 C 36.882812 11.738281 37.824219 10.863281 37.824219 9.78125 Z M 37.824219 9.78125 "/>
<path fill-rule="evenodd" fill="rgb(0%, 32.156863%, 70.588235%)" fill-opacity="1" d="M 59.992188 30.730469 C 59.605469 46.960938 46.324219 60 30 60 C 13.675781 60 0.394531 46.960938 0.0078125 30.730469 Z M 59.992188 30.730469 "/>
<path fill-rule="evenodd" fill="rgb(95.294118%, 95.294118%, 95.294118%)" fill-opacity="1" d="M 59.90625 32.398438 C 59.96875 31.609375 60 30.808594 60 30 C 60 29.601562 59.992188 29.207031 59.976562 28.8125 C 59.925781 28.765625 59.871094 28.71875 59.820312 28.671875 C 59.25 28.148438 58.679688 27.625 57.535156 27.625 C 56.394531 27.625 55.824219 28.148438 55.253906 28.671875 C 54.683594 29.191406 54.113281 29.714844 52.972656 29.714844 C 51.832031 29.714844 51.261719 29.191406 50.691406 28.671875 C 50.117188 28.148438 49.546875 27.625 48.40625 27.625 C 47.265625 27.625 46.695312 28.148438 46.125 28.671875 C 45.554688 29.191406 44.984375 29.714844 43.839844 29.714844 C 42.699219 29.714844 42.128906 29.191406 41.558594 28.671875 C 40.988281 28.148438 40.417969 27.625 39.277344 27.625 C 38.136719 27.625 37.5625 28.148438 36.992188 28.671875 C 36.421875 29.191406 35.851562 29.714844 34.710938 29.714844 C 33.570312 29.714844 33 29.191406 32.429688 28.671875 C 31.859375 28.148438 31.289062 27.625 30.144531 27.625 C 29.003906 27.625 28.433594 28.148438 27.863281 28.671875 C 27.292969 29.191406 26.722656 29.714844 25.582031 29.714844 C 24.441406 29.714844 23.867188 29.191406 23.296875 28.671875 C 22.726562 28.148438 22.15625 27.625 21.015625 27.625 C 19.875 27.625 19.304688 28.148438 18.734375 28.671875 C 18.164062 29.191406 17.589844 29.714844 16.449219 29.714844 C 15.308594 29.714844 14.738281 29.191406 14.167969 28.671875 C 13.597656 28.148438 13.027344 27.625 11.886719 27.625 C 10.746094 27.625 10.171875 28.148438 9.601562 28.671875 C 9.03125 29.191406 8.460938 29.714844 7.320312 29.714844 C 6.179688 29.714844 5.609375 29.191406 5.039062 28.671875 C 4.464844 28.148438 3.894531 27.625 2.753906 27.625 C 1.613281 27.625 1.042969 28.148438 0.472656 28.671875 C 0.324219 28.804688 0.171875 28.941406 0.015625 29.070312 C 0.00390625 29.378906 0 29.6875 0 30 C 0 30.890625 0.0390625 31.769531 0.113281 32.640625 C 0.238281 32.539062 0.355469 32.429688 0.472656 32.320312 C 1.042969 31.800781 1.613281 31.277344 2.753906 31.277344 C 3.894531 31.277344 4.464844 31.800781 5.039062 32.320312 C 5.609375 32.84375 6.179688 33.367188 7.320312 33.367188 C 8.460938 33.367188 9.03125 32.84375 9.601562 32.320312 C 10.171875 31.800781 10.742188 31.277344 11.886719 31.277344 C 13.027344 31.277344 13.597656 31.800781 14.167969 32.320312 C 14.738281 32.84375 15.308594 33.367188 16.449219 33.367188 C 17.589844 33.367188 18.164062 32.84375 18.734375 32.320312 C 19.304688 31.800781 19.875 31.277344 21.015625 31.277344 C 22.15625 31.277344 22.726562 31.800781 23.296875 32.320312 C 23.867188 32.84375 24.441406 33.367188 25.582031 33.367188 C 26.722656 33.367188 27.292969 32.84375 27.863281 32.320312 C 28.433594 31.800781 29.003906 31.277344 30.144531 31.277344 C 31.289062 31.277344 31.859375 31.800781 32.429688 32.320312 C 33 32.84375 33.570312 33.367188 34.710938 33.367188 C 35.851562 33.367188 36.421875 32.84375 36.992188 32.320312 C 37.5625 31.800781 38.136719 31.277344 39.277344 31.277344 C 40.417969 31.277344 40.988281 31.800781 41.558594 32.320312 C 42.128906 32.84375 42.699219 33.367188 43.84375 33.367188 C 44.984375 33.367188 45.554688 32.84375 46.125 32.320312 C 46.695312 31.800781 47.265625 31.277344 48.40625 31.277344 C 49.546875 31.277344 50.121094 31.800781 50.691406 32.320312 C 51.261719 32.84375 51.832031 33.367188 52.972656 33.367188 C 54.113281 33.367188 54.683594 32.84375 55.253906 32.320312 C 55.824219 31.800781 56.394531 31.277344 57.539062 31.277344 C 58.679688 31.277344 59.25 31.800781 59.820312 32.320312 C 59.847656 32.347656 59.875 32.375 59.90625 32.398438 Z M 59.464844 35.664062 C 58.992188 35.269531 58.445312 34.9375 57.535156 34.9375 C 56.394531 34.9375 55.824219 35.457031 55.253906 35.980469 C 54.683594 36.503906 54.113281 37.023438 52.972656 37.023438 C 51.832031 37.023438 51.261719 36.503906 50.691406 35.980469 C 50.117188 35.457031 49.546875 34.9375 48.40625 34.9375 C 47.265625 34.9375 46.695312 35.457031 46.125 35.980469 C 45.554688 36.503906 44.984375 37.023438 43.839844 37.023438 C 42.699219 37.023438 42.128906 36.503906 41.558594 35.980469 C 40.988281 35.457031 40.417969 34.9375 39.277344 34.9375 C 38.136719 34.9375 37.5625 35.457031 36.992188 35.980469 C 36.421875 36.503906 35.851562 37.023438 34.710938 37.023438 C 33.570312 37.023438 33 36.503906 32.429688 35.980469 C 31.859375 35.457031 31.289062 34.9375 30.144531 34.9375 C 29.003906 34.9375 28.433594 35.457031 27.863281 35.980469 C 27.292969 36.503906 26.722656 37.023438 25.582031 37.023438 C 24.441406 37.023438 23.867188 36.503906 23.296875 35.980469 C 22.726562 35.457031 22.15625 34.9375 21.015625 34.9375 C 19.875 34.9375 19.304688 35.457031 18.734375 35.980469 C 18.164062 36.503906 17.589844 37.023438 16.449219 37.023438 C 15.308594 37.023438 14.738281 36.503906 14.167969 35.980469 C 13.597656 35.457031 13.027344 34.9375 11.886719 34.9375 C 10.746094 34.9375 10.171875 35.457031 9.601562 35.980469 C 9.03125 36.503906 8.460938 37.023438 7.320312 37.023438 C 6.179688 37.023438 5.609375 36.503906 5.039062 35.980469 C 4.464844 35.457031 3.894531 34.9375 2.753906 34.9375 C 1.683594 34.9375 1.113281 35.398438 0.578125 35.886719 C 0.785156 36.925781 1.042969 37.945312 1.355469 38.941406 C 1.71875 38.730469 2.160156 38.589844 2.753906 38.589844 C 3.894531 38.589844 4.464844 39.109375 5.039062 39.632812 C 5.609375 40.15625 6.179688 40.675781 7.320312 40.675781 C 8.460938 40.675781 9.03125 40.15625 9.601562 39.632812 C 10.171875 39.109375 10.742188 38.589844 11.886719 38.589844 C 13.027344 38.589844 13.597656 39.109375 14.167969 39.632812 C 14.738281 40.15625 15.308594 40.675781 16.449219 40.675781 C 17.589844 40.675781 18.164062 40.15625 18.734375 39.632812 C 19.304688 39.109375 19.875 38.589844 21.015625 38.589844 C 22.15625 38.589844 22.726562 39.109375 23.296875 39.632812 C 23.867188 40.15625 24.4375 40.675781 25.582031 40.675781 C 26.722656 40.675781 27.292969 40.15625 27.863281 39.632812 C 28.433594 39.109375 29.003906 38.589844 30.144531 38.589844 C 31.289062 38.589844 31.859375 39.109375 32.429688 39.632812 C 33 40.15625 33.570312 40.675781 34.710938 40.675781 C 35.851562 40.675781 36.421875 40.15625 36.992188 39.632812 C 37.5625 39.109375 38.136719 38.589844 39.277344 38.589844 C 40.417969 38.589844 40.988281 39.109375 41.558594 39.632812 C 42.128906 40.15625 42.699219 40.675781 43.839844 40.675781 C 44.984375 40.675781 45.554688 40.15625 46.125 39.632812 C 46.695312 39.109375 47.265625 38.589844 48.40625 38.589844 C 49.546875 38.589844 50.117188 39.109375 50.691406 39.632812 C 51.261719 40.15625 51.832031 40.675781 52.972656 40.675781 C 54.113281 40.675781 54.683594 40.15625 55.253906 39.632812 C 55.824219 39.109375 56.394531 38.589844 57.535156 38.589844 C 58 38.589844 58.371094 38.675781 58.683594 38.8125 C 59 37.785156 59.261719 36.734375 59.464844 35.664062 Z M 57.390625 42.25 C 56.347656 42.292969 55.800781 42.792969 55.253906 43.292969 C 54.683594 43.8125 54.113281 44.335938 52.972656 44.335938 C 51.832031 44.335938 51.261719 43.8125 50.691406 43.292969 C 50.117188 42.769531 49.546875 42.246094 48.40625 42.246094 C 47.265625 42.246094 46.695312 42.769531 46.125 43.292969 C 45.554688 43.8125 44.984375 44.335938 43.839844 44.335938 C 42.699219 44.335938 42.128906 43.8125 41.558594 43.292969 C 40.988281 42.769531 40.417969 42.246094 39.277344 42.246094 C 38.136719 42.246094 37.5625 42.769531 36.992188 43.292969 C 36.421875 43.8125 35.851562 44.335938 34.710938 44.335938 C 33.570312 44.335938 33 43.8125 32.429688 43.292969 C 31.859375 42.769531 31.289062 42.246094 30.144531 42.246094 C 29.003906 42.246094 28.433594 42.769531 27.863281 43.292969 C 27.292969 43.8125 26.722656 44.335938 25.582031 44.335938 C 24.441406 44.335938 23.867188 43.8125 23.296875 43.292969 C 22.726562 42.769531 22.15625 42.246094 21.015625 42.246094 C 19.875 42.246094 19.304688 42.769531 18.734375 43.292969 C 18.164062 43.8125 17.589844 44.335938 16.449219 44.335938 C 15.308594 44.335938 14.738281 43.8125 14.167969 43.292969 C 13.597656 42.769531 13.027344 42.246094 11.886719 42.246094 C 10.746094 42.246094 10.171875 42.769531 9.601562 43.292969 C 9.03125 43.8125 8.460938 44.335938 7.320312 44.335938 C 6.179688 44.335938 5.609375 43.8125 5.039062 43.292969 C 4.464844 42.769531 3.894531 42.246094 2.753906 42.246094 C 2.703125 42.246094 2.65625 42.25 2.605469 42.25 C 3.417969 44.066406 4.40625 45.78125 5.546875 47.382812 C 5.984375 47.722656 6.507812 47.988281 7.320312 47.988281 C 8.460938 47.988281 9.03125 47.464844 9.601562 46.945312 C 10.171875 46.421875 10.742188 45.898438 11.886719 45.898438 C 13.027344 45.898438 13.597656 46.421875 14.167969 46.945312 C 14.738281 47.464844 15.308594 47.988281 16.449219 47.988281 C 17.589844 47.988281 18.164062 47.464844 18.734375 46.945312 C 19.304688 46.421875 19.875 45.898438 21.015625 45.898438 C 22.15625 45.898438 22.726562 46.421875 23.296875 46.945312 C 23.867188 47.464844 24.441406 47.988281 25.582031 47.988281 C 26.722656 47.988281 27.292969 47.464844 27.863281 46.945312 C 28.433594 46.421875 29.003906 45.898438 30.144531 45.898438 C 31.289062 45.898438 31.859375 46.421875 32.429688 46.945312 C 33 47.464844 33.570312 47.988281 34.710938 47.988281 C 35.851562 47.988281 36.421875 47.464844 36.992188 46.945312 C 37.5625 46.421875 38.136719 45.898438 39.277344 45.898438 C 40.417969 45.898438 40.988281 46.421875 41.558594 46.945312 C 42.128906 47.464844 42.699219 47.988281 43.839844 47.988281 C 44.984375 47.988281 45.554688 47.464844 46.125 46.945312 C 46.695312 46.421875 47.265625 45.898438 48.40625 45.898438 C 49.546875 45.898438 50.121094 46.421875 50.691406 46.945312 C 51.261719 47.464844 51.832031 47.988281 52.972656 47.988281 C 53.480469 47.988281 53.875 47.882812 54.207031 47.722656 C 55.453125 46.027344 56.523438 44.191406 57.390625 42.25 Z M 57.390625 42.25 "/>
</svg>
