<?xml version="1.0" encoding="UTF-8"?>
<svg xmlns="http://www.w3.org/2000/svg" xmlns:xlink="http://www.w3.org/1999/xlink" width="40" height="40" viewBox="0 0 40 40">
<path fill-rule="evenodd" fill="rgb(84.705882%, 0%, 15.294118%)" fill-opacity="1" d="M 38.210938 28.28125 C 39.359375 25.757812 40 22.953125 40 20 C 40 8.953125 31.046875 0 20 0 C 8.953125 0 0 8.953125 0 20 C 0 22.953125 0.640625 25.757812 1.789062 28.28125 Z M 38.210938 28.28125 "/>
<path fill-rule="nonzero" fill="rgb(100%, 85.490196%, 26.666667%)" fill-opacity="1" d="M 26.957031 18.601562 L 24.113281 19.9375 L 25.628906 22.691406 L 22.539062 22.097656 L 22.148438 25.21875 L 20 22.925781 L 17.851562 25.21875 L 17.457031 22.097656 L 14.371094 22.691406 L 15.886719 19.9375 L 13.042969 18.601562 L 15.886719 17.261719 L 14.371094 14.511719 L 17.457031 15.101562 L 17.851562 11.984375 L 20 14.277344 L 22.148438 11.984375 L 22.539062 15.101562 L 25.628906 14.511719 L 24.113281 17.261719 Z M 26.957031 18.601562 "/>
<path fill-rule="nonzero" fill="rgb(100%, 85.490196%, 26.666667%)" fill-opacity="1" d="M 25.21875 6.523438 L 21.304688 6.523438 C 21.304688 5.800781 20.71875 5.21875 20 5.21875 C 19.28125 5.21875 18.695312 5.800781 18.695312 6.523438 L 14.78125 6.523438 C 14.78125 7.242188 15.410156 7.824219 16.128906 7.824219 L 16.085938 7.824219 C 16.085938 8.546875 16.671875 9.128906 17.390625 9.128906 C 17.390625 9.851562 17.976562 10.433594 18.695312 10.433594 L 21.304688 10.433594 C 22.023438 10.433594 22.609375 9.851562 22.609375 9.128906 C 23.328125 9.128906 23.914062 8.546875 23.914062 7.824219 L 23.871094 7.824219 C 24.589844 7.824219 25.21875 7.242188 25.21875 6.523438 Z M 25.21875 6.523438 "/>
<path fill-rule="evenodd" fill="rgb(0%, 32.156863%, 70.588235%)" fill-opacity="1" d="M 39.996094 20.488281 C 39.734375 31.308594 30.882812 40 20 40 C 9.117188 40 0.265625 31.308594 0.00390625 20.488281 Z M 39.996094 20.488281 "/>
<path fill-rule="evenodd" fill="rgb(95.294118%, 95.294118%, 95.294118%)" fill-opacity="1" d="M 39.9375 21.601562 C 39.976562 21.070312 40 20.539062 40 20 C 40 19.734375 39.996094 19.472656 39.984375 19.207031 C 39.949219 19.175781 39.914062 19.144531 39.878906 19.113281 C 39.5 18.765625 39.117188 18.417969 38.359375 18.417969 C 37.597656 18.417969 37.21875 18.765625 36.835938 19.113281 C 36.457031 19.460938 36.074219 19.808594 35.316406 19.808594 C 34.554688 19.808594 34.171875 19.460938 33.792969 19.113281 C 33.414062 18.765625 33.03125 18.417969 32.273438 18.417969 C 31.511719 18.417969 31.128906 18.765625 30.75 19.113281 C 30.371094 19.460938 29.988281 19.808594 29.226562 19.808594 C 28.46875 19.808594 28.085938 19.460938 27.707031 19.113281 C 27.324219 18.765625 26.945312 18.417969 26.183594 18.417969 C 25.421875 18.417969 25.042969 18.765625 24.664062 19.113281 C 24.28125 19.460938 23.902344 19.808594 23.140625 19.808594 C 22.378906 19.808594 22 19.460938 21.621094 19.113281 C 21.238281 18.765625 20.859375 18.417969 20.097656 18.417969 C 19.335938 18.417969 18.957031 18.765625 18.574219 19.113281 C 18.195312 19.460938 17.816406 19.808594 17.054688 19.808594 C 16.292969 19.808594 15.914062 19.460938 15.53125 19.113281 C 15.152344 18.765625 14.769531 18.417969 14.011719 18.417969 C 13.25 18.417969 12.867188 18.765625 12.488281 19.113281 C 12.109375 19.460938 11.726562 19.808594 10.96875 19.808594 C 10.207031 19.808594 9.824219 19.460938 9.445312 19.113281 C 9.066406 18.765625 8.683594 18.417969 7.921875 18.417969 C 7.164062 18.417969 6.78125 18.765625 6.402344 19.113281 C 6.019531 19.460938 5.640625 19.808594 4.878906 19.808594 C 4.117188 19.808594 3.738281 19.460938 3.359375 19.113281 C 2.976562 18.765625 2.597656 18.417969 1.835938 18.417969 C 1.074219 18.417969 0.695312 18.765625 0.316406 19.113281 C 0.214844 19.203125 0.117188 19.296875 0.0078125 19.378906 C 0.00390625 19.585938 0 19.792969 0 20 C 0 20.59375 0.0273438 21.179688 0.0742188 21.761719 C 0.15625 21.691406 0.234375 21.621094 0.316406 21.546875 C 0.695312 21.199219 1.074219 20.851562 1.835938 20.851562 C 2.597656 20.851562 2.976562 21.199219 3.359375 21.546875 C 3.738281 21.894531 4.117188 22.242188 4.878906 22.242188 C 5.640625 22.242188 6.019531 21.894531 6.402344 21.546875 C 6.78125 21.199219 7.164062 20.851562 7.921875 20.851562 C 8.683594 20.851562 9.066406 21.199219 9.445312 21.546875 C 9.824219 21.894531 10.207031 22.242188 10.96875 22.242188 C 11.726562 22.242188 12.109375 21.894531 12.488281 21.546875 C 12.867188 21.199219 13.25 20.851562 14.011719 20.851562 C 14.769531 20.851562 15.152344 21.199219 15.53125 21.546875 C 15.914062 21.894531 16.292969 22.242188 17.054688 22.242188 C 17.816406 22.242188 18.195312 21.894531 18.574219 21.546875 C 18.957031 21.199219 19.335938 20.851562 20.097656 20.851562 C 20.859375 20.851562 21.238281 21.199219 21.621094 21.546875 C 22 21.894531 22.378906 22.242188 23.140625 22.242188 C 23.902344 22.242188 24.28125 21.894531 24.664062 21.546875 C 25.042969 21.199219 25.421875 20.851562 26.183594 20.851562 C 26.945312 20.851562 27.324219 21.199219 27.707031 21.546875 C 28.085938 21.894531 28.46875 22.242188 29.226562 22.242188 C 29.988281 22.242188 30.371094 21.894531 30.75 21.546875 C 31.128906 21.199219 31.511719 20.851562 32.273438 20.851562 C 33.03125 20.851562 33.414062 21.199219 33.792969 21.546875 C 34.171875 21.894531 34.554688 22.242188 35.316406 22.242188 C 36.074219 22.242188 36.457031 21.894531 36.835938 21.546875 C 37.21875 21.199219 37.597656 20.851562 38.359375 20.851562 C 39.117188 20.851562 39.5 21.199219 39.878906 21.546875 C 39.898438 21.566406 39.917969 21.582031 39.9375 21.601562 Z M 39.644531 23.777344 C 39.328125 23.511719 38.964844 23.292969 38.359375 23.292969 C 37.597656 23.292969 37.21875 23.640625 36.835938 23.988281 C 36.457031 24.335938 36.074219 24.683594 35.316406 24.683594 C 34.554688 24.683594 34.171875 24.335938 33.792969 23.988281 C 33.414062 23.640625 33.03125 23.292969 32.273438 23.292969 C 31.511719 23.292969 31.128906 23.640625 30.75 23.988281 C 30.371094 24.335938 29.988281 24.683594 29.226562 24.683594 C 28.46875 24.683594 28.085938 24.335938 27.707031 23.988281 C 27.324219 23.640625 26.945312 23.292969 26.183594 23.292969 C 25.421875 23.292969 25.042969 23.640625 24.664062 23.988281 C 24.28125 24.335938 23.902344 24.683594 23.140625 24.683594 C 22.378906 24.683594 22 24.335938 21.621094 23.988281 C 21.238281 23.640625 20.859375 23.292969 20.097656 23.292969 C 19.335938 23.292969 18.957031 23.640625 18.574219 23.988281 C 18.195312 24.335938 17.816406 24.683594 17.054688 24.683594 C 16.292969 24.683594 15.914062 24.335938 15.53125 23.988281 C 15.152344 23.640625 14.769531 23.292969 14.011719 23.292969 C 13.25 23.292969 12.867188 23.640625 12.488281 23.988281 C 12.109375 24.335938 11.726562 24.683594 10.96875 24.683594 C 10.207031 24.683594 9.824219 24.335938 9.445312 23.988281 C 9.066406 23.640625 8.683594 23.292969 7.921875 23.292969 C 7.164062 23.292969 6.78125 23.640625 6.402344 23.988281 C 6.019531 24.335938 5.640625 24.683594 4.878906 24.683594 C 4.117188 24.683594 3.738281 24.335938 3.359375 23.988281 C 2.976562 23.640625 2.597656 23.292969 1.835938 23.292969 C 1.121094 23.292969 0.742188 23.597656 0.382812 23.921875 C 0.523438 24.617188 0.695312 25.296875 0.902344 25.960938 C 1.148438 25.820312 1.441406 25.726562 1.835938 25.726562 C 2.597656 25.726562 2.976562 26.074219 3.359375 26.421875 C 3.738281 26.769531 4.117188 27.117188 4.878906 27.117188 C 5.640625 27.117188 6.019531 26.769531 6.402344 26.421875 C 6.78125 26.074219 7.164062 25.726562 7.921875 25.726562 C 8.683594 25.726562 9.066406 26.074219 9.445312 26.421875 C 9.824219 26.769531 10.207031 27.117188 10.96875 27.117188 C 11.726562 27.117188 12.109375 26.769531 12.488281 26.421875 C 12.867188 26.074219 13.25 25.726562 14.011719 25.726562 C 14.769531 25.726562 15.152344 26.074219 15.53125 26.421875 C 15.914062 26.769531 16.292969 27.117188 17.054688 27.117188 C 17.816406 27.117188 18.195312 26.769531 18.574219 26.421875 C 18.957031 26.074219 19.335938 25.726562 20.097656 25.726562 C 20.859375 25.726562 21.238281 26.074219 21.621094 26.421875 C 22 26.769531 22.378906 27.117188 23.140625 27.117188 C 23.902344 27.117188 24.28125 26.769531 24.664062 26.421875 C 25.042969 26.074219 25.421875 25.726562 26.183594 25.726562 C 26.945312 25.726562 27.324219 26.074219 27.707031 26.421875 C 28.085938 26.769531 28.46875 27.117188 29.226562 27.117188 C 29.988281 27.117188 30.371094 26.769531 30.75 26.421875 C 31.128906 26.074219 31.511719 25.726562 32.269531 25.726562 C 33.03125 25.726562 33.414062 26.074219 33.792969 26.421875 C 34.171875 26.769531 34.554688 27.117188 35.316406 27.117188 C 36.074219 27.117188 36.457031 26.769531 36.835938 26.421875 C 37.214844 26.074219 37.597656 25.726562 38.359375 25.726562 C 38.667969 25.726562 38.914062 25.785156 39.121094 25.875 C 39.332031 25.191406 39.507812 24.492188 39.644531 23.777344 Z M 38.261719 28.167969 C 37.5625 28.195312 37.199219 28.527344 36.835938 28.859375 C 36.457031 29.207031 36.074219 29.558594 35.316406 29.558594 C 34.554688 29.558594 34.171875 29.207031 33.792969 28.859375 C 33.414062 28.511719 33.03125 28.164062 32.273438 28.164062 C 31.511719 28.164062 31.128906 28.511719 30.75 28.859375 C 30.371094 29.207031 29.988281 29.558594 29.226562 29.558594 C 28.46875 29.558594 28.085938 29.207031 27.707031 28.859375 C 27.324219 28.511719 26.945312 28.164062 26.183594 28.164062 C 25.421875 28.164062 25.042969 28.511719 24.664062 28.859375 C 24.28125 29.207031 23.902344 29.558594 23.140625 29.558594 C 22.378906 29.558594 22 29.207031 21.621094 28.859375 C 21.238281 28.511719 20.859375 28.164062 20.097656 28.164062 C 19.335938 28.164062 18.957031 28.511719 18.574219 28.859375 C 18.195312 29.207031 17.816406 29.558594 17.054688 29.558594 C 16.292969 29.558594 15.914062 29.207031 15.53125 28.859375 C 15.152344 28.511719 14.769531 28.164062 14.011719 28.164062 C 13.25 28.164062 12.867188 28.511719 12.488281 28.859375 C 12.109375 29.207031 11.726562 29.558594 10.96875 29.558594 C 10.207031 29.558594 9.824219 29.207031 9.445312 28.859375 C 9.066406 28.511719 8.683594 28.164062 7.921875 28.164062 C 7.164062 28.164062 6.78125 28.511719 6.402344 28.859375 C 6.019531 29.207031 5.640625 29.558594 4.878906 29.558594 C 4.117188 29.558594 3.738281 29.207031 3.359375 28.859375 C 2.976562 28.511719 2.597656 28.164062 1.835938 28.164062 C 1.804688 28.164062 1.769531 28.167969 1.738281 28.167969 C 2.28125 29.375 2.9375 30.523438 3.699219 31.589844 C 3.992188 31.816406 4.339844 31.992188 4.878906 31.992188 C 5.640625 31.992188 6.019531 31.644531 6.402344 31.296875 C 6.78125 30.949219 7.164062 30.601562 7.921875 30.601562 C 8.683594 30.601562 9.066406 30.949219 9.445312 31.296875 C 9.824219 31.644531 10.207031 31.992188 10.96875 31.992188 C 11.726562 31.992188 12.109375 31.644531 12.488281 31.296875 C 12.867188 30.949219 13.25 30.601562 14.011719 30.601562 C 14.769531 30.601562 15.152344 30.949219 15.53125 31.296875 C 15.914062 31.644531 16.292969 31.992188 17.054688 31.992188 C 17.816406 31.992188 18.195312 31.644531 18.574219 31.296875 C 18.957031 30.949219 19.335938 30.601562 20.097656 30.601562 C 20.859375 30.601562 21.238281 30.949219 21.621094 31.296875 C 22 31.644531 22.378906 31.992188 23.140625 31.992188 C 23.902344 31.992188 24.28125 31.644531 24.664062 31.296875 C 25.042969 30.949219 25.421875 30.601562 26.183594 30.601562 C 26.945312 30.601562 27.324219 30.949219 27.707031 31.296875 C 28.085938 31.644531 28.46875 31.992188 29.226562 31.992188 C 29.988281 31.992188 30.371094 31.644531 30.75 31.296875 C 31.128906 30.949219 31.511719 30.601562 32.273438 30.601562 C 33.03125 30.601562 33.414062 30.949219 33.792969 31.296875 C 34.171875 31.644531 34.554688 31.992188 35.316406 31.992188 C 35.652344 31.992188 35.917969 31.921875 36.136719 31.816406 C 36.96875 30.683594 37.683594 29.460938 38.261719 28.167969 Z M 38.261719 28.167969 "/>
</svg>
