<svg width="24" height="24" viewBox="0 0 24 24" fill="none" xmlns="http://www.w3.org/2000/svg">
<g id="CONFIGS SELECTED">
<path id="configfile_icon" d="M4.22222 4H19.7778V2H4.22222V4ZM19.7778 4C20.0037 4 20.3165 4.12475 20.5941 4.40583C20.8709 4.68613 21 5.00837 21 5.25H23C23 4.36663 22.5735 3.56387 22.017 3.00042C21.4613 2.43775 20.663 2 19.7778 2V4ZM21 5.25V18.75H23V5.25H21ZM21 18.75C21 18.9916 20.8709 19.3139 20.5941 19.5942C20.3165 19.8752 20.0037 20 19.7778 20V22C20.663 22 21.4613 21.5623 22.017 20.9996C22.5735 20.4361 23 19.6334 23 18.75H21ZM19.7778 20H4.22222V22H19.7778V20ZM4.22222 20C3.64154 20 3 19.4187 3 18.75H1C1 20.5665 2.58069 22 4.22222 22V20ZM3 18.75V5.25H1V18.75H3ZM3 5.25C3 5.00837 3.12909 4.68613 3.40593 4.40583C3.68353 4.12475 3.99632 4 4.22222 4V2C3.33702 2 2.53869 2.43775 1.98296 3.00042C1.42646 3.56387 1 4.36663 1 5.25H3Z" fill="white"/>
<path id="Subtract" fill-rule="evenodd" clip-rule="evenodd" d="M4.22222 3H19.7778C20.8889 3 22 4.125 22 5.25V18.75C22 19.875 20.8889 21 19.7778 21H4.22222C3.11111 21 2 19.9926 2 18.75V5.25C2 4.125 3.11111 3 4.22222 3ZM6.79289 7.79289C7.18342 7.40237 7.81658 7.40237 8.20711 7.79289L11.7071 11.2929L12.4142 12L11.7071 12.7071L8.20711 16.2071C7.81658 16.5976 7.18342 16.5976 6.79289 16.2071C6.40237 15.8166 6.40237 15.1834 6.79289 14.7929L9.58579 12L6.79289 9.20711C6.40237 8.81658 6.40237 8.18342 6.79289 7.79289ZM14 14C13.4477 14 13 14.4477 13 15C13 15.5523 13.4477 16 14 16H17C17.5523 16 18 15.5523 18 15C18 14.4477 17.5523 14 17 14H14Z" fill="white"/>
</g>
</svg>
