<?xml version="1.0" encoding="UTF-8"?>
<svg xmlns="http://www.w3.org/2000/svg" xmlns:xlink="http://www.w3.org/1999/xlink" width="40" height="40" viewBox="0 0 40 40">
<path fill-rule="nonzero" fill="rgb(20%, 20%, 20%)" fill-opacity="1" d="M 37.671875 29.375 C 39.15625 26.578125 40 23.386719 40 20 C 40 16.613281 39.15625 13.421875 37.671875 10.625 L 2.328125 10.625 C 0.84375 13.421875 0 16.613281 0 20 C 0 23.386719 0.84375 26.578125 2.328125 29.375 Z M 37.671875 29.375 "/>
<path fill-rule="nonzero" fill="rgb(20%, 20%, 20%)" fill-opacity="1" d="M 38.785156 26.875 C 35.984375 34.535156 28.628906 40 20 40 C 11.371094 40 4.015625 34.535156 1.214844 26.875 L 38.789062 26.875 Z M 38.785156 26.875 "/>
<path fill-rule="nonzero" fill="rgb(0%, 32.156863%, 70.588235%)" fill-opacity="1" d="M 38.785156 13.125 L 1.210938 13.125 C 4.015625 5.464844 11.371094 0 20 0 C 28.628906 0 35.984375 5.464844 38.785156 13.125 Z M 38.785156 13.125 "/>
<path fill-rule="nonzero" fill="rgb(42.745098%, 64.705882%, 26.666667%)" fill-opacity="1" d="M 7.34375 17.8125 C 7.292969 17.804688 7.238281 17.804688 7.1875 17.8125 C 7.105469 17.835938 7.027344 17.875 6.960938 17.929688 C 6.890625 17.980469 6.835938 18.046875 6.796875 18.125 C 6.710938 18.265625 6.683594 18.433594 6.71875 18.59375 L 7.265625 20.546875 L 4.21875 18.75 C 4.148438 18.707031 4.066406 18.679688 3.984375 18.671875 C 3.902344 18.660156 3.820312 18.664062 3.738281 18.6875 C 3.660156 18.710938 3.585938 18.746094 3.519531 18.796875 C 3.453125 18.847656 3.398438 18.914062 3.359375 18.984375 C 3.316406 19.054688 3.289062 19.136719 3.28125 19.21875 C 3.269531 19.300781 3.273438 19.382812 3.296875 19.464844 C 3.320312 19.542969 3.355469 19.617188 3.40625 19.683594 C 3.457031 19.75 3.519531 19.804688 3.59375 19.84375 L 6.640625 21.640625 L 4.6875 22.109375 C 4.605469 22.132812 4.527344 22.171875 4.460938 22.226562 C 4.390625 22.277344 4.335938 22.347656 4.296875 22.421875 C 4.210938 22.5625 4.183594 22.730469 4.21875 22.890625 C 4.238281 22.972656 4.273438 23.054688 4.320312 23.121094 C 4.371094 23.191406 4.433594 23.25 4.507812 23.292969 C 4.582031 23.335938 4.664062 23.367188 4.746094 23.378906 C 4.832031 23.390625 4.917969 23.382812 5 23.359375 L 8.203125 22.5 L 8.828125 22.890625 L 6.796875 23.359375 C 6.65625 23.421875 6.546875 23.53125 6.484375 23.671875 C 6.398438 23.8125 6.371094 23.980469 6.40625 24.140625 C 6.425781 24.222656 6.460938 24.304688 6.507812 24.371094 C 6.558594 24.441406 6.621094 24.5 6.695312 24.542969 C 6.769531 24.585938 6.851562 24.617188 6.933594 24.628906 C 7.019531 24.640625 7.105469 24.632812 7.1875 24.609375 L 10.3125 23.75 L 10.9375 24.140625 L 8.984375 24.609375 C 8.84375 24.671875 8.734375 24.78125 8.671875 24.921875 C 8.585938 25.0625 8.558594 25.230469 8.59375 25.390625 C 8.613281 25.472656 8.648438 25.554688 8.695312 25.621094 C 8.746094 25.691406 8.808594 25.75 8.882812 25.792969 C 8.957031 25.835938 9.039062 25.867188 9.121094 25.878906 C 9.207031 25.890625 9.292969 25.882812 9.375 25.859375 L 12.5 25 L 14.453125 26.09375 C 14.523438 26.136719 14.605469 26.164062 14.6875 26.171875 C 14.769531 26.183594 14.851562 26.179688 14.933594 26.15625 C 15.011719 26.132812 15.085938 26.097656 15.152344 26.046875 C 15.21875 25.996094 15.273438 25.929688 15.3125 25.859375 C 15.375 25.722656 15.382812 25.570312 15.339844 25.425781 C 15.296875 25.28125 15.203125 25.160156 15.078125 25.078125 L 13.125 23.90625 L 12.265625 20.78125 C 12.246094 20.699219 12.210938 20.617188 12.164062 20.550781 C 12.113281 20.480469 12.050781 20.421875 11.976562 20.378906 C 11.902344 20.335938 11.820312 20.304688 11.738281 20.292969 C 11.652344 20.28125 11.566406 20.289062 11.484375 20.3125 C 11.402344 20.335938 11.324219 20.375 11.257812 20.429688 C 11.1875 20.480469 11.132812 20.550781 11.09375 20.625 C 11.03125 20.773438 11.03125 20.945312 11.09375 21.09375 L 11.5625 23.046875 L 10.9375 22.65625 L 10.078125 19.53125 C 10.039062 19.378906 9.949219 19.246094 9.816406 19.160156 C 9.6875 19.074219 9.53125 19.039062 9.375 19.0625 C 9.292969 19.085938 9.214844 19.125 9.148438 19.179688 C 9.078125 19.230469 9.023438 19.296875 8.984375 19.375 C 8.898438 19.515625 8.871094 19.683594 8.90625 19.84375 L 9.453125 21.796875 L 8.828125 21.40625 L 7.96875 18.28125 C 7.933594 18.144531 7.851562 18.023438 7.738281 17.9375 C 7.625 17.851562 7.484375 17.808594 7.34375 17.8125 Z M 21.40625 25.3125 L 30.9375 33.671875 C 32.265625 32.65625 33.4375 31.328125 34.375 29.921875 Z M 21.40625 25.3125 "/>
<path fill-rule="nonzero" fill="rgb(100%, 85.490196%, 26.666667%)" fill-opacity="1" d="M 20 37.5 L 18.359375 35.234375 L 15.9375 36.71875 L 15.3125 33.984375 L 12.5 34.375 L 12.96875 31.640625 L 10.15625 30.9375 L 11.640625 28.515625 L 9.375 26.875 L 11.640625 25.234375 L 10.15625 22.8125 L 12.96875 22.1875 L 12.5 19.375 L 15.3125 19.84375 L 15.9375 17.03125 L 18.359375 18.515625 L 20 16.25 L 21.640625 18.515625 L 24.0625 17.03125 L 24.6875 19.84375 L 27.5 19.375 L 27.03125 22.1875 L 29.84375 22.8125 L 28.359375 25.234375 L 30.625 26.875 L 28.359375 28.515625 L 29.84375 30.9375 L 27.03125 31.5625 L 27.5 34.375 L 24.6875 33.984375 L 24.0625 36.71875 L 21.640625 35.234375 Z M 20 37.5 "/>
<path fill-rule="nonzero" fill="rgb(100%, 85.490196%, 26.666667%)" fill-opacity="1" d="M 23.394531 7.082031 C 23.425781 7.191406 23.3125 7.300781 23.203125 7.257812 C 22.546875 7.015625 21.757812 7.292969 21.4375 7.925781 C 21.71875 7.941406 21.945312 8.179688 21.945312 8.464844 C 21.949219 8.746094 21.722656 8.988281 21.441406 9.007812 C 21.648438 9.390625 22.074219 9.628906 22.507812 9.644531 C 22.636719 9.652344 22.691406 9.816406 22.597656 9.898438 C 22.097656 10.355469 21.332031 10.535156 20.789062 10.058594 C 20.773438 10.433594 20.484375 11.40625 20 11.40625 C 19.515625 11.40625 19.226562 10.433594 19.210938 10.058594 C 18.664062 10.535156 17.902344 10.355469 17.402344 9.898438 C 17.304688 9.8125 17.367188 9.652344 17.492188 9.644531 C 17.925781 9.628906 18.347656 9.390625 18.554688 9.007812 C 18.273438 8.988281 18.050781 8.746094 18.054688 8.464844 C 18.054688 8.179688 18.28125 7.941406 18.5625 7.925781 C 18.242188 7.292969 17.453125 7.015625 16.796875 7.257812 C 16.6875 7.300781 16.574219 7.191406 16.605469 7.082031 C 16.941406 5.898438 18.171875 5.65625 19.007812 6.515625 C 18.824219 5.523438 18.851562 4.054688 19.945312 3.605469 C 19.980469 3.589844 20.019531 3.589844 20.054688 3.605469 C 21.148438 4.050781 21.171875 5.527344 20.992188 6.515625 C 21.824219 5.65625 23.058594 5.898438 23.394531 7.082031 Z M 23.394531 7.082031 "/>
<path fill-rule="nonzero" fill="rgb(100%, 85.490196%, 26.666667%)" fill-opacity="1" d="M 32.9375 7.082031 C 32.96875 7.191406 32.855469 7.300781 32.746094 7.257812 C 32.089844 7.015625 31.300781 7.292969 30.980469 7.925781 C 31.261719 7.941406 31.488281 8.179688 31.492188 8.464844 C 31.492188 8.746094 31.269531 8.988281 30.988281 9.007812 C 31.195312 9.390625 31.617188 9.628906 32.050781 9.644531 C 32.179688 9.652344 32.234375 9.816406 32.140625 9.898438 C 31.640625 10.355469 30.878906 10.535156 30.332031 10.058594 C 30.316406 10.433594 30.03125 11.40625 29.542969 11.40625 C 29.058594 11.40625 28.769531 10.433594 28.753906 10.058594 C 28.210938 10.535156 27.445312 10.355469 26.945312 9.898438 C 26.851562 9.8125 26.914062 9.652344 27.035156 9.644531 C 27.46875 9.628906 27.894531 9.390625 28.101562 9.007812 C 27.820312 8.988281 27.59375 8.746094 27.597656 8.464844 C 27.597656 8.179688 27.824219 7.941406 28.109375 7.925781 C 27.785156 7.292969 26.996094 7.015625 26.339844 7.257812 C 26.230469 7.300781 26.117188 7.191406 26.148438 7.082031 C 26.484375 5.898438 27.71875 5.65625 28.550781 6.515625 C 28.371094 5.523438 28.394531 4.054688 29.488281 3.605469 C 29.523438 3.589844 29.5625 3.589844 29.597656 3.605469 C 30.691406 4.050781 30.71875 5.527344 30.535156 6.515625 C 31.371094 5.65625 32.601562 5.898438 32.9375 7.082031 Z M 32.9375 7.082031 "/>
<path fill-rule="nonzero" fill="rgb(100%, 85.490196%, 26.666667%)" fill-opacity="1" d="M 13.851562 7.082031 C 13.882812 7.191406 13.769531 7.300781 13.660156 7.257812 C 13.003906 7.015625 12.214844 7.292969 11.890625 7.925781 C 12.175781 7.941406 12.402344 8.179688 12.402344 8.464844 C 12.40625 8.746094 12.179688 8.988281 11.898438 9.007812 C 12.105469 9.390625 12.53125 9.628906 12.964844 9.644531 C 13.09375 9.652344 13.148438 9.816406 13.054688 9.898438 C 12.554688 10.355469 11.789062 10.535156 11.246094 10.058594 C 11.230469 10.433594 10.941406 11.40625 10.457031 11.40625 C 9.96875 11.40625 9.683594 10.433594 9.667969 10.058594 C 9.121094 10.535156 8.359375 10.355469 7.859375 9.898438 C 7.761719 9.8125 7.824219 9.652344 7.949219 9.644531 C 8.382812 9.628906 8.804688 9.390625 9.011719 9.007812 C 8.730469 8.988281 8.507812 8.746094 8.511719 8.464844 C 8.511719 8.179688 8.738281 7.941406 9.019531 7.925781 C 8.699219 7.292969 7.910156 7.015625 7.253906 7.257812 C 7.144531 7.300781 7.03125 7.191406 7.0625 7.082031 C 7.398438 5.898438 8.628906 5.65625 9.464844 6.515625 C 9.28125 5.523438 9.308594 4.054688 10.402344 3.605469 C 10.4375 3.589844 10.476562 3.589844 10.511719 3.605469 C 11.605469 4.050781 11.628906 5.527344 11.449219 6.515625 C 12.28125 5.65625 13.515625 5.898438 13.851562 7.082031 Z M 13.851562 7.082031 "/>
</svg>
