<?xml version="1.0" encoding="UTF-8"?>
<svg xmlns="http://www.w3.org/2000/svg" xmlns:xlink="http://www.w3.org/1999/xlink" width="60" height="60" viewBox="0 0 60 60">
<path fill-rule="nonzero" fill="rgb(20%, 20%, 20%)" fill-opacity="1" d="M 56.507812 44.0625 C 58.738281 39.867188 60 35.082031 60 30 C 60 24.917969 58.738281 20.132812 56.507812 15.9375 L 3.492188 15.9375 C 1.261719 20.132812 0 24.917969 0 30 C 0 35.082031 1.261719 39.867188 3.492188 44.0625 Z M 56.507812 44.0625 "/>
<path fill-rule="nonzero" fill="rgb(20%, 20%, 20%)" fill-opacity="1" d="M 58.179688 40.3125 C 53.976562 51.800781 42.945312 60 30 60 C 17.054688 60 6.023438 51.800781 1.820312 40.3125 Z M 58.179688 40.3125 "/>
<path fill-rule="nonzero" fill="rgb(0%, 32.156863%, 70.588235%)" fill-opacity="1" d="M 58.179688 19.6875 L 1.820312 19.6875 C 6.023438 8.199219 17.054688 0 30 0 C 42.945312 0 53.972656 8.199219 58.179688 19.6875 Z M 58.179688 19.6875 "/>
<path fill-rule="nonzero" fill="rgb(42.745098%, 64.705882%, 26.666667%)" fill-opacity="1" d="M 11.015625 26.71875 C 10.9375 26.707031 10.859375 26.707031 10.78125 26.71875 C 10.65625 26.753906 10.539062 26.8125 10.4375 26.890625 C 10.339844 26.972656 10.253906 27.074219 10.195312 27.1875 C 10.066406 27.398438 10.023438 27.648438 10.078125 27.890625 L 10.898438 30.820312 L 6.328125 28.125 C 6.21875 28.0625 6.101562 28.023438 5.976562 28.003906 C 5.855469 27.988281 5.730469 28 5.609375 28.03125 C 5.488281 28.0625 5.378906 28.121094 5.28125 28.195312 C 5.183594 28.273438 5.101562 28.367188 5.039062 28.476562 C 4.976562 28.585938 4.9375 28.703125 4.917969 28.824219 C 4.902344 28.949219 4.914062 29.074219 4.945312 29.195312 C 4.976562 29.316406 5.035156 29.425781 5.109375 29.523438 C 5.1875 29.621094 5.28125 29.703125 5.390625 29.765625 L 9.960938 32.460938 L 7.03125 33.164062 C 6.90625 33.199219 6.789062 33.257812 6.6875 33.335938 C 6.589844 33.417969 6.503906 33.519531 6.445312 33.632812 C 6.316406 33.84375 6.273438 34.09375 6.328125 34.335938 C 6.355469 34.460938 6.40625 34.578125 6.480469 34.683594 C 6.558594 34.789062 6.652344 34.875 6.761719 34.941406 C 6.871094 35.007812 6.992188 35.050781 7.121094 35.066406 C 7.246094 35.082031 7.375 35.074219 7.5 35.039062 L 12.304688 33.75 L 13.242188 34.335938 L 10.195312 35.039062 C 9.988281 35.132812 9.820312 35.300781 9.726562 35.507812 C 9.597656 35.71875 9.554688 35.96875 9.609375 36.210938 C 9.636719 36.335938 9.6875 36.453125 9.761719 36.558594 C 9.839844 36.664062 9.933594 36.75 10.042969 36.816406 C 10.152344 36.882812 10.273438 36.925781 10.402344 36.941406 C 10.527344 36.957031 10.65625 36.949219 10.78125 36.914062 L 15.46875 35.625 L 16.40625 36.210938 L 13.476562 36.914062 C 13.269531 37.007812 13.101562 37.175781 13.007812 37.382812 C 12.878906 37.59375 12.835938 37.84375 12.890625 38.085938 C 12.917969 38.210938 12.96875 38.328125 13.046875 38.433594 C 13.121094 38.539062 13.214844 38.625 13.324219 38.691406 C 13.433594 38.757812 13.554688 38.800781 13.683594 38.816406 C 13.808594 38.832031 13.9375 38.824219 14.0625 38.789062 L 18.75 37.5 L 21.679688 39.140625 C 21.789062 39.203125 21.90625 39.242188 22.03125 39.261719 C 22.152344 39.277344 22.277344 39.265625 22.398438 39.234375 C 22.519531 39.203125 22.628906 39.144531 22.726562 39.070312 C 22.824219 38.992188 22.90625 38.898438 22.96875 38.789062 C 23.058594 38.585938 23.074219 38.351562 23.011719 38.136719 C 22.945312 37.921875 22.804688 37.738281 22.617188 37.617188 L 19.6875 35.859375 L 18.398438 31.171875 C 18.371094 31.046875 18.320312 30.929688 18.246094 30.824219 C 18.167969 30.71875 18.074219 30.632812 17.964844 30.566406 C 17.855469 30.5 17.734375 30.457031 17.605469 30.441406 C 17.480469 30.425781 17.351562 30.433594 17.226562 30.46875 C 17.101562 30.503906 16.984375 30.5625 16.882812 30.640625 C 16.785156 30.722656 16.699219 30.824219 16.640625 30.9375 C 16.550781 31.164062 16.550781 31.414062 16.640625 31.640625 L 17.34375 34.570312 L 16.40625 33.984375 L 15.117188 29.296875 C 15.0625 29.070312 14.921875 28.871094 14.726562 28.738281 C 14.53125 28.609375 14.292969 28.558594 14.0625 28.59375 C 13.9375 28.628906 13.820312 28.6875 13.71875 28.765625 C 13.621094 28.847656 13.535156 28.949219 13.476562 29.0625 C 13.347656 29.273438 13.304688 29.523438 13.359375 29.765625 L 14.179688 32.695312 L 13.242188 32.109375 L 11.953125 27.421875 C 11.898438 27.214844 11.777344 27.035156 11.609375 26.90625 C 11.4375 26.777344 11.230469 26.710938 11.015625 26.71875 Z M 32.109375 37.96875 L 46.40625 50.507812 C 48.398438 48.984375 50.15625 46.992188 51.5625 44.882812 Z M 32.109375 37.96875 "/>
<path fill-rule="nonzero" fill="rgb(100%, 85.490196%, 26.666667%)" fill-opacity="1" d="M 30 56.25 L 27.539062 52.851562 L 23.90625 55.078125 L 22.96875 50.976562 L 18.75 51.5625 L 19.453125 47.460938 L 15.234375 46.40625 L 17.460938 42.773438 L 14.0625 40.3125 L 17.460938 37.851562 L 15.234375 34.21875 L 19.453125 33.28125 L 18.75 29.0625 L 22.96875 29.765625 L 23.90625 25.546875 L 27.539062 27.773438 L 30 24.375 L 32.460938 27.773438 L 36.09375 25.546875 L 37.03125 29.765625 L 41.25 29.0625 L 40.546875 33.28125 L 44.765625 34.21875 L 42.539062 37.851562 L 45.9375 40.3125 L 42.539062 42.773438 L 44.765625 46.40625 L 40.546875 47.34375 L 41.25 51.5625 L 37.03125 50.976562 L 36.09375 55.078125 L 32.460938 52.851562 Z M 30 56.25 "/>
<path fill-rule="nonzero" fill="rgb(100%, 85.490196%, 26.666667%)" fill-opacity="1" d="M 35.09375 10.621094 C 35.140625 10.785156 34.96875 10.949219 34.804688 10.886719 C 33.820312 10.523438 32.636719 10.9375 32.152344 11.890625 C 32.574219 11.914062 32.917969 12.273438 32.921875 12.695312 C 32.921875 13.117188 32.585938 13.480469 32.164062 13.511719 C 32.476562 14.089844 33.113281 14.445312 33.761719 14.46875 C 33.953125 14.476562 34.035156 14.722656 33.898438 14.851562 C 33.148438 15.535156 32 15.804688 31.183594 15.089844 C 31.160156 15.648438 30.730469 17.109375 30 17.109375 C 29.269531 17.109375 28.839844 15.648438 28.816406 15.089844 C 27.996094 15.804688 26.851562 15.535156 26.101562 14.851562 C 25.960938 14.71875 26.054688 14.476562 26.238281 14.46875 C 26.886719 14.445312 27.523438 14.089844 27.835938 13.511719 C 27.414062 13.480469 27.078125 13.117188 27.078125 12.695312 C 27.082031 12.273438 27.421875 11.914062 27.84375 11.890625 C 27.363281 10.9375 26.179688 10.523438 25.195312 10.886719 C 25.027344 10.949219 24.859375 10.785156 24.90625 10.621094 C 25.410156 8.847656 27.261719 8.484375 28.511719 9.773438 C 28.238281 8.285156 28.277344 6.082031 29.914062 5.40625 C 29.96875 5.386719 30.027344 5.386719 30.082031 5.40625 C 31.722656 6.074219 31.761719 8.289062 31.488281 9.773438 C 32.738281 8.480469 34.589844 8.847656 35.09375 10.621094 Z M 35.09375 10.621094 "/>
<path fill-rule="nonzero" fill="rgb(100%, 85.490196%, 26.666667%)" fill-opacity="1" d="M 49.410156 10.621094 C 49.457031 10.785156 49.285156 10.949219 49.121094 10.886719 C 48.136719 10.523438 46.953125 10.9375 46.46875 11.890625 C 46.890625 11.914062 47.234375 12.273438 47.234375 12.695312 C 47.238281 13.117188 46.902344 13.480469 46.480469 13.511719 C 46.789062 14.089844 47.425781 14.445312 48.078125 14.46875 C 48.269531 14.476562 48.351562 14.722656 48.214844 14.851562 C 47.464844 15.535156 46.316406 15.804688 45.5 15.089844 C 45.476562 15.648438 45.042969 17.109375 44.316406 17.109375 C 43.585938 17.109375 43.15625 15.648438 43.128906 15.089844 C 42.3125 15.804688 41.167969 15.535156 40.417969 14.851562 C 40.273438 14.71875 40.367188 14.476562 40.554688 14.46875 C 41.203125 14.445312 41.839844 14.089844 42.148438 13.511719 C 41.726562 13.480469 41.390625 13.117188 41.394531 12.695312 C 41.398438 12.273438 41.738281 11.914062 42.160156 11.890625 C 41.679688 10.9375 40.496094 10.523438 39.511719 10.886719 C 39.34375 10.949219 39.175781 10.785156 39.222656 10.621094 C 39.726562 8.847656 41.574219 8.484375 42.828125 9.773438 C 42.554688 8.285156 42.59375 6.082031 44.230469 5.40625 C 44.285156 5.386719 44.34375 5.386719 44.398438 5.40625 C 46.039062 6.074219 46.074219 8.289062 45.800781 9.773438 C 47.054688 8.480469 48.902344 8.847656 49.410156 10.621094 Z M 49.410156 10.621094 "/>
<path fill-rule="nonzero" fill="rgb(100%, 85.490196%, 26.666667%)" fill-opacity="1" d="M 20.777344 10.621094 C 20.824219 10.785156 20.65625 10.949219 20.488281 10.886719 C 19.503906 10.523438 18.320312 10.9375 17.839844 11.890625 C 18.261719 11.914062 18.601562 12.273438 18.605469 12.695312 C 18.609375 13.117188 18.273438 13.480469 17.851562 13.511719 C 18.160156 14.089844 18.796875 14.445312 19.445312 14.46875 C 19.636719 14.476562 19.71875 14.722656 19.582031 14.851562 C 18.832031 15.535156 17.6875 15.804688 16.871094 15.089844 C 16.84375 15.648438 16.414062 17.109375 15.683594 17.109375 C 14.957031 17.109375 14.523438 15.648438 14.5 15.089844 C 13.683594 15.804688 12.535156 15.535156 11.785156 14.851562 C 11.644531 14.71875 11.738281 14.476562 11.921875 14.46875 C 12.574219 14.445312 13.210938 14.089844 13.519531 13.511719 C 13.097656 13.480469 12.761719 13.117188 12.765625 12.695312 C 12.769531 12.273438 13.109375 11.914062 13.53125 11.890625 C 13.046875 10.9375 11.863281 10.523438 10.878906 10.886719 C 10.714844 10.949219 10.542969 10.785156 10.589844 10.621094 C 11.097656 8.847656 12.945312 8.484375 14.199219 9.773438 C 13.925781 8.285156 13.960938 6.082031 15.601562 5.40625 C 15.65625 5.386719 15.714844 5.386719 15.769531 5.40625 C 17.410156 6.074219 17.445312 8.289062 17.171875 9.773438 C 18.425781 8.480469 20.273438 8.847656 20.777344 10.621094 Z M 20.777344 10.621094 "/>
</svg>
