<?xml version="1.0" encoding="UTF-8"?>
<svg xmlns="http://www.w3.org/2000/svg" xmlns:xlink="http://www.w3.org/1999/xlink" width="20" height="20" viewBox="0 0 20 20">
<path fill-rule="nonzero" fill="rgb(20%, 20%, 20%)" fill-opacity="1" d="M 18.835938 14.6875 C 19.578125 13.289062 20 11.695312 20 10 C 20 8.304688 19.578125 6.710938 18.835938 5.3125 L 1.164062 5.3125 C 0.421875 6.710938 0 8.304688 0 10 C 0 11.695312 0.421875 13.289062 1.164062 14.6875 Z M 18.835938 14.6875 "/>
<path fill-rule="nonzero" fill="rgb(20%, 20%, 20%)" fill-opacity="1" d="M 19.394531 13.4375 C 17.992188 17.265625 14.316406 20 10 20 C 5.683594 20 2.007812 17.265625 0.605469 13.4375 Z M 19.394531 13.4375 "/>
<path fill-rule="nonzero" fill="rgb(0%, 32.156863%, 70.588235%)" fill-opacity="1" d="M 19.394531 6.5625 L 0.605469 6.5625 C 2.007812 2.734375 5.683594 0 10 0 C 14.316406 0 17.992188 2.734375 19.394531 6.5625 Z M 19.394531 6.5625 "/>
<path fill-rule="nonzero" fill="rgb(42.745098%, 64.705882%, 26.666667%)" fill-opacity="1" d="M 3.671875 8.90625 C 3.644531 8.902344 3.621094 8.902344 3.59375 8.90625 C 3.550781 8.917969 3.511719 8.9375 3.480469 8.964844 C 3.445312 8.992188 3.417969 9.023438 3.398438 9.0625 C 3.355469 9.132812 3.339844 9.214844 3.359375 9.296875 L 3.632812 10.273438 L 2.109375 9.375 C 2.074219 9.355469 2.035156 9.339844 1.992188 9.335938 C 1.953125 9.328125 1.910156 9.332031 1.871094 9.34375 C 1.828125 9.355469 1.792969 9.375 1.761719 9.398438 C 1.726562 9.425781 1.699219 9.457031 1.679688 9.492188 C 1.660156 9.527344 1.644531 9.566406 1.640625 9.609375 C 1.632812 9.648438 1.636719 9.691406 1.648438 9.730469 C 1.660156 9.773438 1.679688 9.808594 1.703125 9.839844 C 1.730469 9.875 1.761719 9.902344 1.796875 9.921875 L 3.320312 10.820312 L 2.34375 11.054688 C 2.300781 11.066406 2.261719 11.085938 2.230469 11.113281 C 2.195312 11.140625 2.167969 11.171875 2.148438 11.210938 C 2.105469 11.28125 2.089844 11.363281 2.109375 11.445312 C 2.117188 11.488281 2.136719 11.527344 2.160156 11.5625 C 2.1875 11.597656 2.21875 11.625 2.253906 11.648438 C 2.289062 11.667969 2.332031 11.683594 2.375 11.6875 C 2.414062 11.695312 2.457031 11.691406 2.5 11.679688 L 4.101562 11.25 L 4.414062 11.445312 L 3.398438 11.679688 C 3.328125 11.710938 3.273438 11.765625 3.242188 11.835938 C 3.199219 11.90625 3.183594 11.988281 3.203125 12.070312 C 3.210938 12.113281 3.230469 12.152344 3.253906 12.1875 C 3.28125 12.222656 3.3125 12.25 3.347656 12.273438 C 3.382812 12.292969 3.425781 12.308594 3.46875 12.3125 C 3.507812 12.320312 3.550781 12.316406 3.59375 12.304688 L 5.15625 11.875 L 5.46875 12.070312 L 4.492188 12.304688 C 4.421875 12.335938 4.367188 12.390625 4.335938 12.460938 C 4.292969 12.53125 4.277344 12.613281 4.296875 12.695312 C 4.304688 12.738281 4.324219 12.777344 4.347656 12.8125 C 4.375 12.847656 4.40625 12.875 4.441406 12.898438 C 4.476562 12.917969 4.519531 12.933594 4.5625 12.9375 C 4.601562 12.945312 4.644531 12.941406 4.6875 12.929688 L 6.25 12.5 L 7.226562 13.046875 C 7.261719 13.066406 7.300781 13.082031 7.34375 13.085938 C 7.382812 13.09375 7.425781 13.089844 7.464844 13.078125 C 7.507812 13.066406 7.542969 13.046875 7.574219 13.023438 C 7.609375 12.996094 7.636719 12.964844 7.65625 12.929688 C 7.6875 12.859375 7.691406 12.785156 7.671875 12.710938 C 7.648438 12.640625 7.601562 12.578125 7.539062 12.539062 L 6.5625 11.953125 L 6.132812 10.390625 C 6.125 10.347656 6.105469 10.308594 6.082031 10.273438 C 6.054688 10.238281 6.023438 10.210938 5.988281 10.1875 C 5.953125 10.167969 5.910156 10.152344 5.867188 10.148438 C 5.828125 10.140625 5.785156 10.144531 5.742188 10.15625 C 5.699219 10.167969 5.660156 10.1875 5.628906 10.214844 C 5.59375 10.242188 5.566406 10.273438 5.546875 10.3125 C 5.515625 10.386719 5.515625 10.472656 5.546875 10.546875 L 5.78125 11.523438 L 5.46875 11.328125 L 5.039062 9.765625 C 5.019531 9.691406 4.972656 9.625 4.910156 9.578125 C 4.84375 9.535156 4.765625 9.519531 4.6875 9.53125 C 4.644531 9.542969 4.605469 9.5625 4.574219 9.589844 C 4.539062 9.617188 4.511719 9.648438 4.492188 9.6875 C 4.449219 9.757812 4.433594 9.839844 4.453125 9.921875 L 4.726562 10.898438 L 4.414062 10.703125 L 3.984375 9.140625 C 3.964844 9.070312 3.925781 9.011719 3.871094 8.96875 C 3.8125 8.925781 3.742188 8.902344 3.671875 8.90625 Z M 10.703125 12.65625 L 15.46875 16.835938 C 16.132812 16.328125 16.71875 15.664062 17.1875 14.960938 Z M 10.703125 12.65625 "/>
<path fill-rule="nonzero" fill="rgb(100%, 85.490196%, 26.666667%)" fill-opacity="1" d="M 10 18.75 L 9.179688 17.617188 L 7.96875 18.359375 L 7.65625 16.992188 L 6.25 17.1875 L 6.484375 15.820312 L 5.078125 15.46875 L 5.820312 14.257812 L 4.6875 13.4375 L 5.820312 12.617188 L 5.078125 11.40625 L 6.484375 11.09375 L 6.25 9.6875 L 7.65625 9.921875 L 7.96875 8.515625 L 9.179688 9.257812 L 10 8.125 L 10.820312 9.257812 L 12.03125 8.515625 L 12.34375 9.921875 L 13.75 9.6875 L 13.515625 11.09375 L 14.921875 11.40625 L 14.179688 12.617188 L 15.3125 13.4375 L 14.179688 14.257812 L 14.921875 15.46875 L 13.515625 15.78125 L 13.75 17.1875 L 12.34375 16.992188 L 12.03125 18.359375 L 10.820312 17.617188 Z M 10 18.75 "/>
<path fill-rule="nonzero" fill="rgb(100%, 85.490196%, 26.666667%)" fill-opacity="1" d="M 11.699219 3.539062 C 11.714844 3.59375 11.65625 3.648438 11.601562 3.628906 C 11.273438 3.507812 10.878906 3.644531 10.71875 3.964844 C 10.859375 3.972656 10.972656 4.089844 10.972656 4.230469 C 10.972656 4.371094 10.863281 4.492188 10.722656 4.503906 C 10.824219 4.695312 11.039062 4.816406 11.253906 4.824219 C 11.316406 4.824219 11.34375 4.90625 11.300781 4.949219 C 11.050781 5.179688 10.667969 5.269531 10.394531 5.03125 C 10.386719 5.214844 10.242188 5.703125 10 5.703125 C 9.757812 5.703125 9.613281 5.214844 9.605469 5.03125 C 9.332031 5.269531 8.949219 5.179688 8.699219 4.949219 C 8.652344 4.90625 8.683594 4.824219 8.746094 4.824219 C 8.960938 4.816406 9.175781 4.695312 9.277344 4.503906 C 9.136719 4.492188 9.027344 4.371094 9.027344 4.230469 C 9.027344 4.089844 9.140625 3.972656 9.28125 3.964844 C 9.121094 3.644531 8.726562 3.507812 8.398438 3.628906 C 8.34375 3.648438 8.285156 3.59375 8.300781 3.539062 C 8.46875 2.949219 9.085938 2.828125 9.503906 3.257812 C 9.414062 2.761719 9.425781 2.027344 9.972656 1.800781 C 9.988281 1.796875 10.007812 1.796875 10.027344 1.800781 C 10.574219 2.023438 10.585938 2.761719 10.496094 3.257812 C 10.914062 2.828125 11.53125 2.949219 11.699219 3.539062 Z M 11.699219 3.539062 "/>
<path fill-rule="nonzero" fill="rgb(100%, 85.490196%, 26.666667%)" fill-opacity="1" d="M 16.46875 3.539062 C 16.484375 3.59375 16.429688 3.648438 16.375 3.628906 C 16.046875 3.507812 15.652344 3.644531 15.488281 3.964844 C 15.628906 3.972656 15.746094 4.089844 15.746094 4.230469 C 15.746094 4.371094 15.632812 4.492188 15.492188 4.503906 C 15.597656 4.695312 15.808594 4.816406 16.027344 4.824219 C 16.089844 4.824219 16.117188 4.90625 16.070312 4.949219 C 15.820312 5.179688 15.4375 5.269531 15.167969 5.03125 C 15.160156 5.214844 15.015625 5.703125 14.773438 5.703125 C 14.527344 5.703125 14.386719 5.214844 14.375 5.03125 C 14.105469 5.269531 13.722656 5.179688 13.472656 4.949219 C 13.425781 4.90625 13.457031 4.824219 13.519531 4.824219 C 13.734375 4.816406 13.945312 4.695312 14.050781 4.503906 C 13.910156 4.492188 13.796875 4.371094 13.796875 4.230469 C 13.800781 4.089844 13.914062 3.972656 14.054688 3.964844 C 13.894531 3.644531 13.5 3.507812 13.171875 3.628906 C 13.113281 3.648438 13.058594 3.59375 13.074219 3.539062 C 13.242188 2.949219 13.859375 2.828125 14.277344 3.257812 C 14.183594 2.761719 14.199219 2.027344 14.742188 1.800781 C 14.761719 1.796875 14.78125 1.796875 14.800781 1.800781 C 15.347656 2.023438 15.359375 2.761719 15.265625 3.257812 C 15.683594 2.828125 16.300781 2.949219 16.46875 3.539062 Z M 16.46875 3.539062 "/>
<path fill-rule="nonzero" fill="rgb(100%, 85.490196%, 26.666667%)" fill-opacity="1" d="M 6.925781 3.539062 C 6.941406 3.59375 6.886719 3.648438 6.828125 3.628906 C 6.5 3.507812 6.105469 3.644531 5.945312 3.964844 C 6.085938 3.972656 6.199219 4.089844 6.203125 4.230469 C 6.203125 4.371094 6.089844 4.492188 5.949219 4.503906 C 6.054688 4.695312 6.265625 4.816406 6.480469 4.824219 C 6.546875 4.824219 6.574219 4.90625 6.527344 4.949219 C 6.277344 5.179688 5.894531 5.269531 5.625 5.03125 C 5.613281 5.214844 5.472656 5.703125 5.226562 5.703125 C 4.984375 5.703125 4.839844 5.214844 4.832031 5.03125 C 4.5625 5.269531 4.179688 5.179688 3.929688 4.949219 C 3.882812 4.90625 3.914062 4.824219 3.972656 4.824219 C 4.191406 4.816406 4.402344 4.695312 4.507812 4.503906 C 4.367188 4.492188 4.253906 4.371094 4.253906 4.230469 C 4.257812 4.089844 4.371094 3.972656 4.511719 3.964844 C 4.347656 3.644531 3.953125 3.507812 3.625 3.628906 C 3.570312 3.648438 3.515625 3.59375 3.53125 3.539062 C 3.699219 2.949219 4.316406 2.828125 4.734375 3.257812 C 4.640625 2.761719 4.652344 2.027344 5.199219 1.800781 C 5.21875 1.796875 5.238281 1.796875 5.257812 1.800781 C 5.804688 2.023438 5.816406 2.761719 5.722656 3.257812 C 6.140625 2.828125 6.757812 2.949219 6.925781 3.539062 Z M 6.925781 3.539062 "/>
</svg>
