<?xml version="1.0" encoding="UTF-8"?>
<svg xmlns="http://www.w3.org/2000/svg" xmlns:xlink="http://www.w3.org/1999/xlink" width="40" height="40" viewBox="0 0 40 40">
<path fill-rule="nonzero" fill="rgb(0%, 32.156863%, 70.588235%)" fill-opacity="1" d="M 20 40 C 31.046875 40 40 31.046875 40 20 C 40 8.953125 31.046875 0 20 0 C 8.953125 0 0 8.953125 0 20 C 0 31.046875 8.953125 40 20 40 Z M 20 40 "/>
<path fill-rule="nonzero" fill="rgb(93.333333%, 93.333333%, 93.333333%)" fill-opacity="1" d="M 39.371094 25 C 39.78125 23.402344 40 21.726562 40 20 C 40 18.273438 39.78125 16.597656 39.371094 15 L 17.5 15 L 17.5 0.15625 C 13.742188 0.625 10.3125 2.132812 7.5 4.386719 L 7.5 15 L 0.628906 15 C 0.21875 16.597656 0 18.273438 0 20 C 0 21.726562 0.21875 23.402344 0.628906 25 L 7.5 25 L 7.5 35.613281 C 10.3125 37.867188 13.742188 39.375 17.5 39.84375 L 17.5 25 Z M 39.371094 25 "/>
<path fill-rule="nonzero" fill="rgb(84.705882%, 0%, 15.294118%)" fill-opacity="1" d="M 39.84375 22.5 C 39.949219 21.679688 40 20.847656 40 20 C 40 19.152344 39.949219 18.320312 39.84375 17.5 L 15 17.5 L 15 0.628906 C 13.226562 1.085938 11.546875 1.78125 10 2.675781 L 10 17.5 L 0.15625 17.5 C 0.0507812 18.320312 0 19.152344 0 20 C 0 20.847656 0.0507812 21.679688 0.15625 22.5 L 10 22.5 L 10 37.324219 C 11.546875 38.21875 13.226562 38.914062 15 39.371094 L 15 22.5 Z M 39.84375 22.5 "/>
</svg>
