<?xml version="1.0" encoding="UTF-8"?>
<svg xmlns="http://www.w3.org/2000/svg" xmlns:xlink="http://www.w3.org/1999/xlink" width="828px" height="414px" viewBox="0 0 828 414" version="1.1">
<g id="surface1">
<rect x="0" y="0" width="828" height="414" style="fill:rgb(85.490197%,0%,0%);fill-opacity:1;stroke:none;"/>
<path style=" stroke:none;fill-rule:nonzero;fill:rgb(100%,100%,100%);fill-opacity:1;" d="M 828 0 L 0 0 L 0 283.664062 L 828 283.664062 Z M 828 0 "/>
<path style=" stroke:none;fill-rule:nonzero;fill:rgb(13.725491%,62.352943%,25.098041%);fill-opacity:1;" d="M 828 0 L 0 0 L 0 127.777344 L 828 127.777344 Z M 828 0 "/>
<path style=" stroke:none;fill-rule:nonzero;fill:rgb(100%,100%,100%);fill-opacity:1;" d="M 29.441406 108.539062 L 29.441406 115.894531 L 40.480469 115.894531 L 40.480469 112.21875 L 33.121094 112.21875 L 33.121094 108.539062 L 44.160156 108.539062 L 44.160156 119.570312 L 25.761719 119.570312 L 25.761719 112.21875 L 14.71875 112.21875 L 14.71875 119.570312 L 11.039062 119.570312 L 11.039062 108.539062 Z M 22.078125 115.894531 L 22.078125 119.574219 L 18.398438 119.574219 L 18.398438 115.894531 L 22.082031 115.894531 Z M 66.238281 101.1875 L 66.238281 115.894531 L 69.921875 115.894531 L 69.921875 101.1875 L 73.601562 101.1875 L 73.601562 115.894531 L 77.28125 115.894531 L 77.28125 101.1875 L 80.960938 101.1875 L 80.960938 119.574219 L 62.5625 119.574219 L 62.5625 112.21875 L 51.523438 112.21875 L 51.523438 115.894531 L 58.882812 115.894531 L 58.882812 119.574219 L 47.84375 119.574219 L 47.84375 108.539062 L 62.5625 108.539062 L 62.5625 101.1875 L 66.242188 101.1875 Z M 58.878906 101.1875 L 58.878906 104.863281 L 11.039062 104.863281 L 11.039062 101.1875 Z M 58.878906 101.1875 "/>
<path style=" stroke:none;fill-rule:nonzero;fill:rgb(100%,100%,100%);fill-opacity:1;" d="M 29.441406 299.226562 L 29.441406 306.582031 L 40.480469 306.582031 L 40.480469 302.90625 L 33.121094 302.90625 L 33.121094 299.226562 L 44.160156 299.226562 L 44.160156 310.257812 L 25.761719 310.257812 L 25.761719 302.90625 L 14.71875 302.90625 L 14.71875 310.257812 L 11.039062 310.257812 L 11.039062 299.226562 Z M 22.078125 306.582031 L 22.078125 310.257812 L 18.398438 310.257812 L 18.398438 306.582031 L 22.082031 306.582031 Z M 66.238281 291.875 L 66.238281 306.582031 L 69.921875 306.582031 L 69.921875 291.875 L 73.601562 291.875 L 73.601562 306.582031 L 77.28125 306.582031 L 77.28125 291.875 L 80.960938 291.875 L 80.960938 310.257812 L 62.5625 310.257812 L 62.5625 302.90625 L 51.523438 302.90625 L 51.523438 306.582031 L 58.882812 306.582031 L 58.882812 310.257812 L 47.84375 310.257812 L 47.84375 299.226562 L 62.5625 299.226562 L 62.5625 291.875 L 66.242188 291.875 Z M 58.878906 291.875 L 58.878906 295.550781 L 11.039062 295.550781 L 11.039062 291.875 Z M 103.039062 108.539062 L 103.039062 115.894531 L 114.078125 115.894531 L 114.078125 112.21875 L 106.71875 112.21875 L 106.71875 108.539062 L 117.761719 108.539062 L 117.761719 119.570312 L 99.359375 119.570312 L 99.359375 112.21875 L 88.320312 112.21875 L 88.320312 119.570312 L 84.640625 119.570312 L 84.640625 108.539062 Z M 95.679688 115.894531 L 95.679688 119.574219 L 92 119.574219 L 92 115.894531 L 95.683594 115.894531 Z M 139.839844 101.1875 L 139.839844 115.894531 L 143.519531 115.894531 L 143.519531 101.1875 L 147.199219 101.1875 L 147.199219 115.894531 L 150.882812 115.894531 L 150.882812 101.1875 L 154.5625 101.1875 L 154.5625 119.574219 L 136.160156 119.574219 L 136.160156 112.21875 L 125.121094 112.21875 L 125.121094 115.894531 L 132.480469 115.894531 L 132.480469 119.574219 L 121.441406 119.574219 L 121.441406 108.539062 L 136.160156 108.539062 L 136.160156 101.1875 L 139.84375 101.1875 Z M 132.480469 101.1875 L 132.480469 104.863281 L 84.640625 104.863281 L 84.640625 101.1875 Z M 132.480469 101.1875 "/>
<path style=" stroke:none;fill-rule:nonzero;fill:rgb(100%,100%,100%);fill-opacity:1;" d="M 103.039062 299.226562 L 103.039062 306.582031 L 114.078125 306.582031 L 114.078125 302.90625 L 106.71875 302.90625 L 106.71875 299.226562 L 117.761719 299.226562 L 117.761719 310.257812 L 99.359375 310.257812 L 99.359375 302.90625 L 88.320312 302.90625 L 88.320312 310.257812 L 84.640625 310.257812 L 84.640625 299.226562 Z M 95.679688 306.582031 L 95.679688 310.257812 L 92 310.257812 L 92 306.582031 L 95.683594 306.582031 Z M 139.839844 291.875 L 139.839844 306.582031 L 143.519531 306.582031 L 143.519531 291.875 L 147.199219 291.875 L 147.199219 306.582031 L 150.882812 306.582031 L 150.882812 291.875 L 154.5625 291.875 L 154.5625 310.257812 L 136.160156 310.257812 L 136.160156 302.90625 L 125.121094 302.90625 L 125.121094 306.582031 L 132.480469 306.582031 L 132.480469 310.257812 L 121.441406 310.257812 L 121.441406 299.226562 L 136.160156 299.226562 L 136.160156 291.875 L 139.84375 291.875 Z M 132.480469 291.875 L 132.480469 295.550781 L 84.640625 295.550781 L 84.640625 291.875 Z M 176.640625 108.539062 L 176.640625 115.894531 L 187.679688 115.894531 L 187.679688 112.21875 L 180.320312 112.21875 L 180.320312 108.539062 L 191.359375 108.539062 L 191.359375 119.570312 L 172.960938 119.570312 L 172.960938 112.21875 L 161.921875 112.21875 L 161.921875 119.570312 L 158.238281 119.570312 L 158.238281 108.539062 Z M 169.28125 115.894531 L 169.28125 119.574219 L 165.601562 119.574219 L 165.601562 115.894531 Z M 213.441406 101.1875 L 213.441406 115.894531 L 217.121094 115.894531 L 217.121094 101.1875 L 220.800781 101.1875 L 220.800781 115.894531 L 224.480469 115.894531 L 224.480469 101.1875 L 228.160156 101.1875 L 228.160156 119.574219 L 209.761719 119.574219 L 209.761719 112.21875 L 198.71875 112.21875 L 198.71875 115.894531 L 206.078125 115.894531 L 206.078125 119.574219 L 195.039062 119.574219 L 195.039062 108.539062 L 209.761719 108.539062 L 209.761719 101.1875 Z M 206.078125 101.1875 L 206.078125 104.863281 L 158.238281 104.863281 L 158.238281 101.1875 Z M 206.078125 101.1875 "/>
<path style=" stroke:none;fill-rule:nonzero;fill:rgb(100%,100%,100%);fill-opacity:1;" d="M 176.640625 299.226562 L 176.640625 306.582031 L 187.679688 306.582031 L 187.679688 302.90625 L 180.320312 302.90625 L 180.320312 299.226562 L 191.359375 299.226562 L 191.359375 310.257812 L 172.960938 310.257812 L 172.960938 302.90625 L 161.921875 302.90625 L 161.921875 310.257812 L 158.238281 310.257812 L 158.238281 299.226562 Z M 169.28125 306.582031 L 169.28125 310.257812 L 165.601562 310.257812 L 165.601562 306.582031 Z M 213.441406 291.875 L 213.441406 306.582031 L 217.121094 306.582031 L 217.121094 291.875 L 220.800781 291.875 L 220.800781 306.582031 L 224.480469 306.582031 L 224.480469 291.875 L 228.160156 291.875 L 228.160156 310.257812 L 209.761719 310.257812 L 209.761719 302.90625 L 198.71875 302.90625 L 198.71875 306.582031 L 206.078125 306.582031 L 206.078125 310.257812 L 195.039062 310.257812 L 195.039062 299.226562 L 209.761719 299.226562 L 209.761719 291.875 Z M 206.078125 291.875 L 206.078125 295.550781 L 158.238281 295.550781 L 158.238281 291.875 Z M 206.078125 291.875 "/>
<path style=" stroke:none;fill-rule:nonzero;fill:rgb(100%,100%,100%);fill-opacity:1;" d="M 323.839844 108.539062 L 323.839844 115.894531 L 334.878906 115.894531 L 334.878906 112.21875 L 327.519531 112.21875 L 327.519531 108.539062 L 338.558594 108.539062 L 338.558594 119.570312 L 320.160156 119.570312 L 320.160156 112.21875 L 309.121094 112.21875 L 309.121094 119.570312 L 305.441406 119.570312 L 305.441406 108.539062 Z M 316.480469 115.894531 L 316.480469 119.574219 L 312.800781 119.574219 L 312.800781 115.894531 Z M 360.640625 101.1875 L 360.640625 115.894531 L 364.320312 115.894531 L 364.320312 101.1875 L 368 101.1875 L 368 115.894531 L 371.679688 115.894531 L 371.679688 101.1875 L 375.359375 101.1875 L 375.359375 119.574219 L 356.960938 119.574219 L 356.960938 112.21875 L 345.921875 112.21875 L 345.921875 115.894531 L 353.28125 115.894531 L 353.28125 119.574219 L 342.238281 119.574219 L 342.238281 108.539062 L 356.960938 108.539062 L 356.960938 101.1875 Z M 353.28125 101.1875 L 353.28125 104.863281 L 305.441406 104.863281 L 305.441406 101.1875 Z M 353.28125 101.1875 "/>
<path style=" stroke:none;fill-rule:nonzero;fill:rgb(100%,100%,100%);fill-opacity:1;" d="M 323.839844 299.226562 L 323.839844 306.582031 L 334.878906 306.582031 L 334.878906 302.90625 L 327.519531 302.90625 L 327.519531 299.226562 L 338.558594 299.226562 L 338.558594 310.257812 L 320.160156 310.257812 L 320.160156 302.90625 L 309.121094 302.90625 L 309.121094 310.257812 L 305.441406 310.257812 L 305.441406 299.226562 Z M 316.480469 306.582031 L 316.480469 310.257812 L 312.800781 310.257812 L 312.800781 306.582031 Z M 360.640625 291.875 L 360.640625 306.582031 L 364.320312 306.582031 L 364.320312 291.875 L 368 291.875 L 368 306.582031 L 371.679688 306.582031 L 371.679688 291.875 L 375.359375 291.875 L 375.359375 310.257812 L 356.960938 310.257812 L 356.960938 302.90625 L 345.921875 302.90625 L 345.921875 306.582031 L 353.28125 306.582031 L 353.28125 310.257812 L 342.238281 310.257812 L 342.238281 299.226562 L 356.960938 299.226562 L 356.960938 291.875 Z M 353.28125 291.875 L 353.28125 295.550781 L 305.441406 295.550781 L 305.441406 291.875 Z M 353.28125 291.875 "/>
<path style=" stroke:none;fill-rule:nonzero;fill:rgb(100%,100%,100%);fill-opacity:1;" d="M 471.039062 108.539062 L 471.039062 115.894531 L 482.078125 115.894531 L 482.078125 112.21875 L 474.71875 112.21875 L 474.71875 108.539062 L 485.761719 108.539062 L 485.761719 119.570312 L 467.359375 119.570312 L 467.359375 112.21875 L 456.320312 112.21875 L 456.320312 119.570312 L 452.640625 119.570312 L 452.640625 108.539062 Z M 463.679688 115.894531 L 463.679688 119.574219 L 460 119.574219 L 460 115.894531 Z M 507.839844 101.1875 L 507.839844 115.894531 L 511.519531 115.894531 L 511.519531 101.1875 L 515.199219 101.1875 L 515.199219 115.894531 L 518.878906 115.894531 L 518.878906 101.1875 L 522.558594 101.1875 L 522.558594 119.574219 L 504.160156 119.574219 L 504.160156 112.21875 L 493.121094 112.21875 L 493.121094 115.894531 L 500.480469 115.894531 L 500.480469 119.574219 L 489.441406 119.574219 L 489.441406 108.539062 L 504.160156 108.539062 L 504.160156 101.1875 Z M 500.480469 101.1875 L 500.480469 104.863281 L 452.640625 104.863281 L 452.640625 101.1875 Z M 500.480469 101.1875 "/>
<path style=" stroke:none;fill-rule:nonzero;fill:rgb(100%,100%,100%);fill-opacity:1;" d="M 471.039062 299.226562 L 471.039062 306.582031 L 482.078125 306.582031 L 482.078125 302.90625 L 474.71875 302.90625 L 474.71875 299.226562 L 485.761719 299.226562 L 485.761719 310.257812 L 467.359375 310.257812 L 467.359375 302.90625 L 456.320312 302.90625 L 456.320312 310.257812 L 452.640625 310.257812 L 452.640625 299.226562 Z M 463.679688 306.582031 L 463.679688 310.257812 L 460 310.257812 L 460 306.582031 Z M 507.839844 291.875 L 507.839844 306.582031 L 511.519531 306.582031 L 511.519531 291.875 L 515.199219 291.875 L 515.199219 306.582031 L 518.878906 306.582031 L 518.878906 291.875 L 522.558594 291.875 L 522.558594 310.257812 L 504.160156 310.257812 L 504.160156 302.90625 L 493.121094 302.90625 L 493.121094 306.582031 L 500.480469 306.582031 L 500.480469 310.257812 L 489.441406 310.257812 L 489.441406 299.226562 L 504.160156 299.226562 L 504.160156 291.875 Z M 500.480469 291.875 L 500.480469 295.550781 L 452.640625 295.550781 L 452.640625 291.875 Z M 500.480469 291.875 "/>
<path style=" stroke:none;fill-rule:nonzero;fill:rgb(100%,100%,100%);fill-opacity:1;" d="M 691.839844 108.539062 L 691.839844 115.894531 L 702.878906 115.894531 L 702.878906 112.21875 L 695.519531 112.21875 L 695.519531 108.539062 L 706.558594 108.539062 L 706.558594 119.570312 L 688.160156 119.570312 L 688.160156 112.21875 L 677.121094 112.21875 L 677.121094 119.570312 L 673.441406 119.570312 L 673.441406 108.539062 Z M 684.480469 115.894531 L 684.480469 119.574219 L 680.800781 119.574219 L 680.800781 115.894531 Z M 728.640625 101.1875 L 728.640625 115.894531 L 732.320312 115.894531 L 732.320312 101.1875 L 736 101.1875 L 736 115.894531 L 739.679688 115.894531 L 739.679688 101.1875 L 743.359375 101.1875 L 743.359375 119.574219 L 724.960938 119.574219 L 724.960938 112.21875 L 713.921875 112.21875 L 713.921875 115.894531 L 721.28125 115.894531 L 721.28125 119.574219 L 710.238281 119.574219 L 710.238281 108.539062 L 724.960938 108.539062 L 724.960938 101.1875 Z M 721.28125 101.1875 L 721.28125 104.863281 L 673.441406 104.863281 L 673.441406 101.1875 Z M 721.28125 101.1875 "/>
<path style=" stroke:none;fill-rule:nonzero;fill:rgb(100%,100%,100%);fill-opacity:1;" d="M 691.839844 299.226562 L 691.839844 306.582031 L 702.878906 306.582031 L 702.878906 302.90625 L 695.519531 302.90625 L 695.519531 299.226562 L 706.558594 299.226562 L 706.558594 310.257812 L 688.160156 310.257812 L 688.160156 302.90625 L 677.121094 302.90625 L 677.121094 310.257812 L 673.441406 310.257812 L 673.441406 299.226562 Z M 684.480469 306.582031 L 684.480469 310.257812 L 680.800781 310.257812 L 680.800781 306.582031 Z M 728.640625 291.875 L 728.640625 306.582031 L 732.320312 306.582031 L 732.320312 291.875 L 736 291.875 L 736 306.582031 L 739.679688 306.582031 L 739.679688 291.875 L 743.359375 291.875 L 743.359375 310.257812 L 724.960938 310.257812 L 724.960938 302.90625 L 713.921875 302.90625 L 713.921875 306.582031 L 721.28125 306.582031 L 721.28125 310.257812 L 710.238281 310.257812 L 710.238281 299.226562 L 724.960938 299.226562 L 724.960938 291.875 Z M 721.28125 291.875 L 721.28125 295.550781 L 673.441406 295.550781 L 673.441406 291.875 Z M 721.28125 291.875 "/>
<path style=" stroke:none;fill-rule:nonzero;fill:rgb(85.490197%,0%,0%);fill-opacity:1;" d="M 474.070312 204.800781 C 474.074219 213.148438 471.796875 221.332031 467.484375 228.476562 C 463.171875 235.625 456.988281 241.457031 449.605469 245.347656 C 459.433594 233.054688 463.976562 217.359375 462.226562 201.71875 C 460.480469 186.078125 452.585938 171.773438 440.28125 161.949219 C 439.40625 161.253906 438.511719 160.582031 437.601562 159.933594 C 447.910156 162.089844 457.160156 167.730469 463.804688 175.902344 C 470.445312 184.070312 474.070312 194.277344 474.070312 204.800781 Z M 452.792969 202.953125 C 452.785156 211.59375 450.734375 220.113281 446.808594 227.808594 C 442.878906 235.503906 437.183594 242.160156 430.1875 247.238281 C 423.191406 252.316406 415.09375 255.671875 406.554688 257.023438 C 398.015625 258.375 389.273438 257.6875 381.050781 255.023438 C 382.019531 255.070312 382.992188 255.089844 383.964844 255.09375 C 394.867188 255.089844 405.5625 252.125 414.90625 246.511719 C 424.253906 240.898438 431.890625 232.851562 437.011719 223.226562 C 442.125 213.609375 444.527344 202.777344 443.953125 191.898438 C 443.378906 181.015625 439.851562 170.5 433.753906 161.46875 C 439.734375 166.601562 444.53125 172.96875 447.816406 180.128906 C 451.101562 187.289062 452.800781 195.074219 452.792969 202.953125 Z M 429.46875 149.9375 C 429.46875 151.753906 428.875 153.519531 427.785156 154.972656 C 426.691406 156.425781 425.152344 157.476562 423.40625 157.976562 C 421.660156 158.480469 419.796875 158.398438 418.101562 157.746094 C 416.402344 157.097656 414.964844 155.914062 414 154.375 L 412.988281 153.359375 L 414 148.4375 C 414.695312 149.941406 415.847656 151.183594 417.296875 151.988281 C 420.265625 153.640625 423.964844 153.183594 426.445312 150.859375 C 427.652344 149.726562 428.46875 148.238281 428.777344 146.613281 C 429.234375 147.660156 429.46875 148.796875 429.46875 149.941406 Z M 429.46875 149.9375 "/>
<path style=" stroke:none;fill-rule:nonzero;fill:rgb(85.490197%,0%,0%);fill-opacity:1;" d="M 421.09375 163.5 C 418.296875 162.226562 415.859375 160.28125 414 157.839844 L 411.003906 204.753906 L 414 264.832031 L 418.660156 258.417969 L 419.277344 243.628906 L 419.910156 228.234375 L 419.996094 226.261719 L 420.023438 225.527344 L 420.15625 222.324219 L 420.558594 212.632812 L 420.882812 204.808594 L 420.976562 202.546875 L 421.097656 199.664062 Z M 353.929688 204.800781 C 353.925781 213.148438 356.203125 221.332031 360.515625 228.476562 C 364.828125 235.625 371.011719 241.457031 378.394531 245.347656 C 368.566406 233.054688 364.023438 217.359375 365.773438 201.71875 C 367.519531 186.078125 375.414062 171.773438 387.71875 161.949219 C 388.59375 161.253906 389.488281 160.582031 390.398438 159.933594 C 380.089844 162.089844 370.839844 167.730469 364.195312 175.902344 C 357.554688 184.070312 353.929688 194.277344 353.929688 204.800781 Z M 353.929688 204.800781 "/>
<path style=" stroke:none;fill-rule:nonzero;fill:rgb(85.490197%,0%,0%);fill-opacity:1;" d="M 375.207031 202.953125 C 375.214844 211.59375 377.265625 220.113281 381.191406 227.808594 C 385.121094 235.503906 390.816406 242.160156 397.8125 247.238281 C 404.808594 252.316406 412.90625 255.671875 421.445312 257.023438 C 429.984375 258.375 438.726562 257.6875 446.949219 255.023438 C 445.980469 255.070312 445.007812 255.089844 444.035156 255.09375 C 433.132812 255.089844 422.4375 252.125 413.09375 246.511719 C 403.746094 240.898438 396.109375 232.851562 390.988281 223.226562 C 385.875 213.609375 383.472656 202.777344 384.046875 191.898438 C 384.621094 181.015625 388.148438 170.5 394.246094 161.46875 C 388.265625 166.601562 383.46875 172.96875 380.183594 180.128906 C 376.898438 187.289062 375.199219 195.074219 375.207031 202.953125 Z M 398.53125 149.9375 C 398.53125 151.753906 399.125 153.519531 400.214844 154.972656 C 401.308594 156.425781 402.847656 157.476562 404.59375 157.976562 C 406.339844 158.480469 408.203125 158.398438 409.898438 157.746094 C 411.597656 157.097656 413.035156 155.914062 414 154.375 L 415.011719 153.359375 L 414 148.4375 C 413.304688 149.941406 412.152344 151.183594 410.703125 151.988281 C 407.734375 153.640625 404.035156 153.183594 401.554688 150.859375 C 400.347656 149.726562 399.53125 148.238281 399.222656 146.613281 C 398.765625 147.660156 398.53125 148.796875 398.53125 149.941406 Z M 398.53125 149.9375 "/>
<path style=" stroke:none;fill-rule:nonzero;fill:rgb(85.490197%,0%,0%);fill-opacity:1;" d="M 406.90625 163.5 C 409.703125 162.226562 412.140625 160.28125 414 157.839844 L 416.996094 204.753906 L 414 264.832031 L 409.339844 258.417969 L 408.722656 243.628906 L 408.089844 228.234375 L 408.003906 226.261719 L 407.976562 225.527344 L 407.84375 222.324219 L 407.441406 212.632812 L 407.117188 204.808594 L 407.023438 202.546875 L 406.902344 199.664062 Z M 406.90625 163.5 "/>
</g>
</svg>
