<?xml version="1.0" encoding="UTF-8"?>
<svg xmlns="http://www.w3.org/2000/svg" xmlns:xlink="http://www.w3.org/1999/xlink" width="1242px" height="621px" viewBox="0 0 1242 621" version="1.1">
<g id="surface1">
<rect x="0" y="0" width="1242" height="621" style="fill:rgb(85.490197%,0%,0%);fill-opacity:1;stroke:none;"/>
<path style=" stroke:none;fill-rule:nonzero;fill:rgb(100%,100%,100%);fill-opacity:1;" d="M 1242 0 L 0 0 L 0 425.5 L 1242 425.5 Z M 1242 0 "/>
<path style=" stroke:none;fill-rule:nonzero;fill:rgb(13.725491%,62.352943%,25.098041%);fill-opacity:1;" d="M 1242 0 L 0 0 L 0 191.667969 L 1242 191.667969 Z M 1242 0 "/>
<path style=" stroke:none;fill-rule:nonzero;fill:rgb(100%,100%,100%);fill-opacity:1;" d="M 44.160156 162.808594 L 44.160156 173.84375 L 60.71875 173.84375 L 60.71875 168.328125 L 49.679688 168.328125 L 49.679688 162.808594 L 66.238281 162.808594 L 66.238281 179.359375 L 38.640625 179.359375 L 38.640625 168.328125 L 22.078125 168.328125 L 22.078125 179.359375 L 16.558594 179.359375 L 16.558594 162.808594 Z M 33.121094 173.84375 L 33.121094 179.359375 L 27.601562 179.359375 L 27.601562 173.84375 Z M 99.359375 151.78125 L 99.359375 173.84375 L 104.878906 173.84375 L 104.878906 151.78125 L 110.398438 151.78125 L 110.398438 173.84375 L 115.921875 173.84375 L 115.921875 151.78125 L 121.441406 151.78125 L 121.441406 179.359375 L 93.84375 179.359375 L 93.84375 168.328125 L 77.28125 168.328125 L 77.28125 173.84375 L 88.324219 173.84375 L 88.324219 179.359375 L 71.761719 179.359375 L 71.761719 162.808594 L 93.84375 162.808594 L 93.84375 151.777344 L 99.363281 151.777344 Z M 88.320312 151.78125 L 88.320312 157.296875 L 16.558594 157.296875 L 16.558594 151.78125 Z M 88.320312 151.78125 "/>
<path style=" stroke:none;fill-rule:nonzero;fill:rgb(100%,100%,100%);fill-opacity:1;" d="M 44.160156 448.839844 L 44.160156 459.871094 L 60.71875 459.871094 L 60.71875 454.359375 L 49.679688 454.359375 L 49.679688 448.839844 L 66.238281 448.839844 L 66.238281 465.386719 L 38.640625 465.386719 L 38.640625 454.359375 L 22.078125 454.359375 L 22.078125 465.386719 L 16.558594 465.386719 L 16.558594 448.839844 Z M 33.121094 459.871094 L 33.121094 465.386719 L 27.601562 465.386719 L 27.601562 459.871094 Z M 99.359375 437.8125 L 99.359375 459.871094 L 104.878906 459.871094 L 104.878906 437.8125 L 110.398438 437.8125 L 110.398438 459.871094 L 115.921875 459.871094 L 115.921875 437.8125 L 121.441406 437.8125 L 121.441406 465.386719 L 93.84375 465.386719 L 93.84375 454.359375 L 77.28125 454.359375 L 77.28125 459.871094 L 88.324219 459.871094 L 88.324219 465.386719 L 71.761719 465.386719 L 71.761719 448.839844 L 93.84375 448.839844 L 93.84375 437.8125 L 99.363281 437.8125 Z M 88.320312 437.8125 L 88.320312 443.324219 L 16.558594 443.324219 L 16.558594 437.8125 Z M 154.558594 162.808594 L 154.558594 173.84375 L 171.121094 173.84375 L 171.121094 168.328125 L 160.078125 168.328125 L 160.078125 162.808594 L 176.640625 162.808594 L 176.640625 179.359375 L 149.039062 179.359375 L 149.039062 168.328125 L 132.480469 168.328125 L 132.480469 179.359375 L 126.960938 179.359375 L 126.960938 162.808594 Z M 143.519531 173.84375 L 143.519531 179.359375 L 138 179.359375 L 138 173.84375 L 143.523438 173.84375 Z M 209.761719 151.78125 L 209.761719 173.84375 L 215.28125 173.84375 L 215.28125 151.78125 L 220.800781 151.78125 L 220.800781 173.84375 L 226.324219 173.84375 L 226.324219 151.78125 L 231.84375 151.78125 L 231.84375 179.359375 L 204.242188 179.359375 L 204.242188 168.328125 L 187.683594 168.328125 L 187.683594 173.84375 L 198.722656 173.84375 L 198.722656 179.359375 L 182.164062 179.359375 L 182.164062 162.808594 L 204.242188 162.808594 L 204.242188 151.777344 L 209.761719 151.777344 Z M 198.71875 151.78125 L 198.71875 157.296875 L 126.960938 157.296875 L 126.960938 151.78125 Z M 198.71875 151.78125 "/>
<path style=" stroke:none;fill-rule:nonzero;fill:rgb(100%,100%,100%);fill-opacity:1;" d="M 154.558594 448.839844 L 154.558594 459.871094 L 171.121094 459.871094 L 171.121094 454.359375 L 160.078125 454.359375 L 160.078125 448.839844 L 176.640625 448.839844 L 176.640625 465.386719 L 149.039062 465.386719 L 149.039062 454.359375 L 132.480469 454.359375 L 132.480469 465.386719 L 126.960938 465.386719 L 126.960938 448.839844 Z M 143.519531 459.871094 L 143.519531 465.386719 L 138 465.386719 L 138 459.871094 L 143.523438 459.871094 Z M 209.761719 437.8125 L 209.761719 459.871094 L 215.28125 459.871094 L 215.28125 437.8125 L 220.800781 437.8125 L 220.800781 459.871094 L 226.324219 459.871094 L 226.324219 437.8125 L 231.84375 437.8125 L 231.84375 465.386719 L 204.242188 465.386719 L 204.242188 454.359375 L 187.683594 454.359375 L 187.683594 459.871094 L 198.722656 459.871094 L 198.722656 465.386719 L 182.164062 465.386719 L 182.164062 448.839844 L 204.242188 448.839844 L 204.242188 437.8125 Z M 198.71875 437.8125 L 198.71875 443.324219 L 126.960938 443.324219 L 126.960938 437.8125 Z M 264.960938 162.808594 L 264.960938 173.84375 L 281.519531 173.84375 L 281.519531 168.328125 L 270.480469 168.328125 L 270.480469 162.808594 L 287.039062 162.808594 L 287.039062 179.359375 L 259.441406 179.359375 L 259.441406 168.328125 L 242.878906 168.328125 L 242.878906 179.359375 L 237.359375 179.359375 L 237.359375 162.808594 Z M 253.921875 173.84375 L 253.921875 179.359375 L 248.398438 179.359375 L 248.398438 173.84375 Z M 320.160156 151.78125 L 320.160156 173.84375 L 325.679688 173.84375 L 325.679688 151.78125 L 331.199219 151.78125 L 331.199219 173.84375 L 336.71875 173.84375 L 336.71875 151.78125 L 342.238281 151.78125 L 342.238281 179.359375 L 314.640625 179.359375 L 314.640625 168.328125 L 298.078125 168.328125 L 298.078125 173.84375 L 309.121094 173.84375 L 309.121094 179.359375 L 292.558594 179.359375 L 292.558594 162.808594 L 314.640625 162.808594 L 314.640625 151.777344 L 320.160156 151.777344 Z M 309.121094 151.78125 L 309.121094 157.296875 L 237.359375 157.296875 L 237.359375 151.78125 Z M 309.121094 151.78125 "/>
<path style=" stroke:none;fill-rule:nonzero;fill:rgb(100%,100%,100%);fill-opacity:1;" d="M 264.960938 448.839844 L 264.960938 459.871094 L 281.519531 459.871094 L 281.519531 454.359375 L 270.480469 454.359375 L 270.480469 448.839844 L 287.039062 448.839844 L 287.039062 465.386719 L 259.441406 465.386719 L 259.441406 454.359375 L 242.878906 454.359375 L 242.878906 465.386719 L 237.359375 465.386719 L 237.359375 448.839844 Z M 253.921875 459.871094 L 253.921875 465.386719 L 248.398438 465.386719 L 248.398438 459.871094 Z M 320.160156 437.8125 L 320.160156 459.871094 L 325.679688 459.871094 L 325.679688 437.8125 L 331.199219 437.8125 L 331.199219 459.871094 L 336.71875 459.871094 L 336.71875 437.8125 L 342.238281 437.8125 L 342.238281 465.386719 L 314.640625 465.386719 L 314.640625 454.359375 L 298.078125 454.359375 L 298.078125 459.871094 L 309.121094 459.871094 L 309.121094 465.386719 L 292.558594 465.386719 L 292.558594 448.839844 L 314.640625 448.839844 L 314.640625 437.8125 Z M 309.121094 437.8125 L 309.121094 443.324219 L 237.359375 443.324219 L 237.359375 437.8125 Z M 309.121094 437.8125 "/>
<path style=" stroke:none;fill-rule:nonzero;fill:rgb(100%,100%,100%);fill-opacity:1;" d="M 485.761719 162.808594 L 485.761719 173.84375 L 502.320312 173.84375 L 502.320312 168.328125 L 491.28125 168.328125 L 491.28125 162.808594 L 507.839844 162.808594 L 507.839844 179.359375 L 480.238281 179.359375 L 480.238281 168.328125 L 463.679688 168.328125 L 463.679688 179.359375 L 458.160156 179.359375 L 458.160156 162.808594 Z M 474.71875 173.84375 L 474.71875 179.359375 L 469.199219 179.359375 L 469.199219 173.84375 Z M 540.960938 151.78125 L 540.960938 173.84375 L 546.480469 173.84375 L 546.480469 151.78125 L 552 151.78125 L 552 173.84375 L 557.519531 173.84375 L 557.519531 151.78125 L 563.039062 151.78125 L 563.039062 179.359375 L 535.441406 179.359375 L 535.441406 168.328125 L 518.878906 168.328125 L 518.878906 173.84375 L 529.921875 173.84375 L 529.921875 179.359375 L 513.359375 179.359375 L 513.359375 162.808594 L 535.441406 162.808594 L 535.441406 151.777344 L 540.960938 151.777344 Z M 529.921875 151.78125 L 529.921875 157.296875 L 458.160156 157.296875 L 458.160156 151.78125 Z M 529.921875 151.78125 "/>
<path style=" stroke:none;fill-rule:nonzero;fill:rgb(100%,100%,100%);fill-opacity:1;" d="M 485.761719 448.839844 L 485.761719 459.871094 L 502.320312 459.871094 L 502.320312 454.359375 L 491.28125 454.359375 L 491.28125 448.839844 L 507.839844 448.839844 L 507.839844 465.386719 L 480.238281 465.386719 L 480.238281 454.359375 L 463.679688 454.359375 L 463.679688 465.386719 L 458.160156 465.386719 L 458.160156 448.839844 Z M 474.71875 459.871094 L 474.71875 465.386719 L 469.199219 465.386719 L 469.199219 459.871094 Z M 540.960938 437.8125 L 540.960938 459.871094 L 546.480469 459.871094 L 546.480469 437.8125 L 552 437.8125 L 552 459.871094 L 557.519531 459.871094 L 557.519531 437.8125 L 563.039062 437.8125 L 563.039062 465.386719 L 535.441406 465.386719 L 535.441406 454.359375 L 518.878906 454.359375 L 518.878906 459.871094 L 529.921875 459.871094 L 529.921875 465.386719 L 513.359375 465.386719 L 513.359375 448.839844 L 535.441406 448.839844 L 535.441406 437.8125 Z M 529.921875 437.8125 L 529.921875 443.324219 L 458.160156 443.324219 L 458.160156 437.8125 Z M 529.921875 437.8125 "/>
<path style=" stroke:none;fill-rule:nonzero;fill:rgb(100%,100%,100%);fill-opacity:1;" d="M 706.558594 162.808594 L 706.558594 173.84375 L 723.121094 173.84375 L 723.121094 168.328125 L 712.078125 168.328125 L 712.078125 162.808594 L 728.640625 162.808594 L 728.640625 179.359375 L 701.039062 179.359375 L 701.039062 168.328125 L 684.480469 168.328125 L 684.480469 179.359375 L 678.960938 179.359375 L 678.960938 162.808594 Z M 695.519531 173.84375 L 695.519531 179.359375 L 690 179.359375 L 690 173.84375 Z M 761.761719 151.78125 L 761.761719 173.84375 L 767.28125 173.84375 L 767.28125 151.78125 L 772.800781 151.78125 L 772.800781 173.84375 L 778.320312 173.84375 L 778.320312 151.78125 L 783.839844 151.78125 L 783.839844 179.359375 L 756.238281 179.359375 L 756.238281 168.328125 L 739.679688 168.328125 L 739.679688 173.84375 L 750.71875 173.84375 L 750.71875 179.359375 L 734.160156 179.359375 L 734.160156 162.808594 L 756.238281 162.808594 L 756.238281 151.777344 L 761.761719 151.777344 Z M 750.71875 151.78125 L 750.71875 157.296875 L 678.960938 157.296875 L 678.960938 151.78125 Z M 750.71875 151.78125 "/>
<path style=" stroke:none;fill-rule:nonzero;fill:rgb(100%,100%,100%);fill-opacity:1;" d="M 706.558594 448.839844 L 706.558594 459.871094 L 723.121094 459.871094 L 723.121094 454.359375 L 712.078125 454.359375 L 712.078125 448.839844 L 728.640625 448.839844 L 728.640625 465.386719 L 701.039062 465.386719 L 701.039062 454.359375 L 684.480469 454.359375 L 684.480469 465.386719 L 678.960938 465.386719 L 678.960938 448.839844 Z M 695.519531 459.871094 L 695.519531 465.386719 L 690 465.386719 L 690 459.871094 Z M 761.761719 437.8125 L 761.761719 459.871094 L 767.28125 459.871094 L 767.28125 437.8125 L 772.800781 437.8125 L 772.800781 459.871094 L 778.320312 459.871094 L 778.320312 437.8125 L 783.839844 437.8125 L 783.839844 465.386719 L 756.238281 465.386719 L 756.238281 454.359375 L 739.679688 454.359375 L 739.679688 459.871094 L 750.71875 459.871094 L 750.71875 465.386719 L 734.160156 465.386719 L 734.160156 448.839844 L 756.238281 448.839844 L 756.238281 437.8125 Z M 750.71875 437.8125 L 750.71875 443.324219 L 678.960938 443.324219 L 678.960938 437.8125 Z M 750.71875 437.8125 "/>
<path style=" stroke:none;fill-rule:nonzero;fill:rgb(100%,100%,100%);fill-opacity:1;" d="M 1037.761719 162.808594 L 1037.761719 173.84375 L 1054.320312 173.84375 L 1054.320312 168.328125 L 1043.28125 168.328125 L 1043.28125 162.808594 L 1059.839844 162.808594 L 1059.839844 179.359375 L 1032.238281 179.359375 L 1032.238281 168.328125 L 1015.679688 168.328125 L 1015.679688 179.359375 L 1010.160156 179.359375 L 1010.160156 162.808594 Z M 1026.71875 173.84375 L 1026.71875 179.359375 L 1021.199219 179.359375 L 1021.199219 173.84375 Z M 1092.960938 151.78125 L 1092.960938 173.84375 L 1098.480469 173.84375 L 1098.480469 151.78125 L 1104 151.78125 L 1104 173.84375 L 1109.519531 173.84375 L 1109.519531 151.78125 L 1115.039062 151.78125 L 1115.039062 179.359375 L 1087.441406 179.359375 L 1087.441406 168.328125 L 1070.878906 168.328125 L 1070.878906 173.84375 L 1081.921875 173.84375 L 1081.921875 179.359375 L 1065.359375 179.359375 L 1065.359375 162.808594 L 1087.441406 162.808594 L 1087.441406 151.777344 L 1092.960938 151.777344 Z M 1081.921875 151.78125 L 1081.921875 157.296875 L 1010.160156 157.296875 L 1010.160156 151.78125 Z M 1081.921875 151.78125 "/>
<path style=" stroke:none;fill-rule:nonzero;fill:rgb(100%,100%,100%);fill-opacity:1;" d="M 1037.761719 448.839844 L 1037.761719 459.871094 L 1054.320312 459.871094 L 1054.320312 454.359375 L 1043.28125 454.359375 L 1043.28125 448.839844 L 1059.839844 448.839844 L 1059.839844 465.386719 L 1032.238281 465.386719 L 1032.238281 454.359375 L 1015.679688 454.359375 L 1015.679688 465.386719 L 1010.160156 465.386719 L 1010.160156 448.839844 Z M 1026.71875 459.871094 L 1026.71875 465.386719 L 1021.199219 465.386719 L 1021.199219 459.871094 Z M 1092.960938 437.8125 L 1092.960938 459.871094 L 1098.480469 459.871094 L 1098.480469 437.8125 L 1104 437.8125 L 1104 459.871094 L 1109.519531 459.871094 L 1109.519531 437.8125 L 1115.039062 437.8125 L 1115.039062 465.386719 L 1087.441406 465.386719 L 1087.441406 454.359375 L 1070.878906 454.359375 L 1070.878906 459.871094 L 1081.921875 459.871094 L 1081.921875 465.386719 L 1065.359375 465.386719 L 1065.359375 448.839844 L 1087.441406 448.839844 L 1087.441406 437.8125 Z M 1081.921875 437.8125 L 1081.921875 443.324219 L 1010.160156 443.324219 L 1010.160156 437.8125 Z M 1081.921875 437.8125 "/>
<path style=" stroke:none;fill-rule:nonzero;fill:rgb(85.490197%,0%,0%);fill-opacity:1;" d="M 711.105469 307.203125 C 711.109375 319.71875 707.695312 332 701.226562 342.71875 C 694.757812 353.4375 685.484375 362.1875 674.40625 368.023438 C 689.152344 349.582031 695.964844 326.039062 693.34375 302.578125 C 690.71875 279.121094 678.875 257.660156 660.421875 242.925781 C 659.109375 241.878906 657.769531 240.871094 656.402344 239.902344 C 671.863281 243.136719 685.742188 251.59375 695.707031 263.851562 C 705.667969 276.105469 711.105469 291.414062 711.105469 307.203125 Z M 679.1875 304.429688 C 679.179688 317.390625 676.101562 330.167969 670.210938 341.710938 C 664.320312 353.257812 655.777344 363.242188 645.28125 370.859375 C 634.789062 378.476562 622.640625 383.503906 609.832031 385.53125 C 597.019531 387.5625 583.914062 386.535156 571.574219 382.53125 C 573.03125 382.601562 574.492188 382.636719 575.949219 382.636719 C 592.300781 382.636719 608.34375 378.1875 622.363281 369.765625 C 636.378906 361.347656 647.839844 349.277344 655.515625 334.84375 C 663.1875 320.410156 666.789062 304.167969 665.929688 287.847656 C 665.066406 271.527344 659.78125 255.746094 650.632812 242.203125 C 659.597656 249.90625 666.792969 259.453125 671.722656 270.195312 C 676.652344 280.933594 679.199219 292.613281 679.1875 304.429688 Z M 644.203125 224.90625 C 644.199219 227.632812 643.3125 230.28125 641.675781 232.457031 C 640.039062 234.636719 637.730469 236.21875 635.109375 236.96875 C 632.488281 237.71875 629.695312 237.597656 627.148438 236.621094 C 624.605469 235.648438 622.445312 233.871094 621 231.5625 L 619.484375 230.039062 L 621 222.65625 C 622.039062 224.914062 623.773438 226.777344 625.945312 227.984375 C 630.398438 230.460938 635.945312 229.777344 639.664062 226.289062 C 641.476562 224.59375 642.703125 222.359375 643.164062 219.921875 C 643.851562 221.492188 644.203125 223.195312 644.203125 224.910156 Z M 644.203125 224.90625 "/>
<path style=" stroke:none;fill-rule:nonzero;fill:rgb(85.490197%,0%,0%);fill-opacity:1;" d="M 631.636719 245.25 C 627.445312 243.339844 623.792969 240.421875 621 236.757812 L 616.503906 307.128906 L 621 397.246094 L 627.992188 387.628906 L 628.914062 365.445312 L 629.867188 342.351562 L 629.992188 339.390625 L 630.035156 338.289062 L 630.238281 333.488281 L 630.835938 318.949219 L 631.324219 307.210938 L 631.464844 303.820312 L 631.648438 299.5 Z M 530.894531 307.203125 C 530.890625 319.71875 534.304688 332 540.773438 342.71875 C 547.242188 353.4375 556.515625 362.1875 567.59375 368.023438 C 552.847656 349.582031 546.035156 326.039062 548.65625 302.578125 C 551.28125 279.121094 563.125 257.660156 581.578125 242.925781 C 582.890625 241.878906 584.230469 240.871094 585.597656 239.902344 C 570.136719 243.136719 556.257812 251.59375 546.292969 263.851562 C 536.332031 276.105469 530.894531 291.414062 530.894531 307.203125 Z M 530.894531 307.203125 "/>
<path style=" stroke:none;fill-rule:nonzero;fill:rgb(85.490197%,0%,0%);fill-opacity:1;" d="M 562.8125 304.429688 C 562.820312 317.390625 565.898438 330.167969 571.789062 341.710938 C 577.679688 353.257812 586.222656 363.242188 596.71875 370.859375 C 607.210938 378.476562 619.359375 383.503906 632.167969 385.53125 C 644.980469 387.5625 658.085938 386.535156 670.425781 382.53125 C 668.96875 382.601562 667.507812 382.636719 666.050781 382.636719 C 649.699219 382.636719 633.65625 378.1875 619.636719 369.765625 C 605.621094 361.347656 594.160156 349.277344 586.484375 334.84375 C 578.8125 320.410156 575.210938 304.167969 576.070312 287.847656 C 576.933594 271.527344 582.21875 255.746094 591.367188 242.203125 C 582.402344 249.90625 575.207031 259.453125 570.277344 270.195312 C 565.347656 280.933594 562.800781 292.613281 562.8125 304.429688 Z M 597.796875 224.90625 C 597.800781 227.632812 598.6875 230.28125 600.324219 232.457031 C 601.960938 234.636719 604.269531 236.21875 606.890625 236.96875 C 609.511719 237.71875 612.304688 237.597656 614.851562 236.621094 C 617.394531 235.648438 619.554688 233.871094 621 231.5625 L 622.515625 230.039062 L 621 222.65625 C 619.960938 224.914062 618.226562 226.777344 616.054688 227.984375 C 611.601562 230.460938 606.054688 229.777344 602.335938 226.289062 C 600.523438 224.59375 599.296875 222.359375 598.835938 219.921875 C 598.148438 221.492188 597.796875 223.195312 597.796875 224.910156 Z M 597.796875 224.90625 "/>
<path style=" stroke:none;fill-rule:nonzero;fill:rgb(85.490197%,0%,0%);fill-opacity:1;" d="M 610.363281 245.25 C 614.554688 243.339844 618.207031 240.421875 621 236.757812 L 625.496094 307.128906 L 621 397.246094 L 614.007812 387.628906 L 613.085938 365.445312 L 612.132812 342.351562 L 612.007812 339.390625 L 611.964844 338.289062 L 611.761719 333.488281 L 611.164062 318.949219 L 610.675781 307.210938 L 610.535156 303.820312 L 610.351562 299.5 Z M 610.363281 245.25 "/>
</g>
</svg>
