<?xml version="1.0" encoding="UTF-8"?>
<svg xmlns="http://www.w3.org/2000/svg" xmlns:xlink="http://www.w3.org/1999/xlink" width="40" height="40" viewBox="0 0 40 40">
<path fill-rule="nonzero" fill="rgb(84.705882%, 0%, 15.294118%)" fill-opacity="1" d="M 37.671875 29.375 C 39.15625 26.578125 40 23.386719 40 20 C 40 16.613281 39.15625 13.421875 37.671875 10.625 L 2.328125 10.625 C 0.84375 13.421875 0 16.613281 0 20 C 0 23.386719 0.84375 26.578125 2.328125 29.375 Z M 37.671875 29.375 "/>
<path fill-rule="nonzero" fill="rgb(28.627451%, 43.137255%, 17.647059%)" fill-opacity="1" d="M 38.785156 26.875 C 35.984375 34.535156 28.628906 40 20 40 C 11.371094 40 4.015625 34.535156 1.214844 26.875 L 38.789062 26.875 Z M 38.785156 26.875 "/>
<path fill-rule="nonzero" fill="rgb(0%, 32.156863%, 70.588235%)" fill-opacity="1" d="M 38.785156 13.125 L 1.210938 13.125 C 4.015625 5.464844 11.371094 0 20 0 C 28.628906 0 35.984375 5.464844 38.785156 13.125 Z M 38.785156 13.125 "/>
<path fill-rule="nonzero" fill="rgb(100%, 85.490196%, 26.666667%)" fill-opacity="1" d="M 31.09375 20 C 31.09375 23.480469 29.710938 26.820312 27.25 29.28125 C 24.789062 31.742188 21.449219 33.125 17.96875 33.125 C 14.488281 33.125 11.148438 31.742188 8.6875 29.28125 C 6.226562 26.820312 4.84375 23.480469 4.84375 20 C 4.84375 16.519531 6.226562 13.179688 8.6875 10.71875 C 11.148438 8.257812 14.488281 6.875 17.96875 6.875 C 21.449219 6.875 24.789062 8.257812 27.25 10.71875 C 29.710938 13.179688 31.09375 16.519531 31.09375 20 Z M 31.09375 20 "/>
<path fill-rule="nonzero" fill="rgb(20%, 20%, 20%)" fill-opacity="1" d="M 17.96875 6.25 C 14.320312 6.25 10.824219 7.699219 8.246094 10.277344 C 5.667969 12.855469 4.21875 16.351562 4.21875 20 C 4.21875 23.648438 5.667969 27.144531 8.246094 29.722656 C 10.824219 32.300781 14.320312 33.75 17.96875 33.75 C 21.617188 33.75 25.113281 32.300781 27.691406 29.722656 C 30.269531 27.144531 31.71875 23.648438 31.71875 20 C 31.71875 16.351562 30.269531 12.855469 27.691406 10.277344 C 25.113281 7.699219 21.617188 6.25 17.96875 6.25 Z M 17.34375 7.5 L 17.34375 10.15625 C 16.71875 10.46875 16.25 10.78125 16.171875 11.40625 L 16.09375 12.65625 L 16.5625 12.421875 L 17.34375 12.109375 L 17.34375 12.734375 C 16.972656 12.867188 16.652344 13.109375 16.429688 13.429688 C 16.203125 13.753906 16.085938 14.136719 16.09375 14.53125 C 16.105469 14.910156 16.226562 15.277344 16.453125 15.585938 C 16.675781 15.890625 16.984375 16.125 17.34375 16.25 L 17.34375 16.875 L 15.78125 16.875 L 15.78125 18.125 L 17.34375 18.125 L 17.34375 18.75 C 16.984375 18.875 16.675781 19.109375 16.453125 19.414062 C 16.226562 19.722656 16.105469 20.089844 16.09375 20.46875 C 16.085938 20.863281 16.203125 21.246094 16.429688 21.570312 C 16.652344 21.890625 16.972656 22.132812 17.34375 22.265625 L 17.34375 22.8125 L 15.78125 22.8125 L 15.78125 24.140625 L 17.34375 24.140625 L 17.34375 24.6875 C 16.972656 24.820312 16.652344 25.0625 16.429688 25.382812 C 16.203125 25.707031 16.085938 26.089844 16.09375 26.484375 C 16.105469 26.863281 16.226562 27.230469 16.453125 27.539062 C 16.675781 27.84375 16.984375 28.078125 17.34375 28.203125 L 17.34375 28.828125 C 16.5625 28.828125 15.9375 29.0625 15.546875 29.375 C 15 29.765625 13.828125 30.9375 13.203125 31.5625 C 10.566406 30.488281 8.375 28.542969 6.992188 26.054688 C 5.609375 23.5625 5.117188 20.675781 5.601562 17.867188 C 6.085938 15.058594 7.511719 12.5 9.648438 10.617188 C 11.78125 8.730469 14.5 7.632812 17.34375 7.5 Z M 18.59375 7.5 C 21.460938 7.625 24.199219 8.730469 26.34375 10.632812 C 28.492188 12.539062 29.917969 15.121094 30.386719 17.953125 C 30.855469 20.785156 30.332031 23.691406 28.910156 26.183594 C 27.488281 28.675781 25.253906 30.601562 22.578125 31.640625 L 20.234375 29.375 C 19.84375 29.0625 19.296875 28.90625 18.59375 28.828125 L 18.59375 28.203125 C 18.953125 28.078125 19.261719 27.84375 19.484375 27.539062 C 19.707031 27.230469 19.832031 26.863281 19.84375 26.484375 C 19.851562 26.09375 19.730469 25.707031 19.507812 25.386719 C 19.285156 25.0625 18.964844 24.820312 18.59375 24.6875 L 18.59375 24.140625 L 20.234375 24.140625 L 20.234375 22.890625 L 18.59375 22.890625 L 18.59375 22.265625 C 18.964844 22.136719 19.285156 21.890625 19.507812 21.570312 C 19.730469 21.246094 19.851562 20.863281 19.84375 20.46875 C 19.832031 20.089844 19.707031 19.722656 19.484375 19.414062 C 19.261719 19.109375 18.953125 18.875 18.59375 18.75 L 18.59375 18.125 L 20.234375 18.125 L 20.234375 16.875 L 18.59375 16.875 L 18.59375 16.328125 C 18.964844 16.199219 19.285156 15.953125 19.507812 15.632812 C 19.730469 15.308594 19.851562 14.925781 19.84375 14.53125 C 19.851562 14.140625 19.730469 13.753906 19.507812 13.433594 C 19.285156 13.109375 18.964844 12.867188 18.59375 12.734375 L 18.59375 11.171875 C 19.0625 10.78125 19.453125 10.15625 19.921875 9.375 C 20.234375 8.75 20.078125 8.515625 20.078125 8.515625 L 19.921875 8.75 L 18.59375 9.609375 Z M 18.59375 7.5 "/>
</svg>
