<?xml version="1.0" encoding="UTF-8"?>
<svg xmlns="http://www.w3.org/2000/svg" xmlns:xlink="http://www.w3.org/1999/xlink" width="20" height="20" viewBox="0 0 20 20">
<path fill-rule="nonzero" fill="rgb(84.705882%, 0%, 15.294118%)" fill-opacity="1" d="M 18.835938 14.6875 C 19.578125 13.289062 20 11.695312 20 10 C 20 8.304688 19.578125 6.710938 18.835938 5.3125 L 1.164062 5.3125 C 0.421875 6.710938 0 8.304688 0 10 C 0 11.695312 0.421875 13.289062 1.164062 14.6875 Z M 18.835938 14.6875 "/>
<path fill-rule="nonzero" fill="rgb(28.627451%, 43.137255%, 17.647059%)" fill-opacity="1" d="M 19.394531 13.4375 C 17.992188 17.265625 14.316406 20 10 20 C 5.683594 20 2.007812 17.265625 0.605469 13.4375 Z M 19.394531 13.4375 "/>
<path fill-rule="nonzero" fill="rgb(0%, 32.156863%, 70.588235%)" fill-opacity="1" d="M 19.394531 6.5625 L 0.605469 6.5625 C 2.007812 2.734375 5.683594 0 10 0 C 14.316406 0 17.992188 2.734375 19.394531 6.5625 Z M 19.394531 6.5625 "/>
<path fill-rule="nonzero" fill="rgb(100%, 85.490196%, 26.666667%)" fill-opacity="1" d="M 15.546875 10 C 15.546875 11.742188 14.855469 13.410156 13.625 14.640625 C 12.394531 15.871094 10.726562 16.5625 8.984375 16.5625 C 7.246094 16.5625 5.574219 15.871094 4.34375 14.640625 C 3.113281 13.410156 2.421875 11.742188 2.421875 10 C 2.421875 8.257812 3.113281 6.589844 4.34375 5.359375 C 5.574219 4.128906 7.246094 3.4375 8.984375 3.4375 C 10.726562 3.4375 12.394531 4.128906 13.625 5.359375 C 14.855469 6.589844 15.546875 8.257812 15.546875 10 Z M 15.546875 10 "/>
<path fill-rule="nonzero" fill="rgb(20%, 20%, 20%)" fill-opacity="1" d="M 8.984375 3.125 C 7.160156 3.125 5.414062 3.847656 4.125 5.136719 C 2.832031 6.429688 2.109375 8.175781 2.109375 10 C 2.109375 11.824219 2.832031 13.570312 4.125 14.859375 C 5.414062 16.152344 7.160156 16.875 8.984375 16.875 C 10.808594 16.875 12.554688 16.152344 13.84375 14.859375 C 15.136719 13.570312 15.859375 11.824219 15.859375 10 C 15.859375 8.175781 15.136719 6.429688 13.84375 5.136719 C 12.554688 3.847656 10.808594 3.125 8.984375 3.125 Z M 8.671875 3.75 L 8.671875 5.078125 C 8.359375 5.234375 8.125 5.390625 8.085938 5.703125 L 8.046875 6.328125 L 8.28125 6.210938 L 8.671875 6.054688 L 8.671875 6.367188 C 8.488281 6.433594 8.328125 6.554688 8.214844 6.714844 C 8.101562 6.875 8.042969 7.070312 8.046875 7.265625 C 8.050781 7.457031 8.113281 7.640625 8.226562 7.792969 C 8.335938 7.945312 8.492188 8.0625 8.671875 8.125 L 8.671875 8.4375 L 7.890625 8.4375 L 7.890625 9.0625 L 8.671875 9.0625 L 8.671875 9.375 C 8.492188 9.4375 8.335938 9.554688 8.226562 9.707031 C 8.113281 9.859375 8.050781 10.042969 8.046875 10.234375 C 8.042969 10.429688 8.101562 10.625 8.214844 10.785156 C 8.328125 10.945312 8.488281 11.066406 8.671875 11.132812 L 8.671875 11.40625 L 7.890625 11.40625 L 7.890625 12.070312 L 8.671875 12.070312 L 8.671875 12.34375 C 8.488281 12.410156 8.328125 12.53125 8.214844 12.691406 C 8.101562 12.851562 8.042969 13.046875 8.046875 13.242188 C 8.050781 13.433594 8.113281 13.617188 8.226562 13.769531 C 8.335938 13.921875 8.492188 14.039062 8.671875 14.101562 L 8.671875 14.414062 C 8.28125 14.414062 7.96875 14.53125 7.773438 14.6875 C 7.5 14.882812 6.914062 15.46875 6.601562 15.78125 C 5.28125 15.242188 4.1875 14.273438 3.496094 13.027344 C 2.804688 11.78125 2.558594 10.335938 2.800781 8.933594 C 3.042969 7.53125 3.757812 6.25 4.824219 5.308594 C 5.890625 4.367188 7.25 3.816406 8.671875 3.75 Z M 9.296875 3.75 C 10.730469 3.8125 12.097656 4.367188 13.171875 5.316406 C 14.246094 6.269531 14.960938 7.5625 15.191406 8.976562 C 15.425781 10.390625 15.167969 11.84375 14.457031 13.089844 C 13.746094 14.335938 12.625 15.300781 11.289062 15.820312 L 10.117188 14.6875 C 9.921875 14.53125 9.648438 14.453125 9.296875 14.414062 L 9.296875 14.101562 C 9.476562 14.039062 9.632812 13.921875 9.742188 13.769531 C 9.855469 13.617188 9.917969 13.433594 9.921875 13.242188 C 9.925781 13.046875 9.867188 12.855469 9.753906 12.691406 C 9.640625 12.53125 9.480469 12.410156 9.296875 12.34375 L 9.296875 12.070312 L 10.117188 12.070312 L 10.117188 11.445312 L 9.296875 11.445312 L 9.296875 11.132812 C 9.480469 11.066406 9.640625 10.945312 9.753906 10.785156 C 9.867188 10.625 9.925781 10.429688 9.921875 10.234375 C 9.917969 10.042969 9.855469 9.859375 9.742188 9.707031 C 9.632812 9.554688 9.476562 9.4375 9.296875 9.375 L 9.296875 9.0625 L 10.117188 9.0625 L 10.117188 8.4375 L 9.296875 8.4375 L 9.296875 8.164062 C 9.480469 8.097656 9.640625 7.976562 9.753906 7.816406 C 9.867188 7.65625 9.925781 7.460938 9.921875 7.265625 C 9.925781 7.070312 9.867188 6.878906 9.753906 6.714844 C 9.640625 6.554688 9.480469 6.433594 9.296875 6.367188 L 9.296875 5.585938 C 9.53125 5.390625 9.726562 5.078125 9.960938 4.6875 C 10.117188 4.375 10.039062 4.257812 10.039062 4.257812 L 9.960938 4.375 L 9.296875 4.804688 Z M 9.296875 3.75 "/>
</svg>
