<?xml version="1.0" encoding="UTF-8"?>
<svg xmlns="http://www.w3.org/2000/svg" xmlns:xlink="http://www.w3.org/1999/xlink" width="60" height="60" viewBox="0 0 60 60">
<path fill-rule="nonzero" fill="rgb(84.705882%, 0%, 15.294118%)" fill-opacity="1" d="M 56.507812 44.0625 C 58.738281 39.867188 60 35.082031 60 30 C 60 24.917969 58.738281 20.132812 56.507812 15.9375 L 3.492188 15.9375 C 1.261719 20.132812 0 24.917969 0 30 C 0 35.082031 1.261719 39.867188 3.492188 44.0625 Z M 56.507812 44.0625 "/>
<path fill-rule="nonzero" fill="rgb(28.627451%, 43.137255%, 17.647059%)" fill-opacity="1" d="M 58.179688 40.3125 C 53.976562 51.800781 42.945312 60 30 60 C 17.054688 60 6.023438 51.800781 1.820312 40.3125 Z M 58.179688 40.3125 "/>
<path fill-rule="nonzero" fill="rgb(0%, 32.156863%, 70.588235%)" fill-opacity="1" d="M 58.179688 19.6875 L 1.820312 19.6875 C 6.023438 8.199219 17.054688 0 30 0 C 42.945312 0 53.972656 8.199219 58.179688 19.6875 Z M 58.179688 19.6875 "/>
<path fill-rule="nonzero" fill="rgb(100%, 85.490196%, 26.666667%)" fill-opacity="1" d="M 46.640625 30 C 46.640625 35.222656 44.566406 40.230469 40.875 43.921875 C 37.183594 47.613281 32.175781 49.6875 26.953125 49.6875 C 21.734375 49.6875 16.722656 47.613281 13.03125 43.921875 C 9.339844 40.230469 7.265625 35.222656 7.265625 30 C 7.265625 24.777344 9.339844 19.769531 13.03125 16.078125 C 16.726562 12.386719 21.734375 10.3125 26.953125 10.3125 C 32.175781 10.3125 37.183594 12.386719 40.875 16.078125 C 44.566406 19.769531 46.640625 24.777344 46.640625 30 Z M 46.640625 30 "/>
<path fill-rule="nonzero" fill="rgb(20%, 20%, 20%)" fill-opacity="1" d="M 26.953125 9.375 C 21.484375 9.375 16.238281 11.546875 12.367188 15.414062 C 8.5 19.285156 6.328125 24.53125 6.328125 30 C 6.328125 35.46875 8.5 40.714844 12.367188 44.582031 C 16.238281 48.453125 21.484375 50.625 26.953125 50.625 C 32.421875 50.625 37.667969 48.453125 41.539062 44.582031 C 45.40625 40.714844 47.578125 35.46875 47.578125 30 C 47.578125 24.53125 45.40625 19.285156 41.539062 15.414062 C 37.667969 11.546875 32.421875 9.375 26.953125 9.375 Z M 26.015625 11.25 L 26.015625 15.234375 C 25.078125 15.703125 24.375 16.171875 24.257812 17.109375 L 24.140625 18.984375 L 24.84375 18.632812 L 26.015625 18.164062 L 26.015625 19.101562 C 25.460938 19.296875 24.980469 19.664062 24.644531 20.148438 C 24.308594 20.632812 24.132812 21.207031 24.140625 21.796875 C 24.15625 22.367188 24.34375 22.917969 24.675781 23.378906 C 25.011719 23.835938 25.480469 24.183594 26.015625 24.375 L 26.015625 25.3125 L 23.671875 25.3125 L 23.671875 27.1875 L 26.015625 27.1875 L 26.015625 28.125 C 25.480469 28.316406 25.011719 28.664062 24.675781 29.121094 C 24.34375 29.582031 24.15625 30.132812 24.140625 30.703125 C 24.132812 31.292969 24.308594 31.867188 24.644531 32.351562 C 24.980469 32.835938 25.460938 33.203125 26.015625 33.398438 L 26.015625 34.21875 L 23.671875 34.21875 L 23.671875 36.210938 L 26.015625 36.210938 L 26.015625 37.03125 C 25.460938 37.226562 24.980469 37.59375 24.644531 38.078125 C 24.308594 38.5625 24.132812 39.136719 24.140625 39.726562 C 24.15625 40.296875 24.34375 40.847656 24.675781 41.308594 C 25.011719 41.765625 25.480469 42.113281 26.015625 42.304688 L 26.015625 43.242188 C 24.84375 43.242188 23.90625 43.59375 23.320312 44.0625 C 22.5 44.648438 20.742188 46.40625 19.804688 47.34375 C 15.847656 45.730469 12.558594 42.816406 10.488281 39.078125 C 8.414062 35.34375 7.675781 31.011719 8.402344 26.800781 C 9.125 22.589844 11.269531 18.753906 14.472656 15.925781 C 17.675781 13.097656 21.746094 11.449219 26.015625 11.25 Z M 27.890625 11.25 C 32.191406 11.4375 36.296875 13.097656 39.515625 15.949219 C 42.738281 18.804688 44.878906 22.683594 45.578125 26.929688 C 46.28125 31.175781 45.5 35.535156 43.367188 39.273438 C 41.234375 43.011719 37.878906 45.902344 33.867188 47.460938 L 30.351562 44.0625 C 29.765625 43.59375 28.945312 43.359375 27.890625 43.242188 L 27.890625 42.304688 C 28.425781 42.117188 28.894531 41.769531 29.230469 41.308594 C 29.5625 40.847656 29.75 40.296875 29.765625 39.726562 C 29.773438 39.136719 29.597656 38.5625 29.261719 38.078125 C 28.925781 37.59375 28.445312 37.226562 27.890625 37.03125 L 27.890625 36.210938 L 30.351562 36.210938 L 30.351562 34.335938 L 27.890625 34.335938 L 27.890625 33.398438 C 28.445312 33.203125 28.925781 32.835938 29.261719 32.351562 C 29.597656 31.871094 29.773438 31.292969 29.765625 30.703125 C 29.75 30.132812 29.5625 29.582031 29.230469 29.125 C 28.894531 28.664062 28.425781 28.316406 27.890625 28.125 L 27.890625 27.1875 L 30.351562 27.1875 L 30.351562 25.3125 L 27.890625 25.3125 L 27.890625 24.492188 C 28.445312 24.296875 28.925781 23.929688 29.261719 23.445312 C 29.597656 22.964844 29.773438 22.386719 29.765625 21.796875 C 29.773438 21.207031 29.597656 20.632812 29.261719 20.148438 C 28.925781 19.664062 28.445312 19.296875 27.890625 19.101562 L 27.890625 16.757812 C 28.59375 16.171875 29.179688 15.234375 29.882812 14.0625 C 30.351562 13.125 30.117188 12.773438 30.117188 12.773438 L 29.882812 13.125 L 27.890625 14.414062 Z M 27.890625 11.25 "/>
</svg>
