<?xml version="1.0" encoding="UTF-8"?>
<svg width="16px" height="16px" viewBox="0 0 16 16" version="1.1" xmlns="http://www.w3.org/2000/svg" xmlns:xlink="http://www.w3.org/1999/xlink">
    <title>A5749AAD-BE56-42DC-B16B-36530DBD57C7</title>
    <g id="Preferences" stroke="none" stroke-width="1" fill="none" fill-rule="evenodd">
        <g id="Preferences-Dark" transform="translate(-114.000000, -259.000000)" fill="#FFFFFF" fill-rule="nonzero">
            <path d="M122,259 C126.418278,259 130,262.581722 130,267 C130,271.418278 126.418278,275 122,275 C117.581722,275 114,271.418278 114,267 C114,262.581722 117.581722,259 122,259 Z M125.089702,261.855628 L125.014378,261.917865 C124.128864,262.606081 123.098934,263 122,263 C120.869146,263 119.811362,262.582865 118.908477,261.857701 C117.166028,262.905953 116,264.816806 116,267 C116,269.183614 117.166478,271.094783 118.910298,272.144372 C119.812361,271.416741 120.86968,271 122,271 C123.130739,271 124.188422,271.41705 125.091246,272.142077 C126.833972,271.094047 128,269.183194 128,267 C128,264.816386 126.833522,262.905217 125.089702,261.855628 Z M122,265 C123.104569,265 124,265.895431 124,267 C124,268.104569 123.104569,269 122,269 C120.895431,269 120,268.104569 120,267 C120,265.895431 120.895431,265 122,265 Z" id="robicon"></path>
        </g>
    </g>
</svg>