<?xml version="1.0" encoding="UTF-8"?>
<svg xmlns="http://www.w3.org/2000/svg" xmlns:xlink="http://www.w3.org/1999/xlink" width="20" height="20" viewBox="0 0 20 20">
<path fill-rule="nonzero" fill="rgb(28.627451%, 43.137255%, 17.647059%)" fill-opacity="1" d="M 20 10 C 20 15.523438 15.523438 20 10 20 C 4.476562 20 0 15.523438 0 10 C 0 4.476562 4.476562 0 10 0 C 15.523438 0 20 4.476562 20 10 Z M 20 10 "/>
<path fill-rule="evenodd" fill="rgb(100%, 59.607843%, 6.666667%)" fill-opacity="1" d="M 20 10.019531 L 20 10.058594 C 19.992188 13.78125 17.953125 17.027344 14.929688 18.742188 L 14.929688 10 L 20 10 C 20 10.007812 20 10.011719 20 10.019531 Z M 20 10.019531 "/>
<path fill-rule="evenodd" fill="rgb(20%, 20%, 20%)" fill-opacity="1" d="M 11.871094 19.863281 L 11.871094 10 L 16.667969 10 L 16.667969 17.492188 C 15.339844 18.679688 13.691406 19.519531 11.871094 19.863281 Z M 11.871094 19.863281 "/>
<path fill-rule="evenodd" fill="rgb(84.705882%, 0%, 15.294118%)" fill-opacity="1" d="M 10.890625 20 L 10 20 L 10 10 L 13.332031 10 L 13.332031 19.46875 C 12.558594 19.742188 11.738281 19.925781 10.890625 20 Z M 10.890625 20 "/>
<path fill-rule="nonzero" fill="rgb(100%, 59.607843%, 6.666667%)" fill-opacity="1" d="M 18.476562 6.523438 L 15.871094 6.523438 C 15.871094 6.042969 15.480469 5.652344 15 5.652344 C 14.519531 5.652344 14.128906 6.042969 14.128906 6.523438 L 11.523438 6.523438 C 11.523438 7.003906 11.941406 7.390625 12.421875 7.390625 L 12.390625 7.390625 C 12.390625 7.871094 12.78125 8.261719 13.261719 8.261719 C 13.261719 8.742188 13.648438 9.128906 14.128906 9.128906 L 15.871094 9.128906 C 16.351562 9.128906 16.738281 8.742188 16.738281 8.261719 C 17.21875 8.261719 17.609375 7.871094 17.609375 7.390625 L 17.578125 7.390625 C 18.058594 7.390625 18.476562 7.003906 18.476562 6.523438 Z M 18.476562 6.523438 "/>
</svg>
