<?xml version="1.0" encoding="UTF-8"?>
<svg xmlns="http://www.w3.org/2000/svg" xmlns:xlink="http://www.w3.org/1999/xlink" width="60" height="60" viewBox="0 0 60 60">
<path fill-rule="nonzero" fill="rgb(28.627451%, 43.137255%, 17.647059%)" fill-opacity="1" d="M 60 30 C 60 46.570312 46.570312 60 30 60 C 13.429688 60 0 46.570312 0 30 C 0 13.429688 13.429688 0 30 0 C 46.570312 0 60 13.429688 60 30 Z M 60 30 "/>
<path fill-rule="evenodd" fill="rgb(100%, 59.607843%, 6.666667%)" fill-opacity="1" d="M 60 30.058594 L 60 30.175781 C 59.980469 41.34375 53.855469 51.078125 44.785156 56.226562 L 44.785156 30 L 60 30 C 60 30.019531 60 30.039062 60 30.058594 Z M 60 30.058594 "/>
<path fill-rule="evenodd" fill="rgb(20%, 20%, 20%)" fill-opacity="1" d="M 35.609375 59.59375 L 35.609375 30 L 50 30 L 50 52.476562 C 46.015625 56.042969 41.074219 58.558594 35.609375 59.59375 Z M 35.609375 59.59375 "/>
<path fill-rule="evenodd" fill="rgb(84.705882%, 0%, 15.294118%)" fill-opacity="1" d="M 32.667969 60 L 30 60 L 30 30 L 40 30 L 40 58.410156 C 37.675781 59.230469 35.21875 59.773438 32.667969 60 Z M 32.667969 60 "/>
<path fill-rule="nonzero" fill="rgb(100%, 59.607843%, 6.666667%)" fill-opacity="1" d="M 55.433594 19.566406 L 47.609375 19.566406 C 47.609375 18.125 46.441406 16.957031 45 16.957031 C 43.558594 16.957031 42.390625 18.125 42.390625 19.566406 L 34.566406 19.566406 C 34.566406 21.007812 35.820312 22.175781 37.261719 22.175781 L 37.171875 22.175781 C 37.171875 23.613281 38.339844 24.78125 39.78125 24.78125 C 39.78125 26.222656 40.949219 27.390625 42.390625 27.390625 L 47.609375 27.390625 C 49.050781 27.390625 50.21875 26.222656 50.21875 24.78125 C 51.65625 24.78125 52.824219 23.613281 52.824219 22.175781 L 52.738281 22.175781 C 54.179688 22.175781 55.433594 21.007812 55.433594 19.566406 Z M 55.433594 19.566406 "/>
</svg>
