<?xml version="1.0" encoding="UTF-8"?>
<svg xmlns="http://www.w3.org/2000/svg" xmlns:xlink="http://www.w3.org/1999/xlink" width="40" height="40" viewBox="0 0 40 40">
<path fill-rule="nonzero" fill="rgb(28.627451%, 43.137255%, 17.647059%)" fill-opacity="1" d="M 40 20 C 40 31.046875 31.046875 40 20 40 C 8.953125 40 0 31.046875 0 20 C 0 8.953125 8.953125 0 20 0 C 31.046875 0 40 8.953125 40 20 Z M 40 20 "/>
<path fill-rule="evenodd" fill="rgb(100%, 59.607843%, 6.666667%)" fill-opacity="1" d="M 40 20.039062 L 40 20.117188 C 39.984375 27.5625 35.902344 34.050781 29.859375 37.484375 L 29.859375 20 L 40 20 C 40 20.011719 40 20.027344 40 20.039062 Z M 40 20.039062 "/>
<path fill-rule="evenodd" fill="rgb(20%, 20%, 20%)" fill-opacity="1" d="M 23.738281 39.730469 L 23.738281 20 L 33.332031 20 L 33.332031 34.984375 C 30.679688 37.363281 27.382812 39.039062 23.738281 39.730469 Z M 23.738281 39.730469 "/>
<path fill-rule="evenodd" fill="rgb(84.705882%, 0%, 15.294118%)" fill-opacity="1" d="M 21.78125 40 L 20 40 L 20 20 L 26.667969 20 L 26.667969 38.941406 C 25.117188 39.488281 23.476562 39.851562 21.78125 40 Z M 21.78125 40 "/>
<path fill-rule="nonzero" fill="rgb(100%, 59.607843%, 6.666667%)" fill-opacity="1" d="M 36.957031 13.042969 L 31.738281 13.042969 C 31.738281 12.082031 30.960938 11.304688 30 11.304688 C 29.039062 11.304688 28.261719 12.082031 28.261719 13.042969 L 23.042969 13.042969 C 23.042969 14.003906 23.878906 14.78125 24.839844 14.78125 L 24.78125 14.78125 C 24.78125 15.742188 25.5625 16.523438 26.519531 16.523438 C 26.519531 17.484375 27.300781 18.261719 28.261719 18.261719 L 31.738281 18.261719 C 32.699219 18.261719 33.476562 17.484375 33.476562 16.523438 C 34.4375 16.523438 35.21875 15.742188 35.21875 14.78125 L 35.160156 14.78125 C 36.121094 14.78125 36.957031 14.003906 36.957031 13.042969 Z M 36.957031 13.042969 "/>
</svg>
