<?xml version="1.0" encoding="UTF-8"?>
<svg xmlns="http://www.w3.org/2000/svg" xmlns:xlink="http://www.w3.org/1999/xlink" width="340px" height="340px" viewBox="0 0 340 340" version="1.1">
<g id="surface1">
<path style="fill-rule:nonzero;fill:rgb(100%,100%,100%);fill-opacity:1;stroke-width:1;stroke-linecap:butt;stroke-linejoin:miter;stroke:rgb(0%,0%,0%);stroke-opacity:1;stroke-miterlimit:4;" d="M 34 63.200368 C 22.297794 60.178309 14.668199 48.92739 16.191176 36.938419 C 17.714154 24.948529 27.914522 15.962316 40 15.962316 C 52.085478 15.962316 62.285846 24.948529 63.808824 36.938419 C 65.331801 48.92739 57.702206 60.178309 46 63.200368 L 46 59.100184 C 55.419118 56.137868 61.266544 46.745404 59.768382 36.986213 C 58.270221 27.227022 49.874081 20.02114 40 20.02114 C 30.125919 20.02114 21.729779 27.227022 20.231618 36.986213 C 18.733456 46.745404 24.580882 56.137868 34 59.100184 Z M 38 70 L 38 41 C 38 39.895221 38.895221 39 40 39 C 41.104779 39 42 39.895221 42 41 L 42 70 C 42 71.104779 41.104779 72 40 72 C 38.895221 72 38 71.104779 38 70 Z M 40 0 C 17.909007 0 0 17.909007 0 40 C 0 62.090993 17.909007 80 40 80 C 62.090993 80 80 62.090993 80 40 C 80 17.909007 62.090993 0 40 0 Z M 40 0 " transform="matrix(4.25,0,0,4.25,0,0)"/>
</g>
</svg>
