<?xml version="1.0" encoding="UTF-8"?>
<svg xmlns="http://www.w3.org/2000/svg" xmlns:xlink="http://www.w3.org/1999/xlink" width="60" height="60" viewBox="0 0 60 60">
<path fill-rule="nonzero" fill="rgb(93.333333%, 93.333333%, 93.333333%)" fill-opacity="1" d="M 3.492188 15.9375 C 1.261719 20.132812 0 24.917969 0 30 C 0 35.082031 1.261719 39.867188 3.492188 44.0625 L 56.507812 44.0625 C 58.738281 39.867188 60 35.082031 60 30 C 60 24.917969 58.738281 20.132812 56.507812 15.9375 Z M 3.492188 15.9375 "/>
<path fill-rule="nonzero" fill="rgb(0%, 32.156863%, 70.588235%)" fill-opacity="1" d="M 1.820312 19.6875 C 6.023438 8.199219 17.054688 0 30 0 C 42.945312 0 53.976562 8.199219 58.179688 19.6875 L 1.816406 19.6875 Z M 1.820312 19.6875 "/>
<path fill-rule="nonzero" fill="rgb(84.705882%, 0%, 15.294118%)" fill-opacity="1" d="M 1.820312 40.3125 L 58.179688 40.3125 C 53.976562 51.800781 42.945312 60 30 60 C 17.054688 60 6.023438 51.800781 1.820312 40.3125 Z M 1.820312 40.3125 "/>
<path fill-rule="nonzero" fill="rgb(84.705882%, 0%, 15.294118%)" fill-opacity="1" d="M 30 7.734375 L 35 23.121094 L 51.175781 23.121094 L 38.089844 32.628906 L 43.085938 48.015625 L 30 38.503906 L 16.910156 48.015625 L 21.910156 32.628906 L 8.824219 23.121094 L 25 23.121094 Z M 30 7.734375 "/>
<path fill-rule="evenodd" fill="rgb(100%, 77.647059%, 20.784314%)" fill-opacity="1" d="M 35 23.121094 L 30 7.734375 L 25 23.121094 L 8.824219 23.121094 L 21.914062 32.628906 L 16.914062 48.015625 L 30 38.503906 L 43.089844 48.015625 L 38.089844 32.628906 L 51.175781 23.121094 Z M 43.964844 25.464844 L 33.296875 25.464844 L 30 15.320312 L 26.703125 25.464844 L 16.039062 25.464844 L 24.667969 31.734375 L 21.371094 41.878906 L 30 35.609375 L 38.628906 41.878906 L 35.332031 31.734375 Z M 43.964844 25.464844 "/>
</svg>
