<?xml version="1.0" encoding="UTF-8"?>
<svg xmlns="http://www.w3.org/2000/svg" xmlns:xlink="http://www.w3.org/1999/xlink" width="40" height="40" viewBox="0 0 40 40">
<path fill-rule="nonzero" fill="rgb(93.333333%, 93.333333%, 93.333333%)" fill-opacity="1" d="M 2.328125 10.625 C 0.84375 13.421875 0 16.613281 0 20 C 0 23.386719 0.84375 26.578125 2.328125 29.375 L 37.671875 29.375 C 39.15625 26.578125 40 23.386719 40 20 C 40 16.613281 39.15625 13.421875 37.671875 10.625 Z M 2.328125 10.625 "/>
<path fill-rule="nonzero" fill="rgb(0%, 32.156863%, 70.588235%)" fill-opacity="1" d="M 1.214844 13.125 C 4.015625 5.464844 11.371094 0 20 0 C 28.628906 0 35.984375 5.464844 38.785156 13.125 L 1.210938 13.125 Z M 1.214844 13.125 "/>
<path fill-rule="nonzero" fill="rgb(84.705882%, 0%, 15.294118%)" fill-opacity="1" d="M 1.214844 26.875 L 38.789062 26.875 C 35.984375 34.535156 28.628906 40 20 40 C 11.371094 40 4.015625 34.535156 1.214844 26.875 Z M 1.214844 26.875 "/>
<path fill-rule="nonzero" fill="rgb(84.705882%, 0%, 15.294118%)" fill-opacity="1" d="M 20 5.15625 L 23.332031 15.414062 L 34.117188 15.414062 L 25.390625 21.753906 L 28.726562 32.007812 L 20 25.671875 L 11.273438 32.007812 L 14.605469 21.753906 L 5.882812 15.414062 L 16.667969 15.414062 Z M 20 5.15625 "/>
<path fill-rule="evenodd" fill="rgb(100%, 77.647059%, 20.784314%)" fill-opacity="1" d="M 23.332031 15.414062 L 20 5.15625 L 16.667969 15.414062 L 5.882812 15.414062 L 14.609375 21.753906 L 11.277344 32.007812 L 20 25.671875 L 28.726562 32.007812 L 25.394531 21.753906 L 34.117188 15.414062 Z M 29.308594 16.976562 L 22.199219 16.976562 L 20 10.210938 L 17.804688 16.976562 L 10.691406 16.976562 L 16.445312 21.15625 L 14.246094 27.917969 L 20 23.738281 L 25.753906 27.917969 L 23.554688 21.15625 Z M 29.308594 16.976562 "/>
</svg>
