<?xml version="1.0" encoding="UTF-8"?>
<svg xmlns="http://www.w3.org/2000/svg" xmlns:xlink="http://www.w3.org/1999/xlink" width="20" height="20" viewBox="0 0 20 20">
<path fill-rule="nonzero" fill="rgb(93.333333%, 93.333333%, 93.333333%)" fill-opacity="1" d="M 1.164062 5.3125 C 0.421875 6.710938 0 8.304688 0 10 C 0 11.695312 0.421875 13.289062 1.164062 14.6875 L 18.835938 14.6875 C 19.578125 13.289062 20 11.695312 20 10 C 20 8.304688 19.578125 6.710938 18.835938 5.3125 Z M 1.164062 5.3125 "/>
<path fill-rule="nonzero" fill="rgb(0%, 32.156863%, 70.588235%)" fill-opacity="1" d="M 0.605469 6.5625 C 2.007812 2.734375 5.683594 0 10 0 C 14.316406 0 17.992188 2.734375 19.394531 6.5625 Z M 0.605469 6.5625 "/>
<path fill-rule="nonzero" fill="rgb(84.705882%, 0%, 15.294118%)" fill-opacity="1" d="M 0.605469 13.4375 L 19.394531 13.4375 C 17.992188 17.265625 14.316406 20 10 20 C 5.683594 20 2.007812 17.265625 0.605469 13.4375 Z M 0.605469 13.4375 "/>
<path fill-rule="nonzero" fill="rgb(84.705882%, 0%, 15.294118%)" fill-opacity="1" d="M 10 2.578125 L 11.667969 7.707031 L 17.058594 7.707031 L 12.695312 10.875 L 14.363281 16.003906 L 10 12.835938 L 5.636719 16.003906 L 7.304688 10.875 L 2.941406 7.707031 L 8.332031 7.707031 Z M 10 2.578125 "/>
<path fill-rule="evenodd" fill="rgb(100%, 77.647059%, 20.784314%)" fill-opacity="1" d="M 11.667969 7.707031 L 10 2.578125 L 8.332031 7.707031 L 2.941406 7.707031 L 7.304688 10.875 L 5.636719 16.003906 L 10 12.835938 L 14.363281 16.003906 L 12.695312 10.875 L 17.058594 7.707031 Z M 14.65625 8.488281 L 11.097656 8.488281 L 10 5.105469 L 8.902344 8.488281 L 5.347656 8.488281 L 8.222656 10.578125 L 7.125 13.960938 L 10 11.871094 L 12.875 13.960938 L 11.777344 10.578125 Z M 14.65625 8.488281 "/>
</svg>
