<?xml version="1.0" encoding="UTF-8"?>
<svg xmlns="http://www.w3.org/2000/svg" xmlns:xlink="http://www.w3.org/1999/xlink" width="40" height="40" viewBox="0 0 40 40">
<path fill-rule="nonzero" fill="rgb(84.705882%, 0%, 15.294118%)" fill-opacity="1" d="M 29.375 2.328125 C 26.578125 0.84375 23.386719 0 20 0 C 16.613281 0 13.421875 0.84375 10.625 2.328125 L 10.625 37.671875 C 13.421875 39.15625 16.613281 40 20 40 C 23.386719 40 26.578125 39.15625 29.375 37.671875 Z M 29.375 2.328125 "/>
<path fill-rule="nonzero" fill="rgb(84.705882%, 0%, 15.294118%)" fill-opacity="1" d="M 26.875 1.214844 C 34.535156 4.015625 40 11.371094 40 20 C 40 28.628906 34.535156 35.984375 26.875 38.785156 L 26.875 1.210938 Z M 26.875 1.214844 "/>
<path fill-rule="nonzero" fill="rgb(28.627451%, 43.137255%, 17.647059%)" fill-opacity="1" d="M 13.125 1.214844 L 13.125 38.789062 C 5.464844 35.984375 0 28.628906 0 20 C 0 11.371094 5.464844 4.015625 13.125 1.214844 Z M 13.125 1.214844 "/>
<path fill-rule="nonzero" fill="rgb(100%, 85.490196%, 26.666667%)" fill-opacity="1" d="M 13.046875 26.953125 C 16.886719 26.953125 20 23.839844 20 20 C 20 16.160156 16.886719 13.046875 13.046875 13.046875 C 9.207031 13.046875 6.09375 16.160156 6.09375 20 C 6.09375 23.839844 9.207031 26.953125 13.046875 26.953125 Z M 13.046875 26.953125 "/>
<path fill-rule="nonzero" fill="rgb(84.705882%, 0%, 15.294118%)" fill-opacity="1" d="M 8.476562 15.828125 L 8.476562 20.898438 C 8.476562 22.53125 9.34375 24.03125 10.757812 24.851562 C 12.171875 25.664062 13.914062 25.664062 15.328125 24.851562 C 16.742188 24.03125 17.609375 22.53125 17.609375 20.898438 L 17.609375 15.820312 L 8.484375 15.820312 Z M 8.476562 15.828125 "/>
<path fill-rule="nonzero" fill="rgb(93.333333%, 93.333333%, 93.333333%)" fill-opacity="1" d="M 13.046875 23.765625 C 11.570312 23.765625 10.367188 22.5625 10.367188 21.085938 L 10.367188 17.546875 L 15.726562 17.546875 L 15.726562 21.070312 C 15.726562 22.546875 14.523438 23.75 13.046875 23.75 Z M 13.046875 23.765625 "/>
<path fill-rule="evenodd" fill="rgb(0%, 32.156863%, 70.588235%)" fill-opacity="1" d="M 13.046875 19.5 C 12.757812 19.5 12.515625 19.265625 12.515625 18.976562 L 12.515625 18.273438 L 13.578125 18.273438 L 13.578125 18.96875 C 13.578125 19.265625 13.335938 19.5 13.046875 19.5 Z M 13.046875 22.875 C 12.757812 22.875 12.515625 22.632812 12.515625 22.34375 L 12.515625 21.648438 L 13.578125 21.648438 L 13.578125 22.34375 C 13.578125 22.632812 13.335938 22.867188 13.046875 22.867188 Z M 12.515625 20.65625 C 12.515625 20.953125 12.757812 21.1875 13.046875 21.1875 C 13.335938 21.1875 13.578125 20.945312 13.578125 20.65625 L 13.578125 19.960938 L 12.515625 19.960938 Z M 11.5 21.1875 C 11.210938 21.1875 10.976562 20.953125 10.976562 20.65625 L 10.976562 19.960938 L 12.03125 19.960938 L 12.03125 20.65625 C 12.03125 20.945312 11.796875 21.1875 11.5 21.1875 Z M 14.0625 20.65625 C 14.0625 20.953125 14.296875 21.1875 14.59375 21.1875 C 14.882812 21.1875 15.117188 20.945312 15.117188 20.65625 L 15.117188 19.960938 L 14.0625 19.960938 Z M 14.0625 20.65625 "/>
</svg>
