<?xml version="1.0" encoding="UTF-8"?>
<svg xmlns="http://www.w3.org/2000/svg" xmlns:xlink="http://www.w3.org/1999/xlink" width="20" height="20" viewBox="0 0 20 20">
<path fill-rule="nonzero" fill="rgb(84.705882%, 0%, 15.294118%)" fill-opacity="1" d="M 14.6875 1.164062 C 13.289062 0.421875 11.695312 0 10 0 C 8.304688 0 6.710938 0.421875 5.3125 1.164062 L 5.3125 18.835938 C 6.710938 19.578125 8.304688 20 10 20 C 11.695312 20 13.289062 19.578125 14.6875 18.835938 Z M 14.6875 1.164062 "/>
<path fill-rule="nonzero" fill="rgb(84.705882%, 0%, 15.294118%)" fill-opacity="1" d="M 13.4375 0.605469 C 17.265625 2.007812 20 5.683594 20 10 C 20 14.316406 17.265625 17.992188 13.4375 19.394531 Z M 13.4375 0.605469 "/>
<path fill-rule="nonzero" fill="rgb(28.627451%, 43.137255%, 17.647059%)" fill-opacity="1" d="M 6.5625 0.605469 L 6.5625 19.394531 C 2.734375 17.992188 0 14.316406 0 10 C 0 5.683594 2.734375 2.007812 6.5625 0.605469 Z M 6.5625 0.605469 "/>
<path fill-rule="nonzero" fill="rgb(100%, 85.490196%, 26.666667%)" fill-opacity="1" d="M 6.523438 13.476562 C 8.445312 13.476562 10 11.921875 10 10 C 10 8.078125 8.445312 6.523438 6.523438 6.523438 C 4.601562 6.523438 3.046875 8.078125 3.046875 10 C 3.046875 11.921875 4.601562 13.476562 6.523438 13.476562 Z M 6.523438 13.476562 "/>
<path fill-rule="nonzero" fill="rgb(84.705882%, 0%, 15.294118%)" fill-opacity="1" d="M 4.238281 7.914062 L 4.238281 10.449219 C 4.238281 11.265625 4.671875 12.015625 5.378906 12.425781 C 6.085938 12.832031 6.957031 12.832031 7.664062 12.425781 C 8.371094 12.015625 8.804688 11.265625 8.804688 10.449219 L 8.804688 7.910156 L 4.242188 7.910156 Z M 4.238281 7.914062 "/>
<path fill-rule="nonzero" fill="rgb(93.333333%, 93.333333%, 93.333333%)" fill-opacity="1" d="M 6.523438 11.882812 C 5.785156 11.882812 5.183594 11.28125 5.183594 10.542969 L 5.183594 8.773438 L 7.863281 8.773438 L 7.863281 10.535156 C 7.863281 11.273438 7.261719 11.875 6.523438 11.875 Z M 6.523438 11.882812 "/>
<path fill-rule="evenodd" fill="rgb(0%, 32.156863%, 70.588235%)" fill-opacity="1" d="M 6.523438 9.75 C 6.378906 9.75 6.257812 9.632812 6.257812 9.488281 L 6.257812 9.136719 L 6.789062 9.136719 L 6.789062 9.484375 C 6.789062 9.632812 6.667969 9.75 6.523438 9.75 Z M 6.523438 11.4375 C 6.378906 11.4375 6.257812 11.316406 6.257812 11.171875 L 6.257812 10.824219 L 6.789062 10.824219 L 6.789062 11.171875 C 6.789062 11.316406 6.667969 11.433594 6.523438 11.433594 Z M 6.257812 10.328125 C 6.257812 10.476562 6.378906 10.59375 6.523438 10.59375 C 6.667969 10.59375 6.789062 10.472656 6.789062 10.328125 L 6.789062 9.980469 L 6.257812 9.980469 Z M 5.75 10.59375 C 5.605469 10.59375 5.488281 10.476562 5.488281 10.328125 L 5.488281 9.980469 L 6.015625 9.980469 L 6.015625 10.328125 C 6.015625 10.472656 5.898438 10.59375 5.75 10.59375 Z M 7.03125 10.328125 C 7.03125 10.476562 7.148438 10.59375 7.296875 10.59375 C 7.441406 10.59375 7.558594 10.472656 7.558594 10.328125 L 7.558594 9.980469 L 7.03125 9.980469 Z M 7.03125 10.328125 "/>
</svg>
