<?xml version="1.0" encoding="UTF-8"?>
<svg xmlns="http://www.w3.org/2000/svg" xmlns:xlink="http://www.w3.org/1999/xlink" width="60" height="60" viewBox="0 0 60 60">
<path fill-rule="nonzero" fill="rgb(84.705882%, 0%, 15.294118%)" fill-opacity="1" d="M 44.0625 3.492188 C 39.867188 1.261719 35.082031 0 30 0 C 24.917969 0 20.132812 1.261719 15.9375 3.492188 L 15.9375 56.507812 C 20.132812 58.738281 24.917969 60 30 60 C 35.082031 60 39.867188 58.738281 44.0625 56.507812 Z M 44.0625 3.492188 "/>
<path fill-rule="nonzero" fill="rgb(84.705882%, 0%, 15.294118%)" fill-opacity="1" d="M 40.3125 1.820312 C 51.800781 6.023438 60 17.054688 60 30 C 60 42.945312 51.800781 53.976562 40.3125 58.179688 L 40.3125 1.816406 Z M 40.3125 1.820312 "/>
<path fill-rule="nonzero" fill="rgb(28.627451%, 43.137255%, 17.647059%)" fill-opacity="1" d="M 19.6875 1.820312 L 19.6875 58.179688 C 8.199219 53.976562 0 42.945312 0 30 C 0 17.054688 8.199219 6.023438 19.6875 1.820312 Z M 19.6875 1.820312 "/>
<path fill-rule="nonzero" fill="rgb(100%, 85.490196%, 26.666667%)" fill-opacity="1" d="M 19.570312 40.429688 C 25.332031 40.429688 30 35.761719 30 30 C 30 24.238281 25.332031 19.570312 19.570312 19.570312 C 13.808594 19.570312 9.140625 24.238281 9.140625 30 C 9.140625 35.761719 13.808594 40.429688 19.570312 40.429688 Z M 19.570312 40.429688 "/>
<path fill-rule="nonzero" fill="rgb(84.705882%, 0%, 15.294118%)" fill-opacity="1" d="M 12.714844 23.742188 L 12.714844 31.347656 C 12.714844 33.796875 14.015625 36.046875 16.136719 37.277344 C 18.257812 38.496094 20.871094 38.496094 22.992188 37.277344 C 25.113281 36.046875 26.414062 33.796875 26.414062 31.347656 L 26.414062 23.730469 L 12.726562 23.730469 Z M 12.714844 23.742188 "/>
<path fill-rule="nonzero" fill="rgb(93.333333%, 93.333333%, 93.333333%)" fill-opacity="1" d="M 19.570312 35.648438 C 17.355469 35.648438 15.550781 33.84375 15.550781 31.628906 L 15.550781 26.320312 L 23.589844 26.320312 L 23.589844 31.605469 C 23.589844 33.820312 21.785156 35.625 19.570312 35.625 Z M 19.570312 35.648438 "/>
<path fill-rule="evenodd" fill="rgb(0%, 32.156863%, 70.588235%)" fill-opacity="1" d="M 19.570312 29.25 C 19.136719 29.25 18.773438 28.898438 18.773438 28.464844 L 18.773438 27.410156 L 20.367188 27.410156 L 20.367188 28.453125 C 20.367188 28.898438 20.003906 29.25 19.570312 29.25 Z M 19.570312 34.3125 C 19.136719 34.3125 18.773438 33.949219 18.773438 33.515625 L 18.773438 32.472656 L 20.367188 32.472656 L 20.367188 33.515625 C 20.367188 33.949219 20.003906 34.300781 19.570312 34.300781 Z M 18.773438 30.984375 C 18.773438 31.429688 19.136719 31.78125 19.570312 31.78125 C 20.003906 31.78125 20.367188 31.417969 20.367188 30.984375 L 20.367188 29.941406 L 18.773438 29.941406 Z M 17.25 31.78125 C 16.816406 31.78125 16.464844 31.429688 16.464844 30.984375 L 16.464844 29.941406 L 18.046875 29.941406 L 18.046875 30.984375 C 18.046875 31.417969 17.695312 31.78125 17.25 31.78125 Z M 21.09375 30.984375 C 21.09375 31.429688 21.445312 31.78125 21.890625 31.78125 C 22.324219 31.78125 22.675781 31.417969 22.675781 30.984375 L 22.675781 29.941406 L 21.09375 29.941406 Z M 21.09375 30.984375 "/>
</svg>
