<?xml version="1.0" encoding="UTF-8"?>
<svg xmlns="http://www.w3.org/2000/svg" xmlns:xlink="http://www.w3.org/1999/xlink" width="60" height="60" viewBox="0 0 60 60">
<path fill-rule="nonzero" fill="rgb(0%, 32.156863%, 70.588235%)" fill-opacity="1" d="M 60 30 C 60 46.570312 46.570312 60 30 60 C 13.429688 60 0 46.570312 0 30 C 0 13.429688 13.429688 0 30 0 C 46.570312 0 60 13.429688 60 30 Z M 60 30 "/>
<path fill-rule="evenodd" fill="rgb(93.333333%, 93.333333%, 93.333333%)" fill-opacity="1" d="M 11.195312 53.378906 C 10.355469 52.699219 9.550781 51.976562 8.785156 51.214844 L 51.214844 8.785156 C 55.476562 13.050781 58.460938 18.589844 59.546875 24.78125 L 11.199219 53.378906 Z M 11.195312 53.378906 "/>
<path fill-rule="evenodd" fill="rgb(100%, 59.607843%, 6.666667%)" fill-opacity="1" d="M 9.929688 52.296875 C 9.539062 51.945312 9.15625 51.585938 8.785156 51.210938 L 51.214844 8.785156 C 53.355469 10.929688 55.175781 13.394531 56.59375 16.101562 Z M 9.929688 52.296875 "/>
<path fill-rule="nonzero" fill="rgb(93.333333%, 93.333333%, 93.333333%)" fill-opacity="1" d="M 18.75 4.6875 L 19.964844 14.222656 L 23.4375 10.632812 L 22.066406 15.433594 L 26.867188 14.0625 L 23.277344 17.535156 L 32.8125 18.75 L 23.277344 19.964844 L 26.867188 23.4375 L 22.066406 22.066406 L 23.4375 26.867188 L 19.964844 23.277344 L 18.75 32.8125 L 17.535156 23.277344 L 14.0625 26.867188 L 15.433594 22.066406 L 10.632812 23.4375 L 14.222656 19.964844 L 4.6875 18.75 L 14.222656 17.535156 L 10.632812 14.0625 L 15.433594 15.433594 L 14.0625 10.632812 L 17.535156 14.222656 Z M 18.75 4.6875 "/>
</svg>
