<?xml version="1.0" encoding="UTF-8"?>
<svg xmlns="http://www.w3.org/2000/svg" xmlns:xlink="http://www.w3.org/1999/xlink" width="40" height="40" viewBox="0 0 40 40">
<path fill-rule="nonzero" fill="rgb(0%, 32.156863%, 70.588235%)" fill-opacity="1" d="M 40 20 C 40 31.046875 31.046875 40 20 40 C 8.953125 40 0 31.046875 0 20 C 0 8.953125 8.953125 0 20 0 C 31.046875 0 40 8.953125 40 20 Z M 40 20 "/>
<path fill-rule="evenodd" fill="rgb(93.333333%, 93.333333%, 93.333333%)" fill-opacity="1" d="M 7.464844 35.585938 C 6.902344 35.132812 6.367188 34.652344 5.859375 34.140625 L 34.140625 5.859375 C 36.984375 8.699219 38.976562 12.394531 39.699219 16.523438 Z M 7.464844 35.585938 "/>
<path fill-rule="evenodd" fill="rgb(100%, 59.607843%, 6.666667%)" fill-opacity="1" d="M 6.621094 34.863281 C 6.359375 34.628906 6.105469 34.390625 5.859375 34.140625 L 34.140625 5.855469 C 35.570312 7.285156 36.785156 8.929688 37.730469 10.734375 Z M 6.621094 34.863281 "/>
<path fill-rule="nonzero" fill="rgb(93.333333%, 93.333333%, 93.333333%)" fill-opacity="1" d="M 12.5 3.125 L 13.308594 9.480469 L 15.625 7.085938 L 14.710938 10.289062 L 17.914062 9.375 L 15.519531 11.691406 L 21.875 12.5 L 15.519531 13.308594 L 17.914062 15.625 L 14.710938 14.710938 L 15.625 17.914062 L 13.308594 15.519531 L 12.5 21.875 L 11.691406 15.519531 L 9.375 17.914062 L 10.289062 14.710938 L 7.085938 15.625 L 9.480469 13.308594 L 3.125 12.5 L 9.480469 11.691406 L 7.085938 9.375 L 10.289062 10.289062 L 9.375 7.085938 L 11.691406 9.480469 Z M 12.5 3.125 "/>
</svg>
