<?xml version="1.0" encoding="UTF-8"?>
<svg xmlns="http://www.w3.org/2000/svg" xmlns:xlink="http://www.w3.org/1999/xlink" width="20" height="20" viewBox="0 0 20 20">
<path fill-rule="nonzero" fill="rgb(0%, 32.156863%, 70.588235%)" fill-opacity="1" d="M 20 10 C 20 15.523438 15.523438 20 10 20 C 4.476562 20 0 15.523438 0 10 C 0 4.476562 4.476562 0 10 0 C 15.523438 0 20 4.476562 20 10 Z M 20 10 "/>
<path fill-rule="evenodd" fill="rgb(93.333333%, 93.333333%, 93.333333%)" fill-opacity="1" d="M 3.734375 17.792969 C 3.453125 17.566406 3.183594 17.324219 2.929688 17.070312 L 17.070312 2.929688 C 18.492188 4.351562 19.488281 6.195312 19.847656 8.261719 Z M 3.734375 17.792969 "/>
<path fill-rule="evenodd" fill="rgb(100%, 59.607843%, 6.666667%)" fill-opacity="1" d="M 3.308594 17.433594 C 3.179688 17.316406 3.050781 17.195312 2.929688 17.070312 L 17.070312 2.929688 C 17.785156 3.644531 18.390625 4.464844 18.863281 5.367188 Z M 3.308594 17.433594 "/>
<path fill-rule="nonzero" fill="rgb(93.333333%, 93.333333%, 93.333333%)" fill-opacity="1" d="M 6.25 1.5625 L 6.65625 4.742188 L 7.8125 3.542969 L 7.355469 5.144531 L 8.957031 4.6875 L 7.757812 5.84375 L 10.9375 6.25 L 7.757812 6.65625 L 8.957031 7.8125 L 7.355469 7.355469 L 7.8125 8.957031 L 6.65625 7.757812 L 6.25 10.9375 L 5.84375 7.757812 L 4.6875 8.957031 L 5.144531 7.355469 L 3.542969 7.8125 L 4.742188 6.65625 L 1.5625 6.25 L 4.742188 5.84375 L 3.542969 4.6875 L 5.144531 5.144531 L 4.6875 3.542969 L 5.84375 4.742188 Z M 6.25 1.5625 "/>
</svg>
