<?xml version="1.0" encoding="UTF-8"?>
<svg xmlns="http://www.w3.org/2000/svg" xmlns:xlink="http://www.w3.org/1999/xlink" width="60" height="60" viewBox="0 0 60 60">
<path fill-rule="nonzero" fill="rgb(93.333333%, 93.333333%, 93.333333%)" fill-opacity="1" d="M 15 55.984375 C 19.414062 58.539062 24.535156 60 30 60 C 35.464844 60 40.585938 58.539062 45 55.984375 L 45 4.015625 C 40.585938 1.460938 35.464844 0 30 0 C 24.535156 0 19.414062 1.460938 15 4.015625 Z M 15 55.984375 "/>
<path fill-rule="nonzero" fill="rgb(28.627451%, 43.137255%, 17.647059%)" fill-opacity="1" d="M 0 29.988281 C 0.00390625 18.132812 6.886719 7.882812 16.875 3.015625 L 16.875 56.984375 C 6.886719 52.117188 0.00390625 41.867188 0 30.007812 C 0 30.007812 0 30.003906 0 30 C 0 29.996094 0 29.992188 0 29.988281 Z M 0 29.988281 "/>
<path fill-rule="nonzero" fill="rgb(84.705882%, 0%, 15.294118%)" fill-opacity="1" d="M 60 30 C 60 18.136719 53.117188 7.882812 43.125 3.015625 L 43.125 56.984375 C 53.117188 52.117188 60 41.863281 60 30 Z M 60 30 "/>
<path fill-rule="nonzero" fill="rgb(100%, 77.647059%, 20.784314%)" fill-opacity="1" d="M 30 32.460938 L 30 33.632812 L 31.40625 33.632812 L 32.578125 31.054688 Z M 30 32.460938 "/>
<path fill-rule="nonzero" fill="rgb(28.627451%, 43.137255%, 17.647059%)" fill-opacity="1" d="M 18.75 28.359375 C 18.75 31.34375 19.933594 34.203125 22.046875 36.3125 C 24.15625 38.425781 27.015625 39.609375 30 39.609375 C 32.984375 39.609375 35.84375 38.425781 37.953125 36.3125 C 40.066406 34.203125 41.25 31.34375 41.25 28.359375 L 39.960938 28.359375 C 39.960938 31 38.910156 33.535156 37.042969 35.402344 C 35.175781 37.269531 32.640625 38.320312 30 38.320312 C 27.359375 38.320312 24.824219 37.269531 22.957031 35.402344 C 21.089844 33.535156 20.039062 31 20.039062 28.359375 Z M 23.320312 30.351562 L 22.851562 30.585938 C 22.617188 30.820312 22.617188 31.289062 22.96875 31.523438 C 24.726562 33.164062 26.953125 34.101562 29.296875 34.335938 L 29.296875 36.328125 L 30.703125 36.328125 L 30.703125 34.335938 C 33.046875 34.101562 35.273438 33.164062 37.03125 31.523438 C 37.382812 31.289062 37.382812 30.820312 37.148438 30.585938 C 36.914062 30.351562 36.445312 30.351562 36.210938 30.585938 C 34.523438 32.160156 32.304688 33.039062 30 33.046875 C 27.773438 33.046875 25.546875 32.109375 23.789062 30.585938 Z M 23.320312 30.351562 "/>
<path fill-rule="nonzero" fill="rgb(20%, 54.117647%, 95.294118%)" fill-opacity="1" d="M 30 37.03125 C 28.359375 37.03125 26.71875 36.445312 25.3125 35.507812 L 26.015625 34.453125 C 28.359375 35.976562 31.640625 35.976562 33.984375 34.453125 L 34.804688 35.507812 C 33.398438 36.445312 31.757812 37.03125 30 37.03125 Z M 30 37.03125 "/>
<path fill-rule="nonzero" fill="rgb(34.509804%, 27.058824%, 15.686275%)" fill-opacity="1" d="M 30 20.390625 C 32.578125 21.679688 31.40625 24.257812 31.289062 24.375 L 31.054688 23.90625 C 30.46875 22.617188 28.945312 21.796875 27.421875 21.796875 L 27.421875 23.085938 C 28.125 23.085938 28.710938 23.671875 28.710938 24.375 C 27.890625 25.195312 27.65625 26.367188 28.242188 27.421875 L 28.710938 28.359375 L 27.1875 31.054688 L 30.585938 30.234375 L 32.695312 32.34375 L 32.695312 31.054688 L 33.984375 32.34375 L 36.679688 31.054688 L 32.578125 28.59375 L 31.992188 26.132812 L 35.273438 28.007812 C 35.742188 29.296875 36.679688 30.46875 37.96875 31.054688 C 39.023438 21.328125 33.046875 20.390625 30.820312 20.390625 Z M 30 20.390625 "/>
<path fill-rule="nonzero" fill="rgb(42.745098%, 64.705882%, 26.666667%)" fill-opacity="1" d="M 26.015625 31.757812 C 24.257812 31.757812 22.148438 30.351562 21.5625 27.070312 L 22.851562 26.835938 C 23.320312 29.53125 24.960938 30.46875 26.015625 30.46875 C 26.367188 30.46875 26.601562 30.351562 26.71875 30.117188 C 26.71875 29.882812 26.71875 29.765625 26.015625 29.53125 C 25.664062 29.414062 25.195312 29.296875 24.84375 28.945312 C 23.671875 27.539062 25.3125 26.132812 26.132812 25.429688 C 26.25 25.3125 26.367188 25.195312 26.25 25.078125 C 26.25 25.078125 26.015625 24.84375 25.664062 24.84375 C 24.84375 24.84375 24.257812 24.375 24.023438 23.554688 C 23.789062 22.851562 24.257812 22.03125 24.960938 21.5625 L 25.546875 22.851562 C 25.3125 22.851562 25.3125 23.085938 25.3125 23.320312 C 25.3125 23.320312 25.429688 23.554688 25.664062 23.554688 C 26.484375 23.554688 27.304688 24.023438 27.539062 24.609375 C 27.65625 24.960938 27.773438 25.664062 26.953125 26.367188 C 26.132812 27.1875 25.664062 27.773438 25.898438 28.125 L 26.484375 28.242188 C 27.070312 28.476562 28.125 28.828125 28.007812 30.234375 C 27.890625 31.171875 27.070312 31.757812 26.015625 31.757812 Z M 26.015625 31.757812 "/>
<path fill-rule="evenodd" fill="rgb(100%, 77.647059%, 20.784314%)" fill-opacity="1" d="M 27.421875 21.796875 L 26.015625 23.085938 L 26.015625 24.375 L 28.125 23.320312 C 28.476562 23.203125 28.476562 22.734375 28.242188 22.5 Z M 20.15625 33.164062 C 20.675781 33.164062 21.09375 32.746094 21.09375 32.226562 C 21.09375 31.707031 20.675781 31.289062 20.15625 31.289062 C 19.636719 31.289062 19.21875 31.707031 19.21875 32.226562 C 19.21875 32.746094 19.636719 33.164062 20.15625 33.164062 Z M 23.085938 35.390625 C 23.085938 35.910156 22.667969 36.328125 22.148438 36.328125 C 21.628906 36.328125 21.210938 35.910156 21.210938 35.390625 C 21.210938 34.871094 21.628906 34.453125 22.148438 34.453125 C 22.667969 34.453125 23.085938 34.871094 23.085938 35.390625 Z M 25.3125 38.789062 C 25.832031 38.789062 26.25 38.371094 26.25 37.851562 C 26.25 37.332031 25.832031 36.914062 25.3125 36.914062 C 24.792969 36.914062 24.375 37.332031 24.375 37.851562 C 24.375 38.371094 24.792969 38.789062 25.3125 38.789062 Z M 35.742188 37.851562 C 35.742188 38.371094 35.324219 38.789062 34.804688 38.789062 C 34.285156 38.789062 33.867188 38.371094 33.867188 37.851562 C 33.867188 37.332031 34.285156 36.914062 34.804688 36.914062 C 35.324219 36.914062 35.742188 37.332031 35.742188 37.851562 Z M 37.96875 36.328125 C 38.488281 36.328125 38.90625 35.910156 38.90625 35.390625 C 38.90625 34.871094 38.488281 34.453125 37.96875 34.453125 C 37.449219 34.453125 37.03125 34.871094 37.03125 35.390625 C 37.03125 35.910156 37.449219 36.328125 37.96875 36.328125 Z M 40.898438 32.226562 C 40.898438 32.746094 40.480469 33.164062 39.960938 33.164062 C 39.441406 33.164062 39.023438 32.746094 39.023438 32.226562 C 39.023438 31.707031 39.441406 31.289062 39.960938 31.289062 C 40.480469 31.289062 40.898438 31.707031 40.898438 32.226562 Z M 40.898438 32.226562 "/>
<path fill-rule="nonzero" fill="rgb(100%, 59.607843%, 6.666667%)" fill-opacity="1" d="M 30.703125 35.039062 L 29.296875 35.039062 C 28.585938 35.039062 28.007812 35.617188 28.007812 36.328125 C 28.007812 37.039062 28.585938 37.617188 29.296875 37.617188 L 30.703125 37.617188 C 31.414062 37.617188 31.992188 37.039062 31.992188 36.328125 C 31.992188 35.617188 31.414062 35.039062 30.703125 35.039062 Z M 30.703125 35.039062 "/>
</svg>
