<?xml version="1.0" encoding="UTF-8"?>
<svg xmlns="http://www.w3.org/2000/svg" xmlns:xlink="http://www.w3.org/1999/xlink" width="40" height="40" viewBox="0 0 40 40">
<path fill-rule="nonzero" fill="rgb(93.333333%, 93.333333%, 93.333333%)" fill-opacity="1" d="M 10 37.324219 C 12.941406 39.027344 16.355469 40 20 40 C 23.644531 40 27.058594 39.027344 30 37.324219 L 30 2.675781 C 27.058594 0.972656 23.644531 0 20 0 C 16.355469 0 12.941406 0.972656 10 2.675781 Z M 10 37.324219 "/>
<path fill-rule="nonzero" fill="rgb(28.627451%, 43.137255%, 17.647059%)" fill-opacity="1" d="M 0 19.992188 C 0.00390625 12.089844 4.589844 5.253906 11.25 2.011719 L 11.25 37.988281 C 4.589844 34.746094 0.00390625 27.910156 0 20.007812 C 0 20.003906 0 20 0 20 C 0 19.996094 0 19.996094 0 19.992188 Z M 0 19.992188 "/>
<path fill-rule="nonzero" fill="rgb(84.705882%, 0%, 15.294118%)" fill-opacity="1" d="M 40 20 C 40 12.09375 35.410156 5.257812 28.75 2.011719 L 28.75 37.988281 C 35.410156 34.742188 40 27.910156 40 20 Z M 40 20 "/>
<path fill-rule="nonzero" fill="rgb(100%, 77.647059%, 20.784314%)" fill-opacity="1" d="M 20 21.640625 L 20 22.421875 L 20.9375 22.421875 L 21.71875 20.703125 Z M 20 21.640625 "/>
<path fill-rule="nonzero" fill="rgb(28.627451%, 43.137255%, 17.647059%)" fill-opacity="1" d="M 12.5 18.90625 C 12.5 20.894531 13.289062 22.804688 14.695312 24.210938 C 16.101562 25.617188 18.011719 26.40625 20 26.40625 C 21.988281 26.40625 23.898438 25.617188 25.304688 24.210938 C 26.710938 22.804688 27.5 20.894531 27.5 18.90625 L 26.640625 18.90625 C 26.640625 20.667969 25.941406 22.355469 24.695312 23.601562 C 23.449219 24.847656 21.761719 25.546875 20 25.546875 C 18.238281 25.546875 16.550781 24.847656 15.304688 23.601562 C 14.058594 22.355469 13.359375 20.667969 13.359375 18.90625 Z M 15.546875 20.234375 L 15.234375 20.390625 C 15.078125 20.546875 15.078125 20.859375 15.3125 21.015625 C 16.484375 22.109375 17.96875 22.734375 19.53125 22.890625 L 19.53125 24.21875 L 20.46875 24.21875 L 20.46875 22.890625 C 22.03125 22.734375 23.515625 22.109375 24.6875 21.015625 C 24.921875 20.859375 24.921875 20.546875 24.765625 20.390625 C 24.609375 20.234375 24.296875 20.234375 24.140625 20.390625 C 23.015625 21.441406 21.539062 22.027344 20 22.03125 C 18.515625 22.03125 17.03125 21.40625 15.859375 20.390625 Z M 15.546875 20.234375 "/>
<path fill-rule="nonzero" fill="rgb(20%, 54.117647%, 95.294118%)" fill-opacity="1" d="M 20 24.6875 C 18.90625 24.6875 17.8125 24.296875 16.875 23.671875 L 17.34375 22.96875 C 18.90625 23.984375 21.09375 23.984375 22.65625 22.96875 L 23.203125 23.671875 C 22.265625 24.296875 21.171875 24.6875 20 24.6875 Z M 20 24.6875 "/>
<path fill-rule="nonzero" fill="rgb(34.509804%, 27.058824%, 15.686275%)" fill-opacity="1" d="M 20 13.59375 C 21.71875 14.453125 20.9375 16.171875 20.859375 16.25 L 20.703125 15.9375 C 20.3125 15.078125 19.296875 14.53125 18.28125 14.53125 L 18.28125 15.390625 C 18.75 15.390625 19.140625 15.78125 19.140625 16.25 C 18.59375 16.796875 18.4375 17.578125 18.828125 18.28125 L 19.140625 18.90625 L 18.125 20.703125 L 20.390625 20.15625 L 21.796875 21.5625 L 21.796875 20.703125 L 22.65625 21.5625 L 24.453125 20.703125 L 21.71875 19.0625 L 21.328125 17.421875 L 23.515625 18.671875 C 23.828125 19.53125 24.453125 20.3125 25.3125 20.703125 C 26.015625 14.21875 22.03125 13.59375 20.546875 13.59375 Z M 20 13.59375 "/>
<path fill-rule="nonzero" fill="rgb(42.745098%, 64.705882%, 26.666667%)" fill-opacity="1" d="M 17.34375 21.171875 C 16.171875 21.171875 14.765625 20.234375 14.375 18.046875 L 15.234375 17.890625 C 15.546875 19.6875 16.640625 20.3125 17.34375 20.3125 C 17.578125 20.3125 17.734375 20.234375 17.8125 20.078125 C 17.8125 19.921875 17.8125 19.84375 17.34375 19.6875 C 17.109375 19.609375 16.796875 19.53125 16.5625 19.296875 C 15.78125 18.359375 16.875 17.421875 17.421875 16.953125 C 17.5 16.875 17.578125 16.796875 17.5 16.71875 C 17.5 16.71875 17.34375 16.5625 17.109375 16.5625 C 16.5625 16.5625 16.171875 16.25 16.015625 15.703125 C 15.859375 15.234375 16.171875 14.6875 16.640625 14.375 L 17.03125 15.234375 C 16.875 15.234375 16.875 15.390625 16.875 15.546875 C 16.875 15.546875 16.953125 15.703125 17.109375 15.703125 C 17.65625 15.703125 18.203125 16.015625 18.359375 16.40625 C 18.4375 16.640625 18.515625 17.109375 17.96875 17.578125 C 17.421875 18.125 17.109375 18.515625 17.265625 18.75 L 17.65625 18.828125 C 18.046875 18.984375 18.75 19.21875 18.671875 20.15625 C 18.59375 20.78125 18.046875 21.171875 17.34375 21.171875 Z M 17.34375 21.171875 "/>
<path fill-rule="evenodd" fill="rgb(100%, 77.647059%, 20.784314%)" fill-opacity="1" d="M 18.28125 14.53125 L 17.34375 15.390625 L 17.34375 16.25 L 18.75 15.546875 C 18.984375 15.46875 18.984375 15.15625 18.828125 15 Z M 13.4375 22.109375 C 13.78125 22.109375 14.0625 21.828125 14.0625 21.484375 C 14.0625 21.140625 13.78125 20.859375 13.4375 20.859375 C 13.09375 20.859375 12.8125 21.140625 12.8125 21.484375 C 12.8125 21.828125 13.09375 22.109375 13.4375 22.109375 Z M 15.390625 23.59375 C 15.390625 23.9375 15.109375 24.21875 14.765625 24.21875 C 14.421875 24.21875 14.140625 23.9375 14.140625 23.59375 C 14.140625 23.25 14.421875 22.96875 14.765625 22.96875 C 15.109375 22.96875 15.390625 23.25 15.390625 23.59375 Z M 16.875 25.859375 C 17.21875 25.859375 17.5 25.578125 17.5 25.234375 C 17.5 24.890625 17.21875 24.609375 16.875 24.609375 C 16.53125 24.609375 16.25 24.890625 16.25 25.234375 C 16.25 25.578125 16.53125 25.859375 16.875 25.859375 Z M 23.828125 25.234375 C 23.828125 25.578125 23.546875 25.859375 23.203125 25.859375 C 22.859375 25.859375 22.578125 25.578125 22.578125 25.234375 C 22.578125 24.890625 22.859375 24.609375 23.203125 24.609375 C 23.546875 24.609375 23.828125 24.890625 23.828125 25.234375 Z M 25.3125 24.21875 C 25.65625 24.21875 25.9375 23.9375 25.9375 23.59375 C 25.9375 23.25 25.65625 22.96875 25.3125 22.96875 C 24.96875 22.96875 24.6875 23.25 24.6875 23.59375 C 24.6875 23.9375 24.96875 24.21875 25.3125 24.21875 Z M 27.265625 21.484375 C 27.265625 21.828125 26.984375 22.109375 26.640625 22.109375 C 26.296875 22.109375 26.015625 21.828125 26.015625 21.484375 C 26.015625 21.140625 26.296875 20.859375 26.640625 20.859375 C 26.984375 20.859375 27.265625 21.140625 27.265625 21.484375 Z M 27.265625 21.484375 "/>
<path fill-rule="nonzero" fill="rgb(100%, 59.607843%, 6.666667%)" fill-opacity="1" d="M 20.46875 23.359375 L 19.53125 23.359375 C 19.054688 23.359375 18.671875 23.742188 18.671875 24.21875 C 18.671875 24.695312 19.054688 25.078125 19.53125 25.078125 L 20.46875 25.078125 C 20.945312 25.078125 21.328125 24.695312 21.328125 24.21875 C 21.328125 23.742188 20.945312 23.359375 20.46875 23.359375 Z M 20.46875 23.359375 "/>
</svg>
