<?xml version="1.0" encoding="UTF-8"?>
<svg xmlns="http://www.w3.org/2000/svg" xmlns:xlink="http://www.w3.org/1999/xlink" width="20" height="20" viewBox="0 0 20 20">
<path fill-rule="nonzero" fill="rgb(93.333333%, 93.333333%, 93.333333%)" fill-opacity="1" d="M 5 18.664062 C 6.472656 19.511719 8.179688 20 10 20 C 11.820312 20 13.527344 19.511719 15 18.664062 L 15 1.335938 C 13.527344 0.488281 11.820312 0 10 0 C 8.179688 0 6.472656 0.488281 5 1.335938 Z M 5 18.664062 "/>
<path fill-rule="nonzero" fill="rgb(28.627451%, 43.137255%, 17.647059%)" fill-opacity="1" d="M 0 9.996094 C 0 6.042969 2.296875 2.628906 5.625 1.003906 L 5.625 18.996094 C 2.296875 17.371094 0 13.957031 0 10.003906 C 0 10 0 10 0 10 C 0 10 0 9.996094 0 9.996094 Z M 0 9.996094 "/>
<path fill-rule="nonzero" fill="rgb(84.705882%, 0%, 15.294118%)" fill-opacity="1" d="M 20 10 C 20 6.046875 17.707031 2.628906 14.375 1.003906 L 14.375 18.996094 C 17.707031 17.371094 20 13.953125 20 10 Z M 20 10 "/>
<path fill-rule="nonzero" fill="rgb(100%, 77.647059%, 20.784314%)" fill-opacity="1" d="M 10 10.820312 L 10 11.210938 L 10.46875 11.210938 L 10.859375 10.351562 Z M 10 10.820312 "/>
<path fill-rule="nonzero" fill="rgb(28.627451%, 43.137255%, 17.647059%)" fill-opacity="1" d="M 6.25 9.453125 C 6.25 10.449219 6.644531 11.402344 7.347656 12.105469 C 8.050781 12.808594 9.003906 13.203125 10 13.203125 C 10.996094 13.203125 11.949219 12.808594 12.652344 12.105469 C 13.355469 11.402344 13.75 10.449219 13.75 9.453125 L 13.320312 9.453125 C 13.320312 10.332031 12.96875 11.179688 12.347656 11.800781 C 11.726562 12.421875 10.878906 12.773438 10 12.773438 C 9.121094 12.773438 8.273438 12.421875 7.652344 11.800781 C 7.03125 11.179688 6.679688 10.332031 6.679688 9.453125 Z M 7.773438 10.117188 L 7.617188 10.195312 C 7.539062 10.273438 7.539062 10.429688 7.65625 10.507812 C 8.242188 11.054688 8.984375 11.367188 9.765625 11.445312 L 9.765625 12.109375 L 10.234375 12.109375 L 10.234375 11.445312 C 11.015625 11.367188 11.757812 11.054688 12.34375 10.507812 C 12.460938 10.429688 12.460938 10.273438 12.382812 10.195312 C 12.304688 10.117188 12.148438 10.117188 12.070312 10.195312 C 11.507812 10.71875 10.769531 11.011719 10 11.015625 C 9.257812 11.015625 8.515625 10.703125 7.929688 10.195312 Z M 7.773438 10.117188 "/>
<path fill-rule="nonzero" fill="rgb(20%, 54.117647%, 95.294118%)" fill-opacity="1" d="M 10 12.34375 C 9.453125 12.34375 8.90625 12.148438 8.4375 11.835938 L 8.671875 11.484375 C 9.453125 11.992188 10.546875 11.992188 11.328125 11.484375 L 11.601562 11.835938 C 11.132812 12.148438 10.585938 12.34375 10 12.34375 Z M 10 12.34375 "/>
<path fill-rule="nonzero" fill="rgb(34.509804%, 27.058824%, 15.686275%)" fill-opacity="1" d="M 10 6.796875 C 10.859375 7.226562 10.46875 8.085938 10.429688 8.125 L 10.351562 7.96875 C 10.15625 7.539062 9.648438 7.265625 9.140625 7.265625 L 9.140625 7.695312 C 9.375 7.695312 9.570312 7.890625 9.570312 8.125 C 9.296875 8.398438 9.21875 8.789062 9.414062 9.140625 L 9.570312 9.453125 L 9.0625 10.351562 L 10.195312 10.078125 L 10.898438 10.78125 L 10.898438 10.351562 L 11.328125 10.78125 L 12.226562 10.351562 L 10.859375 9.53125 L 10.664062 8.710938 L 11.757812 9.335938 C 11.914062 9.765625 12.226562 10.15625 12.65625 10.351562 C 13.007812 7.109375 11.015625 6.796875 10.273438 6.796875 Z M 10 6.796875 "/>
<path fill-rule="nonzero" fill="rgb(42.745098%, 64.705882%, 26.666667%)" fill-opacity="1" d="M 8.671875 10.585938 C 8.085938 10.585938 7.382812 10.117188 7.1875 9.023438 L 7.617188 8.945312 C 7.773438 9.84375 8.320312 10.15625 8.671875 10.15625 C 8.789062 10.15625 8.867188 10.117188 8.90625 10.039062 C 8.90625 9.960938 8.90625 9.921875 8.671875 9.84375 C 8.554688 9.804688 8.398438 9.765625 8.28125 9.648438 C 7.890625 9.179688 8.4375 8.710938 8.710938 8.476562 C 8.75 8.4375 8.789062 8.398438 8.75 8.359375 C 8.75 8.359375 8.671875 8.28125 8.554688 8.28125 C 8.28125 8.28125 8.085938 8.125 8.007812 7.851562 C 7.929688 7.617188 8.085938 7.34375 8.320312 7.1875 L 8.515625 7.617188 C 8.4375 7.617188 8.4375 7.695312 8.4375 7.773438 C 8.4375 7.773438 8.476562 7.851562 8.554688 7.851562 C 8.828125 7.851562 9.101562 8.007812 9.179688 8.203125 C 9.21875 8.320312 9.257812 8.554688 8.984375 8.789062 C 8.710938 9.0625 8.554688 9.257812 8.632812 9.375 L 8.828125 9.414062 C 9.023438 9.492188 9.375 9.609375 9.335938 10.078125 C 9.296875 10.390625 9.023438 10.585938 8.671875 10.585938 Z M 8.671875 10.585938 "/>
<path fill-rule="evenodd" fill="rgb(100%, 77.647059%, 20.784314%)" fill-opacity="1" d="M 9.140625 7.265625 L 8.671875 7.695312 L 8.671875 8.125 L 9.375 7.773438 C 9.492188 7.734375 9.492188 7.578125 9.414062 7.5 Z M 6.71875 11.054688 C 6.890625 11.054688 7.03125 10.914062 7.03125 10.742188 C 7.03125 10.570312 6.890625 10.429688 6.71875 10.429688 C 6.546875 10.429688 6.40625 10.570312 6.40625 10.742188 C 6.40625 10.914062 6.546875 11.054688 6.71875 11.054688 Z M 7.695312 11.796875 C 7.695312 11.96875 7.554688 12.109375 7.382812 12.109375 C 7.210938 12.109375 7.070312 11.96875 7.070312 11.796875 C 7.070312 11.625 7.210938 11.484375 7.382812 11.484375 C 7.554688 11.484375 7.695312 11.625 7.695312 11.796875 Z M 8.4375 12.929688 C 8.609375 12.929688 8.75 12.789062 8.75 12.617188 C 8.75 12.445312 8.609375 12.304688 8.4375 12.304688 C 8.265625 12.304688 8.125 12.445312 8.125 12.617188 C 8.125 12.789062 8.265625 12.929688 8.4375 12.929688 Z M 11.914062 12.617188 C 11.914062 12.789062 11.773438 12.929688 11.601562 12.929688 C 11.429688 12.929688 11.289062 12.789062 11.289062 12.617188 C 11.289062 12.445312 11.429688 12.304688 11.601562 12.304688 C 11.773438 12.304688 11.914062 12.445312 11.914062 12.617188 Z M 12.65625 12.109375 C 12.828125 12.109375 12.96875 11.96875 12.96875 11.796875 C 12.96875 11.625 12.828125 11.484375 12.65625 11.484375 C 12.484375 11.484375 12.34375 11.625 12.34375 11.796875 C 12.34375 11.96875 12.484375 12.109375 12.65625 12.109375 Z M 13.632812 10.742188 C 13.632812 10.914062 13.492188 11.054688 13.320312 11.054688 C 13.148438 11.054688 13.007812 10.914062 13.007812 10.742188 C 13.007812 10.570312 13.148438 10.429688 13.320312 10.429688 C 13.492188 10.429688 13.632812 10.570312 13.632812 10.742188 Z M 13.632812 10.742188 "/>
<path fill-rule="nonzero" fill="rgb(100%, 59.607843%, 6.666667%)" fill-opacity="1" d="M 10.234375 11.679688 L 9.765625 11.679688 C 9.527344 11.679688 9.335938 11.871094 9.335938 12.109375 C 9.335938 12.347656 9.527344 12.539062 9.765625 12.539062 L 10.234375 12.539062 C 10.472656 12.539062 10.664062 12.347656 10.664062 12.109375 C 10.664062 11.871094 10.472656 11.679688 10.234375 11.679688 Z M 10.234375 11.679688 "/>
</svg>
