<?xml version="1.0" encoding="UTF-8"?>
<svg xmlns="http://www.w3.org/2000/svg" xmlns:xlink="http://www.w3.org/1999/xlink" width="20" height="20" viewBox="0 0 20 20">
<path fill-rule="nonzero" fill="rgb(93.333333%, 93.333333%, 93.333333%)" fill-opacity="1" d="M 18.664062 15 C 19.511719 13.527344 20 11.820312 20 10 C 20 8.179688 19.511719 6.472656 18.664062 5 L 1.335938 5 C 0.488281 6.472656 0 8.179688 0 10 C 0 11.820312 0.488281 13.527344 1.335938 15 Z M 18.664062 15 "/>
<path fill-rule="nonzero" fill="rgb(28.627451%, 43.137255%, 17.647059%)" fill-opacity="1" d="M 9.996094 20 C 6.042969 20 2.628906 17.703125 1.003906 14.375 L 18.996094 14.375 C 17.371094 17.703125 13.957031 20 10.003906 20 Z M 9.996094 20 "/>
<path fill-rule="nonzero" fill="rgb(100%, 59.607843%, 6.666667%)" fill-opacity="1" d="M 10 0 C 6.046875 0 2.628906 2.292969 1.003906 5.625 L 18.996094 5.625 C 17.371094 2.292969 13.953125 0 10 0 Z M 10 0 "/>
<path fill-rule="evenodd" fill="rgb(0%, 13.333333%, 40%)" fill-opacity="1" d="M 9.785156 11.089844 L 9.960938 12.828125 C 9.828125 12.828125 9.695312 12.816406 9.570312 12.796875 C 9.605469 12.636719 9.507812 12.476562 9.34375 12.429688 C 9.183594 12.386719 9.019531 12.480469 8.964844 12.636719 C 8.84375 12.589844 8.726562 12.53125 8.613281 12.46875 L 9.632812 11.050781 L 9.636719 10.882812 C 9.707031 10.914062 9.785156 10.933594 9.867188 10.945312 Z M 10.117188 10.945312 L 10.199219 11.089844 L 10.023438 12.828125 C 10.15625 12.828125 10.285156 12.816406 10.414062 12.796875 C 10.378906 12.636719 10.476562 12.476562 10.640625 12.429688 C 10.800781 12.386719 10.964844 12.480469 11.015625 12.636719 C 11.140625 12.589844 11.257812 12.53125 11.371094 12.46875 L 10.351562 11.050781 L 10.347656 10.882812 C 10.273438 10.914062 10.199219 10.933594 10.117188 10.945312 Z M 10.566406 10.757812 L 10.707031 10.84375 L 11.425781 12.4375 C 11.539062 12.371094 11.644531 12.296875 11.746094 12.214844 C 11.636719 12.089844 11.640625 11.902344 11.757812 11.785156 C 11.878906 11.667969 12.066406 11.664062 12.1875 11.773438 C 12.269531 11.671875 12.34375 11.5625 12.410156 11.449219 L 10.820312 10.730469 L 10.734375 10.589844 C 10.683594 10.652344 10.628906 10.710938 10.566406 10.757812 Z M 10.859375 10.371094 L 11.023438 10.375 L 12.445312 11.394531 C 12.507812 11.28125 12.5625 11.164062 12.613281 11.042969 C 12.453125 10.992188 12.363281 10.824219 12.40625 10.664062 C 12.449219 10.503906 12.613281 10.40625 12.773438 10.4375 C 12.792969 10.3125 12.800781 10.179688 12.804688 10.046875 L 11.066406 10.222656 L 10.921875 10.140625 C 10.910156 10.222656 10.890625 10.300781 10.859375 10.371094 Z M 10.921875 9.890625 L 11.066406 9.8125 L 12.804688 9.984375 C 12.800781 9.851562 12.792969 9.722656 12.773438 9.59375 C 12.613281 9.628906 12.449219 9.53125 12.40625 9.371094 C 12.363281 9.207031 12.453125 9.042969 12.613281 8.992188 C 12.5625 8.867188 12.507812 8.75 12.441406 8.636719 L 11.023438 9.65625 L 10.859375 9.660156 C 10.890625 9.734375 10.910156 9.8125 10.921875 9.890625 Z M 10.734375 9.445312 L 10.820312 9.300781 L 12.410156 8.582031 C 12.34375 8.46875 12.269531 8.363281 12.1875 8.261719 C 12.066406 8.371094 11.878906 8.367188 11.757812 8.25 C 11.640625 8.132812 11.636719 7.941406 11.746094 7.820312 C 11.644531 7.738281 11.539062 7.664062 11.425781 7.597656 L 10.707031 9.191406 L 10.566406 9.273438 C 10.628906 9.324219 10.683594 9.378906 10.734375 9.445312 Z M 10.347656 9.148438 L 10.351562 8.984375 L 11.371094 7.566406 C 11.257812 7.5 11.140625 7.445312 11.015625 7.398438 C 10.964844 7.554688 10.800781 7.644531 10.640625 7.601562 C 10.476562 7.558594 10.378906 7.398438 10.414062 7.234375 C 10.285156 7.214844 10.15625 7.207031 10.023438 7.203125 L 10.199219 8.941406 L 10.117188 9.085938 C 10.199219 9.097656 10.273438 9.121094 10.347656 9.148438 Z M 9.867188 9.085938 L 9.785156 8.941406 L 9.960938 7.203125 C 9.828125 7.207031 9.695312 7.214844 9.570312 7.234375 C 9.605469 7.398438 9.507812 7.558594 9.34375 7.601562 C 9.183594 7.644531 9.019531 7.554688 8.964844 7.398438 C 8.84375 7.445312 8.726562 7.5 8.613281 7.566406 L 9.632812 8.984375 L 9.636719 9.148438 C 9.707031 9.121094 9.785156 9.097656 9.867188 9.085938 Z M 9.417969 9.273438 L 9.277344 9.191406 L 8.558594 7.597656 C 8.445312 7.664062 8.335938 7.738281 8.234375 7.820312 C 8.347656 7.941406 8.34375 8.132812 8.222656 8.25 C 8.105469 8.367188 7.917969 8.371094 7.792969 8.261719 C 7.714844 8.363281 7.636719 8.46875 7.570312 8.582031 L 9.164062 9.300781 L 9.25 9.445312 C 9.296875 9.378906 9.355469 9.324219 9.417969 9.273438 Z M 9.125 9.660156 L 8.960938 9.65625 L 7.539062 8.636719 C 7.476562 8.75 7.417969 8.867188 7.371094 8.992188 C 7.527344 9.042969 7.621094 9.207031 7.578125 9.371094 C 7.535156 9.53125 7.371094 9.628906 7.210938 9.59375 C 7.191406 9.722656 7.179688 9.851562 7.179688 9.984375 L 8.917969 9.8125 L 9.0625 9.890625 C 9.074219 9.8125 9.09375 9.734375 9.125 9.660156 Z M 9.0625 10.140625 L 8.917969 10.222656 L 7.179688 10.046875 C 7.179688 10.179688 7.191406 10.3125 7.210938 10.4375 C 7.371094 10.40625 7.535156 10.503906 7.578125 10.664062 C 7.621094 10.824219 7.527344 10.992188 7.371094 11.042969 C 7.417969 11.164062 7.476562 11.28125 7.539062 11.394531 L 8.960938 10.375 L 9.125 10.371094 C 9.09375 10.300781 9.074219 10.222656 9.0625 10.140625 Z M 9.25 10.589844 L 9.164062 10.730469 L 7.570312 11.449219 C 7.636719 11.5625 7.714844 11.671875 7.792969 11.773438 C 7.917969 11.664062 8.105469 11.667969 8.222656 11.785156 C 8.34375 11.902344 8.347656 12.089844 8.234375 12.214844 C 8.335938 12.296875 8.445312 12.371094 8.558594 12.4375 L 9.277344 10.84375 L 9.417969 10.757812 C 9.355469 10.710938 9.296875 10.652344 9.25 10.589844 Z M 9.992188 13.453125 C 11.890625 13.453125 13.429688 11.914062 13.429688 10.015625 C 13.429688 8.117188 11.890625 6.578125 9.992188 6.578125 C 8.09375 6.578125 6.554688 8.117188 6.554688 10.015625 C 6.554688 11.914062 8.09375 13.453125 9.992188 13.453125 Z M 9.992188 13.453125 "/>
</svg>
