<?xml version="1.0" encoding="UTF-8"?>
<svg xmlns="http://www.w3.org/2000/svg" xmlns:xlink="http://www.w3.org/1999/xlink" width="60" height="60" viewBox="0 0 60 60">
<path fill-rule="nonzero" fill="rgb(93.333333%, 93.333333%, 93.333333%)" fill-opacity="1" d="M 55.984375 45 C 58.539062 40.585938 60 35.464844 60 30 C 60 24.535156 58.539062 19.414062 55.984375 15 L 4.015625 15 C 1.460938 19.414062 0 24.535156 0 30 C 0 35.464844 1.460938 40.585938 4.015625 45 Z M 55.984375 45 "/>
<path fill-rule="nonzero" fill="rgb(28.627451%, 43.137255%, 17.647059%)" fill-opacity="1" d="M 29.988281 60 C 18.132812 59.996094 7.882812 53.113281 3.015625 43.125 L 56.984375 43.125 C 52.117188 53.113281 41.867188 59.996094 30.007812 60 Z M 29.988281 60 "/>
<path fill-rule="nonzero" fill="rgb(100%, 59.607843%, 6.666667%)" fill-opacity="1" d="M 30 0 C 18.136719 0 7.882812 6.882812 3.015625 16.875 L 56.984375 16.875 C 52.117188 6.882812 41.863281 0 30 0 Z M 30 0 "/>
<path fill-rule="evenodd" fill="rgb(0%, 13.333333%, 40%)" fill-opacity="1" d="M 29.359375 33.269531 L 29.882812 38.488281 C 29.484375 38.484375 29.089844 38.449219 28.707031 38.394531 C 28.8125 37.910156 28.519531 37.425781 28.035156 37.292969 C 27.550781 37.164062 27.054688 37.4375 26.898438 37.910156 C 26.53125 37.765625 26.175781 37.597656 25.835938 37.40625 L 28.898438 33.148438 L 28.90625 32.652344 C 29.125 32.742188 29.355469 32.804688 29.597656 32.835938 Z M 30.351562 32.835938 L 30.59375 33.269531 L 30.070312 38.488281 C 30.46875 38.484375 30.859375 38.449219 31.242188 38.394531 C 31.140625 37.910156 31.433594 37.425781 31.917969 37.292969 C 32.398438 37.164062 32.898438 37.4375 33.050781 37.910156 C 33.417969 37.765625 33.773438 37.597656 34.113281 37.40625 L 31.050781 33.148438 L 31.042969 32.652344 C 30.824219 32.742188 30.59375 32.804688 30.351562 32.835938 Z M 31.695312 32.277344 L 32.121094 32.53125 L 34.277344 37.3125 C 34.613281 37.109375 34.9375 36.886719 35.242188 36.640625 C 34.914062 36.273438 34.925781 35.707031 35.277344 35.351562 C 35.632812 35 36.199219 34.988281 36.566406 35.316406 C 36.8125 35.011719 37.035156 34.6875 37.234375 34.351562 L 32.457031 32.195312 L 32.199219 31.769531 C 32.054688 31.960938 31.882812 32.128906 31.695312 32.277344 Z M 32.578125 31.117188 L 33.074219 31.125 L 37.332031 34.1875 C 37.523438 33.847656 37.691406 33.492188 37.835938 33.125 C 37.363281 32.972656 37.089844 32.476562 37.21875 31.992188 C 37.347656 31.507812 37.835938 31.214844 38.316406 31.316406 C 38.375 30.933594 38.40625 30.542969 38.414062 30.144531 L 33.195312 30.667969 L 32.761719 30.425781 C 32.730469 30.667969 32.667969 30.898438 32.578125 31.117188 Z M 32.761719 29.671875 L 33.195312 29.433594 L 38.414062 29.957031 C 38.40625 29.558594 38.375 29.167969 38.316406 28.785156 C 37.835938 28.886719 37.347656 28.59375 37.21875 28.109375 C 37.089844 27.625 37.363281 27.128906 37.835938 26.976562 C 37.691406 26.605469 37.523438 26.253906 37.328125 25.910156 L 33.074219 28.972656 L 32.578125 28.984375 C 32.667969 29.199219 32.730469 29.433594 32.761719 29.671875 Z M 32.199219 28.332031 L 32.457031 27.90625 L 37.234375 25.75 C 37.035156 25.410156 36.8125 25.089844 36.566406 24.78125 C 36.199219 25.113281 35.632812 25.101562 35.277344 24.746094 C 34.925781 24.394531 34.914062 23.828125 35.242188 23.457031 C 34.9375 23.214844 34.613281 22.988281 34.277344 22.789062 L 32.121094 27.570312 L 31.695312 27.824219 C 31.882812 27.972656 32.054688 28.140625 32.199219 28.332031 Z M 31.042969 27.445312 L 31.050781 26.953125 L 34.113281 22.695312 C 33.773438 22.503906 33.417969 22.335938 33.050781 22.191406 C 32.898438 22.660156 32.398438 22.933594 31.917969 22.804688 C 31.433594 22.675781 31.140625 22.191406 31.242188 21.707031 C 30.859375 21.648438 30.46875 21.617188 30.070312 21.613281 L 30.59375 26.828125 L 30.351562 27.261719 C 30.59375 27.292969 30.824219 27.359375 31.042969 27.445312 Z M 29.597656 27.261719 L 29.359375 26.828125 L 29.882812 21.613281 C 29.484375 21.617188 29.089844 21.648438 28.707031 21.707031 C 28.8125 22.191406 28.519531 22.675781 28.035156 22.804688 C 27.550781 22.933594 27.054688 22.660156 26.898438 22.191406 C 26.53125 22.335938 26.175781 22.503906 25.835938 22.695312 L 28.898438 26.953125 L 28.90625 27.445312 C 29.125 27.359375 29.355469 27.292969 29.597656 27.261719 Z M 28.253906 27.824219 L 27.832031 27.570312 L 25.675781 22.789062 C 25.335938 22.988281 25.011719 23.214844 24.707031 23.457031 C 25.039062 23.828125 25.027344 24.394531 24.671875 24.746094 C 24.316406 25.101562 23.75 25.113281 23.382812 24.78125 C 23.140625 25.089844 22.914062 25.410156 22.714844 25.75 L 27.496094 27.90625 L 27.75 28.332031 C 27.894531 28.140625 28.066406 27.972656 28.253906 27.824219 Z M 27.371094 28.984375 L 26.878906 28.972656 L 22.621094 25.914062 C 22.429688 26.253906 22.257812 26.605469 22.117188 26.976562 C 22.585938 27.128906 22.859375 27.625 22.730469 28.109375 C 22.601562 28.59375 22.117188 28.886719 21.632812 28.785156 C 21.574219 29.167969 21.542969 29.558594 21.539062 29.957031 L 26.753906 29.433594 L 27.1875 29.671875 C 27.21875 29.433594 27.28125 29.199219 27.371094 28.984375 Z M 27.1875 30.425781 L 26.753906 30.667969 L 21.539062 30.144531 C 21.542969 30.542969 21.574219 30.933594 21.632812 31.316406 C 22.117188 31.214844 22.601562 31.507812 22.730469 31.992188 C 22.859375 32.476562 22.585938 32.972656 22.117188 33.125 C 22.257812 33.492188 22.429688 33.847656 22.621094 34.1875 L 26.878906 31.125 L 27.371094 31.117188 C 27.28125 30.898438 27.21875 30.667969 27.1875 30.425781 Z M 27.75 31.769531 L 27.496094 32.195312 L 22.714844 34.351562 C 22.914062 34.6875 23.140625 35.011719 23.382812 35.316406 C 23.75 34.988281 24.316406 35 24.671875 35.351562 C 25.027344 35.707031 25.039062 36.273438 24.707031 36.640625 C 25.011719 36.886719 25.335938 37.109375 25.675781 37.3125 L 27.828125 32.53125 L 28.253906 32.277344 C 28.066406 32.128906 27.894531 31.960938 27.75 31.769531 Z M 29.976562 40.363281 C 35.671875 40.363281 40.289062 35.746094 40.289062 30.050781 C 40.289062 24.355469 35.671875 19.738281 29.976562 19.738281 C 24.28125 19.738281 19.664062 24.355469 19.664062 30.050781 C 19.664062 35.746094 24.28125 40.363281 29.976562 40.363281 Z M 29.976562 40.363281 "/>
</svg>
