<?xml version="1.0" encoding="UTF-8"?>
<svg xmlns="http://www.w3.org/2000/svg" xmlns:xlink="http://www.w3.org/1999/xlink" width="40" height="40" viewBox="0 0 40 40">
<path fill-rule="nonzero" fill="rgb(93.333333%, 93.333333%, 93.333333%)" fill-opacity="1" d="M 37.324219 30 C 39.027344 27.058594 40 23.644531 40 20 C 40 16.355469 39.027344 12.941406 37.324219 10 L 2.675781 10 C 0.972656 12.941406 0 16.355469 0 20 C 0 23.644531 0.972656 27.058594 2.675781 30 Z M 37.324219 30 "/>
<path fill-rule="nonzero" fill="rgb(28.627451%, 43.137255%, 17.647059%)" fill-opacity="1" d="M 19.992188 40 C 12.089844 39.996094 5.253906 35.410156 2.011719 28.75 L 37.988281 28.75 C 34.746094 35.410156 27.910156 39.996094 20.007812 40 Z M 19.992188 40 "/>
<path fill-rule="nonzero" fill="rgb(100%, 59.607843%, 6.666667%)" fill-opacity="1" d="M 20 0 C 12.09375 0 5.257812 4.589844 2.011719 11.25 L 37.988281 11.25 C 34.742188 4.589844 27.910156 0 20 0 Z M 20 0 "/>
<path fill-rule="evenodd" fill="rgb(0%, 13.333333%, 40%)" fill-opacity="1" d="M 19.570312 22.179688 L 19.921875 25.65625 C 19.65625 25.65625 19.394531 25.632812 19.140625 25.59375 C 19.207031 25.273438 19.011719 24.949219 18.6875 24.863281 C 18.367188 24.777344 18.035156 24.960938 17.933594 25.273438 C 17.6875 25.175781 17.453125 25.066406 17.226562 24.9375 L 19.265625 22.097656 L 19.273438 21.769531 C 19.417969 21.828125 19.570312 21.871094 19.730469 21.890625 Z M 20.234375 21.890625 L 20.394531 22.179688 L 20.046875 25.65625 C 20.3125 25.65625 20.574219 25.632812 20.828125 25.59375 C 20.757812 25.273438 20.957031 24.949219 21.277344 24.863281 C 21.601562 24.777344 21.929688 24.960938 22.035156 25.273438 C 22.277344 25.175781 22.515625 25.066406 22.742188 24.9375 L 20.699219 22.097656 L 20.695312 21.769531 C 20.550781 21.828125 20.394531 21.871094 20.234375 21.890625 Z M 21.128906 21.515625 L 21.414062 21.6875 L 22.851562 24.875 C 23.074219 24.738281 23.292969 24.589844 23.496094 24.425781 C 23.273438 24.183594 23.28125 23.804688 23.519531 23.570312 C 23.753906 23.332031 24.132812 23.324219 24.378906 23.546875 C 24.539062 23.339844 24.691406 23.125 24.824219 22.898438 L 21.636719 21.464844 L 21.46875 21.179688 C 21.371094 21.304688 21.257812 21.417969 21.128906 21.515625 Z M 21.71875 20.746094 L 22.046875 20.75 L 24.886719 22.792969 C 25.015625 22.566406 25.128906 22.328125 25.222656 22.082031 C 24.910156 21.980469 24.726562 21.648438 24.8125 21.328125 C 24.898438 21.003906 25.222656 20.808594 25.546875 20.878906 C 25.582031 20.621094 25.605469 20.359375 25.609375 20.097656 L 22.128906 20.445312 L 21.84375 20.285156 C 21.820312 20.445312 21.777344 20.601562 21.71875 20.746094 Z M 21.839844 19.78125 L 22.128906 19.621094 L 25.609375 19.96875 C 25.605469 19.707031 25.582031 19.445312 25.546875 19.1875 C 25.222656 19.257812 24.898438 19.0625 24.8125 18.738281 C 24.726562 18.417969 24.910156 18.085938 25.222656 17.984375 C 25.128906 17.738281 25.015625 17.5 24.886719 17.273438 L 22.046875 19.316406 L 21.71875 19.320312 C 21.777344 19.46875 21.820312 19.621094 21.839844 19.78125 Z M 21.46875 18.886719 L 21.636719 18.601562 L 24.824219 17.167969 C 24.691406 16.941406 24.539062 16.726562 24.378906 16.523438 C 24.132812 16.742188 23.753906 16.734375 23.519531 16.496094 C 23.28125 16.261719 23.273438 15.882812 23.496094 15.640625 C 23.292969 15.476562 23.074219 15.328125 22.851562 15.191406 L 21.414062 18.378906 L 21.128906 18.550781 C 21.257812 18.648438 21.371094 18.761719 21.46875 18.886719 Z M 20.695312 18.296875 L 20.699219 17.96875 L 22.742188 15.128906 C 22.515625 15.003906 22.277344 14.890625 22.035156 14.792969 C 21.929688 15.109375 21.601562 15.289062 21.277344 15.203125 C 20.957031 15.117188 20.757812 14.792969 20.828125 14.472656 C 20.574219 14.433594 20.3125 14.410156 20.046875 14.410156 L 20.394531 17.886719 L 20.234375 18.175781 C 20.394531 18.195312 20.550781 18.238281 20.695312 18.296875 Z M 19.730469 18.175781 L 19.570312 17.886719 L 19.921875 14.410156 C 19.65625 14.410156 19.394531 14.433594 19.140625 14.472656 C 19.207031 14.792969 19.011719 15.117188 18.6875 15.203125 C 18.367188 15.289062 18.035156 15.109375 17.933594 14.792969 C 17.6875 14.890625 17.453125 15.003906 17.226562 15.128906 L 19.265625 17.96875 L 19.273438 18.296875 C 19.417969 18.238281 19.570312 18.195312 19.730469 18.175781 Z M 18.835938 18.550781 L 18.554688 18.378906 L 17.117188 15.191406 C 16.890625 15.328125 16.675781 15.476562 16.472656 15.640625 C 16.691406 15.882812 16.683594 16.261719 16.449219 16.496094 C 16.210938 16.734375 15.835938 16.742188 15.589844 16.523438 C 15.425781 16.726562 15.277344 16.941406 15.144531 17.167969 L 18.328125 18.601562 L 18.5 18.886719 C 18.597656 18.761719 18.710938 18.648438 18.835938 18.550781 Z M 18.25 19.320312 L 17.917969 19.316406 L 15.082031 17.273438 C 14.953125 17.5 14.839844 17.738281 14.742188 17.984375 C 15.058594 18.085938 15.242188 18.417969 15.152344 18.738281 C 15.066406 19.0625 14.746094 19.257812 14.421875 19.1875 C 14.382812 19.445312 14.363281 19.707031 14.359375 19.96875 L 17.835938 19.621094 L 18.125 19.78125 C 18.148438 19.621094 18.1875 19.46875 18.25 19.320312 Z M 18.125 20.285156 L 17.835938 20.445312 L 14.359375 20.097656 C 14.363281 20.359375 14.382812 20.621094 14.421875 20.878906 C 14.746094 20.808594 15.066406 21.003906 15.152344 21.328125 C 15.242188 21.648438 15.058594 21.980469 14.742188 22.082031 C 14.839844 22.328125 14.953125 22.566406 15.082031 22.792969 L 17.917969 20.75 L 18.25 20.746094 C 18.1875 20.601562 18.148438 20.445312 18.125 20.285156 Z M 18.5 21.179688 L 18.328125 21.464844 L 15.144531 22.898438 C 15.277344 23.125 15.425781 23.339844 15.589844 23.546875 C 15.835938 23.324219 16.210938 23.332031 16.449219 23.570312 C 16.683594 23.804688 16.691406 24.183594 16.472656 24.425781 C 16.675781 24.589844 16.890625 24.738281 17.117188 24.875 L 18.554688 21.6875 L 18.835938 21.515625 C 18.710938 21.417969 18.597656 21.304688 18.5 21.179688 Z M 19.984375 26.910156 C 23.78125 26.910156 26.859375 23.832031 26.859375 20.035156 C 26.859375 16.238281 23.78125 13.160156 19.984375 13.160156 C 16.1875 13.160156 13.109375 16.238281 13.109375 20.035156 C 13.109375 23.832031 16.1875 26.910156 19.984375 26.910156 Z M 19.984375 26.910156 "/>
</svg>
