<?xml version="1.0" encoding="UTF-8"?>
<svg xmlns="http://www.w3.org/2000/svg" xmlns:xlink="http://www.w3.org/1999/xlink" width="40" height="40" viewBox="0 0 40 40">
<path fill-rule="nonzero" fill="rgb(20%, 54.117647%, 95.294118%)" fill-opacity="1" d="M 20 40 C 31.03125 40 39.980469 31.066406 40 20.039062 L 40 20 L 20 17.5 L 0 20 C 0 31.046875 8.953125 40 20 40 Z M 20 40 "/>
<path fill-rule="nonzero" fill="rgb(93.333333%, 93.333333%, 93.333333%)" fill-opacity="1" d="M 40 19.960938 L 40 20 L 0 20 C 0 8.953125 8.953125 0 20 0 C 31.03125 0 39.980469 8.933594 40 19.960938 Z M 40 19.960938 "/>
<path fill-rule="nonzero" fill="rgb(42.745098%, 64.705882%, 26.666667%)" fill-opacity="1" d="M 27.9375 13.800781 L 20 21.738281 L 12.0625 13.800781 C 11.035156 15.324219 10.433594 17.160156 10.433594 19.128906 L 10.433594 21.738281 C 10.433594 25.925781 13.140625 29.496094 16.898438 30.789062 C 16.394531 31.769531 16.480469 32.996094 17.214844 33.914062 C 18.191406 33.128906 19.199219 32.320312 20.058594 31.632812 C 20.914062 32.320312 21.925781 33.128906 22.898438 33.914062 C 23.644531 32.984375 23.722656 31.742188 23.199219 30.753906 C 26.90625 29.433594 29.566406 25.890625 29.566406 21.738281 L 29.566406 19.128906 C 29.566406 17.160156 28.964844 15.324219 27.9375 13.800781 Z M 27.9375 13.800781 "/>
<path fill-rule="nonzero" fill="rgb(100%, 77.647059%, 20.784314%)" fill-opacity="1" d="M 20 28.695312 C 16.164062 28.695312 13.042969 25.574219 13.042969 21.738281 L 13.042969 19.128906 C 13.042969 15.292969 16.164062 12.171875 20 12.171875 C 23.835938 12.171875 26.957031 15.292969 26.957031 19.128906 L 26.957031 21.738281 C 26.957031 25.574219 23.835938 28.695312 20 28.695312 Z M 20 28.695312 "/>
<path fill-rule="nonzero" fill="rgb(20%, 54.117647%, 95.294118%)" fill-opacity="1" d="M 24.347656 21.738281 L 24.347656 19.128906 C 24.347656 16.734375 22.398438 14.78125 20 14.78125 C 17.601562 14.78125 15.652344 16.734375 15.652344 19.128906 L 15.652344 21.738281 L 20 22.609375 Z M 24.347656 21.738281 "/>
<path fill-rule="nonzero" fill="rgb(42.745098%, 64.705882%, 26.666667%)" fill-opacity="1" d="M 15.652344 21.738281 C 15.652344 24.136719 17.601562 26.085938 20 26.085938 C 22.398438 26.085938 24.347656 24.136719 24.347656 21.738281 Z M 15.652344 21.738281 "/>
<path fill-rule="nonzero" fill="rgb(100%, 77.647059%, 20.784314%)" fill-opacity="1" d="M 25.21875 12.175781 C 25.21875 10.734375 24.050781 9.566406 22.609375 9.566406 C 21.941406 9.566406 21.332031 9.816406 20.871094 10.230469 L 20.871094 8.695312 L 21.738281 8.695312 L 21.738281 6.957031 L 20.871094 6.957031 L 20.871094 6.085938 L 19.128906 6.085938 L 19.128906 6.957031 L 18.261719 6.957031 L 18.261719 8.695312 L 19.128906 8.695312 L 19.128906 10.230469 C 18.667969 9.816406 18.058594 9.566406 17.390625 9.566406 C 15.949219 9.566406 14.78125 10.734375 14.78125 12.175781 C 14.78125 12.945312 15.117188 13.640625 15.652344 14.117188 L 15.652344 15.652344 L 24.347656 15.652344 L 24.347656 14.117188 C 24.878906 13.640625 25.21875 12.945312 25.21875 12.175781 Z M 25.21875 12.175781 "/>
</svg>
