<?xml version="1.0" encoding="UTF-8"?>
<svg xmlns="http://www.w3.org/2000/svg" xmlns:xlink="http://www.w3.org/1999/xlink" width="60" height="60" viewBox="0 0 60 60">
<path fill-rule="nonzero" fill="rgb(20%, 54.117647%, 95.294118%)" fill-opacity="1" d="M 30 60 C 46.550781 60 59.96875 46.601562 60 30.058594 L 60 30 L 30 26.25 L 0 30 C 0 46.566406 13.433594 60 30 60 Z M 30 60 "/>
<path fill-rule="nonzero" fill="rgb(93.333333%, 93.333333%, 93.333333%)" fill-opacity="1" d="M 60 29.941406 L 60 30 L 0 30 C 0 13.433594 13.433594 0 30 0 C 46.550781 0 59.96875 13.398438 60 29.941406 Z M 60 29.941406 "/>
<path fill-rule="nonzero" fill="rgb(42.745098%, 64.705882%, 26.666667%)" fill-opacity="1" d="M 41.910156 20.699219 L 30 32.609375 L 18.089844 20.699219 C 16.550781 22.984375 15.652344 25.738281 15.652344 28.695312 L 15.652344 32.609375 C 15.652344 38.890625 19.710938 44.242188 25.347656 46.179688 C 24.59375 47.65625 24.71875 49.492188 25.824219 50.867188 C 27.285156 49.695312 28.800781 48.480469 30.085938 47.453125 C 31.371094 48.480469 32.886719 49.695312 34.351562 50.867188 C 35.464844 49.476562 35.582031 47.609375 34.800781 46.128906 C 40.359375 44.148438 44.347656 38.835938 44.347656 32.609375 L 44.347656 28.695312 C 44.347656 25.738281 43.449219 22.988281 41.90625 20.699219 Z M 41.910156 20.699219 "/>
<path fill-rule="nonzero" fill="rgb(100%, 77.647059%, 20.784314%)" fill-opacity="1" d="M 30 43.042969 C 24.246094 43.042969 19.566406 38.363281 19.566406 32.609375 L 19.566406 28.695312 C 19.566406 22.941406 24.246094 18.261719 30 18.261719 C 35.753906 18.261719 40.433594 22.941406 40.433594 28.695312 L 40.433594 32.609375 C 40.433594 38.363281 35.753906 43.042969 30 43.042969 Z M 30 43.042969 "/>
<path fill-rule="nonzero" fill="rgb(20%, 54.117647%, 95.294118%)" fill-opacity="1" d="M 36.523438 32.609375 L 36.523438 28.695312 C 36.523438 25.097656 33.597656 22.175781 30 22.175781 C 26.402344 22.175781 23.476562 25.097656 23.476562 28.695312 L 23.476562 32.609375 L 30 33.914062 Z M 36.523438 32.609375 "/>
<path fill-rule="nonzero" fill="rgb(42.745098%, 64.705882%, 26.666667%)" fill-opacity="1" d="M 23.476562 32.609375 C 23.476562 36.203125 26.402344 39.128906 30 39.128906 C 33.597656 39.128906 36.523438 36.203125 36.523438 32.609375 Z M 23.476562 32.609375 "/>
<path fill-rule="nonzero" fill="rgb(100%, 77.647059%, 20.784314%)" fill-opacity="1" d="M 37.824219 18.261719 C 37.824219 16.101562 36.074219 14.347656 33.914062 14.347656 C 32.910156 14.347656 31.996094 14.726562 31.304688 15.34375 L 31.304688 13.042969 L 32.609375 13.042969 L 32.609375 10.433594 L 31.304688 10.433594 L 31.304688 9.132812 L 28.695312 9.132812 L 28.695312 10.433594 L 27.390625 10.433594 L 27.390625 13.042969 L 28.695312 13.042969 L 28.695312 15.34375 C 28.003906 14.726562 27.089844 14.347656 26.085938 14.347656 C 23.925781 14.347656 22.171875 16.101562 22.171875 18.261719 C 22.171875 19.421875 22.675781 20.460938 23.476562 21.175781 L 23.476562 23.480469 L 36.519531 23.480469 L 36.519531 21.175781 C 37.320312 20.460938 37.824219 19.421875 37.824219 18.261719 Z M 37.824219 18.261719 "/>
</svg>
