<?xml version="1.0" encoding="UTF-8"?>
<svg xmlns="http://www.w3.org/2000/svg" xmlns:xlink="http://www.w3.org/1999/xlink" width="20" height="20" viewBox="0 0 20 20">
<path fill-rule="nonzero" fill="rgb(20%, 54.117647%, 95.294118%)" fill-opacity="1" d="M 10 20 C 15.515625 20 19.988281 15.535156 20 10.019531 L 20 10 L 10 8.75 L 0 10 C 0 15.523438 4.476562 20 10 20 Z M 10 20 "/>
<path fill-rule="nonzero" fill="rgb(93.333333%, 93.333333%, 93.333333%)" fill-opacity="1" d="M 20 9.980469 L 20 10 L 0 10 C 0 4.476562 4.476562 0 10 0 C 15.515625 0 19.988281 4.464844 20 9.980469 Z M 20 9.980469 "/>
<path fill-rule="nonzero" fill="rgb(42.745098%, 64.705882%, 26.666667%)" fill-opacity="1" d="M 13.96875 6.898438 L 10 10.871094 L 6.03125 6.898438 C 5.515625 7.660156 5.21875 8.578125 5.21875 9.566406 L 5.21875 10.871094 C 5.21875 12.964844 6.570312 14.746094 8.449219 15.394531 C 8.199219 15.886719 8.238281 16.496094 8.609375 16.957031 C 9.09375 16.566406 9.601562 16.160156 10.027344 15.816406 C 10.457031 16.160156 10.960938 16.566406 11.449219 16.957031 C 11.820312 16.492188 11.859375 15.871094 11.601562 15.375 C 13.453125 14.714844 14.78125 12.945312 14.78125 10.871094 L 14.78125 9.566406 C 14.78125 8.578125 14.484375 7.664062 13.96875 6.898438 Z M 13.96875 6.898438 "/>
<path fill-rule="nonzero" fill="rgb(100%, 77.647059%, 20.784314%)" fill-opacity="1" d="M 10 14.347656 C 8.082031 14.347656 6.523438 12.789062 6.523438 10.871094 L 6.523438 9.566406 C 6.523438 7.648438 8.082031 6.085938 10 6.085938 C 11.917969 6.085938 13.476562 7.648438 13.476562 9.566406 L 13.476562 10.871094 C 13.476562 12.789062 11.917969 14.347656 10 14.347656 Z M 10 14.347656 "/>
<path fill-rule="nonzero" fill="rgb(20%, 54.117647%, 95.294118%)" fill-opacity="1" d="M 12.171875 10.871094 L 12.171875 9.566406 C 12.171875 8.367188 11.199219 7.390625 10 7.390625 C 8.800781 7.390625 7.824219 8.367188 7.824219 9.566406 L 7.824219 10.871094 L 10 11.304688 Z M 12.171875 10.871094 "/>
<path fill-rule="nonzero" fill="rgb(42.745098%, 64.705882%, 26.666667%)" fill-opacity="1" d="M 7.828125 10.871094 C 7.828125 12.066406 8.800781 13.042969 10 13.042969 C 11.199219 13.042969 12.175781 12.066406 12.175781 10.871094 Z M 7.828125 10.871094 "/>
<path fill-rule="nonzero" fill="rgb(100%, 77.647059%, 20.784314%)" fill-opacity="1" d="M 12.609375 6.085938 C 12.609375 5.367188 12.023438 4.78125 11.304688 4.78125 C 10.96875 4.78125 10.664062 4.910156 10.433594 5.113281 L 10.433594 4.347656 L 10.871094 4.347656 L 10.871094 3.476562 L 10.433594 3.476562 L 10.433594 3.042969 L 9.566406 3.042969 L 9.566406 3.476562 L 9.128906 3.476562 L 9.128906 4.347656 L 9.566406 4.347656 L 9.566406 5.113281 C 9.335938 4.910156 9.03125 4.78125 8.695312 4.78125 C 7.976562 4.78125 7.390625 5.367188 7.390625 6.085938 C 7.390625 6.472656 7.558594 6.820312 7.824219 7.058594 L 7.824219 7.828125 L 12.171875 7.828125 L 12.171875 7.058594 C 12.441406 6.820312 12.609375 6.472656 12.609375 6.085938 Z M 12.609375 6.085938 "/>
</svg>
