<?xml version="1.0" encoding="UTF-8"?>
<svg xmlns="http://www.w3.org/2000/svg" xmlns:xlink="http://www.w3.org/1999/xlink" width="20" height="20" viewBox="0 0 20 20">
<path fill-rule="nonzero" fill="rgb(93.333333%, 93.333333%, 93.333333%)" fill-opacity="1" d="M 18.835938 14.6875 C 19.578125 13.289062 20 11.695312 20 10 C 20 8.304688 19.578125 6.710938 18.835938 5.3125 L 1.164062 5.3125 C 0.421875 6.710938 0 8.304688 0 10 C 0 11.695312 0.421875 13.289062 1.164062 14.6875 Z M 18.835938 14.6875 "/>
<path fill-rule="nonzero" fill="rgb(20%, 20%, 20%)" fill-opacity="1" d="M 19.394531 13.4375 C 17.992188 17.265625 14.316406 20 10 20 C 5.683594 20 2.007812 17.265625 0.605469 13.4375 Z M 19.394531 13.4375 "/>
<path fill-rule="nonzero" fill="rgb(63.529412%, 0%, 11.372549%)" fill-opacity="1" d="M 19.394531 6.5625 L 0.605469 6.5625 C 2.007812 2.734375 5.683594 0 10 0 C 14.316406 0 17.992188 2.734375 19.394531 6.5625 Z M 19.394531 6.5625 "/>
<path fill-rule="evenodd" fill="rgb(28.627451%, 43.137255%, 17.647059%)" fill-opacity="1" d="M 7.609375 9.347656 C 7.605469 9.347656 7.601562 9.347656 7.597656 9.347656 C 7.597656 9.347656 7.59375 9.347656 7.59375 9.347656 L 5.679688 9.347656 C 5.777344 8.972656 6.117188 8.695312 6.523438 8.695312 L 6.523438 7.390625 C 5.324219 7.390625 4.347656 8.367188 4.347656 9.566406 L 4.347656 10.652344 L 7.609375 10.652344 C 7.726562 10.652344 7.824219 10.75 7.824219 10.871094 L 7.824219 11.304688 L 3.476562 11.304688 L 3.476562 12.609375 L 9.128906 12.609375 L 9.128906 10.871094 C 9.128906 10.03125 8.449219 9.347656 7.609375 9.347656 Z M 10.871094 11.304688 L 10.871094 7.390625 L 9.566406 7.390625 L 9.566406 12.609375 L 11.738281 12.609375 L 11.738281 11.304688 Z M 15.21875 7.390625 L 15.21875 11.304688 L 16.085938 11.304688 L 16.085938 12.609375 L 12.171875 12.609375 L 12.171875 10 L 13.476562 10 L 13.476562 11.304688 L 13.914062 11.304688 L 13.914062 7.390625 Z M 15.21875 7.390625 "/>
</svg>
