<?xml version="1.0" encoding="UTF-8"?>
<svg xmlns="http://www.w3.org/2000/svg" xmlns:xlink="http://www.w3.org/1999/xlink" width="40" height="40" viewBox="0 0 40 40">
<path fill-rule="nonzero" fill="rgb(93.333333%, 93.333333%, 93.333333%)" fill-opacity="1" d="M 37.671875 29.375 C 39.15625 26.578125 40 23.386719 40 20 C 40 16.613281 39.15625 13.421875 37.671875 10.625 L 2.328125 10.625 C 0.84375 13.421875 0 16.613281 0 20 C 0 23.386719 0.84375 26.578125 2.328125 29.375 Z M 37.671875 29.375 "/>
<path fill-rule="nonzero" fill="rgb(20%, 20%, 20%)" fill-opacity="1" d="M 38.785156 26.875 C 35.984375 34.535156 28.628906 40 20 40 C 11.371094 40 4.015625 34.535156 1.214844 26.875 L 38.789062 26.875 Z M 38.785156 26.875 "/>
<path fill-rule="nonzero" fill="rgb(63.529412%, 0%, 11.372549%)" fill-opacity="1" d="M 38.785156 13.125 L 1.210938 13.125 C 4.015625 5.464844 11.371094 0 20 0 C 28.628906 0 35.984375 5.464844 38.785156 13.125 Z M 38.785156 13.125 "/>
<path fill-rule="evenodd" fill="rgb(28.627451%, 43.137255%, 17.647059%)" fill-opacity="1" d="M 15.21875 18.695312 C 15.210938 18.695312 15.203125 18.695312 15.199219 18.695312 C 15.195312 18.695312 15.1875 18.695312 15.183594 18.695312 L 11.363281 18.695312 C 11.554688 17.945312 12.234375 17.390625 13.042969 17.390625 L 13.042969 14.78125 C 10.644531 14.78125 8.695312 16.734375 8.695312 19.128906 L 8.695312 21.304688 L 15.21875 21.304688 C 15.457031 21.304688 15.652344 21.5 15.652344 21.738281 L 15.652344 22.609375 L 6.957031 22.609375 L 6.957031 25.21875 L 18.261719 25.21875 L 18.261719 21.738281 C 18.261719 20.0625 16.894531 18.695312 15.21875 18.695312 Z M 21.738281 22.609375 L 21.738281 14.78125 L 19.128906 14.78125 L 19.128906 25.21875 L 23.476562 25.21875 L 23.476562 22.609375 Z M 30.433594 14.78125 L 30.433594 22.609375 L 32.171875 22.609375 L 32.171875 25.21875 L 24.347656 25.21875 L 24.347656 20 L 26.957031 20 L 26.957031 22.609375 L 27.824219 22.609375 L 27.824219 14.78125 Z M 30.433594 14.78125 "/>
</svg>
