<?xml version="1.0" encoding="UTF-8"?>
<svg xmlns="http://www.w3.org/2000/svg" xmlns:xlink="http://www.w3.org/1999/xlink" width="60" height="60" viewBox="0 0 60 60">
<path fill-rule="nonzero" fill="rgb(93.333333%, 93.333333%, 93.333333%)" fill-opacity="1" d="M 56.507812 44.0625 C 58.738281 39.867188 60 35.082031 60 30 C 60 24.917969 58.738281 20.132812 56.507812 15.9375 L 3.492188 15.9375 C 1.261719 20.132812 0 24.917969 0 30 C 0 35.082031 1.261719 39.867188 3.492188 44.0625 Z M 56.507812 44.0625 "/>
<path fill-rule="nonzero" fill="rgb(20%, 20%, 20%)" fill-opacity="1" d="M 58.179688 40.3125 C 53.976562 51.800781 42.945312 60 30 60 C 17.054688 60 6.023438 51.800781 1.820312 40.3125 Z M 58.179688 40.3125 "/>
<path fill-rule="nonzero" fill="rgb(63.529412%, 0%, 11.372549%)" fill-opacity="1" d="M 58.179688 19.6875 L 1.820312 19.6875 C 6.023438 8.199219 17.054688 0 30 0 C 42.945312 0 53.972656 8.199219 58.179688 19.6875 Z M 58.179688 19.6875 "/>
<path fill-rule="evenodd" fill="rgb(28.627451%, 43.137255%, 17.647059%)" fill-opacity="1" d="M 22.824219 28.042969 C 22.816406 28.042969 22.808594 28.042969 22.796875 28.042969 C 22.792969 28.042969 22.785156 28.042969 22.777344 28.042969 L 17.042969 28.042969 C 17.332031 26.917969 18.351562 26.085938 19.566406 26.085938 L 19.566406 22.171875 C 15.96875 22.171875 13.042969 25.097656 13.042969 28.695312 L 13.042969 31.957031 L 22.824219 31.957031 C 23.183594 31.957031 23.476562 32.25 23.476562 32.609375 L 23.476562 33.914062 L 10.433594 33.914062 L 10.433594 37.824219 L 27.390625 37.824219 L 27.390625 32.609375 C 27.390625 30.089844 25.34375 28.042969 22.828125 28.042969 Z M 32.609375 33.914062 L 32.609375 22.175781 L 28.695312 22.175781 L 28.695312 37.828125 L 35.21875 37.828125 L 35.21875 33.914062 Z M 45.652344 22.175781 L 45.652344 33.914062 L 48.261719 33.914062 L 48.261719 37.828125 L 36.519531 37.828125 L 36.519531 30 L 40.433594 30 L 40.433594 33.914062 L 41.738281 33.914062 L 41.738281 22.175781 Z M 45.652344 22.175781 "/>
</svg>
