<?xml version="1.0" encoding="UTF-8"?>
<svg xmlns="http://www.w3.org/2000/svg" xmlns:xlink="http://www.w3.org/1999/xlink" width="414px" height="207px" viewBox="0 0 414 207" version="1.1">
<g id="surface1">
<rect x="0" y="0" width="414" height="207" style="fill:rgb(100%,100%,100%);fill-opacity:1;stroke:none;"/>
<path style=" stroke:none;fill-rule:nonzero;fill:rgb(0%,21.960784%,65.882355%);fill-opacity:1;" d="M 170.863281 21.15625 L 421.136719 21.15625 L 421.136719 44.707031 L 170.863281 44.707031 Z M 170.863281 68.214844 L 421.136719 68.214844 L 421.136719 91.722656 L 170.863281 91.722656 Z M -7.136719 115.277344 L 421.136719 115.277344 L 421.136719 138.785156 L -7.136719 138.785156 Z M -7.136719 162.292969 L 421.136719 162.292969 L 421.136719 185.84375 L -7.136719 185.84375 Z M -7.136719 162.292969 "/>
<path style=" stroke:none;fill-rule:nonzero;fill:rgb(98.823529%,81.960785%,8.627451%);fill-opacity:1;" d="M 82.992188 51.996094 L 86.917969 57.808594 C 70.785156 69.386719 80.636719 76.230469 69.199219 79.9375 C 76.3125 73.054688 68.082031 72.476562 74.074219 58.132812 "/>
<path style=" stroke:none;fill-rule:evenodd;fill:rgb(0%,0%,0%);fill-opacity:1;" d="M 83.097656 51.457031 L 87.449219 57.902344 L 87.144531 58.121094 C 83.140625 60.996094 80.769531 63.558594 79.277344 65.839844 C 77.785156 68.117188 77.160156 70.128906 76.671875 71.925781 C 76.617188 72.125 76.5625 72.324219 76.511719 72.519531 C 76.097656 74.070312 75.714844 75.511719 74.84375 76.765625 C 73.839844 78.203125 72.226562 79.363281 69.320312 80.308594 L 67.71875 80.824219 L 68.921875 79.660156 C 70.675781 77.964844 71.4375 76.699219 71.738281 75.546875 C 72.035156 74.390625 71.878906 73.304688 71.664062 71.890625 L 71.664062 71.886719 C 71.453125 70.484375 71.203125 68.816406 71.390625 66.589844 C 71.574219 64.367188 72.195312 61.601562 73.707031 57.984375 L 73.855469 57.625 L 74.582031 57.921875 L 74.429688 58.28125 C 72.945312 61.835938 72.347656 64.523438 72.171875 66.65625 C 71.992188 68.785156 72.230469 70.382812 72.441406 71.777344 L 72.445312 71.8125 C 72.652344 73.183594 72.835938 74.417969 72.496094 75.742188 C 72.234375 76.753906 71.671875 77.789062 70.640625 78.984375 C 72.453125 78.207031 73.503906 77.320312 74.199219 76.324219 C 74.988281 75.1875 75.335938 73.890625 75.757812 72.316406 C 75.808594 72.125 75.859375 71.925781 75.914062 71.722656 C 76.410156 69.898438 77.0625 67.796875 78.621094 65.417969 C 80.136719 63.101562 82.5 60.542969 86.378906 57.714844 L 82.445312 51.886719 Z M 83.097656 51.457031 "/>
<path style=" stroke:none;fill-rule:evenodd;fill:rgb(0%,0%,0%);fill-opacity:1;" d="M 73.980469 70.488281 C 74.617188 66.226562 75.457031 60.617188 79.847656 53.441406 L 80.515625 53.84375 C 76.207031 60.886719 75.386719 66.371094 74.753906 70.605469 C 74.738281 70.703125 74.722656 70.800781 74.707031 70.898438 C 74.390625 73.027344 74.09375 74.894531 73.359375 76.457031 C 72.613281 78.046875 71.421875 79.3125 69.367188 80.289062 L 69.027344 79.585938 C 70.929688 78.6875 71.984375 77.546875 72.648438 76.128906 C 73.324219 74.6875 73.609375 72.9375 73.933594 70.78125 C 73.949219 70.683594 73.964844 70.585938 73.980469 70.488281 Z M 73.980469 70.488281 "/>
<path style=" stroke:none;fill-rule:nonzero;fill:rgb(98.823529%,81.960785%,8.627451%);fill-opacity:1;" d="M 85.675781 40.496094 L 93.503906 40.496094 L 85.675781 83.1875 L 77.847656 40.496094 L 85.675781 40.496094 L 85.675781 83.1875 Z M 85.675781 40.496094 "/>
<path style=" stroke:none;fill-rule:evenodd;fill:rgb(0%,0%,0%);fill-opacity:1;" d="M 77.378906 40.105469 L 93.972656 40.105469 L 85.675781 85.359375 Z M 78.316406 40.882812 L 85.285156 78.882812 L 85.285156 40.882812 Z M 86.066406 40.882812 L 86.066406 78.882812 L 93.035156 40.882812 Z M 86.066406 40.882812 "/>
<path style=" stroke:none;fill-rule:nonzero;fill:rgb(98.823529%,81.960785%,8.627451%);fill-opacity:1;" d="M 85.671875 54.726562 C 93.597656 54.726562 100.023438 48.355469 100.023438 40.496094 C 100.023438 32.636719 93.597656 26.261719 85.671875 26.261719 C 77.746094 26.261719 71.320312 32.636719 71.320312 40.496094 C 71.320312 48.355469 77.746094 54.726562 85.671875 54.726562 Z M 85.671875 54.726562 "/>
<path style=" stroke:none;fill-rule:evenodd;fill:rgb(0%,0%,0%);fill-opacity:1;" d="M 85.671875 26.652344 C 77.960938 26.652344 71.710938 32.847656 71.710938 40.496094 C 71.710938 48.140625 77.960938 54.335938 85.671875 54.335938 C 93.382812 54.335938 99.632812 48.140625 99.632812 40.496094 C 99.632812 32.847656 93.382812 26.652344 85.671875 26.652344 Z M 70.929688 40.496094 C 70.929688 32.421875 77.53125 25.875 85.671875 25.875 C 93.816406 25.875 100.417969 32.421875 100.417969 40.496094 C 100.417969 48.570312 93.816406 55.113281 85.671875 55.113281 C 77.53125 55.113281 70.929688 48.570312 70.929688 40.496094 Z M 70.929688 40.496094 "/>
<path style=" stroke:none;fill-rule:nonzero;fill:rgb(0%,0%,0%);fill-opacity:1;" d="M 96.234375 34.800781 C 95.320312 35.835938 94.800781 34.027344 91.539062 34.027344 C 88.277344 34.027344 87.753906 35.964844 87.234375 35.578125 C 86.710938 35.191406 89.972656 32.863281 91.015625 32.730469 C 92.058594 32.601562 95.0625 33.636719 96.234375 34.800781 Z M 92.453125 35.964844 C 93.363281 36.742188 92.582031 38.425781 91.667969 38.425781 C 90.753906 38.425781 89.058594 36.871094 89.84375 35.835938 "/>
<path style=" stroke:none;fill-rule:nonzero;fill:rgb(0%,0%,0%);fill-opacity:1;" d="M 88.148438 37.128906 C 88.28125 35.578125 89.585938 35.320312 91.671875 35.320312 C 93.761719 35.320312 94.671875 36.871094 95.457031 37.257812 C 94.542969 37.257812 93.761719 35.964844 91.671875 35.964844 C 89.585938 35.964844 89.585938 35.964844 88.148438 37.257812 M 88.539062 37.519531 C 89.0625 36.742188 89.714844 38.292969 91.148438 38.292969 C 92.585938 38.292969 93.367188 37.90625 94.28125 37.257812 C 95.195312 36.613281 92.976562 38.8125 91.542969 38.8125 C 90.105469 38.8125 88.148438 38.035156 88.539062 37.519531 Z M 88.539062 37.519531 "/>
<path style=" stroke:none;fill-rule:nonzero;fill:rgb(0%,0%,0%);fill-opacity:1;" d="M 92.976562 38.296875 C 94.671875 37.390625 93.628906 36.097656 92.976562 35.835938 C 93.234375 36.097656 94.28125 37.390625 92.976562 38.296875 Z M 85.667969 46.058594 C 86.453125 46.058594 86.710938 45.800781 87.757812 45.800781 C 88.800781 45.800781 91.277344 47.222656 92.714844 46.703125 C 89.714844 47.867188 90.886719 47.09375 85.667969 47.09375 L 85.015625 47.09375 M 93.234375 47.867188 C 92.714844 46.964844 92.84375 47.222656 91.800781 45.800781 C 92.84375 46.574219 93.105469 46.964844 93.234375 47.867188 Z M 85.667969 49.164062 C 88.929688 49.164062 88.410156 48.515625 92.714844 46.703125 C 89.582031 47.09375 88.929688 48.128906 85.667969 48.128906 L 85.015625 48.128906 M 85.667969 44.375 C 86.582031 44.375 86.84375 43.730469 87.886719 43.730469 C 88.929688 43.730469 90.367188 44.117188 91.019531 44.632812 C 91.148438 44.765625 90.625 43.597656 89.582031 43.46875 C 88.539062 43.339844 88.929688 41.660156 87.757812 41.398438 C 87.757812 41.917969 88.148438 41.789062 88.277344 42.566406 C 88.277344 43.210938 87.105469 43.210938 86.84375 42.566406 C 87.105469 43.597656 86.320312 43.597656 85.667969 43.597656 "/>
<path style=" stroke:none;fill-rule:nonzero;fill:rgb(0%,0%,0%);fill-opacity:1;" d="M 85.671875 50.328125 C 85.019531 50.328125 83.324219 50.714844 85.671875 50.714844 C 88.019531 50.714844 86.324219 50.328125 85.671875 50.328125 Z M 85.671875 50.328125 "/>
</g>
</svg>
