<?xml version="1.0" encoding="UTF-8"?>
<svg xmlns="http://www.w3.org/2000/svg" xmlns:xlink="http://www.w3.org/1999/xlink" width="60" height="60" viewBox="0 0 60 60">
<path fill-rule="nonzero" fill="rgb(93.333333%, 93.333333%, 93.333333%)" fill-opacity="1" d="M 55.984375 45 C 58.539062 40.585938 60 35.464844 60 30 C 60 24.535156 58.539062 19.414062 55.984375 15 L 4.015625 15 C 1.460938 19.414062 0 24.535156 0 30 C 0 35.464844 1.460938 40.585938 4.015625 45 Z M 55.984375 45 "/>
<path fill-rule="nonzero" fill="rgb(20%, 54.117647%, 95.294118%)" fill-opacity="1" d="M 29.988281 60 C 18.132812 59.996094 7.882812 53.113281 3.015625 43.125 L 56.984375 43.125 C 52.117188 53.113281 41.867188 59.996094 30.007812 60 Z M 29.988281 60 "/>
<path fill-rule="nonzero" fill="rgb(20%, 54.117647%, 95.294118%)" fill-opacity="1" d="M 30 0 C 18.136719 0 7.882812 6.882812 3.015625 16.875 L 56.984375 16.875 C 52.117188 6.882812 41.863281 0 30 0 Z M 30 0 "/>
<path fill-rule="nonzero" fill="rgb(100%, 77.647059%, 20.784314%)" fill-opacity="1" d="M 30 20.871094 C 24.957031 20.871094 20.871094 24.957031 20.871094 30 C 20.871094 35.042969 24.957031 39.128906 30 39.128906 C 35.042969 39.128906 39.128906 35.042969 39.128906 30 C 39.128906 24.957031 35.042969 20.871094 30 20.871094 Z M 30 35.21875 C 27.117188 35.21875 24.78125 32.882812 24.78125 30 C 24.78125 27.121094 27.117188 24.785156 30 24.785156 C 32.882812 24.785156 35.21875 27.121094 35.21875 30 C 35.21875 32.882812 32.882812 35.21875 30 35.21875 Z M 30 35.21875 "/>
<path fill-rule="nonzero" fill="rgb(0%, 32.156863%, 70.588235%)" fill-opacity="1" d="M 34.519531 31.304688 L 30 30 L 25.480469 31.304688 L 23.976562 33.914062 L 36.023438 33.914062 Z M 34.519531 31.304688 "/>
<path fill-rule="nonzero" fill="rgb(20%, 54.117647%, 95.294118%)" fill-opacity="1" d="M 30 23.476562 L 26.988281 28.695312 L 30 30 L 33.011719 28.695312 Z M 30 23.476562 "/>
<path fill-rule="nonzero" fill="rgb(42.745098%, 64.705882%, 26.666667%)" fill-opacity="1" d="M 25.480469 31.304688 L 34.519531 31.304688 L 33.011719 28.695312 L 26.988281 28.695312 Z M 25.480469 31.304688 "/>
</svg>
