<?xml version="1.0" encoding="UTF-8"?>
<svg xmlns="http://www.w3.org/2000/svg" xmlns:xlink="http://www.w3.org/1999/xlink" width="40" height="40" viewBox="0 0 40 40">
<path fill-rule="nonzero" fill="rgb(93.333333%, 93.333333%, 93.333333%)" fill-opacity="1" d="M 37.324219 30 C 39.027344 27.058594 40 23.644531 40 20 C 40 16.355469 39.027344 12.941406 37.324219 10 L 2.675781 10 C 0.972656 12.941406 0 16.355469 0 20 C 0 23.644531 0.972656 27.058594 2.675781 30 Z M 37.324219 30 "/>
<path fill-rule="nonzero" fill="rgb(20%, 54.117647%, 95.294118%)" fill-opacity="1" d="M 19.992188 40 C 12.089844 39.996094 5.253906 35.410156 2.011719 28.75 L 37.988281 28.75 C 34.746094 35.410156 27.910156 39.996094 20.007812 40 Z M 19.992188 40 "/>
<path fill-rule="nonzero" fill="rgb(20%, 54.117647%, 95.294118%)" fill-opacity="1" d="M 20 0 C 12.09375 0 5.257812 4.589844 2.011719 11.25 L 37.988281 11.25 C 34.742188 4.589844 27.910156 0 20 0 Z M 20 0 "/>
<path fill-rule="nonzero" fill="rgb(100%, 77.647059%, 20.784314%)" fill-opacity="1" d="M 20 13.914062 C 16.636719 13.914062 13.914062 16.636719 13.914062 20 C 13.914062 23.363281 16.636719 26.085938 20 26.085938 C 23.363281 26.085938 26.085938 23.363281 26.085938 20 C 26.085938 16.636719 23.363281 13.914062 20 13.914062 Z M 20 23.480469 C 18.078125 23.480469 16.523438 21.921875 16.523438 20 C 16.523438 18.078125 18.078125 16.523438 20 16.523438 C 21.921875 16.523438 23.476562 18.078125 23.476562 20 C 23.476562 21.921875 21.921875 23.480469 20 23.480469 Z M 20 23.480469 "/>
<path fill-rule="nonzero" fill="rgb(0%, 32.156863%, 70.588235%)" fill-opacity="1" d="M 23.011719 20.871094 L 20 20 L 16.988281 20.871094 L 15.984375 22.609375 L 24.015625 22.609375 Z M 23.011719 20.871094 "/>
<path fill-rule="nonzero" fill="rgb(20%, 54.117647%, 95.294118%)" fill-opacity="1" d="M 20 15.652344 L 17.992188 19.128906 L 20 20 L 22.007812 19.128906 Z M 20 15.652344 "/>
<path fill-rule="nonzero" fill="rgb(42.745098%, 64.705882%, 26.666667%)" fill-opacity="1" d="M 16.988281 20.871094 L 23.011719 20.871094 L 22.007812 19.128906 L 17.992188 19.128906 Z M 16.988281 20.871094 "/>
</svg>
