<?xml version="1.0" encoding="UTF-8"?>
<svg xmlns="http://www.w3.org/2000/svg" xmlns:xlink="http://www.w3.org/1999/xlink" width="60" height="60" viewBox="0 0 60 60">
<path fill-rule="nonzero" fill="rgb(93.333333%, 93.333333%, 93.333333%)" fill-opacity="1" d="M 15 55.984375 C 19.414062 58.539062 24.535156 60 30 60 C 35.464844 60 40.585938 58.539062 45 55.984375 L 45 4.015625 C 40.585938 1.460938 35.464844 0 30 0 C 24.535156 0 19.414062 1.460938 15 4.015625 Z M 15 55.984375 "/>
<path fill-rule="nonzero" fill="rgb(84.705882%, 0%, 15.294118%)" fill-opacity="1" d="M 0 29.988281 C 0.00390625 18.132812 6.886719 7.882812 16.875 3.015625 L 16.875 56.984375 C 6.886719 52.117188 0.00390625 41.867188 0 30.007812 C 0 30.007812 0 30.003906 0 30 C 0 29.996094 0 29.992188 0 29.988281 Z M 0 29.988281 "/>
<path fill-rule="nonzero" fill="rgb(84.705882%, 0%, 15.294118%)" fill-opacity="1" d="M 60 30 C 60 18.136719 53.117188 7.882812 43.125 3.015625 L 43.125 56.984375 C 53.117188 52.117188 60 41.863281 60 30 Z M 60 30 "/>
<path fill-rule="nonzero" fill="rgb(84.705882%, 0%, 15.294118%)" fill-opacity="1" d="M 35.21875 33.914062 L 40.433594 31.304688 L 37.824219 30 L 37.824219 27.390625 L 32.609375 30 L 35.21875 24.78125 L 32.609375 24.78125 L 30 20.871094 L 27.390625 24.78125 L 24.78125 24.78125 L 27.390625 30 L 22.171875 27.390625 L 22.171875 30 L 19.566406 31.304688 L 24.78125 33.914062 L 23.476562 36.523438 L 28.695312 36.523438 L 28.695312 40.433594 L 31.304688 40.433594 L 31.304688 36.523438 L 36.523438 36.523438 Z M 35.21875 33.914062 "/>
</svg>
