<?xml version="1.0" encoding="UTF-8"?>
<svg width="16px" height="16px" viewBox="0 0 16 16" version="1.1" xmlns="http://www.w3.org/2000/svg" xmlns:xlink="http://www.w3.org/1999/xlink">
    <title>9919A529-E603-4631-AEE5-DD39DF0BD56E</title>
    <g id="Preferences" stroke="none" stroke-width="1" fill="none" fill-rule="evenodd">
        <g id="Help-Dark" transform="translate(-113.000000, -529.000000)" fill="#FFFFFF" fill-rule="nonzero">
            <g id="viewlogicon" transform="translate(113.000000, 529.000000)">
                <path d="M10,0 C11.1045695,0 12,0.8954305 12,2 L12,3 L10,3 L10,2 L2,2 L2,14 L5,14 L5,16 L2,16 C0.8954305,16 0,15.1045695 0,14 L0,2 C0,0.8954305 0.8954305,0 2,0 L10,0 Z" id="Combined-Shape"></path>
                <path d="M9.5,5 C11.9852814,5 14,7.01471863 14,9.5 C14,11.9852814 11.9852814,14 9.5,14 C7.01471863,14 5,11.9852814 5,9.5 C5,7.01471863 7.01471863,5 9.5,5 Z M9.5,7 C8.11928813,7 7,8.11928813 7,9.5 C7,10.8807119 8.11928813,12 9.5,12 C10.8807119,12 12,10.8807119 12,9.5 C12,8.11928813 10.8807119,7 9.5,7 Z" id="Oval"></path>
                <path d="M11.2928932,11.2928932 C11.6834175,10.9023689 12.3165825,10.9023689 12.7071068,11.2928932 L15.7071068,14.2928932 C16.0976311,14.6834175 16.0976311,15.3165825 15.7071068,15.7071068 C15.3165825,16.0976311 14.6834175,16.0976311 14.2928932,15.7071068 L11.2928932,12.7071068 C10.9023689,12.3165825 10.9023689,11.6834175 11.2928932,11.2928932 Z" id="Path-4"></path>
            </g>
        </g>
    </g>
</svg>