<?xml version="1.0" encoding="UTF-8"?>
<svg xmlns="http://www.w3.org/2000/svg" xmlns:xlink="http://www.w3.org/1999/xlink" width="20" height="20" viewBox="0 0 20 20">
<path fill-rule="nonzero" fill="rgb(0%, 32.156863%, 70.588235%)" fill-opacity="1" d="M 20 10 C 20 15.523438 15.523438 20 10 20 C 4.476562 20 0 15.523438 0 10 C 0 4.476562 4.476562 0 10 0 C 15.523438 0 20 4.476562 20 10 Z M 20 10 "/>
<path fill-rule="nonzero" fill="rgb(93.333333%, 93.333333%, 93.333333%)" fill-opacity="1" d="M 4.390625 6.085938 L 4.609375 6.75 L 5.308594 6.75 L 4.742188 7.160156 L 4.957031 7.824219 L 4.390625 7.414062 L 3.828125 7.824219 L 4.042969 7.160156 L 3.476562 6.75 L 4.179688 6.75 Z M 6.566406 5.433594 L 6.78125 6.097656 L 7.484375 6.097656 L 6.914062 6.507812 L 7.132812 7.171875 L 6.566406 6.761719 L 6 7.175781 L 6.21875 6.511719 L 5.652344 6.097656 L 6.351562 6.097656 Z M 8.742188 4.78125 L 8.957031 5.445312 L 9.65625 5.445312 L 9.089844 5.859375 L 9.304688 6.523438 L 8.742188 6.109375 L 8.175781 6.523438 L 8.390625 5.859375 L 7.824219 5.445312 L 8.527344 5.445312 Z M 15.609375 6.085938 L 15.390625 6.75 L 14.691406 6.75 L 15.257812 7.160156 L 15.042969 7.824219 L 15.609375 7.414062 L 16.171875 7.824219 L 15.957031 7.160156 L 16.523438 6.75 L 15.820312 6.75 Z M 13.433594 5.433594 L 13.21875 6.097656 L 12.515625 6.097656 L 13.085938 6.507812 L 12.867188 7.171875 L 13.433594 6.761719 L 14 7.175781 L 13.78125 6.511719 L 14.347656 6.097656 L 13.648438 6.097656 Z M 11.257812 4.78125 L 11.042969 5.445312 L 10.34375 5.445312 L 10.910156 5.859375 L 10.695312 6.523438 L 11.257812 6.109375 L 11.824219 6.523438 L 11.609375 5.859375 L 12.175781 5.445312 L 11.472656 5.445312 Z M 11.257812 4.78125 "/>
<path fill-rule="nonzero" fill="rgb(100%, 77.647059%, 20.784314%)" fill-opacity="1" d="M 11.738281 10.433594 L 10 8.261719 L 9.128906 8.695312 L 9.128906 9.570312 L 7.824219 10.429688 L 6.957031 10.429688 L 6.957031 11.5625 C 7.597656 11.824219 8.148438 12.269531 8.535156 12.84375 C 8.921875 13.417969 9.128906 14.09375 9.128906 14.785156 L 10 14.785156 L 10 13.917969 L 10.871094 13.046875 L 11.738281 13.917969 L 12.609375 13.046875 L 12.609375 12.179688 L 13.476562 10.875 L 11.738281 10.4375 Z M 11.738281 10.433594 "/>
</svg>
