<?xml version="1.0" encoding="UTF-8"?>
<svg xmlns="http://www.w3.org/2000/svg" xmlns:xlink="http://www.w3.org/1999/xlink" width="40" height="40" viewBox="0 0 40 40">
<path fill-rule="nonzero" fill="rgb(0%, 32.156863%, 70.588235%)" fill-opacity="1" d="M 40 20 C 40 31.046875 31.046875 40 20 40 C 8.953125 40 0 31.046875 0 20 C 0 8.953125 8.953125 0 20 0 C 31.046875 0 40 8.953125 40 20 Z M 40 20 "/>
<path fill-rule="nonzero" fill="rgb(93.333333%, 93.333333%, 93.333333%)" fill-opacity="1" d="M 8.78125 12.171875 L 9.21875 13.5 L 10.617188 13.5 L 9.484375 14.320312 L 9.914062 15.648438 L 8.78125 14.828125 L 7.65625 15.648438 L 8.085938 14.320312 L 6.953125 13.5 L 8.359375 13.5 Z M 13.132812 10.867188 L 13.5625 12.195312 L 14.96875 12.195312 L 13.828125 13.015625 L 14.265625 14.34375 L 13.132812 13.523438 L 12 14.351562 L 12.4375 13.023438 L 11.304688 12.195312 L 12.703125 12.195312 Z M 17.484375 9.5625 L 17.914062 10.890625 L 19.3125 10.890625 L 18.179688 11.71875 L 18.609375 13.046875 L 17.484375 12.21875 L 16.351562 13.046875 L 16.78125 11.71875 L 15.648438 10.890625 L 17.054688 10.890625 Z M 31.21875 12.171875 L 30.78125 13.5 L 29.382812 13.5 L 30.515625 14.320312 L 30.085938 15.648438 L 31.21875 14.828125 L 32.34375 15.648438 L 31.914062 14.320312 L 33.046875 13.5 L 31.640625 13.5 Z M 26.867188 10.867188 L 26.4375 12.195312 L 25.03125 12.195312 L 26.171875 13.015625 L 25.734375 14.34375 L 26.867188 13.523438 L 28 14.351562 L 27.5625 13.023438 L 28.695312 12.195312 L 27.296875 12.195312 Z M 22.515625 9.5625 L 22.085938 10.890625 L 20.6875 10.890625 L 21.820312 11.71875 L 21.390625 13.046875 L 22.515625 12.21875 L 23.648438 13.046875 L 23.21875 11.71875 L 24.351562 10.890625 L 22.945312 10.890625 Z M 22.515625 9.5625 "/>
<path fill-rule="nonzero" fill="rgb(100%, 77.647059%, 20.784314%)" fill-opacity="1" d="M 23.476562 20.867188 L 20 16.523438 L 18.257812 17.390625 L 18.257812 19.140625 L 15.648438 20.859375 L 13.914062 20.859375 L 13.914062 23.125 C 15.199219 23.644531 16.296875 24.535156 17.070312 25.683594 C 17.84375 26.832031 18.257812 28.1875 18.257812 29.570312 L 20 29.570312 L 20 27.835938 L 21.742188 26.09375 L 23.476562 27.835938 L 25.21875 26.09375 L 25.21875 24.359375 L 26.953125 21.75 L 23.476562 20.875 Z M 23.476562 20.867188 "/>
</svg>
