<?xml version="1.0" encoding="UTF-8"?>
<svg xmlns="http://www.w3.org/2000/svg" xmlns:xlink="http://www.w3.org/1999/xlink" width="60" height="60" viewBox="0 0 60 60">
<path fill-rule="nonzero" fill="rgb(0%, 32.156863%, 70.588235%)" fill-opacity="1" d="M 60 30 C 60 46.570312 46.570312 60 30 60 C 13.429688 60 0 46.570312 0 30 C 0 13.429688 13.429688 0 30 0 C 46.570312 0 60 13.429688 60 30 Z M 60 30 "/>
<path fill-rule="nonzero" fill="rgb(93.333333%, 93.333333%, 93.333333%)" fill-opacity="1" d="M 13.171875 18.257812 L 13.828125 20.25 L 15.925781 20.25 L 14.226562 21.480469 L 14.871094 23.472656 L 13.171875 22.242188 L 11.484375 23.472656 L 12.128906 21.480469 L 10.429688 20.25 L 12.539062 20.25 Z M 19.699219 16.300781 L 20.34375 18.292969 L 22.453125 18.292969 L 20.742188 19.523438 L 21.398438 21.515625 L 19.699219 20.285156 L 18 21.527344 L 18.65625 19.535156 L 16.957031 18.292969 L 19.054688 18.292969 Z M 26.226562 14.34375 L 26.871094 16.335938 L 28.96875 16.335938 L 27.269531 17.578125 L 27.914062 19.570312 L 26.226562 18.328125 L 24.527344 19.570312 L 25.171875 17.578125 L 23.472656 16.335938 L 25.582031 16.335938 Z M 46.828125 18.257812 L 46.171875 20.25 L 44.074219 20.25 L 45.773438 21.480469 L 45.128906 23.472656 L 46.828125 22.242188 L 48.515625 23.472656 L 47.871094 21.480469 L 49.570312 20.25 L 47.460938 20.25 Z M 40.300781 16.300781 L 39.65625 18.292969 L 37.546875 18.292969 L 39.257812 19.523438 L 38.601562 21.515625 L 40.300781 20.285156 L 42 21.527344 L 41.34375 19.535156 L 43.042969 18.292969 L 40.945312 18.292969 Z M 33.773438 14.34375 L 33.128906 16.335938 L 31.03125 16.335938 L 32.730469 17.578125 L 32.085938 19.570312 L 33.773438 18.328125 L 35.472656 19.570312 L 34.828125 17.578125 L 36.527344 16.335938 L 34.417969 16.335938 Z M 33.773438 14.34375 "/>
<path fill-rule="nonzero" fill="rgb(100%, 77.647059%, 20.784314%)" fill-opacity="1" d="M 35.214844 31.300781 L 30 24.785156 L 27.386719 26.085938 L 27.386719 28.710938 L 23.472656 31.289062 L 20.871094 31.289062 L 20.871094 34.6875 C 22.796875 35.46875 24.445312 36.804688 25.605469 38.527344 C 26.765625 40.25 27.386719 42.277344 27.386719 44.355469 L 30 44.355469 L 30 41.753906 L 32.613281 39.140625 L 35.214844 41.753906 L 37.828125 39.140625 L 37.828125 36.539062 L 40.429688 32.625 L 35.214844 31.3125 Z M 35.214844 31.300781 "/>
</svg>
