<?xml version="1.0" encoding="UTF-8"?>
<svg xmlns="http://www.w3.org/2000/svg" xmlns:xlink="http://www.w3.org/1999/xlink" width="40" height="40" viewBox="0 0 40 40">
<path fill-rule="nonzero" fill="rgb(93.333333%, 93.333333%, 93.333333%)" fill-opacity="1" d="M 10 37.324219 C 12.941406 39.027344 16.355469 40 20 40 C 23.644531 40 27.058594 39.027344 30 37.324219 L 30 2.675781 C 27.058594 0.972656 23.644531 0 20 0 C 16.355469 0 12.941406 0.972656 10 2.675781 Z M 10 37.324219 "/>
<path fill-rule="nonzero" fill="rgb(20%, 54.117647%, 95.294118%)" fill-opacity="1" d="M 0 19.992188 C 0.00390625 12.089844 4.589844 5.253906 11.25 2.011719 L 11.25 37.988281 C 4.589844 34.746094 0.00390625 27.910156 0 20.007812 C 0 20.003906 0 20 0 20 C 0 19.996094 0 19.996094 0 19.992188 Z M 0 19.992188 "/>
<path fill-rule="nonzero" fill="rgb(20%, 54.117647%, 95.294118%)" fill-opacity="1" d="M 40 20 C 40 12.09375 35.410156 5.257812 28.75 2.011719 L 28.75 37.988281 C 35.410156 34.742188 40 27.910156 40 20 Z M 40 20 "/>
<path fill-rule="nonzero" fill="rgb(42.745098%, 64.705882%, 26.666667%)" fill-opacity="1" d="M 24.917969 15.082031 L 23.074219 16.925781 C 23.859375 17.710938 24.347656 18.800781 24.347656 20 C 24.347656 22.402344 22.402344 24.347656 20 24.347656 C 17.597656 24.347656 15.652344 22.402344 15.652344 20 C 15.652344 18.800781 16.140625 17.710938 16.925781 16.925781 L 15.082031 15.082031 C 13.820312 16.339844 13.042969 18.078125 13.042969 20 C 13.042969 23.84375 16.15625 26.957031 20 26.957031 C 23.839844 26.957031 26.957031 23.84375 26.957031 20 C 26.957031 18.078125 26.175781 16.339844 24.917969 15.082031 Z M 24.917969 15.082031 "/>
<path fill-rule="nonzero" fill="rgb(67.45098%, 67.058824%, 69.411765%)" fill-opacity="1" d="M 25.226562 23.382812 L 21.84375 20 L 25.0625 16.78125 L 24.917969 15.082031 L 23.996094 14.160156 L 20 18.15625 L 16.003906 14.160156 L 15.082031 15.082031 L 14.9375 16.78125 L 18.15625 20 L 14.773438 23.382812 L 16.617188 25.226562 L 20 21.84375 L 23.382812 25.226562 Z M 25.226562 23.382812 "/>
</svg>
