<?xml version="1.0" encoding="UTF-8"?>
<svg xmlns="http://www.w3.org/2000/svg" xmlns:xlink="http://www.w3.org/1999/xlink" width="60" height="60" viewBox="0 0 60 60">
<path fill-rule="nonzero" fill="rgb(93.333333%, 93.333333%, 93.333333%)" fill-opacity="1" d="M 15 55.984375 C 19.414062 58.539062 24.535156 60 30 60 C 35.464844 60 40.585938 58.539062 45 55.984375 L 45 4.015625 C 40.585938 1.460938 35.464844 0 30 0 C 24.535156 0 19.414062 1.460938 15 4.015625 Z M 15 55.984375 "/>
<path fill-rule="nonzero" fill="rgb(20%, 54.117647%, 95.294118%)" fill-opacity="1" d="M 0 29.988281 C 0.00390625 18.132812 6.886719 7.882812 16.875 3.015625 L 16.875 56.984375 C 6.886719 52.117188 0.00390625 41.867188 0 30.007812 C 0 30.007812 0 30.003906 0 30 C 0 29.996094 0 29.992188 0 29.988281 Z M 0 29.988281 "/>
<path fill-rule="nonzero" fill="rgb(20%, 54.117647%, 95.294118%)" fill-opacity="1" d="M 60 30 C 60 18.136719 53.117188 7.882812 43.125 3.015625 L 43.125 56.984375 C 53.117188 52.117188 60 41.863281 60 30 Z M 60 30 "/>
<path fill-rule="nonzero" fill="rgb(42.745098%, 64.705882%, 26.666667%)" fill-opacity="1" d="M 37.378906 22.621094 L 34.609375 25.390625 C 35.792969 26.570312 36.523438 28.199219 36.523438 30 C 36.523438 33.601562 33.601562 36.523438 30 36.523438 C 26.398438 36.523438 23.476562 33.601562 23.476562 30 C 23.476562 28.199219 24.207031 26.570312 25.386719 25.390625 L 22.621094 22.621094 C 20.734375 24.511719 19.566406 27.117188 19.566406 30 C 19.566406 35.761719 24.238281 40.433594 30 40.433594 C 35.761719 40.433594 40.433594 35.761719 40.433594 30 C 40.433594 27.117188 39.265625 24.511719 37.378906 22.621094 Z M 37.378906 22.621094 "/>
<path fill-rule="nonzero" fill="rgb(67.45098%, 67.058824%, 69.411765%)" fill-opacity="1" d="M 37.839844 35.074219 L 32.765625 30 L 37.597656 25.171875 L 37.375 22.621094 L 35.996094 21.238281 L 30 27.234375 L 24.007812 21.238281 L 22.625 22.621094 L 22.40625 25.171875 L 27.234375 30 L 22.160156 35.074219 L 24.925781 37.839844 L 30 32.765625 L 35.074219 37.839844 Z M 37.839844 35.074219 "/>
</svg>
