<?xml version="1.0" encoding="UTF-8"?>
<svg xmlns="http://www.w3.org/2000/svg" xmlns:xlink="http://www.w3.org/1999/xlink" width="20" height="20" viewBox="0 0 20 20">
<path fill-rule="nonzero" fill="rgb(93.333333%, 93.333333%, 93.333333%)" fill-opacity="1" d="M 5 18.664062 C 6.472656 19.511719 8.179688 20 10 20 C 11.820312 20 13.527344 19.511719 15 18.664062 L 15 1.335938 C 13.527344 0.488281 11.820312 0 10 0 C 8.179688 0 6.472656 0.488281 5 1.335938 Z M 5 18.664062 "/>
<path fill-rule="nonzero" fill="rgb(20%, 54.117647%, 95.294118%)" fill-opacity="1" d="M 0 9.996094 C 0 6.042969 2.296875 2.628906 5.625 1.003906 L 5.625 18.996094 C 2.296875 17.371094 0 13.957031 0 10.003906 C 0 10 0 10 0 10 C 0 10 0 9.996094 0 9.996094 Z M 0 9.996094 "/>
<path fill-rule="nonzero" fill="rgb(20%, 54.117647%, 95.294118%)" fill-opacity="1" d="M 20 10 C 20 6.046875 17.707031 2.628906 14.375 1.003906 L 14.375 18.996094 C 17.707031 17.371094 20 13.953125 20 10 Z M 20 10 "/>
<path fill-rule="nonzero" fill="rgb(42.745098%, 64.705882%, 26.666667%)" fill-opacity="1" d="M 12.460938 7.539062 L 11.535156 8.464844 C 11.929688 8.855469 12.171875 9.398438 12.171875 10 C 12.171875 11.199219 11.199219 12.175781 10 12.175781 C 8.800781 12.175781 7.824219 11.199219 7.824219 10 C 7.824219 9.398438 8.070312 8.855469 8.460938 8.464844 L 7.539062 7.539062 C 6.910156 8.171875 6.523438 9.039062 6.523438 10 C 6.523438 11.921875 8.078125 13.476562 10 13.476562 C 11.921875 13.476562 13.476562 11.921875 13.476562 10 C 13.476562 9.039062 13.089844 8.171875 12.460938 7.539062 Z M 12.460938 7.539062 "/>
<path fill-rule="nonzero" fill="rgb(67.45098%, 67.058824%, 69.411765%)" fill-opacity="1" d="M 12.613281 11.691406 L 10.921875 10 L 12.53125 8.390625 L 12.460938 7.539062 L 12 7.078125 L 10 9.078125 L 8 7.078125 L 7.542969 7.539062 L 7.46875 8.390625 L 9.078125 10 L 7.386719 11.691406 L 8.308594 12.613281 L 10 10.921875 L 11.691406 12.613281 Z M 12.613281 11.691406 "/>
</svg>
