<?xml version="1.0" encoding="UTF-8"?>
<svg xmlns="http://www.w3.org/2000/svg" xmlns:xlink="http://www.w3.org/1999/xlink" width="20" height="20" viewBox="0 0 20 20">
<path fill-rule="nonzero" fill="rgb(100%, 85.490196%, 26.666667%)" fill-opacity="1" d="M 18.664062 15 C 19.511719 13.527344 20 11.820312 20 10 C 20 8.179688 19.511719 6.472656 18.664062 5 L 1.335938 5 C 0.488281 6.472656 0 8.179688 0 10 C 0 11.820312 0.488281 13.527344 1.335938 15 Z M 18.664062 15 "/>
<path fill-rule="nonzero" fill="rgb(84.705882%, 0%, 15.294118%)" fill-opacity="1" d="M 9.996094 20 C 6.042969 20 2.628906 17.703125 1.003906 14.375 L 18.996094 14.375 C 17.371094 17.703125 13.957031 20 10.003906 20 Z M 9.996094 20 "/>
<path fill-rule="nonzero" fill="rgb(84.705882%, 0%, 15.294118%)" fill-opacity="1" d="M 10 0 C 6.046875 0 2.628906 2.292969 1.003906 5.625 L 18.996094 5.625 C 17.371094 2.292969 13.953125 0 10 0 Z M 10 0 "/>
<path fill-rule="nonzero" fill="rgb(93.333333%, 93.333333%, 93.333333%)" fill-opacity="1" d="M 5.625 11.875 L 5 11.875 L 5 8.75 L 5.625 8.75 Z M 10.625 11.875 L 11.25 11.875 L 11.25 8.75 L 10.625 8.75 Z M 10.625 11.875 "/>
<path fill-rule="nonzero" fill="rgb(84.705882%, 0%, 15.294118%)" fill-opacity="1" d="M 4.765625 9.6875 C 4.722656 9.6875 4.683594 9.703125 4.65625 9.734375 C 4.625 9.761719 4.609375 9.800781 4.609375 9.84375 C 4.609375 9.886719 4.625 9.925781 4.65625 9.953125 C 4.683594 9.984375 4.722656 10 4.765625 10 L 11.484375 10 C 11.527344 10 11.566406 9.984375 11.59375 9.953125 C 11.625 9.925781 11.640625 9.886719 11.640625 9.84375 C 11.640625 9.800781 11.625 9.761719 11.59375 9.734375 C 11.566406 9.703125 11.527344 9.6875 11.484375 9.6875 Z M 4.765625 10.625 C 4.722656 10.625 4.683594 10.640625 4.65625 10.671875 C 4.625 10.699219 4.609375 10.738281 4.609375 10.78125 C 4.609375 10.824219 4.625 10.863281 4.65625 10.890625 C 4.683594 10.921875 4.722656 10.9375 4.765625 10.9375 L 5.859375 10.9375 C 5.902344 10.9375 5.941406 10.921875 5.96875 10.890625 C 6 10.863281 6.015625 10.824219 6.015625 10.78125 C 6.015625 10.738281 6 10.699219 5.96875 10.671875 C 5.941406 10.640625 5.902344 10.625 5.859375 10.625 Z M 10.390625 10.625 C 10.347656 10.625 10.308594 10.640625 10.28125 10.671875 C 10.25 10.699219 10.234375 10.738281 10.234375 10.78125 C 10.234375 10.824219 10.25 10.863281 10.28125 10.890625 C 10.308594 10.921875 10.347656 10.9375 10.390625 10.9375 L 11.484375 10.9375 C 11.527344 10.9375 11.566406 10.921875 11.59375 10.890625 C 11.625 10.863281 11.640625 10.824219 11.640625 10.78125 C 11.640625 10.738281 11.625 10.699219 11.59375 10.671875 C 11.566406 10.640625 11.527344 10.625 11.484375 10.625 Z M 10.390625 10.625 "/>
<path fill-rule="evenodd" fill="rgb(93.333333%, 93.333333%, 93.333333%)" fill-opacity="1" d="M 7.65625 6.5625 C 7.382812 6.5625 7.148438 6.757812 7.070312 6.992188 L 6.875 6.953125 C 6.523438 6.953125 6.25 7.226562 6.25 7.578125 C 6.25 7.929688 6.523438 8.203125 6.875 8.203125 C 7.148438 8.203125 7.382812 8.046875 7.460938 7.773438 C 7.574219 7.816406 7.699219 7.820312 7.816406 7.792969 C 7.933594 7.765625 8.042969 7.703125 8.125 7.617188 C 8.207031 7.703125 8.316406 7.765625 8.433594 7.792969 C 8.550781 7.820312 8.675781 7.816406 8.789062 7.773438 C 8.828125 7.890625 8.898438 7.996094 8.996094 8.074219 C 9.09375 8.148438 9.210938 8.195312 9.335938 8.207031 C 9.460938 8.214844 9.585938 8.1875 9.691406 8.125 C 9.800781 8.066406 9.886719 7.972656 9.941406 7.863281 C 10 7.75 10.019531 7.625 10.003906 7.503906 C 9.988281 7.378906 9.9375 7.265625 9.855469 7.171875 C 9.773438 7.078125 9.664062 7.011719 9.542969 6.976562 C 9.425781 6.945312 9.296875 6.953125 9.179688 6.992188 C 9.140625 6.890625 9.078125 6.800781 8.996094 6.730469 C 8.914062 6.664062 8.8125 6.617188 8.707031 6.59375 C 8.601562 6.574219 8.492188 6.585938 8.390625 6.621094 C 8.289062 6.65625 8.195312 6.714844 8.125 6.796875 C 8.007812 6.640625 7.851562 6.5625 7.65625 6.5625 Z M 7.65625 6.875 C 7.851562 6.875 7.96875 7.03125 7.96875 7.1875 C 7.96875 7.382812 7.851562 7.5 7.65625 7.5 C 7.5 7.5 7.34375 7.382812 7.34375 7.1875 C 7.34375 7.03125 7.5 6.875 7.65625 6.875 Z M 8.59375 6.875 C 8.789062 6.875 8.90625 7.03125 8.90625 7.1875 C 8.90625 7.382812 8.789062 7.5 8.59375 7.5 C 8.4375 7.5 8.28125 7.382812 8.28125 7.1875 C 8.28125 7.03125 8.4375 6.875 8.59375 6.875 Z M 6.875 7.265625 L 7.03125 7.304688 L 7.1875 7.617188 C 7.1875 7.773438 7.03125 7.890625 6.875 7.890625 C 6.71875 7.890625 6.5625 7.773438 6.5625 7.578125 C 6.5625 7.421875 6.71875 7.265625 6.875 7.265625 Z M 9.375 7.265625 C 9.570312 7.265625 9.6875 7.421875 9.6875 7.578125 C 9.6875 7.773438 9.570312 7.890625 9.375 7.890625 C 9.21875 7.890625 9.0625 7.773438 9.0625 7.617188 L 9.21875 7.304688 Z M 8.125 12.8125 C 9.160156 12.8125 10 12.253906 10 11.5625 C 10 11.1875 9.753906 10.855469 9.367188 10.625 L 10 10.625 L 10 8.75 L 8.125 8.75 L 8.125 10.3125 C 7.089844 10.3125 6.25 10.871094 6.25 11.5625 C 6.25 12.253906 7.089844 12.8125 8.125 12.8125 Z M 8.125 12.8125 "/>
<path fill-rule="nonzero" fill="rgb(100%, 59.607843%, 6.666667%)" fill-opacity="1" d="M 7.8125 6.25 L 8.4375 6.25 L 8.4375 7.5 L 7.8125 7.5 Z M 7.8125 6.25 "/>
<path fill-rule="evenodd" fill="rgb(84.705882%, 0%, 15.294118%)" fill-opacity="1" d="M 9.6875 8.125 L 9.375 8.4375 L 6.875 8.4375 L 6.5625 8.125 C 6.5625 7.617188 7.265625 7.1875 8.125 7.1875 C 8.984375 7.1875 9.6875 7.617188 9.6875 8.125 Z M 5.3125 7.5 C 5.484375 7.5 5.625 7.640625 5.625 7.8125 L 5.625 8.125 C 5.625 8.296875 5.484375 8.4375 5.3125 8.4375 C 5.140625 8.4375 5 8.296875 5 8.125 L 5 7.8125 C 5 7.640625 5.140625 7.5 5.3125 7.5 Z M 10.9375 7.5 C 11.109375 7.5 11.25 7.640625 11.25 7.8125 L 11.25 8.125 C 11.25 8.296875 11.109375 8.4375 10.9375 8.4375 C 10.765625 8.4375 10.625 8.296875 10.625 8.125 L 10.625 7.8125 C 10.625 7.640625 10.765625 7.5 10.9375 7.5 Z M 8.125 10.625 L 8.125 11.5625 C 8.125 11.8125 8.222656 12.050781 8.398438 12.226562 C 8.574219 12.402344 8.8125 12.5 9.0625 12.5 C 9.3125 12.5 9.550781 12.402344 9.726562 12.226562 C 9.902344 12.050781 10 11.8125 10 11.5625 L 10 10.625 Z M 8.125 10.625 L 6.25 10.625 L 6.25 8.75 L 8.125 8.75 Z M 9.453125 9.453125 C 9.453125 9.238281 9.277344 9.0625 9.0625 9.0625 C 8.847656 9.0625 8.671875 9.238281 8.671875 9.453125 L 8.671875 9.921875 C 8.671875 10.136719 8.847656 10.3125 9.0625 10.3125 C 9.277344 10.3125 9.453125 10.136719 9.453125 9.921875 Z M 9.453125 9.453125 "/>
<path fill-rule="evenodd" fill="rgb(100%, 59.607843%, 6.666667%)" fill-opacity="1" d="M 5 8.125 L 5.625 8.125 C 5.796875 8.125 5.9375 8.265625 5.9375 8.4375 C 5.9375 8.609375 5.796875 8.75 5.625 8.75 L 5 8.75 C 4.828125 8.75 4.6875 8.609375 4.6875 8.4375 C 4.6875 8.265625 4.828125 8.125 5 8.125 Z M 10.625 8.125 L 11.25 8.125 C 11.421875 8.125 11.5625 8.265625 11.5625 8.4375 C 11.5625 8.609375 11.421875 8.75 11.25 8.75 L 10.625 8.75 C 10.453125 8.75 10.3125 8.609375 10.3125 8.4375 C 10.3125 8.265625 10.453125 8.125 10.625 8.125 Z M 5.625 11.875 L 5 11.875 C 4.828125 11.875 4.6875 12.015625 4.6875 12.1875 C 4.6875 12.359375 4.828125 12.5 5 12.5 L 5.625 12.5 C 5.796875 12.5 5.9375 12.359375 5.9375 12.1875 C 5.9375 12.015625 5.796875 11.875 5.625 11.875 Z M 10.625 11.875 L 11.25 11.875 C 11.421875 11.875 11.5625 12.015625 11.5625 12.1875 C 11.5625 12.359375 11.421875 12.5 11.25 12.5 L 10.625 12.5 C 10.453125 12.5 10.3125 12.359375 10.3125 12.1875 C 10.3125 12.015625 10.453125 11.875 10.625 11.875 Z M 6.25 10.625 L 6.25 11.5625 C 6.25 11.875 6.40625 12.109375 6.601562 12.304688 L 6.796875 12.070312 L 6.992188 12.460938 C 7.121094 12.492188 7.253906 12.492188 7.382812 12.460938 L 7.578125 12.070312 L 7.773438 12.304688 C 8.007812 12.109375 8.125 11.875 8.125 11.5625 L 8.125 10.625 L 7.773438 10.625 L 7.578125 10.9375 L 7.382812 10.625 L 6.992188 10.625 L 6.796875 10.9375 L 6.601562 10.625 Z M 6.5625 9.375 L 6.5625 9.0625 L 7.8125 9.0625 L 7.8125 9.375 L 7.5 9.375 L 7.5 10 L 7.8125 10 L 7.8125 10.3125 L 6.5625 10.3125 L 6.5625 10 L 6.875 10 L 6.875 9.375 Z M 9.375 8.4375 L 6.875 8.4375 L 6.875 8.75 L 9.375 8.75 Z M 9.375 8.4375 "/>
<path fill-rule="nonzero" fill="rgb(84.705882%, 0%, 15.294118%)" fill-opacity="1" d="M 6.601562 10.625 L 6.601562 12.304688 C 6.71875 12.386719 6.851562 12.4375 6.992188 12.460938 L 6.992188 10.625 Z M 7.382812 10.625 L 7.382812 12.460938 C 7.523438 12.4375 7.65625 12.386719 7.773438 12.304688 L 7.773438 10.625 Z M 7.382812 10.625 "/>
<path fill-rule="evenodd" fill="rgb(100%, 85.490196%, 26.666667%)" fill-opacity="1" d="M 7.265625 8.125 C 7.394531 8.125 7.5 8.019531 7.5 7.890625 C 7.5 7.761719 7.394531 7.65625 7.265625 7.65625 C 7.136719 7.65625 7.03125 7.761719 7.03125 7.890625 C 7.03125 8.019531 7.136719 8.125 7.265625 8.125 Z M 8.125 8.125 C 8.253906 8.125 8.359375 8.019531 8.359375 7.890625 C 8.359375 7.761719 8.253906 7.65625 8.125 7.65625 C 7.996094 7.65625 7.890625 7.761719 7.890625 7.890625 C 7.890625 8.019531 7.996094 8.125 8.125 8.125 Z M 9.21875 7.890625 C 9.21875 8.019531 9.113281 8.125 8.984375 8.125 C 8.855469 8.125 8.75 8.019531 8.75 7.890625 C 8.75 7.761719 8.855469 7.65625 8.984375 7.65625 C 9.113281 7.65625 9.21875 7.761719 9.21875 7.890625 Z M 9.21875 7.890625 "/>
<path fill-rule="evenodd" fill="rgb(0%, 32.156863%, 70.588235%)" fill-opacity="1" d="M 8.125 11.25 C 8.46875 11.25 8.75 10.96875 8.75 10.625 C 8.75 10.28125 8.46875 10 8.125 10 C 7.78125 10 7.5 10.28125 7.5 10.625 C 7.5 10.96875 7.78125 11.25 8.125 11.25 Z M 11.25 12.5 L 10.625 12.5 C 10.453125 12.5 10.3125 12.640625 10.3125 12.8125 C 10.3125 12.984375 10.453125 13.125 10.625 13.125 L 11.25 13.125 C 11.421875 13.125 11.5625 12.984375 11.5625 12.8125 C 11.5625 12.640625 11.421875 12.5 11.25 12.5 Z M 5 12.5 L 5.625 12.5 C 5.796875 12.5 5.9375 12.640625 5.9375 12.8125 C 5.9375 12.984375 5.796875 13.125 5.625 13.125 L 5 13.125 C 4.828125 13.125 4.6875 12.984375 4.6875 12.8125 C 4.6875 12.640625 4.828125 12.5 5 12.5 Z M 5 12.5 "/>
</svg>
