<?xml version="1.0" encoding="UTF-8"?>
<svg xmlns="http://www.w3.org/2000/svg" xmlns:xlink="http://www.w3.org/1999/xlink" width="60" height="60" viewBox="0 0 60 60">
<path fill-rule="nonzero" fill="rgb(100%, 85.490196%, 26.666667%)" fill-opacity="1" d="M 55.984375 45 C 58.539062 40.585938 60 35.464844 60 30 C 60 24.535156 58.539062 19.414062 55.984375 15 L 4.015625 15 C 1.460938 19.414062 0 24.535156 0 30 C 0 35.464844 1.460938 40.585938 4.015625 45 Z M 55.984375 45 "/>
<path fill-rule="nonzero" fill="rgb(84.705882%, 0%, 15.294118%)" fill-opacity="1" d="M 29.988281 60 C 18.132812 59.996094 7.882812 53.113281 3.015625 43.125 L 56.984375 43.125 C 52.117188 53.113281 41.867188 59.996094 30.007812 60 Z M 29.988281 60 "/>
<path fill-rule="nonzero" fill="rgb(84.705882%, 0%, 15.294118%)" fill-opacity="1" d="M 30 0 C 18.136719 0 7.882812 6.882812 3.015625 16.875 L 56.984375 16.875 C 52.117188 6.882812 41.863281 0 30 0 Z M 30 0 "/>
<path fill-rule="nonzero" fill="rgb(93.333333%, 93.333333%, 93.333333%)" fill-opacity="1" d="M 16.875 35.625 L 15 35.625 L 15 26.25 L 16.875 26.25 Z M 31.875 35.625 L 33.75 35.625 L 33.75 26.25 L 31.875 26.25 Z M 31.875 35.625 "/>
<path fill-rule="nonzero" fill="rgb(84.705882%, 0%, 15.294118%)" fill-opacity="1" d="M 14.296875 29.0625 C 14.171875 29.0625 14.054688 29.113281 13.964844 29.199219 C 13.878906 29.289062 13.828125 29.40625 13.828125 29.53125 C 13.828125 29.65625 13.878906 29.773438 13.964844 29.863281 C 14.054688 29.949219 14.171875 30 14.296875 30 L 34.453125 30 C 34.578125 30 34.695312 29.949219 34.785156 29.863281 C 34.871094 29.773438 34.921875 29.65625 34.921875 29.53125 C 34.921875 29.40625 34.871094 29.289062 34.785156 29.199219 C 34.695312 29.113281 34.578125 29.0625 34.453125 29.0625 Z M 14.296875 31.875 C 14.171875 31.875 14.054688 31.925781 13.964844 32.011719 C 13.878906 32.101562 13.828125 32.21875 13.828125 32.34375 C 13.828125 32.46875 13.878906 32.585938 13.964844 32.675781 C 14.054688 32.761719 14.171875 32.8125 14.296875 32.8125 L 17.578125 32.8125 C 17.703125 32.8125 17.820312 32.761719 17.910156 32.675781 C 17.996094 32.585938 18.046875 32.46875 18.046875 32.34375 C 18.046875 32.21875 17.996094 32.101562 17.910156 32.011719 C 17.820312 31.925781 17.703125 31.875 17.578125 31.875 Z M 31.171875 31.875 C 31.046875 31.875 30.929688 31.925781 30.839844 32.011719 C 30.753906 32.101562 30.703125 32.21875 30.703125 32.34375 C 30.703125 32.46875 30.753906 32.585938 30.839844 32.675781 C 30.929688 32.761719 31.046875 32.8125 31.171875 32.8125 L 34.453125 32.8125 C 34.578125 32.8125 34.695312 32.761719 34.785156 32.675781 C 34.871094 32.585938 34.921875 32.46875 34.921875 32.34375 C 34.921875 32.21875 34.871094 32.101562 34.785156 32.011719 C 34.695312 31.925781 34.578125 31.875 34.453125 31.875 Z M 31.171875 31.875 "/>
<path fill-rule="evenodd" fill="rgb(93.333333%, 93.333333%, 93.333333%)" fill-opacity="1" d="M 22.96875 19.6875 C 22.148438 19.6875 21.445312 20.273438 21.210938 20.976562 L 20.625 20.859375 C 19.570312 20.859375 18.75 21.679688 18.75 22.734375 C 18.75 23.789062 19.570312 24.609375 20.625 24.609375 C 21.445312 24.609375 22.148438 24.140625 22.382812 23.320312 C 22.722656 23.445312 23.09375 23.464844 23.449219 23.382812 C 23.800781 23.296875 24.125 23.113281 24.375 22.851562 C 24.625 23.113281 24.949219 23.296875 25.300781 23.382812 C 25.65625 23.464844 26.027344 23.445312 26.367188 23.320312 C 26.480469 23.675781 26.699219 23.988281 26.992188 24.21875 C 27.28125 24.449219 27.636719 24.589844 28.007812 24.617188 C 28.378906 24.644531 28.753906 24.5625 29.078125 24.378906 C 29.402344 24.195312 29.664062 23.921875 29.828125 23.585938 C 29.996094 23.253906 30.058594 22.878906 30.011719 22.507812 C 29.964844 22.140625 29.808594 21.792969 29.5625 21.511719 C 29.316406 21.230469 28.992188 21.03125 28.632812 20.9375 C 28.273438 20.839844 27.890625 20.855469 27.539062 20.976562 C 27.425781 20.671875 27.234375 20.402344 26.988281 20.195312 C 26.738281 19.984375 26.441406 19.847656 26.125 19.785156 C 25.804688 19.726562 25.476562 19.753906 25.167969 19.859375 C 24.863281 19.964844 24.589844 20.148438 24.375 20.390625 C 24.023438 19.921875 23.554688 19.6875 22.96875 19.6875 Z M 22.96875 20.625 C 23.554688 20.625 23.90625 21.09375 23.90625 21.5625 C 23.90625 22.148438 23.554688 22.5 22.96875 22.5 C 22.5 22.5 22.03125 22.148438 22.03125 21.5625 C 22.03125 21.09375 22.5 20.625 22.96875 20.625 Z M 25.78125 20.625 C 26.367188 20.625 26.71875 21.09375 26.71875 21.5625 C 26.71875 22.148438 26.367188 22.5 25.78125 22.5 C 25.3125 22.5 24.84375 22.148438 24.84375 21.5625 C 24.84375 21.09375 25.3125 20.625 25.78125 20.625 Z M 20.625 21.796875 L 21.09375 21.914062 L 21.5625 22.851562 C 21.5625 23.320312 21.09375 23.671875 20.625 23.671875 C 20.15625 23.671875 19.6875 23.320312 19.6875 22.734375 C 19.6875 22.265625 20.15625 21.796875 20.625 21.796875 Z M 28.125 21.796875 C 28.710938 21.796875 29.0625 22.265625 29.0625 22.734375 C 29.0625 23.320312 28.710938 23.671875 28.125 23.671875 C 27.65625 23.671875 27.1875 23.320312 27.1875 22.851562 L 27.65625 21.914062 Z M 24.375 38.4375 C 27.480469 38.4375 30 36.757812 30 34.6875 C 30 33.566406 29.261719 32.5625 28.09375 31.875 L 30 31.875 L 30 26.25 L 24.375 26.25 L 24.375 30.9375 C 21.269531 30.9375 18.75 32.617188 18.75 34.6875 C 18.75 36.757812 21.269531 38.4375 24.375 38.4375 Z M 24.375 38.4375 "/>
<path fill-rule="nonzero" fill="rgb(100%, 59.607843%, 6.666667%)" fill-opacity="1" d="M 23.4375 18.75 L 25.3125 18.75 L 25.3125 22.5 L 23.4375 22.5 Z M 23.4375 18.75 "/>
<path fill-rule="evenodd" fill="rgb(84.705882%, 0%, 15.294118%)" fill-opacity="1" d="M 29.0625 24.375 L 28.125 25.3125 L 20.625 25.3125 L 19.6875 24.375 C 19.6875 22.851562 21.796875 21.5625 24.375 21.5625 C 26.953125 21.5625 29.0625 22.851562 29.0625 24.375 Z M 15.9375 22.5 C 16.457031 22.5 16.875 22.917969 16.875 23.4375 L 16.875 24.375 C 16.875 24.894531 16.457031 25.3125 15.9375 25.3125 C 15.417969 25.3125 15 24.894531 15 24.375 L 15 23.4375 C 15 22.917969 15.417969 22.5 15.9375 22.5 Z M 32.8125 22.5 C 33.332031 22.5 33.75 22.917969 33.75 23.4375 L 33.75 24.375 C 33.75 24.894531 33.332031 25.3125 32.8125 25.3125 C 32.292969 25.3125 31.875 24.894531 31.875 24.375 L 31.875 23.4375 C 31.875 22.917969 32.292969 22.5 32.8125 22.5 Z M 24.375 31.875 L 24.375 34.6875 C 24.375 35.433594 24.671875 36.148438 25.199219 36.675781 C 25.726562 37.203125 26.441406 37.5 27.1875 37.5 C 27.933594 37.5 28.648438 37.203125 29.175781 36.675781 C 29.703125 36.148438 30 35.433594 30 34.6875 L 30 31.875 Z M 24.375 31.875 L 18.75 31.875 L 18.75 26.25 L 24.375 26.25 Z M 28.359375 28.359375 C 28.359375 27.710938 27.835938 27.1875 27.1875 27.1875 C 26.539062 27.1875 26.015625 27.710938 26.015625 28.359375 L 26.015625 29.765625 C 26.015625 30.414062 26.539062 30.9375 27.1875 30.9375 C 27.835938 30.9375 28.359375 30.414062 28.359375 29.765625 Z M 28.359375 28.359375 "/>
<path fill-rule="evenodd" fill="rgb(100%, 59.607843%, 6.666667%)" fill-opacity="1" d="M 15 24.375 L 16.875 24.375 C 17.394531 24.375 17.8125 24.792969 17.8125 25.3125 C 17.8125 25.832031 17.394531 26.25 16.875 26.25 L 15 26.25 C 14.480469 26.25 14.0625 25.832031 14.0625 25.3125 C 14.0625 24.792969 14.480469 24.375 15 24.375 Z M 31.875 24.375 L 33.75 24.375 C 34.269531 24.375 34.6875 24.792969 34.6875 25.3125 C 34.6875 25.832031 34.269531 26.25 33.75 26.25 L 31.875 26.25 C 31.355469 26.25 30.9375 25.832031 30.9375 25.3125 C 30.9375 24.792969 31.355469 24.375 31.875 24.375 Z M 16.875 35.625 L 15 35.625 C 14.480469 35.625 14.0625 36.042969 14.0625 36.5625 C 14.0625 37.082031 14.480469 37.5 15 37.5 L 16.875 37.5 C 17.394531 37.5 17.8125 37.082031 17.8125 36.5625 C 17.8125 36.042969 17.394531 35.625 16.875 35.625 Z M 31.875 35.625 L 33.75 35.625 C 34.269531 35.625 34.6875 36.042969 34.6875 36.5625 C 34.6875 37.082031 34.269531 37.5 33.75 37.5 L 31.875 37.5 C 31.355469 37.5 30.9375 37.082031 30.9375 36.5625 C 30.9375 36.042969 31.355469 35.625 31.875 35.625 Z M 18.75 31.875 L 18.75 34.6875 C 18.75 35.625 19.21875 36.328125 19.804688 36.914062 L 20.390625 36.210938 L 20.976562 37.382812 C 21.363281 37.476562 21.761719 37.476562 22.148438 37.382812 L 22.734375 36.210938 L 23.320312 36.914062 C 24.023438 36.328125 24.375 35.625 24.375 34.6875 L 24.375 31.875 L 23.320312 31.875 L 22.734375 32.8125 L 22.148438 31.875 L 20.976562 31.875 L 20.390625 32.8125 L 19.804688 31.875 Z M 19.6875 28.125 L 19.6875 27.1875 L 23.4375 27.1875 L 23.4375 28.125 L 22.5 28.125 L 22.5 30 L 23.4375 30 L 23.4375 30.9375 L 19.6875 30.9375 L 19.6875 30 L 20.625 30 L 20.625 28.125 Z M 28.125 25.3125 L 20.625 25.3125 L 20.625 26.25 L 28.125 26.25 Z M 28.125 25.3125 "/>
<path fill-rule="nonzero" fill="rgb(84.705882%, 0%, 15.294118%)" fill-opacity="1" d="M 19.804688 31.875 L 19.804688 36.914062 C 20.15625 37.15625 20.554688 37.316406 20.976562 37.382812 L 20.976562 31.875 Z M 22.148438 31.875 L 22.148438 37.382812 C 22.570312 37.316406 22.96875 37.15625 23.320312 36.914062 L 23.320312 31.875 Z M 22.148438 31.875 "/>
<path fill-rule="evenodd" fill="rgb(100%, 85.490196%, 26.666667%)" fill-opacity="1" d="M 21.796875 24.375 C 22.183594 24.375 22.5 24.058594 22.5 23.671875 C 22.5 23.285156 22.183594 22.96875 21.796875 22.96875 C 21.410156 22.96875 21.09375 23.285156 21.09375 23.671875 C 21.09375 24.058594 21.410156 24.375 21.796875 24.375 Z M 24.375 24.375 C 24.761719 24.375 25.078125 24.058594 25.078125 23.671875 C 25.078125 23.285156 24.761719 22.96875 24.375 22.96875 C 23.988281 22.96875 23.671875 23.285156 23.671875 23.671875 C 23.671875 24.058594 23.988281 24.375 24.375 24.375 Z M 27.65625 23.671875 C 27.65625 24.058594 27.339844 24.375 26.953125 24.375 C 26.566406 24.375 26.25 24.058594 26.25 23.671875 C 26.25 23.285156 26.566406 22.96875 26.953125 22.96875 C 27.339844 22.96875 27.65625 23.285156 27.65625 23.671875 Z M 27.65625 23.671875 "/>
<path fill-rule="evenodd" fill="rgb(0%, 32.156863%, 70.588235%)" fill-opacity="1" d="M 24.375 33.75 C 25.410156 33.75 26.25 32.910156 26.25 31.875 C 26.25 30.839844 25.410156 30 24.375 30 C 23.339844 30 22.5 30.839844 22.5 31.875 C 22.5 32.910156 23.339844 33.75 24.375 33.75 Z M 33.75 37.5 L 31.875 37.5 C 31.355469 37.5 30.9375 37.917969 30.9375 38.4375 C 30.9375 38.957031 31.355469 39.375 31.875 39.375 L 33.75 39.375 C 34.269531 39.375 34.6875 38.957031 34.6875 38.4375 C 34.6875 37.917969 34.269531 37.5 33.75 37.5 Z M 15 37.5 L 16.875 37.5 C 17.394531 37.5 17.8125 37.917969 17.8125 38.4375 C 17.8125 38.957031 17.394531 39.375 16.875 39.375 L 15 39.375 C 14.480469 39.375 14.0625 38.957031 14.0625 38.4375 C 14.0625 37.917969 14.480469 37.5 15 37.5 Z M 15 37.5 "/>
</svg>
