<?xml version="1.0" encoding="UTF-8"?>
<svg xmlns="http://www.w3.org/2000/svg" xmlns:xlink="http://www.w3.org/1999/xlink" width="40" height="40" viewBox="0 0 40 40">
<path fill-rule="nonzero" fill="rgb(100%, 85.490196%, 26.666667%)" fill-opacity="1" d="M 37.324219 30 C 39.027344 27.058594 40 23.644531 40 20 C 40 16.355469 39.027344 12.941406 37.324219 10 L 2.675781 10 C 0.972656 12.941406 0 16.355469 0 20 C 0 23.644531 0.972656 27.058594 2.675781 30 Z M 37.324219 30 "/>
<path fill-rule="nonzero" fill="rgb(84.705882%, 0%, 15.294118%)" fill-opacity="1" d="M 19.992188 40 C 12.089844 39.996094 5.253906 35.410156 2.011719 28.75 L 37.988281 28.75 C 34.746094 35.410156 27.910156 39.996094 20.007812 40 Z M 19.992188 40 "/>
<path fill-rule="nonzero" fill="rgb(84.705882%, 0%, 15.294118%)" fill-opacity="1" d="M 20 0 C 12.09375 0 5.257812 4.589844 2.011719 11.25 L 37.988281 11.25 C 34.742188 4.589844 27.910156 0 20 0 Z M 20 0 "/>
<path fill-rule="nonzero" fill="rgb(93.333333%, 93.333333%, 93.333333%)" fill-opacity="1" d="M 11.25 23.75 L 10 23.75 L 10 17.5 L 11.25 17.5 Z M 21.25 23.75 L 22.5 23.75 L 22.5 17.5 L 21.25 17.5 Z M 21.25 23.75 "/>
<path fill-rule="nonzero" fill="rgb(84.705882%, 0%, 15.294118%)" fill-opacity="1" d="M 9.53125 19.375 C 9.449219 19.375 9.367188 19.40625 9.308594 19.464844 C 9.25 19.523438 9.21875 19.605469 9.21875 19.6875 C 9.21875 19.769531 9.25 19.851562 9.308594 19.910156 C 9.367188 19.96875 9.449219 20 9.53125 20 L 22.96875 20 C 23.050781 20 23.132812 19.96875 23.191406 19.910156 C 23.25 19.851562 23.28125 19.769531 23.28125 19.6875 C 23.28125 19.605469 23.25 19.523438 23.191406 19.464844 C 23.132812 19.40625 23.050781 19.375 22.96875 19.375 Z M 9.53125 21.25 C 9.449219 21.25 9.367188 21.28125 9.308594 21.339844 C 9.25 21.398438 9.21875 21.480469 9.21875 21.5625 C 9.21875 21.644531 9.25 21.726562 9.308594 21.785156 C 9.367188 21.84375 9.449219 21.875 9.53125 21.875 L 11.71875 21.875 C 11.800781 21.875 11.882812 21.84375 11.941406 21.785156 C 12 21.726562 12.03125 21.644531 12.03125 21.5625 C 12.03125 21.480469 12 21.398438 11.941406 21.339844 C 11.882812 21.28125 11.800781 21.25 11.71875 21.25 Z M 20.78125 21.25 C 20.699219 21.25 20.617188 21.28125 20.558594 21.339844 C 20.5 21.398438 20.46875 21.480469 20.46875 21.5625 C 20.46875 21.644531 20.5 21.726562 20.558594 21.785156 C 20.617188 21.84375 20.699219 21.875 20.78125 21.875 L 22.96875 21.875 C 23.050781 21.875 23.132812 21.84375 23.191406 21.785156 C 23.25 21.726562 23.28125 21.644531 23.28125 21.5625 C 23.28125 21.480469 23.25 21.398438 23.191406 21.339844 C 23.132812 21.28125 23.050781 21.25 22.96875 21.25 Z M 20.78125 21.25 "/>
<path fill-rule="evenodd" fill="rgb(93.333333%, 93.333333%, 93.333333%)" fill-opacity="1" d="M 15.3125 13.125 C 14.765625 13.125 14.296875 13.515625 14.140625 13.984375 L 13.75 13.90625 C 13.046875 13.90625 12.5 14.453125 12.5 15.15625 C 12.5 15.859375 13.046875 16.40625 13.75 16.40625 C 14.296875 16.40625 14.765625 16.09375 14.921875 15.546875 C 15.148438 15.628906 15.398438 15.644531 15.632812 15.585938 C 15.867188 15.53125 16.082031 15.410156 16.25 15.234375 C 16.417969 15.410156 16.632812 15.53125 16.867188 15.585938 C 17.101562 15.644531 17.351562 15.628906 17.578125 15.546875 C 17.652344 15.785156 17.796875 15.992188 17.992188 16.144531 C 18.1875 16.300781 18.425781 16.394531 18.671875 16.410156 C 18.921875 16.429688 19.167969 16.375 19.382812 16.253906 C 19.601562 16.132812 19.777344 15.945312 19.886719 15.722656 C 19.996094 15.503906 20.039062 15.25 20.007812 15.003906 C 19.976562 14.757812 19.871094 14.527344 19.707031 14.339844 C 19.542969 14.152344 19.328125 14.019531 19.089844 13.957031 C 18.847656 13.894531 18.59375 13.902344 18.359375 13.984375 C 18.285156 13.78125 18.15625 13.601562 17.992188 13.464844 C 17.828125 13.324219 17.628906 13.230469 17.414062 13.191406 C 17.203125 13.152344 16.984375 13.167969 16.78125 13.238281 C 16.574219 13.308594 16.394531 13.429688 16.25 13.59375 C 16.015625 13.28125 15.703125 13.125 15.3125 13.125 Z M 15.3125 13.75 C 15.703125 13.75 15.9375 14.0625 15.9375 14.375 C 15.9375 14.765625 15.703125 15 15.3125 15 C 15 15 14.6875 14.765625 14.6875 14.375 C 14.6875 14.0625 15 13.75 15.3125 13.75 Z M 17.1875 13.75 C 17.578125 13.75 17.8125 14.0625 17.8125 14.375 C 17.8125 14.765625 17.578125 15 17.1875 15 C 16.875 15 16.5625 14.765625 16.5625 14.375 C 16.5625 14.0625 16.875 13.75 17.1875 13.75 Z M 13.75 14.53125 L 14.0625 14.609375 L 14.375 15.234375 C 14.375 15.546875 14.0625 15.78125 13.75 15.78125 C 13.4375 15.78125 13.125 15.546875 13.125 15.15625 C 13.125 14.84375 13.4375 14.53125 13.75 14.53125 Z M 18.75 14.53125 C 19.140625 14.53125 19.375 14.84375 19.375 15.15625 C 19.375 15.546875 19.140625 15.78125 18.75 15.78125 C 18.4375 15.78125 18.125 15.546875 18.125 15.234375 L 18.4375 14.609375 Z M 16.25 25.625 C 18.320312 25.625 20 24.503906 20 23.125 C 20 22.378906 19.507812 21.707031 18.730469 21.25 L 20 21.25 L 20 17.5 L 16.25 17.5 L 16.25 20.625 C 14.179688 20.625 12.5 21.746094 12.5 23.125 C 12.5 24.503906 14.179688 25.625 16.25 25.625 Z M 16.25 25.625 "/>
<path fill-rule="nonzero" fill="rgb(100%, 59.607843%, 6.666667%)" fill-opacity="1" d="M 15.625 12.5 L 16.875 12.5 L 16.875 15 L 15.625 15 Z M 15.625 12.5 "/>
<path fill-rule="evenodd" fill="rgb(84.705882%, 0%, 15.294118%)" fill-opacity="1" d="M 19.375 16.25 L 18.75 16.875 L 13.75 16.875 L 13.125 16.25 C 13.125 15.234375 14.53125 14.375 16.25 14.375 C 17.96875 14.375 19.375 15.234375 19.375 16.25 Z M 10.625 15 C 10.96875 15 11.25 15.28125 11.25 15.625 L 11.25 16.25 C 11.25 16.59375 10.96875 16.875 10.625 16.875 C 10.28125 16.875 10 16.59375 10 16.25 L 10 15.625 C 10 15.28125 10.28125 15 10.625 15 Z M 21.875 15 C 22.21875 15 22.5 15.28125 22.5 15.625 L 22.5 16.25 C 22.5 16.59375 22.21875 16.875 21.875 16.875 C 21.53125 16.875 21.25 16.59375 21.25 16.25 L 21.25 15.625 C 21.25 15.28125 21.53125 15 21.875 15 Z M 16.25 21.25 L 16.25 23.125 C 16.25 23.621094 16.449219 24.097656 16.800781 24.449219 C 17.152344 24.800781 17.628906 25 18.125 25 C 18.621094 25 19.097656 24.800781 19.449219 24.449219 C 19.800781 24.097656 20 23.621094 20 23.125 L 20 21.25 Z M 16.25 21.25 L 12.5 21.25 L 12.5 17.5 L 16.25 17.5 Z M 18.90625 18.90625 C 18.90625 18.476562 18.554688 18.125 18.125 18.125 C 17.695312 18.125 17.34375 18.476562 17.34375 18.90625 L 17.34375 19.84375 C 17.34375 20.273438 17.695312 20.625 18.125 20.625 C 18.554688 20.625 18.90625 20.273438 18.90625 19.84375 Z M 18.90625 18.90625 "/>
<path fill-rule="evenodd" fill="rgb(100%, 59.607843%, 6.666667%)" fill-opacity="1" d="M 10 16.25 L 11.25 16.25 C 11.59375 16.25 11.875 16.53125 11.875 16.875 C 11.875 17.21875 11.59375 17.5 11.25 17.5 L 10 17.5 C 9.65625 17.5 9.375 17.21875 9.375 16.875 C 9.375 16.53125 9.65625 16.25 10 16.25 Z M 21.25 16.25 L 22.5 16.25 C 22.84375 16.25 23.125 16.53125 23.125 16.875 C 23.125 17.21875 22.84375 17.5 22.5 17.5 L 21.25 17.5 C 20.90625 17.5 20.625 17.21875 20.625 16.875 C 20.625 16.53125 20.90625 16.25 21.25 16.25 Z M 11.25 23.75 L 10 23.75 C 9.65625 23.75 9.375 24.03125 9.375 24.375 C 9.375 24.71875 9.65625 25 10 25 L 11.25 25 C 11.59375 25 11.875 24.71875 11.875 24.375 C 11.875 24.03125 11.59375 23.75 11.25 23.75 Z M 21.25 23.75 L 22.5 23.75 C 22.84375 23.75 23.125 24.03125 23.125 24.375 C 23.125 24.71875 22.84375 25 22.5 25 L 21.25 25 C 20.90625 25 20.625 24.71875 20.625 24.375 C 20.625 24.03125 20.90625 23.75 21.25 23.75 Z M 12.5 21.25 L 12.5 23.125 C 12.5 23.75 12.8125 24.21875 13.203125 24.609375 L 13.59375 24.140625 L 13.984375 24.921875 C 14.242188 24.984375 14.507812 24.984375 14.765625 24.921875 L 15.15625 24.140625 L 15.546875 24.609375 C 16.015625 24.21875 16.25 23.75 16.25 23.125 L 16.25 21.25 L 15.546875 21.25 L 15.15625 21.875 L 14.765625 21.25 L 13.984375 21.25 L 13.59375 21.875 L 13.203125 21.25 Z M 13.125 18.75 L 13.125 18.125 L 15.625 18.125 L 15.625 18.75 L 15 18.75 L 15 20 L 15.625 20 L 15.625 20.625 L 13.125 20.625 L 13.125 20 L 13.75 20 L 13.75 18.75 Z M 18.75 16.875 L 13.75 16.875 L 13.75 17.5 L 18.75 17.5 Z M 18.75 16.875 "/>
<path fill-rule="nonzero" fill="rgb(84.705882%, 0%, 15.294118%)" fill-opacity="1" d="M 13.203125 21.25 L 13.203125 24.609375 C 13.4375 24.769531 13.703125 24.878906 13.984375 24.921875 L 13.984375 21.25 Z M 14.765625 21.25 L 14.765625 24.921875 C 15.046875 24.878906 15.3125 24.769531 15.546875 24.609375 L 15.546875 21.25 Z M 14.765625 21.25 "/>
<path fill-rule="evenodd" fill="rgb(100%, 85.490196%, 26.666667%)" fill-opacity="1" d="M 14.53125 16.25 C 14.789062 16.25 15 16.039062 15 15.78125 C 15 15.523438 14.789062 15.3125 14.53125 15.3125 C 14.273438 15.3125 14.0625 15.523438 14.0625 15.78125 C 14.0625 16.039062 14.273438 16.25 14.53125 16.25 Z M 16.25 16.25 C 16.507812 16.25 16.71875 16.039062 16.71875 15.78125 C 16.71875 15.523438 16.507812 15.3125 16.25 15.3125 C 15.992188 15.3125 15.78125 15.523438 15.78125 15.78125 C 15.78125 16.039062 15.992188 16.25 16.25 16.25 Z M 18.4375 15.78125 C 18.4375 16.039062 18.226562 16.25 17.96875 16.25 C 17.710938 16.25 17.5 16.039062 17.5 15.78125 C 17.5 15.523438 17.710938 15.3125 17.96875 15.3125 C 18.226562 15.3125 18.4375 15.523438 18.4375 15.78125 Z M 18.4375 15.78125 "/>
<path fill-rule="evenodd" fill="rgb(0%, 32.156863%, 70.588235%)" fill-opacity="1" d="M 16.25 22.5 C 16.941406 22.5 17.5 21.941406 17.5 21.25 C 17.5 20.558594 16.941406 20 16.25 20 C 15.558594 20 15 20.558594 15 21.25 C 15 21.941406 15.558594 22.5 16.25 22.5 Z M 22.5 25 L 21.25 25 C 20.90625 25 20.625 25.28125 20.625 25.625 C 20.625 25.96875 20.90625 26.25 21.25 26.25 L 22.5 26.25 C 22.84375 26.25 23.125 25.96875 23.125 25.625 C 23.125 25.28125 22.84375 25 22.5 25 Z M 10 25 L 11.25 25 C 11.59375 25 11.875 25.28125 11.875 25.625 C 11.875 25.96875 11.59375 26.25 11.25 26.25 L 10 26.25 C 9.65625 26.25 9.375 25.96875 9.375 25.625 C 9.375 25.28125 9.65625 25 10 25 Z M 10 25 "/>
</svg>
