<svg width="16" height="16" viewBox="0 0 16 16" fill="none" xmlns="http://www.w3.org/2000/svg">
<g clip-path="url(#clip0_16_4)">
<path fill-rule="evenodd" clip-rule="evenodd" d="M9 0L9.268 2.134C9.97326 2.28585 10.6451 2.56436 11.251 2.956L12.95 1.636L14.364 3.05L13.044 4.749C13.429 5.346 13.712 6.016 13.866 6.733L16 7V9L13.866 9.268C13.7141 9.97326 13.4356 10.6451 13.044 11.251L14.364 12.95L12.95 14.364L11.251 13.044C10.6451 13.4356 9.97326 13.7141 9.268 13.866L9 16H7L6.733 13.866C6.02739 13.7143 5.35517 13.4358 4.749 13.044L3.05 14.364L1.636 12.95L2.956 11.251C2.56436 10.6451 2.28585 9.97326 2.134 9.268L0 9V7L2.134 6.733C2.28574 6.02739 2.56425 5.35517 2.956 4.749L1.636 3.05L3.05 1.636L4.749 2.956C5.35517 2.56425 6.02739 2.28574 6.733 2.134L7 0H9ZM8 4C6.93913 4 5.92172 4.42143 5.17157 5.17157C4.42143 5.92172 4 6.93913 4 8C4 9.06087 4.42143 10.0783 5.17157 10.8284C5.92172 11.5786 6.93913 12 8 12C9.06087 12 10.0783 11.5786 10.8284 10.8284C11.5786 10.0783 12 9.06087 12 8C12 6.93913 11.5786 5.92172 10.8284 5.17157C10.0783 4.42143 9.06087 4 8 4Z" fill="white"/>
</g>
<defs>
<clipPath id="clip0_16_4">
<rect width="16" height="16" fill="white"/>
</clipPath>
</defs>
</svg>
