<?xml version="1.0" encoding="UTF-8"?>
<svg xmlns="http://www.w3.org/2000/svg" xmlns:xlink="http://www.w3.org/1999/xlink" width="20" height="20" viewBox="0 0 20 20">
<path fill-rule="nonzero" fill="rgb(93.333333%, 93.333333%, 93.333333%)" fill-opacity="1" d="M 20 10 C 20 15.523438 15.523438 20 10 20 C 4.476562 20 0 15.523438 0 10 C 0 4.476562 4.476562 0 10 0 C 15.523438 0 20 4.476562 20 10 Z M 20 10 "/>
<path fill-rule="evenodd" fill="rgb(0%, 32.156863%, 70.588235%)" fill-opacity="1" d="M 2.417969 3.476562 C 4.253906 1.347656 6.96875 0 10 0 C 13.03125 0 15.746094 1.347656 17.582031 3.476562 Z M 10.027344 20 C 13.046875 19.992188 15.753906 18.644531 17.582031 16.523438 L 2.417969 16.523438 C 4.246094 18.644531 6.953125 19.992188 9.972656 20 Z M 10.027344 20 "/>
<path fill-rule="evenodd" fill="rgb(84.705882%, 0%, 15.294118%)" fill-opacity="1" d="M 18.53125 15.21875 C 19.464844 13.699219 20 11.910156 20 10 C 20 8.089844 19.464844 6.300781 18.53125 4.78125 L 1.46875 4.78125 C 0.535156 6.300781 0 8.089844 0 10 C 0 11.910156 0.535156 13.699219 1.46875 15.21875 Z M 18.53125 15.21875 "/>
<path fill-rule="nonzero" fill="rgb(93.333333%, 93.333333%, 93.333333%)" fill-opacity="1" d="M 10 10 C 9.988281 12.113281 8.269531 13.820312 6.15625 13.820312 C 4.039062 13.820312 2.324219 12.113281 2.308594 10 C 2.324219 7.886719 4.039062 6.179688 6.15625 6.179688 C 8.269531 6.179688 9.988281 7.886719 10 10 Z M 10 10 "/>
<path fill-rule="nonzero" fill="rgb(84.705882%, 0%, 15.294118%)" fill-opacity="1" d="M 6.15625 6.15625 L 7.019531 8.8125 L 9.8125 8.8125 L 7.550781 10.453125 L 8.414062 13.109375 L 6.15625 11.46875 L 3.894531 13.109375 L 4.757812 10.453125 L 2.496094 8.8125 L 5.289062 8.8125 Z M 6.15625 6.15625 "/>
</svg>
