<?xml version="1.0" encoding="UTF-8"?>
<svg xmlns="http://www.w3.org/2000/svg" xmlns:xlink="http://www.w3.org/1999/xlink" width="40" height="40" viewBox="0 0 40 40">
<path fill-rule="nonzero" fill="rgb(93.333333%, 93.333333%, 93.333333%)" fill-opacity="1" d="M 40 20 C 40 31.046875 31.046875 40 20 40 C 8.953125 40 0 31.046875 0 20 C 0 8.953125 8.953125 0 20 0 C 31.046875 0 40 8.953125 40 20 Z M 40 20 "/>
<path fill-rule="evenodd" fill="rgb(0%, 32.156863%, 70.588235%)" fill-opacity="1" d="M 4.839844 6.957031 C 8.507812 2.695312 13.9375 0 20 0 C 26.0625 0 31.492188 2.695312 35.160156 6.957031 Z M 20.054688 40 C 26.09375 39.984375 31.503906 37.289062 35.164062 33.042969 L 4.839844 33.042969 C 8.496094 37.289062 13.90625 39.984375 19.945312 40 L 20.058594 40 Z M 20.054688 40 "/>
<path fill-rule="evenodd" fill="rgb(84.705882%, 0%, 15.294118%)" fill-opacity="1" d="M 37.066406 30.433594 C 38.925781 27.398438 40 23.824219 40 20 C 40 16.175781 38.925781 12.601562 37.066406 9.566406 L 2.933594 9.566406 C 1.074219 12.601562 0 16.175781 0 20 C 0 23.824219 1.074219 27.398438 2.933594 30.433594 Z M 37.066406 30.433594 "/>
<path fill-rule="nonzero" fill="rgb(93.333333%, 93.333333%, 93.333333%)" fill-opacity="1" d="M 20 20 C 19.972656 24.226562 16.539062 27.640625 12.308594 27.640625 C 8.082031 27.640625 4.644531 24.226562 4.617188 20 C 4.644531 15.773438 8.082031 12.359375 12.308594 12.359375 C 16.539062 12.359375 19.972656 15.773438 20 20 Z M 20 20 "/>
<path fill-rule="nonzero" fill="rgb(84.705882%, 0%, 15.294118%)" fill-opacity="1" d="M 12.308594 12.308594 L 14.035156 17.625 L 19.625 17.625 L 15.101562 20.90625 L 16.828125 26.222656 L 12.308594 22.9375 L 7.789062 26.222656 L 9.515625 20.90625 L 4.992188 17.625 L 10.582031 17.625 Z M 12.308594 12.308594 "/>
</svg>
