<?xml version="1.0" encoding="UTF-8"?>
<svg xmlns="http://www.w3.org/2000/svg" xmlns:xlink="http://www.w3.org/1999/xlink" width="60" height="60" viewBox="0 0 60 60">
<path fill-rule="nonzero" fill="rgb(93.333333%, 93.333333%, 93.333333%)" fill-opacity="1" d="M 60 30 C 60 46.570312 46.570312 60 30 60 C 13.429688 60 0 46.570312 0 30 C 0 13.429688 13.429688 0 30 0 C 46.570312 0 60 13.429688 60 30 Z M 60 30 "/>
<path fill-rule="evenodd" fill="rgb(0%, 32.156863%, 70.588235%)" fill-opacity="1" d="M 7.257812 10.433594 C 12.757812 4.046875 20.90625 0 30 0 C 39.09375 0 47.242188 4.046875 52.742188 10.433594 Z M 30.085938 60 C 39.144531 59.976562 47.257812 55.933594 52.742188 49.566406 L 7.257812 49.566406 C 12.742188 55.933594 20.859375 59.976562 29.917969 60 Z M 30.085938 60 "/>
<path fill-rule="evenodd" fill="rgb(84.705882%, 0%, 15.294118%)" fill-opacity="1" d="M 55.597656 45.652344 C 58.390625 41.09375 60 35.734375 60 30 C 60 24.265625 58.390625 18.90625 55.597656 14.347656 L 4.402344 14.347656 C 1.609375 18.90625 0 24.265625 0 30 C 0 35.734375 1.609375 41.09375 4.402344 45.652344 Z M 55.597656 45.652344 "/>
<path fill-rule="nonzero" fill="rgb(93.333333%, 93.333333%, 93.333333%)" fill-opacity="1" d="M 30 30 C 29.960938 36.34375 24.804688 41.464844 18.464844 41.464844 C 12.121094 41.464844 6.96875 36.34375 6.925781 30 C 6.96875 23.65625 12.121094 18.535156 18.464844 18.535156 C 24.804688 18.535156 29.960938 23.65625 30 30 Z M 30 30 "/>
<path fill-rule="nonzero" fill="rgb(84.705882%, 0%, 15.294118%)" fill-opacity="1" d="M 18.460938 18.460938 L 21.054688 26.433594 L 29.433594 26.433594 L 22.652344 31.363281 L 25.242188 39.332031 L 18.460938 34.40625 L 11.683594 39.332031 L 14.273438 31.363281 L 7.492188 26.433594 L 15.871094 26.433594 L 18.460938 18.464844 Z M 18.460938 18.460938 "/>
</svg>
