<?xml version="1.0" encoding="UTF-8"?>
<svg xmlns="http://www.w3.org/2000/svg" xmlns:xlink="http://www.w3.org/1999/xlink" width="20" height="20" viewBox="0 0 20 20">
<path fill-rule="nonzero" fill="rgb(100%, 85.490196%, 26.666667%)" fill-opacity="1" d="M 1.164062 5.3125 C 0.421875 6.710938 0 8.304688 0 10 C 0 11.695312 0.421875 13.289062 1.164062 14.6875 L 18.835938 14.6875 C 19.578125 13.289062 20 11.695312 20 10 C 20 8.304688 19.578125 6.710938 18.835938 5.3125 Z M 1.164062 5.3125 "/>
<path fill-rule="nonzero" fill="rgb(42.745098%, 64.705882%, 26.666667%)" fill-opacity="1" d="M 0.605469 6.5625 C 2.007812 2.734375 5.683594 0 10 0 C 14.316406 0 17.992188 2.734375 19.394531 6.5625 Z M 0.605469 6.5625 "/>
<path fill-rule="nonzero" fill="rgb(84.705882%, 0%, 15.294118%)" fill-opacity="1" d="M 0.605469 13.4375 L 19.394531 13.4375 C 17.992188 17.265625 14.316406 20 10 20 C 5.683594 20 2.007812 17.265625 0.605469 13.4375 Z M 0.605469 13.4375 "/>
<path fill-rule="nonzero" fill="rgb(0%, 32.156863%, 70.588235%)" fill-opacity="1" d="M 12.8125 6.132812 C 10.675781 4.578125 7.683594 5.050781 6.132812 7.1875 C 4.578125 9.324219 5.050781 12.316406 7.1875 13.871094 C 9.324219 15.421875 12.316406 14.949219 13.871094 12.8125 C 15.421875 10.675781 14.949219 7.683594 12.8125 6.128906 Z M 12.8125 6.132812 "/>
<path fill-rule="evenodd" fill="rgb(100%, 85.490196%, 26.666667%)" fill-opacity="1" d="M 10.757812 8.960938 L 10 6.632812 L 9.820312 7.1875 L 10 7.742188 L 10.394531 8.960938 L 9.964844 8.960938 L 9.855469 9.300781 L 11.5625 9.300781 L 12.035156 8.960938 L 10.753906 8.960938 Z M 9.820312 8.296875 L 9.640625 7.742188 L 9.242188 8.960938 L 6.796875 8.960938 L 7.269531 9.300781 L 9.132812 9.300781 L 9 9.710938 L 9.292969 9.921875 L 9.492188 9.300781 L 9.605469 8.960938 Z M 8.777344 10.398438 L 7.742188 9.644531 L 8.324219 9.644531 L 8.886719 10.054688 L 9.179688 10.265625 L 9.707031 10.648438 L 9.417969 10.863281 L 9.070312 10.609375 L 8.671875 11.828125 L 8.671875 11.824219 L 8.492188 12.382812 L 8.019531 12.722656 Z M 9.707031 11.074219 L 10 10.863281 L 10.527344 10.476562 L 10.640625 10.820312 L 10.292969 11.074219 L 11.328125 11.828125 L 11.328125 11.824219 L 11.796875 12.167969 L 11.980469 12.722656 L 10 11.285156 L 8.964844 12.039062 L 9.144531 11.484375 Z M 10.929688 10.609375 L 10.820312 10.265625 L 10.617188 9.644531 L 10.980469 9.644531 L 11.113281 10.054688 L 12.148438 9.300781 L 12.144531 9.300781 L 12.617188 8.960938 L 13.203125 8.960938 L 11.222656 10.398438 L 11.617188 11.613281 L 11.144531 11.269531 Z M 11.878906 7.125 L 11.136719 8.144531 L 11.414062 8.347656 L 12.15625 7.324219 Z M 8.585938 8.347656 L 7.84375 7.324219 L 8.121094 7.125 L 8.863281 8.144531 Z M 12.113281 10.507812 L 13.316406 10.898438 L 13.210938 11.222656 L 12.007812 10.832031 Z M 10.171875 12.167969 L 10.171875 13.429688 L 9.828125 13.429688 L 9.828125 12.167969 Z M 6.789062 11.222656 L 7.992188 10.832031 L 7.886719 10.507812 L 6.683594 10.898438 Z M 6.789062 11.222656 "/>
</svg>
