<?xml version="1.0" encoding="UTF-8"?>
<svg xmlns="http://www.w3.org/2000/svg" xmlns:xlink="http://www.w3.org/1999/xlink" width="40" height="40" viewBox="0 0 40 40">
<path fill-rule="nonzero" fill="rgb(100%, 85.490196%, 26.666667%)" fill-opacity="1" d="M 2.328125 10.625 C 0.84375 13.421875 0 16.613281 0 20 C 0 23.386719 0.84375 26.578125 2.328125 29.375 L 37.671875 29.375 C 39.15625 26.578125 40 23.386719 40 20 C 40 16.613281 39.15625 13.421875 37.671875 10.625 Z M 2.328125 10.625 "/>
<path fill-rule="nonzero" fill="rgb(42.745098%, 64.705882%, 26.666667%)" fill-opacity="1" d="M 1.214844 13.125 C 4.015625 5.464844 11.371094 0 20 0 C 28.628906 0 35.984375 5.464844 38.785156 13.125 L 1.210938 13.125 Z M 1.214844 13.125 "/>
<path fill-rule="nonzero" fill="rgb(84.705882%, 0%, 15.294118%)" fill-opacity="1" d="M 1.214844 26.875 L 38.789062 26.875 C 35.984375 34.535156 28.628906 40 20 40 C 11.371094 40 4.015625 34.535156 1.214844 26.875 Z M 1.214844 26.875 "/>
<path fill-rule="nonzero" fill="rgb(0%, 32.156863%, 70.588235%)" fill-opacity="1" d="M 25.621094 12.261719 C 21.347656 9.15625 15.367188 10.105469 12.261719 14.378906 C 9.15625 18.652344 10.105469 24.632812 14.378906 27.738281 C 18.652344 30.84375 24.632812 29.894531 27.738281 25.621094 C 30.84375 21.347656 29.894531 15.367188 25.621094 12.261719 Z M 25.621094 12.261719 "/>
<path fill-rule="evenodd" fill="rgb(100%, 85.490196%, 26.666667%)" fill-opacity="1" d="M 21.511719 17.917969 L 20 13.265625 L 19.640625 14.375 L 20 15.484375 L 20.789062 17.917969 L 19.929688 17.917969 L 19.707031 18.605469 L 23.125 18.605469 L 24.070312 17.917969 Z M 19.640625 16.59375 L 19.277344 15.484375 L 18.488281 17.917969 L 13.59375 17.917969 L 14.539062 18.605469 L 18.265625 18.605469 L 18 19.421875 L 18.582031 19.847656 L 18.984375 18.605469 L 18.988281 18.605469 L 19.210938 17.917969 L 19.207031 17.917969 Z M 17.554688 20.796875 L 15.484375 19.292969 L 16.652344 19.292969 L 17.777344 20.109375 L 18.359375 20.53125 L 19.414062 21.300781 L 18.832031 21.722656 L 18.136719 21.21875 L 17.347656 23.652344 L 16.984375 24.761719 L 16.039062 25.449219 Z M 19.414062 22.148438 L 20 21.722656 L 21.054688 20.957031 L 21.277344 21.644531 L 20.582031 22.148438 L 22.652344 23.652344 L 23.597656 24.335938 L 23.957031 25.449219 L 20 22.574219 L 17.929688 24.074219 L 18.289062 22.964844 L 19.417969 22.148438 Z M 21.863281 21.21875 L 21.640625 20.53125 L 21.234375 19.292969 L 21.957031 19.292969 L 22.222656 20.109375 L 24.292969 18.605469 L 25.238281 17.917969 L 26.40625 17.917969 L 22.445312 20.796875 L 23.238281 23.226562 L 22.292969 22.542969 Z M 23.753906 14.25 L 22.269531 16.292969 L 22.824219 16.695312 L 24.308594 14.652344 Z M 17.175781 16.695312 L 15.691406 14.652344 L 16.246094 14.25 L 17.730469 16.292969 Z M 24.226562 21.011719 L 26.628906 21.792969 L 26.417969 22.445312 L 24.015625 21.664062 Z M 20.34375 24.335938 L 20.34375 26.859375 L 19.65625 26.859375 L 19.65625 24.335938 Z M 13.582031 22.445312 L 15.984375 21.664062 L 15.773438 21.011719 L 13.371094 21.792969 Z M 13.582031 22.445312 "/>
</svg>
