<?xml version="1.0" encoding="UTF-8"?>
<svg xmlns="http://www.w3.org/2000/svg" xmlns:xlink="http://www.w3.org/1999/xlink" width="60" height="60" viewBox="0 0 60 60">
<path fill-rule="nonzero" fill="rgb(100%, 85.490196%, 26.666667%)" fill-opacity="1" d="M 3.492188 15.9375 C 1.261719 20.132812 0 24.917969 0 30 C 0 35.082031 1.261719 39.867188 3.492188 44.0625 L 56.507812 44.0625 C 58.738281 39.867188 60 35.082031 60 30 C 60 24.917969 58.738281 20.132812 56.507812 15.9375 Z M 3.492188 15.9375 "/>
<path fill-rule="nonzero" fill="rgb(42.745098%, 64.705882%, 26.666667%)" fill-opacity="1" d="M 1.820312 19.6875 C 6.023438 8.199219 17.054688 0 30 0 C 42.945312 0 53.976562 8.199219 58.179688 19.6875 L 1.816406 19.6875 Z M 1.820312 19.6875 "/>
<path fill-rule="nonzero" fill="rgb(84.705882%, 0%, 15.294118%)" fill-opacity="1" d="M 1.820312 40.3125 L 58.179688 40.3125 C 53.976562 51.800781 42.945312 60 30 60 C 17.054688 60 6.023438 51.800781 1.820312 40.3125 Z M 1.820312 40.3125 "/>
<path fill-rule="nonzero" fill="rgb(0%, 32.156863%, 70.588235%)" fill-opacity="1" d="M 38.433594 18.390625 C 32.023438 13.734375 23.050781 15.15625 18.394531 21.566406 C 13.734375 27.976562 15.15625 36.949219 21.566406 41.609375 C 27.976562 46.265625 36.949219 44.84375 41.609375 38.433594 C 46.265625 32.023438 44.84375 23.050781 38.433594 18.390625 Z M 38.433594 18.390625 "/>
<path fill-rule="evenodd" fill="rgb(100%, 85.490196%, 26.666667%)" fill-opacity="1" d="M 32.265625 26.878906 L 30 19.898438 L 29.457031 21.5625 L 30 23.226562 L 31.1875 26.878906 L 29.894531 26.878906 L 29.5625 27.90625 L 34.6875 27.90625 L 36.105469 26.878906 Z M 29.457031 24.894531 L 28.917969 23.226562 L 27.730469 26.878906 L 20.390625 26.878906 L 21.808594 27.90625 L 27.398438 27.90625 L 27 29.132812 L 27.875 29.769531 L 28.480469 27.90625 L 28.8125 26.878906 Z M 26.328125 31.191406 L 23.226562 28.9375 L 24.976562 28.9375 L 26.664062 30.164062 L 27.539062 30.796875 L 27.539062 30.800781 L 29.125 31.949219 L 28.25 32.585938 L 27.203125 31.828125 L 26.019531 35.480469 L 26.019531 35.476562 L 25.480469 37.144531 L 24.0625 38.171875 Z M 29.125 33.222656 L 30 32.585938 L 31.582031 31.433594 L 31.917969 32.464844 L 30.875 33.222656 L 33.980469 35.480469 L 33.980469 35.476562 L 35.394531 36.507812 L 35.9375 38.171875 L 30 33.859375 L 26.894531 36.113281 L 27.4375 34.449219 Z M 32.792969 31.828125 L 32.457031 30.800781 L 32.460938 30.800781 L 31.855469 28.9375 L 32.9375 28.9375 L 33.335938 30.164062 L 36.441406 27.90625 L 36.4375 27.90625 L 37.855469 26.878906 L 39.605469 26.878906 L 33.667969 31.191406 L 34.855469 34.839844 L 33.4375 33.8125 Z M 35.632812 21.371094 L 33.40625 24.4375 L 34.238281 25.042969 L 36.464844 21.976562 Z M 25.761719 25.042969 L 23.535156 21.976562 L 24.367188 21.375 L 26.59375 24.4375 Z M 36.34375 31.519531 L 39.945312 32.691406 L 39.628906 33.667969 L 36.023438 32.496094 Z M 30.515625 36.5 L 30.515625 40.289062 L 29.484375 40.289062 L 29.484375 36.5 Z M 20.371094 33.667969 L 23.976562 32.496094 L 23.65625 31.519531 L 20.054688 32.691406 Z M 20.371094 33.667969 "/>
</svg>
