<?xml version="1.0" encoding="UTF-8"?>
<svg xmlns="http://www.w3.org/2000/svg" xmlns:xlink="http://www.w3.org/1999/xlink" width="20" height="20" viewBox="0 0 20 20">
<path fill-rule="nonzero" fill="rgb(20%, 54.117647%, 95.294118%)" fill-opacity="1" d="M 20 10 C 20 15.523438 15.523438 20 10 20 C 4.476562 20 0 15.523438 0 10 C 0 4.476562 4.476562 0 10 0 C 15.523438 0 20 4.476562 20 10 Z M 20 10 "/>
<path fill-rule="evenodd" fill="rgb(93.333333%, 93.333333%, 93.333333%)" fill-opacity="1" d="M 0.96875 14.296875 C 0.347656 12.996094 0 11.539062 0 10 C 0 8.460938 0.347656 7.003906 0.96875 5.703125 L 6.667969 5.703125 L 6.667969 14.296875 Z M 0.96875 14.296875 "/>
<path fill-rule="evenodd" fill="rgb(84.705882%, 0%, 15.294118%)" fill-opacity="1" d="M 0.570312 6.667969 C 1.574219 3.824219 3.824219 1.574219 6.667969 0.570312 L 6.667969 6.667969 Z M 0.570312 6.667969 "/>
<path fill-rule="evenodd" fill="rgb(42.745098%, 64.705882%, 26.666667%)" fill-opacity="1" d="M 0.570312 6.667969 C 1.574219 3.824219 3.824219 1.574219 6.667969 0.570312 L 6.667969 0.875 L 4.191406 3.332031 L 6.667969 5.792969 L 6.667969 6.667969 L 5.832031 6.667969 L 3.332031 4.183594 L 0.832031 6.667969 Z M 0.570312 6.667969 "/>
<path fill-rule="evenodd" fill="rgb(93.333333%, 93.333333%, 93.333333%)" fill-opacity="1" d="M 2 4 C 2.566406 3.242188 3.242188 2.566406 4 2 L 4 2.667969 L 6.667969 2.667969 L 6.667969 4 L 4 4 L 4 6.667969 L 2.667969 6.667969 L 2.667969 4 Z M 2 4 "/>
<path fill-rule="evenodd" fill="rgb(84.705882%, 0%, 15.294118%)" fill-opacity="1" d="M 6.667969 19.429688 C 3.824219 18.425781 1.574219 16.175781 0.570312 13.332031 L 6.667969 13.332031 Z M 6.667969 19.429688 "/>
<path fill-rule="evenodd" fill="rgb(100%, 85.490196%, 26.666667%)" fill-opacity="1" d="M 2 16 C 1.777344 15.703125 1.570312 15.398438 1.382812 15.078125 C 1.484375 14.835938 1.722656 14.667969 2 14.667969 L 4.667969 14.667969 C 5.035156 14.667969 5.332031 14.964844 5.332031 15.332031 C 5.332031 15.703125 5.035156 16 4.667969 16 Z M 4.921875 18.617188 C 4.300781 18.25 3.726562 17.820312 3.203125 17.332031 L 4.667969 17.332031 C 5.035156 17.332031 5.332031 17.632812 5.332031 18 C 5.332031 18.277344 5.164062 18.515625 4.921875 18.617188 Z M 4.921875 18.617188 "/>
<path fill-rule="nonzero" fill="rgb(100%, 85.490196%, 26.666667%)" fill-opacity="1" d="M 13.476562 6.058594 L 13.476562 11.71875 L 12.042969 11.71875 C 11.183594 11.71875 11.183594 10.574219 11.183594 10.574219 L 7.746094 10.574219 L 7.746094 11.71875 L 8.460938 11.71875 L 13.726562 12.867188 L 18.921875 11.71875 L 18.921875 10.859375 L 16.054688 10.859375 C 16.054688 10.859375 16.054688 11.71875 15.195312 11.71875 L 14.050781 11.71875 L 14.050781 6.058594 Z M 13.476562 6.058594 "/>
<path fill-rule="nonzero" fill="rgb(100%, 85.490196%, 26.666667%)" fill-opacity="1" d="M 14.050781 5.773438 L 14.050781 6.917969 C 12.9375 6.523438 11.863281 7.207031 11.183594 5.773438 C 12.367188 6.597656 13.011719 5.414062 14.050781 5.773438 Z M 11.46875 7.421875 C 11.46875 7.421875 10.609375 8.28125 10.898438 10 L 8.316406 10 C 8.316406 10 9.464844 7.992188 11.46875 7.421875 Z M 12.042969 11.144531 L 15.445312 11.144531 C 14.335938 9.425781 15.445312 7.421875 15.445312 7.421875 L 12.042969 7.421875 C 12.042969 7.421875 10.609375 9.425781 12.042969 11.144531 Z M 15.664062 10.285156 C 15.445312 9.527344 15.496094 8.71875 15.804688 7.992188 L 18.0625 7.992188 C 18.0625 7.992188 17.488281 9.140625 18.027344 10.285156 Z M 12.042969 11.71875 L 18.921875 11.71875 C 18.921875 11.71875 18.636719 11.71875 18.347656 12.578125 C 18.0625 13.4375 17.777344 14.300781 16.34375 14.300781 L 11.183594 14.300781 C 9.789062 14.300781 9.320312 12.507812 8.460938 11.71875 Z M 12.042969 11.71875 "/>
</svg>
