<?xml version="1.0" encoding="UTF-8"?>
<svg xmlns="http://www.w3.org/2000/svg" xmlns:xlink="http://www.w3.org/1999/xlink" width="60" height="60" viewBox="0 0 60 60">
<path fill-rule="nonzero" fill="rgb(20%, 54.117647%, 95.294118%)" fill-opacity="1" d="M 60 30 C 60 46.570312 46.570312 60 30 60 C 13.429688 60 0 46.570312 0 30 C 0 13.429688 13.429688 0 30 0 C 46.570312 0 60 13.429688 60 30 Z M 60 30 "/>
<path fill-rule="evenodd" fill="rgb(93.333333%, 93.333333%, 93.333333%)" fill-opacity="1" d="M 2.902344 42.890625 C 1.042969 38.984375 0 34.613281 0 30 C 0 25.386719 1.042969 21.015625 2.902344 17.109375 L 20 17.109375 L 20 42.890625 Z M 2.902344 42.890625 "/>
<path fill-rule="evenodd" fill="rgb(84.705882%, 0%, 15.294118%)" fill-opacity="1" d="M 1.707031 20 C 4.71875 11.476562 11.476562 4.71875 20 1.707031 L 20 20 Z M 1.707031 20 "/>
<path fill-rule="evenodd" fill="rgb(42.745098%, 64.705882%, 26.666667%)" fill-opacity="1" d="M 1.707031 20 C 4.71875 11.476562 11.476562 4.71875 20 1.707031 L 20 2.625 L 12.570312 10 L 20 17.375 L 20 20 L 17.5 20 L 10 12.554688 L 2.5 20 Z M 1.707031 20 "/>
<path fill-rule="evenodd" fill="rgb(93.333333%, 93.333333%, 93.333333%)" fill-opacity="1" d="M 5.996094 12 C 7.703125 9.726562 9.726562 7.703125 12 5.996094 L 12 8 L 20 8 L 20 12 L 12 12 L 12 20 L 8 20 L 8 12 Z M 5.996094 12 "/>
<path fill-rule="evenodd" fill="rgb(84.705882%, 0%, 15.294118%)" fill-opacity="1" d="M 20 58.292969 C 11.476562 55.28125 4.71875 48.523438 1.707031 40 L 20 40 Z M 20 58.292969 "/>
<path fill-rule="evenodd" fill="rgb(100%, 85.490196%, 26.666667%)" fill-opacity="1" d="M 5.996094 48 C 5.332031 47.117188 4.714844 46.191406 4.152344 45.234375 C 4.453125 44.511719 5.167969 44 6 44 L 14 44 C 15.105469 44 16 44.894531 16 46 C 16 47.105469 15.105469 48 14 48 Z M 14.765625 55.847656 C 12.90625 54.75 11.175781 53.457031 9.605469 52 L 14 52 C 15.105469 52 16 52.894531 16 54 C 16 54.832031 15.488281 55.546875 14.765625 55.847656 Z M 14.765625 55.847656 "/>
<path fill-rule="nonzero" fill="rgb(100%, 85.490196%, 26.666667%)" fill-opacity="1" d="M 40.429688 18.179688 L 40.429688 35.160156 L 36.128906 35.160156 C 33.550781 35.160156 33.550781 31.71875 33.550781 31.71875 L 23.234375 31.71875 L 23.234375 35.160156 L 25.382812 35.160156 L 41.183594 38.597656 L 56.765625 35.160156 L 56.765625 32.578125 L 48.167969 32.578125 C 48.167969 32.578125 48.167969 35.160156 45.589844 35.160156 L 42.148438 35.160156 L 42.148438 18.179688 Z M 40.429688 18.179688 "/>
<path fill-rule="nonzero" fill="rgb(100%, 85.490196%, 26.666667%)" fill-opacity="1" d="M 42.148438 17.316406 L 42.148438 20.757812 C 38.816406 19.574219 35.59375 21.617188 33.550781 17.316406 C 37.097656 19.789062 39.03125 16.242188 42.148438 17.316406 Z M 34.410156 22.261719 C 34.410156 22.261719 31.832031 24.839844 32.691406 30 L 24.953125 30 C 24.953125 30 28.394531 23.980469 34.410156 22.261719 Z M 36.132812 33.4375 L 46.339844 33.4375 C 43.007812 28.28125 46.339844 22.261719 46.339844 22.261719 L 36.132812 22.261719 C 36.132812 22.261719 31.832031 28.28125 36.132812 33.4375 Z M 46.984375 30.859375 C 46.335938 28.585938 46.488281 26.15625 47.417969 23.980469 L 54.1875 23.980469 C 54.1875 23.980469 52.46875 27.421875 54.078125 30.859375 Z M 36.132812 35.160156 L 56.765625 35.160156 C 56.765625 35.160156 55.90625 35.160156 55.046875 37.738281 C 54.1875 40.316406 53.328125 42.898438 49.027344 42.898438 L 33.554688 42.898438 C 29.359375 42.898438 27.964844 37.523438 25.386719 35.160156 Z M 36.132812 35.160156 "/>
</svg>
