<?xml version="1.0" encoding="UTF-8"?>
<svg xmlns="http://www.w3.org/2000/svg" xmlns:xlink="http://www.w3.org/1999/xlink" width="40" height="40" viewBox="0 0 40 40">
<path fill-rule="nonzero" fill="rgb(20%, 54.117647%, 95.294118%)" fill-opacity="1" d="M 40 20 C 40 31.046875 31.046875 40 20 40 C 8.953125 40 0 31.046875 0 20 C 0 8.953125 8.953125 0 20 0 C 31.046875 0 40 8.953125 40 20 Z M 40 20 "/>
<path fill-rule="evenodd" fill="rgb(93.333333%, 93.333333%, 93.333333%)" fill-opacity="1" d="M 1.933594 28.59375 C 0.695312 25.988281 0 23.078125 0 20 C 0 16.921875 0.695312 14.007812 1.933594 11.40625 L 13.332031 11.40625 L 13.332031 28.59375 Z M 1.933594 28.59375 "/>
<path fill-rule="evenodd" fill="rgb(84.705882%, 0%, 15.294118%)" fill-opacity="1" d="M 1.136719 13.332031 C 3.148438 7.652344 7.652344 3.148438 13.332031 1.136719 L 13.332031 13.332031 Z M 1.136719 13.332031 "/>
<path fill-rule="evenodd" fill="rgb(42.745098%, 64.705882%, 26.666667%)" fill-opacity="1" d="M 1.136719 13.332031 C 3.148438 7.652344 7.652344 3.148438 13.332031 1.136719 L 13.332031 1.75 L 8.382812 6.667969 L 13.332031 11.582031 L 13.332031 13.332031 L 11.667969 13.332031 L 6.667969 8.371094 L 1.667969 13.332031 Z M 1.136719 13.332031 "/>
<path fill-rule="evenodd" fill="rgb(93.333333%, 93.333333%, 93.333333%)" fill-opacity="1" d="M 4 8 C 5.136719 6.484375 6.484375 5.136719 8 4 L 8 5.332031 L 13.332031 5.332031 L 13.332031 8 L 8 8 L 8 13.332031 L 5.332031 13.332031 L 5.332031 8 Z M 4 8 "/>
<path fill-rule="evenodd" fill="rgb(84.705882%, 0%, 15.294118%)" fill-opacity="1" d="M 13.332031 38.863281 C 7.652344 36.851562 3.148438 32.347656 1.136719 26.667969 L 13.332031 26.667969 Z M 13.332031 38.863281 "/>
<path fill-rule="evenodd" fill="rgb(100%, 85.490196%, 26.666667%)" fill-opacity="1" d="M 4 32 C 3.554688 31.410156 3.144531 30.796875 2.765625 30.15625 C 2.96875 29.671875 3.445312 29.332031 4 29.332031 L 9.332031 29.332031 C 10.070312 29.332031 10.667969 29.929688 10.667969 30.667969 C 10.667969 31.402344 10.070312 32 9.332031 32 Z M 9.84375 37.234375 C 8.605469 36.5 7.453125 35.640625 6.402344 34.667969 L 9.332031 34.667969 C 10.070312 34.667969 10.667969 35.261719 10.667969 36 C 10.667969 36.554688 10.328125 37.03125 9.84375 37.234375 Z M 9.84375 37.234375 "/>
<path fill-rule="nonzero" fill="rgb(100%, 85.490196%, 26.666667%)" fill-opacity="1" d="M 26.953125 12.117188 L 26.953125 23.4375 L 24.085938 23.4375 C 22.367188 23.4375 22.367188 21.144531 22.367188 21.144531 L 15.488281 21.144531 L 15.488281 23.4375 L 16.921875 23.4375 L 27.453125 25.730469 L 37.84375 23.4375 L 37.84375 21.71875 L 32.113281 21.71875 C 32.113281 21.71875 32.113281 23.4375 30.390625 23.4375 L 28.097656 23.4375 L 28.097656 12.117188 Z M 26.953125 12.117188 "/>
<path fill-rule="nonzero" fill="rgb(100%, 85.490196%, 26.666667%)" fill-opacity="1" d="M 28.101562 11.546875 L 28.101562 13.839844 C 25.878906 13.050781 23.730469 14.410156 22.367188 11.546875 C 24.734375 13.191406 26.023438 10.828125 28.101562 11.546875 Z M 22.941406 14.839844 C 22.941406 14.839844 21.222656 16.5625 21.792969 20 L 16.636719 20 C 16.636719 20 18.929688 15.988281 22.941406 14.839844 Z M 24.085938 22.292969 L 30.894531 22.292969 C 28.671875 18.855469 30.894531 14.839844 30.894531 14.839844 L 24.085938 14.839844 C 24.085938 14.839844 21.222656 18.855469 24.085938 22.292969 Z M 31.324219 20.574219 C 30.890625 19.058594 30.992188 17.4375 31.609375 15.988281 L 36.125 15.988281 C 36.125 15.988281 34.976562 18.28125 36.054688 20.574219 Z M 24.085938 23.4375 L 37.84375 23.4375 C 37.84375 23.4375 37.269531 23.4375 36.699219 25.160156 C 36.125 26.878906 35.550781 28.597656 32.6875 28.597656 L 22.367188 28.597656 C 19.574219 28.597656 18.644531 25.015625 16.921875 23.4375 L 24.089844 23.4375 Z M 24.085938 23.4375 "/>
</svg>
