<?xml version="1.0" encoding="UTF-8"?>
<svg xmlns="http://www.w3.org/2000/svg" xmlns:xlink="http://www.w3.org/1999/xlink" width="60" height="60" viewBox="0 0 60 60">
<path fill-rule="nonzero" fill="rgb(93.333333%, 93.333333%, 93.333333%)" fill-opacity="1" d="M 55.984375 45 C 58.539062 40.585938 60 35.464844 60 30 C 60 24.535156 58.539062 19.414062 55.984375 15 L 4.015625 15 C 1.460938 19.414062 0 24.535156 0 30 C 0 35.464844 1.460938 40.585938 4.015625 45 Z M 55.984375 45 "/>
<path fill-rule="nonzero" fill="rgb(0%, 32.156863%, 70.588235%)" fill-opacity="1" d="M 29.988281 60 C 18.132812 59.996094 7.882812 53.113281 3.015625 43.125 L 56.984375 43.125 C 52.117188 53.113281 41.867188 59.996094 30.007812 60 Z M 29.988281 60 "/>
<path fill-rule="nonzero" fill="rgb(84.705882%, 0%, 15.294118%)" fill-opacity="1" d="M 30 0 C 18.136719 0 7.882812 6.882812 3.015625 16.875 L 56.984375 16.875 C 52.117188 6.882812 41.863281 0 30 0 Z M 30 0 "/>
<path fill-rule="evenodd" fill="rgb(42.745098%, 64.705882%, 26.666667%)" fill-opacity="1" d="M 40.234375 26.4375 C 39.832031 24.414062 38.835938 22.554688 37.378906 21.09375 L 34.425781 24.042969 C 35.300781 24.921875 35.898438 26.035156 36.140625 27.25 C 36.382812 28.464844 36.257812 29.722656 35.785156 30.867188 C 35.308594 32.011719 34.507812 32.988281 33.476562 33.675781 C 32.449219 34.367188 31.238281 34.734375 30 34.734375 C 28.761719 34.734375 27.550781 34.367188 26.519531 33.675781 C 25.492188 32.988281 24.6875 32.011719 24.214844 30.867188 C 23.742188 29.722656 23.617188 28.464844 23.859375 27.25 C 24.101562 26.035156 24.695312 24.921875 25.574219 24.042969 L 22.621094 21.09375 C 21.160156 22.554688 20.167969 24.414062 19.765625 26.4375 C 19.363281 28.460938 19.570312 30.558594 20.359375 32.464844 C 21.148438 34.371094 22.488281 36 24.203125 37.148438 C 25.917969 38.292969 27.9375 38.90625 30 38.90625 C 32.0625 38.90625 34.082031 38.292969 35.796875 37.148438 C 37.511719 36 38.851562 34.371094 39.640625 32.464844 C 40.429688 30.558594 40.636719 28.460938 40.234375 26.4375 Z M 40.234375 26.4375 "/>
<path fill-rule="nonzero" fill="rgb(100%, 77.647059%, 20.784314%)" fill-opacity="1" d="M 30 24.148438 L 30.972656 27.136719 L 34.113281 27.136719 L 31.570312 28.984375 L 32.542969 31.972656 L 30 30.125 L 27.457031 31.972656 L 28.429688 28.984375 L 25.886719 27.136719 L 29.027344 27.136719 Z M 30 24.148438 "/>
</svg>
