<?xml version="1.0" encoding="UTF-8"?>
<svg xmlns="http://www.w3.org/2000/svg" xmlns:xlink="http://www.w3.org/1999/xlink" width="20" height="20" viewBox="0 0 20 20">
<path fill-rule="nonzero" fill="rgb(93.333333%, 93.333333%, 93.333333%)" fill-opacity="1" d="M 18.664062 15 C 19.511719 13.527344 20 11.820312 20 10 C 20 8.179688 19.511719 6.472656 18.664062 5 L 1.335938 5 C 0.488281 6.472656 0 8.179688 0 10 C 0 11.820312 0.488281 13.527344 1.335938 15 Z M 18.664062 15 "/>
<path fill-rule="nonzero" fill="rgb(0%, 32.156863%, 70.588235%)" fill-opacity="1" d="M 9.996094 20 C 6.042969 20 2.628906 17.703125 1.003906 14.375 L 18.996094 14.375 C 17.371094 17.703125 13.957031 20 10.003906 20 Z M 9.996094 20 "/>
<path fill-rule="nonzero" fill="rgb(84.705882%, 0%, 15.294118%)" fill-opacity="1" d="M 10 0 C 6.046875 0 2.628906 2.292969 1.003906 5.625 L 18.996094 5.625 C 17.371094 2.292969 13.953125 0 10 0 Z M 10 0 "/>
<path fill-rule="evenodd" fill="rgb(42.745098%, 64.705882%, 26.666667%)" fill-opacity="1" d="M 13.410156 8.8125 C 13.277344 8.136719 12.945312 7.519531 12.460938 7.03125 L 11.476562 8.015625 C 11.765625 8.308594 11.964844 8.679688 12.046875 9.082031 C 12.128906 9.488281 12.085938 9.90625 11.929688 10.289062 C 11.769531 10.671875 11.503906 10.996094 11.160156 11.226562 C 10.816406 11.457031 10.414062 11.578125 10 11.578125 C 9.585938 11.578125 9.183594 11.457031 8.839844 11.226562 C 8.496094 10.996094 8.230469 10.671875 8.070312 10.289062 C 7.914062 9.90625 7.871094 9.488281 7.953125 9.082031 C 8.035156 8.679688 8.230469 8.308594 8.523438 8.015625 L 7.539062 7.03125 C 7.054688 7.519531 6.722656 8.136719 6.589844 8.8125 C 6.453125 9.488281 6.523438 10.1875 6.785156 10.820312 C 7.050781 11.457031 7.496094 12 8.066406 12.382812 C 8.640625 12.765625 9.3125 12.96875 10 12.96875 C 10.6875 12.96875 11.359375 12.765625 11.933594 12.382812 C 12.503906 12 12.949219 11.457031 13.214844 10.820312 C 13.476562 10.1875 13.546875 9.488281 13.410156 8.8125 Z M 13.410156 8.8125 "/>
<path fill-rule="nonzero" fill="rgb(100%, 77.647059%, 20.784314%)" fill-opacity="1" d="M 10 8.046875 L 10.324219 9.046875 L 11.371094 9.046875 L 10.523438 9.660156 L 10.847656 10.65625 L 10 10.042969 L 9.152344 10.65625 L 9.476562 9.660156 L 8.628906 9.046875 L 9.675781 9.046875 Z M 10 8.046875 "/>
</svg>
