<?xml version="1.0" encoding="UTF-8"?>
<svg xmlns="http://www.w3.org/2000/svg" xmlns:xlink="http://www.w3.org/1999/xlink" width="40" height="40" viewBox="0 0 40 40">
<path fill-rule="nonzero" fill="rgb(93.333333%, 93.333333%, 93.333333%)" fill-opacity="1" d="M 37.324219 30 C 39.027344 27.058594 40 23.644531 40 20 C 40 16.355469 39.027344 12.941406 37.324219 10 L 2.675781 10 C 0.972656 12.941406 0 16.355469 0 20 C 0 23.644531 0.972656 27.058594 2.675781 30 Z M 37.324219 30 "/>
<path fill-rule="nonzero" fill="rgb(0%, 32.156863%, 70.588235%)" fill-opacity="1" d="M 19.992188 40 C 12.089844 39.996094 5.253906 35.410156 2.011719 28.75 L 37.988281 28.75 C 34.746094 35.410156 27.910156 39.996094 20.007812 40 Z M 19.992188 40 "/>
<path fill-rule="nonzero" fill="rgb(84.705882%, 0%, 15.294118%)" fill-opacity="1" d="M 20 0 C 12.09375 0 5.257812 4.589844 2.011719 11.25 L 37.988281 11.25 C 34.742188 4.589844 27.910156 0 20 0 Z M 20 0 "/>
<path fill-rule="evenodd" fill="rgb(42.745098%, 64.705882%, 26.666667%)" fill-opacity="1" d="M 26.824219 17.625 C 26.554688 16.273438 25.890625 15.035156 24.917969 14.0625 L 22.953125 16.03125 C 23.535156 16.613281 23.933594 17.359375 24.09375 18.167969 C 24.253906 18.976562 24.171875 19.816406 23.855469 20.578125 C 23.539062 21.339844 23.003906 21.992188 22.320312 22.453125 C 21.632812 22.910156 20.824219 23.15625 20 23.15625 C 19.175781 23.15625 18.367188 22.910156 17.679688 22.453125 C 16.996094 21.992188 16.460938 21.339844 16.144531 20.578125 C 15.828125 19.816406 15.746094 18.976562 15.90625 18.167969 C 16.066406 17.359375 16.464844 16.613281 17.046875 16.03125 L 15.082031 14.0625 C 14.109375 15.035156 13.445312 16.273438 13.175781 17.625 C 12.910156 18.972656 13.046875 20.371094 13.574219 21.644531 C 14.097656 22.914062 14.992188 24 16.136719 24.765625 C 17.277344 25.53125 18.625 25.9375 20 25.9375 C 21.375 25.9375 22.71875 25.53125 23.863281 24.765625 C 25.007812 24 25.898438 22.914062 26.425781 21.644531 C 26.953125 20.371094 27.089844 18.972656 26.824219 17.625 Z M 26.824219 17.625 "/>
<path fill-rule="nonzero" fill="rgb(100%, 77.647059%, 20.784314%)" fill-opacity="1" d="M 20 16.097656 L 20.648438 18.089844 L 22.742188 18.089844 L 21.046875 19.320312 L 21.695312 21.3125 L 20 20.082031 L 18.304688 21.3125 L 18.953125 19.320312 L 17.257812 18.089844 L 19.351562 18.089844 Z M 20 16.097656 "/>
</svg>
