<?xml version="1.0" encoding="UTF-8"?>
<svg xmlns="http://www.w3.org/2000/svg" xmlns:xlink="http://www.w3.org/1999/xlink" width="60" height="60" viewBox="0 0 60 60">
<path fill-rule="nonzero" fill="rgb(63.529412%, 0%, 11.372549%)" fill-opacity="1" d="M 60 30 C 60 46.570312 46.570312 60 30 60 C 13.429688 60 0 46.570312 0 30 C 0 13.429688 13.429688 0 30 0 C 46.570312 0 60 13.429688 60 30 Z M 60 30 "/>
<path fill-rule="evenodd" fill="rgb(93.333333%, 93.333333%, 93.333333%)" fill-opacity="1" d="M 59.398438 36 C 59.792969 34.0625 60 32.054688 60 30 C 60 27.945312 59.792969 25.9375 59.398438 24 L 0.601562 24 C 0.207031 25.9375 0 27.945312 0 30 C 0 32.054688 0.207031 34.0625 0.601562 36 Z M 59.398438 36 "/>
</svg>
