<?xml version="1.0" encoding="UTF-8"?>
<svg xmlns="http://www.w3.org/2000/svg" xmlns:xlink="http://www.w3.org/1999/xlink" width="20" height="20" viewBox="0 0 20 20">
<path fill-rule="nonzero" fill="rgb(63.529412%, 0%, 11.372549%)" fill-opacity="1" d="M 20 10 C 20 15.523438 15.523438 20 10 20 C 4.476562 20 0 15.523438 0 10 C 0 4.476562 4.476562 0 10 0 C 15.523438 0 20 4.476562 20 10 Z M 20 10 "/>
<path fill-rule="evenodd" fill="rgb(93.333333%, 93.333333%, 93.333333%)" fill-opacity="1" d="M 19.800781 12 C 19.929688 11.355469 20 10.683594 20 10 C 20 9.316406 19.929688 8.644531 19.800781 8 L 0.199219 8 C 0.0703125 8.644531 0 9.316406 0 10 C 0 10.683594 0.0703125 11.355469 0.199219 12 Z M 19.800781 12 "/>
</svg>
