<?xml version="1.0" encoding="UTF-8"?>
<svg xmlns="http://www.w3.org/2000/svg" xmlns:xlink="http://www.w3.org/1999/xlink" width="40" height="40" viewBox="0 0 40 40">
<path fill-rule="nonzero" fill="rgb(63.529412%, 0%, 11.372549%)" fill-opacity="1" d="M 40 20 C 40 31.046875 31.046875 40 20 40 C 8.953125 40 0 31.046875 0 20 C 0 8.953125 8.953125 0 20 0 C 31.046875 0 40 8.953125 40 20 Z M 40 20 "/>
<path fill-rule="evenodd" fill="rgb(93.333333%, 93.333333%, 93.333333%)" fill-opacity="1" d="M 39.601562 24 C 39.863281 22.707031 40 21.371094 40 20 C 40 18.628906 39.863281 17.292969 39.601562 16 L 0.398438 16 C 0.136719 17.292969 0 18.628906 0 20 C 0 21.371094 0.136719 22.707031 0.398438 24 Z M 39.601562 24 "/>
</svg>
