<?xml version="1.0" encoding="UTF-8"?>
<svg xmlns="http://www.w3.org/2000/svg" xmlns:xlink="http://www.w3.org/1999/xlink" width="20" height="20" viewBox="0 0 20 20">
<path fill-rule="nonzero" fill="rgb(93.333333%, 93.333333%, 93.333333%)" fill-opacity="1" d="M 20 10 C 20 15.523438 15.523438 20 10 20 C 4.476562 20 0 15.523438 0 10 C 0 4.476562 4.476562 0 10 0 C 15.523438 0 20 4.476562 20 10 Z M 20 10 "/>
<path fill-rule="evenodd" fill="rgb(0%, 32.156863%, 70.588235%)" fill-opacity="1" d="M 11.679688 19.859375 C 16.402344 19.0625 20 14.949219 20 10 C 20 8.53125 19.683594 7.140625 19.117188 5.882812 L 11.679688 13.320312 Z M 0 10 C 0 14.949219 3.597656 19.0625 8.320312 19.859375 L 8.320312 13.320312 L 0.882812 5.882812 C 0.316406 7.140625 0 8.53125 0 10 Z M 0 10 "/>
<path fill-rule="nonzero" fill="rgb(100%, 77.647059%, 20.784314%)" fill-opacity="1" d="M 7.5 7.5 L 12.5 7.5 C 12.5 6.121094 11.378906 5 10 5 C 8.621094 5 7.5 6.121094 7.5 7.5 Z M 7.5 7.5 "/>
<path fill-rule="nonzero" fill="rgb(84.705882%, 0%, 15.294118%)" fill-opacity="1" d="M 10 12.5 L 6.25 8.75 L 13.75 8.75 Z M 10 12.5 "/>
</svg>
