<?xml version="1.0" encoding="UTF-8"?>
<svg xmlns="http://www.w3.org/2000/svg" xmlns:xlink="http://www.w3.org/1999/xlink" width="60" height="60" viewBox="0 0 60 60">
<path fill-rule="nonzero" fill="rgb(93.333333%, 93.333333%, 93.333333%)" fill-opacity="1" d="M 60 30 C 60 46.570312 46.570312 60 30 60 C 13.429688 60 0 46.570312 0 30 C 0 13.429688 13.429688 0 30 0 C 46.570312 0 60 13.429688 60 30 Z M 60 30 "/>
<path fill-rule="evenodd" fill="rgb(0%, 32.156863%, 70.588235%)" fill-opacity="1" d="M 35.039062 59.578125 C 49.207031 57.183594 60 44.851562 60 30 C 60 25.597656 59.050781 21.417969 57.347656 17.652344 L 35.039062 39.960938 Z M 0 30 C 0 44.851562 10.792969 57.183594 24.960938 59.578125 L 24.960938 39.960938 L 2.652344 17.652344 C 0.949219 21.417969 0 25.597656 0 30 Z M 0 30 "/>
<path fill-rule="nonzero" fill="rgb(100%, 77.647059%, 20.784314%)" fill-opacity="1" d="M 22.5 22.5 L 37.5 22.5 C 37.5 18.359375 34.140625 15 30 15 C 25.859375 15 22.5 18.359375 22.5 22.5 Z M 22.5 22.5 "/>
<path fill-rule="nonzero" fill="rgb(84.705882%, 0%, 15.294118%)" fill-opacity="1" d="M 30 37.5 L 18.75 26.25 L 41.25 26.25 Z M 30 37.5 "/>
</svg>
