<?xml version="1.0" encoding="UTF-8"?>
<svg xmlns="http://www.w3.org/2000/svg" xmlns:xlink="http://www.w3.org/1999/xlink" width="40" height="40" viewBox="0 0 40 40">
<path fill-rule="nonzero" fill="rgb(93.333333%, 93.333333%, 93.333333%)" fill-opacity="1" d="M 40 20 C 40 31.046875 31.046875 40 20 40 C 8.953125 40 0 31.046875 0 20 C 0 8.953125 8.953125 0 20 0 C 31.046875 0 40 8.953125 40 20 Z M 40 20 "/>
<path fill-rule="evenodd" fill="rgb(0%, 32.156863%, 70.588235%)" fill-opacity="1" d="M 23.359375 39.71875 C 32.804688 38.121094 40 29.902344 40 20 C 40 17.066406 39.367188 14.277344 38.234375 11.765625 L 23.359375 26.640625 Z M 0 20 C 0 29.902344 7.195312 38.121094 16.640625 39.71875 L 16.640625 26.640625 L 1.765625 11.765625 C 0.632812 14.277344 0 17.066406 0 20 Z M 0 20 "/>
<path fill-rule="nonzero" fill="rgb(100%, 77.647059%, 20.784314%)" fill-opacity="1" d="M 15 15 L 25 15 C 25 12.238281 22.761719 10 20 10 C 17.238281 10 15 12.238281 15 15 Z M 15 15 "/>
<path fill-rule="nonzero" fill="rgb(84.705882%, 0%, 15.294118%)" fill-opacity="1" d="M 20 25 L 12.5 17.5 L 27.5 17.5 Z M 20 25 "/>
</svg>
