<?xml version="1.0" encoding="UTF-8"?>
<svg xmlns="http://www.w3.org/2000/svg" xmlns:xlink="http://www.w3.org/1999/xlink" width="20" height="20" viewBox="0 0 20 20">
<path fill-rule="nonzero" fill="rgb(93.333333%, 93.333333%, 93.333333%)" fill-opacity="1" d="M 10 20 C 15.523438 20 20 15.523438 20 10 C 20 4.476562 15.523438 0 10 0 C 4.476562 0 0 4.476562 0 10 C 0 15.523438 4.476562 20 10 20 Z M 10 20 "/>
<path fill-rule="nonzero" fill="rgb(0%, 32.156863%, 70.588235%)" fill-opacity="1" d="M 19.683594 12.5 C 19.890625 11.699219 20 10.863281 20 10 C 20 9.136719 19.890625 8.300781 19.683594 7.5 L 8.75 7.5 L 8.75 0.078125 C 6.871094 0.3125 5.15625 1.066406 3.75 2.191406 L 3.75 7.5 L 0.316406 7.5 C 0.109375 8.300781 0 9.136719 0 10 C 0 10.863281 0.109375 11.699219 0.316406 12.5 L 3.75 12.5 L 3.75 17.804688 C 5.15625 18.933594 6.871094 19.6875 8.75 19.921875 L 8.75 12.5 Z M 19.683594 12.5 "/>
<path fill-rule="nonzero" fill="rgb(84.705882%, 0%, 15.294118%)" fill-opacity="1" d="M 19.921875 11.25 C 19.972656 10.839844 20 10.421875 20 10 C 20 9.578125 19.972656 9.160156 19.921875 8.75 L 7.5 8.75 L 7.5 0.316406 C 6.613281 0.542969 5.773438 0.890625 5 1.335938 L 5 8.75 L 0.078125 8.75 C 0.0273438 9.160156 0 9.578125 0 10 C 0 10.421875 0.0273438 10.839844 0.078125 11.25 L 5 11.25 L 5 18.660156 C 5.773438 19.109375 6.613281 19.457031 7.5 19.683594 L 7.5 11.25 Z M 19.921875 11.25 "/>
</svg>
