<?xml version="1.0" encoding="UTF-8"?>
<svg xmlns="http://www.w3.org/2000/svg" xmlns:xlink="http://www.w3.org/1999/xlink" width="20" height="20" viewBox="0 0 20 20">
<path fill-rule="nonzero" fill="rgb(84.705882%, 0%, 15.294118%)" fill-opacity="1" d="M 20 10 C 20 15.523438 15.523438 20 10 20 C 4.476562 20 0 15.523438 0 10 C 0 4.476562 4.476562 0 10 0 C 15.523438 0 20 4.476562 20 10 Z M 20 10 "/>
<path fill-rule="nonzero" fill="rgb(20%, 20%, 20%)" fill-opacity="1" d="M 15.652344 7.421875 L 12.03125 7.421875 C 12.253906 7.1875 12.390625 6.871094 12.390625 6.523438 C 12.390625 5.800781 11.808594 5.21875 11.085938 5.21875 C 10.632812 5.21875 10.234375 5.449219 10 5.800781 C 9.765625 5.449219 9.367188 5.21875 8.914062 5.21875 C 8.191406 5.21875 7.609375 5.800781 7.609375 6.523438 C 7.609375 6.871094 7.746094 7.1875 7.96875 7.421875 L 4.347656 7.421875 C 4.347656 8.382812 5.183594 9.160156 6.144531 9.160156 L 6.085938 9.160156 C 6.085938 10.121094 6.867188 10.902344 7.828125 10.902344 C 7.828125 11.210938 7.910156 11.503906 8.050781 11.753906 L 6.609375 13.199219 L 7.714844 14.304688 L 9.285156 12.734375 C 9.347656 12.757812 9.410156 12.777344 9.476562 12.789062 L 8.527344 14.929688 L 10 16.523438 L 11.472656 14.929688 L 10.523438 12.789062 C 10.589844 12.777344 10.652344 12.757812 10.714844 12.734375 L 12.285156 14.304688 L 13.390625 13.199219 L 11.949219 11.753906 C 12.09375 11.503906 12.175781 11.210938 12.175781 10.902344 C 13.132812 10.902344 13.914062 10.121094 13.914062 9.160156 L 13.855469 9.160156 C 14.816406 9.160156 15.652344 8.382812 15.652344 7.421875 Z M 15.652344 7.421875 "/>
</svg>
