<?xml version="1.0" encoding="UTF-8"?>
<svg xmlns="http://www.w3.org/2000/svg" xmlns:xlink="http://www.w3.org/1999/xlink" width="60" height="60" viewBox="0 0 60 60">
<path fill-rule="nonzero" fill="rgb(84.705882%, 0%, 15.294118%)" fill-opacity="1" d="M 60 30 C 60 46.570312 46.570312 60 30 60 C 13.429688 60 0 46.570312 0 30 C 0 13.429688 13.429688 0 30 0 C 46.570312 0 60 13.429688 60 30 Z M 60 30 "/>
<path fill-rule="nonzero" fill="rgb(20%, 20%, 20%)" fill-opacity="1" d="M 46.957031 22.265625 L 36.089844 22.265625 C 36.761719 21.5625 37.175781 20.613281 37.175781 19.566406 C 37.175781 17.40625 35.421875 15.652344 33.261719 15.652344 C 31.898438 15.652344 30.703125 16.347656 30 17.402344 C 29.300781 16.347656 28.101562 15.652344 26.738281 15.652344 C 24.578125 15.652344 22.828125 17.40625 22.828125 19.566406 C 22.828125 20.613281 23.238281 21.566406 23.910156 22.265625 L 13.042969 22.265625 C 13.042969 25.148438 15.554688 27.484375 18.433594 27.484375 L 18.261719 27.484375 C 18.261719 30.367188 20.597656 32.703125 23.480469 32.703125 C 23.480469 33.636719 23.726562 34.511719 24.152344 35.265625 L 19.828125 39.59375 L 23.148438 42.914062 L 27.855469 38.207031 C 28.042969 38.273438 28.230469 38.328125 28.429688 38.363281 L 25.582031 44.789062 L 30 49.566406 L 34.417969 44.789062 L 31.570312 38.363281 C 31.769531 38.328125 31.960938 38.273438 32.144531 38.207031 L 36.855469 42.914062 L 40.175781 39.59375 L 35.847656 35.265625 C 36.277344 34.507812 36.523438 33.632812 36.523438 32.703125 C 39.402344 32.703125 41.738281 30.367188 41.738281 27.484375 L 41.566406 27.484375 C 44.445312 27.484375 46.957031 25.148438 46.957031 22.265625 Z M 46.957031 22.265625 "/>
</svg>
