<?xml version="1.0" encoding="UTF-8"?>
<svg xmlns="http://www.w3.org/2000/svg" xmlns:xlink="http://www.w3.org/1999/xlink" width="40" height="40" viewBox="0 0 40 40">
<path fill-rule="nonzero" fill="rgb(84.705882%, 0%, 15.294118%)" fill-opacity="1" d="M 40 20 C 40 31.046875 31.046875 40 20 40 C 8.953125 40 0 31.046875 0 20 C 0 8.953125 8.953125 0 20 0 C 31.046875 0 40 8.953125 40 20 Z M 40 20 "/>
<path fill-rule="nonzero" fill="rgb(20%, 20%, 20%)" fill-opacity="1" d="M 31.304688 14.84375 L 24.058594 14.84375 C 24.507812 14.375 24.78125 13.742188 24.78125 13.042969 C 24.78125 11.601562 23.613281 10.433594 22.175781 10.433594 C 21.265625 10.433594 20.46875 10.898438 20 11.601562 C 19.53125 10.898438 18.734375 10.433594 17.828125 10.433594 C 16.386719 10.433594 15.21875 11.601562 15.21875 13.042969 C 15.21875 13.742188 15.492188 14.375 15.941406 14.84375 L 8.695312 14.84375 C 8.695312 16.765625 10.371094 18.324219 12.289062 18.324219 L 12.175781 18.324219 C 12.175781 20.242188 13.730469 21.800781 15.652344 21.800781 C 15.652344 22.421875 15.816406 23.007812 16.101562 23.511719 L 13.21875 26.398438 L 15.429688 28.609375 L 18.570312 25.46875 C 18.695312 25.515625 18.820312 25.550781 18.953125 25.578125 L 17.054688 29.859375 L 20 33.042969 L 22.945312 29.859375 L 21.046875 25.574219 C 21.179688 25.550781 21.304688 25.515625 21.429688 25.46875 L 24.570312 28.609375 L 26.78125 26.398438 L 23.898438 23.511719 C 24.183594 23.007812 24.347656 22.421875 24.347656 21.800781 C 26.269531 21.800781 27.828125 20.242188 27.828125 18.324219 L 27.710938 18.324219 C 29.632812 18.324219 31.304688 16.765625 31.304688 14.84375 Z M 31.304688 14.84375 "/>
</svg>
