<?xml version="1.0" encoding="UTF-8"?>
<svg xmlns="http://www.w3.org/2000/svg" xmlns:xlink="http://www.w3.org/1999/xlink" width="20" height="20" viewBox="0 0 20 20">
<path fill-rule="nonzero" fill="rgb(0%, 13.333333%, 40%)" fill-opacity="1" d="M 20 10 C 20 15.523438 15.523438 20 10 20 C 4.476562 20 0 15.523438 0 10 L 10 0 C 15.523438 0 20 4.476562 20 10 Z M 20 10 "/>
<path fill-rule="nonzero" fill="rgb(0%, 13.333333%, 40%)" fill-opacity="1" d="M 10 0 L 10 10 L 0 10 C 0 4.476562 4.476562 0 10 0 Z M 10 0 "/>
<path fill-rule="nonzero" fill="rgb(93.333333%, 93.333333%, 93.333333%)" fill-opacity="1" d="M 8.5 10 L 10 10 L 10 8.5 L 5.496094 3.992188 L 10 3.992188 L 10 0 C 4.476562 0 0 4.476562 0 10 L 3.992188 10 L 3.992188 5.496094 Z M 8.5 10 "/>
<path fill-rule="nonzero" fill="rgb(84.705882%, 0%, 15.294118%)" fill-opacity="1" d="M 10 2.992188 L 10 0.992188 L 5.652344 0.992188 C 3.621094 1.972656 1.972656 3.621094 0.992188 5.652344 L 0.992188 10 L 2.992188 10 L 2.992188 2.992188 Z M 10 2.992188 "/>
<path fill-rule="nonzero" fill="rgb(84.705882%, 0%, 15.294118%)" fill-opacity="1" d="M 10 9 L 10 10 L 3.992188 3.992188 L 4.996094 3.992188 Z M 10 9 "/>
<path fill-rule="nonzero" fill="rgb(42.745098%, 64.705882%, 26.666667%)" fill-opacity="1" d="M 15.625 12.34375 L 14.375 12.34375 C 14.03125 12.34375 13.75 12.625 13.75 12.96875 C 13.75 13.3125 14.03125 13.59375 14.375 13.59375 L 15.625 13.59375 C 15.96875 13.59375 16.25 13.3125 16.25 12.96875 C 16.25 12.625 15.96875 12.34375 15.625 12.34375 Z M 15.625 12.34375 "/>
<path fill-rule="nonzero" fill="rgb(52.156863%, 41.176471%, 23.921569%)" fill-opacity="1" d="M 15 7.34375 C 15.691406 7.34375 16.25 6.785156 16.25 6.09375 C 16.25 5.402344 15.691406 4.84375 15 4.84375 C 14.308594 4.84375 13.75 5.402344 13.75 6.09375 C 13.75 6.785156 14.308594 7.34375 15 7.34375 Z M 15 7.34375 "/>
<path fill-rule="nonzero" fill="rgb(67.45098%, 67.058824%, 69.411765%)" fill-opacity="1" d="M 15 9.84375 C 16.035156 9.84375 16.875 9.003906 16.875 7.96875 C 16.875 6.933594 16.035156 6.09375 15 6.09375 C 13.964844 6.09375 13.125 6.933594 13.125 7.96875 C 13.125 9.003906 13.964844 9.84375 15 9.84375 Z M 15 9.84375 "/>
<path fill-rule="nonzero" fill="rgb(20%, 54.117647%, 95.294118%)" fill-opacity="1" d="M 13.125 7.96875 L 13.125 10.976562 C 13.125 12.382812 15 12.851562 15 12.851562 C 15 12.851562 16.875 12.382812 16.875 10.976562 L 16.875 7.96875 Z M 13.125 7.96875 "/>
<path fill-rule="nonzero" fill="rgb(50.588235%, 50.196078%, 52.156863%)" fill-opacity="1" d="M 13.125 7.96875 C 13.125 7.625 12.84375 7.34375 12.5 7.34375 C 12.15625 7.34375 11.875 7.625 11.875 7.96875 L 11.875 11.71875 C 11.875 12.0625 12.15625 12.34375 12.5 12.34375 C 12.84375 12.34375 13.125 12.0625 13.125 11.71875 Z M 13.125 7.96875 "/>
<path fill-rule="nonzero" fill="rgb(50.588235%, 50.196078%, 52.156863%)" fill-opacity="1" d="M 18.125 7.96875 C 18.125 7.625 17.84375 7.34375 17.5 7.34375 C 17.15625 7.34375 16.875 7.625 16.875 7.96875 L 16.875 11.71875 C 16.875 12.0625 17.15625 12.34375 17.5 12.34375 C 17.84375 12.34375 18.125 12.0625 18.125 11.71875 Z M 18.125 7.96875 "/>
<path fill-rule="nonzero" fill="rgb(42.745098%, 64.705882%, 26.666667%)" fill-opacity="1" d="M 13.125 7.96875 L 15 12.34375 L 16.875 7.96875 Z M 13.125 7.96875 "/>
<path fill-rule="evenodd" fill="rgb(100%, 77.647059%, 20.784314%)" fill-opacity="1" d="M 11.589844 14.355469 C 11.734375 14.4375 11.882812 14.515625 12.035156 14.585938 L 12.054688 14.597656 L 12.003906 14.710938 L 11.957031 14.820312 L 12.066406 14.871094 C 12.527344 15.078125 13.011719 15.238281 13.507812 15.34375 C 13.996094 15.449219 14.5 15.503906 15 15.503906 C 15.503906 15.503906 16.003906 15.449219 16.496094 15.34375 C 16.988281 15.238281 17.476562 15.078125 17.9375 14.871094 L 18.046875 14.820312 L 17.996094 14.710938 L 17.945312 14.597656 L 17.96875 14.585938 C 18.121094 14.515625 18.269531 14.4375 18.414062 14.355469 L 18.59375 14.25 L 18.414062 14.144531 C 18.289062 14.070312 18.164062 13.988281 18.042969 13.90625 C 18.039062 13.75 18.027344 13.589844 18.015625 13.4375 L 17.996094 13.246094 L 17.832031 13.339844 C 17.6875 13.425781 17.535156 13.503906 17.378906 13.574219 L 17.136719 13.683594 L 17.207031 13.875 C 16.503906 14.15625 15.761719 14.300781 15 14.300781 C 14.238281 14.300781 13.492188 14.15625 12.785156 13.871094 L 12.863281 13.683594 L 12.621094 13.574219 C 12.46875 13.503906 12.316406 13.425781 12.167969 13.339844 L 12.003906 13.246094 L 11.988281 13.4375 C 11.976562 13.59375 11.96875 13.75 11.964844 13.910156 C 11.84375 13.992188 11.714844 14.070312 11.589844 14.144531 L 11.40625 14.25 Z M 11.589844 14.355469 "/>
</svg>
