<?xml version="1.0" encoding="UTF-8"?>
<svg xmlns="http://www.w3.org/2000/svg" xmlns:xlink="http://www.w3.org/1999/xlink" width="60" height="60" viewBox="0 0 60 60">
<path fill-rule="nonzero" fill="rgb(0%, 13.333333%, 40%)" fill-opacity="1" d="M 60 30 C 60 46.566406 46.566406 60 30 60 C 13.433594 60 0 46.566406 0 30 L 30 0 C 46.566406 0 60 13.433594 60 30 Z M 60 30 "/>
<path fill-rule="nonzero" fill="rgb(0%, 13.333333%, 40%)" fill-opacity="1" d="M 30 0 L 30 30 L 0 30 C 0 13.429688 13.429688 0 30 0 Z M 30 0 "/>
<path fill-rule="nonzero" fill="rgb(93.333333%, 93.333333%, 93.333333%)" fill-opacity="1" d="M 25.496094 30 L 30 30 L 30 25.496094 L 16.488281 11.984375 L 30 11.984375 L 30 0 C 13.429688 0 0 13.429688 0 30 L 11.984375 30 L 11.984375 16.488281 Z M 25.496094 30 "/>
<path fill-rule="nonzero" fill="rgb(84.705882%, 0%, 15.294118%)" fill-opacity="1" d="M 30 8.980469 L 30 2.972656 L 16.960938 2.972656 C 10.867188 5.917969 5.917969 10.867188 2.972656 16.960938 L 2.972656 30 L 8.980469 30 L 8.980469 8.980469 Z M 30 8.980469 "/>
<path fill-rule="nonzero" fill="rgb(84.705882%, 0%, 15.294118%)" fill-opacity="1" d="M 30 26.996094 L 30 30 L 11.984375 11.984375 L 14.984375 11.984375 Z M 30 26.996094 "/>
<path fill-rule="nonzero" fill="rgb(42.745098%, 64.705882%, 26.666667%)" fill-opacity="1" d="M 46.875 37.03125 L 43.125 37.03125 C 42.089844 37.03125 41.25 37.871094 41.25 38.90625 C 41.25 39.941406 42.089844 40.78125 43.125 40.78125 L 46.875 40.78125 C 47.910156 40.78125 48.75 39.941406 48.75 38.90625 C 48.75 37.871094 47.910156 37.03125 46.875 37.03125 Z M 46.875 37.03125 "/>
<path fill-rule="nonzero" fill="rgb(52.156863%, 41.176471%, 23.921569%)" fill-opacity="1" d="M 45 22.03125 C 47.070312 22.03125 48.75 20.351562 48.75 18.28125 C 48.75 16.210938 47.070312 14.53125 45 14.53125 C 42.929688 14.53125 41.25 16.210938 41.25 18.28125 C 41.25 20.351562 42.929688 22.03125 45 22.03125 Z M 45 22.03125 "/>
<path fill-rule="nonzero" fill="rgb(67.45098%, 67.058824%, 69.411765%)" fill-opacity="1" d="M 45 29.53125 C 48.105469 29.53125 50.625 27.011719 50.625 23.90625 C 50.625 20.800781 48.105469 18.28125 45 18.28125 C 41.894531 18.28125 39.375 20.800781 39.375 23.90625 C 39.375 27.011719 41.894531 29.53125 45 29.53125 Z M 45 29.53125 "/>
<path fill-rule="nonzero" fill="rgb(20%, 54.117647%, 95.294118%)" fill-opacity="1" d="M 39.375 23.90625 L 39.375 32.929688 C 39.375 37.148438 45 38.554688 45 38.554688 C 45 38.554688 50.625 37.148438 50.625 32.929688 L 50.625 23.90625 Z M 39.375 23.90625 "/>
<path fill-rule="nonzero" fill="rgb(50.588235%, 50.196078%, 52.156863%)" fill-opacity="1" d="M 39.375 23.90625 C 39.375 22.871094 38.535156 22.03125 37.5 22.03125 C 36.464844 22.03125 35.625 22.871094 35.625 23.90625 L 35.625 35.15625 C 35.625 36.191406 36.464844 37.03125 37.5 37.03125 C 38.535156 37.03125 39.375 36.191406 39.375 35.15625 Z M 39.375 23.90625 "/>
<path fill-rule="nonzero" fill="rgb(50.588235%, 50.196078%, 52.156863%)" fill-opacity="1" d="M 54.375 23.90625 C 54.375 22.871094 53.535156 22.03125 52.5 22.03125 C 51.464844 22.03125 50.625 22.871094 50.625 23.90625 L 50.625 35.15625 C 50.625 36.191406 51.464844 37.03125 52.5 37.03125 C 53.535156 37.03125 54.375 36.191406 54.375 35.15625 Z M 54.375 23.90625 "/>
<path fill-rule="nonzero" fill="rgb(42.745098%, 64.705882%, 26.666667%)" fill-opacity="1" d="M 39.375 23.90625 L 45 37.03125 L 50.625 23.90625 Z M 39.375 23.90625 "/>
<path fill-rule="evenodd" fill="rgb(100%, 77.647059%, 20.784314%)" fill-opacity="1" d="M 34.765625 43.0625 C 35.203125 43.308594 35.652344 43.546875 36.101562 43.761719 L 36.167969 43.792969 L 36.015625 44.132812 L 35.867188 44.464844 L 36.199219 44.613281 C 37.582031 45.238281 39.039062 45.71875 40.523438 46.035156 C 41.992188 46.351562 43.5 46.511719 45.003906 46.511719 C 46.507812 46.511719 48.015625 46.351562 49.484375 46.035156 C 50.96875 45.71875 52.425781 45.238281 53.808594 44.613281 L 54.140625 44.464844 L 53.992188 44.132812 L 53.839844 43.792969 L 53.90625 43.761719 C 54.359375 43.546875 54.808594 43.308594 55.242188 43.0625 L 55.78125 42.753906 L 55.246094 42.4375 C 54.867188 42.210938 54.492188 41.96875 54.125 41.722656 C 54.113281 41.25 54.085938 40.773438 54.042969 40.308594 L 53.992188 39.742188 L 53.5 40.023438 C 53.058594 40.273438 52.601562 40.511719 52.140625 40.722656 L 51.414062 41.054688 L 51.621094 41.625 C 49.511719 42.472656 47.289062 42.902344 45.003906 42.902344 C 42.71875 42.902344 40.476562 42.46875 38.359375 41.613281 L 38.59375 41.054688 L 37.867188 40.722656 C 37.40625 40.511719 36.949219 40.273438 36.503906 40.023438 L 36.007812 39.738281 L 35.964844 40.308594 C 35.925781 40.777344 35.902344 41.253906 35.894531 41.730469 C 35.527344 41.976562 35.148438 42.210938 34.765625 42.433594 L 34.21875 42.75 Z M 34.765625 43.0625 "/>
</svg>
