<?xml version="1.0" encoding="UTF-8"?>
<svg xmlns="http://www.w3.org/2000/svg" xmlns:xlink="http://www.w3.org/1999/xlink" width="40" height="40" viewBox="0 0 40 40">
<path fill-rule="nonzero" fill="rgb(0%, 13.333333%, 40%)" fill-opacity="1" d="M 40 20 C 40 31.046875 31.046875 40 20 40 C 8.953125 40 0 31.046875 0 20 L 20 0 C 31.046875 0 40 8.953125 40 20 Z M 40 20 "/>
<path fill-rule="nonzero" fill="rgb(0%, 13.333333%, 40%)" fill-opacity="1" d="M 20 0 L 20 20 L 0 20 C 0 8.953125 8.953125 0 20 0 Z M 20 0 "/>
<path fill-rule="nonzero" fill="rgb(93.333333%, 93.333333%, 93.333333%)" fill-opacity="1" d="M 16.996094 20 L 20 20 L 20 16.996094 L 10.992188 7.988281 L 20 7.988281 L 20 0 C 8.953125 0 0 8.953125 0 20 L 7.988281 20 L 7.988281 10.992188 Z M 16.996094 20 "/>
<path fill-rule="nonzero" fill="rgb(84.705882%, 0%, 15.294118%)" fill-opacity="1" d="M 20 5.984375 L 20 1.984375 L 11.308594 1.984375 C 7.246094 3.945312 3.945312 7.246094 1.984375 11.308594 L 1.984375 20 L 5.984375 20 L 5.984375 5.984375 Z M 20 5.984375 "/>
<path fill-rule="nonzero" fill="rgb(84.705882%, 0%, 15.294118%)" fill-opacity="1" d="M 20 18 L 20 20 L 7.988281 7.988281 L 9.992188 7.988281 Z M 20 18 "/>
<path fill-rule="nonzero" fill="rgb(42.745098%, 64.705882%, 26.666667%)" fill-opacity="1" d="M 31.25 24.6875 L 28.75 24.6875 C 28.058594 24.6875 27.5 25.246094 27.5 25.9375 C 27.5 26.628906 28.058594 27.1875 28.75 27.1875 L 31.25 27.1875 C 31.941406 27.1875 32.5 26.628906 32.5 25.9375 C 32.5 25.246094 31.941406 24.6875 31.25 24.6875 Z M 31.25 24.6875 "/>
<path fill-rule="nonzero" fill="rgb(52.156863%, 41.176471%, 23.921569%)" fill-opacity="1" d="M 30 14.6875 C 31.378906 14.6875 32.5 13.566406 32.5 12.1875 C 32.5 10.808594 31.378906 9.6875 30 9.6875 C 28.621094 9.6875 27.5 10.808594 27.5 12.1875 C 27.5 13.566406 28.621094 14.6875 30 14.6875 Z M 30 14.6875 "/>
<path fill-rule="nonzero" fill="rgb(67.45098%, 67.058824%, 69.411765%)" fill-opacity="1" d="M 30 19.6875 C 32.070312 19.6875 33.75 18.007812 33.75 15.9375 C 33.75 13.867188 32.070312 12.1875 30 12.1875 C 27.929688 12.1875 26.25 13.867188 26.25 15.9375 C 26.25 18.007812 27.929688 19.6875 30 19.6875 Z M 30 19.6875 "/>
<path fill-rule="nonzero" fill="rgb(20%, 54.117647%, 95.294118%)" fill-opacity="1" d="M 26.25 15.9375 L 26.25 21.953125 C 26.25 24.765625 30 25.703125 30 25.703125 C 30 25.703125 33.75 24.765625 33.75 21.953125 L 33.75 15.9375 Z M 26.25 15.9375 "/>
<path fill-rule="nonzero" fill="rgb(50.588235%, 50.196078%, 52.156863%)" fill-opacity="1" d="M 26.25 15.9375 C 26.25 15.246094 25.691406 14.6875 25 14.6875 C 24.308594 14.6875 23.75 15.246094 23.75 15.9375 L 23.75 23.4375 C 23.75 24.128906 24.308594 24.6875 25 24.6875 C 25.691406 24.6875 26.25 24.128906 26.25 23.4375 Z M 26.25 15.9375 "/>
<path fill-rule="nonzero" fill="rgb(50.588235%, 50.196078%, 52.156863%)" fill-opacity="1" d="M 36.25 15.9375 C 36.25 15.246094 35.691406 14.6875 35 14.6875 C 34.308594 14.6875 33.75 15.246094 33.75 15.9375 L 33.75 23.4375 C 33.75 24.128906 34.308594 24.6875 35 24.6875 C 35.691406 24.6875 36.25 24.128906 36.25 23.4375 Z M 36.25 15.9375 "/>
<path fill-rule="nonzero" fill="rgb(42.745098%, 64.705882%, 26.666667%)" fill-opacity="1" d="M 26.25 15.9375 L 30 24.6875 L 33.75 15.9375 Z M 26.25 15.9375 "/>
<path fill-rule="evenodd" fill="rgb(100%, 77.647059%, 20.784314%)" fill-opacity="1" d="M 23.179688 28.707031 C 23.46875 28.875 23.765625 29.03125 24.066406 29.171875 L 24.113281 29.195312 L 24.011719 29.421875 L 23.910156 29.644531 L 24.132812 29.742188 C 25.054688 30.160156 26.023438 30.476562 27.015625 30.691406 C 27.996094 30.898438 29 31.007812 30.003906 31.007812 C 31.003906 31.007812 32.011719 30.898438 32.988281 30.691406 C 33.980469 30.476562 34.949219 30.160156 35.875 29.742188 L 36.09375 29.644531 L 35.996094 29.421875 L 35.890625 29.195312 L 35.9375 29.171875 C 36.238281 29.03125 36.539062 28.875 36.828125 28.707031 L 37.1875 28.503906 L 36.832031 28.289062 C 36.578125 28.140625 36.328125 27.980469 36.085938 27.816406 C 36.074219 27.5 36.054688 27.183594 36.027344 26.871094 L 35.996094 26.496094 L 35.667969 26.683594 C 35.375 26.851562 35.066406 27.007812 34.757812 27.148438 L 34.273438 27.371094 L 34.414062 27.75 C 33.007812 28.3125 31.527344 28.601562 30.003906 28.601562 C 28.476562 28.601562 26.984375 28.3125 25.570312 27.742188 L 25.730469 27.367188 L 25.246094 27.148438 C 24.9375 27.007812 24.632812 26.851562 24.335938 26.683594 L 24.003906 26.492188 L 23.976562 26.875 C 23.953125 27.183594 23.9375 27.503906 23.929688 27.820312 C 23.683594 27.984375 23.429688 28.140625 23.175781 28.289062 L 22.8125 28.5 L 23.179688 28.710938 Z M 23.179688 28.707031 "/>
</svg>
