<?xml version="1.0" encoding="UTF-8"?>
<svg xmlns="http://www.w3.org/2000/svg" xmlns:xlink="http://www.w3.org/1999/xlink" width="20" height="20" viewBox="0 0 20 20">
<path fill-rule="nonzero" fill="rgb(100%, 85.490196%, 26.666667%)" fill-opacity="1" d="M 5.3125 18.835938 C 6.710938 19.578125 8.304688 20 10 20 C 11.695312 20 13.289062 19.578125 14.6875 18.835938 L 14.6875 1.164062 C 13.289062 0.421875 11.695312 0 10 0 C 8.304688 0 6.710938 0.421875 5.3125 1.164062 Z M 5.3125 18.835938 "/>
<path fill-rule="nonzero" fill="rgb(84.705882%, 0%, 15.294118%)" fill-opacity="1" d="M 6.5625 19.394531 C 2.734375 17.992188 0 14.316406 0 10 C 0 5.683594 2.734375 2.007812 6.5625 0.605469 Z M 6.5625 19.394531 "/>
<path fill-rule="nonzero" fill="rgb(42.745098%, 64.705882%, 26.666667%)" fill-opacity="1" d="M 13.4375 19.394531 L 13.4375 0.605469 C 17.265625 2.007812 20 5.683594 20 10 C 20 14.316406 17.265625 17.992188 13.4375 19.394531 Z M 13.4375 19.394531 "/>
</svg>
