<svg width="124" height="18" viewBox="0 0 124 18" fill="none" xmlns="http://www.w3.org/2000/svg">
<g id="WordmarkLogo">
<g id="WordmarkLogo_2">
<path fill-rule="evenodd" clip-rule="evenodd" d="M13.3333 15.2903L8.00001 9.41935L2.66667 15.2903V4H0V18H2.45111C3.15822 18 3.83645 17.7146 4.33645 17.2065L8.00001 13.0323L11.6636 17.2065C12.1636 17.7146 12.8418 18 13.5489 18H16V4H13.3333V15.2903Z" fill="white"/>
<path fill-rule="evenodd" clip-rule="evenodd" d="M19 18H22V4H19V18Z" fill="white"/>
<path fill-rule="evenodd" clip-rule="evenodd" d="M19 3H22V0H19V3Z" fill="white"/>
<path fill-rule="evenodd" clip-rule="evenodd" d="M90 18H93V4H90V18Z" fill="white"/>
<path fill-rule="evenodd" clip-rule="evenodd" d="M90 3H93V0H90V3Z" fill="white"/>
<path fill-rule="evenodd" clip-rule="evenodd" d="M31.0001 4C29.8094 4 28.7026 4.34368 27.7694 4.92897V4H25.0001V18H27.7694V9.87097C27.7694 8.12503 29.2158 6.70968 31.0001 6.70968C32.7844 6.70968 34.2309 8.12503 34.2309 9.87097V18H37.0001V9.87097C37.0001 6.62839 34.314 4 31.0001 4Z" fill="white"/>
<path fill-rule="evenodd" clip-rule="evenodd" d="M66.7211 11C66.7211 8.63039 68.6502 6.70968 71.0295 6.70968C72.1536 6.70968 73.174 7.14187 73.9413 7.84413L75.9303 5.9871C74.6639 4.75916 72.9369 4 71.0295 4C67.1472 4 64.0001 7.13419 64.0001 11C64.0001 14.8658 67.1472 18 71.0295 18C72.9704 18 74.728 17.2165 76.0001 15.9497L74.0761 14.0339C73.2961 14.8103 72.2191 15.2903 71.0295 15.2903C68.6502 15.2903 66.7211 13.3696 66.7211 11Z" fill="white"/>
<path fill-rule="evenodd" clip-rule="evenodd" d="M80.6468 4.92897V4H77.9999V18H80.6468V9.87097C80.6468 8.12503 82.0294 6.70968 83.7349 6.70968C84.7001 6.70968 85.5613 7.16355 86.1273 7.87348L87.9999 5.95594C86.95 4.75826 85.4307 4 83.7349 4C82.5967 4 81.5389 4.34368 80.6468 4.92897Z" fill="white"/>
<path fill-rule="evenodd" clip-rule="evenodd" d="M119.025 7.28812L113.34 13.1076C112.358 11.4647 112.525 9.34342 113.885 7.95154C115.244 6.55967 117.36 6.34334 119.025 7.28812ZM121.285 11.0207C121.316 12.119 120.936 13.2147 120.121 14.0483C118.877 15.3228 116.998 15.6118 115.412 14.9276L122.836 7.32831C122.547 6.88393 122.21 6.46122 121.815 6.07463C119.004 3.32746 114.572 3.30578 111.915 6.02631C109.257 8.74639 109.381 13.1785 112.191 15.9257C115.001 18.6724 119.433 18.6941 122.091 15.974C123.42 14.6133 124.05 12.8254 123.997 11.0343L121.285 11.0207Z" fill="white"/>
<path fill-rule="evenodd" clip-rule="evenodd" d="M57.8295 6.58684C57.8403 6.58458 57.8537 6.58232 57.8649 6.57961C59.4115 6.26664 61.1137 7.84458 61.1137 7.84458L63.0001 5.98755C61.7994 4.75961 60.1611 4 58.3521 4C57.2221 4 56.0791 4.31568 55.2302 4.93303C55.1775 4.96961 55.1269 5.0089 55.076 5.04819C55.0603 5.06084 55.0447 5.07394 55.0295 5.08658C54.7961 5.27129 54.5785 5.47406 54.3916 5.70574C52.9652 7.47426 53.5857 9.91974 55.7773 11.168C55.848 11.2082 55.9079 11.2421 55.9865 11.2868L58.7017 12.8331C59.5094 13.2928 59.7378 14.1938 59.2126 14.8455C59.1442 14.9299 59.0637 15.0157 58.9743 15.0993C57.3553 16.385 54.8864 14.1559 54.8864 14.1559L53.0001 16.0129C54.2012 17.2408 55.839 18 57.6481 18C59.2783 18 60.7883 17.4237 61.6255 16.3765C61.6559 16.3412 61.6895 16.3092 61.719 16.2726C63.1454 14.5041 62.5249 12.0586 60.3332 10.8103C60.2626 10.7701 60.209 10.7399 60.124 10.6915L57.6177 9.26445L57.4089 9.14523C56.6012 8.68548 56.3727 7.78452 56.898 7.13284C56.9601 7.05606 57.0191 6.99194 57.0804 6.93458C57.32 6.75484 57.5721 6.64419 57.8295 6.58684Z" fill="white"/>
<path fill-rule="evenodd" clip-rule="evenodd" d="M50.9999 0H47.9999V4H46C42.134 4.00004 39 7.13403 39 11C39 14.866 42.1339 18 45.9999 18H50.9999V0ZM47.9999 7V15L46 15C43.7909 14.9999 42 13.2091 42 11C42 8.79091 43.7908 7.00008 45.9999 7H47.9999Z" fill="white"/>
<path fill-rule="evenodd" clip-rule="evenodd" d="M96.0002 0H99.0002V4H101C104.866 4.00004 108 7.13403 108 11C108 14.866 104.866 18 101 18H96.0002V0ZM99.0002 7V15L101 15C103.209 14.9999 105 13.2091 105 11C105 8.79091 103.209 7.00008 101 7H99.0002Z" fill="white"/>
</g>
</g>
</svg>
