<?xml version="1.0" encoding="UTF-8"?>
<svg xmlns="http://www.w3.org/2000/svg" xmlns:xlink="http://www.w3.org/1999/xlink" width="1242px" height="621px" viewBox="0 0 1242 621" version="1.1">
<g id="surface1">
<rect x="0" y="0" width="1242" height="621" style="fill:rgb(100%,100%,100%);fill-opacity:1;stroke:none;"/>
<path style=" stroke:none;fill-rule:nonzero;fill:rgb(0%,21.960784%,65.882355%);fill-opacity:1;" d="M 512.59375 63.46875 L 1263.414062 63.46875 L 1263.414062 134.125 L 512.59375 134.125 Z M 512.59375 204.648438 L 1263.414062 204.648438 L 1263.414062 275.171875 L 512.59375 275.171875 Z M -21.414062 345.828125 L 1263.414062 345.828125 L 1263.414062 416.351562 L -21.414062 416.351562 Z M -21.414062 486.875 L 1263.414062 486.875 L 1263.414062 557.535156 L -21.414062 557.535156 Z M -21.414062 486.875 "/>
<path style=" stroke:none;fill-rule:nonzero;fill:rgb(98.823529%,81.960785%,8.627451%);fill-opacity:1;" d="M 248.976562 155.984375 L 260.757812 173.425781 C 212.355469 208.15625 241.90625 228.695312 207.601562 239.8125 C 228.9375 219.167969 204.242188 217.429688 222.21875 174.398438 "/>
<path style=" stroke:none;fill-rule:evenodd;fill:rgb(0%,0%,0%);fill-opacity:1;" d="M 249.289062 154.367188 L 262.351562 173.707031 L 261.433594 174.367188 C 249.425781 182.984375 242.304688 190.679688 237.828125 197.519531 C 233.355469 204.355469 231.476562 210.386719 230.015625 215.777344 C 229.851562 216.375 229.691406 216.972656 229.535156 217.558594 C 228.296875 222.214844 227.148438 226.535156 224.527344 230.296875 C 221.523438 234.605469 216.683594 238.09375 207.957031 240.921875 L 203.160156 242.476562 L 206.769531 238.980469 C 212.027344 233.894531 214.316406 230.09375 215.210938 226.644531 C 216.105469 223.171875 215.632812 219.910156 214.996094 215.671875 L 214.996094 215.65625 C 214.363281 211.449219 213.613281 206.445312 214.167969 199.773438 C 214.726562 193.097656 216.589844 184.804688 221.121094 173.953125 L 221.570312 172.878906 L 223.742188 173.769531 L 223.292969 174.84375 C 218.835938 185.511719 217.042969 193.570312 216.511719 199.964844 C 215.976562 206.359375 216.691406 211.144531 217.320312 215.328125 L 217.335938 215.441406 C 217.953125 219.554688 218.507812 223.257812 217.484375 227.222656 C 216.699219 230.257812 215.019531 233.367188 211.921875 236.957031 C 217.355469 234.621094 220.515625 231.957031 222.59375 228.972656 C 224.96875 225.566406 226.007812 221.667969 227.269531 216.953125 C 227.421875 216.371094 227.582031 215.777344 227.746094 215.171875 C 229.234375 209.695312 231.1875 203.386719 235.859375 196.253906 C 240.40625 189.304688 247.496094 181.628906 259.140625 173.140625 L 247.335938 155.664062 Z M 249.289062 154.367188 "/>
<path style=" stroke:none;fill-rule:evenodd;fill:rgb(0%,0%,0%);fill-opacity:1;" d="M 221.9375 211.464844 C 223.847656 198.679688 226.367188 181.851562 239.542969 160.320312 L 241.550781 161.53125 C 228.621094 182.660156 226.160156 199.109375 224.257812 211.820312 C 224.214844 212.113281 224.167969 212.402344 224.125 212.691406 C 223.167969 219.085938 222.277344 224.679688 220.074219 229.371094 C 217.835938 234.144531 214.269531 237.941406 208.097656 240.863281 L 207.085938 238.761719 C 212.792969 236.0625 215.949219 232.644531 217.945312 228.390625 C 219.976562 224.058594 220.832031 218.816406 221.804688 212.347656 C 221.847656 212.054688 221.890625 211.761719 221.9375 211.464844 Z M 221.9375 211.464844 "/>
<path style=" stroke:none;fill-rule:nonzero;fill:rgb(98.823529%,81.960785%,8.627451%);fill-opacity:1;" d="M 257.023438 121.484375 L 280.511719 121.484375 L 257.023438 249.5625 L 233.539062 121.484375 L 257.023438 121.484375 L 257.023438 249.5625 Z M 257.023438 121.484375 "/>
<path style=" stroke:none;fill-rule:evenodd;fill:rgb(0%,0%,0%);fill-opacity:1;" d="M 232.136719 120.316406 L 281.921875 120.316406 L 257.027344 256.074219 Z M 234.949219 122.648438 L 255.855469 236.648438 L 255.855469 122.648438 Z M 258.203125 122.648438 L 258.203125 236.648438 L 279.109375 122.648438 Z M 258.203125 122.648438 "/>
<path style=" stroke:none;fill-rule:nonzero;fill:rgb(98.823529%,81.960785%,8.627451%);fill-opacity:1;" d="M 257.019531 164.179688 C 280.796875 164.179688 300.074219 145.0625 300.074219 121.484375 C 300.074219 97.90625 280.796875 78.789062 257.019531 78.789062 C 233.238281 78.789062 213.960938 97.90625 213.960938 121.484375 C 213.960938 145.0625 233.238281 164.179688 257.019531 164.179688 Z M 257.019531 164.179688 "/>
<path style=" stroke:none;fill-rule:evenodd;fill:rgb(0%,0%,0%);fill-opacity:1;" d="M 257.019531 79.953125 C 233.886719 79.953125 215.136719 98.546875 215.136719 121.484375 C 215.136719 144.417969 233.886719 163.011719 257.019531 163.011719 C 280.148438 163.011719 298.902344 144.417969 298.902344 121.484375 C 298.902344 98.546875 280.148438 79.953125 257.019531 79.953125 Z M 212.785156 121.484375 C 212.785156 97.261719 232.589844 77.625 257.019531 77.625 C 281.445312 77.625 301.25 97.261719 301.25 121.484375 C 301.25 145.707031 281.445312 165.339844 257.019531 165.339844 C 232.589844 165.339844 212.785156 145.707031 212.785156 121.484375 Z M 212.785156 121.484375 "/>
<path style=" stroke:none;fill-rule:nonzero;fill:rgb(0%,0%,0%);fill-opacity:1;" d="M 288.707031 104.40625 C 285.964844 107.511719 284.402344 102.078125 274.613281 102.078125 C 264.828125 102.078125 263.261719 107.898438 261.699219 106.734375 C 260.132812 105.570312 269.917969 98.585938 273.050781 98.195312 C 276.179688 97.808594 285.183594 100.914062 288.707031 104.40625 Z M 277.355469 107.898438 C 280.09375 110.226562 277.746094 115.273438 275.007812 115.273438 C 272.265625 115.273438 267.179688 110.617188 269.527344 107.511719 "/>
<path style=" stroke:none;fill-rule:nonzero;fill:rgb(0%,0%,0%);fill-opacity:1;" d="M 264.449219 111.390625 C 264.839844 106.734375 268.753906 105.957031 275.015625 105.957031 C 281.28125 105.957031 284.019531 110.613281 286.367188 111.777344 C 283.628906 111.777344 281.28125 107.898438 275.015625 107.898438 C 268.753906 107.898438 268.753906 107.898438 264.449219 111.777344 M 265.621094 112.554688 C 267.1875 110.226562 269.144531 114.882812 273.449219 114.882812 C 277.757812 114.882812 280.105469 113.71875 282.84375 111.777344 C 285.585938 109.839844 278.929688 116.4375 274.625 116.4375 C 270.320312 116.4375 264.449219 114.109375 265.621094 112.554688 Z M 265.621094 112.554688 "/>
<path style=" stroke:none;fill-rule:nonzero;fill:rgb(0%,0%,0%);fill-opacity:1;" d="M 278.925781 114.886719 C 284.015625 112.167969 280.882812 108.289062 278.925781 107.511719 C 279.707031 108.289062 282.839844 112.167969 278.925781 114.886719 Z M 257.003906 138.171875 C 259.355469 138.171875 260.136719 137.398438 263.269531 137.398438 C 266.398438 137.398438 273.835938 141.664062 278.140625 140.113281 C 269.140625 143.605469 272.664062 141.277344 257.003906 141.277344 L 255.046875 141.277344 M 279.707031 143.605469 C 278.140625 140.890625 278.535156 141.664062 275.402344 137.398438 C 278.535156 139.726562 279.316406 140.890625 279.707031 143.605469 Z M 257.003906 147.488281 C 266.789062 147.488281 265.226562 145.546875 278.140625 140.113281 C 268.75 141.277344 266.789062 144.382812 257.003906 144.382812 L 255.046875 144.382812 M 257.003906 133.128906 C 259.746094 133.128906 260.527344 131.1875 263.660156 131.1875 C 266.789062 131.1875 271.097656 132.351562 273.054688 133.902344 C 273.445312 134.292969 271.878906 130.796875 268.75 130.410156 C 265.617188 130.023438 266.789062 124.976562 263.269531 124.199219 C 263.269531 125.753906 264.441406 125.363281 264.835938 127.695312 C 264.835938 129.632812 261.3125 129.632812 260.527344 127.695312 C 261.3125 130.796875 258.960938 130.796875 257.003906 130.796875 "/>
<path style=" stroke:none;fill-rule:nonzero;fill:rgb(0%,0%,0%);fill-opacity:1;" d="M 257.011719 150.980469 C 255.054688 150.980469 249.96875 152.144531 257.011719 152.144531 C 264.058594 152.144531 258.96875 150.980469 257.011719 150.980469 Z M 257.011719 150.980469 "/>
</g>
</svg>
