<?xml version="1.0" encoding="UTF-8"?>
<svg xmlns="http://www.w3.org/2000/svg" xmlns:xlink="http://www.w3.org/1999/xlink" width="340px" height="340px" viewBox="0 0 340 340" version="1.1">
<g id="surface1">
<path style=" stroke:none;fill-rule:nonzero;fill:rgb(100%,100%,100%);fill-opacity:1;" d="M 195.5 71.398438 C 245.234375 84.242188 277.660156 132.058594 271.1875 183.011719 C 264.714844 233.96875 221.363281 272.160156 170 272.160156 C 118.636719 272.160156 75.285156 233.96875 68.8125 183.011719 C 62.339844 132.058594 94.765625 84.242188 144.5 71.398438 L 144.5 88.824219 C 104.46875 101.414062 79.617188 141.332031 85.984375 182.808594 C 92.351562 224.285156 128.035156 254.910156 170 254.910156 C 211.964844 254.910156 247.648438 224.285156 254.015625 182.808594 C 260.382812 141.332031 235.53125 101.414062 195.5 88.824219 Z M 178.5 42.5 L 178.5 165.75 C 178.5 170.445312 174.695312 174.25 170 174.25 C 165.304688 174.25 161.5 170.445312 161.5 165.75 L 161.5 42.5 C 161.5 37.804688 165.304688 34 170 34 C 174.695312 34 178.5 37.804688 178.5 42.5 Z M 170 340 C 263.886719 340 340 263.886719 340 170 C 340 76.113281 263.886719 0 170 0 C 76.113281 0 0 76.113281 0 170 C 0 263.886719 76.113281 340 170 340 Z M 170 340 "/>
</g>
</svg>
