<?xml version="1.0" encoding="UTF-8"?>
<svg xmlns="http://www.w3.org/2000/svg" xmlns:xlink="http://www.w3.org/1999/xlink" width="60" height="60" viewBox="0 0 60 60">
<path fill-rule="nonzero" fill="rgb(84.705882%, 0%, 15.294118%)" fill-opacity="1" d="M 30 60 C 46.566406 60 60 46.566406 60 30 C 60 13.433594 46.566406 0 30 0 C 13.433594 0 0 13.433594 0 30 C 0 46.566406 13.433594 60 30 60 Z M 30 60 "/>
<path fill-rule="nonzero" fill="rgb(93.333333%, 93.333333%, 93.333333%)" fill-opacity="1" d="M 59.054688 37.5 C 59.671875 35.101562 60 32.589844 60 30 C 60 27.410156 59.671875 24.898438 59.054688 22.5 L 26.25 22.5 L 26.25 0.230469 C 20.617188 0.933594 15.464844 3.199219 11.25 6.578125 L 11.25 22.5 L 0.945312 22.5 C 0.328125 24.898438 0 27.410156 0 30 C 0 32.589844 0.328125 35.101562 0.945312 37.5 L 11.25 37.5 L 11.25 53.417969 C 15.464844 56.800781 20.617188 59.066406 26.25 59.765625 L 26.25 37.5 Z M 59.054688 37.5 "/>
<path fill-rule="nonzero" fill="rgb(0%, 32.156863%, 70.588235%)" fill-opacity="1" d="M 59.769531 33.75 C 59.921875 32.523438 60 31.269531 60 30 C 60 28.730469 59.921875 27.476562 59.769531 26.25 L 22.5 26.25 L 22.5 0.945312 C 19.839844 1.628906 17.320312 2.671875 15 4.015625 L 15 26.25 L 0.230469 26.25 C 0.078125 27.480469 0 28.730469 0 30 C 0 31.269531 0.078125 32.523438 0.230469 33.75 L 15 33.75 L 15 55.988281 C 17.320312 57.328125 19.839844 58.371094 22.5 59.054688 L 22.5 33.75 Z M 59.769531 33.75 "/>
</svg>
