<?xml version="1.0" encoding="UTF-8"?>
<svg xmlns="http://www.w3.org/2000/svg" xmlns:xlink="http://www.w3.org/1999/xlink" width="40" height="40" viewBox="0 0 40 40">
<path fill-rule="nonzero" fill="rgb(0%, 32.156863%, 70.588235%)" fill-opacity="1" d="M 40 20 C 40 31.046875 31.046875 40 20 40 C 8.953125 40 0 31.046875 0 20 C 0 8.953125 8.953125 0 20 0 C 31.046875 0 40 8.953125 40 20 Z M 40 20 "/>
<path fill-rule="evenodd" fill="rgb(63.529412%, 0%, 11.372549%)" fill-opacity="1" d="M 31.160156 3.476562 C 27.972656 1.332031 24.132812 0.078125 20 0.078125 C 15.867188 0.078125 12.027344 1.332031 8.839844 3.476562 Z M 18.21875 40 C 14.671875 39.6875 11.386719 38.445312 8.613281 36.523438 L 31.386719 36.523438 C 28.613281 38.445312 25.332031 39.6875 21.78125 40 Z M 18.21875 40 "/>
<path fill-rule="nonzero" fill="rgb(93.333333%, 93.333333%, 93.333333%)" fill-opacity="1" d="M 20 29.566406 C 25.28125 29.566406 29.566406 25.28125 29.566406 20 C 29.566406 14.71875 25.28125 10.433594 20 10.433594 C 14.71875 10.433594 10.433594 14.71875 10.433594 20 C 10.433594 25.28125 14.71875 29.566406 20 29.566406 Z M 20 29.566406 "/>
<path fill-rule="nonzero" fill="rgb(42.745098%, 64.705882%, 26.666667%)" fill-opacity="1" d="M 20 27.824219 C 24.320312 27.824219 27.824219 24.320312 27.824219 20 C 27.824219 15.679688 24.320312 12.175781 20 12.175781 C 15.679688 12.175781 12.175781 15.679688 12.175781 20 C 12.175781 24.320312 15.679688 27.824219 20 27.824219 Z M 20 27.824219 "/>
<path fill-rule="nonzero" fill="rgb(93.333333%, 93.333333%, 93.333333%)" fill-opacity="1" d="M 20 25.21875 C 22.882812 25.21875 25.21875 22.882812 25.21875 20 C 25.21875 17.117188 22.882812 14.78125 20 14.78125 C 17.117188 14.78125 14.78125 17.117188 14.78125 20 C 14.78125 22.882812 17.117188 25.21875 20 25.21875 Z M 20 25.21875 "/>
<path fill-rule="nonzero" fill="rgb(0%, 32.156863%, 70.588235%)" fill-opacity="1" d="M 20 18.695312 L 17.175781 20 L 17.175781 22.175781 L 20 23.914062 L 22.824219 22.175781 L 22.824219 20 Z M 20 18.695312 "/>
<path fill-rule="nonzero" fill="rgb(100%, 77.647059%, 20.784314%)" fill-opacity="1" d="M 17.175781 17.390625 L 22.828125 17.390625 L 22.828125 20 L 17.175781 20 Z M 17.175781 17.390625 "/>
</svg>
