<?xml version="1.0" encoding="UTF-8"?>
<svg xmlns="http://www.w3.org/2000/svg" xmlns:xlink="http://www.w3.org/1999/xlink" width="20" height="20" viewBox="0 0 20 20">
<path fill-rule="nonzero" fill="rgb(0%, 32.156863%, 70.588235%)" fill-opacity="1" d="M 20 10 C 20 15.523438 15.523438 20 10 20 C 4.476562 20 0 15.523438 0 10 C 0 4.476562 4.476562 0 10 0 C 15.523438 0 20 4.476562 20 10 Z M 20 10 "/>
<path fill-rule="evenodd" fill="rgb(63.529412%, 0%, 11.372549%)" fill-opacity="1" d="M 15.578125 1.738281 C 13.984375 0.664062 12.066406 0.0390625 10 0.0390625 C 7.933594 0.0390625 6.015625 0.664062 4.421875 1.738281 Z M 9.109375 20 C 7.335938 19.84375 5.691406 19.222656 4.304688 18.261719 L 15.695312 18.261719 C 14.308594 19.222656 12.664062 19.84375 10.890625 20 Z M 9.109375 20 "/>
<path fill-rule="nonzero" fill="rgb(93.333333%, 93.333333%, 93.333333%)" fill-opacity="1" d="M 10 14.78125 C 12.640625 14.78125 14.78125 12.640625 14.78125 10 C 14.78125 7.359375 12.640625 5.21875 10 5.21875 C 7.359375 5.21875 5.21875 7.359375 5.21875 10 C 5.21875 12.640625 7.359375 14.78125 10 14.78125 Z M 10 14.78125 "/>
<path fill-rule="nonzero" fill="rgb(42.745098%, 64.705882%, 26.666667%)" fill-opacity="1" d="M 10 13.914062 C 12.160156 13.914062 13.914062 12.160156 13.914062 10 C 13.914062 7.839844 12.160156 6.085938 10 6.085938 C 7.839844 6.085938 6.085938 7.839844 6.085938 10 C 6.085938 12.160156 7.839844 13.914062 10 13.914062 Z M 10 13.914062 "/>
<path fill-rule="nonzero" fill="rgb(93.333333%, 93.333333%, 93.333333%)" fill-opacity="1" d="M 10 12.609375 C 11.441406 12.609375 12.609375 11.441406 12.609375 10 C 12.609375 8.558594 11.441406 7.390625 10 7.390625 C 8.558594 7.390625 7.390625 8.558594 7.390625 10 C 7.390625 11.441406 8.558594 12.609375 10 12.609375 Z M 10 12.609375 "/>
<path fill-rule="nonzero" fill="rgb(0%, 32.156863%, 70.588235%)" fill-opacity="1" d="M 10 9.347656 L 8.585938 10 L 8.585938 11.085938 L 10 11.957031 L 11.414062 11.085938 L 11.414062 10 Z M 10 9.347656 "/>
<path fill-rule="nonzero" fill="rgb(100%, 77.647059%, 20.784314%)" fill-opacity="1" d="M 8.585938 8.695312 L 11.414062 8.695312 L 11.414062 10 L 8.585938 10 Z M 8.585938 8.695312 "/>
</svg>
