<?xml version="1.0" encoding="UTF-8"?>
<svg xmlns="http://www.w3.org/2000/svg" xmlns:xlink="http://www.w3.org/1999/xlink" width="60" height="60" viewBox="0 0 60 60">
<path fill-rule="nonzero" fill="rgb(0%, 32.156863%, 70.588235%)" fill-opacity="1" d="M 60 30 C 60 46.570312 46.570312 60 30 60 C 13.429688 60 0 46.570312 0 30 C 0 13.429688 13.429688 0 30 0 C 46.570312 0 60 13.429688 60 30 Z M 60 30 "/>
<path fill-rule="evenodd" fill="rgb(63.529412%, 0%, 11.372549%)" fill-opacity="1" d="M 46.738281 5.21875 C 41.957031 1.996094 36.199219 0.117188 30 0.117188 C 23.800781 0.117188 18.042969 1.996094 13.261719 5.21875 Z M 27.332031 60 C 22.003906 59.53125 17.078125 57.667969 12.917969 54.78125 L 47.082031 54.78125 C 42.921875 57.667969 37.996094 59.53125 32.671875 60 Z M 27.332031 60 "/>
<path fill-rule="nonzero" fill="rgb(93.333333%, 93.333333%, 93.333333%)" fill-opacity="1" d="M 30 44.347656 C 37.925781 44.347656 44.347656 37.925781 44.347656 30 C 44.347656 22.074219 37.925781 15.652344 30 15.652344 C 22.074219 15.652344 15.652344 22.074219 15.652344 30 C 15.652344 37.925781 22.074219 44.347656 30 44.347656 Z M 30 44.347656 "/>
<path fill-rule="nonzero" fill="rgb(42.745098%, 64.705882%, 26.666667%)" fill-opacity="1" d="M 30 41.738281 C 36.484375 41.738281 41.738281 36.484375 41.738281 30 C 41.738281 23.515625 36.484375 18.261719 30 18.261719 C 23.515625 18.261719 18.261719 23.515625 18.261719 30 C 18.261719 36.484375 23.515625 41.738281 30 41.738281 Z M 30 41.738281 "/>
<path fill-rule="nonzero" fill="rgb(93.333333%, 93.333333%, 93.333333%)" fill-opacity="1" d="M 30 37.824219 C 34.320312 37.824219 37.824219 34.320312 37.824219 30 C 37.824219 25.675781 34.320312 22.171875 30 22.171875 C 25.679688 22.171875 22.175781 25.675781 22.175781 30 C 22.175781 34.320312 25.679688 37.824219 30 37.824219 Z M 30 37.824219 "/>
<path fill-rule="nonzero" fill="rgb(0%, 32.156863%, 70.588235%)" fill-opacity="1" d="M 30 28.042969 L 25.761719 30 L 25.761719 33.261719 L 30 35.871094 L 34.238281 33.261719 L 34.238281 30 Z M 30 28.042969 "/>
<path fill-rule="nonzero" fill="rgb(100%, 77.647059%, 20.784314%)" fill-opacity="1" d="M 25.761719 26.085938 L 34.238281 26.085938 L 34.238281 30 L 25.761719 30 Z M 25.761719 26.085938 "/>
</svg>
