<?xml version="1.0" encoding="UTF-8"?>
<svg xmlns="http://www.w3.org/2000/svg" xmlns:xlink="http://www.w3.org/1999/xlink" width="1242px" height="621px" viewBox="0 0 1242 621" version="1.1">
<g id="surface1">
<rect x="0" y="0" width="1242" height="621" style="fill:rgb(80.784315%,6.666667%,14.901961%);fill-opacity:1;stroke:none;"/>
<path style=" stroke:none;fill-rule:evenodd;fill:rgb(0%,15.686275%,40.784314%);fill-opacity:1;" d="M -101.710938 150.796875 L 1343.71875 150.796875 L 1343.71875 470.207031 L -101.710938 470.207031 Z M -101.710938 150.796875 "/>
<path style=" stroke:none;fill-rule:evenodd;fill:rgb(100%,100%,100%);fill-opacity:1;" d="M 741.710938 292.0625 C 741.710938 328.347656 727.171875 363.148438 701.296875 388.808594 C 675.417969 414.464844 640.324219 428.878906 603.726562 428.878906 C 567.136719 428.878906 532.039062 414.464844 506.160156 388.808594 C 480.285156 363.148438 465.75 328.347656 465.75 292.0625 C 465.75 255.777344 480.285156 220.980469 506.160156 195.320312 C 532.039062 169.664062 567.136719 155.25 603.726562 155.25 C 640.324219 155.25 675.417969 169.664062 701.296875 195.320312 C 727.171875 220.980469 741.710938 255.777344 741.710938 292.0625 Z M 741.710938 292.0625 "/>
</g>
</svg>
