<?xml version="1.0" encoding="UTF-8"?>
<svg xmlns="http://www.w3.org/2000/svg" xmlns:xlink="http://www.w3.org/1999/xlink" width="60" height="60" viewBox="0 0 60 60">
<path fill-rule="nonzero" fill="rgb(63.529412%, 0%, 11.372549%)" fill-opacity="1" d="M 60 30 C 60 46.570312 46.570312 60 30 60 C 13.429688 60 0 46.570312 0 30 C 0 13.429688 13.429688 0 30 0 C 46.570312 0 60 13.429688 60 30 Z M 60 30 "/>
<path fill-rule="nonzero" fill="rgb(95.294118%, 95.294118%, 95.294118%)" fill-opacity="1" d="M 42 36 L 18 36 L 30 60 Z M 42 36 "/>
<path fill-rule="nonzero" fill="rgb(0%, 32.156863%, 70.588235%)" fill-opacity="1" d="M 18 36 L 12 24 L 48 24 L 42 36 Z M 18 36 "/>
<path fill-rule="nonzero" fill="rgb(20%, 20%, 20%)" fill-opacity="1" d="M 6 11.996094 C 11.472656 4.710938 20.1875 0 30 0 C 39.816406 0 48.527344 4.710938 54 11.996094 L 48 24 L 12 24 Z M 6 11.996094 "/>
<path fill-rule="nonzero" fill="rgb(100%, 85.490196%, 26.666667%)" fill-opacity="1" d="M 43.042969 24 L 16.957031 24 L 22.285156 21.492188 L 19.449219 16.332031 L 25.234375 17.4375 L 25.96875 11.59375 L 30 15.890625 L 34.03125 11.59375 L 34.765625 17.4375 L 40.550781 16.332031 L 37.714844 21.492188 Z M 43.042969 24 "/>
</svg>
