<?xml version="1.0" encoding="UTF-8"?>
<svg xmlns="http://www.w3.org/2000/svg" xmlns:xlink="http://www.w3.org/1999/xlink" width="20" height="20" viewBox="0 0 20 20">
<path fill-rule="nonzero" fill="rgb(63.529412%, 0%, 11.372549%)" fill-opacity="1" d="M 20 10 C 20 15.523438 15.523438 20 10 20 C 4.476562 20 0 15.523438 0 10 C 0 4.476562 4.476562 0 10 0 C 15.523438 0 20 4.476562 20 10 Z M 20 10 "/>
<path fill-rule="nonzero" fill="rgb(95.294118%, 95.294118%, 95.294118%)" fill-opacity="1" d="M 14 12 L 6 12 L 10 20 Z M 14 12 "/>
<path fill-rule="nonzero" fill="rgb(0%, 32.156863%, 70.588235%)" fill-opacity="1" d="M 6 12 L 4 8 L 16 8 L 14 12 Z M 6 12 "/>
<path fill-rule="nonzero" fill="rgb(20%, 20%, 20%)" fill-opacity="1" d="M 2 4 C 3.824219 1.570312 6.730469 0 10 0 C 13.273438 0 16.175781 1.570312 18 4 L 16 8 L 4 8 Z M 2 4 "/>
<path fill-rule="nonzero" fill="rgb(100%, 85.490196%, 26.666667%)" fill-opacity="1" d="M 14.347656 8 L 5.652344 8 L 7.429688 7.164062 L 6.484375 5.445312 L 8.410156 5.8125 L 8.65625 3.863281 L 10 5.296875 L 11.34375 3.863281 L 11.585938 5.8125 L 13.515625 5.445312 L 12.570312 7.164062 Z M 14.347656 8 "/>
</svg>
