<?xml version="1.0" encoding="UTF-8"?>
<svg xmlns="http://www.w3.org/2000/svg" xmlns:xlink="http://www.w3.org/1999/xlink" width="40" height="40" viewBox="0 0 40 40">
<path fill-rule="nonzero" fill="rgb(63.529412%, 0%, 11.372549%)" fill-opacity="1" d="M 40 20 C 40 31.046875 31.046875 40 20 40 C 8.953125 40 0 31.046875 0 20 C 0 8.953125 8.953125 0 20 0 C 31.046875 0 40 8.953125 40 20 Z M 40 20 "/>
<path fill-rule="nonzero" fill="rgb(95.294118%, 95.294118%, 95.294118%)" fill-opacity="1" d="M 28 24 L 12 24 L 20 40 Z M 28 24 "/>
<path fill-rule="nonzero" fill="rgb(0%, 32.156863%, 70.588235%)" fill-opacity="1" d="M 12 24 L 8 16 L 32 16 L 28 24 Z M 12 24 "/>
<path fill-rule="nonzero" fill="rgb(20%, 20%, 20%)" fill-opacity="1" d="M 4 8 C 7.648438 3.140625 13.457031 0 20 0 C 26.542969 0 32.351562 3.140625 36 8 L 32 16 L 8 16 Z M 4 8 "/>
<path fill-rule="nonzero" fill="rgb(100%, 85.490196%, 26.666667%)" fill-opacity="1" d="M 28.695312 16 L 11.304688 16 L 14.855469 14.328125 L 12.964844 10.886719 L 16.824219 11.625 L 17.3125 7.726562 L 20 10.59375 L 22.6875 7.726562 L 23.175781 11.625 L 27.035156 10.886719 L 25.140625 14.328125 Z M 28.695312 16 "/>
</svg>
