<?xml version="1.0" encoding="UTF-8"?>
<svg width="16px" height="16px" viewBox="0 0 16 16" version="1.1" xmlns="http://www.w3.org/2000/svg" xmlns:xlink="http://www.w3.org/1999/xlink">
    <!-- Generator: Sketch 56.3 (81716) - https://sketch.com -->
    <title>robicon</title>
    <desc>Created with Sketch.</desc>
    <g id="Page-1" stroke="none" stroke-width="1" fill="none" fill-rule="evenodd">
        <g id="robicon" fill="#020D1C" fill-rule="nonzero">
            <path d="M8,0 C12.418278,0 16,3.581722 16,8 C16,12.418278 12.418278,16 8,16 C3.581722,16 0,12.418278 0,8 C0,3.581722 3.581722,0 8,0 Z M11.089702,2.855628 L11.014378,2.917865 C10.128864,3.606081 9.098934,4 8,4 C6.869146,4 5.811362,3.582865 4.908477,2.857701 C3.166028,3.905953 2,5.816806 2,8 C2,10.183614 3.166478,12.094783 4.910298,13.144372 C5.812361,12.416741 6.86968,12 8,12 C9.130739,12 10.188422,12.41705 11.091246,13.142077 C12.833972,12.094047 14,10.183194 14,8 C14,5.816386 12.833522,3.905217 11.089702,2.855628 Z M8,6 C9.104569,6 10,6.895431 10,8 C10,9.104569 9.104569,10 8,10 C6.895431,10 6,9.104569 6,8 C6,6.895431 6.895431,6 8,6 Z"></path>
        </g>
    </g>
</svg>