<?xml version="1.0" encoding="UTF-8"?>
<svg xmlns="http://www.w3.org/2000/svg" xmlns:xlink="http://www.w3.org/1999/xlink" width="60" height="60" viewBox="0 0 60 60">
<path fill-rule="nonzero" fill="rgb(28.627451%, 43.137255%, 17.647059%)" fill-opacity="1" d="M 60 30 C 60 46.570312 46.570312 60 30 60 C 13.429688 60 0 46.570312 0 30 C 0 13.429688 13.429688 0 30 0 C 46.570312 0 60 13.429688 60 30 Z M 60 30 "/>
<path fill-rule="evenodd" fill="rgb(93.333333%, 93.333333%, 93.333333%)" fill-opacity="1" d="M 15 4.011719 L 15 55.984375 C 6.03125 50.800781 0 41.101562 0 30 C 0 18.894531 6.03125 9.199219 15 4.011719 Z M 15 4.011719 "/>
<path fill-rule="nonzero" fill="rgb(93.333333%, 93.333333%, 93.333333%)" fill-opacity="1" d="M 43.804688 34.960938 C 40.007812 37.703125 34.710938 36.851562 31.96875 33.054688 C 29.226562 29.257812 30.078125 23.960938 33.875 21.21875 C 35.058594 20.363281 36.386719 19.859375 37.738281 19.683594 C 35.136719 19.292969 32.386719 19.878906 30.085938 21.542969 C 25.414062 24.917969 24.363281 31.441406 27.738281 36.109375 C 31.113281 40.78125 37.636719 41.832031 42.308594 38.457031 C 44.609375 36.792969 46.027344 34.367188 46.476562 31.773438 C 45.886719 33.003906 44.988281 34.105469 43.804688 34.960938 Z M 43.804688 34.960938 "/>
<path fill-rule="nonzero" fill="rgb(93.333333%, 93.333333%, 93.333333%)" fill-opacity="1" d="M 43.640625 19.566406 L 45.78125 21.871094 L 48.632812 20.546875 L 47.101562 23.292969 L 49.238281 25.597656 L 46.15625 24.992188 L 44.625 27.734375 L 44.25 24.613281 L 41.164062 24.007812 L 44.015625 22.6875 Z M 43.640625 19.566406 "/>
</svg>
