<?xml version="1.0" encoding="UTF-8"?>
<svg xmlns="http://www.w3.org/2000/svg" xmlns:xlink="http://www.w3.org/1999/xlink" width="40" height="40" viewBox="0 0 40 40">
<path fill-rule="nonzero" fill="rgb(28.627451%, 43.137255%, 17.647059%)" fill-opacity="1" d="M 40 20 C 40 31.046875 31.046875 40 20 40 C 8.953125 40 0 31.046875 0 20 C 0 8.953125 8.953125 0 20 0 C 31.046875 0 40 8.953125 40 20 Z M 40 20 "/>
<path fill-rule="evenodd" fill="rgb(93.333333%, 93.333333%, 93.333333%)" fill-opacity="1" d="M 10 2.675781 L 10 37.324219 C 4.023438 33.867188 0 27.402344 0 20 C 0 12.597656 4.023438 6.132812 10 2.675781 Z M 10 2.675781 "/>
<path fill-rule="nonzero" fill="rgb(93.333333%, 93.333333%, 93.333333%)" fill-opacity="1" d="M 29.203125 23.308594 C 26.671875 25.136719 23.140625 24.566406 21.3125 22.035156 C 19.484375 19.507812 20.050781 15.972656 22.582031 14.144531 C 23.371094 13.574219 24.257812 13.238281 25.160156 13.121094 C 23.425781 12.863281 21.589844 13.253906 20.058594 14.359375 C 16.941406 16.613281 16.242188 20.960938 18.492188 24.074219 C 20.742188 27.1875 25.089844 27.886719 28.203125 25.636719 C 29.738281 24.53125 30.6875 22.910156 30.984375 21.183594 C 30.589844 22 29.992188 22.738281 29.203125 23.308594 Z M 29.203125 23.308594 "/>
<path fill-rule="nonzero" fill="rgb(93.333333%, 93.333333%, 93.333333%)" fill-opacity="1" d="M 29.09375 13.042969 L 30.519531 14.578125 L 32.421875 13.699219 L 31.402344 15.527344 L 32.824219 17.066406 L 30.769531 16.660156 L 29.75 18.492188 L 29.5 16.410156 L 27.445312 16.003906 L 29.34375 15.125 Z M 29.09375 13.042969 "/>
</svg>
