<?xml version="1.0" encoding="UTF-8"?>
<svg xmlns="http://www.w3.org/2000/svg" xmlns:xlink="http://www.w3.org/1999/xlink" width="20" height="20" viewBox="0 0 20 20">
<path fill-rule="nonzero" fill="rgb(28.627451%, 43.137255%, 17.647059%)" fill-opacity="1" d="M 20 10 C 20 15.523438 15.523438 20 10 20 C 4.476562 20 0 15.523438 0 10 C 0 4.476562 4.476562 0 10 0 C 15.523438 0 20 4.476562 20 10 Z M 20 10 "/>
<path fill-rule="evenodd" fill="rgb(93.333333%, 93.333333%, 93.333333%)" fill-opacity="1" d="M 5 1.335938 L 5 18.660156 C 2.011719 16.933594 0 13.699219 0 10 C 0 6.296875 2.011719 3.066406 5 1.335938 Z M 5 1.335938 "/>
<path fill-rule="nonzero" fill="rgb(93.333333%, 93.333333%, 93.333333%)" fill-opacity="1" d="M 14.601562 11.652344 C 13.335938 12.566406 11.570312 12.285156 10.65625 11.019531 C 9.742188 9.753906 10.027344 7.988281 11.292969 7.074219 C 11.6875 6.789062 12.128906 6.621094 12.578125 6.5625 C 11.710938 6.429688 10.796875 6.625 10.027344 7.179688 C 8.472656 8.304688 8.121094 10.480469 9.246094 12.035156 C 10.371094 13.59375 12.546875 13.945312 14.101562 12.820312 C 14.871094 12.265625 15.34375 11.457031 15.492188 10.589844 C 15.296875 11 14.996094 11.367188 14.601562 11.652344 Z M 14.601562 11.652344 "/>
<path fill-rule="nonzero" fill="rgb(93.333333%, 93.333333%, 93.333333%)" fill-opacity="1" d="M 14.546875 6.523438 L 15.261719 7.289062 L 16.210938 6.847656 L 15.699219 7.765625 L 16.414062 8.53125 L 15.386719 8.332031 L 14.875 9.246094 L 14.75 8.203125 L 13.722656 8.003906 L 14.671875 7.5625 Z M 14.546875 6.523438 "/>
</svg>
