<?xml version="1.0" encoding="UTF-8"?>
<svg xmlns="http://www.w3.org/2000/svg" xmlns:xlink="http://www.w3.org/1999/xlink" width="20" height="20" viewBox="0 0 20 20">
<path fill-rule="nonzero" fill="rgb(93.333333%, 93.333333%, 93.333333%)" fill-opacity="1" d="M 20 10 C 20 15.523438 15.523438 20 10 20 C 4.476562 20 0 15.523438 0 10 C 0 4.476562 4.476562 0 10 0 C 15.523438 0 20 4.476562 20 10 Z M 20 10 "/>
<path fill-rule="nonzero" fill="rgb(67.45098%, 67.058824%, 69.411765%)" fill-opacity="1" d="M 4.414062 5.429688 C 4.257812 5.429688 3.984375 5.507812 3.515625 5.742188 C 3.332031 5.835938 3.160156 5.953125 3.007812 6.09375 C 1.914062 7.148438 2.226562 8.75 2.578125 9.179688 C 2.695312 9.335938 3.203125 10.078125 3.828125 10.351562 C 4.6875 10.664062 5.234375 11.445312 5.273438 12.34375 C 5.273438 13.28125 4.6875 14.0625 3.945312 14.140625 L 3.789062 14.140625 C 3.046875 14.140625 2.382812 13.398438 2.34375 12.460938 L 2.34375 12.539062 C 2.382812 13.671875 3.125 14.570312 4.023438 14.570312 C 4.921875 14.570312 5.742188 14.101562 6.171875 13.320312 L 6.367188 13.007812 C 6.449219 12.835938 6.503906 12.652344 6.523438 12.460938 C 6.679688 11.71875 6.757812 9.726562 4.6875 8.75 C 3.125 7.96875 2.929688 7.34375 3.125 7.070312 C 3.140625 7.054688 3.160156 7.046875 3.179688 7.039062 C 3.199219 7.03125 3.222656 7.03125 3.242188 7.03125 C 3.242188 7.222656 3.316406 7.40625 3.445312 7.542969 C 3.578125 7.679688 3.753906 7.761719 3.945312 7.773438 C 4.089844 7.773438 4.230469 7.714844 4.335938 7.617188 C 4.335938 7.617188 5.039062 8.320312 5.273438 8.046875 C 5.507812 7.773438 5.273438 7.773438 5.039062 7.5 C 4.84375 7.226562 5.039062 6.679688 4.609375 6.40625 C 4.140625 6.132812 3.90625 6.132812 4.140625 5.820312 C 4.191406 5.742188 4.261719 5.675781 4.34375 5.628906 C 4.425781 5.582031 4.515625 5.554688 4.609375 5.546875 C 4.609375 5.546875 4.609375 5.429688 4.414062 5.429688 Z M 15.625 5.429688 C 15.429688 5.429688 15.429688 5.546875 15.429688 5.546875 C 15.625 5.585938 15.78125 5.664062 15.898438 5.820312 C 16.09375 6.132812 15.898438 6.132812 15.429688 6.40625 C 14.960938 6.679688 15.195312 7.226562 14.960938 7.5 C 14.765625 7.773438 14.53125 7.773438 14.765625 8.046875 C 14.960938 8.320312 15.703125 7.617188 15.703125 7.617188 C 15.808594 7.714844 15.949219 7.773438 16.09375 7.773438 C 16.285156 7.761719 16.460938 7.679688 16.59375 7.542969 C 16.722656 7.40625 16.796875 7.222656 16.796875 7.03125 C 16.824219 7.035156 16.851562 7.050781 16.875 7.070312 C 17.109375 7.34375 16.914062 7.96875 15.3125 8.75 C 13.28125 9.726562 13.359375 11.71875 13.476562 12.460938 L 13.671875 13.007812 C 13.734375 13.113281 13.800781 13.21875 13.867188 13.320312 C 14.257812 14.101562 15.117188 14.609375 15.976562 14.570312 C 16.914062 14.570312 17.65625 13.671875 17.695312 12.539062 L 17.695312 12.460938 C 17.617188 13.398438 16.992188 14.140625 16.210938 14.140625 L 16.054688 14.140625 C 15.3125 14.0625 14.765625 13.28125 14.765625 12.34375 C 14.804688 11.445312 15.351562 10.664062 16.171875 10.351562 C 16.796875 10.078125 17.304688 9.335938 17.460938 9.179688 C 17.773438 8.75 18.125 7.148438 17.03125 6.09375 C 16.867188 5.953125 16.683594 5.832031 16.484375 5.742188 C 16.015625 5.507812 15.78125 5.429688 15.625 5.429688 Z M 1.015625 7.773438 C 0.976562 7.773438 0.9375 7.8125 0.9375 7.890625 C 0.859375 8.515625 0.898438 9.921875 2.226562 10.390625 C 2.238281 10.398438 2.246094 10.402344 2.257812 10.402344 C 2.269531 10.40625 2.285156 10.402344 2.292969 10.398438 C 2.304688 10.394531 2.316406 10.390625 2.324219 10.382812 C 2.332031 10.371094 2.339844 10.363281 2.34375 10.351562 L 2.578125 10.039062 L 2.578125 9.882812 C 2.382812 9.609375 1.71875 8.671875 1.71875 8.164062 L 1.640625 8.085938 C 1.527344 8.085938 1.417969 8.0625 1.316406 8.015625 C 1.214844 7.96875 1.125 7.898438 1.054688 7.8125 Z M 18.984375 7.773438 L 18.945312 7.8125 C 18.875 7.898438 18.785156 7.96875 18.683594 8.015625 C 18.582031 8.0625 18.472656 8.085938 18.359375 8.085938 L 18.28125 8.164062 C 18.28125 8.671875 17.617188 9.609375 17.460938 9.882812 L 17.460938 10.039062 L 17.65625 10.351562 C 17.660156 10.363281 17.667969 10.371094 17.675781 10.382812 C 17.683594 10.390625 17.695312 10.394531 17.707031 10.398438 C 17.714844 10.402344 17.730469 10.40625 17.742188 10.402344 C 17.753906 10.402344 17.761719 10.398438 17.773438 10.390625 C 19.101562 9.921875 19.140625 8.515625 19.101562 7.890625 Z M 18.984375 7.773438 "/>
<path fill-rule="nonzero" fill="rgb(0%, 32.156863%, 70.588235%)" fill-opacity="1" d="M 8.242188 5.742188 C 8.007812 5.742188 7.785156 5.835938 7.621094 6 C 7.457031 6.164062 7.363281 6.386719 7.363281 6.621094 C 7.363281 6.855469 7.457031 7.078125 7.621094 7.242188 C 7.785156 7.40625 8.007812 7.5 8.242188 7.5 C 8.007812 7.5 7.785156 7.59375 7.621094 7.757812 C 7.457031 7.921875 7.363281 8.144531 7.363281 8.378906 C 7.363281 8.613281 7.457031 8.835938 7.621094 9 C 7.785156 9.164062 8.007812 9.257812 8.242188 9.257812 L 10 10.507812 L 11.757812 9.257812 C 11.992188 9.257812 12.214844 9.164062 12.378906 9 C 12.542969 8.835938 12.636719 8.613281 12.636719 8.378906 C 12.636719 8.144531 12.542969 7.921875 12.378906 7.757812 C 12.214844 7.59375 11.992188 7.5 11.757812 7.5 C 11.929688 7.5 12.101562 7.449219 12.246094 7.351562 C 12.390625 7.253906 12.503906 7.117188 12.570312 6.957031 C 12.636719 6.796875 12.652344 6.621094 12.621094 6.449219 C 12.585938 6.277344 12.503906 6.121094 12.378906 6 C 12.257812 5.875 12.101562 5.792969 11.929688 5.757812 C 11.757812 5.726562 11.582031 5.742188 11.421875 5.808594 C 11.261719 5.875 11.125 5.988281 11.027344 6.132812 C 10.929688 6.277344 10.878906 6.445312 10.878906 6.621094 C 10.878906 6.386719 10.785156 6.164062 10.621094 6 C 10.457031 5.835938 10.234375 5.742188 10 5.742188 C 9.765625 5.742188 9.542969 5.835938 9.378906 6 C 9.214844 6.164062 9.121094 6.386719 9.121094 6.621094 C 9.121094 6.386719 9.027344 6.164062 8.863281 6 C 8.699219 5.835938 8.476562 5.742188 8.242188 5.742188 Z M 8.242188 5.742188 "/>
<path fill-rule="nonzero" fill="rgb(93.333333%, 93.333333%, 93.333333%)" fill-opacity="1" d="M 9.0625 7.34375 C 9.042969 7.40625 9.03125 7.472656 9.023438 7.539062 C 9.023438 7.667969 9.046875 7.792969 9.097656 7.914062 C 9.148438 8.03125 9.21875 8.140625 9.308594 8.230469 C 9.398438 8.320312 9.507812 8.390625 9.625 8.441406 C 9.746094 8.492188 9.871094 8.515625 10 8.515625 C 10.128906 8.515625 10.253906 8.492188 10.375 8.441406 C 10.492188 8.390625 10.601562 8.320312 10.691406 8.230469 C 10.78125 8.140625 10.851562 8.03125 10.902344 7.914062 C 10.953125 7.792969 10.976562 7.667969 10.976562 7.539062 C 10.96875 7.472656 10.957031 7.40625 10.9375 7.34375 C 10.886719 7.554688 10.765625 7.742188 10.59375 7.875 C 10.425781 8.007812 10.214844 8.082031 10 8.085938 C 9.785156 8.082031 9.574219 8.007812 9.40625 7.875 C 9.234375 7.742188 9.113281 7.554688 9.0625 7.34375 Z M 9.0625 7.34375 "/>
<path fill-rule="nonzero" fill="rgb(84.705882%, 0%, 15.294118%)" fill-opacity="1" d="M 8.242188 12.773438 C 8.007812 12.773438 7.785156 12.679688 7.621094 12.515625 C 7.457031 12.351562 7.363281 12.128906 7.363281 11.894531 C 7.363281 11.660156 7.457031 11.4375 7.621094 11.273438 C 7.785156 11.109375 8.007812 11.015625 8.242188 11.015625 C 8.007812 11.015625 7.785156 10.921875 7.621094 10.757812 C 7.457031 10.59375 7.363281 10.371094 7.363281 10.136719 C 7.363281 9.902344 7.457031 9.679688 7.621094 9.515625 C 7.785156 9.351562 8.007812 9.257812 8.242188 9.257812 L 11.757812 9.257812 C 11.992188 9.257812 12.214844 9.351562 12.378906 9.515625 C 12.542969 9.679688 12.636719 9.902344 12.636719 10.136719 C 12.636719 10.371094 12.542969 10.59375 12.378906 10.757812 C 12.214844 10.921875 11.992188 11.015625 11.757812 11.015625 C 11.992188 11.015625 12.214844 11.109375 12.378906 11.273438 C 12.542969 11.4375 12.636719 11.660156 12.636719 11.894531 C 12.636719 12.128906 12.542969 12.351562 12.378906 12.515625 C 12.214844 12.679688 11.992188 12.773438 11.757812 12.773438 C 11.523438 12.773438 11.300781 12.679688 11.136719 12.515625 C 10.972656 12.351562 10.878906 12.128906 10.878906 11.894531 C 10.878906 12.128906 10.785156 12.351562 10.621094 12.515625 C 10.457031 12.679688 10.234375 12.773438 10 12.773438 C 9.765625 12.773438 9.542969 12.679688 9.378906 12.515625 C 9.214844 12.351562 9.121094 12.128906 9.121094 11.894531 C 9.121094 12.128906 9.027344 12.351562 8.863281 12.515625 C 8.699219 12.679688 8.476562 12.773438 8.242188 12.773438 Z M 8.242188 12.773438 "/>
<path fill-rule="nonzero" fill="rgb(100%, 85.490196%, 26.666667%)" fill-opacity="1" d="M 11.054688 9.921875 C 11.011719 9.921875 10.972656 9.9375 10.945312 9.96875 C 10.914062 9.996094 10.898438 10.035156 10.898438 10.078125 L 10.898438 10.390625 L 10.625 10.234375 C 10.601562 10.214844 10.574219 10.199219 10.546875 10.195312 C 10.523438 10.199219 10.5 10.207031 10.480469 10.21875 C 10.457031 10.234375 10.441406 10.253906 10.429688 10.273438 C 10.414062 10.289062 10.40625 10.3125 10.398438 10.332031 C 10.394531 10.355469 10.390625 10.378906 10.394531 10.398438 C 10.398438 10.421875 10.40625 10.441406 10.421875 10.460938 C 10.433594 10.480469 10.449219 10.496094 10.46875 10.507812 L 10.742188 10.664062 L 10.46875 10.78125 C 10.449219 10.792969 10.433594 10.808594 10.421875 10.828125 C 10.40625 10.847656 10.398438 10.867188 10.394531 10.890625 C 10.390625 10.910156 10.394531 10.933594 10.398438 10.957031 C 10.40625 10.976562 10.414062 11 10.429688 11.015625 C 10.453125 11.042969 10.484375 11.0625 10.519531 11.070312 C 10.554688 11.078125 10.59375 11.070312 10.625 11.054688 L 10.898438 10.9375 L 10.898438 11.210938 C 10.898438 11.253906 10.914062 11.292969 10.945312 11.320312 C 10.972656 11.351562 11.011719 11.367188 11.054688 11.367188 C 11.097656 11.367188 11.136719 11.351562 11.164062 11.320312 C 11.195312 11.292969 11.210938 11.253906 11.210938 11.210938 L 11.210938 10.9375 L 11.484375 11.054688 C 11.515625 11.070312 11.554688 11.078125 11.589844 11.070312 C 11.625 11.0625 11.65625 11.042969 11.679688 11.015625 C 11.695312 11 11.703125 10.976562 11.710938 10.957031 C 11.714844 10.933594 11.71875 10.910156 11.714844 10.890625 C 11.710938 10.867188 11.703125 10.847656 11.6875 10.828125 C 11.675781 10.808594 11.660156 10.792969 11.640625 10.78125 L 11.367188 10.664062 L 11.640625 10.507812 C 11.660156 10.496094 11.675781 10.480469 11.6875 10.460938 C 11.703125 10.441406 11.710938 10.421875 11.714844 10.398438 C 11.71875 10.378906 11.714844 10.355469 11.710938 10.332031 C 11.703125 10.3125 11.695312 10.289062 11.679688 10.273438 C 11.667969 10.253906 11.652344 10.234375 11.628906 10.21875 C 11.609375 10.207031 11.585938 10.199219 11.5625 10.195312 C 11.535156 10.199219 11.507812 10.214844 11.484375 10.234375 L 11.210938 10.390625 L 11.210938 10.078125 C 11.210938 10.035156 11.195312 9.996094 11.164062 9.96875 C 11.136719 9.9375 11.097656 9.921875 11.054688 9.921875 Z M 8.945312 9.921875 C 8.902344 9.921875 8.863281 9.9375 8.835938 9.96875 C 8.804688 9.996094 8.789062 10.035156 8.789062 10.078125 L 8.789062 10.390625 L 8.515625 10.234375 C 8.492188 10.214844 8.464844 10.199219 8.4375 10.195312 C 8.414062 10.199219 8.390625 10.207031 8.371094 10.21875 C 8.347656 10.234375 8.332031 10.253906 8.320312 10.273438 C 8.304688 10.289062 8.296875 10.3125 8.289062 10.332031 C 8.285156 10.355469 8.28125 10.378906 8.285156 10.398438 C 8.289062 10.421875 8.296875 10.441406 8.3125 10.460938 C 8.324219 10.480469 8.339844 10.496094 8.359375 10.507812 L 8.632812 10.664062 L 8.359375 10.78125 C 8.339844 10.792969 8.324219 10.808594 8.3125 10.828125 C 8.296875 10.847656 8.289062 10.867188 8.285156 10.890625 C 8.28125 10.910156 8.285156 10.933594 8.289062 10.957031 C 8.296875 10.976562 8.304688 11 8.320312 11.015625 C 8.34375 11.042969 8.375 11.0625 8.410156 11.070312 C 8.445312 11.078125 8.484375 11.070312 8.515625 11.054688 L 8.789062 10.9375 L 8.789062 11.210938 C 8.789062 11.253906 8.804688 11.292969 8.835938 11.320312 C 8.863281 11.351562 8.902344 11.367188 8.945312 11.367188 C 8.988281 11.367188 9.027344 11.351562 9.054688 11.320312 C 9.085938 11.292969 9.101562 11.253906 9.101562 11.210938 L 9.101562 10.9375 L 9.375 11.054688 C 9.40625 11.070312 9.445312 11.078125 9.480469 11.070312 C 9.515625 11.0625 9.546875 11.042969 9.570312 11.015625 C 9.585938 11 9.59375 10.976562 9.601562 10.957031 C 9.605469 10.933594 9.609375 10.910156 9.605469 10.890625 C 9.601562 10.867188 9.59375 10.847656 9.578125 10.828125 C 9.566406 10.808594 9.550781 10.792969 9.53125 10.78125 L 9.257812 10.664062 L 9.53125 10.507812 C 9.550781 10.496094 9.566406 10.480469 9.578125 10.460938 C 9.59375 10.441406 9.601562 10.421875 9.605469 10.398438 C 9.609375 10.378906 9.605469 10.355469 9.601562 10.332031 C 9.59375 10.3125 9.585938 10.289062 9.570312 10.273438 C 9.558594 10.253906 9.542969 10.234375 9.519531 10.21875 C 9.5 10.207031 9.476562 10.199219 9.453125 10.195312 C 9.425781 10.199219 9.398438 10.214844 9.375 10.234375 L 9.101562 10.390625 L 9.101562 10.078125 C 9.101562 10.035156 9.085938 9.996094 9.054688 9.96875 C 9.027344 9.9375 8.988281 9.921875 8.945312 9.921875 Z M 8.945312 9.921875 "/>
</svg>
