<?xml version="1.0" encoding="UTF-8"?>
<svg xmlns="http://www.w3.org/2000/svg" xmlns:xlink="http://www.w3.org/1999/xlink" width="60" height="60" viewBox="0 0 60 60">
<path fill-rule="nonzero" fill="rgb(93.333333%, 93.333333%, 93.333333%)" fill-opacity="1" d="M 60 30 C 60 46.570312 46.570312 60 30 60 C 13.429688 60 0 46.570312 0 30 C 0 13.429688 13.429688 0 30 0 C 46.570312 0 60 13.429688 60 30 Z M 60 30 "/>
<path fill-rule="nonzero" fill="rgb(67.45098%, 67.058824%, 69.411765%)" fill-opacity="1" d="M 13.242188 16.289062 C 12.773438 16.289062 11.953125 16.523438 10.546875 17.226562 C 9.992188 17.507812 9.480469 17.863281 9.023438 18.28125 C 5.742188 21.445312 6.679688 26.25 7.734375 27.539062 C 8.085938 28.007812 9.609375 30.234375 11.484375 31.054688 C 14.0625 31.992188 15.703125 34.335938 15.820312 37.03125 C 15.820312 39.84375 14.0625 42.1875 11.835938 42.421875 L 11.367188 42.421875 C 9.140625 42.421875 7.148438 40.195312 7.03125 37.382812 L 7.03125 37.617188 C 7.148438 41.015625 9.375 43.710938 12.070312 43.710938 C 14.765625 43.710938 17.226562 42.304688 18.515625 39.960938 L 19.101562 39.023438 C 19.351562 38.507812 19.507812 37.953125 19.570312 37.382812 C 20.039062 35.15625 20.273438 29.179688 14.0625 26.25 C 9.375 23.90625 8.789062 22.03125 9.375 21.210938 C 9.421875 21.167969 9.476562 21.136719 9.539062 21.117188 C 9.597656 21.097656 9.664062 21.089844 9.726562 21.09375 C 9.726562 21.664062 9.945312 22.214844 10.335938 22.628906 C 10.730469 23.042969 11.265625 23.289062 11.835938 23.320312 C 12.269531 23.316406 12.6875 23.148438 13.007812 22.851562 C 13.007812 22.851562 15.117188 24.960938 15.820312 24.140625 C 16.523438 23.320312 15.820312 23.320312 15.117188 22.5 C 14.53125 21.679688 15.117188 20.039062 13.828125 19.21875 C 12.421875 18.398438 11.71875 18.398438 12.421875 17.460938 C 12.578125 17.226562 12.789062 17.03125 13.03125 16.890625 C 13.273438 16.75 13.546875 16.664062 13.828125 16.640625 C 13.828125 16.640625 13.828125 16.289062 13.242188 16.289062 Z M 46.875 16.289062 C 46.289062 16.289062 46.289062 16.640625 46.289062 16.640625 C 46.875 16.757812 47.34375 16.992188 47.695312 17.460938 C 48.28125 18.398438 47.695312 18.398438 46.289062 19.21875 C 44.882812 20.039062 45.585938 21.679688 44.882812 22.5 C 44.296875 23.320312 43.59375 23.320312 44.296875 24.140625 C 44.882812 24.960938 47.109375 22.851562 47.109375 22.851562 C 47.429688 23.148438 47.847656 23.316406 48.28125 23.320312 C 48.851562 23.289062 49.386719 23.042969 49.78125 22.628906 C 50.171875 22.214844 50.390625 21.664062 50.390625 21.09375 C 50.476562 21.109375 50.558594 21.148438 50.625 21.210938 C 51.328125 22.03125 50.742188 23.90625 45.9375 26.25 C 39.84375 29.179688 40.078125 35.15625 40.429688 37.382812 L 41.015625 39.023438 C 41.203125 39.339844 41.398438 39.652344 41.601562 39.960938 C 42.773438 42.304688 45.351562 43.828125 47.929688 43.710938 C 50.742188 43.710938 52.96875 41.015625 53.085938 37.617188 L 53.085938 37.382812 C 52.851562 40.195312 50.976562 42.421875 48.632812 42.421875 L 48.164062 42.421875 C 45.9375 42.1875 44.296875 39.84375 44.296875 37.03125 C 44.414062 34.335938 46.054688 31.992188 48.515625 31.054688 C 50.390625 30.234375 51.914062 28.007812 52.382812 27.539062 C 53.320312 26.25 54.375 21.445312 51.09375 18.28125 C 50.597656 17.855469 50.046875 17.5 49.453125 17.226562 C 48.046875 16.523438 47.34375 16.289062 46.875 16.289062 Z M 3.046875 23.320312 C 2.929688 23.320312 2.8125 23.4375 2.8125 23.671875 C 2.578125 25.546875 2.695312 29.765625 6.679688 31.171875 C 6.710938 31.191406 6.742188 31.203125 6.777344 31.210938 C 6.8125 31.214844 6.851562 31.210938 6.882812 31.199219 C 6.917969 31.1875 6.949219 31.167969 6.972656 31.144531 C 7 31.117188 7.019531 31.089844 7.03125 31.054688 L 7.734375 30.117188 L 7.734375 29.648438 C 7.148438 28.828125 5.15625 26.015625 5.15625 24.492188 L 4.921875 24.257812 C 4.585938 24.261719 4.253906 24.191406 3.949219 24.050781 C 3.644531 23.90625 3.375 23.699219 3.164062 23.4375 Z M 56.953125 23.320312 L 56.835938 23.4375 C 56.625 23.699219 56.355469 23.90625 56.050781 24.050781 C 55.746094 24.191406 55.414062 24.261719 55.078125 24.257812 L 54.84375 24.492188 C 54.84375 26.015625 52.851562 28.828125 52.382812 29.648438 L 52.382812 30.117188 L 52.96875 31.054688 C 52.980469 31.089844 53 31.117188 53.027344 31.144531 C 53.050781 31.167969 53.082031 31.1875 53.117188 31.199219 C 53.148438 31.210938 53.1875 31.214844 53.222656 31.210938 C 53.257812 31.203125 53.289062 31.191406 53.320312 31.171875 C 57.304688 29.765625 57.421875 25.546875 57.304688 23.671875 Z M 56.953125 23.320312 "/>
<path fill-rule="nonzero" fill="rgb(0%, 32.156863%, 70.588235%)" fill-opacity="1" d="M 24.726562 17.226562 C 24.027344 17.226562 23.355469 17.503906 22.863281 18 C 22.367188 18.492188 22.089844 19.164062 22.089844 19.863281 C 22.089844 20.5625 22.367188 21.234375 22.863281 21.726562 C 23.355469 22.222656 24.027344 22.5 24.726562 22.5 C 24.027344 22.5 23.355469 22.777344 22.863281 23.273438 C 22.367188 23.765625 22.089844 24.4375 22.089844 25.136719 C 22.089844 25.835938 22.367188 26.507812 22.863281 27 C 23.355469 27.496094 24.027344 27.773438 24.726562 27.773438 L 30 31.523438 L 35.273438 27.773438 C 35.972656 27.773438 36.644531 27.496094 37.136719 27 C 37.632812 26.507812 37.910156 25.835938 37.910156 25.136719 C 37.910156 24.4375 37.632812 23.765625 37.136719 23.273438 C 36.644531 22.777344 35.972656 22.5 35.273438 22.5 C 35.796875 22.5 36.304688 22.34375 36.738281 22.054688 C 37.171875 21.765625 37.511719 21.355469 37.710938 20.871094 C 37.910156 20.390625 37.960938 19.859375 37.859375 19.347656 C 37.757812 18.835938 37.507812 18.367188 37.136719 18 C 36.769531 17.628906 36.300781 17.378906 35.789062 17.277344 C 35.277344 17.175781 34.746094 17.226562 34.265625 17.425781 C 33.78125 17.625 33.371094 17.964844 33.082031 18.398438 C 32.792969 18.832031 32.636719 19.34375 32.636719 19.863281 C 32.636719 19.164062 32.359375 18.492188 31.863281 18 C 31.371094 17.503906 30.699219 17.226562 30 17.226562 C 29.300781 17.226562 28.628906 17.503906 28.136719 18 C 27.640625 18.492188 27.363281 19.164062 27.363281 19.863281 C 27.363281 19.164062 27.085938 18.492188 26.589844 18 C 26.097656 17.503906 25.425781 17.226562 24.726562 17.226562 Z M 24.726562 17.226562 "/>
<path fill-rule="nonzero" fill="rgb(93.333333%, 93.333333%, 93.333333%)" fill-opacity="1" d="M 27.1875 22.03125 C 27.128906 22.222656 27.089844 22.417969 27.070312 22.617188 C 27.070312 23 27.144531 23.382812 27.292969 23.738281 C 27.441406 24.09375 27.65625 24.417969 27.929688 24.6875 C 28.199219 24.960938 28.523438 25.175781 28.878906 25.324219 C 29.234375 25.472656 29.617188 25.546875 30 25.546875 C 30.382812 25.546875 30.765625 25.472656 31.121094 25.324219 C 31.476562 25.175781 31.800781 24.960938 32.070312 24.6875 C 32.34375 24.417969 32.558594 24.09375 32.707031 23.738281 C 32.855469 23.382812 32.929688 23 32.929688 22.617188 C 32.910156 22.417969 32.871094 22.222656 32.8125 22.03125 C 32.65625 22.660156 32.296875 23.222656 31.785156 23.625 C 31.277344 24.027344 30.648438 24.25 30 24.257812 C 29.351562 24.25 28.722656 24.027344 28.214844 23.625 C 27.703125 23.222656 27.34375 22.660156 27.1875 22.03125 Z M 27.1875 22.03125 "/>
<path fill-rule="nonzero" fill="rgb(84.705882%, 0%, 15.294118%)" fill-opacity="1" d="M 24.726562 38.320312 C 24.027344 38.320312 23.355469 38.042969 22.863281 37.546875 C 22.367188 37.054688 22.089844 36.382812 22.089844 35.683594 C 22.089844 34.984375 22.367188 34.3125 22.863281 33.820312 C 23.355469 33.324219 24.027344 33.046875 24.726562 33.046875 C 24.027344 33.046875 23.355469 32.769531 22.863281 32.273438 C 22.367188 31.78125 22.089844 31.109375 22.089844 30.410156 C 22.089844 29.710938 22.367188 29.039062 22.863281 28.546875 C 23.355469 28.050781 24.027344 27.773438 24.726562 27.773438 L 35.273438 27.773438 C 35.972656 27.773438 36.644531 28.050781 37.136719 28.546875 C 37.632812 29.039062 37.910156 29.710938 37.910156 30.410156 C 37.910156 31.109375 37.632812 31.78125 37.136719 32.273438 C 36.644531 32.769531 35.972656 33.046875 35.273438 33.046875 C 35.972656 33.046875 36.644531 33.324219 37.136719 33.820312 C 37.632812 34.3125 37.910156 34.984375 37.910156 35.683594 C 37.910156 36.382812 37.632812 37.054688 37.136719 37.546875 C 36.644531 38.042969 35.972656 38.320312 35.273438 38.320312 C 34.574219 38.320312 33.902344 38.042969 33.410156 37.546875 C 32.914062 37.054688 32.636719 36.382812 32.636719 35.683594 C 32.636719 36.382812 32.359375 37.054688 31.863281 37.546875 C 31.371094 38.042969 30.699219 38.320312 30 38.320312 C 29.300781 38.320312 28.628906 38.042969 28.136719 37.546875 C 27.640625 37.054688 27.363281 36.382812 27.363281 35.683594 C 27.363281 36.382812 27.085938 37.054688 26.589844 37.546875 C 26.097656 38.042969 25.425781 38.320312 24.726562 38.320312 Z M 24.726562 38.320312 "/>
<path fill-rule="nonzero" fill="rgb(100%, 85.490196%, 26.666667%)" fill-opacity="1" d="M 33.164062 29.765625 C 33.039062 29.765625 32.921875 29.816406 32.832031 29.902344 C 32.746094 29.992188 32.695312 30.109375 32.695312 30.234375 L 32.695312 31.171875 L 31.875 30.703125 C 31.808594 30.640625 31.726562 30.601562 31.640625 30.585938 C 31.566406 30.59375 31.496094 30.621094 31.4375 30.660156 C 31.375 30.703125 31.324219 30.757812 31.289062 30.820312 C 31.246094 30.871094 31.214844 30.933594 31.195312 31 C 31.179688 31.0625 31.175781 31.132812 31.1875 31.199219 C 31.195312 31.265625 31.222656 31.328125 31.261719 31.386719 C 31.296875 31.441406 31.347656 31.488281 31.40625 31.523438 L 32.226562 31.992188 L 31.40625 32.34375 C 31.347656 32.378906 31.296875 32.425781 31.261719 32.480469 C 31.222656 32.539062 31.195312 32.601562 31.1875 32.667969 C 31.175781 32.734375 31.179688 32.804688 31.195312 32.867188 C 31.214844 32.933594 31.246094 32.996094 31.289062 33.046875 C 31.359375 33.132812 31.453125 33.191406 31.5625 33.210938 C 31.667969 33.230469 31.777344 33.214844 31.875 33.164062 L 32.695312 32.8125 L 32.695312 33.632812 C 32.695312 33.757812 32.746094 33.875 32.832031 33.964844 C 32.921875 34.050781 33.039062 34.101562 33.164062 34.101562 C 33.289062 34.101562 33.40625 34.050781 33.496094 33.964844 C 33.582031 33.875 33.632812 33.757812 33.632812 33.632812 L 33.632812 32.8125 L 34.453125 33.164062 C 34.550781 33.214844 34.660156 33.230469 34.765625 33.210938 C 34.875 33.191406 34.96875 33.132812 35.039062 33.046875 C 35.082031 32.996094 35.113281 32.933594 35.132812 32.867188 C 35.148438 32.804688 35.152344 32.734375 35.140625 32.667969 C 35.132812 32.601562 35.105469 32.539062 35.066406 32.480469 C 35.03125 32.425781 34.980469 32.378906 34.921875 32.34375 L 34.101562 31.992188 L 34.921875 31.523438 C 34.980469 31.488281 35.03125 31.441406 35.066406 31.386719 C 35.105469 31.328125 35.132812 31.265625 35.140625 31.199219 C 35.152344 31.132812 35.148438 31.0625 35.132812 31 C 35.113281 30.933594 35.082031 30.871094 35.039062 30.820312 C 35.003906 30.757812 34.953125 30.703125 34.890625 30.660156 C 34.832031 30.621094 34.761719 30.59375 34.6875 30.585938 C 34.601562 30.601562 34.519531 30.640625 34.453125 30.703125 L 33.632812 31.171875 L 33.632812 30.234375 C 33.632812 30.109375 33.582031 29.992188 33.496094 29.902344 C 33.40625 29.816406 33.289062 29.765625 33.164062 29.765625 Z M 26.835938 29.765625 C 26.710938 29.765625 26.59375 29.816406 26.503906 29.902344 C 26.417969 29.992188 26.367188 30.109375 26.367188 30.234375 L 26.367188 31.171875 L 25.546875 30.703125 C 25.480469 30.640625 25.398438 30.601562 25.3125 30.585938 C 25.238281 30.59375 25.167969 30.621094 25.109375 30.660156 C 25.046875 30.703125 24.996094 30.757812 24.960938 30.820312 C 24.917969 30.871094 24.886719 30.933594 24.867188 31 C 24.851562 31.0625 24.847656 31.132812 24.859375 31.199219 C 24.867188 31.265625 24.894531 31.328125 24.933594 31.386719 C 24.96875 31.441406 25.019531 31.488281 25.078125 31.523438 L 25.898438 31.992188 L 25.078125 32.34375 C 25.019531 32.378906 24.96875 32.425781 24.933594 32.480469 C 24.894531 32.539062 24.867188 32.601562 24.859375 32.667969 C 24.847656 32.734375 24.851562 32.804688 24.867188 32.867188 C 24.886719 32.933594 24.917969 32.996094 24.960938 33.046875 C 25.03125 33.132812 25.125 33.191406 25.234375 33.210938 C 25.339844 33.230469 25.449219 33.214844 25.546875 33.164062 L 26.367188 32.8125 L 26.367188 33.632812 C 26.367188 33.757812 26.417969 33.875 26.503906 33.964844 C 26.59375 34.050781 26.710938 34.101562 26.835938 34.101562 C 26.960938 34.101562 27.078125 34.050781 27.167969 33.964844 C 27.253906 33.875 27.304688 33.757812 27.304688 33.632812 L 27.304688 32.8125 L 28.125 33.164062 C 28.222656 33.214844 28.332031 33.230469 28.4375 33.210938 C 28.546875 33.191406 28.640625 33.132812 28.710938 33.046875 C 28.753906 32.996094 28.785156 32.933594 28.804688 32.867188 C 28.820312 32.804688 28.824219 32.734375 28.8125 32.667969 C 28.804688 32.601562 28.777344 32.539062 28.738281 32.480469 C 28.703125 32.425781 28.652344 32.378906 28.59375 32.34375 L 27.773438 31.992188 L 28.59375 31.523438 C 28.652344 31.488281 28.703125 31.441406 28.738281 31.386719 C 28.777344 31.328125 28.804688 31.265625 28.8125 31.199219 C 28.824219 31.132812 28.820312 31.0625 28.804688 31 C 28.785156 30.933594 28.753906 30.871094 28.710938 30.820312 C 28.675781 30.757812 28.625 30.703125 28.5625 30.660156 C 28.503906 30.621094 28.433594 30.59375 28.359375 30.585938 C 28.273438 30.601562 28.191406 30.640625 28.125 30.703125 L 27.304688 31.171875 L 27.304688 30.234375 C 27.304688 30.109375 27.253906 29.992188 27.167969 29.902344 C 27.078125 29.816406 26.960938 29.765625 26.835938 29.765625 Z M 26.835938 29.765625 "/>
</svg>
