<?xml version="1.0" encoding="UTF-8"?>
<svg xmlns="http://www.w3.org/2000/svg" xmlns:xlink="http://www.w3.org/1999/xlink" width="40" height="40" viewBox="0 0 40 40">
<path fill-rule="nonzero" fill="rgb(93.333333%, 93.333333%, 93.333333%)" fill-opacity="1" d="M 40 20 C 40 31.046875 31.046875 40 20 40 C 8.953125 40 0 31.046875 0 20 C 0 8.953125 8.953125 0 20 0 C 31.046875 0 40 8.953125 40 20 Z M 40 20 "/>
<path fill-rule="nonzero" fill="rgb(67.45098%, 67.058824%, 69.411765%)" fill-opacity="1" d="M 8.828125 10.859375 C 8.515625 10.859375 7.96875 11.015625 7.03125 11.484375 C 6.664062 11.671875 6.320312 11.910156 6.015625 12.1875 C 3.828125 14.296875 4.453125 17.5 5.15625 18.359375 C 5.390625 18.671875 6.40625 20.15625 7.65625 20.703125 C 9.375 21.328125 10.46875 22.890625 10.546875 24.6875 C 10.546875 26.5625 9.375 28.125 7.890625 28.28125 L 7.578125 28.28125 C 6.09375 28.28125 4.765625 26.796875 4.6875 24.921875 L 4.6875 25.078125 C 4.765625 27.34375 6.25 29.140625 8.046875 29.140625 C 9.84375 29.140625 11.484375 28.203125 12.34375 26.640625 L 12.734375 26.015625 C 12.898438 25.671875 13.003906 25.300781 13.046875 24.921875 C 13.359375 23.4375 13.515625 19.453125 9.375 17.5 C 6.25 15.9375 5.859375 14.6875 6.25 14.140625 C 6.28125 14.113281 6.320312 14.089844 6.359375 14.078125 C 6.398438 14.0625 6.441406 14.058594 6.484375 14.0625 C 6.484375 14.441406 6.628906 14.808594 6.890625 15.085938 C 7.152344 15.363281 7.511719 15.527344 7.890625 15.546875 C 8.179688 15.542969 8.460938 15.429688 8.671875 15.234375 C 8.671875 15.234375 10.078125 16.640625 10.546875 16.09375 C 11.015625 15.546875 10.546875 15.546875 10.078125 15 C 9.6875 14.453125 10.078125 13.359375 9.21875 12.8125 C 8.28125 12.265625 7.8125 12.265625 8.28125 11.640625 C 8.386719 11.484375 8.523438 11.355469 8.6875 11.261719 C 8.851562 11.164062 9.03125 11.109375 9.21875 11.09375 C 9.21875 11.09375 9.21875 10.859375 8.828125 10.859375 Z M 31.25 10.859375 C 30.859375 10.859375 30.859375 11.09375 30.859375 11.09375 C 31.25 11.171875 31.5625 11.328125 31.796875 11.640625 C 32.1875 12.265625 31.796875 12.265625 30.859375 12.8125 C 29.921875 13.359375 30.390625 14.453125 29.921875 15 C 29.53125 15.546875 29.0625 15.546875 29.53125 16.09375 C 29.921875 16.640625 31.40625 15.234375 31.40625 15.234375 C 31.617188 15.429688 31.898438 15.542969 32.1875 15.546875 C 32.566406 15.527344 32.925781 15.363281 33.1875 15.085938 C 33.449219 14.808594 33.59375 14.441406 33.59375 14.0625 C 33.652344 14.074219 33.707031 14.101562 33.75 14.140625 C 34.21875 14.6875 33.828125 15.9375 30.625 17.5 C 26.5625 19.453125 26.71875 23.4375 26.953125 24.921875 L 27.34375 26.015625 C 27.46875 26.226562 27.597656 26.4375 27.734375 26.640625 C 28.515625 28.203125 30.234375 29.21875 31.953125 29.140625 C 33.828125 29.140625 35.3125 27.34375 35.390625 25.078125 L 35.390625 24.921875 C 35.234375 26.796875 33.984375 28.28125 32.421875 28.28125 L 32.109375 28.28125 C 30.625 28.125 29.53125 26.5625 29.53125 24.6875 C 29.609375 22.890625 30.703125 21.328125 32.34375 20.703125 C 33.59375 20.15625 34.609375 18.671875 34.921875 18.359375 C 35.546875 17.5 36.25 14.296875 34.0625 12.1875 C 33.734375 11.902344 33.363281 11.664062 32.96875 11.484375 C 32.03125 11.015625 31.5625 10.859375 31.25 10.859375 Z M 2.03125 15.546875 C 1.953125 15.546875 1.875 15.625 1.875 15.78125 C 1.71875 17.03125 1.796875 19.84375 4.453125 20.78125 C 4.472656 20.792969 4.496094 20.804688 4.519531 20.804688 C 4.542969 20.808594 4.566406 20.808594 4.589844 20.800781 C 4.613281 20.792969 4.632812 20.78125 4.648438 20.761719 C 4.667969 20.746094 4.679688 20.726562 4.6875 20.703125 L 5.15625 20.078125 L 5.15625 19.765625 C 4.765625 19.21875 3.4375 17.34375 3.4375 16.328125 L 3.28125 16.171875 C 3.058594 16.175781 2.835938 16.128906 2.632812 16.03125 C 2.429688 15.9375 2.25 15.796875 2.109375 15.625 Z M 37.96875 15.546875 L 37.890625 15.625 C 37.75 15.796875 37.570312 15.9375 37.367188 16.03125 C 37.164062 16.128906 36.941406 16.175781 36.71875 16.171875 L 36.5625 16.328125 C 36.5625 17.34375 35.234375 19.21875 34.921875 19.765625 L 34.921875 20.078125 L 35.3125 20.703125 C 35.320312 20.726562 35.332031 20.746094 35.351562 20.761719 C 35.367188 20.78125 35.386719 20.792969 35.410156 20.800781 C 35.433594 20.808594 35.457031 20.808594 35.480469 20.804688 C 35.503906 20.804688 35.527344 20.792969 35.546875 20.78125 C 38.203125 19.84375 38.28125 17.03125 38.203125 15.78125 Z M 37.96875 15.546875 "/>
<path fill-rule="nonzero" fill="rgb(0%, 32.156863%, 70.588235%)" fill-opacity="1" d="M 16.484375 11.484375 C 16.019531 11.484375 15.570312 11.667969 15.242188 12 C 14.910156 12.328125 14.726562 12.777344 14.726562 13.242188 C 14.726562 13.707031 14.910156 14.15625 15.242188 14.484375 C 15.570312 14.816406 16.019531 15 16.484375 15 C 16.019531 15 15.570312 15.183594 15.242188 15.515625 C 14.910156 15.84375 14.726562 16.292969 14.726562 16.757812 C 14.726562 17.222656 14.910156 17.671875 15.242188 18 C 15.570312 18.332031 16.019531 18.515625 16.484375 18.515625 L 20 21.015625 L 23.515625 18.515625 C 23.980469 18.515625 24.429688 18.332031 24.757812 18 C 25.089844 17.671875 25.273438 17.222656 25.273438 16.757812 C 25.273438 16.292969 25.089844 15.84375 24.757812 15.515625 C 24.429688 15.183594 23.980469 15 23.515625 15 C 23.863281 15 24.203125 14.898438 24.492188 14.703125 C 24.78125 14.511719 25.007812 14.234375 25.140625 13.914062 C 25.273438 13.59375 25.308594 13.242188 25.238281 12.898438 C 25.171875 12.558594 25.003906 12.246094 24.757812 12 C 24.511719 11.753906 24.199219 11.585938 23.859375 11.519531 C 23.515625 11.449219 23.164062 11.484375 22.84375 11.617188 C 22.523438 11.75 22.246094 11.976562 22.054688 12.265625 C 21.859375 12.554688 21.757812 12.894531 21.757812 13.242188 C 21.757812 12.777344 21.574219 12.328125 21.242188 12 C 20.914062 11.667969 20.464844 11.484375 20 11.484375 C 19.535156 11.484375 19.085938 11.667969 18.757812 12 C 18.425781 12.328125 18.242188 12.777344 18.242188 13.242188 C 18.242188 12.777344 18.058594 12.328125 17.726562 12 C 17.398438 11.667969 16.949219 11.484375 16.484375 11.484375 Z M 16.484375 11.484375 "/>
<path fill-rule="nonzero" fill="rgb(93.333333%, 93.333333%, 93.333333%)" fill-opacity="1" d="M 18.125 14.6875 C 18.085938 14.816406 18.058594 14.945312 18.046875 15.078125 C 18.046875 15.335938 18.097656 15.589844 18.195312 15.824219 C 18.292969 16.0625 18.4375 16.277344 18.617188 16.460938 C 18.800781 16.640625 19.015625 16.785156 19.253906 16.882812 C 19.488281 16.980469 19.742188 17.03125 20 17.03125 C 20.257812 17.03125 20.511719 16.980469 20.746094 16.882812 C 20.984375 16.785156 21.199219 16.640625 21.382812 16.460938 C 21.5625 16.277344 21.707031 16.0625 21.804688 15.824219 C 21.902344 15.589844 21.953125 15.335938 21.953125 15.078125 C 21.941406 14.945312 21.914062 14.816406 21.875 14.6875 C 21.769531 15.109375 21.53125 15.480469 21.191406 15.75 C 20.851562 16.019531 20.433594 16.167969 20 16.171875 C 19.566406 16.167969 19.148438 16.019531 18.808594 15.75 C 18.46875 15.480469 18.230469 15.109375 18.125 14.6875 Z M 18.125 14.6875 "/>
<path fill-rule="nonzero" fill="rgb(84.705882%, 0%, 15.294118%)" fill-opacity="1" d="M 16.484375 25.546875 C 16.019531 25.546875 15.570312 25.363281 15.242188 25.03125 C 14.910156 24.703125 14.726562 24.253906 14.726562 23.789062 C 14.726562 23.324219 14.910156 22.875 15.242188 22.546875 C 15.570312 22.214844 16.019531 22.03125 16.484375 22.03125 C 16.019531 22.03125 15.570312 21.847656 15.242188 21.515625 C 14.910156 21.1875 14.726562 20.738281 14.726562 20.273438 C 14.726562 19.808594 14.910156 19.359375 15.242188 19.03125 C 15.570312 18.699219 16.019531 18.515625 16.484375 18.515625 L 23.515625 18.515625 C 23.980469 18.515625 24.429688 18.699219 24.757812 19.03125 C 25.089844 19.359375 25.273438 19.808594 25.273438 20.273438 C 25.273438 20.738281 25.089844 21.1875 24.757812 21.515625 C 24.429688 21.847656 23.980469 22.03125 23.515625 22.03125 C 23.980469 22.03125 24.429688 22.214844 24.757812 22.546875 C 25.089844 22.875 25.273438 23.324219 25.273438 23.789062 C 25.273438 24.253906 25.089844 24.703125 24.757812 25.03125 C 24.429688 25.363281 23.980469 25.546875 23.515625 25.546875 C 23.050781 25.546875 22.601562 25.363281 22.273438 25.03125 C 21.941406 24.703125 21.757812 24.253906 21.757812 23.789062 C 21.757812 24.253906 21.574219 24.703125 21.242188 25.03125 C 20.914062 25.363281 20.464844 25.546875 20 25.546875 C 19.535156 25.546875 19.085938 25.363281 18.757812 25.03125 C 18.425781 24.703125 18.242188 24.253906 18.242188 23.789062 C 18.242188 24.253906 18.058594 24.703125 17.726562 25.03125 C 17.398438 25.363281 16.949219 25.546875 16.484375 25.546875 Z M 16.484375 25.546875 "/>
<path fill-rule="nonzero" fill="rgb(100%, 85.490196%, 26.666667%)" fill-opacity="1" d="M 22.109375 19.84375 C 22.027344 19.84375 21.945312 19.875 21.886719 19.933594 C 21.828125 19.992188 21.796875 20.074219 21.796875 20.15625 L 21.796875 20.78125 L 21.25 20.46875 C 21.207031 20.429688 21.152344 20.402344 21.09375 20.390625 C 21.046875 20.398438 21 20.414062 20.957031 20.441406 C 20.917969 20.46875 20.882812 20.503906 20.859375 20.546875 C 20.832031 20.582031 20.808594 20.621094 20.796875 20.664062 C 20.785156 20.710938 20.78125 20.753906 20.789062 20.800781 C 20.796875 20.84375 20.816406 20.886719 20.839844 20.921875 C 20.867188 20.960938 20.898438 20.992188 20.9375 21.015625 L 21.484375 21.328125 L 20.9375 21.5625 C 20.898438 21.585938 20.867188 21.617188 20.839844 21.65625 C 20.816406 21.691406 20.796875 21.734375 20.789062 21.777344 C 20.78125 21.824219 20.785156 21.867188 20.796875 21.914062 C 20.808594 21.957031 20.832031 21.996094 20.859375 22.03125 C 20.90625 22.085938 20.96875 22.125 21.039062 22.140625 C 21.113281 22.15625 21.1875 22.144531 21.25 22.109375 L 21.796875 21.875 L 21.796875 22.421875 C 21.796875 22.503906 21.828125 22.585938 21.886719 22.644531 C 21.945312 22.703125 22.027344 22.734375 22.109375 22.734375 C 22.191406 22.734375 22.273438 22.703125 22.332031 22.644531 C 22.390625 22.585938 22.421875 22.503906 22.421875 22.421875 L 22.421875 21.875 L 22.96875 22.109375 C 23.03125 22.144531 23.105469 22.15625 23.179688 22.140625 C 23.25 22.125 23.3125 22.085938 23.359375 22.03125 C 23.386719 21.996094 23.410156 21.957031 23.421875 21.914062 C 23.433594 21.867188 23.4375 21.824219 23.429688 21.777344 C 23.421875 21.734375 23.402344 21.691406 23.378906 21.65625 C 23.351562 21.617188 23.320312 21.585938 23.28125 21.5625 L 22.734375 21.328125 L 23.28125 21.015625 C 23.320312 20.992188 23.351562 20.960938 23.378906 20.921875 C 23.402344 20.886719 23.421875 20.84375 23.429688 20.800781 C 23.4375 20.753906 23.433594 20.710938 23.421875 20.664062 C 23.410156 20.621094 23.386719 20.582031 23.359375 20.546875 C 23.335938 20.503906 23.300781 20.46875 23.261719 20.441406 C 23.21875 20.414062 23.171875 20.398438 23.125 20.390625 C 23.066406 20.402344 23.011719 20.429688 22.96875 20.46875 L 22.421875 20.78125 L 22.421875 20.15625 C 22.421875 20.074219 22.390625 19.992188 22.332031 19.933594 C 22.273438 19.875 22.191406 19.84375 22.109375 19.84375 Z M 17.890625 19.84375 C 17.808594 19.84375 17.726562 19.875 17.667969 19.933594 C 17.609375 19.992188 17.578125 20.074219 17.578125 20.15625 L 17.578125 20.78125 L 17.03125 20.46875 C 16.988281 20.429688 16.933594 20.402344 16.875 20.390625 C 16.828125 20.398438 16.78125 20.414062 16.738281 20.441406 C 16.699219 20.46875 16.664062 20.503906 16.640625 20.546875 C 16.613281 20.582031 16.589844 20.621094 16.578125 20.664062 C 16.566406 20.710938 16.5625 20.753906 16.570312 20.800781 C 16.578125 20.84375 16.597656 20.886719 16.621094 20.921875 C 16.648438 20.960938 16.679688 20.992188 16.71875 21.015625 L 17.265625 21.328125 L 16.71875 21.5625 C 16.679688 21.585938 16.648438 21.617188 16.621094 21.65625 C 16.597656 21.691406 16.578125 21.734375 16.570312 21.777344 C 16.5625 21.824219 16.566406 21.867188 16.578125 21.914062 C 16.589844 21.957031 16.613281 21.996094 16.640625 22.03125 C 16.6875 22.085938 16.75 22.125 16.820312 22.140625 C 16.894531 22.15625 16.96875 22.144531 17.03125 22.109375 L 17.578125 21.875 L 17.578125 22.421875 C 17.578125 22.503906 17.609375 22.585938 17.667969 22.644531 C 17.726562 22.703125 17.808594 22.734375 17.890625 22.734375 C 17.972656 22.734375 18.054688 22.703125 18.113281 22.644531 C 18.171875 22.585938 18.203125 22.503906 18.203125 22.421875 L 18.203125 21.875 L 18.75 22.109375 C 18.8125 22.144531 18.886719 22.15625 18.960938 22.140625 C 19.03125 22.125 19.09375 22.085938 19.140625 22.03125 C 19.167969 21.996094 19.191406 21.957031 19.203125 21.914062 C 19.214844 21.867188 19.21875 21.824219 19.210938 21.777344 C 19.203125 21.734375 19.183594 21.691406 19.160156 21.65625 C 19.132812 21.617188 19.101562 21.585938 19.0625 21.5625 L 18.515625 21.328125 L 19.0625 21.015625 C 19.101562 20.992188 19.132812 20.960938 19.160156 20.921875 C 19.183594 20.886719 19.203125 20.84375 19.210938 20.800781 C 19.21875 20.753906 19.214844 20.710938 19.203125 20.664062 C 19.191406 20.621094 19.167969 20.582031 19.140625 20.546875 C 19.117188 20.503906 19.082031 20.46875 19.042969 20.441406 C 19 20.414062 18.953125 20.398438 18.90625 20.390625 C 18.847656 20.402344 18.792969 20.429688 18.75 20.46875 L 18.203125 20.78125 L 18.203125 20.15625 C 18.203125 20.074219 18.171875 19.992188 18.113281 19.933594 C 18.054688 19.875 17.972656 19.84375 17.890625 19.84375 Z M 17.890625 19.84375 "/>
</svg>
