<?xml version="1.0" encoding="UTF-8"?>
<svg xmlns="http://www.w3.org/2000/svg" xmlns:xlink="http://www.w3.org/1999/xlink" width="60" height="60" viewBox="0 0 60 60">
<path fill-rule="nonzero" fill="rgb(0%, 13.333333%, 40%)" fill-opacity="1" d="M 60 30 C 60 46.566406 46.566406 60 30 60 C 13.433594 60 0 46.566406 0 30 L 30 0 C 46.566406 0 60 13.433594 60 30 Z M 60 30 "/>
<path fill-rule="nonzero" fill="rgb(0%, 13.333333%, 40%)" fill-opacity="1" d="M 30 0 L 30 30 L 0 30 C 0 13.429688 13.429688 0 30 0 Z M 30 0 "/>
<path fill-rule="nonzero" fill="rgb(93.333333%, 93.333333%, 93.333333%)" fill-opacity="1" d="M 25.496094 30 L 30 30 L 30 25.496094 L 16.488281 11.984375 L 30 11.984375 L 30 0 C 13.429688 0 0 13.429688 0 30 L 11.984375 30 L 11.984375 16.488281 Z M 25.496094 30 "/>
<path fill-rule="nonzero" fill="rgb(84.705882%, 0%, 15.294118%)" fill-opacity="1" d="M 30 8.980469 L 30 2.972656 L 16.960938 2.972656 C 10.867188 5.917969 5.917969 10.867188 2.972656 16.960938 L 2.972656 30 L 8.980469 30 L 8.980469 8.980469 Z M 30 8.980469 "/>
<path fill-rule="nonzero" fill="rgb(84.705882%, 0%, 15.294118%)" fill-opacity="1" d="M 30 26.996094 L 30 30 L 11.984375 11.984375 L 14.984375 11.984375 Z M 30 26.996094 "/>
<path fill-rule="nonzero" fill="rgb(100%, 85.490196%, 26.666667%)" fill-opacity="1" d="M 35.871094 18.261719 L 35.871094 32.609375 C 35.871094 39.597656 45 41.738281 45 41.738281 C 45 41.738281 54.132812 39.597656 54.132812 32.609375 L 54.132812 18.261719 Z M 35.871094 18.261719 "/>
<path fill-rule="nonzero" fill="rgb(100%, 59.607843%, 6.666667%)" fill-opacity="1" d="M 43.695312 23.476562 C 43.695312 24.917969 42.527344 28.695312 41.089844 28.695312 C 39.648438 28.695312 38.480469 24.917969 38.480469 23.476562 C 38.480469 22.035156 41.089844 20.867188 41.089844 20.867188 C 41.089844 20.867188 43.695312 22.035156 43.695312 23.476562 Z M 43.695312 23.476562 "/>
<path fill-rule="nonzero" fill="rgb(63.529412%, 0%, 11.372549%)" fill-opacity="1" d="M 50.617188 26.320312 C 51.039062 25.292969 51.367188 23.789062 51.367188 23.042969 C 51.367188 21.84375 49.800781 20.867188 49.800781 20.867188 C 49.800781 20.867188 48.238281 21.84375 48.238281 23.042969 C 48.238281 23.789062 48.5625 25.292969 48.984375 26.320312 L 48.082031 28.359375 C 48.613281 28.574219 49.191406 28.695312 49.800781 28.695312 C 50.410156 28.695312 50.992188 28.574219 51.523438 28.359375 L 50.621094 26.320312 Z M 50.617188 26.320312 "/>
<path fill-rule="nonzero" fill="rgb(42.745098%, 64.705882%, 26.666667%)" fill-opacity="1" d="M 43.042969 32.609375 C 43.042969 32.609375 41.738281 35.21875 41.738281 37.828125 L 48.261719 37.828125 C 48.261719 35.21875 46.957031 32.609375 46.957031 32.609375 L 45 31.304688 Z M 43.042969 32.609375 "/>
<path fill-rule="nonzero" fill="rgb(84.705882%, 0%, 15.294118%)" fill-opacity="1" d="M 46.957031 32.609375 L 46.957031 31.957031 C 46.957031 30.875 46.082031 30 45 30 C 43.921875 30 43.042969 30.875 43.042969 31.957031 L 43.042969 32.609375 Z M 46.957031 32.609375 "/>
</svg>
