<?xml version="1.0" encoding="UTF-8"?>
<svg xmlns="http://www.w3.org/2000/svg" xmlns:xlink="http://www.w3.org/1999/xlink" width="20" height="20" viewBox="0 0 20 20">
<path fill-rule="nonzero" fill="rgb(0%, 13.333333%, 40%)" fill-opacity="1" d="M 20 10 C 20 15.523438 15.523438 20 10 20 C 4.476562 20 0 15.523438 0 10 L 10 0 C 15.523438 0 20 4.476562 20 10 Z M 20 10 "/>
<path fill-rule="nonzero" fill="rgb(0%, 13.333333%, 40%)" fill-opacity="1" d="M 10 0 L 10 10 L 0 10 C 0 4.476562 4.476562 0 10 0 Z M 10 0 "/>
<path fill-rule="nonzero" fill="rgb(93.333333%, 93.333333%, 93.333333%)" fill-opacity="1" d="M 8.5 10 L 10 10 L 10 8.5 L 5.496094 3.992188 L 10 3.992188 L 10 0 C 4.476562 0 0 4.476562 0 10 L 3.992188 10 L 3.992188 5.496094 Z M 8.5 10 "/>
<path fill-rule="nonzero" fill="rgb(84.705882%, 0%, 15.294118%)" fill-opacity="1" d="M 10 2.992188 L 10 0.992188 L 5.652344 0.992188 C 3.621094 1.972656 1.972656 3.621094 0.992188 5.652344 L 0.992188 10 L 2.992188 10 L 2.992188 2.992188 Z M 10 2.992188 "/>
<path fill-rule="nonzero" fill="rgb(84.705882%, 0%, 15.294118%)" fill-opacity="1" d="M 10 9 L 10 10 L 3.992188 3.992188 L 4.996094 3.992188 Z M 10 9 "/>
<path fill-rule="nonzero" fill="rgb(100%, 85.490196%, 26.666667%)" fill-opacity="1" d="M 11.957031 6.085938 L 11.957031 10.871094 C 11.957031 13.199219 15 13.914062 15 13.914062 C 15 13.914062 18.042969 13.199219 18.042969 10.871094 L 18.042969 6.085938 Z M 11.957031 6.085938 "/>
<path fill-rule="nonzero" fill="rgb(100%, 59.607843%, 6.666667%)" fill-opacity="1" d="M 14.566406 7.824219 C 14.566406 8.304688 14.175781 9.566406 13.695312 9.566406 C 13.214844 9.566406 12.828125 8.304688 12.828125 7.824219 C 12.828125 7.34375 13.695312 6.957031 13.695312 6.957031 C 13.695312 6.957031 14.566406 7.34375 14.566406 7.824219 Z M 14.566406 7.824219 "/>
<path fill-rule="nonzero" fill="rgb(63.529412%, 0%, 11.372549%)" fill-opacity="1" d="M 16.875 8.773438 C 17.011719 8.429688 17.121094 7.929688 17.121094 7.679688 C 17.121094 7.28125 16.601562 6.957031 16.601562 6.957031 C 16.601562 6.957031 16.078125 7.28125 16.078125 7.679688 C 16.078125 7.929688 16.1875 8.429688 16.328125 8.773438 L 16.027344 9.453125 C 16.203125 9.523438 16.398438 9.566406 16.601562 9.566406 C 16.804688 9.566406 16.996094 9.523438 17.175781 9.453125 Z M 16.875 8.773438 "/>
<path fill-rule="nonzero" fill="rgb(42.745098%, 64.705882%, 26.666667%)" fill-opacity="1" d="M 14.347656 10.871094 C 14.347656 10.871094 13.914062 11.738281 13.914062 12.609375 L 16.085938 12.609375 C 16.085938 11.738281 15.652344 10.871094 15.652344 10.871094 L 15 10.433594 Z M 14.347656 10.871094 "/>
<path fill-rule="nonzero" fill="rgb(84.705882%, 0%, 15.294118%)" fill-opacity="1" d="M 15.652344 10.871094 L 15.652344 10.652344 C 15.652344 10.292969 15.359375 10 15 10 C 14.640625 10 14.347656 10.292969 14.347656 10.652344 L 14.347656 10.871094 Z M 15.652344 10.871094 "/>
</svg>
