<?xml version="1.0" encoding="UTF-8"?>
<svg xmlns="http://www.w3.org/2000/svg" xmlns:xlink="http://www.w3.org/1999/xlink" width="40" height="40" viewBox="0 0 40 40">
<path fill-rule="nonzero" fill="rgb(0%, 13.333333%, 40%)" fill-opacity="1" d="M 40 20 C 40 31.046875 31.046875 40 20 40 C 8.953125 40 0 31.046875 0 20 L 20 0 C 31.046875 0 40 8.953125 40 20 Z M 40 20 "/>
<path fill-rule="nonzero" fill="rgb(0%, 13.333333%, 40%)" fill-opacity="1" d="M 20 0 L 20 20 L 0 20 C 0 8.953125 8.953125 0 20 0 Z M 20 0 "/>
<path fill-rule="nonzero" fill="rgb(93.333333%, 93.333333%, 93.333333%)" fill-opacity="1" d="M 16.996094 20 L 20 20 L 20 16.996094 L 10.992188 7.988281 L 20 7.988281 L 20 0 C 8.953125 0 0 8.953125 0 20 L 7.988281 20 L 7.988281 10.992188 Z M 16.996094 20 "/>
<path fill-rule="nonzero" fill="rgb(84.705882%, 0%, 15.294118%)" fill-opacity="1" d="M 20 5.984375 L 20 1.984375 L 11.308594 1.984375 C 7.246094 3.945312 3.945312 7.246094 1.984375 11.308594 L 1.984375 20 L 5.984375 20 L 5.984375 5.984375 Z M 20 5.984375 "/>
<path fill-rule="nonzero" fill="rgb(84.705882%, 0%, 15.294118%)" fill-opacity="1" d="M 20 18 L 20 20 L 7.988281 7.988281 L 9.992188 7.988281 Z M 20 18 "/>
<path fill-rule="nonzero" fill="rgb(100%, 85.490196%, 26.666667%)" fill-opacity="1" d="M 23.914062 12.171875 L 23.914062 21.738281 C 23.914062 26.398438 30 27.828125 30 27.828125 C 30 27.828125 36.089844 26.398438 36.089844 21.738281 L 36.089844 12.171875 Z M 23.914062 12.171875 "/>
<path fill-rule="nonzero" fill="rgb(100%, 59.607843%, 6.666667%)" fill-opacity="1" d="M 29.132812 15.652344 C 29.132812 16.613281 28.351562 19.128906 27.390625 19.128906 C 26.429688 19.128906 25.652344 16.613281 25.652344 15.652344 C 25.652344 14.691406 27.390625 13.914062 27.390625 13.914062 C 27.390625 13.914062 29.132812 14.691406 29.132812 15.652344 Z M 29.132812 15.652344 "/>
<path fill-rule="nonzero" fill="rgb(63.529412%, 0%, 11.372549%)" fill-opacity="1" d="M 33.746094 17.546875 C 34.027344 16.859375 34.246094 15.859375 34.246094 15.363281 C 34.246094 14.5625 33.203125 13.914062 33.203125 13.914062 C 33.203125 13.914062 32.15625 14.5625 32.15625 15.363281 C 32.15625 15.859375 32.375 16.859375 32.65625 17.546875 L 32.054688 18.90625 C 32.410156 19.050781 32.796875 19.128906 33.203125 19.128906 C 33.605469 19.128906 33.996094 19.050781 34.347656 18.90625 Z M 33.746094 17.546875 "/>
<path fill-rule="nonzero" fill="rgb(42.745098%, 64.705882%, 26.666667%)" fill-opacity="1" d="M 28.695312 21.738281 C 28.695312 21.738281 27.828125 23.476562 27.828125 25.21875 L 32.175781 25.21875 C 32.175781 23.476562 31.304688 21.738281 31.304688 21.738281 L 30 20.871094 Z M 28.695312 21.738281 "/>
<path fill-rule="nonzero" fill="rgb(84.705882%, 0%, 15.294118%)" fill-opacity="1" d="M 31.304688 21.738281 L 31.304688 21.304688 C 31.304688 20.582031 30.722656 20 30 20 C 29.28125 20 28.695312 20.582031 28.695312 21.304688 L 28.695312 21.738281 Z M 31.304688 21.738281 "/>
</svg>
