<?xml version="1.0" encoding="UTF-8"?>
<svg xmlns="http://www.w3.org/2000/svg" xmlns:xlink="http://www.w3.org/1999/xlink" width="20" height="20" viewBox="0 0 20 20">
<path fill-rule="nonzero" fill="rgb(0%, 13.333333%, 40%)" fill-opacity="1" d="M 20 10 C 20 15.523438 15.523438 20 10 20 C 4.476562 20 0 15.523438 0 10 L 10 0 C 15.523438 0 20 4.476562 20 10 Z M 20 10 "/>
<path fill-rule="nonzero" fill="rgb(0%, 13.333333%, 40%)" fill-opacity="1" d="M 10 0 L 10 10 L 0 10 C 0 4.476562 4.476562 0 10 0 Z M 10 0 "/>
<path fill-rule="nonzero" fill="rgb(93.333333%, 93.333333%, 93.333333%)" fill-opacity="1" d="M 8.5 10 L 10 10 L 10 8.5 L 5.496094 3.992188 L 10 3.992188 L 10 0 C 4.476562 0 0 4.476562 0 10 L 3.992188 10 L 3.992188 5.496094 Z M 8.5 10 "/>
<path fill-rule="nonzero" fill="rgb(84.705882%, 0%, 15.294118%)" fill-opacity="1" d="M 10 2.992188 L 10 0.992188 L 5.652344 0.992188 C 3.621094 1.972656 1.972656 3.621094 0.992188 5.652344 L 0.992188 10 L 2.992188 10 L 2.992188 2.992188 Z M 10 2.992188 "/>
<path fill-rule="nonzero" fill="rgb(84.705882%, 0%, 15.294118%)" fill-opacity="1" d="M 10 9 L 10 10 L 3.992188 3.992188 L 4.996094 3.992188 Z M 10 9 "/>
<path fill-rule="nonzero" fill="rgb(93.333333%, 93.333333%, 93.333333%)" fill-opacity="1" d="M 14.972656 13.914062 L 15.246094 14.488281 L 15.867188 14.34375 L 15.589844 14.914062 L 16.085938 15.3125 L 15.464844 15.449219 L 15.46875 16.085938 L 14.972656 15.6875 L 14.476562 16.085938 L 14.476562 15.449219 L 13.855469 15.3125 L 14.355469 14.914062 L 14.078125 14.34375 L 14.699219 14.488281 Z M 14.972656 13.914062 "/>
<path fill-rule="nonzero" fill="rgb(93.333333%, 93.333333%, 93.333333%)" fill-opacity="1" d="M 12.417969 7.828125 L 12.695312 8.398438 L 13.3125 8.257812 L 13.035156 8.828125 L 13.535156 9.222656 L 12.914062 9.363281 L 12.914062 10 L 12.417969 9.601562 L 11.921875 10 L 11.925781 9.363281 L 11.304688 9.222656 L 11.800781 8.828125 L 11.523438 8.257812 L 12.144531 8.398438 Z M 12.417969 7.828125 "/>
<path fill-rule="nonzero" fill="rgb(93.333333%, 93.333333%, 93.333333%)" fill-opacity="1" d="M 14.972656 4.347656 L 15.246094 4.921875 L 15.867188 4.777344 L 15.589844 5.351562 L 16.085938 5.746094 L 15.464844 5.886719 L 15.46875 6.523438 L 14.972656 6.125 L 14.476562 6.523438 L 14.476562 5.886719 L 13.855469 5.746094 L 14.355469 5.351562 L 14.078125 4.777344 L 14.699219 4.921875 Z M 14.972656 4.347656 "/>
<path fill-rule="nonzero" fill="rgb(93.333333%, 93.333333%, 93.333333%)" fill-opacity="1" d="M 17.203125 6.957031 L 17.476562 7.53125 L 18.097656 7.386719 L 17.820312 7.960938 L 18.316406 8.355469 L 17.695312 8.496094 L 17.699219 9.128906 L 17.203125 8.734375 L 16.707031 9.128906 L 16.707031 8.496094 L 16.085938 8.355469 L 16.585938 7.960938 L 16.308594 7.386719 L 16.925781 7.53125 Z M 17.203125 6.957031 "/>
<path fill-rule="nonzero" fill="rgb(93.333333%, 93.333333%, 93.333333%)" fill-opacity="1" d="M 15.609375 10 L 15.824219 10.664062 L 16.523438 10.664062 L 15.957031 11.074219 L 16.171875 11.738281 L 15.609375 11.328125 L 15.042969 11.738281 L 15.257812 11.074219 L 14.691406 10.664062 L 15.390625 10.664062 Z M 15.609375 10 "/>
<path fill-rule="nonzero" fill="rgb(93.333333%, 93.333333%, 93.333333%)" fill-opacity="1" d="M 6.015625 11.71875 L 6.5625 12.890625 L 7.8125 12.578125 L 7.265625 13.75 L 8.242188 14.53125 L 6.992188 14.804688 L 7.03125 16.09375 L 6.015625 15.273438 L 5 16.09375 L 5.039062 14.804688 L 3.75 14.53125 L 4.765625 13.75 L 4.21875 12.578125 L 5.46875 12.890625 Z M 6.015625 11.71875 "/>
</svg>
