<?xml version="1.0" encoding="UTF-8"?>
<svg xmlns="http://www.w3.org/2000/svg" xmlns:xlink="http://www.w3.org/1999/xlink" width="60" height="60" viewBox="0 0 60 60">
<path fill-rule="nonzero" fill="rgb(0%, 13.333333%, 40%)" fill-opacity="1" d="M 60 30 C 60 46.566406 46.566406 60 30 60 C 13.433594 60 0 46.566406 0 30 L 30 0 C 46.566406 0 60 13.433594 60 30 Z M 60 30 "/>
<path fill-rule="nonzero" fill="rgb(0%, 13.333333%, 40%)" fill-opacity="1" d="M 30 0 L 30 30 L 0 30 C 0 13.429688 13.429688 0 30 0 Z M 30 0 "/>
<path fill-rule="nonzero" fill="rgb(93.333333%, 93.333333%, 93.333333%)" fill-opacity="1" d="M 25.496094 30 L 30 30 L 30 25.496094 L 16.488281 11.984375 L 30 11.984375 L 30 0 C 13.429688 0 0 13.429688 0 30 L 11.984375 30 L 11.984375 16.488281 Z M 25.496094 30 "/>
<path fill-rule="nonzero" fill="rgb(84.705882%, 0%, 15.294118%)" fill-opacity="1" d="M 30 8.980469 L 30 2.972656 L 16.960938 2.972656 C 10.867188 5.917969 5.917969 10.867188 2.972656 16.960938 L 2.972656 30 L 8.980469 30 L 8.980469 8.980469 Z M 30 8.980469 "/>
<path fill-rule="nonzero" fill="rgb(84.705882%, 0%, 15.294118%)" fill-opacity="1" d="M 30 26.996094 L 30 30 L 11.984375 11.984375 L 14.984375 11.984375 Z M 30 26.996094 "/>
<path fill-rule="nonzero" fill="rgb(93.333333%, 93.333333%, 93.333333%)" fill-opacity="1" d="M 44.914062 41.738281 L 45.738281 43.460938 L 47.597656 43.03125 L 46.765625 44.746094 L 48.261719 45.933594 L 46.398438 46.351562 L 46.402344 48.261719 L 44.914062 47.066406 L 43.425781 48.261719 L 43.433594 46.351562 L 41.570312 45.933594 L 43.066406 44.746094 L 42.234375 43.03125 L 44.09375 43.460938 Z M 44.914062 41.738281 "/>
<path fill-rule="nonzero" fill="rgb(93.333333%, 93.333333%, 93.333333%)" fill-opacity="1" d="M 37.257812 23.476562 L 38.082031 25.199219 L 39.941406 24.769531 L 39.105469 26.488281 L 40.601562 27.671875 L 38.742188 28.09375 L 38.746094 30 L 37.257812 28.804688 L 35.769531 30 L 35.773438 28.09375 L 33.914062 27.671875 L 35.40625 26.488281 L 34.574219 24.769531 L 36.433594 25.199219 Z M 37.257812 23.476562 "/>
<path fill-rule="nonzero" fill="rgb(93.333333%, 93.333333%, 93.333333%)" fill-opacity="1" d="M 44.914062 13.042969 L 45.738281 14.765625 L 47.597656 14.335938 L 46.765625 16.050781 L 48.261719 17.238281 L 46.398438 17.65625 L 46.402344 19.566406 L 44.914062 18.371094 L 43.425781 19.566406 L 43.433594 17.65625 L 41.570312 17.238281 L 43.066406 16.050781 L 42.234375 14.335938 L 44.09375 14.765625 Z M 44.914062 13.042969 "/>
<path fill-rule="nonzero" fill="rgb(93.333333%, 93.333333%, 93.333333%)" fill-opacity="1" d="M 51.605469 20.871094 L 52.429688 22.589844 L 54.289062 22.160156 L 53.457031 23.878906 L 54.949219 25.0625 L 53.089844 25.484375 L 53.09375 27.390625 L 51.605469 26.199219 L 50.117188 27.390625 L 50.121094 25.484375 L 48.261719 25.0625 L 49.757812 23.878906 L 48.921875 22.160156 L 50.78125 22.589844 Z M 51.605469 20.871094 "/>
<path fill-rule="nonzero" fill="rgb(93.333333%, 93.333333%, 93.333333%)" fill-opacity="1" d="M 46.820312 30 L 47.46875 31.992188 L 49.566406 31.992188 L 47.871094 33.226562 L 48.519531 35.21875 L 46.820312 33.984375 L 45.128906 35.21875 L 45.773438 33.226562 L 44.078125 31.992188 L 46.175781 31.992188 Z M 46.820312 30 "/>
<path fill-rule="nonzero" fill="rgb(93.333333%, 93.333333%, 93.333333%)" fill-opacity="1" d="M 18.046875 35.15625 L 19.6875 38.671875 L 23.4375 37.734375 L 21.796875 41.25 L 24.726562 43.59375 L 20.976562 44.414062 L 21.09375 48.28125 L 18.046875 45.820312 L 15 48.28125 L 15.117188 44.414062 L 11.25 43.59375 L 14.296875 41.25 L 12.65625 37.734375 L 16.40625 38.671875 Z M 18.046875 35.15625 "/>
</svg>
