<?xml version="1.0" encoding="UTF-8"?>
<svg xmlns="http://www.w3.org/2000/svg" xmlns:xlink="http://www.w3.org/1999/xlink" width="40" height="40" viewBox="0 0 40 40">
<path fill-rule="nonzero" fill="rgb(0%, 13.333333%, 40%)" fill-opacity="1" d="M 40 20 C 40 31.046875 31.046875 40 20 40 C 8.953125 40 0 31.046875 0 20 L 20 0 C 31.046875 0 40 8.953125 40 20 Z M 40 20 "/>
<path fill-rule="nonzero" fill="rgb(0%, 13.333333%, 40%)" fill-opacity="1" d="M 20 0 L 20 20 L 0 20 C 0 8.953125 8.953125 0 20 0 Z M 20 0 "/>
<path fill-rule="nonzero" fill="rgb(93.333333%, 93.333333%, 93.333333%)" fill-opacity="1" d="M 16.996094 20 L 20 20 L 20 16.996094 L 10.992188 7.988281 L 20 7.988281 L 20 0 C 8.953125 0 0 8.953125 0 20 L 7.988281 20 L 7.988281 10.992188 Z M 16.996094 20 "/>
<path fill-rule="nonzero" fill="rgb(84.705882%, 0%, 15.294118%)" fill-opacity="1" d="M 20 5.984375 L 20 1.984375 L 11.308594 1.984375 C 7.246094 3.945312 3.945312 7.246094 1.984375 11.308594 L 1.984375 20 L 5.984375 20 L 5.984375 5.984375 Z M 20 5.984375 "/>
<path fill-rule="nonzero" fill="rgb(84.705882%, 0%, 15.294118%)" fill-opacity="1" d="M 20 18 L 20 20 L 7.988281 7.988281 L 9.992188 7.988281 Z M 20 18 "/>
<path fill-rule="nonzero" fill="rgb(93.333333%, 93.333333%, 93.333333%)" fill-opacity="1" d="M 29.945312 27.824219 L 30.492188 28.972656 L 31.730469 28.6875 L 31.175781 29.832031 L 32.171875 30.621094 L 30.933594 30.902344 L 30.9375 32.171875 L 29.945312 31.378906 L 28.953125 32.171875 L 28.953125 30.902344 L 27.714844 30.621094 L 28.710938 29.832031 L 28.15625 28.6875 L 29.394531 28.972656 Z M 29.945312 27.824219 "/>
<path fill-rule="nonzero" fill="rgb(93.333333%, 93.333333%, 93.333333%)" fill-opacity="1" d="M 24.839844 15.652344 L 25.386719 16.800781 L 26.625 16.511719 L 26.070312 17.65625 L 27.066406 18.449219 L 25.828125 18.726562 L 25.832031 20 L 24.839844 19.203125 L 23.847656 20 L 23.847656 18.726562 L 22.609375 18.449219 L 23.605469 17.65625 L 23.050781 16.511719 L 24.289062 16.800781 Z M 24.839844 15.652344 "/>
<path fill-rule="nonzero" fill="rgb(93.333333%, 93.333333%, 93.333333%)" fill-opacity="1" d="M 29.945312 8.695312 L 30.492188 9.84375 L 31.730469 9.554688 L 31.175781 10.699219 L 32.171875 11.492188 L 30.933594 11.769531 L 30.9375 13.042969 L 29.945312 12.246094 L 28.953125 13.042969 L 28.953125 11.769531 L 27.714844 11.492188 L 28.710938 10.699219 L 28.15625 9.554688 L 29.394531 9.84375 Z M 29.945312 8.695312 "/>
<path fill-rule="nonzero" fill="rgb(93.333333%, 93.333333%, 93.333333%)" fill-opacity="1" d="M 34.402344 13.914062 L 34.953125 15.0625 L 36.191406 14.773438 L 35.636719 15.917969 L 36.632812 16.710938 L 35.394531 16.988281 L 35.394531 18.261719 L 34.402344 17.464844 L 33.410156 18.261719 L 33.414062 16.988281 L 32.175781 16.710938 L 33.171875 15.917969 L 32.617188 14.773438 L 33.855469 15.0625 Z M 34.402344 13.914062 "/>
<path fill-rule="nonzero" fill="rgb(93.333333%, 93.333333%, 93.333333%)" fill-opacity="1" d="M 31.214844 20 L 31.648438 21.328125 L 33.042969 21.328125 L 31.914062 22.148438 L 32.34375 23.476562 L 31.214844 22.65625 L 30.085938 23.476562 L 30.515625 22.148438 L 29.386719 21.328125 L 30.78125 21.328125 Z M 31.214844 20 "/>
<path fill-rule="nonzero" fill="rgb(93.333333%, 93.333333%, 93.333333%)" fill-opacity="1" d="M 12.03125 23.4375 L 13.125 25.78125 L 15.625 25.15625 L 14.53125 27.5 L 16.484375 29.0625 L 13.984375 29.609375 L 14.0625 32.1875 L 12.03125 30.546875 L 10 32.1875 L 10.078125 29.609375 L 7.5 29.0625 L 9.53125 27.5 L 8.4375 25.15625 L 10.9375 25.78125 Z M 12.03125 23.4375 "/>
</svg>
