<?xml version="1.0" encoding="UTF-8"?>
<svg xmlns="http://www.w3.org/2000/svg" xmlns:xlink="http://www.w3.org/1999/xlink" width="40" height="40" viewBox="0 0 40 40">
<path fill-rule="nonzero" fill="rgb(84.705882%, 0%, 15.294118%)" fill-opacity="1" d="M 40 20 C 40 31.046875 31.046875 40 20 40 C 8.953125 40 0 31.046875 0 20 C 0 8.953125 8.953125 0 20 0 C 31.046875 0 40 8.953125 40 20 Z M 40 20 "/>
<path fill-rule="nonzero" fill="rgb(0%, 32.156863%, 70.588235%)" fill-opacity="1" d="M 0 19.1875 C 0.425781 8.515625 9.210938 0 19.984375 0 C 19.988281 0 19.996094 0 20 0 L 20 20 L 0 20 Z M 0 19.1875 "/>
<path fill-rule="evenodd" fill="rgb(93.333333%, 93.333333%, 93.333333%)" fill-opacity="1" d="M 16.957031 10.6875 L 14.519531 11.832031 C 14.636719 11.472656 14.699219 11.085938 14.699219 10.6875 C 14.699219 10.289062 14.636719 9.902344 14.523438 9.542969 Z M 13.171875 13.695312 C 13.792969 13.238281 14.273438 12.59375 14.515625 11.84375 L 15.8125 14.203125 Z M 10.984375 14.410156 C 11.796875 14.40625 12.546875 14.144531 13.160156 13.703125 L 12.824219 16.375 Z M 8.796875 13.703125 C 9.40625 14.144531 10.160156 14.40625 10.972656 14.410156 L 9.128906 16.375 Z M 7.4375 11.84375 C 7.683594 12.59375 8.160156 13.238281 8.785156 13.695312 L 6.140625 14.203125 Z M 7.253906 10.6875 C 7.253906 11.085938 7.316406 11.472656 7.433594 11.832031 L 5 10.6875 L 7.433594 9.542969 C 7.316406 9.902344 7.253906 10.285156 7.253906 10.6875 Z M 8.785156 7.679688 C 8.160156 8.132812 7.683594 8.78125 7.4375 9.53125 L 6.140625 7.171875 Z M 10.96875 6.964844 C 10.15625 6.964844 9.40625 7.226562 8.796875 7.671875 L 9.128906 5 Z M 13.160156 7.667969 C 12.546875 7.226562 11.796875 6.964844 10.984375 6.964844 L 12.824219 5 Z M 15.8125 7.171875 L 13.171875 7.679688 C 13.796875 8.132812 14.273438 8.777344 14.519531 9.53125 Z M 8.992188 10.6875 C 8.992188 11.78125 9.882812 12.671875 10.976562 12.671875 C 12.070312 12.671875 12.960938 11.78125 12.960938 10.6875 C 12.960938 9.59375 12.070312 8.703125 10.976562 8.703125 C 9.882812 8.703125 8.992188 9.59375 8.992188 10.6875 Z M 8.992188 10.6875 "/>
</svg>
