<?xml version="1.0" encoding="UTF-8"?>
<svg xmlns="http://www.w3.org/2000/svg" xmlns:xlink="http://www.w3.org/1999/xlink" width="20" height="20" viewBox="0 0 20 20">
<path fill-rule="nonzero" fill="rgb(84.705882%, 0%, 15.294118%)" fill-opacity="1" d="M 20 10 C 20 15.523438 15.523438 20 10 20 C 4.476562 20 0 15.523438 0 10 C 0 4.476562 4.476562 0 10 0 C 15.523438 0 20 4.476562 20 10 Z M 20 10 "/>
<path fill-rule="nonzero" fill="rgb(0%, 32.156863%, 70.588235%)" fill-opacity="1" d="M 0 9.59375 C 0.214844 4.257812 4.605469 0 9.992188 0 C 9.996094 0 9.996094 0 10 0 L 10 10 L 0 10 Z M 0 9.59375 "/>
<path fill-rule="evenodd" fill="rgb(93.333333%, 93.333333%, 93.333333%)" fill-opacity="1" d="M 8.476562 5.34375 L 7.261719 5.914062 C 7.320312 5.734375 7.351562 5.542969 7.351562 5.34375 C 7.351562 5.144531 7.320312 4.953125 7.261719 4.769531 Z M 6.585938 6.847656 C 6.898438 6.621094 7.136719 6.296875 7.257812 5.921875 L 7.90625 7.101562 Z M 5.492188 7.203125 C 5.898438 7.203125 6.273438 7.074219 6.578125 6.851562 L 6.414062 8.1875 Z M 4.398438 6.851562 C 4.703125 7.074219 5.078125 7.203125 5.484375 7.203125 L 4.566406 8.1875 Z M 3.71875 5.921875 C 3.839844 6.296875 4.082031 6.621094 4.394531 6.847656 L 3.070312 7.101562 Z M 3.628906 5.34375 C 3.628906 5.542969 3.660156 5.734375 3.71875 5.914062 L 2.5 5.34375 L 3.71875 4.769531 C 3.660156 4.949219 3.628906 5.144531 3.628906 5.34375 Z M 4.390625 3.839844 C 4.082031 4.066406 3.839844 4.390625 3.71875 4.765625 L 3.070312 3.585938 Z M 5.484375 3.480469 C 5.078125 3.484375 4.703125 3.613281 4.398438 3.835938 L 4.566406 2.5 Z M 6.578125 3.835938 C 6.273438 3.613281 5.898438 3.484375 5.492188 3.480469 L 6.414062 2.5 Z M 7.90625 3.585938 L 6.585938 3.839844 C 6.898438 4.066406 7.136719 4.390625 7.257812 4.765625 Z M 4.496094 5.34375 C 4.496094 5.890625 4.941406 6.335938 5.488281 6.335938 C 6.035156 6.335938 6.480469 5.890625 6.480469 5.34375 C 6.480469 4.796875 6.035156 4.351562 5.488281 4.351562 C 4.941406 4.351562 4.496094 4.796875 4.496094 5.34375 Z M 4.496094 5.34375 "/>
</svg>
