<?xml version="1.0" encoding="UTF-8"?>
<svg xmlns="http://www.w3.org/2000/svg" xmlns:xlink="http://www.w3.org/1999/xlink" width="60" height="60" viewBox="0 0 60 60">
<path fill-rule="nonzero" fill="rgb(84.705882%, 0%, 15.294118%)" fill-opacity="1" d="M 60 30 C 60 46.570312 46.570312 60 30 60 C 13.429688 60 0 46.570312 0 30 C 0 13.429688 13.429688 0 30 0 C 46.570312 0 60 13.429688 60 30 Z M 60 30 "/>
<path fill-rule="nonzero" fill="rgb(0%, 32.156863%, 70.588235%)" fill-opacity="1" d="M 0 28.777344 C 0.640625 12.777344 13.816406 0 29.976562 0 C 29.984375 0 29.992188 0 30 0 L 30 30 L 0 30 Z M 0 28.777344 "/>
<path fill-rule="evenodd" fill="rgb(93.333333%, 93.333333%, 93.333333%)" fill-opacity="1" d="M 25.433594 16.03125 L 21.78125 17.746094 C 21.957031 17.207031 22.050781 16.628906 22.050781 16.03125 C 22.050781 15.429688 21.957031 14.855469 21.78125 14.3125 Z M 19.753906 20.542969 C 20.691406 19.859375 21.40625 18.890625 21.777344 17.765625 L 23.71875 21.300781 Z M 16.476562 21.613281 C 17.695312 21.613281 18.824219 21.21875 19.738281 20.554688 L 19.238281 24.558594 Z M 13.191406 20.554688 C 14.109375 21.21875 15.238281 21.613281 16.457031 21.613281 L 13.695312 24.558594 Z M 11.15625 17.765625 C 11.523438 18.890625 12.242188 19.859375 13.179688 20.542969 L 9.210938 21.300781 Z M 10.882812 16.03125 C 10.882812 16.628906 10.976562 17.207031 11.152344 17.75 L 7.5 16.03125 L 11.152344 14.3125 C 10.976562 14.851562 10.882812 15.429688 10.882812 16.03125 Z M 13.175781 11.515625 C 12.242188 12.199219 11.523438 13.167969 11.15625 14.296875 L 9.210938 10.757812 Z M 16.457031 10.445312 C 15.238281 10.449219 14.109375 10.839844 13.191406 11.503906 L 13.695312 7.5 Z M 19.738281 11.503906 C 18.824219 10.839844 17.695312 10.449219 16.476562 10.445312 L 19.238281 7.5 Z M 23.71875 10.757812 L 19.757812 11.515625 C 20.691406 12.199219 21.410156 13.167969 21.777344 14.292969 Z M 13.492188 16.03125 C 13.492188 17.671875 14.824219 19.003906 16.464844 19.003906 C 18.105469 19.003906 19.441406 17.671875 19.441406 16.03125 C 19.441406 14.390625 18.109375 13.054688 16.464844 13.054688 C 14.824219 13.054688 13.492188 14.390625 13.492188 16.03125 Z M 13.492188 16.03125 "/>
</svg>
