<?xml version="1.0" encoding="UTF-8"?>
<svg xmlns="http://www.w3.org/2000/svg" xmlns:xlink="http://www.w3.org/1999/xlink" width="20" height="20" viewBox="0 0 20 20">
<path fill-rule="nonzero" fill="rgb(84.705882%, 0%, 15.294118%)" fill-opacity="1" d="M 20 10 C 20 15.523438 15.523438 20 10 20 C 4.476562 20 0 15.523438 0 10 C 0 4.476562 4.476562 0 10 0 C 15.523438 0 20 4.476562 20 10 Z M 20 10 "/>
<path fill-rule="nonzero" fill="rgb(0%, 32.156863%, 70.588235%)" fill-opacity="1" d="M 0 9.59375 C 0.214844 4.257812 4.605469 0 9.992188 0 C 9.996094 0 9.996094 0 10 0 L 10 10 L 0 10 Z M 0 9.59375 "/>
<path fill-rule="nonzero" fill="rgb(93.333333%, 93.333333%, 93.333333%)" fill-opacity="1" d="M 7.820312 6.277344 L 7.984375 6.773438 L 8.507812 6.773438 L 8.082031 7.082031 L 8.246094 7.582031 L 7.820312 7.273438 L 7.398438 7.582031 L 7.558594 7.082031 L 7.136719 6.773438 L 7.660156 6.773438 Z M 7.820312 6.277344 "/>
<path fill-rule="nonzero" fill="rgb(93.333333%, 93.333333%, 93.333333%)" fill-opacity="1" d="M 5.191406 2.363281 L 5.460938 3.195312 L 6.332031 3.195312 L 5.625 3.707031 L 5.898438 4.539062 L 5.191406 4.023438 L 4.484375 4.539062 L 4.753906 3.707031 L 4.046875 3.195312 L 4.921875 3.195312 Z M 5.191406 2.363281 "/>
<path fill-rule="nonzero" fill="rgb(93.333333%, 93.333333%, 93.333333%)" fill-opacity="1" d="M 7.796875 3.234375 L 8.070312 4.0625 L 8.941406 4.0625 L 8.234375 4.578125 L 8.503906 5.40625 L 7.800781 4.894531 L 7.09375 5.40625 L 7.363281 4.578125 L 6.65625 4.0625 L 7.527344 4.0625 Z M 7.796875 3.234375 "/>
<path fill-rule="nonzero" fill="rgb(93.333333%, 93.333333%, 93.333333%)" fill-opacity="1" d="M 5.738281 6.710938 L 6.007812 7.542969 L 6.878906 7.542969 L 6.171875 8.054688 L 6.441406 8.886719 L 5.738281 8.371094 L 5.03125 8.886719 L 5.300781 8.054688 L 4.59375 7.542969 L 5.46875 7.542969 Z M 5.738281 6.710938 "/>
<path fill-rule="nonzero" fill="rgb(93.333333%, 93.333333%, 93.333333%)" fill-opacity="1" d="M 3.449219 4.539062 L 3.722656 5.367188 L 4.59375 5.367188 L 3.886719 5.882812 L 4.15625 6.710938 L 3.449219 6.199219 L 2.746094 6.710938 L 3.015625 5.882812 L 2.308594 5.367188 L 3.179688 5.367188 Z M 3.449219 4.539062 "/>
</svg>
