<?xml version="1.0" encoding="UTF-8"?>
<svg xmlns="http://www.w3.org/2000/svg" xmlns:xlink="http://www.w3.org/1999/xlink" width="60" height="60" viewBox="0 0 60 60">
<path fill-rule="nonzero" fill="rgb(84.705882%, 0%, 15.294118%)" fill-opacity="1" d="M 60 30 C 60 46.570312 46.570312 60 30 60 C 13.429688 60 0 46.570312 0 30 C 0 13.429688 13.429688 0 30 0 C 46.570312 0 60 13.429688 60 30 Z M 60 30 "/>
<path fill-rule="nonzero" fill="rgb(0%, 32.156863%, 70.588235%)" fill-opacity="1" d="M 0 28.777344 C 0.640625 12.777344 13.816406 0 29.976562 0 C 29.984375 0 29.992188 0 30 0 L 30 30 L 0 30 Z M 0 28.777344 "/>
<path fill-rule="nonzero" fill="rgb(93.333333%, 93.333333%, 93.333333%)" fill-opacity="1" d="M 23.464844 18.832031 L 23.949219 20.324219 L 25.519531 20.324219 L 24.25 21.25 L 24.734375 22.742188 L 23.464844 21.820312 L 22.191406 22.742188 L 22.675781 21.25 L 21.40625 20.324219 L 22.976562 20.324219 Z M 23.464844 18.832031 "/>
<path fill-rule="nonzero" fill="rgb(93.333333%, 93.333333%, 93.333333%)" fill-opacity="1" d="M 15.570312 7.09375 L 16.378906 9.582031 L 19 9.582031 L 16.878906 11.121094 L 17.691406 13.613281 L 15.570312 12.074219 L 13.453125 13.613281 L 14.261719 11.121094 L 12.140625 9.582031 L 14.761719 9.582031 Z M 15.570312 7.09375 "/>
<path fill-rule="nonzero" fill="rgb(93.333333%, 93.333333%, 93.333333%)" fill-opacity="1" d="M 23.398438 9.699219 L 24.207031 12.191406 L 26.824219 12.191406 L 24.707031 13.730469 L 25.515625 16.222656 L 23.398438 14.683594 L 21.277344 16.222656 L 22.085938 13.730469 L 19.96875 12.191406 L 22.585938 12.191406 Z M 23.398438 9.699219 "/>
<path fill-rule="nonzero" fill="rgb(93.333333%, 93.333333%, 93.333333%)" fill-opacity="1" d="M 17.210938 20.136719 L 18.019531 22.625 L 20.640625 22.625 L 18.519531 24.164062 L 19.328125 26.65625 L 17.210938 25.117188 L 15.089844 26.65625 L 15.902344 24.164062 L 13.78125 22.625 L 16.402344 22.625 Z M 17.210938 20.136719 "/>
<path fill-rule="nonzero" fill="rgb(93.333333%, 93.333333%, 93.333333%)" fill-opacity="1" d="M 10.351562 13.613281 L 11.164062 16.105469 L 13.78125 16.105469 L 11.664062 17.644531 L 12.472656 20.136719 L 10.351562 18.597656 L 8.234375 20.136719 L 9.042969 17.644531 L 6.925781 16.105469 L 9.542969 16.105469 Z M 10.351562 13.613281 "/>
</svg>
