<?xml version="1.0" encoding="UTF-8"?>
<svg xmlns="http://www.w3.org/2000/svg" xmlns:xlink="http://www.w3.org/1999/xlink" width="40" height="40" viewBox="0 0 40 40">
<path fill-rule="nonzero" fill="rgb(84.705882%, 0%, 15.294118%)" fill-opacity="1" d="M 40 20 C 40 31.046875 31.046875 40 20 40 C 8.953125 40 0 31.046875 0 20 C 0 8.953125 8.953125 0 20 0 C 31.046875 0 40 8.953125 40 20 Z M 40 20 "/>
<path fill-rule="nonzero" fill="rgb(0%, 32.156863%, 70.588235%)" fill-opacity="1" d="M 0 19.1875 C 0.425781 8.515625 9.210938 0 19.984375 0 C 19.988281 0 19.996094 0 20 0 L 20 20 L 0 20 Z M 0 19.1875 "/>
<path fill-rule="nonzero" fill="rgb(93.333333%, 93.333333%, 93.333333%)" fill-opacity="1" d="M 15.640625 12.554688 L 15.964844 13.550781 L 17.015625 13.550781 L 16.164062 14.167969 L 16.488281 15.164062 L 15.640625 14.546875 L 14.792969 15.164062 L 15.117188 14.167969 L 14.269531 13.550781 L 15.320312 13.550781 Z M 15.640625 12.554688 "/>
<path fill-rule="nonzero" fill="rgb(93.333333%, 93.333333%, 93.333333%)" fill-opacity="1" d="M 10.378906 4.726562 L 10.921875 6.390625 L 12.667969 6.390625 L 11.253906 7.414062 L 11.792969 9.074219 L 10.378906 8.050781 L 8.96875 9.074219 L 9.507812 7.414062 L 8.09375 6.390625 L 9.839844 6.390625 Z M 10.378906 4.726562 "/>
<path fill-rule="nonzero" fill="rgb(93.333333%, 93.333333%, 93.333333%)" fill-opacity="1" d="M 15.597656 6.46875 L 16.136719 8.128906 L 17.882812 8.128906 L 16.46875 9.15625 L 17.011719 10.816406 L 15.597656 9.789062 L 14.183594 10.816406 L 14.726562 9.15625 L 13.3125 8.128906 L 15.058594 8.128906 Z M 15.597656 6.46875 "/>
<path fill-rule="nonzero" fill="rgb(93.333333%, 93.333333%, 93.333333%)" fill-opacity="1" d="M 11.472656 13.421875 L 12.011719 15.085938 L 13.757812 15.085938 L 12.347656 16.109375 L 12.886719 17.769531 L 11.472656 16.746094 L 10.0625 17.769531 L 10.601562 16.109375 L 9.1875 15.085938 L 10.933594 15.085938 Z M 11.472656 13.421875 "/>
<path fill-rule="nonzero" fill="rgb(93.333333%, 93.333333%, 93.333333%)" fill-opacity="1" d="M 6.902344 9.074219 L 7.441406 10.738281 L 9.1875 10.738281 L 7.773438 11.761719 L 8.316406 13.421875 L 6.902344 12.398438 L 5.488281 13.421875 L 6.027344 11.761719 L 4.617188 10.738281 L 6.363281 10.738281 Z M 6.902344 9.074219 "/>
</svg>
