<?xml version="1.0" encoding="UTF-8"?>
<svg xmlns="http://www.w3.org/2000/svg" xmlns:xlink="http://www.w3.org/1999/xlink" width="340px" height="340px" viewBox="0 0 340 340" version="1.1">
<g id="surface1">
<path style=" stroke:none;fill-rule:nonzero;fill:rgb(100%,100%,100%);fill-opacity:1;" d="M 194.285156 268.355469 C 243.945312 256.078125 276.632812 208.671875 270.449219 157.890625 C 264.265625 107.113281 221.15625 68.933594 170 68.933594 C 118.84375 68.933594 75.734375 107.113281 69.550781 157.890625 C 63.367188 208.671875 96.054688 256.078125 145.714844 268.355469 L 145.714844 251.558594 C 105.269531 239.5 79.796875 199.59375 85.890625 157.832031 C 91.984375 116.070312 127.796875 85.101562 170 85.101562 C 212.203125 85.101562 248.015625 116.070312 254.109375 157.832031 C 260.203125 199.59375 234.730469 239.5 194.285156 251.558594 Z M 178.09375 297.5 L 178.09375 172.023438 C 178.09375 167.554688 174.472656 163.929688 170 163.929688 C 165.527344 163.929688 161.90625 167.554688 161.90625 172.023438 L 161.90625 297.5 C 161.90625 301.972656 165.527344 305.59375 170 305.59375 C 174.472656 305.59375 178.09375 301.972656 178.09375 297.5 Z M 178.09375 297.5 "/>
</g>
</svg>
