<svg xmlns="http://www.w3.org/2000/svg" width="56" height="56" viewBox="0 0 56 56">
    <path fill="#FFF" fill-rule="evenodd" d="M28 56C12.536 56 0 43.464 0 28S12.536 0 28 0s28 12.536 28 28-12.536 28-28 28zm-9.02-17a5.006 5.006 0 0 1 5.01 5h8.02c0-2.761 2.243-5 5.01-5 1.129 0 2.17.372 3.007 1L44 32.568A5 5 0 0 1 41.03 28 5 5 0 0 1 44 23.432L40.027 16c-.837.628-1.878 1-3.007 1a5.006 5.006 0 0 1-5.01-5h-8.02c0 2.761-2.243 5-5.01 5a4.997 4.997 0 0 1-3.007-1L12 23.432A5 5 0 0 1 14.97 28 5 5 0 0 1 12 32.568L15.973 40c.837-.628 1.878-1 3.007-1zm0-2a7.03 7.03 0 0 0-2.158.338l-2.197-4.11A6.988 6.988 0 0 0 16.975 28a6.988 6.988 0 0 0-2.35-5.229l2.197-4.109A7.03 7.03 0 0 0 18.98 19a7.017 7.017 0 0 0 6.725-5h4.59a7.017 7.017 0 0 0 6.725 5 7.03 7.03 0 0 0 2.158-.338l2.197 4.11A6.988 6.988 0 0 0 39.025 28c0 2.045.888 3.929 2.35 5.229l-2.197 4.109A7.03 7.03 0 0 0 37.02 37a7.017 7.017 0 0 0-6.725 5h-4.59a7.017 7.017 0 0 0-6.725-5zM28 34c3.321 0 6.014-2.686 6.014-6S31.32 22 28 22s-6.014 2.686-6.014 6S24.68 34 28 34zm0-2a4.005 4.005 0 0 1-4.01-4c0-2.21 1.796-4 4.01-4 2.214 0 4.01 1.79 4.01 4s-1.796 4-4.01 4z"/>
</svg>
