<?xml version="1.0" encoding="UTF-8"?>
<svg xmlns="http://www.w3.org/2000/svg" xmlns:xlink="http://www.w3.org/1999/xlink" width="20" height="20" viewBox="0 0 20 20">
<path fill-rule="evenodd" fill="rgb(93.333333%, 93.333333%, 93.333333%)" fill-opacity="1" d="M 14.445312 1.039062 L 14.445312 18.960938 C 13.105469 19.625 11.597656 20 10 20 C 4.476562 20 0 15.523438 0 10 C 0 4.476562 4.476562 0 10 0 C 11.597656 0 13.105469 0.375 14.445312 1.039062 Z M 14.445312 1.039062 "/>
<path fill-rule="evenodd" fill="rgb(45.882353%, 10.196078%, 27.45098%)" fill-opacity="1" d="M 10 20 C 15.523438 20 20 15.523438 20 10 C 20 4.476562 15.523438 0 10 0 C 8.699219 0 7.457031 0.25 6.316406 0.699219 L 7.824219 1.109375 L 3.75 2.222656 L 7.824219 3.332031 L 3.75 4.445312 L 7.824219 5.554688 L 3.75 6.667969 L 7.824219 7.777344 L 3.75 8.890625 L 7.824219 10 L 3.75 11.109375 L 7.824219 12.222656 L 3.75 13.332031 L 7.824219 14.445312 L 3.75 15.554688 L 7.824219 16.667969 L 3.75 17.777344 L 7.824219 18.890625 L 6.316406 19.300781 C 7.457031 19.75 8.699219 20 10 20 Z M 10 20 "/>
</svg>
