<?xml version="1.0" encoding="UTF-8"?>
<svg xmlns="http://www.w3.org/2000/svg" xmlns:xlink="http://www.w3.org/1999/xlink" width="40" height="40" viewBox="0 0 40 40">
<path fill-rule="evenodd" fill="rgb(93.333333%, 93.333333%, 93.333333%)" fill-opacity="1" d="M 28.890625 2.078125 L 28.890625 37.921875 C 26.210938 39.25 23.195312 40 20 40 C 8.953125 40 0 31.046875 0 20 C 0 8.953125 8.953125 0 20 0 C 23.191406 0 26.210938 0.75 28.890625 2.078125 Z M 28.890625 2.078125 "/>
<path fill-rule="evenodd" fill="rgb(45.882353%, 10.196078%, 27.45098%)" fill-opacity="1" d="M 20 40 C 31.046875 40 40 31.046875 40 20 C 40 8.953125 31.046875 0 20 0 C 17.398438 0 14.914062 0.496094 12.632812 1.398438 L 15.644531 2.222656 L 7.5 4.445312 L 15.644531 6.667969 L 7.5 8.890625 L 15.644531 11.109375 L 7.5 13.332031 L 15.644531 15.554688 L 7.5 17.777344 L 15.644531 20 L 7.5 22.222656 L 15.644531 24.445312 L 7.5 26.667969 L 15.644531 28.890625 L 7.5 31.109375 L 15.644531 33.332031 L 7.5 35.554688 L 15.644531 37.777344 L 12.632812 38.601562 C 14.914062 39.503906 17.398438 40 20 40 Z M 20 40 "/>
</svg>
