<?xml version="1.0" encoding="UTF-8"?>
<svg xmlns="http://www.w3.org/2000/svg" xmlns:xlink="http://www.w3.org/1999/xlink" width="60" height="60" viewBox="0 0 60 60">
<path fill-rule="evenodd" fill="rgb(93.333333%, 93.333333%, 93.333333%)" fill-opacity="1" d="M 43.335938 3.117188 L 43.335938 56.882812 C 39.316406 58.878906 34.789062 60 30 60 C 13.433594 60 0 46.566406 0 30 C 0 13.433594 13.433594 0 30 0 C 34.789062 0 39.316406 1.121094 43.335938 3.117188 Z M 43.335938 3.117188 "/>
<path fill-rule="evenodd" fill="rgb(45.882353%, 10.196078%, 27.45098%)" fill-opacity="1" d="M 30 60 C 46.566406 60 60 46.566406 60 30 C 60 13.433594 46.566406 0 30 0 C 26.097656 0 22.371094 0.746094 18.949219 2.101562 L 23.46875 3.332031 L 11.25 6.667969 L 23.46875 10 L 11.25 13.332031 L 23.46875 16.667969 L 11.25 20 L 23.46875 23.332031 L 11.25 26.667969 L 23.46875 30 L 11.25 33.332031 L 23.46875 36.667969 L 11.25 40 L 23.46875 43.332031 L 11.25 46.667969 L 23.46875 50 L 11.25 53.332031 L 23.46875 56.667969 L 18.949219 57.898438 C 22.371094 59.253906 26.097656 60 30 60 Z M 30 60 "/>
</svg>
