<?xml version="1.0" encoding="UTF-8"?>
<svg width="16px" height="16px" viewBox="0 0 16 16" version="1.1" xmlns="http://www.w3.org/2000/svg" xmlns:xlink="http://www.w3.org/1999/xlink">
    <title>C9947A9F-F1E4-44D1-8808-CA9A7F4B20EF</title>
    <g id="Preferences" stroke="none" stroke-width="1" fill="none" fill-rule="evenodd">
        <g id="Help-Dark" transform="translate(-113.000000, -577.000000)" fill="#FFFFFF" fill-rule="nonzero">
            <path d="M123,577 C124.104569,577 125,577.895431 125,579 L125,582 L123,582 L123,579 L115,579 L115,591 L118,591 L118,593 L115,593 C113.895431,593 113,592.104569 113,591 L113,579 C113,577.895431 113.895431,577 115,577 L123,577 Z M129,582 L126,592 L123.5,590.5 L120,593 L122,589 L127,584 L120,588 L117,586.5 L129,582 Z" id="sendlogicon"></path>
        </g>
    </g>
</svg>