<?xml version="1.0" encoding="UTF-8"?>
<svg xmlns="http://www.w3.org/2000/svg" xmlns:xlink="http://www.w3.org/1999/xlink" width="20" height="20" viewBox="0 0 20 20">
<path fill-rule="nonzero" fill="rgb(42.745098%, 64.705882%, 26.666667%)" fill-opacity="1" d="M 10 20 C 15.515625 20 19.988281 15.535156 20 10.019531 L 20 10 L 10 8.75 L 0 10 C 0 15.523438 4.476562 20 10 20 Z M 10 20 "/>
<path fill-rule="nonzero" fill="rgb(84.705882%, 0%, 15.294118%)" fill-opacity="1" d="M 20 9.980469 L 20 10 L 0 10 C 0 4.476562 4.476562 0 10 0 C 15.515625 0 19.988281 4.464844 20 9.980469 Z M 20 9.980469 "/>
<path fill-rule="nonzero" fill="rgb(100%, 85.490196%, 26.666667%)" fill-opacity="1" d="M 10 6.15625 L 10.863281 8.8125 L 13.65625 8.8125 L 11.398438 10.453125 L 12.261719 13.109375 L 10 11.46875 L 7.738281 13.109375 L 8.601562 10.453125 L 6.34375 8.8125 L 9.136719 8.8125 Z M 10 6.15625 "/>
</svg>
