<?xml version="1.0" encoding="UTF-8"?>
<svg xmlns="http://www.w3.org/2000/svg" xmlns:xlink="http://www.w3.org/1999/xlink" width="40" height="40" viewBox="0 0 40 40">
<path fill-rule="nonzero" fill="rgb(93.333333%, 93.333333%, 93.333333%)" fill-opacity="1" d="M 40 20 C 40 31.046875 31.046875 40 20 40 C 8.953125 40 0 31.046875 0 20 C 0 8.953125 8.953125 0 20 0 C 31.046875 0 40 8.953125 40 20 Z M 40 20 "/>
<path fill-rule="nonzero" fill="rgb(0%, 32.156863%, 70.588235%)" fill-opacity="1" d="M 19.1875 40 C 8.515625 39.574219 0 30.789062 0 20.015625 C 0 20.011719 0 20.003906 0 20 L 20 20 L 20 40 Z M 19.1875 40 "/>
<path fill-rule="nonzero" fill="rgb(84.705882%, 0%, 15.294118%)" fill-opacity="1" d="M 20.8125 0 C 31.484375 0.425781 40 9.210938 40 19.984375 L 40 20 L 20 20 L 20 0 Z M 20.8125 0 "/>
<path fill-rule="nonzero" fill="rgb(0%, 32.156863%, 70.588235%)" fill-opacity="1" d="M 11.726562 5.949219 L 13.023438 9.941406 L 17.21875 9.941406 L 13.824219 12.40625 L 15.121094 16.398438 L 11.726562 13.929688 L 8.332031 16.398438 L 9.628906 12.40625 L 6.234375 9.941406 L 10.429688 9.941406 Z M 11.726562 5.949219 "/>
<path fill-rule="nonzero" fill="rgb(84.705882%, 0%, 15.294118%)" fill-opacity="1" d="M 28.273438 22.5 L 29.570312 26.492188 L 33.765625 26.492188 L 30.371094 28.957031 L 31.667969 32.945312 L 28.273438 30.480469 L 24.878906 32.945312 L 26.175781 28.957031 L 22.78125 26.492188 L 26.976562 26.492188 Z M 28.273438 22.5 "/>
</svg>
