<?xml version="1.0" encoding="UTF-8"?>
<svg xmlns="http://www.w3.org/2000/svg" xmlns:xlink="http://www.w3.org/1999/xlink" width="20" height="20" viewBox="0 0 20 20">
<path fill-rule="nonzero" fill="rgb(93.333333%, 93.333333%, 93.333333%)" fill-opacity="1" d="M 20 10 C 20 15.523438 15.523438 20 10 20 C 4.476562 20 0 15.523438 0 10 C 0 4.476562 4.476562 0 10 0 C 15.523438 0 20 4.476562 20 10 Z M 20 10 "/>
<path fill-rule="nonzero" fill="rgb(0%, 32.156863%, 70.588235%)" fill-opacity="1" d="M 9.59375 20 C 4.257812 19.785156 0 15.394531 0 10.007812 C 0 10.003906 0 10.003906 0 10 L 10 10 L 10 20 Z M 9.59375 20 "/>
<path fill-rule="nonzero" fill="rgb(84.705882%, 0%, 15.294118%)" fill-opacity="1" d="M 10.40625 0 C 15.742188 0.214844 20 4.605469 20 9.992188 L 20 10 L 10 10 L 10 0 Z M 10.40625 0 "/>
<path fill-rule="nonzero" fill="rgb(0%, 32.156863%, 70.588235%)" fill-opacity="1" d="M 5.863281 2.976562 L 6.511719 4.96875 L 8.609375 4.96875 L 6.910156 6.203125 L 7.558594 8.199219 L 5.863281 6.964844 L 4.164062 8.199219 L 4.8125 6.203125 L 3.117188 4.96875 L 5.214844 4.96875 Z M 5.863281 2.976562 "/>
<path fill-rule="nonzero" fill="rgb(84.705882%, 0%, 15.294118%)" fill-opacity="1" d="M 14.136719 11.25 L 14.785156 13.246094 L 16.882812 13.246094 L 15.1875 14.476562 L 15.835938 16.472656 L 14.136719 15.242188 L 12.441406 16.472656 L 13.089844 14.476562 L 11.390625 13.246094 L 13.488281 13.246094 Z M 14.136719 11.25 "/>
</svg>
