<?xml version="1.0" encoding="UTF-8"?>
<svg xmlns="http://www.w3.org/2000/svg" xmlns:xlink="http://www.w3.org/1999/xlink" width="60" height="60" viewBox="0 0 60 60">
<path fill-rule="nonzero" fill="rgb(93.333333%, 93.333333%, 93.333333%)" fill-opacity="1" d="M 60 30 C 60 46.570312 46.570312 60 30 60 C 13.429688 60 0 46.570312 0 30 C 0 13.429688 13.429688 0 30 0 C 46.570312 0 60 13.429688 60 30 Z M 60 30 "/>
<path fill-rule="nonzero" fill="rgb(0%, 32.156863%, 70.588235%)" fill-opacity="1" d="M 28.777344 60 C 12.777344 59.359375 0 46.183594 0 30.023438 C 0 30.015625 0 30.007812 0 30 L 30 30 L 30 60 Z M 28.777344 60 "/>
<path fill-rule="nonzero" fill="rgb(84.705882%, 0%, 15.294118%)" fill-opacity="1" d="M 31.222656 0 C 47.222656 0.640625 60 13.816406 60 29.976562 L 60 30 L 30 30 L 30 0 Z M 31.222656 0 "/>
<path fill-rule="nonzero" fill="rgb(0%, 32.156863%, 70.588235%)" fill-opacity="1" d="M 17.585938 8.925781 L 19.53125 14.910156 L 25.824219 14.910156 L 20.734375 18.609375 L 22.679688 24.59375 L 17.585938 20.894531 L 12.496094 24.59375 L 14.441406 18.609375 L 9.347656 14.910156 L 15.644531 14.910156 Z M 17.585938 8.925781 "/>
<path fill-rule="nonzero" fill="rgb(84.705882%, 0%, 15.294118%)" fill-opacity="1" d="M 42.414062 33.75 L 44.355469 39.734375 L 50.652344 39.734375 L 45.558594 43.433594 L 47.503906 49.421875 L 42.414062 45.722656 L 37.320312 49.421875 L 39.265625 43.433594 L 34.175781 39.734375 L 40.46875 39.734375 Z M 42.414062 33.75 "/>
</svg>
