<?xml version="1.0" encoding="UTF-8"?>
<svg xmlns="http://www.w3.org/2000/svg" xmlns:xlink="http://www.w3.org/1999/xlink" width="20" height="20" viewBox="0 0 20 20">
<path fill-rule="nonzero" fill="rgb(100%, 85.490196%, 26.666667%)" fill-opacity="1" d="M 5 18.664062 C 6.472656 19.511719 8.179688 20 10 20 C 11.820312 20 13.527344 19.511719 15 18.664062 L 15 1.335938 C 13.527344 0.488281 11.820312 0 10 0 C 8.179688 0 6.472656 0.488281 5 1.335938 Z M 5 18.664062 "/>
<path fill-rule="nonzero" fill="rgb(0%, 32.156863%, 70.588235%)" fill-opacity="1" d="M 0 9.996094 C 0 6.042969 2.296875 2.628906 5.625 1.003906 L 5.625 18.996094 C 2.296875 17.371094 0 13.957031 0 10.003906 C 0 10 0 10 0 10 C 0 10 0 9.996094 0 9.996094 Z M 0 9.996094 "/>
<path fill-rule="nonzero" fill="rgb(0%, 32.156863%, 70.588235%)" fill-opacity="1" d="M 20 10 C 20 6.046875 17.707031 2.628906 14.375 1.003906 L 14.375 18.996094 C 17.707031 17.371094 20 13.953125 20 10 Z M 20 10 "/>
<path fill-rule="nonzero" fill="rgb(20%, 20%, 20%)" fill-opacity="1" d="M 13.042969 6.085938 L 12.460938 5.796875 C 12.425781 5.867188 11.664062 7.414062 11.539062 9.78125 L 10.652344 9.78125 L 10.652344 6.085938 L 10 5.21875 L 9.347656 6.085938 L 9.347656 9.78125 L 8.460938 9.78125 C 8.335938 7.414062 7.574219 5.867188 7.539062 5.796875 L 6.375 6.378906 C 6.382812 6.394531 7.171875 8.007812 7.171875 10.433594 L 7.171875 11.085938 L 9.347656 11.085938 L 9.347656 14.78125 L 10.652344 14.78125 L 10.652344 11.085938 L 12.824219 11.085938 L 12.824219 10.433594 C 12.824219 9.179688 13.042969 8.144531 13.226562 7.5 C 13.421875 6.792969 13.625 6.382812 13.628906 6.378906 Z M 13.042969 6.085938 "/>
</svg>
