<?xml version="1.0" encoding="UTF-8"?>
<svg xmlns="http://www.w3.org/2000/svg" xmlns:xlink="http://www.w3.org/1999/xlink" width="40" height="40" viewBox="0 0 40 40">
<path fill-rule="nonzero" fill="rgb(100%, 85.490196%, 26.666667%)" fill-opacity="1" d="M 10 37.324219 C 12.941406 39.027344 16.355469 40 20 40 C 23.644531 40 27.058594 39.027344 30 37.324219 L 30 2.675781 C 27.058594 0.972656 23.644531 0 20 0 C 16.355469 0 12.941406 0.972656 10 2.675781 Z M 10 37.324219 "/>
<path fill-rule="nonzero" fill="rgb(0%, 32.156863%, 70.588235%)" fill-opacity="1" d="M 0 19.992188 C 0.00390625 12.089844 4.589844 5.253906 11.25 2.011719 L 11.25 37.988281 C 4.589844 34.746094 0.00390625 27.910156 0 20.007812 C 0 20.003906 0 20 0 20 C 0 19.996094 0 19.996094 0 19.992188 Z M 0 19.992188 "/>
<path fill-rule="nonzero" fill="rgb(0%, 32.156863%, 70.588235%)" fill-opacity="1" d="M 40 20 C 40 12.09375 35.410156 5.257812 28.75 2.011719 L 28.75 37.988281 C 35.410156 34.742188 40 27.910156 40 20 Z M 40 20 "/>
<path fill-rule="nonzero" fill="rgb(20%, 20%, 20%)" fill-opacity="1" d="M 26.085938 12.175781 L 24.921875 11.589844 C 24.851562 11.730469 23.328125 14.832031 23.078125 19.566406 L 21.304688 19.566406 L 21.304688 12.175781 L 20 10.433594 L 18.695312 12.175781 L 18.695312 19.566406 L 16.921875 19.566406 C 16.671875 14.832031 15.148438 11.730469 15.078125 11.589844 L 12.746094 12.757812 C 12.761719 12.789062 14.347656 16.015625 14.347656 20.871094 L 14.347656 22.175781 L 18.695312 22.175781 L 18.695312 29.566406 L 21.304688 29.566406 L 21.304688 22.175781 L 25.652344 22.175781 L 25.652344 20.871094 C 25.652344 18.359375 26.085938 16.292969 26.449219 14.996094 C 26.847656 13.585938 27.25 12.761719 27.253906 12.753906 Z M 26.085938 12.175781 "/>
</svg>
