<?xml version="1.0" encoding="UTF-8"?>
<svg xmlns="http://www.w3.org/2000/svg" xmlns:xlink="http://www.w3.org/1999/xlink" width="60" height="60" viewBox="0 0 60 60">
<path fill-rule="nonzero" fill="rgb(100%, 85.490196%, 26.666667%)" fill-opacity="1" d="M 15 55.984375 C 19.414062 58.539062 24.535156 60 30 60 C 35.464844 60 40.585938 58.539062 45 55.984375 L 45 4.015625 C 40.585938 1.460938 35.464844 0 30 0 C 24.535156 0 19.414062 1.460938 15 4.015625 Z M 15 55.984375 "/>
<path fill-rule="nonzero" fill="rgb(0%, 32.156863%, 70.588235%)" fill-opacity="1" d="M 0 29.988281 C 0.00390625 18.132812 6.886719 7.882812 16.875 3.015625 L 16.875 56.984375 C 6.886719 52.117188 0.00390625 41.867188 0 30.007812 C 0 30.007812 0 30.003906 0 30 C 0 29.996094 0 29.992188 0 29.988281 Z M 0 29.988281 "/>
<path fill-rule="nonzero" fill="rgb(0%, 32.156863%, 70.588235%)" fill-opacity="1" d="M 60 30 C 60 18.136719 53.117188 7.882812 43.125 3.015625 L 43.125 56.984375 C 53.117188 52.117188 60 41.863281 60 30 Z M 60 30 "/>
<path fill-rule="nonzero" fill="rgb(20%, 20%, 20%)" fill-opacity="1" d="M 39.128906 18.261719 L 37.378906 17.386719 C 37.273438 17.597656 34.988281 22.246094 34.617188 29.347656 L 31.957031 29.347656 L 31.957031 18.261719 L 30 15.652344 L 28.042969 18.261719 L 28.042969 29.347656 L 25.382812 29.347656 C 25.007812 22.246094 22.726562 17.597656 22.621094 17.386719 L 19.121094 19.136719 C 19.144531 19.183594 21.519531 24.023438 21.519531 31.304688 L 21.519531 33.261719 L 28.042969 33.261719 L 28.042969 44.347656 L 31.957031 44.347656 L 31.957031 33.261719 L 38.476562 33.261719 L 38.476562 31.304688 C 38.476562 27.542969 39.128906 24.4375 39.675781 22.496094 C 40.269531 20.378906 40.875 19.144531 40.882812 19.132812 Z M 39.128906 18.261719 "/>
</svg>
