<?xml version="1.0" encoding="UTF-8"?>
<svg xmlns="http://www.w3.org/2000/svg" xmlns:xlink="http://www.w3.org/1999/xlink" width="40" height="40" viewBox="0 0 40 40">
<path fill-rule="nonzero" fill="rgb(93.333333%, 93.333333%, 93.333333%)" fill-opacity="1" d="M 40 20 C 40 31.046875 31.046875 40 20 40 C 8.953125 40 0 31.046875 0 20 C 0 8.953125 8.953125 0 20 0 C 31.046875 0 40 8.953125 40 20 Z M 40 20 "/>
<path fill-rule="nonzero" fill="rgb(84.705882%, 0%, 15.294118%)" fill-opacity="1" d="M 22.5 0.15625 C 21.695312 0.0546875 20.871094 0 20.039062 0 L 19.960938 0 C 19.128906 0 18.304688 0.0546875 17.5 0.15625 L 17.5 17.5 L 0.15625 17.5 C 0.0507812 18.320312 0 19.152344 0 20 C 0 20.847656 0.0507812 21.679688 0.15625 22.5 L 17.5 22.5 L 17.5 39.84375 C 18.320312 39.949219 19.152344 40 20 40 C 20.847656 40 21.679688 39.949219 22.5 39.84375 L 22.5 22.5 L 39.84375 22.5 C 39.949219 21.679688 40 20.847656 40 20 C 40 19.152344 39.949219 18.320312 39.84375 17.5 L 22.5 17.5 Z M 22.5 0.15625 "/>
<path fill-rule="nonzero" fill="rgb(84.705882%, 0%, 15.294118%)" fill-opacity="1" d="M 0 19.1875 C 0.425781 8.515625 9.210938 0 19.984375 0 C 19.988281 0 19.996094 0 20 0 L 20 20 L 0 20 Z M 0 19.1875 "/>
<path fill-rule="evenodd" fill="rgb(100%, 85.490196%, 26.666667%)" fill-opacity="1" d="M 8.097656 3.925781 C 8.355469 4.53125 8.976562 4.9375 9.6875 4.9375 L 14.21875 4.9375 C 14.453125 4.9375 14.6875 4.78125 14.6875 4.546875 C 14.6875 4.3125 14.453125 4.15625 14.21875 4.15625 L 10 4.15625 C 9.539062 4.15625 9.074219 3.8125 8.867188 3.382812 C 9.109375 3.21875 9.359375 3.0625 9.609375 2.90625 C 9.609375 3.140625 9.765625 3.296875 10 3.296875 L 14.21875 3.296875 C 14.921875 3.296875 15.46875 3.84375 15.46875 4.546875 C 15.46875 5.25 14.921875 5.796875 14.21875 5.796875 L 14.21875 10.09375 C 14.21875 10.25 14.0625 10.40625 13.90625 10.40625 L 10.625 10.40625 C 10.46875 10.40625 10.3125 10.25 10.3125 10.09375 C 10.3125 9.3125 10.9375 8.6875 11.71875 8.6875 L 12.421875 8.6875 L 12.421875 7.984375 L 7.96875 7.984375 L 7.96875 10.171875 C 7.96875 10.40625 7.8125 10.5625 7.578125 10.5625 L 4.375 10.5625 C 4.140625 10.5625 3.984375 10.40625 3.984375 10.171875 C 3.984375 9.390625 4.609375 8.765625 5.46875 8.765625 L 6.09375 8.765625 L 6.09375 8.0625 C 5.871094 8.0625 5.652344 8.015625 5.449219 7.929688 C 5.242188 7.84375 5.058594 7.714844 4.90625 7.554688 C 4.800781 7.445312 4.710938 7.320312 4.640625 7.1875 C 5.660156 5.96875 6.820312 4.875 8.097656 3.925781 Z M 10.425781 2.4375 C 10.941406 2.152344 11.472656 1.894531 12.019531 1.65625 L 14.21875 1.65625 L 14.21875 2.4375 Z M 4.980469 12.574219 C 5.316406 12.234375 5.773438 12.046875 6.25 12.046875 C 6.714844 12.066406 7.148438 12.265625 7.46875 12.601562 C 7.789062 12.933594 7.96875 13.378906 7.96875 13.84375 C 7.96875 14.78125 8.75 15.484375 9.6875 15.484375 L 14.21875 15.484375 C 14.453125 15.484375 14.6875 15.328125 14.6875 15.09375 C 14.6875 14.859375 14.453125 14.703125 14.21875 14.703125 L 10 14.703125 C 9.375 14.703125 8.75 14.078125 8.75 13.453125 C 8.75 12.75 9.375 12.203125 10 12.203125 L 14.21875 12.203125 L 14.21875 12.984375 L 10 12.984375 C 9.765625 12.984375 9.609375 13.21875 9.609375 13.453125 C 9.609375 13.6875 9.765625 13.84375 10 13.84375 L 14.21875 13.84375 C 14.921875 13.84375 15.46875 14.390625 15.46875 15.09375 C 15.46875 15.796875 14.921875 16.34375 14.21875 16.34375 L 14.21875 20.640625 C 14.21875 20.796875 14.0625 20.953125 13.90625 20.953125 L 10.625 20.953125 C 10.46875 20.953125 10.3125 20.796875 10.3125 20.640625 C 10.3125 19.859375 10.9375 19.234375 11.71875 19.234375 L 12.421875 19.234375 L 12.421875 18.53125 L 7.96875 18.53125 L 7.96875 20.71875 C 7.96875 20.953125 7.8125 21.109375 7.578125 21.109375 L 4.375 21.109375 C 4.140625 21.109375 3.984375 20.953125 3.984375 20.71875 C 3.984375 19.9375 4.609375 19.3125 5.46875 19.3125 L 6.09375 19.3125 L 6.09375 18.609375 C 5.871094 18.609375 5.652344 18.566406 5.449219 18.476562 C 5.242188 18.390625 5.058594 18.261719 4.90625 18.101562 C 4.75 17.941406 4.632812 17.75 4.554688 17.542969 C 4.476562 17.335938 4.441406 17.113281 4.453125 16.890625 L 2.34375 16.890625 C 2.1875 16.890625 2.03125 16.734375 2.03125 16.578125 L 2.03125 13.296875 C 2.03125 13.140625 2.1875 12.984375 2.34375 12.984375 C 3.125 12.984375 3.75 13.609375 3.75 14.390625 L 3.75 15.09375 L 4.453125 15.09375 L 4.453125 13.84375 C 4.453125 13.367188 4.640625 12.910156 4.980469 12.574219 Z M 4.980469 12.574219 "/>
</svg>
