<?xml version="1.0" encoding="UTF-8"?>
<svg xmlns="http://www.w3.org/2000/svg" xmlns:xlink="http://www.w3.org/1999/xlink" width="20" height="20" viewBox="0 0 20 20">
<path fill-rule="nonzero" fill="rgb(93.333333%, 93.333333%, 93.333333%)" fill-opacity="1" d="M 20 10 C 20 15.523438 15.523438 20 10 20 C 4.476562 20 0 15.523438 0 10 C 0 4.476562 4.476562 0 10 0 C 15.523438 0 20 4.476562 20 10 Z M 20 10 "/>
<path fill-rule="nonzero" fill="rgb(84.705882%, 0%, 15.294118%)" fill-opacity="1" d="M 11.25 0.078125 C 10.847656 0.0273438 10.4375 0 10.019531 0 L 9.980469 0 C 9.5625 0 9.152344 0.0273438 8.75 0.078125 L 8.75 8.75 L 0.078125 8.75 C 0.0273438 9.160156 0 9.578125 0 10 C 0 10.421875 0.0273438 10.839844 0.078125 11.25 L 8.75 11.25 L 8.75 19.921875 C 9.160156 19.972656 9.578125 20 10 20 C 10.421875 20 10.839844 19.972656 11.25 19.921875 L 11.25 11.25 L 19.921875 11.25 C 19.972656 10.839844 20 10.421875 20 10 C 20 9.578125 19.972656 9.160156 19.921875 8.75 L 11.25 8.75 Z M 11.25 0.078125 "/>
<path fill-rule="nonzero" fill="rgb(84.705882%, 0%, 15.294118%)" fill-opacity="1" d="M 0 9.59375 C 0.214844 4.257812 4.605469 0 9.992188 0 C 9.996094 0 9.996094 0 10 0 L 10 10 L 0 10 Z M 0 9.59375 "/>
<path fill-rule="evenodd" fill="rgb(100%, 85.490196%, 26.666667%)" fill-opacity="1" d="M 4.046875 1.964844 C 4.175781 2.265625 4.488281 2.46875 4.84375 2.46875 L 7.109375 2.46875 C 7.226562 2.46875 7.34375 2.390625 7.34375 2.273438 C 7.34375 2.15625 7.226562 2.078125 7.109375 2.078125 L 5 2.078125 C 4.769531 2.078125 4.539062 1.90625 4.433594 1.691406 C 4.554688 1.609375 4.679688 1.53125 4.804688 1.453125 C 4.804688 1.570312 4.882812 1.648438 5 1.648438 L 7.109375 1.648438 C 7.460938 1.648438 7.734375 1.921875 7.734375 2.273438 C 7.734375 2.625 7.460938 2.898438 7.109375 2.898438 L 7.109375 5.046875 C 7.109375 5.125 7.03125 5.203125 6.953125 5.203125 L 5.3125 5.203125 C 5.234375 5.203125 5.15625 5.125 5.15625 5.046875 C 5.15625 4.65625 5.46875 4.34375 5.859375 4.34375 L 6.210938 4.34375 L 6.210938 3.992188 L 3.984375 3.992188 L 3.984375 5.085938 C 3.984375 5.203125 3.90625 5.28125 3.789062 5.28125 L 2.1875 5.28125 C 2.070312 5.28125 1.992188 5.203125 1.992188 5.085938 C 1.992188 4.695312 2.304688 4.382812 2.734375 4.382812 L 3.046875 4.382812 L 3.046875 4.03125 C 2.9375 4.03125 2.824219 4.007812 2.722656 3.964844 C 2.621094 3.921875 2.527344 3.859375 2.453125 3.777344 C 2.398438 3.722656 2.355469 3.660156 2.320312 3.59375 C 2.828125 2.984375 3.410156 2.4375 4.046875 1.964844 Z M 5.210938 1.21875 C 5.472656 1.078125 5.738281 0.945312 6.007812 0.828125 L 7.109375 0.828125 L 7.109375 1.21875 Z M 2.488281 6.285156 C 2.660156 6.117188 2.886719 6.023438 3.125 6.023438 C 3.355469 6.035156 3.574219 6.132812 3.734375 6.300781 C 3.894531 6.46875 3.984375 6.691406 3.984375 6.921875 C 3.984375 7.390625 4.375 7.742188 4.84375 7.742188 L 7.109375 7.742188 C 7.226562 7.742188 7.34375 7.664062 7.34375 7.546875 C 7.34375 7.429688 7.226562 7.351562 7.109375 7.351562 L 5 7.351562 C 4.6875 7.351562 4.375 7.039062 4.375 6.726562 C 4.375 6.375 4.6875 6.101562 5 6.101562 L 7.109375 6.101562 L 7.109375 6.492188 L 5 6.492188 C 4.882812 6.492188 4.804688 6.609375 4.804688 6.726562 C 4.804688 6.84375 4.882812 6.921875 5 6.921875 L 7.109375 6.921875 C 7.460938 6.921875 7.734375 7.195312 7.734375 7.546875 C 7.734375 7.898438 7.460938 8.171875 7.109375 8.171875 L 7.109375 10.320312 C 7.109375 10.398438 7.03125 10.476562 6.953125 10.476562 L 5.3125 10.476562 C 5.234375 10.476562 5.15625 10.398438 5.15625 10.320312 C 5.15625 9.929688 5.46875 9.617188 5.859375 9.617188 L 6.210938 9.617188 L 6.210938 9.265625 L 3.984375 9.265625 L 3.984375 10.359375 C 3.984375 10.476562 3.90625 10.554688 3.789062 10.554688 L 2.1875 10.554688 C 2.070312 10.554688 1.992188 10.476562 1.992188 10.359375 C 1.992188 9.96875 2.304688 9.65625 2.734375 9.65625 L 3.046875 9.65625 L 3.046875 9.304688 C 2.9375 9.304688 2.824219 9.28125 2.722656 9.238281 C 2.621094 9.195312 2.53125 9.132812 2.453125 9.050781 C 2.375 8.96875 2.316406 8.875 2.277344 8.769531 C 2.238281 8.667969 2.222656 8.554688 2.226562 8.445312 L 1.171875 8.445312 C 1.09375 8.445312 1.015625 8.367188 1.015625 8.289062 L 1.015625 6.648438 C 1.015625 6.570312 1.09375 6.492188 1.171875 6.492188 C 1.5625 6.492188 1.875 6.804688 1.875 7.195312 L 1.875 7.546875 L 2.226562 7.546875 L 2.226562 6.921875 C 2.226562 6.683594 2.320312 6.453125 2.488281 6.285156 Z M 2.488281 6.285156 "/>
</svg>
