<?xml version="1.0" encoding="UTF-8"?>
<svg xmlns="http://www.w3.org/2000/svg" xmlns:xlink="http://www.w3.org/1999/xlink" width="60" height="60" viewBox="0 0 60 60">
<path fill-rule="nonzero" fill="rgb(93.333333%, 93.333333%, 93.333333%)" fill-opacity="1" d="M 60 30 C 60 46.570312 46.570312 60 30 60 C 13.429688 60 0 46.570312 0 30 C 0 13.429688 13.429688 0 30 0 C 46.570312 0 60 13.429688 60 30 Z M 60 30 "/>
<path fill-rule="nonzero" fill="rgb(84.705882%, 0%, 15.294118%)" fill-opacity="1" d="M 33.75 0.230469 C 32.539062 0.0820312 31.308594 0.00390625 30.058594 0 L 29.941406 0 C 28.691406 0.00390625 27.460938 0.0820312 26.25 0.230469 L 26.25 26.25 L 0.230469 26.25 C 0.078125 27.476562 0 28.730469 0 30 C 0 31.269531 0.078125 32.523438 0.230469 33.75 L 26.25 33.75 L 26.25 59.769531 C 27.476562 59.921875 28.730469 60 30 60 C 31.269531 60 32.523438 59.921875 33.75 59.769531 L 33.75 33.75 L 59.769531 33.75 C 59.921875 32.523438 60 31.269531 60 30 C 60 28.730469 59.921875 27.476562 59.769531 26.25 L 33.75 26.25 Z M 33.75 0.230469 "/>
<path fill-rule="nonzero" fill="rgb(84.705882%, 0%, 15.294118%)" fill-opacity="1" d="M 0 28.777344 C 0.640625 12.777344 13.816406 0 29.976562 0 C 29.984375 0 29.992188 0 30 0 L 30 30 L 0 30 Z M 0 28.777344 "/>
<path fill-rule="evenodd" fill="rgb(100%, 85.490196%, 26.666667%)" fill-opacity="1" d="M 12.144531 5.890625 C 12.53125 6.796875 13.464844 7.40625 14.53125 7.40625 L 21.328125 7.40625 C 21.679688 7.40625 22.03125 7.171875 22.03125 6.820312 C 22.03125 6.46875 21.679688 6.234375 21.328125 6.234375 L 15 6.234375 C 14.304688 6.234375 13.613281 5.722656 13.300781 5.074219 C 13.664062 4.828125 14.035156 4.589844 14.414062 4.363281 C 14.414062 4.710938 14.648438 4.945312 15 4.945312 L 21.328125 4.945312 C 22.382812 4.945312 23.203125 5.765625 23.203125 6.820312 C 23.203125 7.875 22.382812 8.695312 21.328125 8.695312 L 21.328125 15.140625 C 21.328125 15.375 21.09375 15.609375 20.859375 15.609375 L 15.9375 15.609375 C 15.703125 15.609375 15.46875 15.375 15.46875 15.140625 C 15.46875 13.96875 16.40625 13.03125 17.578125 13.03125 L 18.632812 13.03125 L 18.632812 11.976562 L 11.953125 11.976562 L 11.953125 15.257812 C 11.953125 15.609375 11.71875 15.84375 11.367188 15.84375 L 6.5625 15.84375 C 6.210938 15.84375 5.976562 15.609375 5.976562 15.257812 C 5.976562 14.085938 6.914062 13.148438 8.203125 13.148438 L 9.140625 13.148438 L 9.140625 12.09375 C 8.808594 12.09375 8.476562 12.027344 8.171875 11.894531 C 7.863281 11.765625 7.585938 11.574219 7.359375 11.332031 C 7.199219 11.167969 7.066406 10.984375 6.960938 10.78125 C 8.488281 8.953125 10.230469 7.3125 12.144531 5.890625 Z M 15.636719 3.65625 C 16.414062 3.230469 17.210938 2.839844 18.027344 2.484375 L 21.328125 2.484375 L 21.328125 3.65625 Z M 7.46875 18.859375 C 7.976562 18.355469 8.660156 18.070312 9.375 18.070312 C 10.070312 18.101562 10.726562 18.398438 11.207031 18.898438 C 11.6875 19.402344 11.953125 20.070312 11.953125 20.765625 C 11.953125 22.171875 13.125 23.226562 14.53125 23.226562 L 21.328125 23.226562 C 21.679688 23.226562 22.03125 22.992188 22.03125 22.640625 C 22.03125 22.289062 21.679688 22.054688 21.328125 22.054688 L 15 22.054688 C 14.0625 22.054688 13.125 21.117188 13.125 20.179688 C 13.125 19.125 14.0625 18.304688 15 18.304688 L 21.328125 18.304688 L 21.328125 19.476562 L 15 19.476562 C 14.648438 19.476562 14.414062 19.828125 14.414062 20.179688 C 14.414062 20.53125 14.648438 20.765625 15 20.765625 L 21.328125 20.765625 C 22.382812 20.765625 23.203125 21.585938 23.203125 22.640625 C 23.203125 23.695312 22.382812 24.515625 21.328125 24.515625 L 21.328125 30.960938 C 21.328125 31.195312 21.09375 31.429688 20.859375 31.429688 L 15.9375 31.429688 C 15.703125 31.429688 15.46875 31.195312 15.46875 30.960938 C 15.46875 29.789062 16.40625 28.851562 17.578125 28.851562 L 18.632812 28.851562 L 18.632812 27.796875 L 11.953125 27.796875 L 11.953125 31.078125 C 11.953125 31.429688 11.71875 31.664062 11.367188 31.664062 L 6.5625 31.664062 C 6.210938 31.664062 5.976562 31.429688 5.976562 31.078125 C 5.976562 29.90625 6.914062 28.96875 8.203125 28.96875 L 9.140625 28.96875 L 9.140625 27.914062 C 8.808594 27.914062 8.476562 27.847656 8.171875 27.714844 C 7.863281 27.585938 7.589844 27.394531 7.359375 27.152344 C 7.128906 26.910156 6.949219 26.625 6.832031 26.3125 C 6.714844 26 6.664062 25.667969 6.679688 25.335938 L 3.515625 25.335938 C 3.28125 25.335938 3.046875 25.101562 3.046875 24.867188 L 3.046875 19.945312 C 3.046875 19.710938 3.28125 19.476562 3.515625 19.476562 C 4.6875 19.476562 5.625 20.414062 5.625 21.585938 L 5.625 22.640625 L 6.679688 22.640625 L 6.679688 20.765625 C 6.679688 20.050781 6.964844 19.363281 7.46875 18.859375 Z M 7.46875 18.859375 "/>
</svg>
