<?xml version="1.0" encoding="UTF-8"?>
<svg xmlns="http://www.w3.org/2000/svg" xmlns:xlink="http://www.w3.org/1999/xlink" width="40" height="40" viewBox="0 0 40 40">
<path fill-rule="nonzero" fill="rgb(100%, 85.490196%, 26.666667%)" fill-opacity="1" d="M 30 2.675781 C 27.058594 0.972656 23.644531 0 20 0 C 16.355469 0 12.941406 0.972656 10 2.675781 L 10 37.324219 C 12.941406 39.027344 16.355469 40 20 40 C 23.644531 40 27.058594 39.027344 30 37.324219 Z M 30 2.675781 "/>
<path fill-rule="nonzero" fill="rgb(84.705882%, 0%, 15.294118%)" fill-opacity="1" d="M 40 20.007812 C 39.996094 27.910156 35.410156 34.746094 28.75 37.988281 L 28.75 2.011719 C 35.410156 5.253906 39.996094 12.089844 40 19.992188 Z M 40 20.007812 "/>
<path fill-rule="nonzero" fill="rgb(28.627451%, 43.137255%, 17.647059%)" fill-opacity="1" d="M 0 20 C 0 27.90625 4.589844 34.742188 11.25 37.988281 L 11.25 2.011719 C 4.589844 5.257812 0 12.089844 0 20 Z M 0 20 "/>
<path fill-rule="nonzero" fill="rgb(28.627451%, 43.137255%, 17.647059%)" fill-opacity="1" d="M 20 12.308594 L 21.726562 17.625 L 27.316406 17.625 L 22.792969 20.90625 L 24.519531 26.222656 L 20 22.9375 L 15.480469 26.222656 L 17.207031 20.90625 L 12.683594 17.625 L 18.273438 17.625 Z M 20 12.308594 "/>
</svg>
