<?xml version="1.0" encoding="UTF-8"?>
<svg xmlns="http://www.w3.org/2000/svg" xmlns:xlink="http://www.w3.org/1999/xlink" width="20" height="20" viewBox="0 0 20 20">
<path fill-rule="nonzero" fill="rgb(28.627451%, 43.137255%, 17.647059%)" fill-opacity="1" d="M 17.070312 2.929688 L 8.75 8.75 L 2.929688 17.070312 C 4.738281 18.878906 7.238281 20 10 20 C 15.484375 20 19.941406 15.582031 20 10.113281 L 20 9.886719 C 19.96875 7.171875 18.855469 4.714844 17.070312 2.929688 Z M 17.070312 2.929688 "/>
<path fill-rule="nonzero" fill="rgb(0%, 32.156863%, 70.588235%)" fill-opacity="1" d="M 17.070312 2.929688 L 2.929688 17.070312 C 1.117188 15.261719 0 12.761719 0 10 C 0 4.476562 4.476562 0.00390625 9.996094 0 C 9.996094 0 10 0 10 0 C 10 0 10.003906 0 10.003906 0 C 12.761719 0 15.261719 1.121094 17.070312 2.929688 Z M 17.070312 2.929688 "/>
<path fill-rule="nonzero" fill="rgb(100%, 85.490196%, 26.666667%)" fill-opacity="1" d="M 17.496094 3.390625 L 3.382812 17.503906 C 3.066406 17.226562 2.773438 16.933594 2.496094 16.621094 L 16.613281 2.503906 C 16.925781 2.78125 17.21875 3.074219 17.496094 3.390625 Z M 17.496094 3.390625 "/>
<path fill-rule="nonzero" fill="rgb(93.333333%, 93.333333%, 93.333333%)" fill-opacity="1" d="M 3.804688 3.605469 L 4.019531 4.269531 L 4.71875 4.269531 L 4.152344 4.679688 L 4.367188 5.34375 L 3.804688 4.933594 L 3.238281 5.34375 L 3.453125 4.679688 L 2.890625 4.269531 L 3.589844 4.269531 Z M 3.804688 3.605469 "/>
<path fill-rule="nonzero" fill="rgb(93.333333%, 93.333333%, 93.333333%)" fill-opacity="1" d="M 7.371094 3.605469 L 7.585938 4.269531 L 8.285156 4.269531 L 7.722656 4.679688 L 7.9375 5.34375 L 7.371094 4.933594 L 6.808594 5.34375 L 7.023438 4.679688 L 6.457031 4.269531 L 7.15625 4.269531 Z M 7.371094 3.605469 "/>
<path fill-rule="nonzero" fill="rgb(93.333333%, 93.333333%, 93.333333%)" fill-opacity="1" d="M 3.804688 7.082031 L 4.019531 7.746094 L 4.71875 7.746094 L 4.152344 8.15625 L 4.367188 8.820312 L 3.804688 8.410156 L 3.238281 8.820312 L 3.453125 8.15625 L 2.890625 7.746094 L 3.589844 7.746094 Z M 3.804688 7.082031 "/>
<path fill-rule="nonzero" fill="rgb(93.333333%, 93.333333%, 93.333333%)" fill-opacity="1" d="M 7.371094 7.082031 L 7.585938 7.746094 L 8.285156 7.746094 L 7.722656 8.15625 L 7.9375 8.820312 L 7.371094 8.410156 L 6.808594 8.820312 L 7.023438 8.15625 L 6.457031 7.746094 L 7.15625 7.746094 Z M 7.371094 7.082031 "/>
<path fill-rule="nonzero" fill="rgb(93.333333%, 93.333333%, 93.333333%)" fill-opacity="1" d="M 5.585938 5.34375 L 5.804688 6.007812 L 6.503906 6.007812 L 5.9375 6.417969 L 6.152344 7.082031 L 5.585938 6.671875 L 5.023438 7.082031 L 5.238281 6.417969 L 4.671875 6.007812 L 5.371094 6.007812 Z M 5.585938 5.34375 "/>
</svg>
