<?xml version="1.0" encoding="UTF-8"?>
<svg xmlns="http://www.w3.org/2000/svg" xmlns:xlink="http://www.w3.org/1999/xlink" width="60" height="60" viewBox="0 0 60 60">
<path fill-rule="nonzero" fill="rgb(28.627451%, 43.137255%, 17.647059%)" fill-opacity="1" d="M 51.210938 8.785156 L 26.25 26.25 L 8.785156 51.210938 C 14.214844 56.640625 21.714844 60 30 60 C 46.457031 60 59.820312 46.75 59.996094 30.335938 L 59.996094 29.664062 C 59.910156 21.511719 56.566406 14.140625 51.210938 8.785156 Z M 51.210938 8.785156 "/>
<path fill-rule="nonzero" fill="rgb(0%, 32.156863%, 70.588235%)" fill-opacity="1" d="M 51.210938 8.785156 L 8.785156 51.210938 C 3.355469 45.785156 0 38.285156 0 30 C 0 13.433594 13.425781 0.0078125 29.988281 0 C 29.992188 0 29.996094 0 30 0 C 30.003906 0 30.007812 0 30.007812 0 C 38.289062 0.00390625 45.785156 3.359375 51.210938 8.785156 Z M 51.210938 8.785156 "/>
<path fill-rule="nonzero" fill="rgb(100%, 85.490196%, 26.666667%)" fill-opacity="1" d="M 52.484375 10.167969 L 10.144531 52.507812 C 9.203125 51.679688 8.316406 50.796875 7.488281 49.859375 L 49.835938 7.511719 C 50.773438 8.339844 51.65625 9.226562 52.484375 10.167969 Z M 52.484375 10.167969 "/>
<path fill-rule="nonzero" fill="rgb(93.333333%, 93.333333%, 93.333333%)" fill-opacity="1" d="M 11.410156 10.8125 L 12.058594 12.804688 L 14.15625 12.804688 L 12.460938 14.035156 L 13.105469 16.027344 L 11.410156 14.796875 L 9.714844 16.027344 L 10.363281 14.035156 L 8.667969 12.804688 L 10.765625 12.804688 Z M 11.410156 10.8125 "/>
<path fill-rule="nonzero" fill="rgb(93.333333%, 93.333333%, 93.333333%)" fill-opacity="1" d="M 22.117188 10.8125 L 22.761719 12.804688 L 24.859375 12.804688 L 23.164062 14.035156 L 23.8125 16.027344 L 22.117188 14.796875 L 20.421875 16.027344 L 21.066406 14.035156 L 19.371094 12.804688 L 21.46875 12.804688 Z M 22.117188 10.8125 "/>
<path fill-rule="nonzero" fill="rgb(93.333333%, 93.333333%, 93.333333%)" fill-opacity="1" d="M 11.410156 21.246094 L 12.058594 23.242188 L 14.15625 23.242188 L 12.460938 24.472656 L 13.105469 26.464844 L 11.410156 25.234375 L 9.714844 26.464844 L 10.363281 24.472656 L 8.667969 23.242188 L 10.765625 23.242188 Z M 11.410156 21.246094 "/>
<path fill-rule="nonzero" fill="rgb(93.333333%, 93.333333%, 93.333333%)" fill-opacity="1" d="M 22.117188 21.246094 L 22.761719 23.242188 L 24.859375 23.242188 L 23.164062 24.472656 L 23.8125 26.464844 L 22.117188 25.234375 L 20.421875 26.464844 L 21.066406 24.472656 L 19.371094 23.242188 L 21.46875 23.242188 Z M 22.117188 21.246094 "/>
<path fill-rule="nonzero" fill="rgb(93.333333%, 93.333333%, 93.333333%)" fill-opacity="1" d="M 16.765625 16.027344 L 17.410156 18.023438 L 19.507812 18.023438 L 17.8125 19.253906 L 18.460938 21.246094 L 16.761719 20.015625 L 15.066406 21.246094 L 15.714844 19.253906 L 14.019531 18.023438 L 16.117188 18.023438 L 16.761719 16.027344 Z M 16.765625 16.027344 "/>
</svg>
