<?xml version="1.0" encoding="UTF-8"?>
<svg xmlns="http://www.w3.org/2000/svg" xmlns:xlink="http://www.w3.org/1999/xlink" width="40" height="40" viewBox="0 0 40 40">
<path fill-rule="nonzero" fill="rgb(28.627451%, 43.137255%, 17.647059%)" fill-opacity="1" d="M 34.140625 5.855469 L 17.5 17.5 L 5.855469 34.140625 C 9.476562 37.761719 14.476562 40 20 40 C 30.972656 40 39.878906 31.164062 40 20.222656 L 40 19.777344 C 39.9375 14.34375 37.710938 9.429688 34.140625 5.859375 Z M 34.140625 5.855469 "/>
<path fill-rule="nonzero" fill="rgb(0%, 32.156863%, 70.588235%)" fill-opacity="1" d="M 34.140625 5.855469 L 5.855469 34.140625 C 2.238281 30.523438 0 25.523438 0 20 C 0 8.957031 8.949219 0.00390625 19.992188 0 C 19.996094 0 19.996094 0 20 0 C 20 0 20.003906 0 20.007812 0 C 25.527344 0.00390625 30.523438 2.238281 34.140625 5.859375 Z M 34.140625 5.855469 "/>
<path fill-rule="nonzero" fill="rgb(100%, 85.490196%, 26.666667%)" fill-opacity="1" d="M 34.988281 6.777344 L 6.761719 35.007812 C 6.136719 34.453125 5.546875 33.863281 4.992188 33.238281 L 33.222656 5.007812 C 33.847656 5.5625 34.4375 6.152344 34.992188 6.777344 Z M 34.988281 6.777344 "/>
<path fill-rule="nonzero" fill="rgb(93.333333%, 93.333333%, 93.333333%)" fill-opacity="1" d="M 7.609375 7.207031 L 8.039062 8.535156 L 9.4375 8.535156 L 8.304688 9.359375 L 8.738281 10.6875 L 7.609375 9.863281 L 6.476562 10.6875 L 6.910156 9.359375 L 5.777344 8.535156 L 7.175781 8.535156 Z M 7.609375 7.207031 "/>
<path fill-rule="nonzero" fill="rgb(93.333333%, 93.333333%, 93.333333%)" fill-opacity="1" d="M 14.742188 7.207031 L 15.175781 8.535156 L 16.574219 8.535156 L 15.441406 9.359375 L 15.875 10.6875 L 14.742188 9.863281 L 13.613281 10.6875 L 14.046875 9.359375 L 12.914062 8.535156 L 14.3125 8.535156 Z M 14.742188 7.207031 "/>
<path fill-rule="nonzero" fill="rgb(93.333333%, 93.333333%, 93.333333%)" fill-opacity="1" d="M 7.609375 14.164062 L 8.039062 15.492188 L 9.4375 15.492188 L 8.304688 16.316406 L 8.738281 17.644531 L 7.609375 16.820312 L 6.476562 17.644531 L 6.910156 16.316406 L 5.777344 15.492188 L 7.175781 15.492188 Z M 7.609375 14.164062 "/>
<path fill-rule="nonzero" fill="rgb(93.333333%, 93.333333%, 93.333333%)" fill-opacity="1" d="M 14.742188 14.164062 L 15.175781 15.492188 L 16.574219 15.492188 L 15.441406 16.316406 L 15.875 17.644531 L 14.742188 16.820312 L 13.613281 17.644531 L 14.046875 16.316406 L 12.914062 15.492188 L 14.3125 15.492188 Z M 14.742188 14.164062 "/>
<path fill-rule="nonzero" fill="rgb(93.333333%, 93.333333%, 93.333333%)" fill-opacity="1" d="M 11.175781 10.6875 L 11.609375 12.015625 L 13.003906 12.015625 L 11.875 12.835938 L 12.304688 14.164062 L 11.175781 13.34375 L 10.046875 14.164062 L 10.476562 12.835938 L 9.347656 12.015625 L 10.742188 12.015625 Z M 11.175781 10.6875 "/>
</svg>
