<?xml version="1.0" encoding="UTF-8"?>
<svg xmlns="http://www.w3.org/2000/svg" xmlns:xlink="http://www.w3.org/1999/xlink" width="60" height="60" viewBox="0 0 60 60">
<path fill-rule="nonzero" fill="rgb(93.333333%, 93.333333%, 93.333333%)" fill-opacity="1" d="M 60 30 C 60 46.570312 46.570312 60 30 60 C 13.429688 60 0 46.570312 0 30 C 0 13.429688 13.429688 0 30 0 C 46.570312 0 60 13.429688 60 30 Z M 60 30 "/>
<path fill-rule="nonzero" fill="rgb(20%, 20%, 20%)" fill-opacity="1" d="M 10.632812 18.007812 L 18.011719 10.632812 L 16.167969 8.789062 L 8.789062 16.164062 Z M 10.632812 18.007812 "/>
<path fill-rule="nonzero" fill="rgb(20%, 20%, 20%)" fill-opacity="1" d="M 41.992188 10.636719 L 44.757812 13.402344 L 46.605469 11.558594 L 43.835938 8.792969 Z M 41.992188 10.636719 "/>
<path fill-rule="nonzero" fill="rgb(20%, 20%, 20%)" fill-opacity="1" d="M 46.605469 20.78125 L 39.226562 13.40625 L 41.074219 11.558594 L 48.449219 18.9375 Z M 46.605469 20.78125 "/>
<path fill-rule="nonzero" fill="rgb(20%, 20%, 20%)" fill-opacity="1" d="M 43.824219 36.457031 L 41.058594 39.222656 L 42.902344 41.066406 L 45.671875 38.300781 Z M 43.824219 36.457031 "/>
<path fill-rule="nonzero" fill="rgb(20%, 20%, 20%)" fill-opacity="1" d="M 39.214844 41.070312 L 36.445312 43.835938 L 38.292969 45.679688 L 41.058594 42.914062 Z M 39.214844 41.070312 "/>
<path fill-rule="nonzero" fill="rgb(20%, 20%, 20%)" fill-opacity="1" d="M 46.59375 44.757812 L 49.359375 41.988281 L 51.203125 43.835938 L 48.4375 46.601562 Z M 46.59375 44.757812 "/>
<path fill-rule="nonzero" fill="rgb(20%, 20%, 20%)" fill-opacity="1" d="M 44.746094 46.601562 L 41.980469 49.367188 L 43.824219 51.210938 L 46.589844 48.445312 Z M 44.746094 46.601562 "/>
<path fill-rule="nonzero" fill="rgb(20%, 20%, 20%)" fill-opacity="1" d="M 43.824219 41.992188 L 46.59375 39.222656 L 48.4375 41.070312 L 45.671875 43.835938 Z M 43.824219 41.992188 "/>
<path fill-rule="nonzero" fill="rgb(20%, 20%, 20%)" fill-opacity="1" d="M 41.980469 43.835938 L 39.214844 46.601562 L 41.058594 48.445312 L 43.824219 45.679688 Z M 41.980469 43.835938 "/>
<path fill-rule="nonzero" fill="rgb(20%, 20%, 20%)" fill-opacity="1" d="M 36.460938 16.171875 L 39.226562 18.9375 L 41.070312 17.09375 L 38.304688 14.328125 Z M 36.460938 16.171875 "/>
<path fill-rule="nonzero" fill="rgb(20%, 20%, 20%)" fill-opacity="1" d="M 43.835938 23.550781 L 41.070312 20.785156 L 42.914062 18.9375 L 45.683594 21.707031 Z M 43.835938 23.550781 "/>
<path fill-rule="nonzero" fill="rgb(20%, 20%, 20%)" fill-opacity="1" d="M 49.371094 18.015625 L 46.605469 15.25 L 48.449219 13.40625 L 51.214844 16.171875 Z M 49.371094 18.015625 "/>
<path fill-rule="nonzero" fill="rgb(20%, 20%, 20%)" fill-opacity="1" d="M 18.011719 49.363281 L 10.636719 41.984375 L 8.792969 43.828125 L 16.167969 51.207031 Z M 18.011719 49.363281 "/>
<path fill-rule="nonzero" fill="rgb(20%, 20%, 20%)" fill-opacity="1" d="M 18.011719 43.828125 L 20.777344 46.59375 L 18.933594 48.4375 L 16.167969 45.671875 Z M 18.011719 43.828125 "/>
<path fill-rule="nonzero" fill="rgb(20%, 20%, 20%)" fill-opacity="1" d="M 16.167969 41.984375 L 13.402344 39.21875 L 11.554688 41.0625 L 14.324219 43.828125 Z M 16.167969 41.984375 "/>
<path fill-rule="nonzero" fill="rgb(20%, 20%, 20%)" fill-opacity="1" d="M 16.167969 36.449219 L 23.542969 43.828125 L 21.699219 45.671875 L 14.324219 38.292969 Z M 16.167969 36.449219 "/>
<path fill-rule="nonzero" fill="rgb(20%, 20%, 20%)" fill-opacity="1" d="M 20.777344 13.398438 L 13.402344 20.773438 L 11.558594 18.929688 L 18.933594 11.554688 Z M 20.777344 13.398438 "/>
<path fill-rule="nonzero" fill="rgb(20%, 20%, 20%)" fill-opacity="1" d="M 16.167969 23.542969 L 23.546875 16.164062 L 21.703125 14.320312 L 14.324219 21.699219 Z M 16.167969 23.542969 "/>
<path fill-rule="nonzero" fill="rgb(84.705882%, 0%, 15.294118%)" fill-opacity="1" d="M 22.042969 22.046875 C 17.652344 26.4375 17.652344 33.5625 22.042969 37.953125 C 26.4375 42.347656 33.5625 42.347656 37.953125 37.953125 C 42.347656 33.5625 42.347656 26.4375 37.953125 22.046875 C 33.5625 17.652344 26.4375 17.652344 22.042969 22.046875 Z M 22.042969 22.046875 "/>
<path fill-rule="nonzero" fill="rgb(0%, 32.156863%, 70.588235%)" fill-opacity="1" d="M 22.042969 22.046875 C 17.652344 26.4375 17.648438 33.558594 22.039062 37.949219 C 26.429688 42.335938 33.5625 42.347656 37.953125 37.957031 C 40.152344 35.757812 40.15625 32.191406 37.957031 29.992188 C 35.757812 27.789062 32.195312 27.800781 29.996094 30 C 27.796875 32.199219 24.234375 32.203125 22.035156 30.003906 C 19.835938 27.804688 19.84375 24.246094 22.042969 22.046875 Z M 22.042969 22.046875 "/>
</svg>
