<?xml version="1.0" encoding="UTF-8"?>
<svg xmlns="http://www.w3.org/2000/svg" xmlns:xlink="http://www.w3.org/1999/xlink" width="40" height="40" viewBox="0 0 40 40">
<path fill-rule="nonzero" fill="rgb(93.333333%, 93.333333%, 93.333333%)" fill-opacity="1" d="M 40 20 C 40 31.046875 31.046875 40 20 40 C 8.953125 40 0 31.046875 0 20 C 0 8.953125 8.953125 0 20 0 C 31.046875 0 40 8.953125 40 20 Z M 40 20 "/>
<path fill-rule="nonzero" fill="rgb(20%, 20%, 20%)" fill-opacity="1" d="M 7.089844 12.007812 L 12.007812 7.089844 L 10.777344 5.859375 L 5.859375 10.777344 Z M 7.089844 12.007812 "/>
<path fill-rule="nonzero" fill="rgb(20%, 20%, 20%)" fill-opacity="1" d="M 27.996094 7.089844 L 29.839844 8.9375 L 31.070312 7.707031 L 29.226562 5.863281 Z M 27.996094 7.089844 "/>
<path fill-rule="nonzero" fill="rgb(20%, 20%, 20%)" fill-opacity="1" d="M 31.070312 13.855469 L 26.152344 8.9375 L 27.382812 7.707031 L 32.300781 12.625 Z M 31.070312 13.855469 "/>
<path fill-rule="nonzero" fill="rgb(20%, 20%, 20%)" fill-opacity="1" d="M 29.21875 24.304688 L 27.371094 26.148438 L 28.601562 27.378906 L 30.445312 25.535156 Z M 29.21875 24.304688 "/>
<path fill-rule="nonzero" fill="rgb(20%, 20%, 20%)" fill-opacity="1" d="M 26.140625 27.378906 L 24.296875 29.222656 L 25.527344 30.453125 L 27.371094 28.609375 Z M 26.140625 27.378906 "/>
<path fill-rule="nonzero" fill="rgb(20%, 20%, 20%)" fill-opacity="1" d="M 31.0625 29.835938 L 32.90625 27.992188 L 34.136719 29.222656 L 32.292969 31.066406 Z M 31.0625 29.835938 "/>
<path fill-rule="nonzero" fill="rgb(20%, 20%, 20%)" fill-opacity="1" d="M 29.832031 31.066406 L 27.988281 32.914062 L 29.214844 34.140625 L 31.0625 32.296875 Z M 29.832031 31.066406 "/>
<path fill-rule="nonzero" fill="rgb(20%, 20%, 20%)" fill-opacity="1" d="M 29.21875 27.992188 L 31.0625 26.148438 L 32.292969 27.378906 L 30.445312 29.222656 Z M 29.21875 27.992188 "/>
<path fill-rule="nonzero" fill="rgb(20%, 20%, 20%)" fill-opacity="1" d="M 27.988281 29.222656 L 26.144531 31.066406 L 27.371094 32.296875 L 29.21875 30.453125 Z M 27.988281 29.222656 "/>
<path fill-rule="nonzero" fill="rgb(20%, 20%, 20%)" fill-opacity="1" d="M 24.304688 10.78125 L 26.152344 12.625 L 27.378906 11.394531 L 25.535156 9.550781 Z M 24.304688 10.78125 "/>
<path fill-rule="nonzero" fill="rgb(20%, 20%, 20%)" fill-opacity="1" d="M 29.226562 15.699219 L 27.378906 13.855469 L 28.609375 12.625 L 30.453125 14.46875 Z M 29.226562 15.699219 "/>
<path fill-rule="nonzero" fill="rgb(20%, 20%, 20%)" fill-opacity="1" d="M 32.914062 12.011719 L 31.070312 10.167969 L 32.300781 8.9375 L 34.144531 10.78125 Z M 32.914062 12.011719 "/>
<path fill-rule="nonzero" fill="rgb(20%, 20%, 20%)" fill-opacity="1" d="M 12.007812 32.90625 L 7.089844 27.988281 L 5.859375 29.21875 L 10.777344 34.136719 Z M 12.007812 32.90625 "/>
<path fill-rule="nonzero" fill="rgb(20%, 20%, 20%)" fill-opacity="1" d="M 12.007812 29.21875 L 13.851562 31.0625 L 12.621094 32.292969 L 10.777344 30.449219 Z M 12.007812 29.21875 "/>
<path fill-rule="nonzero" fill="rgb(20%, 20%, 20%)" fill-opacity="1" d="M 10.777344 27.988281 L 8.933594 26.144531 L 7.703125 27.375 L 9.546875 29.21875 Z M 10.777344 27.988281 "/>
<path fill-rule="nonzero" fill="rgb(20%, 20%, 20%)" fill-opacity="1" d="M 10.777344 24.300781 L 15.695312 29.21875 L 14.46875 30.449219 L 9.546875 25.53125 Z M 10.777344 24.300781 "/>
<path fill-rule="nonzero" fill="rgb(20%, 20%, 20%)" fill-opacity="1" d="M 13.851562 8.933594 L 8.933594 13.851562 L 7.703125 12.621094 L 12.621094 7.703125 Z M 13.851562 8.933594 "/>
<path fill-rule="nonzero" fill="rgb(20%, 20%, 20%)" fill-opacity="1" d="M 10.78125 15.695312 L 15.699219 10.777344 L 14.46875 9.546875 L 9.550781 14.464844 Z M 10.78125 15.695312 "/>
<path fill-rule="nonzero" fill="rgb(84.705882%, 0%, 15.294118%)" fill-opacity="1" d="M 14.695312 14.695312 C 11.765625 17.625 11.765625 22.375 14.695312 25.304688 C 17.625 28.230469 22.375 28.230469 25.304688 25.304688 C 28.230469 22.375 28.230469 17.625 25.304688 14.695312 C 22.375 11.769531 17.625 11.769531 14.695312 14.695312 Z M 14.695312 14.695312 "/>
<path fill-rule="nonzero" fill="rgb(0%, 32.156863%, 70.588235%)" fill-opacity="1" d="M 14.695312 14.699219 C 11.769531 17.625 11.765625 22.371094 14.691406 25.296875 C 17.617188 28.226562 22.375 28.230469 25.300781 25.304688 C 26.765625 23.839844 26.773438 21.460938 25.304688 19.992188 C 23.839844 18.527344 21.464844 18.535156 19.996094 20 C 18.53125 21.464844 16.15625 21.46875 14.6875 20.003906 C 13.222656 18.535156 13.230469 16.164062 14.695312 14.699219 Z M 14.695312 14.699219 "/>
</svg>
