<?xml version="1.0" encoding="UTF-8"?>
<svg xmlns="http://www.w3.org/2000/svg" xmlns:xlink="http://www.w3.org/1999/xlink" width="20" height="20" viewBox="0 0 20 20">
<path fill-rule="nonzero" fill="rgb(93.333333%, 93.333333%, 93.333333%)" fill-opacity="1" d="M 20 10 C 20 15.523438 15.523438 20 10 20 C 4.476562 20 0 15.523438 0 10 C 0 4.476562 4.476562 0 10 0 C 15.523438 0 20 4.476562 20 10 Z M 20 10 "/>
<path fill-rule="nonzero" fill="rgb(20%, 20%, 20%)" fill-opacity="1" d="M 3.542969 6.003906 L 6.003906 3.542969 L 5.390625 2.929688 L 2.929688 5.386719 Z M 3.542969 6.003906 "/>
<path fill-rule="nonzero" fill="rgb(20%, 20%, 20%)" fill-opacity="1" d="M 13.996094 3.546875 L 14.917969 4.46875 L 15.535156 3.851562 L 14.613281 2.929688 Z M 13.996094 3.546875 "/>
<path fill-rule="nonzero" fill="rgb(20%, 20%, 20%)" fill-opacity="1" d="M 15.535156 6.925781 L 13.074219 4.46875 L 13.691406 3.851562 L 16.148438 6.3125 Z M 15.535156 6.925781 "/>
<path fill-rule="nonzero" fill="rgb(20%, 20%, 20%)" fill-opacity="1" d="M 14.609375 12.152344 L 13.6875 13.074219 L 14.300781 13.6875 L 15.222656 12.765625 Z M 14.609375 12.152344 "/>
<path fill-rule="nonzero" fill="rgb(20%, 20%, 20%)" fill-opacity="1" d="M 13.070312 13.6875 L 12.148438 14.613281 L 12.765625 15.226562 L 13.6875 14.304688 Z M 13.070312 13.6875 "/>
<path fill-rule="nonzero" fill="rgb(20%, 20%, 20%)" fill-opacity="1" d="M 15.53125 14.917969 L 16.453125 13.996094 L 17.066406 14.613281 L 16.144531 15.535156 Z M 15.53125 14.917969 "/>
<path fill-rule="nonzero" fill="rgb(20%, 20%, 20%)" fill-opacity="1" d="M 14.914062 15.535156 L 13.992188 16.457031 L 14.609375 17.070312 L 15.53125 16.148438 Z M 14.914062 15.535156 "/>
<path fill-rule="nonzero" fill="rgb(20%, 20%, 20%)" fill-opacity="1" d="M 14.609375 13.996094 L 15.53125 13.074219 L 16.144531 13.691406 L 15.222656 14.613281 Z M 14.609375 13.996094 "/>
<path fill-rule="nonzero" fill="rgb(20%, 20%, 20%)" fill-opacity="1" d="M 13.992188 14.613281 L 13.070312 15.535156 L 13.6875 16.148438 L 14.609375 15.226562 Z M 13.992188 14.613281 "/>
<path fill-rule="nonzero" fill="rgb(20%, 20%, 20%)" fill-opacity="1" d="M 12.152344 5.390625 L 13.074219 6.3125 L 13.691406 5.699219 L 12.769531 4.777344 Z M 12.152344 5.390625 "/>
<path fill-rule="nonzero" fill="rgb(20%, 20%, 20%)" fill-opacity="1" d="M 14.613281 7.851562 L 13.691406 6.929688 L 14.304688 6.3125 L 15.226562 7.234375 Z M 14.613281 7.851562 "/>
<path fill-rule="nonzero" fill="rgb(20%, 20%, 20%)" fill-opacity="1" d="M 16.457031 6.003906 L 15.535156 5.082031 L 16.148438 4.46875 L 17.070312 5.390625 Z M 16.457031 6.003906 "/>
<path fill-rule="nonzero" fill="rgb(20%, 20%, 20%)" fill-opacity="1" d="M 6.003906 16.453125 L 3.546875 13.996094 L 2.929688 14.609375 L 5.390625 17.070312 Z M 6.003906 16.453125 "/>
<path fill-rule="nonzero" fill="rgb(20%, 20%, 20%)" fill-opacity="1" d="M 6.003906 14.609375 L 6.925781 15.53125 L 6.3125 16.144531 L 5.390625 15.222656 Z M 6.003906 14.609375 "/>
<path fill-rule="nonzero" fill="rgb(20%, 20%, 20%)" fill-opacity="1" d="M 5.390625 13.996094 L 4.46875 13.074219 L 3.851562 13.6875 L 4.773438 14.609375 Z M 5.390625 13.996094 "/>
<path fill-rule="nonzero" fill="rgb(20%, 20%, 20%)" fill-opacity="1" d="M 5.390625 12.148438 L 7.847656 14.609375 L 7.234375 15.222656 L 4.773438 12.765625 Z M 5.390625 12.148438 "/>
<path fill-rule="nonzero" fill="rgb(20%, 20%, 20%)" fill-opacity="1" d="M 6.925781 4.464844 L 4.46875 6.925781 L 3.851562 6.308594 L 6.3125 3.851562 Z M 6.925781 4.464844 "/>
<path fill-rule="nonzero" fill="rgb(20%, 20%, 20%)" fill-opacity="1" d="M 5.390625 7.847656 L 7.847656 5.386719 L 7.234375 4.773438 L 4.773438 7.234375 Z M 5.390625 7.847656 "/>
<path fill-rule="nonzero" fill="rgb(84.705882%, 0%, 15.294118%)" fill-opacity="1" d="M 7.347656 7.347656 C 5.882812 8.8125 5.882812 11.1875 7.347656 12.652344 C 8.8125 14.117188 11.1875 14.117188 12.652344 12.652344 C 14.117188 11.1875 14.117188 8.8125 12.652344 7.347656 C 11.1875 5.882812 8.8125 5.882812 7.347656 7.347656 Z M 7.347656 7.347656 "/>
<path fill-rule="nonzero" fill="rgb(0%, 32.156863%, 70.588235%)" fill-opacity="1" d="M 7.347656 7.347656 C 5.882812 8.8125 5.882812 11.1875 7.347656 12.648438 C 8.808594 14.113281 11.1875 14.117188 12.652344 12.652344 C 13.382812 11.917969 13.386719 10.730469 12.652344 9.996094 C 11.917969 9.261719 10.730469 9.265625 10 10 C 9.265625 10.734375 8.078125 10.734375 7.34375 10 C 6.613281 9.269531 6.613281 8.082031 7.347656 7.347656 Z M 7.347656 7.347656 "/>
</svg>
